<?xml version="1.0" encoding="UTF-8" standalone="no"?>
<!DOCTYPE svg PUBLIC "-//W3C//DTD SVG 1.1//EN"
 "http://www.w3.org/Graphics/SVG/1.1/DTD/svg11.dtd">
<!-- Generated by graphviz version 2.38.0 (20140413.2041)
 -->
<!-- Title: is_one_of Pages: 1 -->
<svg width="200pt" height="78pt"
 viewBox="0.00 0.00 200.00 77.50" xmlns="http://www.w3.org/2000/svg" xmlns:xlink="http://www.w3.org/1999/xlink">
<g id="graph0" class="graph" transform="scale(1 1) rotate(0) translate(4 73.5)">
<title>is_one_of</title>
<polygon fill="white" stroke="none" points="-4,4 -4,-73.5 196,-73.5 196,4 -4,4"/>
<!-- Node3 -->
<g id="node1" class="node"><title>Node3</title>
<g id="a_node1"><a xlink:title=" ">
<polygon fill="#bfbfbf" stroke="black" points="134,-22.5 134,-41.5 192,-41.5 192,-22.5 134,-22.5"/>
<text text-anchor="middle" x="163" y="-29.5" font-family="Helvetica,sans-Serif" font-size="10.00">is_one_of</text>
</a>
</g>
</g>
<!-- Node4 -->
<g id="node2" class="node"><title>Node4</title>
<g id="a_node2"><a xlink:href="structa_value_impl.html#a48a07572f3231b1c5ef8e14d88250ae5" target="_top" xlink:title=" ">
<polygon fill="white" stroke="black" points="0,-39 0,-69 98,-69 98,-39 0,-39"/>
<text text-anchor="start" x="8" y="-57" font-family="Helvetica,sans-Serif" font-size="10.00">aValueImpl&lt; string</text>
<text text-anchor="middle" x="49" y="-46" font-family="Helvetica,sans-Serif" font-size="10.00"> &gt;::canConvert</text>
</a>
</g>
</g>
<!-- Node3&#45;&gt;Node4 -->
<g id="edge1" class="edge"><title>Node3&#45;&gt;Node4</title>
<path fill="none" stroke="midnightblue" d="M123.735,-39.5164C115.552,-41.1238 106.805,-42.8418 98.3006,-44.5124"/>
<polygon fill="midnightblue" stroke="midnightblue" points="124.6,-42.9134 133.738,-37.5515 123.251,-36.0447 124.6,-42.9134"/>
</g>
<!-- Node5 -->
<g id="node3" class="node"><title>Node5</title>
<g id="a_node3"><a xlink:href="_helpers_8hpp.html#ad3927649aca27c6bce61d820ac41b609" target="_top" xlink:title=" ">
<polygon fill="white" stroke="black" points="20,-0.5 20,-19.5 78,-19.5 78,-0.5 20,-0.5"/>
<text text-anchor="middle" x="49" y="-7.5" font-family="Helvetica,sans-Serif" font-size="10.00">is_one_of</text>
</a>
</g>
</g>
<!-- Node3&#45;&gt;Node5 -->
<g id="edge2" class="edge"><title>Node3&#45;&gt;Node5</title>
<path fill="none" stroke="midnightblue" d="M123.767,-24.49C108.846,-21.559 92.0469,-18.2592 78.2533,-15.5498"/>
<polygon fill="midnightblue" stroke="midnightblue" points="123.251,-27.9553 133.738,-26.4485 124.6,-21.0866 123.251,-27.9553"/>
</g>
</g>
</svg>
