<?xml version="1.0" encoding="UTF-8" standalone="no"?>
<!DOCTYPE svg PUBLIC "-//W3C//DTD SVG 1.1//EN"
 "http://www.w3.org/Graphics/SVG/1.1/DTD/svg11.dtd">
<!-- Generated by graphviz version 2.38.0 (20140413.2041)
 -->
<!-- Title: flush Pages: 1 -->
<svg width="326pt" height="66pt"
 viewBox="0.00 0.00 326.00 66.00" xmlns="http://www.w3.org/2000/svg" xmlns:xlink="http://www.w3.org/1999/xlink">
<g id="graph0" class="graph" transform="scale(1 1) rotate(0) translate(4 62)">
<title>flush</title>
<polygon fill="white" stroke="none" points="-4,4 -4,-62 322,-62 322,4 -4,4"/>
<!-- Node10 -->
<g id="node1" class="node"><title>Node10</title>
<g id="a_node1"><a xlink:title=" ">
<polygon fill="#bfbfbf" stroke="black" points="281,-19.5 281,-38.5 318,-38.5 318,-19.5 281,-19.5"/>
<text text-anchor="middle" x="299.5" y="-26.5" font-family="Helvetica,sans-Serif" font-size="10.00">flush</text>
</a>
</g>
</g>
<!-- Node11 -->
<g id="node2" class="node"><title>Node11</title>
<g id="a_node2"><a xlink:href="classoutputbuf.html#ae4bacbf184222fca04c7e3f09309e1c2" target="_top" xlink:title=" ">
<polygon fill="white" stroke="black" points="144,-19.5 144,-38.5 245,-38.5 245,-19.5 144,-19.5"/>
<text text-anchor="middle" x="194.5" y="-26.5" font-family="Helvetica,sans-Serif" font-size="10.00">outputbuf::flushMsg</text>
</a>
</g>
</g>
<!-- Node10&#45;&gt;Node11 -->
<g id="edge1" class="edge"><title>Node10&#45;&gt;Node11</title>
<path fill="none" stroke="midnightblue" d="M270.498,-29C262.628,-29 253.825,-29 245.096,-29"/>
<polygon fill="midnightblue" stroke="midnightblue" points="270.559,-32.5001 280.559,-29 270.559,-25.5001 270.559,-32.5001"/>
</g>
<!-- Node12 -->
<g id="node3" class="node"><title>Node12</title>
<g id="a_node3"><a xlink:href="classoutputbuf.html#ab37c9e3806825271abd4f04d0f045e54" target="_top" xlink:title=" ">
<polygon fill="white" stroke="black" points="0,-38.5 0,-57.5 108,-57.5 108,-38.5 0,-38.5"/>
<text text-anchor="middle" x="54" y="-45.5" font-family="Helvetica,sans-Serif" font-size="10.00">outputbuf::~outputbuf</text>
</a>
</g>
</g>
<!-- Node11&#45;&gt;Node12 -->
<g id="edge2" class="edge"><title>Node11&#45;&gt;Node12</title>
<path fill="none" stroke="midnightblue" d="M133.907,-37.1752C125.296,-38.3565 116.482,-39.5657 108.011,-40.7277"/>
<polygon fill="midnightblue" stroke="midnightblue" points="134.458,-40.6325 143.89,-35.8058 133.507,-33.6974 134.458,-40.6325"/>
</g>
<!-- Node13 -->
<g id="node4" class="node"><title>Node13</title>
<g id="a_node4"><a xlink:href="classoutputbuf.html#a7525670600d2f14b79000875633aa6d8" target="_top" xlink:title=" ">
<polygon fill="white" stroke="black" points="6,-0.5 6,-19.5 102,-19.5 102,-0.5 6,-0.5"/>
<text text-anchor="middle" x="54" y="-7.5" font-family="Helvetica,sans-Serif" font-size="10.00">outputbuf::overflow</text>
</a>
</g>
</g>
<!-- Node11&#45;&gt;Node13 -->
<g id="edge3" class="edge"><title>Node11&#45;&gt;Node13</title>
<path fill="none" stroke="midnightblue" d="M133.918,-20.8263C123.387,-19.3816 112.551,-17.8951 102.411,-16.504"/>
<polygon fill="midnightblue" stroke="midnightblue" points="133.507,-24.3026 143.89,-22.1942 134.458,-17.3675 133.507,-24.3026"/>
</g>
</g>
</svg>
