<?xml version="1.0" encoding="UTF-8" standalone="no"?>
<!DOCTYPE svg PUBLIC "-//W3C//DTD SVG 1.1//EN"
 "http://www.w3.org/Graphics/SVG/1.1/DTD/svg11.dtd">
<!-- Generated by graphviz version 2.38.0 (20140413.2041)
 -->
<!-- Title: aClass::toString Pages: 1 -->
<svg width="241pt" height="66pt"
 viewBox="0.00 0.00 241.00 66.00" xmlns="http://www.w3.org/2000/svg" xmlns:xlink="http://www.w3.org/1999/xlink">
<g id="graph0" class="graph" transform="scale(1 1) rotate(0) translate(4 62)">
<title>aClass::toString</title>
<polygon fill="white" stroke="none" points="-4,4 -4,-62 237,-62 237,4 -4,4"/>
<!-- Node6 -->
<g id="node1" class="node"><title>Node6</title>
<g id="a_node1"><a xlink:title=" ">
<polygon fill="#bfbfbf" stroke="black" points="0,-19.5 0,-38.5 86,-38.5 86,-19.5 0,-19.5"/>
<text text-anchor="middle" x="43" y="-26.5" font-family="Helvetica,sans-Serif" font-size="10.00">aClass::toString</text>
</a>
</g>
</g>
<!-- Node7 -->
<g id="node2" class="node"><title>Node7</title>
<g id="a_node2"><a xlink:href="structa_value_impl.html#a2105a8fe1f5f4e1c01fcba41b90d54ec" target="_top" xlink:title="The implicit conversion">
<polygon fill="white" stroke="black" points="122,-38.5 122,-57.5 233,-57.5 233,-38.5 122,-38.5"/>
<text text-anchor="middle" x="177.5" y="-45.5" font-family="Helvetica,sans-Serif" font-size="10.00">aValueImpl::get_value</text>
</a>
</g>
</g>
<!-- Node6&#45;&gt;Node7 -->
<g id="edge1" class="edge"><title>Node6&#45;&gt;Node7</title>
<path fill="none" stroke="midnightblue" d="M86.2881,-35.064C94.3446,-36.2192 102.947,-37.4528 111.522,-38.6824"/>
<polygon fill="midnightblue" stroke="midnightblue" points="111.144,-42.164 121.54,-40.1189 112.138,-35.2349 111.144,-42.164"/>
</g>
<!-- Node8 -->
<g id="node3" class="node"><title>Node8</title>
<g id="a_node3"><a xlink:href="structa_interface.html#a8e61b5f470cd5ee8648a7e60f30967a8" target="_top" xlink:title=" ">
<polygon fill="white" stroke="black" points="128.5,-0.5 128.5,-19.5 226.5,-19.5 226.5,-0.5 128.5,-0.5"/>
<text text-anchor="middle" x="177.5" y="-7.5" font-family="Helvetica,sans-Serif" font-size="10.00">aInterface::toString</text>
</a>
</g>
</g>
<!-- Node6&#45;&gt;Node8 -->
<g id="edge2" class="edge"><title>Node6&#45;&gt;Node8</title>
<path fill="none" stroke="midnightblue" d="M86.2881,-22.936C96.3895,-21.4875 107.35,-19.9159 118.036,-18.3835"/>
<polygon fill="midnightblue" stroke="midnightblue" points="118.759,-21.8158 128.161,-16.9317 117.765,-14.8866 118.759,-21.8158"/>
</g>
</g>
</svg>
