<?xml version="1.0" encoding="UTF-8" standalone="no"?>
<!DOCTYPE svg PUBLIC "-//W3C//DTD SVG 1.1//EN"
 "http://www.w3.org/Graphics/SVG/1.1/DTD/svg11.dtd">
<!-- Generated by graphviz version 2.38.0 (20140413.2041)
 -->
<!-- Title: outputbuf::flushMsg Pages: 1 -->
<svg width="280pt" height="28pt"
 viewBox="0.00 0.00 280.00 28.00" xmlns="http://www.w3.org/2000/svg" xmlns:xlink="http://www.w3.org/1999/xlink">
<g id="graph0" class="graph" transform="scale(1 1) rotate(0) translate(4 24)">
<title>outputbuf::flushMsg</title>
<polygon fill="white" stroke="none" points="-4,4 -4,-24 276,-24 276,4 -4,4"/>
<!-- Node9 -->
<g id="node1" class="node"><title>Node9</title>
<g id="a_node1"><a xlink:title=" ">
<polygon fill="#bfbfbf" stroke="black" points="0,-0.5 0,-19.5 101,-19.5 101,-0.5 0,-0.5"/>
<text text-anchor="middle" x="50.5" y="-7.5" font-family="Helvetica,sans-Serif" font-size="10.00">outputbuf::flushMsg</text>
</a>
</g>
</g>
<!-- Node10 -->
<g id="node2" class="node"><title>Node10</title>
<g id="a_node2"><a xlink:href="_output_stream_8hpp.html#ad715e61f7587d83c205d24cfc114282a" target="_top" xlink:title=" ">
<polygon fill="white" stroke="black" points="137,-0.5 137,-19.5 174,-19.5 174,-0.5 137,-0.5"/>
<text text-anchor="middle" x="155.5" y="-7.5" font-family="Helvetica,sans-Serif" font-size="10.00">flush</text>
</a>
</g>
</g>
<!-- Node9&#45;&gt;Node10 -->
<g id="edge1" class="edge"><title>Node9&#45;&gt;Node10</title>
<path fill="none" stroke="midnightblue" d="M101.19,-10C109.961,-10 118.802,-10 126.694,-10"/>
<polygon fill="midnightblue" stroke="midnightblue" points="126.772,-13.5001 136.772,-10 126.772,-6.5001 126.772,-13.5001"/>
</g>
<!-- Node11 -->
<g id="node3" class="node"><title>Node11</title>
<g id="a_node3"><a xlink:href="_output_stream_8hpp.html#a6f5aeb49c79888b7f6ab858f5d1bb9f2" target="_top" xlink:title=" ">
<polygon fill="white" stroke="black" points="210,-0.5 210,-19.5 272,-19.5 272,-0.5 210,-0.5"/>
<text text-anchor="middle" x="241" y="-7.5" font-family="Helvetica,sans-Serif" font-size="10.00">debug_out</text>
</a>
</g>
</g>
<!-- Node10&#45;&gt;Node11 -->
<g id="edge2" class="edge"><title>Node10&#45;&gt;Node11</title>
<path fill="none" stroke="midnightblue" d="M174.208,-10C181.721,-10 190.81,-10 199.802,-10"/>
<polygon fill="midnightblue" stroke="midnightblue" points="199.825,-13.5001 209.825,-10 199.825,-6.5001 199.825,-13.5001"/>
</g>
</g>
</svg>
