<?xml version="1.0" encoding="UTF-8" standalone="no"?>
<!DOCTYPE svg PUBLIC "-//W3C//DTD SVG 1.1//EN"
 "http://www.w3.org/Graphics/SVG/1.1/DTD/svg11.dtd">
<!-- Generated by graphviz version 2.38.0 (20140413.2041)
 -->
<!-- Title: output_stream&lt; Elem &gt; Pages: 1 -->
<svg width="229pt" height="162pt"
 viewBox="0.00 0.00 228.50 162.00" xmlns="http://www.w3.org/2000/svg" xmlns:xlink="http://www.w3.org/1999/xlink">
<g id="graph0" class="graph" transform="scale(1 1) rotate(0) translate(4 158)">
<title>output_stream&lt; Elem &gt;</title>
<polygon fill="white" stroke="none" points="-4,4 -4,-158 224.5,-158 224.5,4 -4,4"/>
<!-- Node0 -->
<g id="node1" class="node"><title>Node0</title>
<g id="a_node1"><a xlink:title=" ">
<polygon fill="#bfbfbf" stroke="black" points="52,-0.5 52,-19.5 171,-19.5 171,-0.5 52,-0.5"/>
<text text-anchor="middle" x="111.5" y="-7.5" font-family="Helvetica,sans-Serif" font-size="10.00">output_stream&lt; Elem &gt;</text>
</a>
</g>
</g>
<!-- Node1 -->
<g id="node2" class="node"><title>Node1</title>
<g id="a_node2"><a xlink:href="classoutputbuf.html" target="_top" xlink:title=" ">
<polygon fill="white" stroke="black" points="5,-62 5,-81 102,-81 102,-62 5,-62"/>
<text text-anchor="middle" x="53.5" y="-69" font-family="Helvetica,sans-Serif" font-size="10.00">outputbuf&lt; Elem &gt;</text>
</a>
</g>
</g>
<!-- Node1&#45;&gt;Node0 -->
<g id="edge1" class="edge"><title>Node1&#45;&gt;Node0</title>
<path fill="none" stroke="#8b1a1a" d="M69.0991,-54.4975C80.0771,-43.2356 94.3394,-28.6044 103.205,-19.5091"/>
<polygon fill="#8b1a1a" stroke="#8b1a1a" points="66.284,-52.3712 61.81,-61.9751 71.2965,-57.2574 66.284,-52.3712"/>
</g>
<!-- Node2 -->
<g id="node3" class="node"><title>Node2</title>
<g id="a_node3"><a xlink:title=" ">
<polygon fill="white" stroke="#bfbfbf" points="0,-123.5 0,-153.5 107,-153.5 107,-123.5 0,-123.5"/>
<text text-anchor="start" x="8" y="-141.5" font-family="Helvetica,sans-Serif" font-size="10.00">std::basic_streambuf</text>
<text text-anchor="middle" x="53.5" y="-130.5" font-family="Helvetica,sans-Serif" font-size="10.00">&lt; Elem &gt;</text>
</a>
</g>
</g>
<!-- Node2&#45;&gt;Node1 -->
<g id="edge2" class="edge"><title>Node2&#45;&gt;Node1</title>
<path fill="none" stroke="midnightblue" d="M53.5,-113.25C53.5,-102.017 53.5,-89.3767 53.5,-81.1945"/>
<polygon fill="midnightblue" stroke="midnightblue" points="50.0001,-113.396 53.5,-123.396 57.0001,-113.396 50.0001,-113.396"/>
</g>
<!-- Node3 -->
<g id="node4" class="node"><title>Node3</title>
<g id="a_node4"><a xlink:title=" ">
<polygon fill="white" stroke="#bfbfbf" points="120.5,-56.5 120.5,-86.5 220.5,-86.5 220.5,-56.5 120.5,-56.5"/>
<text text-anchor="start" x="128.5" y="-74.5" font-family="Helvetica,sans-Serif" font-size="10.00">std::basic_ostream</text>
<text text-anchor="middle" x="170.5" y="-63.5" font-family="Helvetica,sans-Serif" font-size="10.00">&lt; Elem &gt;</text>
</a>
</g>
</g>
<!-- Node3&#45;&gt;Node0 -->
<g id="edge3" class="edge"><title>Node3&#45;&gt;Node0</title>
<path fill="none" stroke="midnightblue" d="M149.183,-49.0023C139.128,-38.8617 127.695,-27.3319 120.085,-19.6578"/>
<polygon fill="midnightblue" stroke="midnightblue" points="146.991,-51.7629 156.518,-56.3993 151.962,-46.834 146.991,-51.7629"/>
</g>
</g>
</svg>
