<?xml version="1.0" encoding="UTF-8" standalone="no"?>
<!DOCTYPE svg PUBLIC "-//W3C//DTD SVG 1.1//EN"
 "http://www.w3.org/Graphics/SVG/1.1/DTD/svg11.dtd">
<!-- Generated by graphviz version 2.38.0 (20140413.2041)
 -->
<!-- Title: aClass Pages: 1 -->
<svg width="399pt" height="219pt"
 viewBox="0.00 0.00 399.01 219.00" xmlns="http://www.w3.org/2000/svg" xmlns:xlink="http://www.w3.org/1999/xlink">
<g id="graph0" class="graph" transform="scale(1 1) rotate(0) translate(4 215)">
<title>aClass</title>
<polygon fill="white" stroke="none" points="-4,4 -4,-215 395.007,-215 395.007,4 -4,4"/>
<!-- Node2 -->
<g id="node1" class="node"><title>Node2</title>
<g id="a_node1"><a xlink:title="aClass to do something">
<polygon fill="#bfbfbf" stroke="black" points="109.507,-0.5 109.507,-19.5 156.507,-19.5 156.507,-0.5 109.507,-0.5"/>
<text text-anchor="middle" x="133.007" y="-7.5" font-family="Helvetica,sans-Serif" font-size="10.00">aClass</text>
</a>
</g>
</g>
<!-- Node3 -->
<g id="node2" class="node"><title>Node3</title>
<g id="a_node2"><a xlink:href="structa_interface.html" target="_top" xlink:title=" ">
<polygon fill="white" stroke="black" points="2.50703,-191.5 2.50703,-210.5 61.507,-210.5 61.507,-191.5 2.50703,-191.5"/>
<text text-anchor="middle" x="32.007" y="-198.5" font-family="Helvetica,sans-Serif" font-size="10.00">aInterface</text>
</a>
</g>
</g>
<!-- Node3&#45;&gt;Node2 -->
<g id="edge1" class="edge"><title>Node3&#45;&gt;Node2</title>
<path fill="none" stroke="midnightblue" d="M22.1494,-182.359C8.49203,-155.308 -12.0438,-102.944 11.007,-67 32.6462,-33.2574 80.2805,-19.5771 109.211,-14.2324"/>
<polygon fill="midnightblue" stroke="midnightblue" points="19.166,-184.204 26.9417,-191.4 25.3509,-180.925 19.166,-184.204"/>
</g>
<!-- Node5 -->
<g id="node4" class="node"><title>Node5</title>
<g id="a_node4"><a xlink:href="structa_value.html" target="_top" xlink:title=" ">
<polygon fill="white" stroke="black" points="106.507,-134.5 106.507,-153.5 153.507,-153.5 153.507,-134.5 106.507,-134.5"/>
<text text-anchor="middle" x="130.007" y="-141.5" font-family="Helvetica,sans-Serif" font-size="10.00">aValue</text>
</a>
</g>
</g>
<!-- Node3&#45;&gt;Node5 -->
<g id="edge4" class="edge"><title>Node3&#45;&gt;Node5</title>
<path fill="none" stroke="midnightblue" d="M56.2504,-186.394C74.5751,-176.11 99.1649,-162.309 114.802,-153.533"/>
<polygon fill="midnightblue" stroke="midnightblue" points="54.3271,-183.46 47.3195,-191.406 57.753,-189.564 54.3271,-183.46"/>
</g>
<!-- Node4 -->
<g id="node3" class="node"><title>Node4</title>
<g id="a_node3"><a xlink:href="structa_value_impl.html" target="_top" xlink:title=" ">
<polygon fill="white" stroke="black" points="20.507,-67.5 20.507,-86.5 127.507,-86.5 127.507,-67.5 20.507,-67.5"/>
<text text-anchor="middle" x="74.007" y="-74.5" font-family="Helvetica,sans-Serif" font-size="10.00">aValueImpl&lt; string &gt;</text>
</a>
</g>
</g>
<!-- Node4&#45;&gt;Node2 -->
<g id="edge2" class="edge"><title>Node4&#45;&gt;Node2</title>
<path fill="none" stroke="#9a32cd" stroke-dasharray="5,2" d="M88.8616,-59.6348C100.4,-46.9228 115.944,-29.7978 125.176,-19.6273"/>
<polygon fill="#9a32cd" stroke="#9a32cd" points="86.0935,-57.4769 81.964,-67.2338 91.2767,-62.1816 86.0935,-57.4769"/>
<text text-anchor="middle" x="128.007" y="-41" font-family="Helvetica,sans-Serif" font-size="10.00"> aString_</text>
</g>
<!-- Node5&#45;&gt;Node4 -->
<g id="edge3" class="edge"><title>Node5&#45;&gt;Node4</title>
<path fill="none" stroke="midnightblue" d="M120.959,-125.281C117.119,-118.581 112.304,-111.105 107.007,-105 100.991,-98.067 93.0609,-91.5157 86.4821,-86.6028"/>
<polygon fill="midnightblue" stroke="midnightblue" points="117.996,-127.161 125.829,-134.294 124.154,-123.833 117.996,-127.161"/>
</g>
<!-- Node8 -->
<g id="node7" class="node"><title>Node8</title>
<g id="a_node7"><a xlink:href="structa_value_impl.html" target="_top" xlink:title=" ">
<polygon fill="white" stroke="black" points="145.507,-67.5 145.507,-86.5 238.507,-86.5 238.507,-67.5 145.507,-67.5"/>
<text text-anchor="middle" x="192.007" y="-74.5" font-family="Helvetica,sans-Serif" font-size="10.00">aValueImpl&lt; int &gt;</text>
</a>
</g>
</g>
<!-- Node5&#45;&gt;Node8 -->
<g id="edge8" class="edge"><title>Node5&#45;&gt;Node8</title>
<path fill="none" stroke="midnightblue" d="M145.272,-126.997C157.43,-114.25 173.984,-96.8947 183.778,-86.6273"/>
<polygon fill="midnightblue" stroke="midnightblue" points="142.738,-124.582 138.369,-134.234 147.803,-129.413 142.738,-124.582"/>
</g>
<!-- Node6 -->
<g id="node5" class="node"><title>Node6</title>
<g id="a_node5"><a xlink:title=" ">
<polygon fill="white" stroke="#bfbfbf" points="47.507,-134.5 47.507,-153.5 88.507,-153.5 88.507,-134.5 47.507,-134.5"/>
<text text-anchor="middle" x="68.007" y="-141.5" font-family="Helvetica,sans-Serif" font-size="10.00">string</text>
</a>
</g>
</g>
<!-- Node6&#45;&gt;Node4 -->
<g id="edge5" class="edge"><title>Node6&#45;&gt;Node4</title>
<path fill="none" stroke="#9a32cd" stroke-dasharray="5,2" d="M69.7575,-124.037C70.899,-111.67 72.3344,-96.1198 73.2107,-86.6273"/>
<polygon fill="#9a32cd" stroke="#9a32cd" points="66.2503,-123.954 68.8162,-134.234 73.2207,-124.598 66.2503,-123.954"/>
<text text-anchor="middle" x="87.507" y="-108" font-family="Helvetica,sans-Serif" font-size="10.00"> value_</text>
</g>
<!-- Node7 -->
<g id="node6" class="node"><title>Node7</title>
<g id="a_node6"><a xlink:title=" ">
<polygon fill="white" stroke="#bfbfbf" points="257.007,-67.5 257.007,-86.5 391.007,-86.5 391.007,-67.5 257.007,-67.5"/>
<text text-anchor="middle" x="324.007" y="-74.5" font-family="Helvetica,sans-Serif" font-size="10.00">shared_ptr&lt; aOtherClass &gt;</text>
</a>
</g>
</g>
<!-- Node7&#45;&gt;Node2 -->
<g id="edge6" class="edge"><title>Node7&#45;&gt;Node2</title>
<path fill="none" stroke="#9a32cd" stroke-dasharray="5,2" d="M288.902,-64.0534C250.454,-50.969 189.856,-30.3465 156.671,-19.0533"/>
<polygon fill="#9a32cd" stroke="#9a32cd" points="288.049,-67.4601 298.644,-67.3685 290.304,-60.8334 288.049,-67.4601"/>
<text text-anchor="middle" x="264.507" y="-41" font-family="Helvetica,sans-Serif" font-size="10.00"> aMember_</text>
</g>
<!-- Node8&#45;&gt;Node2 -->
<g id="edge7" class="edge"><title>Node8&#45;&gt;Node2</title>
<path fill="none" stroke="#9a32cd" stroke-dasharray="5,2" d="M177.153,-59.6348C165.614,-46.9228 150.07,-29.7978 140.838,-19.6273"/>
<polygon fill="#9a32cd" stroke="#9a32cd" points="174.737,-62.1816 184.05,-67.2338 179.921,-57.4769 174.737,-62.1816"/>
<text text-anchor="middle" x="179.507" y="-41" font-family="Helvetica,sans-Serif" font-size="10.00"> aInt_</text>
</g>
<!-- Node9 -->
<g id="node8" class="node"><title>Node9</title>
<g id="a_node8"><a xlink:title=" ">
<polygon fill="white" stroke="#bfbfbf" points="177.507,-134.5 177.507,-153.5 206.507,-153.5 206.507,-134.5 177.507,-134.5"/>
<text text-anchor="middle" x="192.007" y="-141.5" font-family="Helvetica,sans-Serif" font-size="10.00">int</text>
</a>
</g>
</g>
<!-- Node9&#45;&gt;Node8 -->
<g id="edge9" class="edge"><title>Node9&#45;&gt;Node8</title>
<path fill="none" stroke="#9a32cd" stroke-dasharray="5,2" d="M192.007,-124.037C192.007,-111.67 192.007,-96.1198 192.007,-86.6273"/>
<polygon fill="#9a32cd" stroke="#9a32cd" points="188.507,-124.234 192.007,-134.234 195.507,-124.234 188.507,-124.234"/>
<text text-anchor="middle" x="207.507" y="-108" font-family="Helvetica,sans-Serif" font-size="10.00"> value_</text>
</g>
</g>
</svg>
