<?xml version="1.0" encoding="UTF-8" standalone="no"?>
<!DOCTYPE svg PUBLIC "-//W3C//DTD SVG 1.1//EN"
 "http://www.w3.org/Graphics/SVG/1.1/DTD/svg11.dtd">
<!-- Generated by graphviz version 2.38.0 (20140413.2041)
 -->
<!-- Title: outputbuf&lt; Elem &gt; Pages: 1 -->
<svg width="244pt" height="106pt"
 viewBox="0.00 0.00 243.50 106.00" xmlns="http://www.w3.org/2000/svg" xmlns:xlink="http://www.w3.org/1999/xlink">
<g id="graph0" class="graph" transform="scale(1 1) rotate(0) translate(4 102)">
<title>outputbuf&lt; Elem &gt;</title>
<polygon fill="white" stroke="none" points="-4,4 -4,-102 239.5,-102 239.5,4 -4,4"/>
<!-- Node3 -->
<g id="node1" class="node"><title>Node3</title>
<g id="a_node1"><a xlink:title=" ">
<polygon fill="#bfbfbf" stroke="black" points="68,-0.5 68,-19.5 165,-19.5 165,-0.5 68,-0.5"/>
<text text-anchor="middle" x="116.5" y="-7.5" font-family="Helvetica,sans-Serif" font-size="10.00">outputbuf&lt; Elem &gt;</text>
</a>
</g>
</g>
<!-- Node4 -->
<g id="node2" class="node"><title>Node4</title>
<g id="a_node2"><a xlink:title=" ">
<polygon fill="white" stroke="#bfbfbf" points="0,-67.5 0,-97.5 107,-97.5 107,-67.5 0,-67.5"/>
<text text-anchor="start" x="8" y="-85.5" font-family="Helvetica,sans-Serif" font-size="10.00">std::basic_streambuf</text>
<text text-anchor="middle" x="53.5" y="-74.5" font-family="Helvetica,sans-Serif" font-size="10.00">&lt; Elem &gt;</text>
</a>
</g>
</g>
<!-- Node4&#45;&gt;Node3 -->
<g id="edge1" class="edge"><title>Node4&#45;&gt;Node3</title>
<path fill="none" stroke="midnightblue" d="M72.9259,-59.7615C84.9161,-46.3439 99.6565,-29.8487 108.553,-19.8932"/>
<polygon fill="midnightblue" stroke="midnightblue" points="70.3025,-57.4445 66.249,-67.2333 75.5221,-62.1089 70.3025,-57.4445"/>
</g>
<!-- Node5 -->
<g id="node3" class="node"><title>Node5</title>
<g id="a_node3"><a xlink:title=" ">
<polygon fill="white" stroke="#bfbfbf" points="125.5,-73 125.5,-92 235.5,-92 235.5,-73 125.5,-73"/>
<text text-anchor="middle" x="180.5" y="-80" font-family="Helvetica,sans-Serif" font-size="10.00">basic_string&lt; Elem &gt;</text>
</a>
</g>
</g>
<!-- Node5&#45;&gt;Node3 -->
<g id="edge2" class="edge"><title>Node5&#45;&gt;Node3</title>
<path fill="none" stroke="#9a32cd" stroke-dasharray="5,2" d="M165.79,-65.2962C152.918,-51.1172 134.713,-31.0626 124.412,-19.7154"/>
<polygon fill="#9a32cd" stroke="#9a32cd" points="163.339,-67.8037 172.652,-72.8553 168.522,-63.0986 163.339,-67.8037"/>
<text text-anchor="middle" x="161.5" y="-41" font-family="Helvetica,sans-Serif" font-size="10.00"> msg</text>
</g>
</g>
</svg>
