<?xml version="1.0" encoding="UTF-8" standalone="no"?>
<!DOCTYPE svg PUBLIC "-//W3C//DTD SVG 1.1//EN"
 "http://www.w3.org/Graphics/SVG/1.1/DTD/svg11.dtd">
<!-- Generated by graphviz version 2.38.0 (20140413.2041)
 -->
<!-- Title: aOtherClass Pages: 1 -->
<svg width="397pt" height="240pt"
 viewBox="0.00 0.00 397.00 240.00" xmlns="http://www.w3.org/2000/svg" xmlns:xlink="http://www.w3.org/1999/xlink">
<g id="graph0" class="graph" transform="scale(1 1) rotate(0) translate(4 236)">
<title>aOtherClass</title>
<polygon fill="white" stroke="none" points="-4,4 -4,-236 393,-236 393,4 -4,4"/>
<!-- Node2 -->
<g id="node1" class="node"><title>Node2</title>
<g id="a_node1"><a xlink:title=" ">
<polygon fill="#bfbfbf" stroke="black" points="56,-0.5 56,-19.5 127,-19.5 127,-0.5 56,-0.5"/>
<text text-anchor="middle" x="91.5" y="-7.5" font-family="Helvetica,sans-Serif" font-size="10.00">aOtherClass</text>
</a>
</g>
</g>
<!-- Node3 -->
<g id="node2" class="node"><title>Node3</title>
<g id="a_node2"><a xlink:href="structa_interface.html" target="_top" xlink:title=" ">
<polygon fill="white" stroke="black" points="0,-212.5 0,-231.5 59,-231.5 59,-212.5 0,-212.5"/>
<text text-anchor="middle" x="29.5" y="-219.5" font-family="Helvetica,sans-Serif" font-size="10.00">aInterface</text>
</a>
</g>
</g>
<!-- Node3&#45;&gt;Node2 -->
<g id="edge1" class="edge"><title>Node3&#45;&gt;Node2</title>
<path fill="none" stroke="midnightblue" d="M24.6721,-202.603C17.8163,-172.664 8.20173,-112.201 28.5,-67 38.1517,-45.5071 60.5813,-28.899 75.8992,-19.5324"/>
<polygon fill="midnightblue" stroke="midnightblue" points="21.3151,-203.61 27.0965,-212.488 28.1136,-201.942 21.3151,-203.61"/>
</g>
<!-- Node9 -->
<g id="node8" class="node"><title>Node9</title>
<g id="a_node8"><a xlink:href="structa_value.html" target="_top" xlink:title=" ">
<polygon fill="white" stroke="black" points="38,-140 38,-159 85,-159 85,-140 38,-140"/>
<text text-anchor="middle" x="61.5" y="-147" font-family="Helvetica,sans-Serif" font-size="10.00">aValue</text>
</a>
</g>
</g>
<!-- Node3&#45;&gt;Node9 -->
<g id="edge8" class="edge"><title>Node3&#45;&gt;Node9</title>
<path fill="none" stroke="midnightblue" d="M37.5875,-203.182C43.9658,-189.13 52.5861,-170.138 57.5441,-159.215"/>
<polygon fill="midnightblue" stroke="midnightblue" points="34.37,-201.803 33.4238,-212.355 40.7441,-204.696 34.37,-201.803"/>
</g>
<!-- Node4 -->
<g id="node3" class="node"><title>Node4</title>
<g id="a_node3"><a xlink:href="struct_property_r_w.html" target="_top" xlink:title=" ">
<polygon fill="white" stroke="black" points="163.5,-67.5 163.5,-86.5 275.5,-86.5 275.5,-67.5 163.5,-67.5"/>
<text text-anchor="middle" x="219.5" y="-74.5" font-family="Helvetica,sans-Serif" font-size="10.00">PropertyRW&lt; string &gt;</text>
</a>
</g>
</g>
<!-- Node4&#45;&gt;Node2 -->
<g id="edge2" class="edge"><title>Node4&#45;&gt;Node2</title>
<path fill="none" stroke="#9a32cd" stroke-dasharray="5,2" d="M193.455,-62.7739C168.103,-49.8999 130.311,-30.7086 108.568,-19.6672"/>
<polygon fill="#9a32cd" stroke="#9a32cd" points="192.002,-65.9614 202.503,-67.3685 195.171,-59.72 192.002,-65.9614"/>
<text text-anchor="middle" x="178" y="-41" font-family="Helvetica,sans-Serif" font-size="10.00"> Name</text>
</g>
<!-- Node5 -->
<g id="node4" class="node"><title>Node5</title>
<g id="a_node4"><a xlink:href="struct_property_r.html" target="_top" xlink:title=" ">
<polygon fill="white" stroke="black" points="165.5,-140 165.5,-159 267.5,-159 267.5,-140 165.5,-140"/>
<text text-anchor="middle" x="216.5" y="-147" font-family="Helvetica,sans-Serif" font-size="10.00">PropertyR&lt; string &gt;</text>
</a>
</g>
</g>
<!-- Node5&#45;&gt;Node4 -->
<g id="edge3" class="edge"><title>Node5&#45;&gt;Node4</title>
<path fill="none" stroke="midnightblue" d="M217.293,-129.858C217.887,-115.895 218.673,-97.4263 219.129,-86.7154"/>
<polygon fill="midnightblue" stroke="midnightblue" points="213.796,-129.716 216.868,-139.855 220.79,-130.013 213.796,-129.716"/>
</g>
<!-- Node6 -->
<g id="node5" class="node"><title>Node6</title>
<g id="a_node5"><a xlink:title=" ">
<polygon fill="white" stroke="#bfbfbf" points="160.5,-212.5 160.5,-231.5 272.5,-231.5 272.5,-212.5 160.5,-212.5"/>
<text text-anchor="middle" x="216.5" y="-219.5" font-family="Helvetica,sans-Serif" font-size="10.00">function&lt; string(void)&gt;</text>
</a>
</g>
</g>
<!-- Node6&#45;&gt;Node5 -->
<g id="edge4" class="edge"><title>Node6&#45;&gt;Node5</title>
<path fill="none" stroke="#9a32cd" stroke-dasharray="5,2" d="M216.5,-201.942C216.5,-188.03 216.5,-169.82 216.5,-159.215"/>
<polygon fill="#9a32cd" stroke="#9a32cd" points="213,-202.355 216.5,-212.355 220,-202.355 213,-202.355"/>
<text text-anchor="middle" x="233.5" y="-186" font-family="Helvetica,sans-Serif" font-size="10.00"> getter_</text>
</g>
<!-- Node7 -->
<g id="node6" class="node"><title>Node7</title>
<g id="a_node6"><a xlink:title=" ">
<polygon fill="white" stroke="#bfbfbf" points="286,-134.5 286,-164.5 389,-164.5 389,-134.5 286,-134.5"/>
<text text-anchor="start" x="294" y="-152.5" font-family="Helvetica,sans-Serif" font-size="10.00">function&lt; void(string</text>
<text text-anchor="middle" x="337.5" y="-141.5" font-family="Helvetica,sans-Serif" font-size="10.00"> newValue)&gt;</text>
</a>
</g>
</g>
<!-- Node7&#45;&gt;Node4 -->
<g id="edge5" class="edge"><title>Node7&#45;&gt;Node4</title>
<path fill="none" stroke="#9a32cd" stroke-dasharray="5,2" d="M305.025,-129.097C281.681,-115.151 251.342,-97.0245 233.783,-86.5336"/>
<polygon fill="#9a32cd" stroke="#9a32cd" points="303.525,-132.278 313.905,-134.403 307.115,-126.269 303.525,-132.278"/>
<text text-anchor="middle" x="299.5" y="-108" font-family="Helvetica,sans-Serif" font-size="10.00"> setter_</text>
</g>
<!-- Node8 -->
<g id="node7" class="node"><title>Node8</title>
<g id="a_node7"><a xlink:href="structa_value_impl.html" target="_top" xlink:title=" ">
<polygon fill="white" stroke="black" points="38,-67.5 38,-86.5 145,-86.5 145,-67.5 38,-67.5"/>
<text text-anchor="middle" x="91.5" y="-74.5" font-family="Helvetica,sans-Serif" font-size="10.00">aValueImpl&lt; string &gt;</text>
</a>
</g>
</g>
<!-- Node8&#45;&gt;Node2 -->
<g id="edge6" class="edge"><title>Node8&#45;&gt;Node2</title>
<path fill="none" stroke="#9a32cd" stroke-dasharray="5,2" d="M91.5,-57.037C91.5,-44.6703 91.5,-29.1198 91.5,-19.6273"/>
<polygon fill="#9a32cd" stroke="#9a32cd" points="88.0001,-57.2338 91.5,-67.2338 95.0001,-57.2338 88.0001,-57.2338"/>
<text text-anchor="middle" x="108" y="-41" font-family="Helvetica,sans-Serif" font-size="10.00"> name_</text>
</g>
<!-- Node9&#45;&gt;Node8 -->
<g id="edge7" class="edge"><title>Node9&#45;&gt;Node8</title>
<path fill="none" stroke="midnightblue" d="M69.2568,-130.271C75.2183,-116.262 83.1883,-97.5324 87.7913,-86.7154"/>
<polygon fill="midnightblue" stroke="midnightblue" points="65.8737,-129.283 65.1786,-139.855 72.3147,-132.024 65.8737,-129.283"/>
</g>
<!-- Node10 -->
<g id="node9" class="node"><title>Node10</title>
<g id="a_node9"><a xlink:title=" ">
<polygon fill="white" stroke="#bfbfbf" points="103,-140 103,-159 144,-159 144,-140 103,-140"/>
<text text-anchor="middle" x="123.5" y="-147" font-family="Helvetica,sans-Serif" font-size="10.00">string</text>
</a>
</g>
</g>
<!-- Node10&#45;&gt;Node8 -->
<g id="edge9" class="edge"><title>Node10&#45;&gt;Node8</title>
<path fill="none" stroke="#9a32cd" stroke-dasharray="5,2" d="M115.412,-130.682C109.034,-116.63 100.414,-97.6384 95.4559,-86.7154"/>
<polygon fill="#9a32cd" stroke="#9a32cd" points="112.256,-132.196 119.576,-139.855 118.63,-129.303 112.256,-132.196"/>
<text text-anchor="middle" x="124" y="-108" font-family="Helvetica,sans-Serif" font-size="10.00"> value_</text>
</g>
</g>
</svg>
