<?xml version="1.0" encoding="UTF-8" standalone="no"?>
<!DOCTYPE svg PUBLIC "-//W3C//DTD SVG 1.1//EN"
 "http://www.w3.org/Graphics/SVG/1.1/DTD/svg11.dtd">
<!-- Generated by graphviz version 2.38.0 (20140413.2041)
 -->
<!-- Title: Graphical Class Hierarchy Pages: 1 -->
<svg width="317pt" height="142pt"
 viewBox="0.00 0.00 317.00 142.00" xmlns="http://www.w3.org/2000/svg" xmlns:xlink="http://www.w3.org/1999/xlink">
<g id="graph0" class="graph" transform="scale(1 1) rotate(0) translate(4 138)">
<title>Graphical Class Hierarchy</title>
<polygon fill="white" stroke="none" points="-4,4 -4,-138 313,-138 313,4 -4,4"/>
<!-- Node0 -->
<g id="node1" class="node"><title>Node0</title>
<g id="a_node1"><a xlink:href="structa_interface.html" target="_top" xlink:title=" ">
<polygon fill="white" stroke="black" points="0,-76.5 0,-95.5 59,-95.5 59,-76.5 0,-76.5"/>
<text text-anchor="middle" x="29.5" y="-83.5" font-family="Helvetica,sans-Serif" font-size="10.00">aInterface</text>
</a>
</g>
</g>
<!-- Node1 -->
<g id="node2" class="node"><title>Node1</title>
<g id="a_node2"><a xlink:href="classa_class.html" target="_top" xlink:title="aClass to do something">
<polygon fill="white" stroke="black" points="107,-114.5 107,-133.5 154,-133.5 154,-114.5 107,-114.5"/>
<text text-anchor="middle" x="130.5" y="-121.5" font-family="Helvetica,sans-Serif" font-size="10.00">aClass</text>
</a>
</g>
</g>
<!-- Node0&#45;&gt;Node1 -->
<g id="edge1" class="edge"><title>Node0&#45;&gt;Node1</title>
<path fill="none" stroke="midnightblue" d="M65.1861,-99.3139C79.0223,-104.625 94.5595,-110.588 106.896,-115.324"/>
<polygon fill="midnightblue" stroke="midnightblue" points="66.072,-95.905 55.4819,-95.589 63.5635,-102.44 66.072,-95.905"/>
</g>
<!-- Node2 -->
<g id="node3" class="node"><title>Node2</title>
<g id="a_node3"><a xlink:href="classa_other_class.html" target="_top" xlink:title=" ">
<polygon fill="white" stroke="black" points="95,-76.5 95,-95.5 166,-95.5 166,-76.5 95,-76.5"/>
<text text-anchor="middle" x="130.5" y="-83.5" font-family="Helvetica,sans-Serif" font-size="10.00">aOtherClass</text>
</a>
</g>
</g>
<!-- Node0&#45;&gt;Node2 -->
<g id="edge2" class="edge"><title>Node0&#45;&gt;Node2</title>
<path fill="none" stroke="midnightblue" d="M69.2061,-86C77.7029,-86 86.6457,-86 94.9658,-86"/>
<polygon fill="midnightblue" stroke="midnightblue" points="69.1349,-82.5001 59.1349,-86 69.1349,-89.5001 69.1349,-82.5001"/>
</g>
<!-- Node3 -->
<g id="node4" class="node"><title>Node3</title>
<g id="a_node4"><a xlink:href="structa_value.html" target="_top" xlink:title=" ">
<polygon fill="white" stroke="black" points="107,-38.5 107,-57.5 154,-57.5 154,-38.5 107,-38.5"/>
<text text-anchor="middle" x="130.5" y="-45.5" font-family="Helvetica,sans-Serif" font-size="10.00">aValue</text>
</a>
</g>
</g>
<!-- Node0&#45;&gt;Node3 -->
<g id="edge3" class="edge"><title>Node0&#45;&gt;Node3</title>
<path fill="none" stroke="midnightblue" d="M65.1861,-72.6861C79.0223,-67.3753 94.5595,-61.4115 106.896,-56.6763"/>
<polygon fill="midnightblue" stroke="midnightblue" points="63.5635,-69.5599 55.4819,-76.411 66.072,-76.095 63.5635,-69.5599"/>
</g>
<!-- Node4 -->
<g id="node5" class="node"><title>Node4</title>
<g id="a_node5"><a xlink:href="structa_value_impl.html" target="_top" xlink:title="A simple value class to enable uniform serialization.">
<polygon fill="white" stroke="black" points="211.5,-76.5 211.5,-95.5 299.5,-95.5 299.5,-76.5 211.5,-76.5"/>
<text text-anchor="middle" x="255.5" y="-83.5" font-family="Helvetica,sans-Serif" font-size="10.00">aValueImpl&lt; T &gt;</text>
</a>
</g>
</g>
<!-- Node3&#45;&gt;Node4 -->
<g id="edge4" class="edge"><title>Node3&#45;&gt;Node4</title>
<path fill="none" stroke="midnightblue" d="M163.821,-57.9855C182.352,-63.7103 205.483,-70.8565 223.745,-76.4983"/>
<polygon fill="midnightblue" stroke="midnightblue" points="164.648,-54.5776 154.06,-54.9698 162.581,-61.2657 164.648,-54.5776"/>
</g>
<!-- Node5 -->
<g id="node6" class="node"><title>Node5</title>
<g id="a_node6"><a xlink:href="structa_value_impl.html" target="_top" xlink:title=" ">
<polygon fill="white" stroke="black" points="209,-38.5 209,-57.5 302,-57.5 302,-38.5 209,-38.5"/>
<text text-anchor="middle" x="255.5" y="-45.5" font-family="Helvetica,sans-Serif" font-size="10.00">aValueImpl&lt; int &gt;</text>
</a>
</g>
</g>
<!-- Node3&#45;&gt;Node5 -->
<g id="edge5" class="edge"><title>Node3&#45;&gt;Node5</title>
<path fill="none" stroke="midnightblue" d="M164.42,-48C178.072,-48 194.141,-48 208.899,-48"/>
<polygon fill="midnightblue" stroke="midnightblue" points="164.06,-44.5001 154.06,-48 164.06,-51.5001 164.06,-44.5001"/>
</g>
<!-- Node6 -->
<g id="node7" class="node"><title>Node6</title>
<g id="a_node7"><a xlink:href="structa_value_impl.html" target="_top" xlink:title=" ">
<polygon fill="white" stroke="black" points="202,-0.5 202,-19.5 309,-19.5 309,-0.5 202,-0.5"/>
<text text-anchor="middle" x="255.5" y="-7.5" font-family="Helvetica,sans-Serif" font-size="10.00">aValueImpl&lt; string &gt;</text>
</a>
</g>
</g>
<!-- Node3&#45;&gt;Node6 -->
<g id="edge6" class="edge"><title>Node3&#45;&gt;Node6</title>
<path fill="none" stroke="midnightblue" d="M163.821,-38.0145C182.352,-32.2897 205.483,-25.1435 223.745,-19.5017"/>
<polygon fill="midnightblue" stroke="midnightblue" points="162.581,-34.7343 154.06,-41.0302 164.648,-41.4224 162.581,-34.7343"/>
</g>
</g>
</svg>
