<?xml version="1.0" encoding="UTF-8" standalone="no"?>
<!DOCTYPE svg PUBLIC "-//W3C//DTD SVG 1.1//EN"
 "http://www.w3.org/Graphics/SVG/1.1/DTD/svg11.dtd">
<!-- Generated by graphviz version 2.38.0 (20140413.2041)
 -->
<!-- Title: aValue Pages: 1 -->
<svg width="333pt" height="140pt"
 viewBox="0.00 0.00 332.50 140.00" xmlns="http://www.w3.org/2000/svg" xmlns:xlink="http://www.w3.org/1999/xlink">
<g id="graph0" class="graph" transform="scale(1 1) rotate(0) translate(4 136)">
<title>aValue</title>
<polygon fill="white" stroke="none" points="-4,4 -4,-136 328.5,-136 328.5,4 -4,4"/>
<!-- Node0 -->
<g id="node1" class="node"><title>Node0</title>
<g id="a_node1"><a xlink:title=" ">
<polygon fill="#bfbfbf" stroke="black" points="129.5,-56.5 129.5,-75.5 176.5,-75.5 176.5,-56.5 129.5,-56.5"/>
<text text-anchor="middle" x="153" y="-63.5" font-family="Helvetica,sans-Serif" font-size="10.00">aValue</text>
</a>
</g>
</g>
<!-- Node2 -->
<g id="node3" class="node"><title>Node2</title>
<g id="a_node3"><a xlink:href="structa_value_impl.html" target="_top" xlink:title="A simple value class to enable uniform serialization.">
<polygon fill="white" stroke="black" points="0,-0.5 0,-19.5 88,-19.5 88,-0.5 0,-0.5"/>
<text text-anchor="middle" x="44" y="-7.5" font-family="Helvetica,sans-Serif" font-size="10.00">aValueImpl&lt; T &gt;</text>
</a>
</g>
</g>
<!-- Node0&#45;&gt;Node2 -->
<g id="edge2" class="edge"><title>Node0&#45;&gt;Node2</title>
<path fill="none" stroke="midnightblue" d="M126.481,-51.8622C106.27,-41.8492 79.0129,-28.3458 61.4693,-19.6545"/>
<polygon fill="midnightblue" stroke="midnightblue" points="124.973,-55.0209 135.487,-56.324 128.08,-48.7485 124.973,-55.0209"/>
</g>
<!-- Node3 -->
<g id="node4" class="node"><title>Node3</title>
<g id="a_node4"><a xlink:href="structa_value_impl.html" target="_top" xlink:title=" ">
<polygon fill="white" stroke="black" points="106.5,-0.5 106.5,-19.5 199.5,-19.5 199.5,-0.5 106.5,-0.5"/>
<text text-anchor="middle" x="153" y="-7.5" font-family="Helvetica,sans-Serif" font-size="10.00">aValueImpl&lt; int &gt;</text>
</a>
</g>
</g>
<!-- Node0&#45;&gt;Node3 -->
<g id="edge3" class="edge"><title>Node0&#45;&gt;Node3</title>
<path fill="none" stroke="midnightblue" d="M153,-45.8045C153,-36.9102 153,-26.7798 153,-19.7511"/>
<polygon fill="midnightblue" stroke="midnightblue" points="149.5,-46.083 153,-56.083 156.5,-46.083 149.5,-46.083"/>
</g>
<!-- Node4 -->
<g id="node5" class="node"><title>Node4</title>
<g id="a_node5"><a xlink:href="structa_value_impl.html" target="_top" xlink:title=" ">
<polygon fill="white" stroke="black" points="217.5,-0.5 217.5,-19.5 324.5,-19.5 324.5,-0.5 217.5,-0.5"/>
<text text-anchor="middle" x="271" y="-7.5" font-family="Helvetica,sans-Serif" font-size="10.00">aValueImpl&lt; string &gt;</text>
</a>
</g>
</g>
<!-- Node0&#45;&gt;Node4 -->
<g id="edge4" class="edge"><title>Node0&#45;&gt;Node4</title>
<path fill="none" stroke="midnightblue" d="M180.9,-52.2321C202.973,-42.1312 233.176,-28.3091 252.39,-19.5164"/>
<polygon fill="midnightblue" stroke="midnightblue" points="179.334,-49.0997 171.697,-56.4435 182.247,-55.4648 179.334,-49.0997"/>
</g>
<!-- Node1 -->
<g id="node2" class="node"><title>Node1</title>
<g id="a_node2"><a xlink:href="structa_interface.html" target="_top" xlink:title=" ">
<polygon fill="white" stroke="black" points="123.5,-112.5 123.5,-131.5 182.5,-131.5 182.5,-112.5 123.5,-112.5"/>
<text text-anchor="middle" x="153" y="-119.5" font-family="Helvetica,sans-Serif" font-size="10.00">aInterface</text>
</a>
</g>
</g>
<!-- Node1&#45;&gt;Node0 -->
<g id="edge1" class="edge"><title>Node1&#45;&gt;Node0</title>
<path fill="none" stroke="midnightblue" d="M153,-101.805C153,-92.9102 153,-82.7798 153,-75.7511"/>
<polygon fill="midnightblue" stroke="midnightblue" points="149.5,-102.083 153,-112.083 156.5,-102.083 149.5,-102.083"/>
</g>
</g>
</svg>
