<?xml version="1.0" encoding="UTF-8" standalone="no"?>
<!DOCTYPE svg PUBLIC "-//W3C//DTD SVG 1.1//EN"
 "http://www.w3.org/Graphics/SVG/1.1/DTD/svg11.dtd">
<!-- Generated by graphviz version 2.38.0 (20140413.2041)
 -->
<!-- Title: PropertyRW&lt; T &gt; Pages: 1 -->
<svg width="253pt" height="162pt"
 viewBox="0.00 0.00 252.50 162.00" xmlns="http://www.w3.org/2000/svg" xmlns:xlink="http://www.w3.org/1999/xlink">
<g id="graph0" class="graph" transform="scale(1 1) rotate(0) translate(4 158)">
<title>PropertyRW&lt; T &gt;</title>
<polygon fill="white" stroke="none" points="-4,4 -4,-158 248.5,-158 248.5,4 -4,4"/>
<!-- Node2 -->
<g id="node1" class="node"><title>Node2</title>
<g id="a_node1"><a xlink:title="utility class to emulate the property functionality of .NET">
<polygon fill="#bfbfbf" stroke="black" points="96,-0.5 96,-19.5 189,-19.5 189,-0.5 96,-0.5"/>
<text text-anchor="middle" x="142.5" y="-7.5" font-family="Helvetica,sans-Serif" font-size="10.00">PropertyRW&lt; T &gt;</text>
</a>
</g>
</g>
<!-- Node3 -->
<g id="node2" class="node"><title>Node3</title>
<g id="a_node2"><a xlink:href="struct_property_r.html" target="_top" xlink:title="utility class to emulate the read only property functionality of .NET">
<polygon fill="white" stroke="black" points="5,-67.5 5,-86.5 88,-86.5 88,-67.5 5,-67.5"/>
<text text-anchor="middle" x="46.5" y="-74.5" font-family="Helvetica,sans-Serif" font-size="10.00">PropertyR&lt; T &gt;</text>
</a>
</g>
</g>
<!-- Node3&#45;&gt;Node2 -->
<g id="edge1" class="edge"><title>Node3&#45;&gt;Node2</title>
<path fill="none" stroke="midnightblue" d="M67.7758,-61.5945C86.767,-48.7359 113.95,-30.3306 129.758,-19.6273"/>
<polygon fill="midnightblue" stroke="midnightblue" points="65.7652,-58.729 59.447,-67.2338 69.6898,-64.5254 65.7652,-58.729"/>
</g>
<!-- Node4 -->
<g id="node3" class="node"><title>Node4</title>
<g id="a_node3"><a xlink:title=" ">
<polygon fill="white" stroke="#bfbfbf" points="0,-134.5 0,-153.5 93,-153.5 93,-134.5 0,-134.5"/>
<text text-anchor="middle" x="46.5" y="-141.5" font-family="Helvetica,sans-Serif" font-size="10.00">function&lt; T(void)&gt;</text>
</a>
</g>
</g>
<!-- Node4&#45;&gt;Node3 -->
<g id="edge2" class="edge"><title>Node4&#45;&gt;Node3</title>
<path fill="none" stroke="#9a32cd" stroke-dasharray="5,2" d="M46.5,-124.037C46.5,-111.67 46.5,-96.1198 46.5,-86.6273"/>
<polygon fill="#9a32cd" stroke="#9a32cd" points="43.0001,-124.234 46.5,-134.234 50.0001,-124.234 43.0001,-124.234"/>
<text text-anchor="middle" x="63.5" y="-108" font-family="Helvetica,sans-Serif" font-size="10.00"> getter_</text>
</g>
<!-- Node5 -->
<g id="node4" class="node"><title>Node5</title>
<g id="a_node4"><a xlink:title=" ">
<polygon fill="white" stroke="#bfbfbf" points="106.5,-67.5 106.5,-86.5 244.5,-86.5 244.5,-67.5 106.5,-67.5"/>
<text text-anchor="middle" x="175.5" y="-74.5" font-family="Helvetica,sans-Serif" font-size="10.00">function&lt; void(T newValue)&gt;</text>
</a>
</g>
</g>
<!-- Node5&#45;&gt;Node2 -->
<g id="edge3" class="edge"><title>Node5&#45;&gt;Node2</title>
<path fill="none" stroke="#9a32cd" stroke-dasharray="5,2" d="M166.445,-58.1635C160.08,-45.6281 151.847,-29.4104 146.88,-19.6273"/>
<polygon fill="#9a32cd" stroke="#9a32cd" points="163.402,-59.9016 171.049,-67.2338 169.643,-56.7327 163.402,-59.9016"/>
<text text-anchor="middle" x="178.5" y="-41" font-family="Helvetica,sans-Serif" font-size="10.00"> setter_</text>
</g>
</g>
</svg>
