<?xml version="1.0" encoding="UTF-8" standalone="no"?>
<!DOCTYPE svg PUBLIC "-//W3C//DTD SVG 1.1//EN"
 "http://www.w3.org/Graphics/SVG/1.1/DTD/svg11.dtd">
<!-- Generated by graphviz version 2.38.0 (20140413.2041)
 -->
<!-- Title: aInterface Pages: 1 -->
<svg width="357pt" height="140pt"
 viewBox="0.00 0.00 357.00 140.00" xmlns="http://www.w3.org/2000/svg" xmlns:xlink="http://www.w3.org/1999/xlink">
<g id="graph0" class="graph" transform="scale(1 1) rotate(0) translate(4 136)">
<title>aInterface</title>
<polygon fill="white" stroke="none" points="-4,4 -4,-136 353,-136 353,4 -4,4"/>
<!-- Node0 -->
<g id="node1" class="node"><title>Node0</title>
<g id="a_node1"><a xlink:title=" ">
<polygon fill="#bfbfbf" stroke="black" points="71,-112.5 71,-131.5 130,-131.5 130,-112.5 71,-112.5"/>
<text text-anchor="middle" x="100.5" y="-119.5" font-family="Helvetica,sans-Serif" font-size="10.00">aInterface</text>
</a>
</g>
</g>
<!-- Node1 -->
<g id="node2" class="node"><title>Node1</title>
<g id="a_node2"><a xlink:href="classa_class.html" target="_top" xlink:title="aClass to do something">
<polygon fill="white" stroke="black" points="0,-56.5 0,-75.5 47,-75.5 47,-56.5 0,-56.5"/>
<text text-anchor="middle" x="23.5" y="-63.5" font-family="Helvetica,sans-Serif" font-size="10.00">aClass</text>
</a>
</g>
</g>
<!-- Node0&#45;&gt;Node1 -->
<g id="edge1" class="edge"><title>Node0&#45;&gt;Node1</title>
<path fill="none" stroke="midnightblue" d="M79.599,-106.342C65.5889,-96.5169 47.617,-83.9132 35.8407,-75.6545"/>
<polygon fill="midnightblue" stroke="midnightblue" points="77.9317,-109.448 88.1286,-112.324 81.9509,-103.717 77.9317,-109.448"/>
</g>
<!-- Node2 -->
<g id="node3" class="node"><title>Node2</title>
<g id="a_node3"><a xlink:href="classa_other_class.html" target="_top" xlink:title=" ">
<polygon fill="white" stroke="black" points="65,-56.5 65,-75.5 136,-75.5 136,-56.5 65,-56.5"/>
<text text-anchor="middle" x="100.5" y="-63.5" font-family="Helvetica,sans-Serif" font-size="10.00">aOtherClass</text>
</a>
</g>
</g>
<!-- Node0&#45;&gt;Node2 -->
<g id="edge2" class="edge"><title>Node0&#45;&gt;Node2</title>
<path fill="none" stroke="midnightblue" d="M100.5,-101.805C100.5,-92.9102 100.5,-82.7798 100.5,-75.7511"/>
<polygon fill="midnightblue" stroke="midnightblue" points="97.0001,-102.083 100.5,-112.083 104,-102.083 97.0001,-102.083"/>
</g>
<!-- Node3 -->
<g id="node4" class="node"><title>Node3</title>
<g id="a_node4"><a xlink:href="structa_value.html" target="_top" xlink:title=" ">
<polygon fill="white" stroke="black" points="154,-56.5 154,-75.5 201,-75.5 201,-56.5 154,-56.5"/>
<text text-anchor="middle" x="177.5" y="-63.5" font-family="Helvetica,sans-Serif" font-size="10.00">aValue</text>
</a>
</g>
</g>
<!-- Node0&#45;&gt;Node3 -->
<g id="edge3" class="edge"><title>Node0&#45;&gt;Node3</title>
<path fill="none" stroke="midnightblue" d="M121.401,-106.342C135.411,-96.5169 153.383,-83.9132 165.159,-75.6545"/>
<polygon fill="midnightblue" stroke="midnightblue" points="119.049,-103.717 112.871,-112.324 123.068,-109.448 119.049,-103.717"/>
</g>
<!-- Node4 -->
<g id="node5" class="node"><title>Node4</title>
<g id="a_node5"><a xlink:href="structa_value_impl.html" target="_top" xlink:title="A simple value class to enable uniform serialization.">
<polygon fill="white" stroke="black" points="24.5,-0.5 24.5,-19.5 112.5,-19.5 112.5,-0.5 24.5,-0.5"/>
<text text-anchor="middle" x="68.5" y="-7.5" font-family="Helvetica,sans-Serif" font-size="10.00">aValueImpl&lt; T &gt;</text>
</a>
</g>
</g>
<!-- Node3&#45;&gt;Node4 -->
<g id="edge4" class="edge"><title>Node3&#45;&gt;Node4</title>
<path fill="none" stroke="midnightblue" d="M150.981,-51.8622C130.77,-41.8492 103.513,-28.3458 85.9693,-19.6545"/>
<polygon fill="midnightblue" stroke="midnightblue" points="149.473,-55.0209 159.987,-56.324 152.58,-48.7485 149.473,-55.0209"/>
</g>
<!-- Node5 -->
<g id="node6" class="node"><title>Node5</title>
<g id="a_node6"><a xlink:href="structa_value_impl.html" target="_top" xlink:title=" ">
<polygon fill="white" stroke="black" points="131,-0.5 131,-19.5 224,-19.5 224,-0.5 131,-0.5"/>
<text text-anchor="middle" x="177.5" y="-7.5" font-family="Helvetica,sans-Serif" font-size="10.00">aValueImpl&lt; int &gt;</text>
</a>
</g>
</g>
<!-- Node3&#45;&gt;Node5 -->
<g id="edge5" class="edge"><title>Node3&#45;&gt;Node5</title>
<path fill="none" stroke="midnightblue" d="M177.5,-45.8045C177.5,-36.9102 177.5,-26.7798 177.5,-19.7511"/>
<polygon fill="midnightblue" stroke="midnightblue" points="174,-46.083 177.5,-56.083 181,-46.083 174,-46.083"/>
</g>
<!-- Node6 -->
<g id="node7" class="node"><title>Node6</title>
<g id="a_node7"><a xlink:href="structa_value_impl.html" target="_top" xlink:title=" ">
<polygon fill="white" stroke="black" points="242,-0.5 242,-19.5 349,-19.5 349,-0.5 242,-0.5"/>
<text text-anchor="middle" x="295.5" y="-7.5" font-family="Helvetica,sans-Serif" font-size="10.00">aValueImpl&lt; string &gt;</text>
</a>
</g>
</g>
<!-- Node3&#45;&gt;Node6 -->
<g id="edge6" class="edge"><title>Node3&#45;&gt;Node6</title>
<path fill="none" stroke="midnightblue" d="M205.4,-52.2321C227.473,-42.1312 257.676,-28.3091 276.89,-19.5164"/>
<polygon fill="midnightblue" stroke="midnightblue" points="203.834,-49.0997 196.197,-56.4435 206.747,-55.4648 203.834,-49.0997"/>
</g>
</g>
</svg>
