<?xml version="1.0" encoding="UTF-8" standalone="no"?>
<!DOCTYPE svg PUBLIC "-//W3C//DTD SVG 1.1//EN"
 "http://www.w3.org/Graphics/SVG/1.1/DTD/svg11.dtd">
<!-- Generated by graphviz version 2.38.0 (20140413.2041)
 -->
<!-- Title: aValueImpl::get_value Pages: 1 -->
<svg width="279pt" height="116pt"
 viewBox="0.00 0.00 279.00 115.50" xmlns="http://www.w3.org/2000/svg" xmlns:xlink="http://www.w3.org/1999/xlink">
<g id="graph0" class="graph" transform="scale(1 1) rotate(0) translate(4 111.5)">
<title>aValueImpl::get_value</title>
<polygon fill="white" stroke="none" points="-4,4 -4,-111.5 275,-111.5 275,4 -4,4"/>
<!-- Node9 -->
<g id="node1" class="node"><title>Node9</title>
<g id="a_node1"><a xlink:title="The implicit conversion">
<polygon fill="#bfbfbf" stroke="black" points="160,-38.5 160,-57.5 271,-57.5 271,-38.5 160,-38.5"/>
<text text-anchor="middle" x="215.5" y="-45.5" font-family="Helvetica,sans-Serif" font-size="10.00">aValueImpl::get_value</text>
</a>
</g>
</g>
<!-- Node10 -->
<g id="node2" class="node"><title>Node10</title>
<g id="a_node2"><a xlink:href="structa_value_impl.html#a7fed6a942ac3621b75c0efb5148050ea" target="_top" xlink:title="The implicit conversion">
<polygon fill="white" stroke="black" points="9,-77 9,-107 115,-107 115,-77 9,-77"/>
<text text-anchor="start" x="17" y="-95" font-family="Helvetica,sans-Serif" font-size="10.00">aValueImpl::operator</text>
<text text-anchor="middle" x="62" y="-84" font-family="Helvetica,sans-Serif" font-size="10.00"> const T &amp;</text>
</a>
</g>
</g>
<!-- Node9&#45;&gt;Node10 -->
<g id="edge1" class="edge"><title>Node9&#45;&gt;Node10</title>
<path fill="none" stroke="midnightblue" d="M171.614,-60.4553C153.964,-65.5813 133.362,-71.5649 114.873,-76.9346"/>
<polygon fill="midnightblue" stroke="midnightblue" points="173,-63.6976 181.627,-57.5473 171.047,-56.9753 173,-63.6976"/>
</g>
<!-- Node11 -->
<g id="node3" class="node"><title>Node11</title>
<g id="a_node3"><a xlink:href="structa_value_impl.html#ac611901efc28dce5fe046dc425c90a63" target="_top" xlink:title=" ">
<polygon fill="white" stroke="black" points="0,-38.5 0,-57.5 124,-57.5 124,-38.5 0,-38.5"/>
<text text-anchor="middle" x="62" y="-45.5" font-family="Helvetica,sans-Serif" font-size="10.00">aValueImpl::operator T &amp;</text>
</a>
</g>
</g>
<!-- Node9&#45;&gt;Node11 -->
<g id="edge2" class="edge"><title>Node9&#45;&gt;Node11</title>
<path fill="none" stroke="midnightblue" d="M149.585,-48C141.107,-48 132.445,-48 124.034,-48"/>
<polygon fill="midnightblue" stroke="midnightblue" points="149.805,-51.5001 159.805,-48 149.805,-44.5001 149.805,-51.5001"/>
</g>
<!-- Node12 -->
<g id="node4" class="node"><title>Node12</title>
<g id="a_node4"><a xlink:href="classa_class.html#aa45a6336a1461fc27395eb3ba5c0db5f" target="_top" xlink:title=" ">
<polygon fill="white" stroke="black" points="19,-0.5 19,-19.5 105,-19.5 105,-0.5 19,-0.5"/>
<text text-anchor="middle" x="62" y="-7.5" font-family="Helvetica,sans-Serif" font-size="10.00">aClass::toString</text>
</a>
</g>
</g>
<!-- Node9&#45;&gt;Node12 -->
<g id="edge3" class="edge"><title>Node9&#45;&gt;Node12</title>
<path fill="none" stroke="midnightblue" d="M166.498,-35.96C145.333,-30.6512 120.814,-24.5012 100.955,-19.5201"/>
<polygon fill="midnightblue" stroke="midnightblue" points="165.719,-39.3729 176.27,-38.411 167.422,-32.5832 165.719,-39.3729"/>
</g>
</g>
</svg>
