<?xml version="1.0" encoding="UTF-8" standalone="no"?>
<!DOCTYPE svg PUBLIC "-//W3C//DTD SVG 1.1//EN"
 "http://www.w3.org/Graphics/SVG/1.1/DTD/svg11.dtd">
<!-- Generated by graphviz version 2.38.0 (20140413.2041)
 -->
<!-- Title: aValueImpl&lt; T &gt; Pages: 1 -->
<svg width="121pt" height="152pt"
 viewBox="0.00 0.00 120.50 152.00" xmlns="http://www.w3.org/2000/svg" xmlns:xlink="http://www.w3.org/1999/xlink">
<g id="graph0" class="graph" transform="scale(1 1) rotate(0) translate(4 148)">
<title>aValueImpl&lt; T &gt;</title>
<polygon fill="white" stroke="none" points="-4,4 -4,-148 116.5,-148 116.5,4 -4,4"/>
<!-- Node3 -->
<g id="node1" class="node"><title>Node3</title>
<g id="a_node1"><a xlink:title="A simple value class to enable uniform serialization.">
<polygon fill="#bfbfbf" stroke="black" points="24.5,-0.5 24.5,-19.5 112.5,-19.5 112.5,-0.5 24.5,-0.5"/>
<text text-anchor="middle" x="68.5" y="-7.5" font-family="Helvetica,sans-Serif" font-size="10.00">aValueImpl&lt; T &gt;</text>
</a>
</g>
</g>
<!-- Node4 -->
<g id="node2" class="node"><title>Node4</title>
<g id="a_node2"><a xlink:href="structa_value.html" target="_top" xlink:title=" ">
<polygon fill="white" stroke="black" points="6,-67.5 6,-86.5 53,-86.5 53,-67.5 6,-67.5"/>
<text text-anchor="middle" x="29.5" y="-74.5" font-family="Helvetica,sans-Serif" font-size="10.00">aValue</text>
</a>
</g>
</g>
<!-- Node4&#45;&gt;Node3 -->
<g id="edge1" class="edge"><title>Node4&#45;&gt;Node3</title>
<path fill="none" stroke="midnightblue" d="M39.9792,-58.5347C47.5301,-45.9499 57.3957,-29.5072 63.3236,-19.6273"/>
<polygon fill="midnightblue" stroke="midnightblue" points="36.9035,-56.8581 34.7597,-67.2338 42.9059,-60.4596 36.9035,-56.8581"/>
</g>
<!-- Node5 -->
<g id="node3" class="node"><title>Node5</title>
<g id="a_node3"><a xlink:href="structa_interface.html" target="_top" xlink:title=" ">
<polygon fill="white" stroke="black" points="0,-124.5 0,-143.5 59,-143.5 59,-124.5 0,-124.5"/>
<text text-anchor="middle" x="29.5" y="-131.5" font-family="Helvetica,sans-Serif" font-size="10.00">aInterface</text>
</a>
</g>
</g>
<!-- Node5&#45;&gt;Node4 -->
<g id="edge2" class="edge"><title>Node5&#45;&gt;Node4</title>
<path fill="none" stroke="midnightblue" d="M29.5,-114.117C29.5,-104.817 29.5,-94.0557 29.5,-86.7149"/>
<polygon fill="midnightblue" stroke="midnightblue" points="26.0001,-114.406 29.5,-124.406 33.0001,-114.406 26.0001,-114.406"/>
</g>
<!-- Node6 -->
<g id="node4" class="node"><title>Node6</title>
<g id="a_node4"><a xlink:title=" ">
<polygon fill="white" stroke="#bfbfbf" points="71,-67.5 71,-86.5 100,-86.5 100,-67.5 71,-67.5"/>
<text text-anchor="middle" x="85.5" y="-74.5" font-family="Helvetica,sans-Serif" font-size="10.00">T</text>
</a>
</g>
</g>
<!-- Node6&#45;&gt;Node3 -->
<g id="edge3" class="edge"><title>Node6&#45;&gt;Node3</title>
<path fill="none" stroke="#9a32cd" stroke-dasharray="5,2" d="M80.6392,-57.4145C77.3893,-44.9883 73.2644,-29.2166 70.7564,-19.6273"/>
<polygon fill="#9a32cd" stroke="#9a32cd" points="77.2908,-58.4448 83.2073,-67.2338 84.0631,-56.6736 77.2908,-58.4448"/>
<text text-anchor="middle" x="93" y="-41" font-family="Helvetica,sans-Serif" font-size="10.00"> value_</text>
</g>
</g>
</svg>
