<?xml version="1.0" encoding="UTF-8" standalone="no"?>
<!DOCTYPE svg PUBLIC "-//W3C//DTD SVG 1.1//EN"
 "http://www.w3.org/Graphics/SVG/1.1/DTD/svg11.dtd">
<!-- Generated by graphviz version 2.38.0 (20140413.2041)
 -->
<!-- Title: src/Controls/Button.cpp Pages: 1 -->
<svg width="410pt" height="420pt"
 viewBox="0.00 0.00 410.00 420.00" xmlns="http://www.w3.org/2000/svg" xmlns:xlink="http://www.w3.org/1999/xlink">
<g id="graph0" class="graph" transform="scale(1 1) rotate(0) translate(4 416)">
<title>src/Controls/Button.cpp</title>
<polygon fill="white" stroke="none" points="-4,4 -4,-416 406,-416 406,4 -4,4"/>
<!-- Node1 -->
<g id="node1" class="node"><title>Node1</title>
<g id="a_node1"><a xlink:title=" ">
<polygon fill="#bfbfbf" stroke="black" points="215.5,-392.5 215.5,-411.5 334.5,-411.5 334.5,-392.5 215.5,-392.5"/>
<text text-anchor="middle" x="275" y="-399.5" font-family="Helvetica,sans-Serif" font-size="10.00">src/Controls/Button.cpp</text>
</a>
</g>
</g>
<!-- Node2 -->
<g id="node2" class="node"><title>Node2</title>
<g id="a_node2"><a xlink:href="dbg__new_8h.html" target="_top" xlink:title=" ">
<polygon fill="white" stroke="black" points="243.5,-336.5 243.5,-355.5 306.5,-355.5 306.5,-336.5 243.5,-336.5"/>
<text text-anchor="middle" x="275" y="-343.5" font-family="Helvetica,sans-Serif" font-size="10.00">dbg_new.h</text>
</a>
</g>
</g>
<!-- Node1&#45;&gt;Node2 -->
<g id="edge1" class="edge"><title>Node1&#45;&gt;Node2</title>
<path fill="none" stroke="midnightblue" d="M275,-392.083C275,-385.006 275,-374.861 275,-365.986"/>
<polygon fill="midnightblue" stroke="midnightblue" points="278.5,-365.751 275,-355.751 271.5,-365.751 278.5,-365.751"/>
</g>
<!-- Node15 -->
<g id="node15" class="node"><title>Node15</title>
<g id="a_node15"><a xlink:title=" ">
<polygon fill="white" stroke="#bfbfbf" points="338,-56.5 338,-75.5 390,-75.5 390,-56.5 338,-56.5"/>
<text text-anchor="middle" x="364" y="-63.5" font-family="Helvetica,sans-Serif" font-size="10.00">assert.h</text>
</a>
</g>
</g>
<!-- Node1&#45;&gt;Node15 -->
<g id="edge18" class="edge"><title>Node1&#45;&gt;Node15</title>
<path fill="none" stroke="midnightblue" d="M299.788,-392.409C336.748,-377.835 402,-344.526 402,-291 402,-291 402,-291 402,-177 402,-142.813 385.4,-105.764 374.143,-84.5707"/>
<polygon fill="midnightblue" stroke="midnightblue" points="377.181,-82.832 369.284,-75.769 371.053,-86.2151 377.181,-82.832"/>
</g>
<!-- Node17 -->
<g id="node17" class="node"><title>Node17</title>
<g id="a_node17"><a xlink:href="_button_8h.html" target="_top" xlink:title=" ">
<polygon fill="white" stroke="black" points="56.5,-280.5 56.5,-299.5 109.5,-299.5 109.5,-280.5 56.5,-280.5"/>
<text text-anchor="middle" x="83" y="-287.5" font-family="Helvetica,sans-Serif" font-size="10.00">Button.h</text>
</a>
</g>
</g>
<!-- Node1&#45;&gt;Node17 -->
<g id="edge19" class="edge"><title>Node1&#45;&gt;Node17</title>
<path fill="none" stroke="midnightblue" d="M259.934,-392.368C226.706,-373.332 146.91,-327.615 106.826,-304.65"/>
<polygon fill="midnightblue" stroke="midnightblue" points="108.413,-301.526 97.9959,-299.591 104.933,-307.599 108.413,-301.526"/>
</g>
<!-- Node3 -->
<g id="node3" class="node"><title>Node3</title>
<g id="a_node3"><a xlink:href="utils_8hpp.html" target="_top" xlink:title=" ">
<polygon fill="white" stroke="black" points="205.5,-280.5 205.5,-299.5 258.5,-299.5 258.5,-280.5 205.5,-280.5"/>
<text text-anchor="middle" x="232" y="-287.5" font-family="Helvetica,sans-Serif" font-size="10.00">utils.hpp</text>
</a>
</g>
</g>
<!-- Node2&#45;&gt;Node3 -->
<g id="edge2" class="edge"><title>Node2&#45;&gt;Node3</title>
<path fill="none" stroke="midnightblue" d="M267.899,-336.083C261.763,-328.377 252.73,-317.033 245.261,-307.653"/>
<polygon fill="midnightblue" stroke="midnightblue" points="247.936,-305.394 238.968,-299.751 242.46,-309.754 247.936,-305.394"/>
</g>
<!-- Node2&#45;&gt;Node15 -->
<g id="edge17" class="edge"><title>Node2&#45;&gt;Node15</title>
<path fill="none" stroke="midnightblue" d="M289.299,-336.401C314.458,-320.058 364,-281.92 364,-235 364,-235 364,-235 364,-177 364,-144.948 364,-107.643 364,-85.7489"/>
<polygon fill="midnightblue" stroke="midnightblue" points="367.5,-85.5577 364,-75.5578 360.5,-85.5578 367.5,-85.5577"/>
</g>
<!-- Node4 -->
<g id="node4" class="node"><title>Node4</title>
<g id="a_node4"><a xlink:href="output_8hpp.html" target="_top" xlink:title=" ">
<polygon fill="white" stroke="black" points="201,-224.5 201,-243.5 263,-243.5 263,-224.5 201,-224.5"/>
<text text-anchor="middle" x="232" y="-231.5" font-family="Helvetica,sans-Serif" font-size="10.00">output.hpp</text>
</a>
</g>
</g>
<!-- Node3&#45;&gt;Node4 -->
<g id="edge3" class="edge"><title>Node3&#45;&gt;Node4</title>
<path fill="none" stroke="midnightblue" d="M232,-280.083C232,-273.006 232,-262.861 232,-253.986"/>
<polygon fill="midnightblue" stroke="midnightblue" points="235.5,-253.751 232,-243.751 228.5,-253.751 235.5,-253.751"/>
</g>
<!-- Node16 -->
<g id="node16" class="node"><title>Node16</title>
<g id="a_node16"><a xlink:title=" ">
<polygon fill="white" stroke="#bfbfbf" points="123.5,-224.5 123.5,-243.5 182.5,-243.5 182.5,-224.5 123.5,-224.5"/>
<text text-anchor="middle" x="153" y="-231.5" font-family="Helvetica,sans-Serif" font-size="10.00">exception</text>
</a>
</g>
</g>
<!-- Node3&#45;&gt;Node16 -->
<g id="edge16" class="edge"><title>Node3&#45;&gt;Node16</title>
<path fill="none" stroke="midnightblue" d="M219.307,-280.324C207.099,-271.979 188.422,-259.212 173.997,-249.352"/>
<polygon fill="midnightblue" stroke="midnightblue" points="175.892,-246.408 165.661,-243.655 171.942,-252.187 175.892,-246.408"/>
</g>
<!-- Node5 -->
<g id="node5" class="node"><title>Node5</title>
<g id="a_node5"><a xlink:title=" ">
<polygon fill="white" stroke="#bfbfbf" points="116,-168.5 116,-187.5 168,-187.5 168,-168.5 116,-168.5"/>
<text text-anchor="middle" x="142" y="-175.5" font-family="Helvetica,sans-Serif" font-size="10.00">stdarg.h</text>
</a>
</g>
</g>
<!-- Node4&#45;&gt;Node5 -->
<g id="edge4" class="edge"><title>Node4&#45;&gt;Node5</title>
<path fill="none" stroke="midnightblue" d="M217.54,-224.324C203.5,-215.9 181.952,-202.971 165.457,-193.074"/>
<polygon fill="midnightblue" stroke="midnightblue" points="166.8,-189.798 156.424,-187.655 163.198,-195.801 166.8,-189.798"/>
</g>
<!-- Node6 -->
<g id="node6" class="node"><title>Node6</title>
<g id="a_node6"><a xlink:title=" ">
<polygon fill="white" stroke="#bfbfbf" points="240.5,-56.5 240.5,-75.5 281.5,-75.5 281.5,-56.5 240.5,-56.5"/>
<text text-anchor="middle" x="261" y="-63.5" font-family="Helvetica,sans-Serif" font-size="10.00">string</text>
</a>
</g>
</g>
<!-- Node4&#45;&gt;Node6 -->
<g id="edge5" class="edge"><title>Node4&#45;&gt;Node6</title>
<path fill="none" stroke="midnightblue" d="M233.559,-224.075C238.124,-197.945 251.529,-121.211 257.755,-85.577"/>
<polygon fill="midnightblue" stroke="midnightblue" points="261.23,-86.0213 259.503,-75.5681 254.334,-84.8166 261.23,-86.0213"/>
</g>
<!-- Node7 -->
<g id="node7" class="node"><title>Node7</title>
<g id="a_node7"><a xlink:title=" ">
<polygon fill="white" stroke="#bfbfbf" points="284,-168.5 284,-187.5 336,-187.5 336,-168.5 284,-168.5"/>
<text text-anchor="middle" x="310" y="-175.5" font-family="Helvetica,sans-Serif" font-size="10.00">sstream</text>
</a>
</g>
</g>
<!-- Node4&#45;&gt;Node7 -->
<g id="edge6" class="edge"><title>Node4&#45;&gt;Node7</title>
<path fill="none" stroke="midnightblue" d="M244.532,-224.324C256.586,-215.979 275.027,-203.212 289.269,-193.352"/>
<polygon fill="midnightblue" stroke="midnightblue" points="291.269,-196.224 297.499,-187.655 287.285,-190.469 291.269,-196.224"/>
</g>
<!-- Node8 -->
<g id="node8" class="node"><title>Node8</title>
<g id="a_node8"><a xlink:title=" ">
<polygon fill="white" stroke="#bfbfbf" points="56,-168.5 56,-187.5 98,-187.5 98,-168.5 56,-168.5"/>
<text text-anchor="middle" x="77" y="-175.5" font-family="Helvetica,sans-Serif" font-size="10.00">vector</text>
</a>
</g>
</g>
<!-- Node4&#45;&gt;Node8 -->
<g id="edge7" class="edge"><title>Node4&#45;&gt;Node8</title>
<path fill="none" stroke="midnightblue" d="M207.44,-224.444C180.561,-215.079 137.409,-200.046 108.165,-189.857"/>
<polygon fill="midnightblue" stroke="midnightblue" points="109.045,-186.458 98.4503,-186.473 106.742,-193.068 109.045,-186.458"/>
</g>
<!-- Node9 -->
<g id="node9" class="node"><title>Node9</title>
<g id="a_node9"><a xlink:href="_edit_8h.html" target="_top" xlink:title=" ">
<polygon fill="white" stroke="black" points="186,-168.5 186,-187.5 228,-187.5 228,-168.5 186,-168.5"/>
<text text-anchor="middle" x="207" y="-175.5" font-family="Helvetica,sans-Serif" font-size="10.00">Edit.h</text>
</a>
</g>
</g>
<!-- Node4&#45;&gt;Node9 -->
<g id="edge8" class="edge"><title>Node4&#45;&gt;Node9</title>
<path fill="none" stroke="midnightblue" d="M227.872,-224.083C224.486,-216.77 219.584,-206.181 215.381,-197.103"/>
<polygon fill="midnightblue" stroke="midnightblue" points="218.429,-195.355 211.051,-187.751 212.077,-198.296 218.429,-195.355"/>
</g>
<!-- Node10 -->
<g id="node10" class="node"><title>Node10</title>
<g id="a_node10"><a xlink:href="_control_8h.html" target="_top" xlink:title=" ">
<polygon fill="white" stroke="black" points="168,-112.5 168,-131.5 224,-131.5 224,-112.5 168,-112.5"/>
<text text-anchor="middle" x="196" y="-119.5" font-family="Helvetica,sans-Serif" font-size="10.00">Control.h</text>
</a>
</g>
</g>
<!-- Node9&#45;&gt;Node10 -->
<g id="edge9" class="edge"><title>Node9&#45;&gt;Node10</title>
<path fill="none" stroke="midnightblue" d="M205.184,-168.083C203.726,-160.927 201.629,-150.635 199.807,-141.691"/>
<polygon fill="midnightblue" stroke="midnightblue" points="203.208,-140.851 197.783,-131.751 196.349,-142.248 203.208,-140.851"/>
</g>
<!-- Node10&#45;&gt;Node6 -->
<g id="edge11" class="edge"><title>Node10&#45;&gt;Node6</title>
<path fill="none" stroke="midnightblue" d="M206.443,-112.324C216.146,-104.263 230.815,-92.0765 242.5,-82.3695"/>
<polygon fill="midnightblue" stroke="midnightblue" points="244.911,-84.9163 250.367,-75.8339 240.438,-79.532 244.911,-84.9163"/>
</g>
<!-- Node11 -->
<g id="node11" class="node"><title>Node11</title>
<g id="a_node11"><a xlink:title=" ">
<polygon fill="white" stroke="#bfbfbf" points="90,-56.5 90,-75.5 152,-75.5 152,-56.5 90,-56.5"/>
<text text-anchor="middle" x="121" y="-63.5" font-family="Helvetica,sans-Serif" font-size="10.00">windows.h</text>
</a>
</g>
</g>
<!-- Node10&#45;&gt;Node11 -->
<g id="edge10" class="edge"><title>Node10&#45;&gt;Node11</title>
<path fill="none" stroke="midnightblue" d="M183.95,-112.324C172.537,-104.107 155.169,-91.6017 141.565,-81.8069"/>
<polygon fill="midnightblue" stroke="midnightblue" points="143.43,-78.8366 133.269,-75.8339 139.34,-84.5174 143.43,-78.8366"/>
</g>
<!-- Node12 -->
<g id="node12" class="node"><title>Node12</title>
<g id="a_node12"><a xlink:title=" ">
<polygon fill="white" stroke="#bfbfbf" points="170,-56.5 170,-75.5 222,-75.5 222,-56.5 170,-56.5"/>
<text text-anchor="middle" x="196" y="-63.5" font-family="Helvetica,sans-Serif" font-size="10.00">memory</text>
</a>
</g>
</g>
<!-- Node10&#45;&gt;Node12 -->
<g id="edge12" class="edge"><title>Node10&#45;&gt;Node12</title>
<path fill="none" stroke="midnightblue" d="M196,-112.083C196,-105.006 196,-94.8611 196,-85.9865"/>
<polygon fill="midnightblue" stroke="midnightblue" points="199.5,-85.751 196,-75.7511 192.5,-85.7511 199.5,-85.751"/>
</g>
<!-- Node13 -->
<g id="node13" class="node"><title>Node13</title>
<g id="a_node13"><a xlink:href="_property_8hpp.html" target="_top" xlink:title=" ">
<polygon fill="white" stroke="black" points="0,-56.5 0,-75.5 72,-75.5 72,-56.5 0,-56.5"/>
<text text-anchor="middle" x="36" y="-63.5" font-family="Helvetica,sans-Serif" font-size="10.00">Property.hpp</text>
</a>
</g>
</g>
<!-- Node10&#45;&gt;Node13 -->
<g id="edge13" class="edge"><title>Node10&#45;&gt;Node13</title>
<path fill="none" stroke="midnightblue" d="M170.648,-112.444C143.731,-103.359 101.004,-88.9388 70.913,-78.7831"/>
<polygon fill="midnightblue" stroke="midnightblue" points="71.828,-75.3981 61.2339,-75.5164 69.5895,-82.0305 71.828,-75.3981"/>
</g>
<!-- Node10&#45;&gt;Node15 -->
<g id="edge15" class="edge"><title>Node10&#45;&gt;Node15</title>
<path fill="none" stroke="midnightblue" d="M222.62,-112.444C251.089,-103.293 296.402,-88.7279 328.031,-78.5614"/>
<polygon fill="midnightblue" stroke="midnightblue" points="329.332,-81.8198 337.781,-75.4275 327.19,-75.1556 329.332,-81.8198"/>
</g>
<!-- Node14 -->
<g id="node14" class="node"><title>Node14</title>
<g id="a_node14"><a xlink:title=" ">
<polygon fill="white" stroke="#bfbfbf" points="7,-0.5 7,-19.5 65,-19.5 65,-0.5 7,-0.5"/>
<text text-anchor="middle" x="36" y="-7.5" font-family="Helvetica,sans-Serif" font-size="10.00">functional</text>
</a>
</g>
</g>
<!-- Node13&#45;&gt;Node14 -->
<g id="edge14" class="edge"><title>Node13&#45;&gt;Node14</title>
<path fill="none" stroke="midnightblue" d="M36,-56.083C36,-49.0059 36,-38.8611 36,-29.9865"/>
<polygon fill="midnightblue" stroke="midnightblue" points="39.5001,-29.751 36,-19.7511 32.5001,-29.7511 39.5001,-29.751"/>
</g>
<!-- Node17&#45;&gt;Node10 -->
<g id="edge20" class="edge"><title>Node17&#45;&gt;Node10</title>
<path fill="none" stroke="midnightblue" d="M75.8479,-280.494C59.0313,-259.419 20.344,-203.896 47,-168 72.2579,-133.987 122.463,-124.757 157.586,-122.712"/>
<polygon fill="midnightblue" stroke="midnightblue" points="158.109,-126.193 167.958,-122.288 157.823,-119.199 158.109,-126.193"/>
</g>
</g>
</svg>
