<?xml version="1.0" encoding="UTF-8" standalone="no"?>
<!DOCTYPE svg PUBLIC "-//W3C//DTD SVG 1.1//EN"
 "http://www.w3.org/Graphics/SVG/1.1/DTD/svg11.dtd">
<!-- Generated by graphviz version 2.38.0 (20140413.2041)
 -->
<!-- Title: src/Controls/Edit.h Pages: 1 -->
<svg width="1307pt" height="308pt"
 viewBox="0.00 0.00 1306.50 308.00" xmlns="http://www.w3.org/2000/svg" xmlns:xlink="http://www.w3.org/1999/xlink">
<g id="graph0" class="graph" transform="scale(1 1) rotate(0) translate(4 304)">
<title>src/Controls/Edit.h</title>
<polygon fill="white" stroke="none" points="-4,4 -4,-304 1302.5,-304 1302.5,4 -4,4"/>
<!-- Node1 -->
<g id="node1" class="node"><title>Node1</title>
<g id="a_node1"><a xlink:title=" ">
<polygon fill="#bfbfbf" stroke="black" points="385.5,-280.5 385.5,-299.5 483.5,-299.5 483.5,-280.5 385.5,-280.5"/>
<text text-anchor="middle" x="434.5" y="-287.5" font-family="Helvetica,sans-Serif" font-size="10.00">src/Controls/Edit.h</text>
</a>
</g>
</g>
<!-- Node2 -->
<g id="node2" class="node"><title>Node2</title>
<g id="a_node2"><a xlink:href="_thread_8cpp.html" target="_top" xlink:title=" ">
<polygon fill="white" stroke="black" points="0,-56.5 0,-75.5 107,-75.5 107,-56.5 0,-56.5"/>
<text text-anchor="middle" x="53.5" y="-63.5" font-family="Helvetica,sans-Serif" font-size="10.00">src/Base/Thread.cpp</text>
</a>
</g>
</g>
<!-- Node1&#45;&gt;Node2 -->
<g id="edge1" class="edge"><title>Node1&#45;&gt;Node2</title>
<path fill="none" stroke="midnightblue" d="M410.801,-275.191C339.203,-233.472 126.479,-109.523 68.3324,-75.6425"/>
<polygon fill="midnightblue" stroke="midnightblue" points="409.162,-278.287 419.564,-280.297 412.686,-272.239 409.162,-278.287"/>
</g>
<!-- Node3 -->
<g id="node3" class="node"><title>Node3</title>
<g id="a_node3"><a xlink:href="_edit_8cpp.html" target="_top" xlink:title=" ">
<polygon fill="white" stroke="black" points="125.5,-56.5 125.5,-75.5 233.5,-75.5 233.5,-56.5 125.5,-56.5"/>
<text text-anchor="middle" x="179.5" y="-63.5" font-family="Helvetica,sans-Serif" font-size="10.00">src/Controls/Edit.cpp</text>
</a>
</g>
</g>
<!-- Node1&#45;&gt;Node3 -->
<g id="edge2" class="edge"><title>Node1&#45;&gt;Node3</title>
<path fill="none" stroke="midnightblue" d="M416.836,-273.622C367.247,-230.45 227.868,-109.108 189.427,-75.6425"/>
<polygon fill="midnightblue" stroke="midnightblue" points="414.663,-276.371 424.504,-280.297 419.26,-271.091 414.663,-276.371"/>
</g>
<!-- Node4 -->
<g id="node4" class="node"><title>Node4</title>
<g id="a_node4"><a xlink:href="main_8cpp.html" target="_top" xlink:title=" ">
<polygon fill="white" stroke="black" points="677,-56.5 677,-75.5 750,-75.5 750,-56.5 677,-56.5"/>
<text text-anchor="middle" x="713.5" y="-63.5" font-family="Helvetica,sans-Serif" font-size="10.00">src/main.cpp</text>
</a>
</g>
</g>
<!-- Node1&#45;&gt;Node4 -->
<g id="edge3" class="edge"><title>Node1&#45;&gt;Node4</title>
<path fill="none" stroke="midnightblue" d="M453.492,-273.888C507.452,-230.952 660.493,-109.178 702.638,-75.6425"/>
<polygon fill="midnightblue" stroke="midnightblue" points="451.083,-271.332 445.437,-280.297 455.441,-276.81 451.083,-271.332"/>
</g>
<!-- Node5 -->
<g id="node5" class="node"><title>Node5</title>
<g id="a_node5"><a xlink:href="output_8hpp.html" target="_top" xlink:title=" ">
<polygon fill="white" stroke="black" points="674,-224.5 674,-243.5 753,-243.5 753,-224.5 674,-224.5"/>
<text text-anchor="middle" x="713.5" y="-231.5" font-family="Helvetica,sans-Serif" font-size="10.00">src/output.hpp</text>
</a>
</g>
</g>
<!-- Node1&#45;&gt;Node5 -->
<g id="edge4" class="edge"><title>Node1&#45;&gt;Node5</title>
<path fill="none" stroke="midnightblue" d="M488.828,-278.485C543.045,-267.991 625.07,-252.115 673.567,-242.729"/>
<polygon fill="midnightblue" stroke="midnightblue" points="487.861,-275.107 478.708,-280.444 489.191,-281.979 487.861,-275.107"/>
</g>
<!-- Node6 -->
<g id="node6" class="node"><title>Node6</title>
<g id="a_node6"><a xlink:href="_test_case_8h.html" target="_top" xlink:title=" ">
<polygon fill="white" stroke="black" points="773.5,-112.5 773.5,-131.5 877.5,-131.5 877.5,-112.5 773.5,-112.5"/>
<text text-anchor="middle" x="825.5" y="-119.5" font-family="Helvetica,sans-Serif" font-size="10.00">src/Test/TestCase.h</text>
</a>
</g>
</g>
<!-- Node5&#45;&gt;Node6 -->
<g id="edge5" class="edge"><title>Node5&#45;&gt;Node6</title>
<path fill="none" stroke="midnightblue" d="M729.582,-217.205C753.589,-193.627 797.979,-150.029 816.752,-131.591"/>
<polygon fill="midnightblue" stroke="midnightblue" points="726.97,-214.864 722.288,-224.368 731.875,-219.858 726.97,-214.864"/>
</g>
<!-- Node14 -->
<g id="node14" class="node"><title>Node14</title>
<g id="a_node14"><a xlink:href="utils_8hpp.html" target="_top" xlink:title=" ">
<polygon fill="white" stroke="black" points="678.5,-168.5 678.5,-187.5 748.5,-187.5 748.5,-168.5 678.5,-168.5"/>
<text text-anchor="middle" x="713.5" y="-175.5" font-family="Helvetica,sans-Serif" font-size="10.00">src/utils.hpp</text>
</a>
</g>
</g>
<!-- Node5&#45;&gt;Node14 -->
<g id="edge14" class="edge"><title>Node5&#45;&gt;Node14</title>
<path fill="none" stroke="midnightblue" d="M713.5,-213.805C713.5,-204.91 713.5,-194.78 713.5,-187.751"/>
<polygon fill="midnightblue" stroke="midnightblue" points="710,-214.083 713.5,-224.083 717,-214.083 710,-214.083"/>
</g>
<!-- Node6&#45;&gt;Node4 -->
<g id="edge6" class="edge"><title>Node6&#45;&gt;Node4</title>
<path fill="none" stroke="midnightblue" d="M798.251,-107.862C777.484,-97.8492 749.477,-84.3458 731.45,-75.6545"/>
<polygon fill="midnightblue" stroke="midnightblue" points="796.977,-111.134 807.505,-112.324 800.018,-104.828 796.977,-111.134"/>
</g>
<!-- Node7 -->
<g id="node7" class="node"><title>Node7</title>
<g id="a_node7"><a xlink:href="_base_tests_8h.html" target="_top" xlink:title=" ">
<polygon fill="white" stroke="black" points="1031.5,-56.5 1031.5,-75.5 1141.5,-75.5 1141.5,-56.5 1031.5,-56.5"/>
<text text-anchor="middle" x="1086.5" y="-63.5" font-family="Helvetica,sans-Serif" font-size="10.00">src/Test/BaseTests.h</text>
</a>
</g>
</g>
<!-- Node6&#45;&gt;Node7 -->
<g id="edge7" class="edge"><title>Node6&#45;&gt;Node7</title>
<path fill="none" stroke="midnightblue" d="M876.687,-110.41C926.013,-100.204 999.695,-84.9597 1045.34,-75.5164"/>
<polygon fill="midnightblue" stroke="midnightblue" points="875.94,-106.99 866.856,-112.444 877.358,-113.845 875.94,-106.99"/>
</g>
<!-- Node9 -->
<g id="node9" class="node"><title>Node9</title>
<g id="a_node9"><a xlink:href="_property_tests_8h.html" target="_top" xlink:title=" ">
<polygon fill="white" stroke="black" points="1164.5,-56.5 1164.5,-75.5 1288.5,-75.5 1288.5,-56.5 1164.5,-56.5"/>
<text text-anchor="middle" x="1226.5" y="-63.5" font-family="Helvetica,sans-Serif" font-size="10.00">src/Test/PropertyTests.h</text>
</a>
</g>
</g>
<!-- Node6&#45;&gt;Node9 -->
<g id="edge9" class="edge"><title>Node6&#45;&gt;Node9</title>
<path fill="none" stroke="midnightblue" d="M887.794,-112.611C963.12,-102.468 1089.13,-85.4984 1164.38,-75.3654"/>
<polygon fill="midnightblue" stroke="midnightblue" points="886.956,-109.192 877.513,-113.996 887.89,-116.13 886.956,-109.192"/>
</g>
<!-- Node11 -->
<g id="node11" class="node"><title>Node11</title>
<g id="a_node11"><a xlink:href="_test_case_8cpp.html" target="_top" xlink:title=" ">
<polygon fill="white" stroke="black" points="768,-56.5 768,-75.5 883,-75.5 883,-56.5 768,-56.5"/>
<text text-anchor="middle" x="825.5" y="-63.5" font-family="Helvetica,sans-Serif" font-size="10.00">src/Test/TestCase.cpp</text>
</a>
</g>
</g>
<!-- Node6&#45;&gt;Node11 -->
<g id="edge11" class="edge"><title>Node6&#45;&gt;Node11</title>
<path fill="none" stroke="midnightblue" d="M825.5,-101.805C825.5,-92.9102 825.5,-82.7798 825.5,-75.7511"/>
<polygon fill="midnightblue" stroke="midnightblue" points="822,-102.083 825.5,-112.083 829,-102.083 822,-102.083"/>
</g>
<!-- Node12 -->
<g id="node12" class="node"><title>Node12</title>
<g id="a_node12"><a xlink:href="_value_tests_8h.html" target="_top" xlink:title=" ">
<polygon fill="white" stroke="black" points="901.5,-56.5 901.5,-75.5 1013.5,-75.5 1013.5,-56.5 901.5,-56.5"/>
<text text-anchor="middle" x="957.5" y="-63.5" font-family="Helvetica,sans-Serif" font-size="10.00">src/Test/ValueTests.h</text>
</a>
</g>
</g>
<!-- Node6&#45;&gt;Node12 -->
<g id="edge12" class="edge"><title>Node6&#45;&gt;Node12</title>
<path fill="none" stroke="midnightblue" d="M855.719,-108.638C880.49,-98.504 914.9,-84.4274 936.682,-75.5164"/>
<polygon fill="midnightblue" stroke="midnightblue" points="854.346,-105.418 846.416,-112.444 856.997,-111.897 854.346,-105.418"/>
</g>
<!-- Node8 -->
<g id="node8" class="node"><title>Node8</title>
<g id="a_node8"><a xlink:href="_base_tests_8cpp.html" target="_top" xlink:title=" ">
<polygon fill="white" stroke="black" points="1026.5,-0.5 1026.5,-19.5 1146.5,-19.5 1146.5,-0.5 1026.5,-0.5"/>
<text text-anchor="middle" x="1086.5" y="-7.5" font-family="Helvetica,sans-Serif" font-size="10.00">src/Test/BaseTests.cpp</text>
</a>
</g>
</g>
<!-- Node7&#45;&gt;Node8 -->
<g id="edge8" class="edge"><title>Node7&#45;&gt;Node8</title>
<path fill="none" stroke="midnightblue" d="M1086.5,-45.8045C1086.5,-36.9102 1086.5,-26.7798 1086.5,-19.7511"/>
<polygon fill="midnightblue" stroke="midnightblue" points="1083,-46.083 1086.5,-56.083 1090,-46.083 1083,-46.083"/>
</g>
<!-- Node10 -->
<g id="node10" class="node"><title>Node10</title>
<g id="a_node10"><a xlink:href="_property_tests_8cpp.html" target="_top" xlink:title=" ">
<polygon fill="white" stroke="black" points="1164.5,-0.5 1164.5,-19.5 1298.5,-19.5 1298.5,-0.5 1164.5,-0.5"/>
<text text-anchor="middle" x="1231.5" y="-7.5" font-family="Helvetica,sans-Serif" font-size="10.00">src/Test/PropertyTests.cpp</text>
</a>
</g>
</g>
<!-- Node9&#45;&gt;Node10 -->
<g id="edge10" class="edge"><title>Node9&#45;&gt;Node10</title>
<path fill="none" stroke="midnightblue" d="M1228.25,-46.1005C1229.08,-37.1357 1230.03,-26.8579 1230.69,-19.7511"/>
<polygon fill="midnightblue" stroke="midnightblue" points="1224.76,-45.8029 1227.33,-56.083 1231.73,-46.4483 1224.76,-45.8029"/>
</g>
<!-- Node13 -->
<g id="node13" class="node"><title>Node13</title>
<g id="a_node13"><a xlink:href="_value_tests_8cpp.html" target="_top" xlink:title=" ">
<polygon fill="white" stroke="black" points="886.5,-0.5 886.5,-19.5 1008.5,-19.5 1008.5,-0.5 886.5,-0.5"/>
<text text-anchor="middle" x="947.5" y="-7.5" font-family="Helvetica,sans-Serif" font-size="10.00">src/Test/ValueTests.cpp</text>
</a>
</g>
</g>
<!-- Node12&#45;&gt;Node13 -->
<g id="edge13" class="edge"><title>Node12&#45;&gt;Node13</title>
<path fill="none" stroke="midnightblue" d="M954,-46.1005C952.34,-37.1357 950.437,-26.8579 949.121,-19.7511"/>
<polygon fill="midnightblue" stroke="midnightblue" points="950.586,-46.8875 955.849,-56.083 957.469,-45.6128 950.586,-46.8875"/>
</g>
<!-- Node14&#45;&gt;Node4 -->
<g id="edge22" class="edge"><title>Node14&#45;&gt;Node4</title>
<path fill="none" stroke="midnightblue" d="M713.5,-158.348C713.5,-134.254 713.5,-93.3079 713.5,-75.5914"/>
<polygon fill="midnightblue" stroke="midnightblue" points="710,-158.368 713.5,-168.368 717,-158.369 710,-158.368"/>
</g>
<!-- Node14&#45;&gt;Node6 -->
<g id="edge23" class="edge"><title>Node14&#45;&gt;Node6</title>
<path fill="none" stroke="midnightblue" d="M740.749,-163.862C761.516,-153.849 789.523,-140.346 807.55,-131.655"/>
<polygon fill="midnightblue" stroke="midnightblue" points="738.982,-160.828 731.495,-168.324 742.023,-167.134 738.982,-160.828"/>
</g>
<!-- Node15 -->
<g id="node15" class="node"><title>Node15</title>
<g id="a_node15"><a xlink:href="dbg__new_8h.html" target="_top" xlink:title=" ">
<polygon fill="white" stroke="black" points="416.5,-112.5 416.5,-131.5 496.5,-131.5 496.5,-112.5 416.5,-112.5"/>
<text text-anchor="middle" x="456.5" y="-119.5" font-family="Helvetica,sans-Serif" font-size="10.00">src/dbg_new.h</text>
</a>
</g>
</g>
<!-- Node14&#45;&gt;Node15 -->
<g id="edge15" class="edge"><title>Node14&#45;&gt;Node15</title>
<path fill="none" stroke="midnightblue" d="M668.39,-167.522C619.842,-157.321 543.343,-141.247 496.761,-131.46"/>
<polygon fill="midnightblue" stroke="midnightblue" points="667.798,-170.974 678.304,-169.605 669.238,-164.123 667.798,-170.974"/>
</g>
<!-- Node15&#45;&gt;Node2 -->
<g id="edge16" class="edge"><title>Node15&#45;&gt;Node2</title>
<path fill="none" stroke="midnightblue" d="M406.266,-114.516C339.902,-105.912 219.384,-90.157 116.5,-76 113.435,-75.5783 110.287,-75.1412 107.111,-74.697"/>
<polygon fill="midnightblue" stroke="midnightblue" points="406.075,-118.02 416.441,-115.834 406.974,-111.078 406.075,-118.02"/>
</g>
<!-- Node15&#45;&gt;Node3 -->
<g id="edge19" class="edge"><title>Node15&#45;&gt;Node3</title>
<path fill="none" stroke="midnightblue" d="M406.183,-111.191C353.995,-101.017 273.209,-85.2681 223.489,-75.5756"/>
<polygon fill="midnightblue" stroke="midnightblue" points="405.737,-114.67 416.222,-113.148 407.076,-107.799 405.737,-114.67"/>
</g>
<!-- Node15&#45;&gt;Node4 -->
<g id="edge21" class="edge"><title>Node15&#45;&gt;Node4</title>
<path fill="none" stroke="midnightblue" d="M506.613,-110.47C556.643,-99.9582 632.329,-84.0553 676.951,-74.6795"/>
<polygon fill="midnightblue" stroke="midnightblue" points="505.723,-107.081 496.656,-112.563 507.162,-113.931 505.723,-107.081"/>
</g>
<!-- Node16 -->
<g id="node16" class="node"><title>Node16</title>
<g id="a_node16"><a xlink:href="_button_8cpp.html" target="_top" xlink:title=" ">
<polygon fill="white" stroke="black" points="540,-56.5 540,-75.5 659,-75.5 659,-56.5 540,-56.5"/>
<text text-anchor="middle" x="599.5" y="-63.5" font-family="Helvetica,sans-Serif" font-size="10.00">src/Controls/Button.cpp</text>
</a>
</g>
</g>
<!-- Node15&#45;&gt;Node16 -->
<g id="edge17" class="edge"><title>Node15&#45;&gt;Node16</title>
<path fill="none" stroke="midnightblue" d="M488.527,-108.906C515.412,-98.7536 553.141,-84.5063 576.947,-75.5164"/>
<polygon fill="midnightblue" stroke="midnightblue" points="487.278,-105.636 479.159,-112.444 489.75,-112.185 487.278,-105.636"/>
</g>
<!-- Node17 -->
<g id="node17" class="node"><title>Node17</title>
<g id="a_node17"><a xlink:href="_control_8cpp.html" target="_top" xlink:title=" ">
<polygon fill="white" stroke="black" points="251.5,-56.5 251.5,-75.5 373.5,-75.5 373.5,-56.5 251.5,-56.5"/>
<text text-anchor="middle" x="312.5" y="-63.5" font-family="Helvetica,sans-Serif" font-size="10.00">src/Controls/Control.cpp</text>
</a>
</g>
</g>
<!-- Node15&#45;&gt;Node17 -->
<g id="edge18" class="edge"><title>Node15&#45;&gt;Node17</title>
<path fill="none" stroke="midnightblue" d="M424.249,-108.906C397.176,-98.7536 359.183,-84.5063 335.21,-75.5164"/>
<polygon fill="midnightblue" stroke="midnightblue" points="423.091,-112.209 433.683,-112.444 425.548,-105.655 423.091,-112.209"/>
</g>
<!-- Node18 -->
<g id="node18" class="node"><title>Node18</title>
<g id="a_node18"><a xlink:href="_progress_8cpp.html" target="_top" xlink:title=" ">
<polygon fill="white" stroke="black" points="391.5,-56.5 391.5,-75.5 521.5,-75.5 521.5,-56.5 391.5,-56.5"/>
<text text-anchor="middle" x="456.5" y="-63.5" font-family="Helvetica,sans-Serif" font-size="10.00">src/Controls/Progress.cpp</text>
</a>
</g>
</g>
<!-- Node15&#45;&gt;Node18 -->
<g id="edge20" class="edge"><title>Node15&#45;&gt;Node18</title>
<path fill="none" stroke="midnightblue" d="M456.5,-101.805C456.5,-92.9102 456.5,-82.7798 456.5,-75.7511"/>
<polygon fill="midnightblue" stroke="midnightblue" points="453,-102.083 456.5,-112.083 460,-102.083 453,-102.083"/>
</g>
</g>
</svg>
