<?xml version="1.0" encoding="UTF-8" standalone="no"?>
<!DOCTYPE svg PUBLIC "-//W3C//DTD SVG 1.1//EN"
 "http://www.w3.org/Graphics/SVG/1.1/DTD/svg11.dtd">
<!-- Generated by graphviz version 2.38.0 (20140413.2041)
 -->
<!-- Title: src/Base/Object.cpp Pages: 1 -->
<svg width="312pt" height="308pt"
 viewBox="0.00 0.00 312.00 308.00" xmlns="http://www.w3.org/2000/svg" xmlns:xlink="http://www.w3.org/1999/xlink">
<g id="graph0" class="graph" transform="scale(1 1) rotate(0) translate(4 304)">
<title>src/Base/Object.cpp</title>
<polygon fill="white" stroke="none" points="-4,4 -4,-304 308,-304 308,4 -4,4"/>
<!-- Node1 -->
<g id="node1" class="node"><title>Node1</title>
<g id="a_node1"><a xlink:title=" ">
<polygon fill="#bfbfbf" stroke="black" points="170,-280.5 170,-299.5 276,-299.5 276,-280.5 170,-280.5"/>
<text text-anchor="middle" x="223" y="-287.5" font-family="Helvetica,sans-Serif" font-size="10.00">src/Base/Object.cpp</text>
</a>
</g>
</g>
<!-- Node2 -->
<g id="node2" class="node"><title>Node2</title>
<g id="a_node2"><a xlink:href="_object_8h.html" target="_top" xlink:title=" ">
<polygon fill="white" stroke="black" points="196.5,-224.5 196.5,-243.5 249.5,-243.5 249.5,-224.5 196.5,-224.5"/>
<text text-anchor="middle" x="223" y="-231.5" font-family="Helvetica,sans-Serif" font-size="10.00">Object.h</text>
</a>
</g>
</g>
<!-- Node1&#45;&gt;Node2 -->
<g id="edge1" class="edge"><title>Node1&#45;&gt;Node2</title>
<path fill="none" stroke="midnightblue" d="M223,-280.083C223,-273.006 223,-262.861 223,-253.986"/>
<polygon fill="midnightblue" stroke="midnightblue" points="226.5,-253.751 223,-243.751 219.5,-253.751 226.5,-253.751"/>
</g>
<!-- Node3 -->
<g id="node3" class="node"><title>Node3</title>
<g id="a_node3"><a xlink:href="_serialize_8h.html" target="_top" xlink:title=" ">
<polygon fill="white" stroke="black" points="214,-56.5 214,-75.5 276,-75.5 276,-56.5 214,-56.5"/>
<text text-anchor="middle" x="245" y="-63.5" font-family="Helvetica,sans-Serif" font-size="10.00">Serialize.h</text>
</a>
</g>
</g>
<!-- Node2&#45;&gt;Node3 -->
<g id="edge2" class="edge"><title>Node2&#45;&gt;Node3</title>
<path fill="none" stroke="midnightblue" d="M224.183,-224.075C227.646,-197.945 237.815,-121.211 242.538,-85.577"/>
<polygon fill="midnightblue" stroke="midnightblue" points="246.02,-85.9413 243.864,-75.5681 239.081,-85.0216 246.02,-85.9413"/>
</g>
<!-- Node6 -->
<g id="node6" class="node"><title>Node6</title>
<g id="a_node6"><a xlink:href="_property_8h.html" target="_top" xlink:title=" ">
<polygon fill="white" stroke="black" points="147,-168.5 147,-187.5 209,-187.5 209,-168.5 147,-168.5"/>
<text text-anchor="middle" x="178" y="-175.5" font-family="Helvetica,sans-Serif" font-size="10.00">Property.h</text>
</a>
</g>
</g>
<!-- Node2&#45;&gt;Node6 -->
<g id="edge5" class="edge"><title>Node2&#45;&gt;Node6</title>
<path fill="none" stroke="midnightblue" d="M215.569,-224.083C209.147,-216.377 199.694,-205.033 191.878,-195.653"/>
<polygon fill="midnightblue" stroke="midnightblue" points="194.383,-193.193 185.293,-187.751 189.006,-197.674 194.383,-193.193"/>
</g>
<!-- Node4 -->
<g id="node4" class="node"><title>Node4</title>
<g id="a_node4"><a xlink:title=" ">
<polygon fill="white" stroke="#bfbfbf" points="192.5,-0.5 192.5,-19.5 233.5,-19.5 233.5,-0.5 192.5,-0.5"/>
<text text-anchor="middle" x="213" y="-7.5" font-family="Helvetica,sans-Serif" font-size="10.00">string</text>
</a>
</g>
</g>
<!-- Node3&#45;&gt;Node4 -->
<g id="edge3" class="edge"><title>Node3&#45;&gt;Node4</title>
<path fill="none" stroke="midnightblue" d="M239.716,-56.083C235.289,-48.6127 228.837,-37.7244 223.382,-28.5199"/>
<polygon fill="midnightblue" stroke="midnightblue" points="226.295,-26.5697 218.186,-19.7511 220.273,-30.1383 226.295,-26.5697"/>
</g>
<!-- Node5 -->
<g id="node5" class="node"><title>Node5</title>
<g id="a_node5"><a xlink:title=" ">
<polygon fill="white" stroke="#bfbfbf" points="252,-0.5 252,-19.5 304,-19.5 304,-0.5 252,-0.5"/>
<text text-anchor="middle" x="278" y="-7.5" font-family="Helvetica,sans-Serif" font-size="10.00">memory</text>
</a>
</g>
</g>
<!-- Node3&#45;&gt;Node5 -->
<g id="edge4" class="edge"><title>Node3&#45;&gt;Node5</title>
<path fill="none" stroke="midnightblue" d="M250.449,-56.083C255.014,-48.6127 261.668,-37.7244 267.293,-28.5199"/>
<polygon fill="midnightblue" stroke="midnightblue" points="270.424,-30.109 272.652,-19.7511 264.451,-26.4588 270.424,-30.109"/>
</g>
<!-- Node6&#45;&gt;Node3 -->
<g id="edge8" class="edge"><title>Node6&#45;&gt;Node3</title>
<path fill="none" stroke="midnightblue" d="M183.257,-168.368C194.265,-150.296 219.92,-108.176 234.458,-84.3074"/>
<polygon fill="midnightblue" stroke="midnightblue" points="237.554,-85.9526 239.767,-75.5914 231.576,-82.3112 237.554,-85.9526"/>
</g>
<!-- Node7 -->
<g id="node7" class="node"><title>Node7</title>
<g id="a_node7"><a xlink:href="_property_8hpp.html" target="_top" xlink:title=" ">
<polygon fill="white" stroke="black" points="20,-112.5 20,-131.5 92,-131.5 92,-112.5 20,-112.5"/>
<text text-anchor="middle" x="56" y="-119.5" font-family="Helvetica,sans-Serif" font-size="10.00">Property.hpp</text>
</a>
</g>
</g>
<!-- Node6&#45;&gt;Node7 -->
<g id="edge6" class="edge"><title>Node6&#45;&gt;Node7</title>
<path fill="none" stroke="midnightblue" d="M158.669,-168.444C138.68,-159.596 107.257,-145.687 84.4361,-135.586"/>
<polygon fill="midnightblue" stroke="midnightblue" points="85.8018,-132.363 75.2408,-131.516 82.9685,-138.764 85.8018,-132.363"/>
</g>
<!-- Node9 -->
<g id="node9" class="node"><title>Node9</title>
<g id="a_node9"><a xlink:href="_value_8h.html" target="_top" xlink:title=" ">
<polygon fill="white" stroke="black" points="137,-112.5 137,-131.5 187,-131.5 187,-112.5 137,-112.5"/>
<text text-anchor="middle" x="162" y="-119.5" font-family="Helvetica,sans-Serif" font-size="10.00">Value.h</text>
</a>
</g>
</g>
<!-- Node6&#45;&gt;Node9 -->
<g id="edge9" class="edge"><title>Node6&#45;&gt;Node9</title>
<path fill="none" stroke="midnightblue" d="M175.358,-168.083C173.214,-160.849 170.121,-150.409 167.451,-141.397"/>
<polygon fill="midnightblue" stroke="midnightblue" points="170.79,-140.345 164.593,-131.751 164.078,-142.333 170.79,-140.345"/>
</g>
<!-- Node8 -->
<g id="node8" class="node"><title>Node8</title>
<g id="a_node8"><a xlink:title=" ">
<polygon fill="white" stroke="#bfbfbf" points="0,-56.5 0,-75.5 58,-75.5 58,-56.5 0,-56.5"/>
<text text-anchor="middle" x="29" y="-63.5" font-family="Helvetica,sans-Serif" font-size="10.00">functional</text>
</a>
</g>
</g>
<!-- Node7&#45;&gt;Node8 -->
<g id="edge7" class="edge"><title>Node7&#45;&gt;Node8</title>
<path fill="none" stroke="midnightblue" d="M51.5415,-112.083C47.8457,-104.691 42.4766,-93.9533 37.9055,-84.8111"/>
<polygon fill="midnightblue" stroke="midnightblue" points="40.9782,-83.1301 33.3755,-75.7511 34.7172,-86.2606 40.9782,-83.1301"/>
</g>
<!-- Node9&#45;&gt;Node3 -->
<g id="edge10" class="edge"><title>Node9&#45;&gt;Node3</title>
<path fill="none" stroke="midnightblue" d="M175.335,-112.324C188.162,-103.979 207.785,-91.2122 222.94,-81.3524"/>
<polygon fill="midnightblue" stroke="midnightblue" points="225.224,-84.0417 231.698,-75.6545 221.407,-78.1742 225.224,-84.0417"/>
</g>
<!-- Node10 -->
<g id="node10" class="node"><title>Node10</title>
<g id="a_node10"><a xlink:title=" ">
<polygon fill="white" stroke="#bfbfbf" points="76,-56.5 76,-75.5 128,-75.5 128,-56.5 76,-56.5"/>
<text text-anchor="middle" x="102" y="-63.5" font-family="Helvetica,sans-Serif" font-size="10.00">sstream</text>
</a>
</g>
</g>
<!-- Node9&#45;&gt;Node10 -->
<g id="edge11" class="edge"><title>Node9&#45;&gt;Node10</title>
<path fill="none" stroke="midnightblue" d="M152.36,-112.324C143.49,-104.341 130.125,-92.3128 119.392,-82.6529"/>
<polygon fill="midnightblue" stroke="midnightblue" points="121.59,-79.922 111.815,-75.8339 116.907,-85.1251 121.59,-79.922"/>
</g>
<!-- Node11 -->
<g id="node11" class="node"><title>Node11</title>
<g id="a_node11"><a xlink:title=" ">
<polygon fill="white" stroke="#bfbfbf" points="146.5,-56.5 146.5,-75.5 195.5,-75.5 195.5,-56.5 146.5,-56.5"/>
<text text-anchor="middle" x="171" y="-63.5" font-family="Helvetica,sans-Serif" font-size="10.00">stdint.h</text>
</a>
</g>
</g>
<!-- Node9&#45;&gt;Node11 -->
<g id="edge12" class="edge"><title>Node9&#45;&gt;Node11</title>
<path fill="none" stroke="midnightblue" d="M163.486,-112.083C164.679,-104.927 166.394,-94.6353 167.885,-85.6911"/>
<polygon fill="midnightblue" stroke="midnightblue" points="171.35,-86.1904 169.541,-75.7511 164.445,-85.0396 171.35,-86.1904"/>
</g>
</g>
</svg>
