<?xml version="1.0" encoding="UTF-8" standalone="no"?>
<!DOCTYPE svg PUBLIC "-//W3C//DTD SVG 1.1//EN"
 "http://www.w3.org/Graphics/SVG/1.1/DTD/svg11.dtd">
<!-- Generated by graphviz version 2.38.0 (20140413.2041)
 -->
<!-- Title: src/Base/Property.hpp Pages: 1 -->
<svg width="1348pt" height="420pt"
 viewBox="0.00 0.00 1348.00 420.00" xmlns="http://www.w3.org/2000/svg" xmlns:xlink="http://www.w3.org/1999/xlink">
<g id="graph0" class="graph" transform="scale(1 1) rotate(0) translate(4 416)">
<title>src/Base/Property.hpp</title>
<polygon fill="white" stroke="none" points="-4,4 -4,-416 1344,-416 1344,4 -4,4"/>
<!-- Node1 -->
<g id="node1" class="node"><title>Node1</title>
<g id="a_node1"><a xlink:title=" ">
<polygon fill="#bfbfbf" stroke="black" points="950,-392.5 950,-411.5 1064,-411.5 1064,-392.5 950,-392.5"/>
<text text-anchor="middle" x="1007" y="-399.5" font-family="Helvetica,sans-Serif" font-size="10.00">src/Base/Property.hpp</text>
</a>
</g>
</g>
<!-- Node2 -->
<g id="node2" class="node"><title>Node2</title>
<g id="a_node2"><a xlink:href="_property_8h.html" target="_top" xlink:title=" ">
<polygon fill="white" stroke="black" points="278,-336.5 278,-355.5 382,-355.5 382,-336.5 278,-336.5"/>
<text text-anchor="middle" x="330" y="-343.5" font-family="Helvetica,sans-Serif" font-size="10.00">src/Base/Property.h</text>
</a>
</g>
</g>
<!-- Node1&#45;&gt;Node2 -->
<g id="edge1" class="edge"><title>Node1&#45;&gt;Node2</title>
<path fill="none" stroke="midnightblue" d="M939.654,-395.628C804.618,-384.857 503.344,-360.827 382.062,-351.153"/>
<polygon fill="midnightblue" stroke="midnightblue" points="939.616,-399.136 949.863,-396.443 940.173,-392.158 939.616,-399.136"/>
</g>
<!-- Node7 -->
<g id="node7" class="node"><title>Node7</title>
<g id="a_node7"><a xlink:href="_thread_8h.html" target="_top" xlink:title=" ">
<polygon fill="white" stroke="black" points="1035,-112.5 1035,-131.5 1131,-131.5 1131,-112.5 1035,-112.5"/>
<text text-anchor="middle" x="1083" y="-119.5" font-family="Helvetica,sans-Serif" font-size="10.00">src/Base/Thread.h</text>
</a>
</g>
</g>
<!-- Node1&#45;&gt;Node7 -->
<g id="edge6" class="edge"><title>Node1&#45;&gt;Node7</title>
<path fill="none" stroke="midnightblue" d="M1074.37,-396.492C1141.61,-387.901 1235,-363.006 1235,-291 1235,-291 1235,-291 1235,-233 1235,-175.507 1162.75,-145.003 1117.87,-131.602"/>
<polygon fill="midnightblue" stroke="midnightblue" points="1073.76,-393.04 1064.24,-397.691 1074.58,-399.992 1073.76,-393.04"/>
</g>
<!-- Node11 -->
<g id="node11" class="node"><title>Node11</title>
<g id="a_node11"><a xlink:href="_control_8h.html" target="_top" xlink:title=" ">
<polygon fill="white" stroke="black" points="951.5,-336.5 951.5,-355.5 1062.5,-355.5 1062.5,-336.5 951.5,-336.5"/>
<text text-anchor="middle" x="1007" y="-343.5" font-family="Helvetica,sans-Serif" font-size="10.00">src/Controls/Control.h</text>
</a>
</g>
</g>
<!-- Node1&#45;&gt;Node11 -->
<g id="edge10" class="edge"><title>Node1&#45;&gt;Node11</title>
<path fill="none" stroke="midnightblue" d="M1007,-381.805C1007,-372.91 1007,-362.78 1007,-355.751"/>
<polygon fill="midnightblue" stroke="midnightblue" points="1003.5,-382.083 1007,-392.083 1010.5,-382.083 1003.5,-382.083"/>
</g>
<!-- Node3 -->
<g id="node3" class="node"><title>Node3</title>
<g id="a_node3"><a xlink:href="_object_8h.html" target="_top" xlink:title=" ">
<polygon fill="white" stroke="black" points="220.5,-280.5 220.5,-299.5 315.5,-299.5 315.5,-280.5 220.5,-280.5"/>
<text text-anchor="middle" x="268" y="-287.5" font-family="Helvetica,sans-Serif" font-size="10.00">src/Base/Object.h</text>
</a>
</g>
</g>
<!-- Node2&#45;&gt;Node3 -->
<g id="edge2" class="edge"><title>Node2&#45;&gt;Node3</title>
<path fill="none" stroke="midnightblue" d="M312.246,-329.537C301.192,-319.909 287.369,-307.869 278.143,-299.834"/>
<polygon fill="midnightblue" stroke="midnightblue" points="310.199,-332.395 320.039,-336.324 314.797,-327.117 310.199,-332.395"/>
</g>
<!-- Node5 -->
<g id="node5" class="node"><title>Node5</title>
<g id="a_node5"><a xlink:href="_property_8cpp.html" target="_top" xlink:title=" ">
<polygon fill="white" stroke="black" points="334,-280.5 334,-299.5 448,-299.5 448,-280.5 334,-280.5"/>
<text text-anchor="middle" x="391" y="-287.5" font-family="Helvetica,sans-Serif" font-size="10.00">src/Base/Property.cpp</text>
</a>
</g>
</g>
<!-- Node2&#45;&gt;Node5 -->
<g id="edge4" class="edge"><title>Node2&#45;&gt;Node5</title>
<path fill="none" stroke="midnightblue" d="M347.467,-329.537C358.344,-319.909 371.944,-307.869 381.021,-299.834"/>
<polygon fill="midnightblue" stroke="midnightblue" points="344.968,-327.075 339.801,-336.324 349.608,-332.316 344.968,-327.075"/>
</g>
<!-- Node6 -->
<g id="node6" class="node"><title>Node6</title>
<g id="a_node6"><a xlink:href="_property_tests_8cpp.html" target="_top" xlink:title=" ">
<polygon fill="white" stroke="black" points="0,-0.5 0,-19.5 134,-19.5 134,-0.5 0,-0.5"/>
<text text-anchor="middle" x="67" y="-7.5" font-family="Helvetica,sans-Serif" font-size="10.00">src/Test/PropertyTests.cpp</text>
</a>
</g>
</g>
<!-- Node2&#45;&gt;Node6 -->
<g id="edge5" class="edge"><title>Node2&#45;&gt;Node6</title>
<path fill="none" stroke="midnightblue" d="M267.959,-335.379C179.314,-319.854 27,-285.788 27,-235 27,-235 27,-235 27,-121 27,-81.1715 50.4473,-37.8504 61.4382,-19.7315"/>
<polygon fill="midnightblue" stroke="midnightblue" points="267.464,-338.845 277.912,-337.091 268.651,-331.947 267.464,-338.845"/>
</g>
<!-- Node4 -->
<g id="node4" class="node"><title>Node4</title>
<g id="a_node4"><a xlink:href="_object_8cpp.html" target="_top" xlink:title=" ">
<polygon fill="white" stroke="black" points="215,-224.5 215,-243.5 321,-243.5 321,-224.5 215,-224.5"/>
<text text-anchor="middle" x="268" y="-231.5" font-family="Helvetica,sans-Serif" font-size="10.00">src/Base/Object.cpp</text>
</a>
</g>
</g>
<!-- Node3&#45;&gt;Node4 -->
<g id="edge3" class="edge"><title>Node3&#45;&gt;Node4</title>
<path fill="none" stroke="midnightblue" d="M268,-269.805C268,-260.91 268,-250.78 268,-243.751"/>
<polygon fill="midnightblue" stroke="midnightblue" points="264.5,-270.083 268,-280.083 271.5,-270.083 264.5,-270.083"/>
</g>
<!-- Node8 -->
<g id="node8" class="node"><title>Node8</title>
<g id="a_node8"><a xlink:href="_thread_8cpp.html" target="_top" xlink:title=" ">
<polygon fill="white" stroke="black" points="966.5,-56.5 966.5,-75.5 1073.5,-75.5 1073.5,-56.5 966.5,-56.5"/>
<text text-anchor="middle" x="1020" y="-63.5" font-family="Helvetica,sans-Serif" font-size="10.00">src/Base/Thread.cpp</text>
</a>
</g>
</g>
<!-- Node7&#45;&gt;Node8 -->
<g id="edge7" class="edge"><title>Node7&#45;&gt;Node8</title>
<path fill="none" stroke="midnightblue" d="M1064.96,-105.537C1053.73,-95.9087 1039.68,-83.8694 1030.31,-75.8339"/>
<polygon fill="midnightblue" stroke="midnightblue" points="1063.01,-108.473 1072.88,-112.324 1067.56,-103.159 1063.01,-108.473"/>
</g>
<!-- Node9 -->
<g id="node9" class="node"><title>Node9</title>
<g id="a_node9"><a xlink:href="_edit_8cpp.html" target="_top" xlink:title=" ">
<polygon fill="white" stroke="black" points="1092,-56.5 1092,-75.5 1200,-75.5 1200,-56.5 1092,-56.5"/>
<text text-anchor="middle" x="1146" y="-63.5" font-family="Helvetica,sans-Serif" font-size="10.00">src/Controls/Edit.cpp</text>
</a>
</g>
</g>
<!-- Node7&#45;&gt;Node9 -->
<g id="edge8" class="edge"><title>Node7&#45;&gt;Node9</title>
<path fill="none" stroke="midnightblue" d="M1101.04,-105.537C1112.27,-95.9087 1126.32,-83.8694 1135.69,-75.8339"/>
<polygon fill="midnightblue" stroke="midnightblue" points="1098.44,-103.159 1093.12,-112.324 1102.99,-108.473 1098.44,-103.159"/>
</g>
<!-- Node10 -->
<g id="node10" class="node"><title>Node10</title>
<g id="a_node10"><a xlink:href="main_8cpp.html" target="_top" xlink:title=" ">
<polygon fill="white" stroke="black" points="589.5,-56.5 589.5,-75.5 662.5,-75.5 662.5,-56.5 589.5,-56.5"/>
<text text-anchor="middle" x="626" y="-63.5" font-family="Helvetica,sans-Serif" font-size="10.00">src/main.cpp</text>
</a>
</g>
</g>
<!-- Node7&#45;&gt;Node10 -->
<g id="edge9" class="edge"><title>Node7&#45;&gt;Node10</title>
<path fill="none" stroke="midnightblue" d="M1024.49,-115.256C927.531,-105.629 737.639,-86.2825 671,-76 668.323,-75.5869 665.563,-75.1248 662.79,-74.634"/>
<polygon fill="midnightblue" stroke="midnightblue" points="1024.41,-118.765 1034.71,-116.269 1025.1,-111.799 1024.41,-118.765"/>
</g>
<!-- Node12 -->
<g id="node12" class="node"><title>Node12</title>
<g id="a_node12"><a xlink:href="_button_8h.html" target="_top" xlink:title=" ">
<polygon fill="white" stroke="black" points="634.5,-112.5 634.5,-131.5 743.5,-131.5 743.5,-112.5 634.5,-112.5"/>
<text text-anchor="middle" x="689" y="-119.5" font-family="Helvetica,sans-Serif" font-size="10.00">src/Controls/Button.h</text>
</a>
</g>
</g>
<!-- Node11&#45;&gt;Node12 -->
<g id="edge11" class="edge"><title>Node11&#45;&gt;Node12</title>
<path fill="none" stroke="midnightblue" d="M994.508,-328.026C983.719,-314.087 967.193,-294.371 950,-280 867.637,-211.159 751.78,-152.774 707.338,-131.55"/>
<polygon fill="midnightblue" stroke="midnightblue" points="991.895,-330.373 1000.72,-336.238 997.478,-326.151 991.895,-330.373"/>
</g>
<!-- Node14 -->
<g id="node14" class="node"><title>Node14</title>
<g id="a_node14"><a xlink:href="_control_8cpp.html" target="_top" xlink:title=" ">
<polygon fill="white" stroke="black" points="1218,-56.5 1218,-75.5 1340,-75.5 1340,-56.5 1218,-56.5"/>
<text text-anchor="middle" x="1279" y="-63.5" font-family="Helvetica,sans-Serif" font-size="10.00">src/Controls/Control.cpp</text>
</a>
</g>
</g>
<!-- Node11&#45;&gt;Node14 -->
<g id="edge14" class="edge"><title>Node11&#45;&gt;Node14</title>
<path fill="none" stroke="midnightblue" d="M1072.79,-334.639C1127.68,-321.807 1197,-293.936 1197,-235 1197,-235 1197,-235 1197,-177 1197,-131.266 1243.13,-92.2582 1266.19,-75.6125"/>
<polygon fill="midnightblue" stroke="midnightblue" points="1071.73,-331.288 1062.72,-336.864 1073.24,-338.123 1071.73,-331.288"/>
</g>
<!-- Node15 -->
<g id="node15" class="node"><title>Node15</title>
<g id="a_node15"><a xlink:href="_edit_8h.html" target="_top" xlink:title=" ">
<polygon fill="white" stroke="black" points="843,-280.5 843,-299.5 941,-299.5 941,-280.5 843,-280.5"/>
<text text-anchor="middle" x="892" y="-287.5" font-family="Helvetica,sans-Serif" font-size="10.00">src/Controls/Edit.h</text>
</a>
</g>
</g>
<!-- Node11&#45;&gt;Node15 -->
<g id="edge15" class="edge"><title>Node11&#45;&gt;Node15</title>
<path fill="none" stroke="midnightblue" d="M979.519,-332.096C958.034,-322.007 928.778,-308.27 910.137,-299.516"/>
<polygon fill="midnightblue" stroke="midnightblue" points="978.238,-335.361 988.778,-336.444 981.214,-329.025 978.238,-335.361"/>
</g>
<!-- Node27 -->
<g id="node27" class="node"><title>Node27</title>
<g id="a_node27"><a xlink:href="_progress_8h.html" target="_top" xlink:title=" ">
<polygon fill="white" stroke="black" points="761.5,-112.5 761.5,-131.5 880.5,-131.5 880.5,-112.5 761.5,-112.5"/>
<text text-anchor="middle" x="821" y="-119.5" font-family="Helvetica,sans-Serif" font-size="10.00">src/Controls/Progress.h</text>
</a>
</g>
</g>
<!-- Node11&#45;&gt;Node27 -->
<g id="edge39" class="edge"><title>Node11&#45;&gt;Node27</title>
<path fill="none" stroke="midnightblue" d="M1010.49,-326.368C1016,-290.883 1022.36,-213.125 983,-168 968.753,-151.667 916.523,-139.141 875.171,-131.501"/>
<polygon fill="midnightblue" stroke="midnightblue" points="1007.03,-325.862 1008.8,-336.309 1013.93,-327.041 1007.03,-325.862"/>
</g>
<!-- Node12&#45;&gt;Node10 -->
<g id="edge13" class="edge"><title>Node12&#45;&gt;Node10</title>
<path fill="none" stroke="midnightblue" d="M670.96,-105.537C659.727,-95.9087 645.681,-83.8694 636.306,-75.8339"/>
<polygon fill="midnightblue" stroke="midnightblue" points="669.008,-108.473 678.878,-112.324 673.563,-103.159 669.008,-108.473"/>
</g>
<!-- Node13 -->
<g id="node13" class="node"><title>Node13</title>
<g id="a_node13"><a xlink:href="_button_8cpp.html" target="_top" xlink:title=" ">
<polygon fill="white" stroke="black" points="680.5,-56.5 680.5,-75.5 799.5,-75.5 799.5,-56.5 680.5,-56.5"/>
<text text-anchor="middle" x="740" y="-63.5" font-family="Helvetica,sans-Serif" font-size="10.00">src/Controls/Button.cpp</text>
</a>
</g>
</g>
<!-- Node12&#45;&gt;Node13 -->
<g id="edge12" class="edge"><title>Node12&#45;&gt;Node13</title>
<path fill="none" stroke="midnightblue" d="M704.378,-104.718C713.367,-95.1997 724.359,-83.5608 731.735,-75.7511"/>
<polygon fill="midnightblue" stroke="midnightblue" points="701.743,-102.41 697.422,-112.083 706.832,-107.216 701.743,-102.41"/>
</g>
<!-- Node15&#45;&gt;Node8 -->
<g id="edge16" class="edge"><title>Node15&#45;&gt;Node8</title>
<path fill="none" stroke="midnightblue" d="M903.188,-271.87C921.662,-243.335 959.35,-184.054 988,-132 998.917,-112.165 1010.3,-88.0881 1016.1,-75.5404"/>
<polygon fill="midnightblue" stroke="midnightblue" points="900.215,-270.022 897.7,-280.314 906.084,-273.837 900.215,-270.022"/>
</g>
<!-- Node15&#45;&gt;Node9 -->
<g id="edge17" class="edge"><title>Node15&#45;&gt;Node9</title>
<path fill="none" stroke="midnightblue" d="M929.986,-277.08C986.584,-257.119 1091.57,-211.133 1140,-132 1150.77,-114.408 1149.26,-88.9765 1147.48,-75.7439"/>
<polygon fill="midnightblue" stroke="midnightblue" points="928.658,-273.836 920.338,-280.396 930.932,-280.456 928.658,-273.836"/>
</g>
<!-- Node15&#45;&gt;Node10 -->
<g id="edge18" class="edge"><title>Node15&#45;&gt;Node10</title>
<path fill="none" stroke="midnightblue" d="M847.459,-277.735C784.792,-259.215 672.903,-215.738 625,-132 614.801,-114.171 619.609,-88.8393 623.241,-75.6844"/>
<polygon fill="midnightblue" stroke="midnightblue" points="846.5,-281.1 857.077,-280.495 848.431,-274.372 846.5,-281.1"/>
</g>
<!-- Node16 -->
<g id="node16" class="node"><title>Node16</title>
<g id="a_node16"><a xlink:href="output_8hpp.html" target="_top" xlink:title=" ">
<polygon fill="white" stroke="black" points="498.5,-224.5 498.5,-243.5 577.5,-243.5 577.5,-224.5 498.5,-224.5"/>
<text text-anchor="middle" x="538" y="-231.5" font-family="Helvetica,sans-Serif" font-size="10.00">src/output.hpp</text>
</a>
</g>
</g>
<!-- Node15&#45;&gt;Node16 -->
<g id="edge19" class="edge"><title>Node15&#45;&gt;Node16</title>
<path fill="none" stroke="midnightblue" d="M832.72,-280.398C772.172,-271.544 675.472,-257.215 592,-244 587.306,-243.257 582.386,-242.461 577.507,-241.661"/>
<polygon fill="midnightblue" stroke="midnightblue" points="832.455,-283.897 842.855,-281.879 833.466,-276.97 832.455,-283.897"/>
</g>
<!-- Node17 -->
<g id="node17" class="node"><title>Node17</title>
<g id="a_node17"><a xlink:href="_test_case_8h.html" target="_top" xlink:title=" ">
<polygon fill="white" stroke="black" points="428,-112.5 428,-131.5 532,-131.5 532,-112.5 428,-112.5"/>
<text text-anchor="middle" x="480" y="-119.5" font-family="Helvetica,sans-Serif" font-size="10.00">src/Test/TestCase.h</text>
</a>
</g>
</g>
<!-- Node16&#45;&gt;Node17 -->
<g id="edge20" class="edge"><title>Node16&#45;&gt;Node17</title>
<path fill="none" stroke="midnightblue" d="M521.114,-216.999C513.435,-208.932 504.791,-198.619 499,-188 488.868,-169.42 483.591,-144.833 481.351,-131.872"/>
<polygon fill="midnightblue" stroke="midnightblue" points="518.795,-219.63 528.331,-224.247 523.755,-214.691 518.795,-219.63"/>
</g>
<!-- Node24 -->
<g id="node24" class="node"><title>Node24</title>
<g id="a_node24"><a xlink:href="utils_8hpp.html" target="_top" xlink:title=" ">
<polygon fill="white" stroke="black" points="508,-168.5 508,-187.5 578,-187.5 578,-168.5 508,-168.5"/>
<text text-anchor="middle" x="543" y="-175.5" font-family="Helvetica,sans-Serif" font-size="10.00">src/utils.hpp</text>
</a>
</g>
</g>
<!-- Node16&#45;&gt;Node24 -->
<g id="edge29" class="edge"><title>Node16&#45;&gt;Node24</title>
<path fill="none" stroke="midnightblue" d="M539.75,-214.101C540.58,-205.136 541.532,-194.858 542.19,-187.751"/>
<polygon fill="midnightblue" stroke="midnightblue" points="536.263,-213.803 538.826,-224.083 543.233,-214.448 536.263,-213.803"/>
</g>
<!-- Node17&#45;&gt;Node10 -->
<g id="edge21" class="edge"><title>Node17&#45;&gt;Node10</title>
<path fill="none" stroke="midnightblue" d="M512.699,-108.906C540.148,-98.7536 578.668,-84.5063 602.974,-75.5164"/>
<polygon fill="midnightblue" stroke="midnightblue" points="511.299,-105.692 503.134,-112.444 513.727,-112.257 511.299,-105.692"/>
</g>
<!-- Node18 -->
<g id="node18" class="node"><title>Node18</title>
<g id="a_node18"><a xlink:href="_base_tests_8h.html" target="_top" xlink:title=" ">
<polygon fill="white" stroke="black" points="197,-56.5 197,-75.5 307,-75.5 307,-56.5 197,-56.5"/>
<text text-anchor="middle" x="252" y="-63.5" font-family="Helvetica,sans-Serif" font-size="10.00">src/Test/BaseTests.h</text>
</a>
</g>
</g>
<!-- Node17&#45;&gt;Node18 -->
<g id="edge22" class="edge"><title>Node17&#45;&gt;Node18</title>
<path fill="none" stroke="midnightblue" d="M433.929,-110.088C390.854,-99.8865 327.414,-84.8612 287.958,-75.5164"/>
<polygon fill="midnightblue" stroke="midnightblue" points="433.335,-113.545 443.873,-112.444 434.949,-106.733 433.335,-113.545"/>
</g>
<!-- Node20 -->
<g id="node20" class="node"><title>Node20</title>
<g id="a_node20"><a xlink:href="_property_tests_8h.html" target="_top" xlink:title=" ">
<polygon fill="white" stroke="black" points="55,-56.5 55,-75.5 179,-75.5 179,-56.5 55,-56.5"/>
<text text-anchor="middle" x="117" y="-63.5" font-family="Helvetica,sans-Serif" font-size="10.00">src/Test/PropertyTests.h</text>
</a>
</g>
</g>
<!-- Node17&#45;&gt;Node20 -->
<g id="edge24" class="edge"><title>Node17&#45;&gt;Node20</title>
<path fill="none" stroke="midnightblue" d="M417.798,-111.747C349.463,-101.581 240.625,-85.3905 174.302,-75.5243"/>
<polygon fill="midnightblue" stroke="midnightblue" points="417.585,-115.254 427.991,-113.263 418.615,-108.33 417.585,-115.254"/>
</g>
<!-- Node21 -->
<g id="node21" class="node"><title>Node21</title>
<g id="a_node21"><a xlink:href="_test_case_8cpp.html" target="_top" xlink:title=" ">
<polygon fill="white" stroke="black" points="325.5,-56.5 325.5,-75.5 440.5,-75.5 440.5,-56.5 325.5,-56.5"/>
<text text-anchor="middle" x="383" y="-63.5" font-family="Helvetica,sans-Serif" font-size="10.00">src/Test/TestCase.cpp</text>
</a>
</g>
</g>
<!-- Node17&#45;&gt;Node21 -->
<g id="edge26" class="edge"><title>Node17&#45;&gt;Node21</title>
<path fill="none" stroke="midnightblue" d="M455.665,-107.453C437.757,-97.4835 413.946,-84.2279 398.546,-75.6545"/>
<polygon fill="midnightblue" stroke="midnightblue" points="453.975,-110.518 464.415,-112.324 457.38,-104.402 453.975,-110.518"/>
</g>
<!-- Node22 -->
<g id="node22" class="node"><title>Node22</title>
<g id="a_node22"><a xlink:href="_value_tests_8h.html" target="_top" xlink:title=" ">
<polygon fill="white" stroke="black" points="459,-56.5 459,-75.5 571,-75.5 571,-56.5 459,-56.5"/>
<text text-anchor="middle" x="515" y="-63.5" font-family="Helvetica,sans-Serif" font-size="10.00">src/Test/ValueTests.h</text>
</a>
</g>
</g>
<!-- Node17&#45;&gt;Node22 -->
<g id="edge27" class="edge"><title>Node17&#45;&gt;Node22</title>
<path fill="none" stroke="midnightblue" d="M491.3,-103.566C497.322,-94.2747 504.469,-83.2484 509.328,-75.7511"/>
<polygon fill="midnightblue" stroke="midnightblue" points="488.281,-101.788 485.78,-112.083 494.156,-105.595 488.281,-101.788"/>
</g>
<!-- Node19 -->
<g id="node19" class="node"><title>Node19</title>
<g id="a_node19"><a xlink:href="_base_tests_8cpp.html" target="_top" xlink:title=" ">
<polygon fill="white" stroke="black" points="192,-0.5 192,-19.5 312,-19.5 312,-0.5 192,-0.5"/>
<text text-anchor="middle" x="252" y="-7.5" font-family="Helvetica,sans-Serif" font-size="10.00">src/Test/BaseTests.cpp</text>
</a>
</g>
</g>
<!-- Node18&#45;&gt;Node19 -->
<g id="edge23" class="edge"><title>Node18&#45;&gt;Node19</title>
<path fill="none" stroke="midnightblue" d="M252,-45.8045C252,-36.9102 252,-26.7798 252,-19.7511"/>
<polygon fill="midnightblue" stroke="midnightblue" points="248.5,-46.083 252,-56.083 255.5,-46.083 248.5,-46.083"/>
</g>
<!-- Node20&#45;&gt;Node6 -->
<g id="edge25" class="edge"><title>Node20&#45;&gt;Node6</title>
<path fill="none" stroke="midnightblue" d="M101.924,-48.7175C93.1109,-39.1997 82.3341,-27.5608 75.1028,-19.7511"/>
<polygon fill="midnightblue" stroke="midnightblue" points="99.3812,-51.1233 108.744,-56.083 104.518,-46.3674 99.3812,-51.1233"/>
</g>
<!-- Node23 -->
<g id="node23" class="node"><title>Node23</title>
<g id="a_node23"><a xlink:href="_value_tests_8cpp.html" target="_top" xlink:title=" ">
<polygon fill="white" stroke="black" points="454,-0.5 454,-19.5 576,-19.5 576,-0.5 454,-0.5"/>
<text text-anchor="middle" x="515" y="-7.5" font-family="Helvetica,sans-Serif" font-size="10.00">src/Test/ValueTests.cpp</text>
</a>
</g>
</g>
<!-- Node22&#45;&gt;Node23 -->
<g id="edge28" class="edge"><title>Node22&#45;&gt;Node23</title>
<path fill="none" stroke="midnightblue" d="M515,-45.8045C515,-36.9102 515,-26.7798 515,-19.7511"/>
<polygon fill="midnightblue" stroke="midnightblue" points="511.5,-46.083 515,-56.083 518.5,-46.083 511.5,-46.083"/>
</g>
<!-- Node24&#45;&gt;Node10 -->
<g id="edge37" class="edge"><title>Node24&#45;&gt;Node10</title>
<path fill="none" stroke="midnightblue" d="M555.763,-160.06C565.648,-146.94 579.688,-128.314 592,-112 601.556,-99.3385 612.633,-84.6814 619.479,-75.6247"/>
<polygon fill="midnightblue" stroke="midnightblue" points="552.877,-158.073 549.654,-168.166 558.468,-162.286 552.877,-158.073"/>
</g>
<!-- Node24&#45;&gt;Node17 -->
<g id="edge38" class="edge"><title>Node24&#45;&gt;Node17</title>
<path fill="none" stroke="midnightblue" d="M524.96,-161.537C513.727,-151.909 499.681,-139.869 490.306,-131.834"/>
<polygon fill="midnightblue" stroke="midnightblue" points="523.008,-164.473 532.878,-168.324 527.563,-159.159 523.008,-164.473"/>
</g>
<!-- Node25 -->
<g id="node25" class="node"><title>Node25</title>
<g id="a_node25"><a xlink:href="dbg__new_8h.html" target="_top" xlink:title=" ">
<polygon fill="white" stroke="black" points="899,-112.5 899,-131.5 979,-131.5 979,-112.5 899,-112.5"/>
<text text-anchor="middle" x="939" y="-119.5" font-family="Helvetica,sans-Serif" font-size="10.00">src/dbg_new.h</text>
</a>
</g>
</g>
<!-- Node24&#45;&gt;Node25 -->
<g id="edge30" class="edge"><title>Node24&#45;&gt;Node25</title>
<path fill="none" stroke="midnightblue" d="M588.548,-171.794C654.811,-164.057 781.608,-148.639 889,-132 892.225,-131.5 895.562,-130.957 898.912,-130.393"/>
<polygon fill="midnightblue" stroke="midnightblue" points="587.974,-168.337 578.446,-172.968 588.783,-175.29 587.974,-168.337"/>
</g>
<!-- Node25&#45;&gt;Node8 -->
<g id="edge31" class="edge"><title>Node25&#45;&gt;Node8</title>
<path fill="none" stroke="midnightblue" d="M960.567,-106.622C975.364,-96.7574 994.512,-83.9919 1007.02,-75.6545"/>
<polygon fill="midnightblue" stroke="midnightblue" points="958.393,-103.865 952.014,-112.324 962.276,-109.689 958.393,-103.865"/>
</g>
<!-- Node25&#45;&gt;Node9 -->
<g id="edge34" class="edge"><title>Node25&#45;&gt;Node9</title>
<path fill="none" stroke="midnightblue" d="M981.822,-109.829C1020.91,-99.6333 1077.83,-84.7823 1113.35,-75.5164"/>
<polygon fill="midnightblue" stroke="midnightblue" points="980.592,-106.533 971.8,-112.444 982.359,-113.306 980.592,-106.533"/>
</g>
<!-- Node25&#45;&gt;Node10 -->
<g id="edge36" class="edge"><title>Node25&#45;&gt;Node10</title>
<path fill="none" stroke="midnightblue" d="M889.302,-112.052C889.201,-112.035 889.1,-112.017 889,-112 792.229,-95.3013 767.605,-93.6319 671,-76 668.335,-75.5136 665.584,-74.9977 662.818,-74.4686"/>
<polygon fill="midnightblue" stroke="midnightblue" points="888.439,-115.454 898.892,-113.728 889.644,-108.559 888.439,-115.454"/>
</g>
<!-- Node25&#45;&gt;Node13 -->
<g id="edge32" class="edge"><title>Node25&#45;&gt;Node13</title>
<path fill="none" stroke="midnightblue" d="M897.352,-109.699C859.794,-99.507 805.386,-84.7429 771.385,-75.5164"/>
<polygon fill="midnightblue" stroke="midnightblue" points="896.9,-113.202 907.468,-112.444 898.733,-106.447 896.9,-113.202"/>
</g>
<!-- Node25&#45;&gt;Node14 -->
<g id="edge33" class="edge"><title>Node25&#45;&gt;Node14</title>
<path fill="none" stroke="midnightblue" d="M989.13,-113.038C1052.37,-102.994 1160.67,-85.7934 1225.48,-75.5008"/>
<polygon fill="midnightblue" stroke="midnightblue" points="988.329,-109.621 979.002,-114.647 989.427,-116.535 988.329,-109.621"/>
</g>
<!-- Node26 -->
<g id="node26" class="node"><title>Node26</title>
<g id="a_node26"><a xlink:href="_progress_8cpp.html" target="_top" xlink:title=" ">
<polygon fill="white" stroke="black" points="818,-56.5 818,-75.5 948,-75.5 948,-56.5 818,-56.5"/>
<text text-anchor="middle" x="883" y="-63.5" font-family="Helvetica,sans-Serif" font-size="10.00">src/Controls/Progress.cpp</text>
</a>
</g>
</g>
<!-- Node25&#45;&gt;Node26 -->
<g id="edge35" class="edge"><title>Node25&#45;&gt;Node26</title>
<path fill="none" stroke="midnightblue" d="M922.67,-105.253C912.735,-95.6731 900.412,-83.7906 892.161,-75.8339"/>
<polygon fill="midnightblue" stroke="midnightblue" points="920.375,-107.902 930.003,-112.324 925.234,-102.863 920.375,-107.902"/>
</g>
<!-- Node27&#45;&gt;Node10 -->
<g id="edge41" class="edge"><title>Node27&#45;&gt;Node10</title>
<path fill="none" stroke="midnightblue" d="M780.19,-109.699C743.387,-99.507 690.071,-84.7429 656.754,-75.5164"/>
<polygon fill="midnightblue" stroke="midnightblue" points="779.53,-113.148 790.102,-112.444 781.398,-106.402 779.53,-113.148"/>
</g>
<!-- Node27&#45;&gt;Node26 -->
<g id="edge40" class="edge"><title>Node27&#45;&gt;Node26</title>
<path fill="none" stroke="midnightblue" d="M838.754,-105.537C849.808,-95.9087 863.631,-83.8694 872.857,-75.8339"/>
<polygon fill="midnightblue" stroke="midnightblue" points="836.203,-103.117 830.961,-112.324 840.801,-108.395 836.203,-103.117"/>
</g>
</g>
</svg>
