<?xml version="1.0" encoding="UTF-8" standalone="no"?>
<!DOCTYPE svg PUBLIC "-//W3C//DTD SVG 1.1//EN"
 "http://www.w3.org/Graphics/SVG/1.1/DTD/svg11.dtd">
<!-- Generated by graphviz version 2.38.0 (20140413.2041)
 -->
<!-- Title: src/Base/Property.h Pages: 1 -->
<svg width="393pt" height="140pt"
 viewBox="0.00 0.00 393.00 140.00" xmlns="http://www.w3.org/2000/svg" xmlns:xlink="http://www.w3.org/1999/xlink">
<g id="graph0" class="graph" transform="scale(1 1) rotate(0) translate(4 136)">
<title>src/Base/Property.h</title>
<polygon fill="white" stroke="none" points="-4,4 -4,-136 389,-136 389,4 -4,4"/>
<!-- Node1 -->
<g id="node1" class="node"><title>Node1</title>
<g id="a_node1"><a xlink:title=" ">
<polygon fill="#bfbfbf" stroke="black" points="124,-112.5 124,-131.5 228,-131.5 228,-112.5 124,-112.5"/>
<text text-anchor="middle" x="176" y="-119.5" font-family="Helvetica,sans-Serif" font-size="10.00">src/Base/Property.h</text>
</a>
</g>
</g>
<!-- Node2 -->
<g id="node2" class="node"><title>Node2</title>
<g id="a_node2"><a xlink:href="_object_8h.html" target="_top" xlink:title=" ">
<polygon fill="white" stroke="black" points="5.5,-56.5 5.5,-75.5 100.5,-75.5 100.5,-56.5 5.5,-56.5"/>
<text text-anchor="middle" x="53" y="-63.5" font-family="Helvetica,sans-Serif" font-size="10.00">src/Base/Object.h</text>
</a>
</g>
</g>
<!-- Node1&#45;&gt;Node2 -->
<g id="edge1" class="edge"><title>Node1&#45;&gt;Node2</title>
<path fill="none" stroke="midnightblue" d="M147.227,-108.368C124.193,-98.2553 92.5162,-84.3486 72.3985,-75.5164"/>
<polygon fill="midnightblue" stroke="midnightblue" points="145.947,-111.628 156.51,-112.444 148.761,-105.219 145.947,-111.628"/>
</g>
<!-- Node4 -->
<g id="node4" class="node"><title>Node4</title>
<g id="a_node4"><a xlink:href="_property_8cpp.html" target="_top" xlink:title=" ">
<polygon fill="white" stroke="black" points="119,-56.5 119,-75.5 233,-75.5 233,-56.5 119,-56.5"/>
<text text-anchor="middle" x="176" y="-63.5" font-family="Helvetica,sans-Serif" font-size="10.00">src/Base/Property.cpp</text>
</a>
</g>
</g>
<!-- Node1&#45;&gt;Node4 -->
<g id="edge3" class="edge"><title>Node1&#45;&gt;Node4</title>
<path fill="none" stroke="midnightblue" d="M176,-101.805C176,-92.9102 176,-82.7798 176,-75.7511"/>
<polygon fill="midnightblue" stroke="midnightblue" points="172.5,-102.083 176,-112.083 179.5,-102.083 172.5,-102.083"/>
</g>
<!-- Node5 -->
<g id="node5" class="node"><title>Node5</title>
<g id="a_node5"><a xlink:href="_property_tests_8cpp.html" target="_top" xlink:title=" ">
<polygon fill="white" stroke="black" points="251,-56.5 251,-75.5 385,-75.5 385,-56.5 251,-56.5"/>
<text text-anchor="middle" x="318" y="-63.5" font-family="Helvetica,sans-Serif" font-size="10.00">src/Test/PropertyTests.cpp</text>
</a>
</g>
</g>
<!-- Node1&#45;&gt;Node5 -->
<g id="edge4" class="edge"><title>Node1&#45;&gt;Node5</title>
<path fill="none" stroke="midnightblue" d="M208.155,-108.772C234.828,-98.6287 272.069,-84.4669 295.605,-75.5164"/>
<polygon fill="midnightblue" stroke="midnightblue" points="206.603,-105.618 198.5,-112.444 209.091,-112.16 206.603,-105.618"/>
</g>
<!-- Node3 -->
<g id="node3" class="node"><title>Node3</title>
<g id="a_node3"><a xlink:href="_object_8cpp.html" target="_top" xlink:title=" ">
<polygon fill="white" stroke="black" points="0,-0.5 0,-19.5 106,-19.5 106,-0.5 0,-0.5"/>
<text text-anchor="middle" x="53" y="-7.5" font-family="Helvetica,sans-Serif" font-size="10.00">src/Base/Object.cpp</text>
</a>
</g>
</g>
<!-- Node2&#45;&gt;Node3 -->
<g id="edge2" class="edge"><title>Node2&#45;&gt;Node3</title>
<path fill="none" stroke="midnightblue" d="M53,-45.8045C53,-36.9102 53,-26.7798 53,-19.7511"/>
<polygon fill="midnightblue" stroke="midnightblue" points="49.5001,-46.083 53,-56.083 56.5001,-46.083 49.5001,-46.083"/>
</g>
</g>
</svg>
