<?xml version="1.0" encoding="UTF-8" standalone="no"?>
<!DOCTYPE svg PUBLIC "-//W3C//DTD SVG 1.1//EN"
 "http://www.w3.org/Graphics/SVG/1.1/DTD/svg11.dtd">
<!-- Generated by graphviz version 2.38.0 (20140413.2041)
 -->
<!-- Title: src/Base/Thread.h Pages: 1 -->
<svg width="310pt" height="140pt"
 viewBox="0.00 0.00 309.50 140.00" xmlns="http://www.w3.org/2000/svg" xmlns:xlink="http://www.w3.org/1999/xlink">
<g id="graph0" class="graph" transform="scale(1 1) rotate(0) translate(4 136)">
<title>src/Base/Thread.h</title>
<polygon fill="white" stroke="none" points="-4,4 -4,-136 305.5,-136 305.5,4 -4,4"/>
<!-- Node1 -->
<g id="node1" class="node"><title>Node1</title>
<g id="a_node1"><a xlink:title=" ">
<polygon fill="#bfbfbf" stroke="black" points="103.5,-112.5 103.5,-131.5 199.5,-131.5 199.5,-112.5 103.5,-112.5"/>
<text text-anchor="middle" x="151.5" y="-119.5" font-family="Helvetica,sans-Serif" font-size="10.00">src/Base/Thread.h</text>
</a>
</g>
</g>
<!-- Node2 -->
<g id="node2" class="node"><title>Node2</title>
<g id="a_node2"><a xlink:title=" ">
<polygon fill="white" stroke="#bfbfbf" points="0,-56.5 0,-75.5 41,-75.5 41,-56.5 0,-56.5"/>
<text text-anchor="middle" x="20.5" y="-63.5" font-family="Helvetica,sans-Serif" font-size="10.00">string</text>
</a>
</g>
</g>
<!-- Node1&#45;&gt;Node2 -->
<g id="edge1" class="edge"><title>Node1&#45;&gt;Node2</title>
<path fill="none" stroke="midnightblue" d="M130.743,-112.444C109.184,-103.557 75.2367,-89.5632 50.7062,-79.4514"/>
<polygon fill="midnightblue" stroke="midnightblue" points="51.7394,-76.0917 41.1602,-75.5164 49.0717,-82.5634 51.7394,-76.0917"/>
</g>
<!-- Node3 -->
<g id="node3" class="node"><title>Node3</title>
<g id="a_node3"><a xlink:title=" ">
<polygon fill="white" stroke="#bfbfbf" points="59.5,-56.5 59.5,-75.5 111.5,-75.5 111.5,-56.5 59.5,-56.5"/>
<text text-anchor="middle" x="85.5" y="-63.5" font-family="Helvetica,sans-Serif" font-size="10.00">memory</text>
</a>
</g>
</g>
<!-- Node1&#45;&gt;Node3 -->
<g id="edge2" class="edge"><title>Node1&#45;&gt;Node3</title>
<path fill="none" stroke="midnightblue" d="M140.896,-112.324C131.044,-104.263 116.149,-92.0765 104.285,-82.3695"/>
<polygon fill="midnightblue" stroke="midnightblue" points="106.253,-79.4575 96.297,-75.8339 101.82,-84.8752 106.253,-79.4575"/>
</g>
<!-- Node4 -->
<g id="node4" class="node"><title>Node4</title>
<g id="a_node4"><a xlink:title=" ">
<polygon fill="white" stroke="#bfbfbf" points="129.5,-56.5 129.5,-75.5 173.5,-75.5 173.5,-56.5 129.5,-56.5"/>
<text text-anchor="middle" x="151.5" y="-63.5" font-family="Helvetica,sans-Serif" font-size="10.00">thread</text>
</a>
</g>
</g>
<!-- Node1&#45;&gt;Node4 -->
<g id="edge3" class="edge"><title>Node1&#45;&gt;Node4</title>
<path fill="none" stroke="midnightblue" d="M151.5,-112.083C151.5,-105.006 151.5,-94.8611 151.5,-85.9865"/>
<polygon fill="midnightblue" stroke="midnightblue" points="155,-85.751 151.5,-75.7511 148,-85.7511 155,-85.751"/>
</g>
<!-- Node5 -->
<g id="node5" class="node"><title>Node5</title>
<g id="a_node5"><a xlink:title=" ">
<polygon fill="white" stroke="#bfbfbf" points="204.5,-0.5 204.5,-19.5 262.5,-19.5 262.5,-0.5 204.5,-0.5"/>
<text text-anchor="middle" x="233.5" y="-7.5" font-family="Helvetica,sans-Serif" font-size="10.00">functional</text>
</a>
</g>
</g>
<!-- Node1&#45;&gt;Node5 -->
<g id="edge4" class="edge"><title>Node1&#45;&gt;Node5</title>
<path fill="none" stroke="midnightblue" d="M157.934,-112.368C171.527,-94.135 203.364,-51.4257 221.069,-27.6752"/>
<polygon fill="midnightblue" stroke="midnightblue" points="223.925,-29.7007 227.095,-19.5914 218.313,-25.5171 223.925,-29.7007"/>
</g>
<!-- Node6 -->
<g id="node6" class="node"><title>Node6</title>
<g id="a_node6"><a xlink:href="_property_8hpp.html" target="_top" xlink:title=" ">
<polygon fill="white" stroke="black" points="229.5,-56.5 229.5,-75.5 301.5,-75.5 301.5,-56.5 229.5,-56.5"/>
<text text-anchor="middle" x="265.5" y="-63.5" font-family="Helvetica,sans-Serif" font-size="10.00">Property.hpp</text>
</a>
</g>
</g>
<!-- Node1&#45;&gt;Node6 -->
<g id="edge5" class="edge"><title>Node1&#45;&gt;Node6</title>
<path fill="none" stroke="midnightblue" d="M169.564,-112.444C188.075,-103.675 217.081,-89.9355 238.355,-79.8579"/>
<polygon fill="midnightblue" stroke="midnightblue" points="239.982,-82.9604 247.521,-75.5164 236.985,-76.6343 239.982,-82.9604"/>
</g>
<!-- Node6&#45;&gt;Node5 -->
<g id="edge6" class="edge"><title>Node6&#45;&gt;Node5</title>
<path fill="none" stroke="midnightblue" d="M260.216,-56.083C255.789,-48.6127 249.337,-37.7244 243.882,-28.5199"/>
<polygon fill="midnightblue" stroke="midnightblue" points="246.795,-26.5697 238.686,-19.7511 240.773,-30.1383 246.795,-26.5697"/>
</g>
</g>
</svg>
