<?xml version="1.0" encoding="UTF-8" standalone="no"?>
<!DOCTYPE svg PUBLIC "-//W3C//DTD SVG 1.1//EN"
 "http://www.w3.org/Graphics/SVG/1.1/DTD/svg11.dtd">
<!-- Generated by graphviz version 2.38.0 (20140413.2041)
 -->
<!-- Title: Edit Pages: 1 -->
<svg width="863pt" height="391pt"
 viewBox="0.00 0.00 863.00 391.00" xmlns="http://www.w3.org/2000/svg" xmlns:xlink="http://www.w3.org/1999/xlink">
<g id="graph0" class="graph" transform="scale(1 1) rotate(0) translate(4 387)">
<title>Edit</title>
<polygon fill="white" stroke="none" points="-4,4 -4,-387 859,-387 859,4 -4,4"/>
<!-- Node1 -->
<g id="node1" class="node"><title>Node1</title>
<g id="a_node1"><a xlink:title=" ">
<polygon fill="#bfbfbf" stroke="black" points="821,-128 821,-147 855,-147 855,-128 821,-128"/>
<text text-anchor="middle" x="838" y="-135" font-family="Helvetica,sans-Serif" font-size="10.00">Edit</text>
</a>
</g>
</g>
<!-- Node2 -->
<g id="node2" class="node"><title>Node2</title>
<g id="a_node2"><a xlink:href="class_control.html" target="_top" xlink:title=" ">
<polygon fill="white" stroke="black" points="627.5,-267 627.5,-286 674.5,-286 674.5,-267 627.5,-267"/>
<text text-anchor="middle" x="651" y="-274" font-family="Helvetica,sans-Serif" font-size="10.00">Control</text>
</a>
</g>
</g>
<!-- Node2&#45;&gt;Node1 -->
<g id="edge1" class="edge"><title>Node2&#45;&gt;Node1</title>
<path fill="none" stroke="midnightblue" d="M684.934,-271.59C718.567,-264.98 770.347,-250.166 803,-218.5 823.692,-198.433 832.363,-163.846 835.484,-147.117"/>
<polygon fill="midnightblue" stroke="midnightblue" points="683.908,-268.219 674.699,-273.459 685.165,-275.105 683.908,-268.219"/>
</g>
<!-- Node3 -->
<g id="node3" class="node"><title>Node3</title>
<g id="a_node3"><a xlink:title=" ">
<polygon fill="white" stroke="#bfbfbf" points="392.5,-352.5 392.5,-382.5 493.5,-382.5 493.5,-352.5 392.5,-352.5"/>
<text text-anchor="start" x="400.5" y="-370.5" font-family="Helvetica,sans-Serif" font-size="10.00">unique_ptr&lt; Control</text>
<text text-anchor="middle" x="443" y="-359.5" font-family="Helvetica,sans-Serif" font-size="10.00">::Impl &gt;</text>
</a>
</g>
</g>
<!-- Node3&#45;&gt;Node2 -->
<g id="edge2" class="edge"><title>Node3&#45;&gt;Node2</title>
<path fill="none" stroke="#9a32cd" stroke-dasharray="5,2" d="M495.737,-348.898C516.814,-340.959 541.283,-331.279 563,-321.5 587.809,-310.329 615.591,-295.543 632.939,-286.025"/>
<polygon fill="#9a32cd" stroke="#9a32cd" points="494.457,-345.64 486.313,-352.417 496.906,-352.197 494.457,-345.64"/>
<text text-anchor="middle" x="542.5" y="-340.5" font-family="Helvetica,sans-Serif" font-size="10.00"> pImpl_</text>
</g>
<!-- Node4 -->
<g id="node4" class="node"><title>Node4</title>
<g id="a_node4"><a xlink:href="struct_property_r_w.html" target="_top" xlink:title=" ">
<polygon fill="white" stroke="black" points="384,-314 384,-333 502,-333 502,-314 384,-314"/>
<text text-anchor="middle" x="443" y="-321" font-family="Helvetica,sans-Serif" font-size="10.00">PropertyRW&lt; HWND &gt;</text>
</a>
</g>
</g>
<!-- Node4&#45;&gt;Node2 -->
<g id="edge3" class="edge"><title>Node4&#45;&gt;Node2</title>
<path fill="none" stroke="#9a32cd" stroke-dasharray="5,2" d="M495.561,-311.736C537.958,-302.063 596,-288.82 627.476,-281.639"/>
<polygon fill="#9a32cd" stroke="#9a32cd" points="494.658,-308.352 485.687,-313.989 496.215,-315.177 494.658,-308.352"/>
<text text-anchor="middle" x="542.5" y="-309.5" font-family="Helvetica,sans-Serif" font-size="10.00"> hWnd</text>
</g>
<!-- Node5 -->
<g id="node5" class="node"><title>Node5</title>
<g id="a_node5"><a xlink:href="struct_property_r.html" target="_top" xlink:title=" ">
<polygon fill="white" stroke="black" points="196,-362 196,-381 304,-381 304,-362 196,-362"/>
<text text-anchor="middle" x="250" y="-369" font-family="Helvetica,sans-Serif" font-size="10.00">PropertyR&lt; HWND &gt;</text>
</a>
</g>
</g>
<!-- Node5&#45;&gt;Node4 -->
<g id="edge4" class="edge"><title>Node5&#45;&gt;Node4</title>
<path fill="none" stroke="midnightblue" d="M298.927,-359.456C331.389,-351.297 373.702,-340.664 403.874,-333.082"/>
<polygon fill="midnightblue" stroke="midnightblue" points="298.038,-356.07 289.193,-361.902 299.744,-362.859 298.038,-356.07"/>
</g>
<!-- Node6 -->
<g id="node6" class="node"><title>Node6</title>
<g id="a_node6"><a xlink:title=" ">
<polygon fill="white" stroke="#bfbfbf" points="0,-362 0,-381 118,-381 118,-362 0,-362"/>
<text text-anchor="middle" x="59" y="-369" font-family="Helvetica,sans-Serif" font-size="10.00">function&lt; HWND(void)&gt;</text>
</a>
</g>
</g>
<!-- Node6&#45;&gt;Node5 -->
<g id="edge5" class="edge"><title>Node6&#45;&gt;Node5</title>
<path fill="none" stroke="#9a32cd" stroke-dasharray="5,2" d="M128.288,-371.5C150.505,-371.5 174.819,-371.5 195.767,-371.5"/>
<polygon fill="#9a32cd" stroke="#9a32cd" points="128.248,-368 118.248,-371.5 128.248,-375 128.248,-368"/>
<text text-anchor="middle" x="153" y="-374.5" font-family="Helvetica,sans-Serif" font-size="10.00"> getter_</text>
</g>
<!-- Node7 -->
<g id="node7" class="node"><title>Node7</title>
<g id="a_node7"><a xlink:title=" ">
<polygon fill="white" stroke="#bfbfbf" points="195.5,-312.5 195.5,-342.5 304.5,-342.5 304.5,-312.5 195.5,-312.5"/>
<text text-anchor="start" x="203.5" y="-330.5" font-family="Helvetica,sans-Serif" font-size="10.00">function&lt; void(HWND</text>
<text text-anchor="middle" x="250" y="-319.5" font-family="Helvetica,sans-Serif" font-size="10.00"> newValue)&gt;</text>
</a>
</g>
</g>
<!-- Node7&#45;&gt;Node4 -->
<g id="edge6" class="edge"><title>Node7&#45;&gt;Node4</title>
<path fill="none" stroke="#9a32cd" stroke-dasharray="5,2" d="M314.74,-326.165C337.006,-325.699 361.872,-325.178 383.675,-324.721"/>
<polygon fill="#9a32cd" stroke="#9a32cd" points="314.637,-322.666 304.712,-326.375 314.784,-329.665 314.637,-322.666"/>
<text text-anchor="middle" x="347" y="-328.5" font-family="Helvetica,sans-Serif" font-size="10.00"> setter_</text>
</g>
<!-- Node8 -->
<g id="node8" class="node"><title>Node8</title>
<g id="a_node8"><a xlink:href="struct_property_r_w.html" target="_top" xlink:title=" ">
<polygon fill="white" stroke="black" points="387,-267 387,-286 499,-286 499,-267 387,-267"/>
<text text-anchor="middle" x="443" y="-274" font-family="Helvetica,sans-Serif" font-size="10.00">PropertyRW&lt; string &gt;</text>
</a>
</g>
</g>
<!-- Node8&#45;&gt;Node2 -->
<g id="edge7" class="edge"><title>Node8&#45;&gt;Node2</title>
<path fill="none" stroke="#9a32cd" stroke-dasharray="5,2" d="M509.267,-276.5C549.682,-276.5 599.09,-276.5 627.316,-276.5"/>
<polygon fill="#9a32cd" stroke="#9a32cd" points="509.204,-273 499.204,-276.5 509.204,-280 509.204,-273"/>
<text text-anchor="middle" x="542.5" y="-279.5" font-family="Helvetica,sans-Serif" font-size="10.00"> Caption</text>
</g>
<!-- Node9 -->
<g id="node9" class="node"><title>Node9</title>
<g id="a_node9"><a xlink:href="struct_property_r.html" target="_top" xlink:title=" ">
<polygon fill="white" stroke="black" points="199,-274 199,-293 301,-293 301,-274 199,-274"/>
<text text-anchor="middle" x="250" y="-281" font-family="Helvetica,sans-Serif" font-size="10.00">PropertyR&lt; string &gt;</text>
</a>
</g>
</g>
<!-- Node9&#45;&gt;Node8 -->
<g id="edge8" class="edge"><title>Node9&#45;&gt;Node8</title>
<path fill="none" stroke="midnightblue" d="M311.306,-281.29C335.476,-280.404 363.142,-279.39 386.779,-278.524"/>
<polygon fill="midnightblue" stroke="midnightblue" points="311.048,-277.797 301.183,-281.661 311.305,-284.792 311.048,-277.797"/>
</g>
<!-- Node10 -->
<g id="node10" class="node"><title>Node10</title>
<g id="a_node10"><a xlink:title=" ">
<polygon fill="white" stroke="#bfbfbf" points="3,-274 3,-293 115,-293 115,-274 3,-274"/>
<text text-anchor="middle" x="59" y="-281" font-family="Helvetica,sans-Serif" font-size="10.00">function&lt; string(void)&gt;</text>
</a>
</g>
</g>
<!-- Node10&#45;&gt;Node9 -->
<g id="edge9" class="edge"><title>Node10&#45;&gt;Node9</title>
<path fill="none" stroke="#9a32cd" stroke-dasharray="5,2" d="M125.317,-283.5C149.434,-283.5 176.363,-283.5 198.92,-283.5"/>
<polygon fill="#9a32cd" stroke="#9a32cd" points="125.175,-280 115.175,-283.5 125.175,-287 125.175,-280"/>
<text text-anchor="middle" x="153" y="-286.5" font-family="Helvetica,sans-Serif" font-size="10.00"> getter_</text>
</g>
<!-- Node11 -->
<g id="node11" class="node"><title>Node11</title>
<g id="a_node11"><a xlink:title=" ">
<polygon fill="white" stroke="#bfbfbf" points="198.5,-224.5 198.5,-254.5 301.5,-254.5 301.5,-224.5 198.5,-224.5"/>
<text text-anchor="start" x="206.5" y="-242.5" font-family="Helvetica,sans-Serif" font-size="10.00">function&lt; void(string</text>
<text text-anchor="middle" x="250" y="-231.5" font-family="Helvetica,sans-Serif" font-size="10.00"> newValue)&gt;</text>
</a>
</g>
</g>
<!-- Node11&#45;&gt;Node8 -->
<g id="edge10" class="edge"><title>Node11&#45;&gt;Node8</title>
<path fill="none" stroke="#9a32cd" stroke-dasharray="5,2" d="M311.846,-251.287C337.953,-256.344 368.056,-262.176 392.732,-266.956"/>
<polygon fill="#9a32cd" stroke="#9a32cd" points="312.166,-247.784 301.683,-249.318 310.835,-254.656 312.166,-247.784"/>
<text text-anchor="middle" x="347" y="-264.5" font-family="Helvetica,sans-Serif" font-size="10.00"> setter_</text>
</g>
<!-- Node12 -->
<g id="node12" class="node"><title>Node12</title>
<g id="a_node12"><a xlink:href="struct_control_1_1_control_manager.html" target="_top" xlink:title=" ">
<polygon fill="white" stroke="black" points="382,-195 382,-214 504,-214 504,-195 382,-195"/>
<text text-anchor="middle" x="443" y="-202" font-family="Helvetica,sans-Serif" font-size="10.00">Control::ControlManager</text>
</a>
</g>
</g>
<!-- Node12&#45;&gt;Node2 -->
<g id="edge11" class="edge"><title>Node12&#45;&gt;Node2</title>
<path fill="none" stroke="#9a32cd" stroke-dasharray="5,2" d="M481.053,-217.451C523.578,-232.314 591.982,-256.222 627.289,-268.562"/>
<polygon fill="#9a32cd" stroke="#9a32cd" points="481.95,-214.057 471.355,-214.061 479.64,-220.665 481.95,-214.057"/>
<text text-anchor="middle" x="542.5" y="-248.5" font-family="Helvetica,sans-Serif" font-size="10.00"> Manager</text>
</g>
<!-- Node18 -->
<g id="node18" class="node"><title>Node18</title>
<g id="a_node18"><a xlink:href="struct_control_1_1_control_manager_impl.html" target="_top" xlink:title=" ">
<polygon fill="white" stroke="black" points="581,-189.5 581,-219.5 721,-219.5 721,-189.5 581,-189.5"/>
<text text-anchor="start" x="589" y="-207.5" font-family="Helvetica,sans-Serif" font-size="10.00">Control::ControlManagerImpl</text>
<text text-anchor="middle" x="651" y="-196.5" font-family="Helvetica,sans-Serif" font-size="10.00">&lt; Edit &gt;</text>
</a>
</g>
</g>
<!-- Node12&#45;&gt;Node18 -->
<g id="edge18" class="edge"><title>Node12&#45;&gt;Node18</title>
<path fill="none" stroke="midnightblue" d="M514.171,-204.5C535.663,-204.5 559.285,-204.5 580.718,-204.5"/>
<polygon fill="midnightblue" stroke="midnightblue" points="514.138,-201 504.138,-204.5 514.137,-208 514.138,-201"/>
</g>
<!-- Node13 -->
<g id="node13" class="node"><title>Node13</title>
<g id="a_node13"><a xlink:title=" ">
<polygon fill="white" stroke="#bfbfbf" points="188,-175.5 188,-205.5 312,-205.5 312,-175.5 188,-175.5"/>
<text text-anchor="start" x="196" y="-193.5" font-family="Helvetica,sans-Serif" font-size="10.00">unique_ptr&lt; Control</text>
<text text-anchor="middle" x="250" y="-182.5" font-family="Helvetica,sans-Serif" font-size="10.00">::ControlManager::Impl &gt;</text>
</a>
</g>
</g>
<!-- Node13&#45;&gt;Node12 -->
<g id="edge12" class="edge"><title>Node13&#45;&gt;Node12</title>
<path fill="none" stroke="#9a32cd" stroke-dasharray="5,2" d="M322.304,-195.727C341.875,-197.161 362.896,-198.702 381.777,-200.086"/>
<polygon fill="#9a32cd" stroke="#9a32cd" points="322.451,-192.228 312.222,-194.987 321.939,-199.209 322.451,-192.228"/>
<text text-anchor="middle" x="347" y="-202.5" font-family="Helvetica,sans-Serif" font-size="10.00"> pImpl_</text>
</g>
<!-- Node14 -->
<g id="node14" class="node"><title>Node14</title>
<g id="a_node14"><a xlink:href="struct_property_r_w.html" target="_top" xlink:title=" ">
<polygon fill="white" stroke="black" points="598,-128 598,-147 704,-147 704,-128 598,-128"/>
<text text-anchor="middle" x="651" y="-135" font-family="Helvetica,sans-Serif" font-size="10.00">PropertyRW&lt; bool &gt;</text>
</a>
</g>
</g>
<!-- Node14&#45;&gt;Node1 -->
<g id="edge13" class="edge"><title>Node14&#45;&gt;Node1</title>
<path fill="none" stroke="#9a32cd" stroke-dasharray="5,2" d="M714.41,-137.5C752.014,-137.5 797.064,-137.5 820.694,-137.5"/>
<polygon fill="#9a32cd" stroke="#9a32cd" points="714.025,-134 704.025,-137.5 714.025,-141 714.025,-134"/>
<text text-anchor="middle" x="771" y="-173.5" font-family="Helvetica,sans-Serif" font-size="10.00"> ClientEdge</text>
<text text-anchor="middle" x="771" y="-162.5" font-family="Helvetica,sans-Serif" font-size="10.00">HScroll</text>
<text text-anchor="middle" x="771" y="-151.5" font-family="Helvetica,sans-Serif" font-size="10.00">ReadOnly</text>
<text text-anchor="middle" x="771" y="-140.5" font-family="Helvetica,sans-Serif" font-size="10.00">VSCroll</text>
</g>
<!-- Node15 -->
<g id="node15" class="node"><title>Node15</title>
<g id="a_node15"><a xlink:href="struct_property_r.html" target="_top" xlink:title=" ">
<polygon fill="white" stroke="black" points="395,-138 395,-157 491,-157 491,-138 395,-138"/>
<text text-anchor="middle" x="443" y="-145" font-family="Helvetica,sans-Serif" font-size="10.00">PropertyR&lt; bool &gt;</text>
</a>
</g>
</g>
<!-- Node15&#45;&gt;Node14 -->
<g id="edge14" class="edge"><title>Node15&#45;&gt;Node14</title>
<path fill="none" stroke="midnightblue" d="M500.996,-144.733C531.278,-143.263 568.237,-141.469 597.77,-140.035"/>
<polygon fill="midnightblue" stroke="midnightblue" points="500.821,-141.237 491.002,-145.218 501.16,-148.229 500.821,-141.237"/>
</g>
<!-- Node16 -->
<g id="node16" class="node"><title>Node16</title>
<g id="a_node16"><a xlink:title=" ">
<polygon fill="white" stroke="#bfbfbf" points="197,-137 197,-156 303,-156 303,-137 197,-137"/>
<text text-anchor="middle" x="250" y="-144" font-family="Helvetica,sans-Serif" font-size="10.00">function&lt; bool(void)&gt;</text>
</a>
</g>
</g>
<!-- Node16&#45;&gt;Node15 -->
<g id="edge15" class="edge"><title>Node16&#45;&gt;Node15</title>
<path fill="none" stroke="#9a32cd" stroke-dasharray="5,2" d="M313.497,-146.827C339.944,-146.966 370.24,-147.124 394.771,-147.253"/>
<polygon fill="#9a32cd" stroke="#9a32cd" points="313.21,-143.326 303.192,-146.773 313.173,-150.326 313.21,-143.326"/>
<text text-anchor="middle" x="347" y="-150.5" font-family="Helvetica,sans-Serif" font-size="10.00"> getter_</text>
</g>
<!-- Node17 -->
<g id="node17" class="node"><title>Node17</title>
<g id="a_node17"><a xlink:title=" ">
<polygon fill="white" stroke="#bfbfbf" points="394.5,-88.5 394.5,-118.5 491.5,-118.5 491.5,-88.5 394.5,-88.5"/>
<text text-anchor="start" x="402.5" y="-106.5" font-family="Helvetica,sans-Serif" font-size="10.00">function&lt; void(bool</text>
<text text-anchor="middle" x="443" y="-95.5" font-family="Helvetica,sans-Serif" font-size="10.00"> newValue)&gt;</text>
</a>
</g>
</g>
<!-- Node17&#45;&gt;Node14 -->
<g id="edge16" class="edge"><title>Node17&#45;&gt;Node14</title>
<path fill="none" stroke="#9a32cd" stroke-dasharray="5,2" d="M501.475,-112.986C531.629,-117.963 568.298,-124.015 597.657,-128.861"/>
<polygon fill="#9a32cd" stroke="#9a32cd" points="501.956,-109.518 491.519,-111.343 500.816,-116.425 501.956,-109.518"/>
<text text-anchor="middle" x="542.5" y="-126.5" font-family="Helvetica,sans-Serif" font-size="10.00"> setter_</text>
</g>
<!-- Node18&#45;&gt;Node1 -->
<g id="edge17" class="edge"><title>Node18&#45;&gt;Node1</title>
<path fill="none" stroke="#9a32cd" stroke-dasharray="5,2" d="M731.093,-204.457C755.491,-201.519 781.557,-195.185 803,-182.5 816.99,-174.224 827.132,-157.76 832.535,-147.206"/>
<polygon fill="#9a32cd" stroke="#9a32cd" points="730.707,-200.978 721.119,-205.485 731.425,-207.941 730.707,-200.978"/>
<text text-anchor="middle" x="771" y="-206.5" font-family="Helvetica,sans-Serif" font-size="10.00"> Manager</text>
</g>
<!-- Node19 -->
<g id="node19" class="node"><title>Node19</title>
<g id="a_node19"><a xlink:href="struct_property_r_w.html" target="_top" xlink:title=" ">
<polygon fill="white" stroke="black" points="590,-50 590,-69 712,-69 712,-50 590,-50"/>
<text text-anchor="middle" x="651" y="-57" font-family="Helvetica,sans-Serif" font-size="10.00">PropertyRW&lt; uint32_t &gt;</text>
</a>
</g>
</g>
<!-- Node19&#45;&gt;Node1 -->
<g id="edge19" class="edge"><title>Node19&#45;&gt;Node1</title>
<path fill="none" stroke="#9a32cd" stroke-dasharray="5,2" d="M722.438,-55.4394C749.548,-57.03 779.585,-62.9379 803,-78.5 820.526,-90.148 830.117,-114.122 834.335,-127.65"/>
<polygon fill="#9a32cd" stroke="#9a32cd" points="722.343,-51.9329 712.211,-55.0301 722.063,-58.9273 722.343,-51.9329"/>
<text text-anchor="middle" x="771" y="-125.5" font-family="Helvetica,sans-Serif" font-size="10.00"> BottomMargin</text>
<text text-anchor="middle" x="771" y="-114.5" font-family="Helvetica,sans-Serif" font-size="10.00">LeftMargin</text>
<text text-anchor="middle" x="771" y="-103.5" font-family="Helvetica,sans-Serif" font-size="10.00">Margins</text>
<text text-anchor="middle" x="771" y="-92.5" font-family="Helvetica,sans-Serif" font-size="10.00">RightMargin</text>
<text text-anchor="middle" x="771" y="-81.5" font-family="Helvetica,sans-Serif" font-size="10.00">TopMargin</text>
</g>
<!-- Node20 -->
<g id="node20" class="node"><title>Node20</title>
<g id="a_node20"><a xlink:href="struct_property_r.html" target="_top" xlink:title=" ">
<polygon fill="white" stroke="black" points="386.5,-50 386.5,-69 499.5,-69 499.5,-50 386.5,-50"/>
<text text-anchor="middle" x="443" y="-57" font-family="Helvetica,sans-Serif" font-size="10.00">PropertyR&lt; uint32_t &gt;</text>
</a>
</g>
</g>
<!-- Node20&#45;&gt;Node19 -->
<g id="edge20" class="edge"><title>Node20&#45;&gt;Node19</title>
<path fill="none" stroke="midnightblue" d="M509.774,-59.5C535.473,-59.5 564.745,-59.5 589.873,-59.5"/>
<polygon fill="midnightblue" stroke="midnightblue" points="509.747,-56.0001 499.747,-59.5 509.747,-63.0001 509.747,-56.0001"/>
</g>
<!-- Node21 -->
<g id="node21" class="node"><title>Node21</title>
<g id="a_node21"><a xlink:title=" ">
<polygon fill="white" stroke="#bfbfbf" points="203,-44.5 203,-74.5 297,-74.5 297,-44.5 203,-44.5"/>
<text text-anchor="start" x="211" y="-62.5" font-family="Helvetica,sans-Serif" font-size="10.00">function&lt; uint32_t</text>
<text text-anchor="middle" x="250" y="-51.5" font-family="Helvetica,sans-Serif" font-size="10.00">(void)&gt;</text>
</a>
</g>
</g>
<!-- Node21&#45;&gt;Node20 -->
<g id="edge21" class="edge"><title>Node21&#45;&gt;Node20</title>
<path fill="none" stroke="#9a32cd" stroke-dasharray="5,2" d="M307.273,-59.5C332.208,-59.5 361.461,-59.5 386.326,-59.5"/>
<polygon fill="#9a32cd" stroke="#9a32cd" points="307.236,-56.0001 297.236,-59.5 307.236,-63.0001 307.236,-56.0001"/>
<text text-anchor="middle" x="347" y="-62.5" font-family="Helvetica,sans-Serif" font-size="10.00"> getter_</text>
</g>
<!-- Node22 -->
<g id="node22" class="node"><title>Node22</title>
<g id="a_node22"><a xlink:title=" ">
<polygon fill="white" stroke="#bfbfbf" points="390.5,-0.5 390.5,-30.5 495.5,-30.5 495.5,-0.5 390.5,-0.5"/>
<text text-anchor="start" x="398.5" y="-18.5" font-family="Helvetica,sans-Serif" font-size="10.00">function&lt; void(uint32</text>
<text text-anchor="middle" x="443" y="-7.5" font-family="Helvetica,sans-Serif" font-size="10.00">_t newValue)&gt;</text>
</a>
</g>
</g>
<!-- Node22&#45;&gt;Node19 -->
<g id="edge22" class="edge"><title>Node22&#45;&gt;Node19</title>
<path fill="none" stroke="#9a32cd" stroke-dasharray="5,2" d="M505.86,-28.7128C537.848,-35.5453 576.172,-43.7308 605.259,-49.9437"/>
<polygon fill="#9a32cd" stroke="#9a32cd" points="506.227,-25.2124 495.717,-26.5463 504.765,-32.0579 506.227,-25.2124"/>
<text text-anchor="middle" x="542.5" y="-43.5" font-family="Helvetica,sans-Serif" font-size="10.00"> setter_</text>
</g>
<!-- Node23 -->
<g id="node23" class="node"><title>Node23</title>
<g id="a_node23"><a xlink:title=" ">
<polygon fill="white" stroke="#bfbfbf" points="590.5,-12 590.5,-31 711.5,-31 711.5,-12 590.5,-12"/>
<text text-anchor="middle" x="651" y="-19" font-family="Helvetica,sans-Serif" font-size="10.00">unique_ptr&lt; Edit::Impl &gt;</text>
</a>
</g>
</g>
<!-- Node23&#45;&gt;Node1 -->
<g id="edge23" class="edge"><title>Node23&#45;&gt;Node1</title>
<path fill="none" stroke="#9a32cd" stroke-dasharray="5,2" d="M721.967,-16.3137C749.861,-17.7795 780.595,-24.2833 803,-42.5 829.64,-64.1598 835.418,-108.34 836.663,-127.86"/>
<polygon fill="#9a32cd" stroke="#9a32cd" points="721.946,-12.8114 711.839,-15.9893 721.722,-19.8078 721.946,-12.8114"/>
<text text-anchor="middle" x="771" y="-45.5" font-family="Helvetica,sans-Serif" font-size="10.00"> pImpl_</text>
</g>
</g>
</svg>
