<?xml version="1.0" encoding="UTF-8" standalone="no"?>
<!DOCTYPE svg PUBLIC "-//W3C//DTD SVG 1.1//EN"
 "http://www.w3.org/Graphics/SVG/1.1/DTD/svg11.dtd">
<!-- Generated by graphviz version 2.38.0 (20140413.2041)
 -->
<!-- Title: outputbuf::flushMsg Pages: 1 -->
<svg width="253pt" height="66pt"
 viewBox="0.00 0.00 253.00 66.00" xmlns="http://www.w3.org/2000/svg" xmlns:xlink="http://www.w3.org/1999/xlink">
<g id="graph0" class="graph" transform="scale(1 1) rotate(0) translate(4 62)">
<title>outputbuf::flushMsg</title>
<polygon fill="white" stroke="none" points="-4,4 -4,-62 249,-62 249,4 -4,4"/>
<!-- Node1 -->
<g id="node1" class="node"><title>Node1</title>
<g id="a_node1"><a xlink:title=" ">
<polygon fill="#bfbfbf" stroke="black" points="144,-19.5 144,-38.5 245,-38.5 245,-19.5 144,-19.5"/>
<text text-anchor="middle" x="194.5" y="-26.5" font-family="Helvetica,sans-Serif" font-size="10.00">outputbuf::flushMsg</text>
</a>
</g>
</g>
<!-- Node2 -->
<g id="node2" class="node"><title>Node2</title>
<g id="a_node2"><a xlink:href="classoutputbuf.html#a7525670600d2f14b79000875633aa6d8" target="_top" xlink:title=" ">
<polygon fill="white" stroke="black" points="6,-38.5 6,-57.5 102,-57.5 102,-38.5 6,-38.5"/>
<text text-anchor="middle" x="54" y="-45.5" font-family="Helvetica,sans-Serif" font-size="10.00">outputbuf::overflow</text>
</a>
</g>
</g>
<!-- Node1&#45;&gt;Node2 -->
<g id="edge1" class="edge"><title>Node1&#45;&gt;Node2</title>
<path fill="none" stroke="midnightblue" d="M133.918,-37.1737C123.387,-38.6184 112.551,-40.1049 102.411,-41.496"/>
<polygon fill="midnightblue" stroke="midnightblue" points="134.458,-40.6325 143.89,-35.8058 133.507,-33.6974 134.458,-40.6325"/>
</g>
<!-- Node3 -->
<g id="node3" class="node"><title>Node3</title>
<g id="a_node3"><a xlink:href="classoutputbuf.html#ab37c9e3806825271abd4f04d0f045e54" target="_top" xlink:title=" ">
<polygon fill="white" stroke="black" points="0,-0.5 0,-19.5 108,-19.5 108,-0.5 0,-0.5"/>
<text text-anchor="middle" x="54" y="-7.5" font-family="Helvetica,sans-Serif" font-size="10.00">outputbuf::~outputbuf</text>
</a>
</g>
</g>
<!-- Node1&#45;&gt;Node3 -->
<g id="edge2" class="edge"><title>Node1&#45;&gt;Node3</title>
<path fill="none" stroke="midnightblue" d="M133.907,-20.8248C125.296,-19.6435 116.482,-18.4343 108.011,-17.2723"/>
<polygon fill="midnightblue" stroke="midnightblue" points="133.507,-24.3026 143.89,-22.1942 134.458,-17.3675 133.507,-24.3026"/>
</g>
</g>
</svg>
