<?xml version="1.0" encoding="UTF-8" standalone="no"?>
<!DOCTYPE svg PUBLIC "-//W3C//DTD SVG 1.1//EN"
 "http://www.w3.org/Graphics/SVG/1.1/DTD/svg11.dtd">
<!-- Generated by graphviz version 2.38.0 (20140413.2041)
 -->
<!-- Title: output_stream&lt; Elem &gt; Pages: 1 -->
<svg width="292pt" height="174pt"
 viewBox="0.00 0.00 291.50 174.00" xmlns="http://www.w3.org/2000/svg" xmlns:xlink="http://www.w3.org/1999/xlink">
<g id="graph0" class="graph" transform="scale(1 1) rotate(0) translate(4 170)">
<title>output_stream&lt; Elem &gt;</title>
<polygon fill="white" stroke="none" points="-4,4 -4,-170 287.5,-170 287.5,4 -4,4"/>
<!-- Node1 -->
<g id="node1" class="node"><title>Node1</title>
<g id="a_node1"><a xlink:title=" ">
<polygon fill="#bfbfbf" stroke="black" points="144,-0.5 144,-19.5 263,-19.5 263,-0.5 144,-0.5"/>
<text text-anchor="middle" x="203.5" y="-7.5" font-family="Helvetica,sans-Serif" font-size="10.00">output_stream&lt; Elem &gt;</text>
</a>
</g>
</g>
<!-- Node2 -->
<g id="node2" class="node"><title>Node2</title>
<g id="a_node2"><a xlink:href="classoutputbuf.html" target="_top" xlink:title=" ">
<polygon fill="white" stroke="black" points="68,-63 68,-82 165,-82 165,-63 68,-63"/>
<text text-anchor="middle" x="116.5" y="-70" font-family="Helvetica,sans-Serif" font-size="10.00">outputbuf&lt; Elem &gt;</text>
</a>
</g>
</g>
<!-- Node2&#45;&gt;Node1 -->
<g id="edge1" class="edge"><title>Node2&#45;&gt;Node1</title>
<path fill="none" stroke="#8b1a1a" d="M137.537,-56.8709C154.27,-45.235 177.113,-29.3493 191.058,-19.6521"/>
<polygon fill="#8b1a1a" stroke="#8b1a1a" points="135.177,-54.249 128.965,-62.8318 139.173,-59.996 135.177,-54.249"/>
</g>
<!-- Node3 -->
<g id="node3" class="node"><title>Node3</title>
<g id="a_node3"><a xlink:title=" ">
<polygon fill="white" stroke="#bfbfbf" points="0,-135.5 0,-165.5 107,-165.5 107,-135.5 0,-135.5"/>
<text text-anchor="start" x="8" y="-153.5" font-family="Helvetica,sans-Serif" font-size="10.00">std::basic_streambuf</text>
<text text-anchor="middle" x="53.5" y="-142.5" font-family="Helvetica,sans-Serif" font-size="10.00">&lt; Elem &gt;</text>
</a>
</g>
</g>
<!-- Node3&#45;&gt;Node2 -->
<g id="edge2" class="edge"><title>Node3&#45;&gt;Node2</title>
<path fill="none" stroke="midnightblue" d="M71.9087,-127.293C84.4563,-112.156 100.375,-92.9523 109.401,-82.0635"/>
<polygon fill="midnightblue" stroke="midnightblue" points="69.0372,-125.272 65.3498,-135.205 74.4263,-129.74 69.0372,-125.272"/>
</g>
<!-- Node4 -->
<g id="node4" class="node"><title>Node4</title>
<g id="a_node4"><a xlink:title=" ">
<polygon fill="white" stroke="#bfbfbf" points="125.5,-141 125.5,-160 235.5,-160 235.5,-141 125.5,-141"/>
<text text-anchor="middle" x="180.5" y="-148" font-family="Helvetica,sans-Serif" font-size="10.00">basic_string&lt; Elem &gt;</text>
</a>
</g>
</g>
<!-- Node4&#45;&gt;Node2 -->
<g id="edge3" class="edge"><title>Node4&#45;&gt;Node2</title>
<path fill="none" stroke="#9a32cd" stroke-dasharray="5,2" d="M166.557,-132.942C153.377,-117.292 134.124,-94.4282 123.756,-82.1165"/>
<polygon fill="#9a32cd" stroke="#9a32cd" points="164.04,-135.387 173.158,-140.782 169.394,-130.878 164.04,-135.387"/>
<text text-anchor="middle" x="163.5" y="-109" font-family="Helvetica,sans-Serif" font-size="10.00"> msg</text>
</g>
<!-- Node5 -->
<g id="node5" class="node"><title>Node5</title>
<g id="a_node5"><a xlink:title=" ">
<polygon fill="white" stroke="#bfbfbf" points="183.5,-57.5 183.5,-87.5 283.5,-87.5 283.5,-57.5 183.5,-57.5"/>
<text text-anchor="start" x="191.5" y="-75.5" font-family="Helvetica,sans-Serif" font-size="10.00">std::basic_ostream</text>
<text text-anchor="middle" x="233.5" y="-64.5" font-family="Helvetica,sans-Serif" font-size="10.00">&lt; Elem &gt;</text>
</a>
</g>
</g>
<!-- Node5&#45;&gt;Node1 -->
<g id="edge4" class="edge"><title>Node5&#45;&gt;Node1</title>
<path fill="none" stroke="midnightblue" d="M221.992,-48.2916C216.989,-38.2022 211.437,-27.0063 207.735,-19.5399"/>
<polygon fill="midnightblue" stroke="midnightblue" points="218.964,-50.0639 226.542,-57.468 225.235,-46.9541 218.964,-50.0639"/>
</g>
</g>
</svg>
