<?xml version="1.0" encoding="UTF-8" standalone="no"?>
<!DOCTYPE svg PUBLIC "-//W3C//DTD SVG 1.1//EN"
 "http://www.w3.org/Graphics/SVG/1.1/DTD/svg11.dtd">
<!-- Generated by graphviz version 2.38.0 (20140413.2041)
 -->
<!-- Title: Property Pages: 1 -->
<svg width="623pt" height="233pt"
 viewBox="0.00 0.00 623.00 232.50" xmlns="http://www.w3.org/2000/svg" xmlns:xlink="http://www.w3.org/1999/xlink">
<g id="graph0" class="graph" transform="scale(1 1) rotate(0) translate(4 228.5)">
<title>Property</title>
<polygon fill="white" stroke="none" points="-4,4 -4,-228.5 619,-228.5 619,4 -4,4"/>
<!-- Node1 -->
<g id="node1" class="node"><title>Node1</title>
<g id="a_node1"><a xlink:title=" ">
<polygon fill="#bfbfbf" stroke="black" points="562,-129 562,-148 615,-148 615,-129 562,-129"/>
<text text-anchor="middle" x="588.5" y="-136" font-family="Helvetica,sans-Serif" font-size="10.00">Property</text>
</a>
</g>
</g>
<!-- Node2 -->
<g id="node2" class="node"><title>Node2</title>
<g id="a_node2"><a xlink:href="class_serialize.html" target="_top" xlink:title="Serialize is the interface for objects which can be persisted in a simple string, as JSON or XML stru...">
<polygon fill="white" stroke="black" points="403.5,-205 403.5,-224 457.5,-224 457.5,-205 403.5,-205"/>
<text text-anchor="middle" x="430.5" y="-212" font-family="Helvetica,sans-Serif" font-size="10.00">Serialize</text>
</a>
</g>
</g>
<!-- Node2&#45;&gt;Node1 -->
<g id="edge1" class="edge"><title>Node2&#45;&gt;Node1</title>
<path fill="none" stroke="midnightblue" d="M467.499,-205.673C490.416,-199.116 520.163,-188.82 544,-174.5 556.605,-166.928 569.373,-155.87 577.785,-148.01"/>
<polygon fill="midnightblue" stroke="midnightblue" points="466.527,-202.31 457.815,-208.339 468.385,-209.059 466.527,-202.31"/>
</g>
<!-- Node3 -->
<g id="node3" class="node"><title>Node3</title>
<g id="a_node3"><a xlink:href="struct_value_ptr.html" target="_top" xlink:title="ValuePtr is the smart pointer for thread&#45;wide used values.">
<polygon fill="white" stroke="black" points="403.5,-167 403.5,-186 457.5,-186 457.5,-167 403.5,-167"/>
<text text-anchor="middle" x="430.5" y="-174" font-family="Helvetica,sans-Serif" font-size="10.00">ValuePtr</text>
</a>
</g>
</g>
<!-- Node3&#45;&gt;Node1 -->
<g id="edge2" class="edge"><title>Node3&#45;&gt;Node1</title>
<path fill="none" stroke="#9a32cd" stroke-dasharray="5,2" d="M467.582,-169.768C489.76,-165.392 518.681,-159.257 544,-152.5 549.826,-150.945 556.026,-149.08 561.866,-147.225"/>
<polygon fill="#9a32cd" stroke="#9a32cd" points="466.742,-166.366 457.594,-171.711 468.078,-173.237 466.742,-166.366"/>
<text text-anchor="middle" x="527.5" y="-162.5" font-family="Helvetica,sans-Serif" font-size="10.00"> value_</text>
</g>
<!-- Node4 -->
<g id="node4" class="node"><title>Node4</title>
<g id="a_node4"><a xlink:title=" ">
<polygon fill="white" stroke="#bfbfbf" points="182.5,-176.5 182.5,-206.5 297.5,-206.5 297.5,-176.5 182.5,-176.5"/>
<text text-anchor="start" x="190.5" y="-194.5" font-family="Helvetica,sans-Serif" font-size="10.00">std::shared_ptr&lt; const</text>
<text text-anchor="middle" x="240" y="-183.5" font-family="Helvetica,sans-Serif" font-size="10.00"> Value &gt;</text>
</a>
</g>
</g>
<!-- Node4&#45;&gt;Node3 -->
<g id="edge3" class="edge"><title>Node4&#45;&gt;Node3</title>
<path fill="none" stroke="midnightblue" d="M307.639,-186.197C340.706,-183.566 378.747,-180.539 403.407,-178.576"/>
<polygon fill="midnightblue" stroke="midnightblue" points="307.247,-182.717 297.556,-187 307.802,-189.695 307.247,-182.717"/>
</g>
<!-- Node5 -->
<g id="node5" class="node"><title>Node5</title>
<g id="a_node5"><a xlink:href="struct_property_r_w.html" target="_top" xlink:title=" ">
<polygon fill="white" stroke="black" points="368,-129 368,-148 493,-148 493,-129 368,-129"/>
<text text-anchor="middle" x="430.5" y="-136" font-family="Helvetica,sans-Serif" font-size="10.00">PropertyRW&lt; ValuePtr &gt;</text>
</a>
</g>
</g>
<!-- Node5&#45;&gt;Node1 -->
<g id="edge4" class="edge"><title>Node5&#45;&gt;Node1</title>
<path fill="none" stroke="#9a32cd" stroke-dasharray="5,2" d="M503.316,-138.5C524.164,-138.5 545.604,-138.5 561.63,-138.5"/>
<polygon fill="#9a32cd" stroke="#9a32cd" points="503.155,-135 493.155,-138.5 503.155,-142 503.155,-135"/>
<text text-anchor="middle" x="527.5" y="-141.5" font-family="Helvetica,sans-Serif" font-size="10.00"> Value</text>
</g>
<!-- Node6 -->
<g id="node6" class="node"><title>Node6</title>
<g id="a_node6"><a xlink:href="struct_property_r.html" target="_top" xlink:title=" ">
<polygon fill="white" stroke="black" points="182,-138 182,-157 298,-157 298,-138 182,-138"/>
<text text-anchor="middle" x="240" y="-145" font-family="Helvetica,sans-Serif" font-size="10.00">PropertyR&lt; ValuePtr &gt;</text>
</a>
</g>
</g>
<!-- Node6&#45;&gt;Node5 -->
<g id="edge5" class="edge"><title>Node6&#45;&gt;Node5</title>
<path fill="none" stroke="midnightblue" d="M308.056,-144.298C327.489,-143.371 348.609,-142.362 367.704,-141.45"/>
<polygon fill="midnightblue" stroke="midnightblue" points="307.889,-140.802 298.068,-144.775 308.223,-147.794 307.889,-140.802"/>
</g>
<!-- Node7 -->
<g id="node7" class="node"><title>Node7</title>
<g id="a_node7"><a xlink:title=" ">
<polygon fill="white" stroke="#bfbfbf" points="7.5,-132.5 7.5,-162.5 104.5,-162.5 104.5,-132.5 7.5,-132.5"/>
<text text-anchor="start" x="15.5" y="-150.5" font-family="Helvetica,sans-Serif" font-size="10.00">function&lt; ValuePtr</text>
<text text-anchor="middle" x="56" y="-139.5" font-family="Helvetica,sans-Serif" font-size="10.00">(void)&gt;</text>
</a>
</g>
</g>
<!-- Node7&#45;&gt;Node6 -->
<g id="edge6" class="edge"><title>Node7&#45;&gt;Node6</title>
<path fill="none" stroke="#9a32cd" stroke-dasharray="5,2" d="M115.045,-147.5C136.386,-147.5 160.522,-147.5 181.789,-147.5"/>
<polygon fill="#9a32cd" stroke="#9a32cd" points="114.818,-144 104.818,-147.5 114.818,-151 114.818,-144"/>
<text text-anchor="middle" x="147" y="-150.5" font-family="Helvetica,sans-Serif" font-size="10.00"> getter_</text>
</g>
<!-- Node8 -->
<g id="node8" class="node"><title>Node8</title>
<g id="a_node8"><a xlink:title=" ">
<polygon fill="white" stroke="#bfbfbf" points="182,-88.5 182,-118.5 298,-118.5 298,-88.5 182,-88.5"/>
<text text-anchor="start" x="190" y="-106.5" font-family="Helvetica,sans-Serif" font-size="10.00">function&lt; void(ValuePtr</text>
<text text-anchor="middle" x="240" y="-95.5" font-family="Helvetica,sans-Serif" font-size="10.00"> newValue)&gt;</text>
</a>
</g>
</g>
<!-- Node8&#45;&gt;Node5 -->
<g id="edge7" class="edge"><title>Node8&#45;&gt;Node5</title>
<path fill="none" stroke="#9a32cd" stroke-dasharray="5,2" d="M308.11,-115.961C331.126,-120.234 356.502,-124.946 378.076,-128.952"/>
<polygon fill="#9a32cd" stroke="#9a32cd" points="308.539,-112.481 298.068,-114.096 307.261,-119.363 308.539,-112.481"/>
<text text-anchor="middle" x="333" y="-126.5" font-family="Helvetica,sans-Serif" font-size="10.00"> setter_</text>
</g>
<!-- Node9 -->
<g id="node9" class="node"><title>Node9</title>
<g id="a_node9"><a xlink:title=" ">
<polygon fill="white" stroke="#bfbfbf" points="410,-91 410,-110 451,-110 451,-91 410,-91"/>
<text text-anchor="middle" x="430.5" y="-98" font-family="Helvetica,sans-Serif" font-size="10.00">string</text>
</a>
</g>
</g>
<!-- Node9&#45;&gt;Node1 -->
<g id="edge8" class="edge"><title>Node9&#45;&gt;Node1</title>
<path fill="none" stroke="#9a32cd" stroke-dasharray="5,2" d="M461.278,-105.494C484.1,-109.584 516.277,-115.921 544,-123.5 549.856,-125.101 556.069,-127.073 561.911,-129.056"/>
<polygon fill="#9a32cd" stroke="#9a32cd" points="461.648,-102.005 451.193,-103.723 460.438,-108.9 461.648,-102.005"/>
<text text-anchor="middle" x="527.5" y="-126.5" font-family="Helvetica,sans-Serif" font-size="10.00"> name_</text>
</g>
<!-- Node10 -->
<g id="node10" class="node"><title>Node10</title>
<g id="a_node10"><a xlink:href="struct_property_r_w.html" target="_top" xlink:title=" ">
<polygon fill="white" stroke="black" points="374.5,-50 374.5,-69 486.5,-69 486.5,-50 374.5,-50"/>
<text text-anchor="middle" x="430.5" y="-57" font-family="Helvetica,sans-Serif" font-size="10.00">PropertyRW&lt; string &gt;</text>
</a>
</g>
</g>
<!-- Node10&#45;&gt;Node1 -->
<g id="edge9" class="edge"><title>Node10&#45;&gt;Node1</title>
<path fill="none" stroke="#9a32cd" stroke-dasharray="5,2" d="M476.485,-72.1266C497.783,-79.1292 523.074,-88.977 544,-101.5 556.931,-109.239 569.842,-120.832 578.198,-128.974"/>
<polygon fill="#9a32cd" stroke="#9a32cd" points="477.29,-68.71 466.7,-69.0143 475.169,-75.3807 477.29,-68.71"/>
<text text-anchor="middle" x="527.5" y="-104.5" font-family="Helvetica,sans-Serif" font-size="10.00"> Name</text>
</g>
<!-- Node11 -->
<g id="node11" class="node"><title>Node11</title>
<g id="a_node11"><a xlink:href="struct_property_r.html" target="_top" xlink:title=" ">
<polygon fill="white" stroke="black" points="189,-50 189,-69 291,-69 291,-50 189,-50"/>
<text text-anchor="middle" x="240" y="-57" font-family="Helvetica,sans-Serif" font-size="10.00">PropertyR&lt; string &gt;</text>
</a>
</g>
</g>
<!-- Node11&#45;&gt;Node10 -->
<g id="edge10" class="edge"><title>Node11&#45;&gt;Node10</title>
<path fill="none" stroke="midnightblue" d="M301.191,-59.5C324.632,-59.5 351.322,-59.5 374.266,-59.5"/>
<polygon fill="midnightblue" stroke="midnightblue" points="301.02,-56.0001 291.02,-59.5 301.02,-63.0001 301.02,-56.0001"/>
</g>
<!-- Node12 -->
<g id="node12" class="node"><title>Node12</title>
<g id="a_node12"><a xlink:title=" ">
<polygon fill="white" stroke="#bfbfbf" points="0,-50 0,-69 112,-69 112,-50 0,-50"/>
<text text-anchor="middle" x="56" y="-57" font-family="Helvetica,sans-Serif" font-size="10.00">function&lt; string(void)&gt;</text>
</a>
</g>
</g>
<!-- Node12&#45;&gt;Node11 -->
<g id="edge11" class="edge"><title>Node12&#45;&gt;Node11</title>
<path fill="none" stroke="#9a32cd" stroke-dasharray="5,2" d="M122.306,-59.5C144.175,-59.5 168.2,-59.5 188.738,-59.5"/>
<polygon fill="#9a32cd" stroke="#9a32cd" points="122.1,-56.0001 112.1,-59.5 122.1,-63.0001 122.1,-56.0001"/>
<text text-anchor="middle" x="147" y="-62.5" font-family="Helvetica,sans-Serif" font-size="10.00"> getter_</text>
</g>
<!-- Node13 -->
<g id="node13" class="node"><title>Node13</title>
<g id="a_node13"><a xlink:title=" ">
<polygon fill="white" stroke="#bfbfbf" points="188.5,-0.5 188.5,-30.5 291.5,-30.5 291.5,-0.5 188.5,-0.5"/>
<text text-anchor="start" x="196.5" y="-18.5" font-family="Helvetica,sans-Serif" font-size="10.00">function&lt; void(string</text>
<text text-anchor="middle" x="240" y="-7.5" font-family="Helvetica,sans-Serif" font-size="10.00"> newValue)&gt;</text>
</a>
</g>
</g>
<!-- Node13&#45;&gt;Node10 -->
<g id="edge12" class="edge"><title>Node13&#45;&gt;Node10</title>
<path fill="none" stroke="#9a32cd" stroke-dasharray="5,2" d="M301.382,-29.5944C329.899,-36.2509 363.187,-44.021 388.684,-49.9726"/>
<polygon fill="#9a32cd" stroke="#9a32cd" points="302.048,-26.156 291.515,-27.2912 300.457,-32.9728 302.048,-26.156"/>
<text text-anchor="middle" x="333" y="-43.5" font-family="Helvetica,sans-Serif" font-size="10.00"> setter_</text>
</g>
</g>
</svg>
