<?xml version="1.0" encoding="UTF-8" standalone="no"?>
<!DOCTYPE svg PUBLIC "-//W3C//DTD SVG 1.1//EN"
 "http://www.w3.org/Graphics/SVG/1.1/DTD/svg11.dtd">
<!-- Generated by graphviz version 2.38.0 (20140413.2041)
 -->
<!-- Title: Serialize Pages: 1 -->
<svg width="183pt" height="84pt"
 viewBox="0.00 0.00 183.00 84.00" xmlns="http://www.w3.org/2000/svg" xmlns:xlink="http://www.w3.org/1999/xlink">
<g id="graph0" class="graph" transform="scale(1 1) rotate(0) translate(4 80)">
<title>Serialize</title>
<polygon fill="white" stroke="none" points="-4,4 -4,-80 179,-80 179,4 -4,4"/>
<!-- Node1 -->
<g id="node1" class="node"><title>Node1</title>
<g id="a_node1"><a xlink:title="Serialize is the interface for objects which can be persisted in a simple string, as JSON or XML stru...">
<polygon fill="#bfbfbf" stroke="black" points="62.5,-56.5 62.5,-75.5 116.5,-75.5 116.5,-56.5 62.5,-56.5"/>
<text text-anchor="middle" x="89.5" y="-63.5" font-family="Helvetica,sans-Serif" font-size="10.00">Serialize</text>
</a>
</g>
</g>
<!-- Node2 -->
<g id="node2" class="node"><title>Node2</title>
<g id="a_node2"><a xlink:href="class_object.html" target="_top" xlink:title=" ">
<polygon fill="white" stroke="black" points="0,-0.5 0,-19.5 45,-19.5 45,-0.5 0,-0.5"/>
<text text-anchor="middle" x="22.5" y="-7.5" font-family="Helvetica,sans-Serif" font-size="10.00">Object</text>
</a>
</g>
</g>
<!-- Node1&#45;&gt;Node2 -->
<g id="edge1" class="edge"><title>Node1&#45;&gt;Node2</title>
<path fill="none" stroke="midnightblue" d="M70.6652,-49.8197C58.6616,-40.1452 43.5283,-27.9481 33.4606,-19.8339"/>
<polygon fill="midnightblue" stroke="midnightblue" points="68.753,-52.7738 78.7353,-56.324 73.1457,-47.3236 68.753,-52.7738"/>
</g>
<!-- Node3 -->
<g id="node3" class="node"><title>Node3</title>
<g id="a_node3"><a xlink:href="class_property.html" target="_top" xlink:title=" ">
<polygon fill="white" stroke="black" points="63,-0.5 63,-19.5 116,-19.5 116,-0.5 63,-0.5"/>
<text text-anchor="middle" x="89.5" y="-7.5" font-family="Helvetica,sans-Serif" font-size="10.00">Property</text>
</a>
</g>
</g>
<!-- Node1&#45;&gt;Node3 -->
<g id="edge2" class="edge"><title>Node1&#45;&gt;Node3</title>
<path fill="none" stroke="midnightblue" d="M89.5,-45.8045C89.5,-36.9102 89.5,-26.7798 89.5,-19.7511"/>
<polygon fill="midnightblue" stroke="midnightblue" points="86.0001,-46.083 89.5,-56.083 93.0001,-46.083 86.0001,-46.083"/>
</g>
<!-- Node4 -->
<g id="node4" class="node"><title>Node4</title>
<g id="a_node4"><a xlink:href="class_value.html" target="_top" xlink:title="Value is the base class for all value types in the system.">
<polygon fill="white" stroke="black" points="134,-0.5 134,-19.5 175,-19.5 175,-0.5 134,-0.5"/>
<text text-anchor="middle" x="154.5" y="-7.5" font-family="Helvetica,sans-Serif" font-size="10.00">Value</text>
</a>
</g>
</g>
<!-- Node1&#45;&gt;Node4 -->
<g id="edge3" class="edge"><title>Node1&#45;&gt;Node4</title>
<path fill="none" stroke="midnightblue" d="M107.773,-49.8197C119.418,-40.1452 134.099,-27.9481 143.867,-19.8339"/>
<polygon fill="midnightblue" stroke="midnightblue" points="105.399,-47.2416 99.9434,-56.324 109.872,-52.6259 105.399,-47.2416"/>
</g>
</g>
</svg>
