<?xml version="1.0" encoding="UTF-8" standalone="no"?>
<!DOCTYPE svg PUBLIC "-//W3C//DTD SVG 1.1//EN"
 "http://www.w3.org/Graphics/SVG/1.1/DTD/svg11.dtd">
<!-- Generated by graphviz version 2.38.0 (20140413.2041)
 -->
<!-- Title: Thread::call Pages: 1 -->
<!--zoomable 208 -->
<svg id="main" version="1.1" xmlns="http://www.w3.org/2000/svg" xmlns:xlink="http://www.w3.org/1999/xlink" xml:space="preserve" onload="init(evt)">
<style type="text/css"><![CDATA[
.edge:hover path { stroke: red; }
.edge:hover polygon { stroke: red; fill: red; }
]]></style>
<script type="text/javascript"><![CDATA[
var edges = document.getElementsByTagName('g');
if (edges && edges.length) {
  for (var i=0;i<edges.length;i++) {
    if (edges[i].id.substr(0,4)=='edge') {
      edges[i].setAttribute('class','edge');
    }
  }
}
]]></script>
        <defs>
                <circle id="rim" cx="0" cy="0" r="7"/>
                <circle id="rim2" cx="0" cy="0" r="3.5"/>
                <g id="zoomPlus">
                        <use xlink:href="#rim" fill="#404040">
                                <set attributeName="fill" to="#808080" begin="zoomplus.mouseover" end="zoomplus.mouseout"/>
                        </use>
                        <path d="M-4,0h8M0,-4v8" fill="none" stroke="white" stroke-width="1.5" pointer-events="none"/>
                </g>
                <g id="zoomMin">
                        <use xlink:href="#rim" fill="#404040">
                                <set attributeName="fill" to="#808080" begin="zoomminus.mouseover" end="zoomminus.mouseout"/>
                        </use>
                        <path d="M-4,0h8" fill="none" stroke="white" stroke-width="1.5" pointer-events="none"/>
                </g>
                <g id="dirArrow">
                        <path fill="none" stroke="white" stroke-width="1.5" d="M0,-3.0v7 M-2.5,-0.5L0,-3.0L2.5,-0.5"/>
                </g>
               <g id="resetDef">
                       <use xlink:href="#rim2" fill="#404040">
                               <set attributeName="fill" to="#808080" begin="reset.mouseover" end="reset.mouseout"/>
                       </use>
               </g>
        </defs>

<script type="text/javascript">
var viewWidth = 939;
var viewHeight = 208;
var sectionId = 'dynsection-3';
</script>
<script xlink:href="svgpan.js"/>
<svg id="graph" class="graph">
<g id="viewport">
<title>Thread::call</title>
<polygon fill="white" stroke="none" points="-4,4 -4,-204 935,-204 935,4 -4,4"/>
<!-- Node1 -->
<g id="node1" class="node"><title>Node1</title>
<g id="a_node1"><a xlink:title=" ">
<polygon fill="#bfbfbf" stroke="black" points="864,-66.5 864,-85.5 931,-85.5 931,-66.5 864,-66.5"/>
<text text-anchor="middle" x="897.5" y="-73.5" font-family="Helvetica,sans-Serif" font-size="10.00">Thread::call</text>
</a>
</g>
</g>
<!-- Node2 -->
<g id="node2" class="node"><title>Node2</title>
<g id="a_node2"><a xlink:href="class_edit.html#a3ced1bcf14de542e25d512991bcfed2f" target="_top" xlink:title=" ">
<polygon fill="white" stroke="black" points="772,-66.5 772,-85.5 828,-85.5 828,-66.5 772,-66.5"/>
<text text-anchor="middle" x="800" y="-73.5" font-family="Helvetica,sans-Serif" font-size="10.00">Edit::add</text>
</a>
</g>
</g>
<!-- Node1&#45;&gt;Node2 -->
<g id="edge1" class="edge"><title>Node1&#45;&gt;Node2</title>
<path fill="none" stroke="midnightblue" d="M853.805,-76C845.055,-76 836.075,-76 828.059,-76"/>
<polygon fill="midnightblue" stroke="midnightblue" points="853.901,-79.5001 863.901,-76 853.901,-72.5001 853.901,-79.5001"/>
</g>
<!-- Node10 -->
<g id="node10" class="node"><title>Node10</title>
<g id="a_node10"><a xlink:href="main_8cpp.html#a6e6bef72e348d49296a2aa278ce80ca6" target="_top" xlink:title="Thread&#45;Test&#45;Button event handler.">
<polygon fill="white" stroke="black" points="614,-0.5 614,-19.5 724,-19.5 724,-0.5 614,-0.5"/>
<text text-anchor="middle" x="669" y="-7.5" font-family="Helvetica,sans-Serif" font-size="10.00">OnThreadTestClicked</text>
</a>
</g>
</g>
<!-- Node1&#45;&gt;Node10 -->
<g id="edge17" class="edge"><title>Node1&#45;&gt;Node10</title>
<path fill="none" stroke="midnightblue" d="M853.752,-63.5438C809.829,-50.7448 742.41,-31.0995 702.607,-19.5015"/>
<polygon fill="midnightblue" stroke="midnightblue" points="852.985,-66.9657 863.565,-66.403 854.943,-60.2452 852.985,-66.9657"/>
</g>
<!-- Node14 -->
<g id="node14" class="node"><title>Node14</title>
<g id="a_node14"><a xlink:href="main_8cpp.html#abdf0523e10fae27868b24d21a841e926" target="_top" xlink:title="All the magic is here :&#45;)">
<polygon fill="white" stroke="black" points="193,-152.5 193,-171.5 276,-171.5 276,-152.5 193,-152.5"/>
<text text-anchor="middle" x="234.5" y="-159.5" font-family="Helvetica,sans-Serif" font-size="10.00">OnStartClicked</text>
</a>
</g>
</g>
<!-- Node1&#45;&gt;Node14 -->
<g id="edge16" class="edge"><title>Node1&#45;&gt;Node14</title>
<path fill="none" stroke="midnightblue" d="M879.63,-93.1034C844.191,-127.116 757.986,-200 670,-200 670,-200 670,-200 514.5,-200 428.086,-200 406.334,-194.62 321,-181 305.384,-178.507 288.345,-174.904 273.616,-171.504"/>
<polygon fill="midnightblue" stroke="midnightblue" points="882.46,-95.2305 887.15,-85.7301 877.559,-90.2325 882.46,-95.2305"/>
</g>
<!-- Node3 -->
<g id="node3" class="node"><title>Node3</title>
<g id="a_node3"><a xlink:href="output_8hpp.html#ad715e61f7587d83c205d24cfc114282a" target="_top" xlink:title=" ">
<polygon fill="white" stroke="black" points="650.5,-76.5 650.5,-95.5 687.5,-95.5 687.5,-76.5 650.5,-76.5"/>
<text text-anchor="middle" x="669" y="-83.5" font-family="Helvetica,sans-Serif" font-size="10.00">flush</text>
</a>
</g>
</g>
<!-- Node2&#45;&gt;Node3 -->
<g id="edge2" class="edge"><title>Node2&#45;&gt;Node3</title>
<path fill="none" stroke="midnightblue" d="M761.924,-78.8741C737.463,-80.7703 706.537,-83.1677 687.519,-84.6419"/>
<polygon fill="midnightblue" stroke="midnightblue" points="762.258,-82.3588 771.957,-78.0963 761.717,-75.3798 762.258,-82.3588"/>
</g>
<!-- Node7 -->
<g id="node7" class="node"><title>Node7</title>
<g id="a_node7"><a xlink:href="main_8cpp.html#a1870be22060f25a2595afa09934e9784" target="_top" xlink:title=" ">
<polygon fill="white" stroke="black" points="184,-38.5 184,-57.5 285,-57.5 285,-38.5 184,-38.5"/>
<text text-anchor="middle" x="234.5" y="-45.5" font-family="Helvetica,sans-Serif" font-size="10.00">OnStartTestClicked</text>
</a>
</g>
</g>
<!-- Node2&#45;&gt;Node7 -->
<g id="edge6" class="edge"><title>Node2&#45;&gt;Node7</title>
<path fill="none" stroke="midnightblue" d="M761.788,-70.0303C753.329,-68.8556 744.371,-67.7547 736,-67 571.453,-52.1639 375.459,-48.8841 285.336,-48.1791"/>
<polygon fill="midnightblue" stroke="midnightblue" points="761.384,-73.5083 771.783,-71.4814 762.39,-66.5809 761.384,-73.5083"/>
</g>
<!-- Node2&#45;&gt;Node10 -->
<g id="edge9" class="edge"><title>Node2&#45;&gt;Node10</title>
<path fill="none" stroke="midnightblue" d="M778.169,-60.2734C766.249,-51.7533 750.768,-41.4718 736,-34 724.903,-28.3857 712.171,-23.4352 700.869,-19.5109"/>
<polygon fill="midnightblue" stroke="midnightblue" points="776.379,-63.3001 786.519,-66.3698 780.506,-57.6465 776.379,-63.3001"/>
</g>
<!-- Node11 -->
<g id="node11" class="node"><title>Node11</title>
<g id="a_node11"><a xlink:href="struct_thread_1_1_impl.html#a0164f5b95922ac969d1d81914e5d5eb9" target="_top" xlink:title="The normally used processing loop of a background thread.">
<polygon fill="white" stroke="black" points="602,-123.5 602,-142.5 736,-142.5 736,-123.5 602,-123.5"/>
<text text-anchor="middle" x="669" y="-130.5" font-family="Helvetica,sans-Serif" font-size="10.00">Thread::Impl::standardLoop</text>
</a>
</g>
</g>
<!-- Node2&#45;&gt;Node11 -->
<g id="edge11" class="edge"><title>Node2&#45;&gt;Node11</title>
<path fill="none" stroke="midnightblue" d="M769.448,-89.8263C758.921,-94.6921 746.961,-100.154 736,-105 721.77,-111.292 705.701,-118.115 692.982,-123.451"/>
<polygon fill="midnightblue" stroke="midnightblue" points="771.044,-92.9441 778.642,-85.56 768.098,-86.5944 771.044,-92.9441"/>
</g>
<!-- Node4 -->
<g id="node4" class="node"><title>Node4</title>
<g id="a_node4"><a xlink:href="classoutputbuf.html#ae4bacbf184222fca04c7e3f09309e1c2" target="_top" xlink:title=" ">
<polygon fill="white" stroke="black" points="465,-76.5 465,-95.5 566,-95.5 566,-76.5 465,-76.5"/>
<text text-anchor="middle" x="515.5" y="-83.5" font-family="Helvetica,sans-Serif" font-size="10.00">outputbuf::flushMsg</text>
</a>
</g>
</g>
<!-- Node3&#45;&gt;Node4 -->
<g id="edge3" class="edge"><title>Node3&#45;&gt;Node4</title>
<path fill="none" stroke="midnightblue" d="M640.308,-86C619.608,-86 590.75,-86 566.103,-86"/>
<polygon fill="midnightblue" stroke="midnightblue" points="640.325,-89.5001 650.325,-86 640.324,-82.5001 640.325,-89.5001"/>
</g>
<!-- Node5 -->
<g id="node5" class="node"><title>Node5</title>
<g id="a_node5"><a xlink:href="classoutputbuf.html#a7525670600d2f14b79000875633aa6d8" target="_top" xlink:title=" ">
<polygon fill="white" stroke="black" points="327,-114.5 327,-133.5 423,-133.5 423,-114.5 327,-114.5"/>
<text text-anchor="middle" x="375" y="-121.5" font-family="Helvetica,sans-Serif" font-size="10.00">outputbuf::overflow</text>
</a>
</g>
</g>
<!-- Node4&#45;&gt;Node5 -->
<g id="edge4" class="edge"><title>Node4&#45;&gt;Node5</title>
<path fill="none" stroke="midnightblue" d="M469.866,-98.2462C450.775,-103.484 428.816,-109.509 410.938,-114.414"/>
<polygon fill="midnightblue" stroke="midnightblue" points="470.833,-101.61 479.551,-95.589 468.981,-94.8597 470.833,-101.61"/>
</g>
<!-- Node6 -->
<g id="node6" class="node"><title>Node6</title>
<g id="a_node6"><a xlink:href="classoutputbuf.html#ab37c9e3806825271abd4f04d0f045e54" target="_top" xlink:title=" ">
<polygon fill="white" stroke="black" points="321,-76.5 321,-95.5 429,-95.5 429,-76.5 321,-76.5"/>
<text text-anchor="middle" x="375" y="-83.5" font-family="Helvetica,sans-Serif" font-size="10.00">outputbuf::~outputbuf</text>
</a>
</g>
</g>
<!-- Node4&#45;&gt;Node6 -->
<g id="edge5" class="edge"><title>Node4&#45;&gt;Node6</title>
<path fill="none" stroke="midnightblue" d="M454.626,-86C446.104,-86 437.39,-86 429.011,-86"/>
<polygon fill="midnightblue" stroke="midnightblue" points="454.89,-89.5001 464.89,-86 454.889,-82.5001 454.89,-89.5001"/>
</g>
<!-- Node8 -->
<g id="node8" class="node"><title>Node8</title>
<g id="a_node8"><a xlink:href="main_8cpp.html#a30a1e3b0304f1b083637664cbda94e72" target="_top" xlink:title="The declaration of the main message processing function.">
<polygon fill="white" stroke="black" points="91,-38.5 91,-57.5 148,-57.5 148,-38.5 91,-38.5"/>
<text text-anchor="middle" x="119.5" y="-45.5" font-family="Helvetica,sans-Serif" font-size="10.00">WndProc</text>
</a>
</g>
</g>
<!-- Node7&#45;&gt;Node8 -->
<g id="edge7" class="edge"><title>Node7&#45;&gt;Node8</title>
<path fill="none" stroke="midnightblue" d="M173.865,-48C164.941,-48 156.123,-48 148.302,-48"/>
<polygon fill="midnightblue" stroke="midnightblue" points="173.937,-51.5001 183.937,-48 173.937,-44.5001 173.937,-51.5001"/>
</g>
<!-- Node9 -->
<g id="node9" class="node"><title>Node9</title>
<g id="a_node9"><a xlink:href="main_8cpp.html#a946cd7d17bf6760d82ded70909de9a6d" target="_top" xlink:title="The beginning of everything.">
<polygon fill="white" stroke="black" points="0,-38.5 0,-57.5 55,-57.5 55,-38.5 0,-38.5"/>
<text text-anchor="middle" x="27.5" y="-45.5" font-family="Helvetica,sans-Serif" font-size="10.00">WinMain</text>
</a>
</g>
</g>
<!-- Node8&#45;&gt;Node9 -->
<g id="edge8" class="edge"><title>Node8&#45;&gt;Node9</title>
<path fill="none" stroke="midnightblue" d="M80.4282,-48C71.9523,-48 63.1405,-48 55.2346,-48"/>
<polygon fill="midnightblue" stroke="midnightblue" points="80.5168,-51.5001 90.5168,-48 80.5167,-44.5001 80.5168,-51.5001"/>
</g>
<!-- Node10&#45;&gt;Node8 -->
<g id="edge10" class="edge"><title>Node10&#45;&gt;Node8</title>
<path fill="none" stroke="midnightblue" d="M603.715,-7.42504C510.506,-4.84077 332.713,-4.23945 184,-29 171.627,-31.06 158.279,-34.8103 147.029,-38.438"/>
<polygon fill="midnightblue" stroke="midnightblue" points="603.736,-10.9271 613.834,-7.7228 603.942,-3.93011 603.736,-10.9271"/>
</g>
<!-- Node12 -->
<g id="node12" class="node"><title>Node12</title>
<g id="a_node12"><a xlink:href="class_thread.html#a1f53ee62bd30a7924186ef26150ce262" target="_top" xlink:title="The most normal way to start a new thread.">
<polygon fill="white" stroke="black" points="480,-133.5 480,-152.5 551,-152.5 551,-133.5 480,-133.5"/>
<text text-anchor="middle" x="515.5" y="-140.5" font-family="Helvetica,sans-Serif" font-size="10.00">Thread::start</text>
</a>
</g>
</g>
<!-- Node11&#45;&gt;Node12 -->
<g id="edge12" class="edge"><title>Node11&#45;&gt;Node12</title>
<path fill="none" stroke="midnightblue" d="M591.659,-138.039C577.439,-138.978 563.245,-139.914 551.085,-140.717"/>
<polygon fill="midnightblue" stroke="midnightblue" points="592.243,-141.508 601.991,-137.357 591.782,-134.523 592.243,-141.508"/>
</g>
<!-- Node13 -->
<g id="node13" class="node"><title>Node13</title>
<g id="a_node13"><a xlink:href="class_thread.html#ada9adb041744058adc9abb1744e86c5d" target="_top" xlink:title=" ">
<polygon fill="white" stroke="black" points="339.5,-152.5 339.5,-171.5 410.5,-171.5 410.5,-152.5 339.5,-152.5"/>
<text text-anchor="middle" x="375" y="-159.5" font-family="Helvetica,sans-Serif" font-size="10.00">Thread::start</text>
</a>
</g>
</g>
<!-- Node12&#45;&gt;Node13 -->
<g id="edge13" class="edge"><title>Node12&#45;&gt;Node13</title>
<path fill="none" stroke="midnightblue" d="M469.877,-149.122C450.674,-151.756 428.567,-154.789 410.631,-157.249"/>
<polygon fill="midnightblue" stroke="midnightblue" points="470.476,-152.572 479.908,-147.745 469.525,-145.637 470.476,-152.572"/>
</g>
<!-- Node13&#45;&gt;Node14 -->
<g id="edge14" class="edge"><title>Node13&#45;&gt;Node14</title>
<path fill="none" stroke="midnightblue" d="M329.111,-162C312.033,-162 292.689,-162 276.037,-162"/>
<polygon fill="midnightblue" stroke="midnightblue" points="329.408,-165.5 339.408,-162 329.408,-158.5 329.408,-165.5"/>
</g>
<!-- Node14&#45;&gt;Node8 -->
<g id="edge15" class="edge"><title>Node14&#45;&gt;Node8</title>
<path fill="none" stroke="midnightblue" d="M216.816,-145.168C192.824,-120.964 149.354,-77.1088 130.11,-57.695"/>
<polygon fill="midnightblue" stroke="midnightblue" points="214.34,-147.642 223.866,-152.28 219.312,-142.714 214.34,-147.642"/>
</g>
</g>
</svg>
        <g id="navigator" transform="translate(0 0)" fill="#404254">
                <rect fill="#f2f5e9" fill-opacity="0.5" stroke="#606060" stroke-width=".5" x="0" y="0" width="60" height="60"/>
                <use id="zoomplus" xlink:href="#zoomPlus" x="17" y="9" onmousedown="handleZoom(evt,'in')"/>
                <use id="zoomminus" xlink:href="#zoomMin" x="42" y="9" onmousedown="handleZoom(evt,'out')"/>
                <use id="reset" xlink:href="#resetDef" x="30" y="36" onmousedown="handleReset()"/>
                <g id="arrowUp" xlink:href="#dirArrow" transform="translate(30 24)" onmousedown="handlePan(0,-1)">
                  <use xlink:href="#rim" fill="#404040">
                        <set attributeName="fill" to="#808080" begin="arrowUp.mouseover" end="arrowUp.mouseout"/>
                  </use>
                  <path fill="none" stroke="white" stroke-width="1.5" d="M0,-3.0v7 M-2.5,-0.5L0,-3.0L2.5,-0.5"/>
                </g>
                <g id="arrowRight" xlink:href="#dirArrow" transform="rotate(90) translate(36 -43)" onmousedown="handlePan(1,0)">
                  <use xlink:href="#rim" fill="#404040">
                        <set attributeName="fill" to="#808080" begin="arrowRight.mouseover" end="arrowRight.mouseout"/>
                  </use>
                  <path fill="none" stroke="white" stroke-width="1.5" d="M0,-3.0v7 M-2.5,-0.5L0,-3.0L2.5,-0.5"/>
                </g>
                <g id="arrowDown" xlink:href="#dirArrow" transform="rotate(180) translate(-30 -48)" onmousedown="handlePan(0,1)">
                  <use xlink:href="#rim" fill="#404040">
                        <set attributeName="fill" to="#808080" begin="arrowDown.mouseover" end="arrowDown.mouseout"/>
                  </use>
                  <path fill="none" stroke="white" stroke-width="1.5" d="M0,-3.0v7 M-2.5,-0.5L0,-3.0L2.5,-0.5"/>
                </g>
                <g id="arrowLeft" xlink:href="#dirArrow" transform="rotate(270) translate(-36 17)" onmousedown="handlePan(-1,0)">
                  <use xlink:href="#rim" fill="#404040">
                        <set attributeName="fill" to="#808080" begin="arrowLeft.mouseover" end="arrowLeft.mouseout"/>
                  </use>
                  <path fill="none" stroke="white" stroke-width="1.5" d="M0,-3.0v7 M-2.5,-0.5L0,-3.0L2.5,-0.5"/>
                </g>
        </g>
        <svg viewBox="0 0 15 15" width="100%" height="30px" preserveAspectRatio="xMaxYMin meet">
         <g id="arrow_out" transform="scale(0.3 0.3)">
          <a xlink:href="class_thread_adb11ad65376e640d84d47f0394f94f10_icgraph_org.svg" target="_base">
           <rect id="button" ry="5" rx="5" y="6" x="6" height="38" width="38"
                fill="#f2f5e9" fill-opacity="0.5" stroke="#606060" stroke-width="1.0"/>
           <path id="arrow"
             d="M 11.500037,31.436501 C 11.940474,20.09759 22.043105,11.32322 32.158766,21.979434 L 37.068811,17.246167 C 37.068811,17.246167 37.088388,32 37.088388,32 L 22.160133,31.978069 C 22.160133,31.978069 26.997745,27.140456 26.997745,27.140456 C 18.528582,18.264221 13.291696,25.230495 11.500037,31.436501 z"
             style="fill:#404040;"/>
          </a>
         </g>
        </svg>
</svg>
