<?xml version="1.0" encoding="UTF-8" standalone="no"?>
<!DOCTYPE svg PUBLIC "-//W3C//DTD SVG 1.1//EN"
 "http://www.w3.org/Graphics/SVG/1.1/DTD/svg11.dtd">
<!-- Generated by graphviz version 2.38.0 (20140413.2041)
 -->
<!-- Title: src Pages: 1 -->
<svg width="166pt" height="292pt"
 viewBox="0.00 0.00 166.00 292.00" xmlns="http://www.w3.org/2000/svg" xmlns:xlink="http://www.w3.org/1999/xlink">
<g id="graph0" class="graph" transform="scale(1 1) rotate(0) translate(4 288)">
<title>src</title>
<polygon fill="white" stroke="none" points="-4,4 -4,-288 162,-288 162,4 -4,4"/>
<g id="clust1" class="cluster"><title>clusterdir_68267d1309a1af8e8297ef4c3efbcdba</title>
<g id="a_clust1"><a xlink:href="dir_68267d1309a1af8e8297ef4c3efbcdba.html" target="_top">
<polygon fill="#eeeeff" stroke="black" points="8,-8 8,-276 150,-276 150,-8 8,-8"/>
</a>
</g>
</g>
<!-- dir_68267d1309a1af8e8297ef4c3efbcdba -->
<g id="node1" class="node"><title>dir_68267d1309a1af8e8297ef4c3efbcdba</title>
<text text-anchor="middle" x="115" y="-247.5" font-family="Helvetica,sans-Serif" font-size="10.00">src</text>
</g>
<!-- dir_d8df8133fd423ab0135c9b11e904375e -->
<g id="node4" class="node"><title>dir_d8df8133fd423ab0135c9b11e904375e</title>
<g id="a_node4"><a xlink:href="dir_d8df8133fd423ab0135c9b11e904375e.html" target="_top" xlink:title="Test">
<polygon fill="white" stroke="black" points="142,-196 88,-196 88,-160 142,-160 142,-196"/>
<text text-anchor="middle" x="115" y="-175.5" font-family="Helvetica,sans-Serif" font-size="10.00">Test</text>
</a>
</g>
</g>
<!-- dir_68267d1309a1af8e8297ef4c3efbcdba&#45;&gt;dir_d8df8133fd423ab0135c9b11e904375e -->
<g id="edge2" class="edge"><title>dir_68267d1309a1af8e8297ef4c3efbcdba&#45;&gt;dir_d8df8133fd423ab0135c9b11e904375e</title>
<path fill="none" stroke="black" d="M115,-231.697C115,-223.983 115,-214.712 115,-206.112"/>
<polygon fill="black" stroke="black" points="118.5,-206.104 115,-196.104 111.5,-206.104 118.5,-206.104"/>
<g id="a_edge2&#45;headlabel"><a xlink:href="dir_000000_000003.html" target="_top" xlink:title="1">
<text text-anchor="middle" x="121.339" y="-207.199" font-family="Helvetica,sans-Serif" font-size="10.00">1</text>
</a>
</g>
</g>
<!-- dir_4814b1a558d470c33d85e65dbde02eaa -->
<g id="node2" class="node"><title>dir_4814b1a558d470c33d85e65dbde02eaa</title>
<g id="a_node2"><a xlink:href="dir_4814b1a558d470c33d85e65dbde02eaa.html" target="_top" xlink:title="Base">
<polygon fill="white" stroke="black" points="142,-124 88,-124 88,-88 142,-88 142,-124"/>
<text text-anchor="middle" x="115" y="-103.5" font-family="Helvetica,sans-Serif" font-size="10.00">Base</text>
</a>
</g>
</g>
<!-- dir_00ea2a5550464bf32f448b3dc22902e9 -->
<g id="node3" class="node"><title>dir_00ea2a5550464bf32f448b3dc22902e9</title>
<g id="a_node3"><a xlink:href="dir_00ea2a5550464bf32f448b3dc22902e9.html" target="_top" xlink:title="Controls">
<polygon fill="white" stroke="black" points="142,-52 88,-52 88,-16 142,-16 142,-52"/>
<text text-anchor="middle" x="115" y="-31.5" font-family="Helvetica,sans-Serif" font-size="10.00">Controls</text>
</a>
</g>
</g>
<!-- dir_4814b1a558d470c33d85e65dbde02eaa&#45;&gt;dir_00ea2a5550464bf32f448b3dc22902e9 -->
<g id="edge4" class="edge"><title>dir_4814b1a558d470c33d85e65dbde02eaa&#45;&gt;dir_00ea2a5550464bf32f448b3dc22902e9</title>
<path fill="none" stroke="black" d="M109.084,-87.6966C108.289,-79.9827 108.062,-70.7125 108.405,-62.1124"/>
<polygon fill="black" stroke="black" points="111.898,-62.3243 109.105,-52.1043 104.915,-61.8356 111.898,-62.3243"/>
<g id="a_edge4&#45;headlabel"><a xlink:href="dir_000001_000002.html" target="_top" xlink:title="1">
<text text-anchor="middle" x="114.48" y="-63.6083" font-family="Helvetica,sans-Serif" font-size="10.00">1</text>
</a>
</g>
</g>
<!-- dir_00ea2a5550464bf32f448b3dc22902e9&#45;&gt;dir_4814b1a558d470c33d85e65dbde02eaa -->
<g id="edge3" class="edge"><title>dir_00ea2a5550464bf32f448b3dc22902e9&#45;&gt;dir_4814b1a558d470c33d85e65dbde02eaa</title>
<path fill="none" stroke="black" d="M120.895,-52.1043C121.701,-59.7913 121.937,-69.0537 121.604,-77.6651"/>
<polygon fill="black" stroke="black" points="118.109,-77.4805 120.916,-87.6966 125.092,-77.9597 118.109,-77.4805"/>
<g id="a_edge3&#45;headlabel"><a xlink:href="dir_000002_000001.html" target="_top" xlink:title="2">
<text text-anchor="middle" x="115.522" y="-71.2" font-family="Helvetica,sans-Serif" font-size="10.00">2</text>
</a>
</g>
</g>
<!-- dir_d8df8133fd423ab0135c9b11e904375e&#45;&gt;dir_4814b1a558d470c33d85e65dbde02eaa -->
<g id="edge1" class="edge"><title>dir_d8df8133fd423ab0135c9b11e904375e&#45;&gt;dir_4814b1a558d470c33d85e65dbde02eaa</title>
<path fill="none" stroke="black" d="M115,-159.697C115,-151.983 115,-142.712 115,-134.112"/>
<polygon fill="black" stroke="black" points="118.5,-134.104 115,-124.104 111.5,-134.104 118.5,-134.104"/>
<g id="a_edge1&#45;headlabel"><a xlink:href="dir_000003_000001.html" target="_top" xlink:title="2">
<text text-anchor="middle" x="121.339" y="-135.199" font-family="Helvetica,sans-Serif" font-size="10.00">2</text>
</a>
</g>
</g>
<!-- dir_3aec98192bf1179f5a0cb056cdd4aba6 -->
<g id="node5" class="node"><title>dir_3aec98192bf1179f5a0cb056cdd4aba6</title>
<g id="a_node5"><a xlink:href="dir_3aec98192bf1179f5a0cb056cdd4aba6.html" target="_top" xlink:title="x64">
<polygon fill="white" stroke="red" points="70,-268 16,-268 16,-232 70,-232 70,-268"/>
<text text-anchor="middle" x="43" y="-247.5" font-family="Helvetica,sans-Serif" font-size="10.00">x64</text>
</a>
</g>
</g>
</g>
</svg>
