<?xml version="1.0" encoding="UTF-8" standalone="no"?>
<!DOCTYPE svg PUBLIC "-//W3C//DTD SVG 1.1//EN"
 "http://www.w3.org/Graphics/SVG/1.1/DTD/svg11.dtd">
<!-- Generated by graphviz version 2.38.0 (20140413.2041)
 -->
<!-- Title: Graphical Class Hierarchy Pages: 1 -->
<svg width="151pt" height="104pt"
 viewBox="0.00 0.00 151.00 104.00" xmlns="http://www.w3.org/2000/svg" xmlns:xlink="http://www.w3.org/1999/xlink">
<g id="graph0" class="graph" transform="scale(1 1) rotate(0) translate(4 100)">
<title>Graphical Class Hierarchy</title>
<polygon fill="white" stroke="none" points="-4,4 -4,-100 147,-100 147,4 -4,4"/>
<!-- Node0 -->
<g id="node1" class="node"><title>Node0</title>
<g id="a_node1"><a xlink:href="class_serialize.html" target="_top" xlink:title="Serialize is the interface for objects which can be persisted in a simple string, as JSON or XML stru...">
<polygon fill="white" stroke="black" points="0,-38.5 0,-57.5 54,-57.5 54,-38.5 0,-38.5"/>
<text text-anchor="middle" x="27" y="-45.5" font-family="Helvetica,sans-Serif" font-size="10.00">Serialize</text>
</a>
</g>
</g>
<!-- Node1 -->
<g id="node2" class="node"><title>Node1</title>
<g id="a_node2"><a xlink:href="class_object.html" target="_top" xlink:title=" ">
<polygon fill="white" stroke="black" points="94,-76.5 94,-95.5 139,-95.5 139,-76.5 94,-76.5"/>
<text text-anchor="middle" x="116.5" y="-83.5" font-family="Helvetica,sans-Serif" font-size="10.00">Object</text>
</a>
</g>
</g>
<!-- Node0&#45;&gt;Node1 -->
<g id="edge1" class="edge"><title>Node0&#45;&gt;Node1</title>
<path fill="none" stroke="midnightblue" d="M59.2932,-61.5902C70.6969,-66.5426 83.3324,-72.0301 93.7302,-76.5457"/>
<polygon fill="midnightblue" stroke="midnightblue" points="60.6465,-58.3622 50.0799,-57.589 57.8581,-64.7828 60.6465,-58.3622"/>
</g>
<!-- Node2 -->
<g id="node3" class="node"><title>Node2</title>
<g id="a_node3"><a xlink:href="class_property.html" target="_top" xlink:title=" ">
<polygon fill="white" stroke="black" points="90,-38.5 90,-57.5 143,-57.5 143,-38.5 90,-38.5"/>
<text text-anchor="middle" x="116.5" y="-45.5" font-family="Helvetica,sans-Serif" font-size="10.00">Property</text>
</a>
</g>
</g>
<!-- Node0&#45;&gt;Node2 -->
<g id="edge2" class="edge"><title>Node0&#45;&gt;Node2</title>
<path fill="none" stroke="midnightblue" d="M64.4053,-48C72.9602,-48 81.9008,-48 89.8678,-48"/>
<polygon fill="midnightblue" stroke="midnightblue" points="64.2529,-44.5001 54.2529,-48 64.2529,-51.5001 64.2529,-44.5001"/>
</g>
<!-- Node3 -->
<g id="node4" class="node"><title>Node3</title>
<g id="a_node4"><a xlink:href="class_value.html" target="_top" xlink:title="Value is the base class for all value types in the system.">
<polygon fill="white" stroke="black" points="96,-0.5 96,-19.5 137,-19.5 137,-0.5 96,-0.5"/>
<text text-anchor="middle" x="116.5" y="-7.5" font-family="Helvetica,sans-Serif" font-size="10.00">Value</text>
</a>
</g>
</g>
<!-- Node0&#45;&gt;Node3 -->
<g id="edge3" class="edge"><title>Node0&#45;&gt;Node3</title>
<path fill="none" stroke="midnightblue" d="M59.441,-34.3456C71.5808,-29.0735 85.097,-23.2036 95.8156,-18.5487"/>
<polygon fill="midnightblue" stroke="midnightblue" points="57.8581,-31.2172 50.0799,-38.411 60.6465,-37.6378 57.8581,-31.2172"/>
</g>
</g>
</svg>
