<?xml version="1.0" encoding="UTF-8" standalone="no"?>
<!DOCTYPE svg PUBLIC "-//W3C//DTD SVG 1.1//EN"
 "http://www.w3.org/Graphics/SVG/1.1/DTD/svg11.dtd">
<!-- Generated by graphviz version 2.38.0 (20140413.2041)
 -->
<!-- Title: Graphical Class Hierarchy Pages: 1 -->
<svg width="179pt" height="104pt"
 viewBox="0.00 0.00 179.00 104.00" xmlns="http://www.w3.org/2000/svg" xmlns:xlink="http://www.w3.org/1999/xlink">
<g id="graph0" class="graph" transform="scale(1 1) rotate(0) translate(4 100)">
<title>Graphical Class Hierarchy</title>
<polygon fill="white" stroke="none" points="-4,4 -4,-100 175,-100 175,4 -4,4"/>
<!-- Node0 -->
<g id="node1" class="node"><title>Node0</title>
<g id="a_node1"><a xlink:href="class_test_case.html" target="_top" xlink:title=" ">
<polygon fill="white" stroke="black" points="0,-38.5 0,-57.5 58,-57.5 58,-38.5 0,-38.5"/>
<text text-anchor="middle" x="29" y="-45.5" font-family="Helvetica,sans-Serif" font-size="10.00">TestCase</text>
</a>
</g>
</g>
<!-- Node1 -->
<g id="node2" class="node"><title>Node1</title>
<g id="a_node2"><a xlink:href="class_base_tests.html" target="_top" xlink:title=" ">
<polygon fill="white" stroke="black" points="101,-76.5 101,-95.5 164,-95.5 164,-76.5 101,-76.5"/>
<text text-anchor="middle" x="132.5" y="-83.5" font-family="Helvetica,sans-Serif" font-size="10.00">BaseTests</text>
</a>
</g>
</g>
<!-- Node0&#45;&gt;Node1 -->
<g id="edge1" class="edge"><title>Node0&#45;&gt;Node1</title>
<path fill="none" stroke="midnightblue" d="M65.0389,-61.118C78.4634,-66.1439 93.5152,-71.7791 105.895,-76.4141"/>
<polygon fill="midnightblue" stroke="midnightblue" points="66.2051,-57.8174 55.6127,-57.589 63.7507,-64.3731 66.2051,-57.8174"/>
</g>
<!-- Node2 -->
<g id="node3" class="node"><title>Node2</title>
<g id="a_node3"><a xlink:href="class_property_tests.html" target="_top" xlink:title=" ">
<polygon fill="white" stroke="black" points="94,-38.5 94,-57.5 171,-57.5 171,-38.5 94,-38.5"/>
<text text-anchor="middle" x="132.5" y="-45.5" font-family="Helvetica,sans-Serif" font-size="10.00">PropertyTests</text>
</a>
</g>
</g>
<!-- Node0&#45;&gt;Node2 -->
<g id="edge2" class="edge"><title>Node0&#45;&gt;Node2</title>
<path fill="none" stroke="midnightblue" d="M68.2334,-48C76.5702,-48 85.3878,-48 93.7074,-48"/>
<polygon fill="midnightblue" stroke="midnightblue" points="68.004,-44.5001 58.004,-48 68.004,-51.5001 68.004,-44.5001"/>
</g>
<!-- Node3 -->
<g id="node4" class="node"><title>Node3</title>
<g id="a_node4"><a xlink:href="class_value_tests.html" target="_top" xlink:title=" ">
<polygon fill="white" stroke="black" points="100,-0.5 100,-19.5 165,-19.5 165,-0.5 100,-0.5"/>
<text text-anchor="middle" x="132.5" y="-7.5" font-family="Helvetica,sans-Serif" font-size="10.00">ValueTests</text>
</a>
</g>
</g>
<!-- Node0&#45;&gt;Node3 -->
<g id="edge3" class="edge"><title>Node0&#45;&gt;Node3</title>
<path fill="none" stroke="midnightblue" d="M65.0389,-34.882C78.4634,-29.8561 93.5152,-24.2209 105.895,-19.5859"/>
<polygon fill="midnightblue" stroke="midnightblue" points="63.7507,-31.6269 55.6127,-38.411 66.2051,-38.1826 63.7507,-31.6269"/>
</g>
</g>
</svg>
