<?xml version="1.0" encoding="UTF-8" standalone="no"?>
<!DOCTYPE svg PUBLIC "-//W3C//DTD SVG 1.1//EN"
 "http://www.w3.org/Graphics/SVG/1.1/DTD/svg11.dtd">
<!-- Generated by graphviz version 2.38.0 (20140413.2041)
 -->
<!-- Title: Graphical Class Hierarchy Pages: 1 -->
<svg width="384pt" height="66pt"
 viewBox="0.00 0.00 384.00 66.00" xmlns="http://www.w3.org/2000/svg" xmlns:xlink="http://www.w3.org/1999/xlink">
<g id="graph0" class="graph" transform="scale(1 1) rotate(0) translate(4 62)">
<title>Graphical Class Hierarchy</title>
<polygon fill="white" stroke="none" points="-4,4 -4,-62 380,-62 380,4 -4,4"/>
<!-- Node61 -->
<g id="node1" class="node"><title>Node61</title>
<g id="a_node1"><a xlink:title=" ">
<polygon fill="white" stroke="#bfbfbf" points="132.5,-38.5 132.5,-57.5 212.5,-57.5 212.5,-38.5 132.5,-38.5"/>
<text text-anchor="middle" x="172.5" y="-45.5" font-family="Helvetica,sans-Serif" font-size="10.00">basic_ostream</text>
</a>
</g>
</g>
<!-- Node1 -->
<g id="node2" class="node"><title>Node1</title>
<g id="a_node2"><a xlink:href="classoutput__stream.html" target="_top" xlink:title=" ">
<polygon fill="white" stroke="black" points="257,-19.5 257,-38.5 376,-38.5 376,-19.5 257,-19.5"/>
<text text-anchor="middle" x="316.5" y="-26.5" font-family="Helvetica,sans-Serif" font-size="10.00">output_stream&lt; Elem &gt;</text>
</a>
</g>
</g>
<!-- Node61&#45;&gt;Node1 -->
<g id="edge1" class="edge"><title>Node61&#45;&gt;Node1</title>
<path fill="none" stroke="midnightblue" d="M222.888,-41.3918C233.818,-39.9293 245.503,-38.3657 256.765,-36.859"/>
<polygon fill="midnightblue" stroke="midnightblue" points="222.125,-37.9625 212.678,-42.7579 223.054,-44.9007 222.125,-37.9625"/>
</g>
<!-- Node58 -->
<g id="node3" class="node"><title>Node58</title>
<g id="a_node3"><a xlink:title=" ">
<polygon fill="white" stroke="#bfbfbf" points="0,-0.5 0,-19.5 88,-19.5 88,-0.5 0,-0.5"/>
<text text-anchor="middle" x="44" y="-7.5" font-family="Helvetica,sans-Serif" font-size="10.00">basic_streambuf</text>
</a>
</g>
</g>
<!-- Node0 -->
<g id="node4" class="node"><title>Node0</title>
<g id="a_node4"><a xlink:href="classoutputbuf.html" target="_top" xlink:title=" ">
<polygon fill="white" stroke="black" points="124,-0.5 124,-19.5 221,-19.5 221,-0.5 124,-0.5"/>
<text text-anchor="middle" x="172.5" y="-7.5" font-family="Helvetica,sans-Serif" font-size="10.00">outputbuf&lt; Elem &gt;</text>
</a>
</g>
</g>
<!-- Node58&#45;&gt;Node0 -->
<g id="edge2" class="edge"><title>Node58&#45;&gt;Node0</title>
<path fill="none" stroke="midnightblue" d="M98.3149,-10C106.756,-10 115.44,-10 123.743,-10"/>
<polygon fill="midnightblue" stroke="midnightblue" points="98.1804,-6.5001 88.1803,-10 98.1803,-13.5001 98.1804,-6.5001"/>
</g>
<!-- Node0&#45;&gt;Node1 -->
<g id="edge3" class="edge"><title>Node0&#45;&gt;Node1</title>
<path fill="none" stroke="#8b1a1a" d="M231.295,-17.7331C239.72,-18.8605 248.403,-20.0222 256.845,-21.1518"/>
<polygon fill="#8b1a1a" stroke="#8b1a1a" points="231.555,-14.2368 221.179,-16.3796 230.626,-21.175 231.555,-14.2368"/>
</g>
</g>
</svg>
