<!DOCTYPE svg PUBLIC "-//W3C//DTD SVG 1.1//EN"
 "http://www.w3.org/Graphics/SVG/1.1/DTD/svg11.dtd">
<svg version="1.1"
 width="1200px" height="1074px"
 viewBox="0 0 1200 1074"
 xmlns="http://www.w3.org/2000/svg" shape-rendering="crispEdges"
 stroke-width="1" text-rendering="geometricPrecision">
<polygon fill="white" points="190,7 208,7 208,16 190,16"/>
<text x="200" y="16" textLength="16" font-family="Helvetica" font-size="12" fill="black" text-anchor="middle">

gui
</text>
<polygon fill="white" points="591,7 607,7 607,16 591,16"/>
<text x="600" y="16" textLength="14" font-family="Helvetica" font-size="12" fill="black" text-anchor="middle">

tr1
</text>
<polygon fill="white" points="991,7 1007,7 1007,16 991,16"/>
<text x="1000" y="16" textLength="14" font-family="Helvetica" font-size="12" fill="black" text-anchor="middle">

tr2
</text>
<line x1="200" y1="22" x2="200" y2="49" stroke="#D02090"/>
<line x1="600" y1="22" x2="600" y2="49" stroke="#808000"/>
<line x1="1000" y1="22" x2="1000" y2="49" stroke="#FFB000"/>
<line x1="200" y1="49" x2="200" y2="87" stroke="#D02090"/>
<line x1="600" y1="49" x2="600" y2="87" stroke="#808000"/>
<line x1="1000" y1="49" x2="1000" y2="87" stroke="#FFB000"/>
<polygon fill="#D02090" points="8,49 392,49 392,71 8,71"/>
<line x1="8" y1="49" x2="392" y2="49" stroke="black"/>
<line x1="8" y1="71" x2="392" y2="71" stroke="black"/>
<line x1="8" y1="49" x2="8" y2="71" stroke="black"/>
<line x1="392" y1="49" x2="392" y2="71" stroke="black"/>
<polygon fill="#D02090" points="167,56 232,56 232,65 167,65"/>
<text x="168" y="65" textLength="63" font-family="Helvetica" font-size="12" fill="black">
GUI-Thread
</text>
<line x1="200" y1="87" x2="200" y2="125" stroke="#D02090"/>
<line x1="600" y1="87" x2="600" y2="125" stroke="#808000"/>
<line x1="1000" y1="87" x2="1000" y2="125" stroke="#FFB000"/>
<polygon fill="#808000" points="408,87 792,87 792,109 408,109"/>
<line x1="408" y1="87" x2="792" y2="87" stroke="black"/>
<line x1="408" y1="109" x2="792" y2="109" stroke="black"/>
<line x1="408" y1="87" x2="408" y2="109" stroke="black"/>
<line x1="792" y1="87" x2="792" y2="109" stroke="black"/>
<polygon fill="#808000" points="576,94 623,94 623,103 576,103"/>
<text x="577" y="103" textLength="45" font-family="Helvetica" font-size="12" fill="black">
Worker1
</text>
<line x1="200" y1="125" x2="200" y2="163" stroke="#D02090"/>
<line x1="600" y1="125" x2="600" y2="163" stroke="#808000"/>
<line x1="1000" y1="125" x2="1000" y2="163" stroke="#FFB000"/>
<polygon fill="#FFB000" points="808,125 1192,125 1192,147 808,147"/>
<line x1="808" y1="125" x2="1192" y2="125" stroke="black"/>
<line x1="808" y1="147" x2="1192" y2="147" stroke="black"/>
<line x1="808" y1="125" x2="808" y2="147" stroke="black"/>
<line x1="1192" y1="125" x2="1192" y2="147" stroke="black"/>
<polygon fill="#FFB000" points="976,132 1023,132 1023,141 976,141"/>
<text x="977" y="141" textLength="45" font-family="Helvetica" font-size="12" fill="black">
Worker2
</text>
<line x1="200" y1="163" x2="200" y2="201" stroke="#D02090"/>
<line x1="600" y1="163" x2="600" y2="201" stroke="#808000"/>
<line x1="1000" y1="163" x2="1000" y2="201" stroke="#FFB000"/>
<line x1="200" y1="174" x2="600" y2="184" stroke="#D02090"/>
<polygon fill="#D02090" points="600,184 590,190 590,178"/>
<polygon fill="white" points="383,169 416,169 416,178 383,178"/>
<text x="384" y="178" textLength="31" font-family="Helvetica" font-size="12" fill="black">
start()
</text>
<line x1="200" y1="201" x2="200" y2="239" stroke="#D02090"/>
<line x1="600" y1="201" x2="600" y2="239" stroke="#808000"/>
<line x1="1000" y1="201" x2="1000" y2="239" stroke="#FFB000"/>
<line x1="200" y1="212" x2="1000" y2="222" stroke="#D02090"/>
<polygon fill="#D02090" points="1000,222 990,228 990,216"/>
<polygon fill="white" points="583,207 616,207 616,216 583,216"/>
<text x="584" y="216" textLength="31" font-family="Helvetica" font-size="12" fill="black">
start()
</text>
<line x1="200" y1="239" x2="200" y2="277" stroke="#D02090"/>
<line x1="600" y1="239" x2="600" y2="277" stroke="#808000"/>
<line x1="1000" y1="239" x2="1000" y2="277" stroke="#FFB000"/>
<line x1="200" y1="250" x2="1000" y2="260" stroke="#D02090"/>
<polygon fill="#D02090" points="1000,260 990,266 990,254"/>
<polygon fill="white" points="580,245 618,245 618,254 580,254"/>
<text x="581" y="254" textLength="36" font-family="Helvetica" font-size="12" fill="black">
call(...)
</text>
<line x1="200" y1="277" x2="200" y2="315" stroke="#D02090"/>
<line x1="600" y1="277" x2="600" y2="315" stroke="#808000"/>
<line x1="1000" y1="277" x2="1000" y2="315" stroke="#FFB000"/>
<line x1="200" y1="288" x2="600" y2="298" stroke="#D02090"/>
<polygon fill="#D02090" points="600,298 590,304 590,292"/>
<polygon fill="white" points="380,283 418,283 418,292 380,292"/>
<text x="381" y="292" textLength="36" font-family="Helvetica" font-size="12" fill="black">
call(...)
</text>
<line x1="200" y1="315" x2="200" y2="353" stroke="#D02090"/>
<line x1="600" y1="315" x2="600" y2="353" stroke="#808000"/>
<line x1="1000" y1="315" x2="1000" y2="353" stroke="#FFB000"/>
<path d="M 1000 320 A200,6 0 0,1 1000,332" stroke="#FFB000" fill="none"/><polygon fill="#FFB000" points="1000,332 1010,338 1010,326"/>
<polygon fill="white" points="939,340 998,340 998,349 939,349"/>
<text x="940" y="349" textLength="57" font-family="Helvetica" font-size="12" fill="black">
sleep(300)
</text>
<line x1="200" y1="353" x2="200" y2="391" stroke="#D02090"/>
<line x1="600" y1="353" x2="600" y2="391" stroke="#808000"/>
<line x1="1000" y1="353" x2="1000" y2="391" stroke="#FFB000"/>
<line x1="1000" y1="364" x2="200" y2="374" stroke="#FFB000"/>
<polygon fill="#FFB000" points="200,374 210,380 210,368"/>
<polygon fill="white" points="525,359 674,359 674,368 525,368"/>
<text x="526" y="368" textLength="147" font-family="Helvetica" font-size="12" fill="black">
button-&gt;caption='Running |'
</text>
<line x1="200" y1="391" x2="200" y2="429" stroke="#D02090"/>
<line x1="600" y1="391" x2="600" y2="429" stroke="#808000"/>
<line x1="1000" y1="391" x2="1000" y2="429" stroke="#FFB000"/>
<path d="M 1000 396 A200,6 0 0,1 1000,408" stroke="#FFB000" fill="none"/><polygon fill="#FFB000" points="1000,408 1010,414 1010,402"/>
<polygon fill="white" points="939,416 998,416 998,425 939,425"/>
<text x="940" y="425" textLength="57" font-family="Helvetica" font-size="12" fill="black">
sleep(300)
</text>
<line x1="200" y1="429" x2="200" y2="467" stroke="#D02090"/>
<line x1="600" y1="429" x2="600" y2="467" stroke="#808000"/>
<line x1="1000" y1="429" x2="1000" y2="467" stroke="#FFB000"/>
<line x1="1000" y1="440" x2="200" y2="450" stroke="#FFB000"/>
<polygon fill="#FFB000" points="200,450 210,456 210,444"/>
<polygon fill="white" points="525,435 674,435 674,444 525,444"/>
<text x="526" y="444" textLength="147" font-family="Helvetica" font-size="12" fill="black">
button-&gt;caption='Running /'
</text>
<line x1="200" y1="467" x2="200" y2="505" stroke="#D02090"/>
<line x1="600" y1="467" x2="600" y2="505" stroke="#808000"/>
<line x1="1000" y1="467" x2="1000" y2="505" stroke="#FFB000"/>
<path d="M 1000 472 A200,6 0 0,1 1000,484" stroke="#FFB000" fill="none"/><polygon fill="#FFB000" points="1000,484 1010,490 1010,478"/>
<polygon fill="white" points="939,492 998,492 998,501 939,501"/>
<text x="940" y="501" textLength="57" font-family="Helvetica" font-size="12" fill="black">
sleep(300)
</text>
<line x1="200" y1="505" x2="200" y2="543" stroke="#D02090"/>
<line x1="600" y1="505" x2="600" y2="543" stroke="#808000"/>
<line x1="1000" y1="505" x2="1000" y2="543" stroke="#FFB000"/>
<line x1="1000" y1="516" x2="200" y2="526" stroke="#FFB000"/>
<polygon fill="#FFB000" points="200,526 210,532 210,520"/>
<polygon fill="white" points="525,511 674,511 674,520 525,520"/>
<text x="526" y="520" textLength="147" font-family="Helvetica" font-size="12" fill="black">
button-&gt;caption='Running -'
</text>
<line x1="200" y1="543" x2="200" y2="581" stroke="#D02090"/>
<line x1="600" y1="543" x2="600" y2="581" stroke="#808000"/>
<line x1="1000" y1="543" x2="1000" y2="581" stroke="#FFB000"/>
<path d="M 600 548 A200,6 0 0,1 600,560" stroke="#808000" fill="none"/><polygon fill="#808000" points="600,560 610,566 610,554"/>
<polygon fill="white" points="539,568 598,568 598,577 539,577"/>
<text x="540" y="577" textLength="57" font-family="Helvetica" font-size="12" fill="black">
sleep(900)
</text>
<line x1="200" y1="581" x2="200" y2="619" stroke="#D02090"/>
<line x1="600" y1="581" x2="600" y2="619" stroke="#808000"/>
<line x1="1000" y1="581" x2="1000" y2="619" stroke="#FFB000"/>
<line x1="600" y1="592" x2="200" y2="602" stroke="#808000"/>
<polygon fill="#808000" points="200,602 210,608 210,596"/>
<polygon fill="white" points="280,587 518,587 518,596 280,596"/>
<text x="281" y="596" textLength="236" font-family="Helvetica" font-size="12" fill="black">
PostMessage(hWndPB, PBM_STEPIT, 0, 0)
</text>
<line x1="200" y1="619" x2="200" y2="657" stroke="#D02090"/>
<line x1="600" y1="619" x2="600" y2="657" stroke="#808000"/>
<line x1="1000" y1="619" x2="1000" y2="657" stroke="#FFB000"/>
<path d="M 1000 624 A200,6 0 0,1 1000,636" stroke="#FFB000" fill="none"/><polygon fill="#FFB000" points="1000,636 1010,642 1010,630"/>
<polygon fill="white" points="939,644 998,644 998,653 939,653"/>
<text x="940" y="653" textLength="57" font-family="Helvetica" font-size="12" fill="black">
sleep(300)
</text>
<line x1="200" y1="657" x2="200" y2="695" stroke="#D02090"/>
<line x1="600" y1="657" x2="600" y2="695" stroke="#808000"/>
<line x1="1000" y1="657" x2="1000" y2="695" stroke="#FFB000"/>
<line x1="1000" y1="668" x2="200" y2="678" stroke="#FFB000"/>
<polygon fill="#FFB000" points="200,678 210,684 210,672"/>
<polygon fill="white" points="525,663 674,663 674,672 525,672"/>
<text x="526" y="672" textLength="147" font-family="Helvetica" font-size="12" fill="black">
button-&gt;caption='Running \'
</text>
<line x1="200" y1="695" x2="200" y2="733" stroke="#D02090"/>
<line x1="600" y1="695" x2="600" y2="733" stroke="#808000"/>
<line x1="1000" y1="695" x2="1000" y2="733" stroke="#FFB000"/>
<path d="M 1000 700 A200,6 0 0,1 1000,712" stroke="#FFB000" fill="none"/><polygon fill="#FFB000" points="1000,712 1010,718 1010,706"/>
<polygon fill="white" points="939,720 998,720 998,729 939,729"/>
<text x="940" y="729" textLength="57" font-family="Helvetica" font-size="12" fill="black">
sleep(300)
</text>
<line x1="200" y1="733" x2="200" y2="771" stroke="#D02090"/>
<line x1="600" y1="733" x2="600" y2="771" stroke="#808000"/>
<line x1="1000" y1="733" x2="1000" y2="771" stroke="#FFB000"/>
<line x1="1000" y1="744" x2="200" y2="754" stroke="#FFB000"/>
<polygon fill="#FFB000" points="200,754 210,760 210,748"/>
<polygon fill="white" points="525,739 674,739 674,748 525,748"/>
<text x="526" y="748" textLength="147" font-family="Helvetica" font-size="12" fill="black">
button-&gt;caption='Running |'
</text>
<line x1="200" y1="771" x2="200" y2="809" stroke="#D02090"/>
<line x1="600" y1="771" x2="600" y2="809" stroke="#808000"/>
<line x1="1000" y1="771" x2="1000" y2="809" stroke="#FFB000"/>
<path d="M 1000 776 A200,6 0 0,1 1000,788" stroke="#FFB000" fill="none"/><polygon fill="#FFB000" points="1000,788 1010,794 1010,782"/>
<polygon fill="white" points="939,796 998,796 998,805 939,805"/>
<text x="940" y="805" textLength="57" font-family="Helvetica" font-size="12" fill="black">
sleep(300)
</text>
<line x1="200" y1="809" x2="200" y2="847" stroke="#D02090"/>
<line x1="600" y1="809" x2="600" y2="847" stroke="#808000"/>
<line x1="1000" y1="809" x2="1000" y2="847" stroke="#FFB000"/>
<line x1="1000" y1="820" x2="200" y2="830" stroke="#FFB000"/>
<polygon fill="#FFB000" points="200,830 210,836 210,824"/>
<polygon fill="white" points="525,815 674,815 674,824 525,824"/>
<text x="526" y="824" textLength="147" font-family="Helvetica" font-size="12" fill="black">
button-&gt;caption='Running /'
</text>
<line x1="200" y1="847" x2="200" y2="885" stroke="#D02090"/>
<line x1="600" y1="847" x2="600" y2="885" stroke="#808000"/>
<line x1="1000" y1="847" x2="1000" y2="885" stroke="#FFB000"/>
<path d="M 600 852 A200,6 0 0,1 600,864" stroke="#808000" fill="none"/><polygon fill="#808000" points="600,864 610,870 610,858"/>
<polygon fill="white" points="539,872 598,872 598,881 539,881"/>
<text x="540" y="881" textLength="57" font-family="Helvetica" font-size="12" fill="black">
sleep(900)
</text>
<line x1="200" y1="885" x2="200" y2="923" stroke="#D02090"/>
<line x1="600" y1="885" x2="600" y2="923" stroke="#808000"/>
<line x1="1000" y1="885" x2="1000" y2="923" stroke="#FFB000"/>
<line x1="600" y1="896" x2="200" y2="906" stroke="#808000"/>
<polygon fill="#808000" points="200,906 210,912 210,900"/>
<polygon fill="white" points="280,891 518,891 518,900 280,900"/>
<text x="281" y="900" textLength="236" font-family="Helvetica" font-size="12" fill="black">
PostMessage(hWndPB, PBM_STEPIT, 0, 0)
</text>
<line x1="200" y1="923" x2="200" y2="950" stroke="#D02090"/>
<line x1="600" y1="923" x2="600" y2="950" stroke="#808000"/>
<line x1="1000" y1="923" x2="1000" y2="950" stroke="#FFB000"/>
<line x1="100" y1="928" x2="1100" y2="928" stroke="black" stroke-dasharray="2,2"/>
<line x1="200" y1="950" x2="200" y2="988" stroke="#D02090"/>
<line x1="600" y1="950" x2="600" y2="988" stroke="#808000"/>
<line x1="1000" y1="950" x2="1000" y2="988" stroke="#FFB000"/>
<line x1="1000" y1="961" x2="200" y2="971" stroke="#FFB000"/>
<polygon fill="#FFB000" points="200,971 210,977 210,965"/>
<polygon fill="white" points="533,956 666,956 666,965 533,965"/>
<text x="534" y="965" textLength="131" font-family="Helvetica" font-size="12" fill="black">
button-&gt;caption='Start...'
</text>
<line x1="200" y1="988" x2="200" y2="1026" stroke="#D02090"/>
<line x1="600" y1="988" x2="600" y2="1026" stroke="#808000"/>
<line x1="1000" y1="988" x2="1000" y2="1026" stroke="#FFB000"/>
<line x1="200" y1="999" x2="600" y2="1009" stroke="#D02090"/>
<polygon fill="#D02090" points="600,1009 590,1015 590,1003"/>
<polygon fill="white" points="383,994 416,994 416,1003 383,1003"/>
<text x="384" y="1003" textLength="31" font-family="Helvetica" font-size="12" fill="black">
stop()
</text>
<line x1="200" y1="1026" x2="200" y2="1064" stroke="#D02090"/>
<line x1="600" y1="1026" x2="600" y2="1064" stroke="#808000"/>
<line x1="1000" y1="1026" x2="1000" y2="1064" stroke="#FFB000"/>
<line x1="200" y1="1037" x2="1000" y2="1047" stroke="#D02090"/>
<polygon fill="#D02090" points="1000,1047 990,1053 990,1041"/>
<polygon fill="white" points="583,1032 616,1032 616,1041 583,1041"/>
<text x="584" y="1041" textLength="31" font-family="Helvetica" font-size="12" fill="black">
stop()
</text>
<line x1="200" y1="1048" x2="200" y2="1074" stroke="#D02090"/>
<line x1="600" y1="1048" x2="600" y2="1074" stroke="#808000"/>
<line x1="1000" y1="1048" x2="1000" y2="1074" stroke="#FFB000"/>
</svg>
