<?xml version="1.0" encoding="UTF-8" standalone="no"?>
<!DOCTYPE svg PUBLIC "-//W3C//DTD SVG 1.1//EN"
 "http://www.w3.org/Graphics/SVG/1.1/DTD/svg11.dtd">
<!-- Generated by graphviz version 2.38.0 (20140413.2041)
 -->
<!-- Title: format Pages: 1 -->
<svg width="379pt" height="66pt"
 viewBox="0.00 0.00 379.00 66.00" xmlns="http://www.w3.org/2000/svg" xmlns:xlink="http://www.w3.org/1999/xlink">
<g id="graph0" class="graph" transform="scale(1 1) rotate(0) translate(4 62)">
<title>format</title>
<polygon fill="white" stroke="none" points="-4,4 -4,-62 375,-62 375,4 -4,4"/>
<!-- Node1 -->
<g id="node1" class="node"><title>Node1</title>
<g id="a_node1"><a xlink:title=" ">
<polygon fill="#bfbfbf" stroke="black" points="327,-19.5 327,-38.5 371,-38.5 371,-19.5 327,-19.5"/>
<text text-anchor="middle" x="349" y="-26.5" font-family="Helvetica,sans-Serif" font-size="10.00">format</text>
</a>
</g>
</g>
<!-- Node2 -->
<g id="node2" class="node"><title>Node2</title>
<g id="a_node2"><a xlink:href="main_8cpp.html#a1870be22060f25a2595afa09934e9784" target="_top" xlink:title=" ">
<polygon fill="white" stroke="black" points="187,-38.5 187,-57.5 288,-57.5 288,-38.5 187,-38.5"/>
<text text-anchor="middle" x="237.5" y="-45.5" font-family="Helvetica,sans-Serif" font-size="10.00">OnStartTestClicked</text>
</a>
</g>
</g>
<!-- Node1&#45;&gt;Node2 -->
<g id="edge1" class="edge"><title>Node1&#45;&gt;Node2</title>
<path fill="none" stroke="midnightblue" d="M316.92,-34.3929C307.954,-35.9487 297.939,-37.6864 288.144,-39.386"/>
<polygon fill="midnightblue" stroke="midnightblue" points="317.633,-37.8216 326.887,-32.6634 316.436,-30.9246 317.633,-37.8216"/>
</g>
<!-- Node5 -->
<g id="node5" class="node"><title>Node5</title>
<g id="a_node5"><a xlink:href="struct_log_helper.html#a8cb2976711fa23e100b31d4c4d303e38" target="_top" xlink:title=" ">
<polygon fill="white" stroke="black" points="184,-0.5 184,-19.5 291,-19.5 291,-0.5 184,-0.5"/>
<text text-anchor="middle" x="237.5" y="-7.5" font-family="Helvetica,sans-Serif" font-size="10.00">LogHelper::operator()</text>
</a>
</g>
</g>
<!-- Node1&#45;&gt;Node5 -->
<g id="edge4" class="edge"><title>Node1&#45;&gt;Node5</title>
<path fill="none" stroke="midnightblue" d="M316.939,-23.6105C308.949,-22.2241 300.125,-20.693 291.366,-19.173"/>
<polygon fill="midnightblue" stroke="midnightblue" points="316.436,-27.0754 326.887,-25.3366 317.633,-20.1784 316.436,-27.0754"/>
</g>
<!-- Node3 -->
<g id="node3" class="node"><title>Node3</title>
<g id="a_node3"><a xlink:href="main_8cpp.html#a30a1e3b0304f1b083637664cbda94e72" target="_top" xlink:title="The declaration of the main message processing function.">
<polygon fill="white" stroke="black" points="91,-38.5 91,-57.5 148,-57.5 148,-38.5 91,-38.5"/>
<text text-anchor="middle" x="119.5" y="-45.5" font-family="Helvetica,sans-Serif" font-size="10.00">WndProc</text>
</a>
</g>
</g>
<!-- Node2&#45;&gt;Node3 -->
<g id="edge2" class="edge"><title>Node2&#45;&gt;Node3</title>
<path fill="none" stroke="midnightblue" d="M176.924,-48C166.856,-48 156.851,-48 148.124,-48"/>
<polygon fill="midnightblue" stroke="midnightblue" points="176.969,-51.5001 186.969,-48 176.969,-44.5001 176.969,-51.5001"/>
</g>
<!-- Node4 -->
<g id="node4" class="node"><title>Node4</title>
<g id="a_node4"><a xlink:href="main_8cpp.html#a946cd7d17bf6760d82ded70909de9a6d" target="_top" xlink:title="The beginning of everything.">
<polygon fill="white" stroke="black" points="0,-38.5 0,-57.5 55,-57.5 55,-38.5 0,-38.5"/>
<text text-anchor="middle" x="27.5" y="-45.5" font-family="Helvetica,sans-Serif" font-size="10.00">WinMain</text>
</a>
</g>
</g>
<!-- Node3&#45;&gt;Node4 -->
<g id="edge3" class="edge"><title>Node3&#45;&gt;Node4</title>
<path fill="none" stroke="midnightblue" d="M80.4282,-48C71.9523,-48 63.1405,-48 55.2346,-48"/>
<polygon fill="midnightblue" stroke="midnightblue" points="80.5168,-51.5001 90.5168,-48 80.5167,-44.5001 80.5168,-51.5001"/>
</g>
</g>
</svg>
