<?xml version="1.0" encoding="UTF-8" standalone="no"?>
<!DOCTYPE svg PUBLIC "-//W3C//DTD SVG 1.1//EN"
 "http://www.w3.org/Graphics/SVG/1.1/DTD/svg11.dtd">
<!-- Generated by graphviz version 2.38.0 (20140413.2041)
 -->
<!-- Title: Control::ControlManagerImpl&lt; CT &gt; Pages: 1 -->
<svg width="148pt" height="174pt"
 viewBox="0.00 0.00 148.00 174.00" xmlns="http://www.w3.org/2000/svg" xmlns:xlink="http://www.w3.org/1999/xlink">
<g id="graph0" class="graph" transform="scale(1 1) rotate(0) translate(4 170)">
<title>Control::ControlManagerImpl&lt; CT &gt;</title>
<polygon fill="white" stroke="none" points="-4,4 -4,-170 144,-170 144,4 -4,4"/>
<!-- Node1 -->
<g id="node1" class="node"><title>Node1</title>
<g id="a_node1"><a xlink:title=" ">
<polygon fill="#bfbfbf" stroke="black" points="0,-0.5 0,-30.5 140,-30.5 140,-0.5 0,-0.5"/>
<text text-anchor="start" x="8" y="-18.5" font-family="Helvetica,sans-Serif" font-size="10.00">Control::ControlManagerImpl</text>
<text text-anchor="middle" x="70" y="-7.5" font-family="Helvetica,sans-Serif" font-size="10.00">&lt; CT &gt;</text>
</a>
</g>
</g>
<!-- Node2 -->
<g id="node2" class="node"><title>Node2</title>
<g id="a_node2"><a xlink:href="struct_control_1_1_control_manager.html" target="_top" xlink:title=" ">
<polygon fill="white" stroke="black" points="9,-68.5 9,-87.5 131,-87.5 131,-68.5 9,-68.5"/>
<text text-anchor="middle" x="70" y="-75.5" font-family="Helvetica,sans-Serif" font-size="10.00">Control::ControlManager</text>
</a>
</g>
</g>
<!-- Node2&#45;&gt;Node1 -->
<g id="edge1" class="edge"><title>Node2&#45;&gt;Node1</title>
<path fill="none" stroke="midnightblue" d="M70,-58.2154C70,-49.3565 70,-38.9577 70,-30.7587"/>
<polygon fill="midnightblue" stroke="midnightblue" points="66.5001,-58.3318 70,-68.3318 73.5001,-58.3319 66.5001,-58.3318"/>
</g>
<!-- Node3 -->
<g id="node3" class="node"><title>Node3</title>
<g id="a_node3"><a xlink:title=" ">
<polygon fill="white" stroke="#bfbfbf" points="8,-135.5 8,-165.5 132,-165.5 132,-135.5 8,-135.5"/>
<text text-anchor="start" x="16" y="-153.5" font-family="Helvetica,sans-Serif" font-size="10.00">unique_ptr&lt; Control</text>
<text text-anchor="middle" x="70" y="-142.5" font-family="Helvetica,sans-Serif" font-size="10.00">::ControlManager::Impl &gt;</text>
</a>
</g>
</g>
<!-- Node3&#45;&gt;Node2 -->
<g id="edge2" class="edge"><title>Node3&#45;&gt;Node2</title>
<path fill="none" stroke="#9a32cd" stroke-dasharray="5,2" d="M70,-125.091C70,-112.214 70,-97.1974 70,-87.8932"/>
<polygon fill="#9a32cd" stroke="#9a32cd" points="66.5001,-125.233 70,-135.233 73.5001,-125.233 66.5001,-125.233"/>
<text text-anchor="middle" x="86" y="-109" font-family="Helvetica,sans-Serif" font-size="10.00"> pImpl_</text>
</g>
</g>
</svg>
