<?xml version="1.0" encoding="UTF-8" standalone="no"?>
<!DOCTYPE svg PUBLIC "-//W3C//DTD SVG 1.1//EN"
 "http://www.w3.org/Graphics/SVG/1.1/DTD/svg11.dtd">
<!-- Generated by graphviz version 2.38.0 (20140413.2041)
 -->
<!-- Title: LogHelper Pages: 1 -->
<svg width="144pt" height="95pt"
 viewBox="0.00 0.00 143.50 95.00" xmlns="http://www.w3.org/2000/svg" xmlns:xlink="http://www.w3.org/1999/xlink">
<g id="graph0" class="graph" transform="scale(1 1) rotate(0) translate(4 91)">
<title>LogHelper</title>
<polygon fill="white" stroke="none" points="-4,4 -4,-91 139.5,-91 139.5,4 -4,4"/>
<!-- Node1 -->
<g id="node1" class="node"><title>Node1</title>
<g id="a_node1"><a xlink:title=" ">
<polygon fill="#bfbfbf" stroke="black" points="28.5,-0.5 28.5,-19.5 88.5,-19.5 88.5,-0.5 28.5,-0.5"/>
<text text-anchor="middle" x="58.5" y="-7.5" font-family="Helvetica,sans-Serif" font-size="10.00">LogHelper</text>
</a>
</g>
</g>
<!-- Node2 -->
<g id="node2" class="node"><title>Node2</title>
<g id="a_node2"><a xlink:title=" ">
<polygon fill="white" stroke="#bfbfbf" points="0,-67.5 0,-86.5 41,-86.5 41,-67.5 0,-67.5"/>
<text text-anchor="middle" x="20.5" y="-74.5" font-family="Helvetica,sans-Serif" font-size="10.00">string</text>
</a>
</g>
</g>
<!-- Node2&#45;&gt;Node1 -->
<g id="edge1" class="edge"><title>Node2&#45;&gt;Node1</title>
<path fill="none" stroke="#9a32cd" stroke-dasharray="5,2" d="M30.7105,-58.5347C38.0678,-45.9499 47.6804,-29.5072 53.4563,-19.6273"/>
<polygon fill="#9a32cd" stroke="#9a32cd" points="27.6503,-56.8344 25.6248,-67.2338 33.6934,-60.3673 27.6503,-56.8344"/>
<text text-anchor="middle" x="54.5" y="-41" font-family="Helvetica,sans-Serif" font-size="10.00"> label</text>
</g>
<!-- Node3 -->
<g id="node3" class="node"><title>Node3</title>
<g id="a_node3"><a xlink:title=" ">
<polygon fill="white" stroke="#bfbfbf" points="59.5,-67.5 59.5,-86.5 135.5,-86.5 135.5,-67.5 59.5,-67.5"/>
<text text-anchor="middle" x="97.5" y="-74.5" font-family="Helvetica,sans-Serif" font-size="10.00">ostringstream</text>
</a>
</g>
</g>
<!-- Node3&#45;&gt;Node1 -->
<g id="edge2" class="edge"><title>Node3&#45;&gt;Node1</title>
<path fill="none" stroke="#9a32cd" stroke-dasharray="5,2" d="M87.0208,-58.5347C79.4699,-45.9499 69.6043,-29.5072 63.6764,-19.6273"/>
<polygon fill="#9a32cd" stroke="#9a32cd" points="84.0941,-60.4596 92.2403,-67.2338 90.0965,-56.8581 84.0941,-60.4596"/>
<text text-anchor="middle" x="94.5" y="-41" font-family="Helvetica,sans-Serif" font-size="10.00"> msg_</text>
</g>
</g>
</svg>
