<?xml version="1.0" encoding="UTF-8" standalone="no"?>
<!DOCTYPE svg PUBLIC "-//W3C//DTD SVG 1.1//EN"
 "http://www.w3.org/Graphics/SVG/1.1/DTD/svg11.dtd">
<!-- Generated by graphviz version 2.38.0 (20140413.2041)
 -->
<!-- Title: Thread::Impl Pages: 1 -->
<svg width="297pt" height="295pt"
 viewBox="0.00 0.00 297.00 295.00" xmlns="http://www.w3.org/2000/svg" xmlns:xlink="http://www.w3.org/1999/xlink">
<g id="graph0" class="graph" transform="scale(1 1) rotate(0) translate(4 291)">
<title>Thread::Impl</title>
<polygon fill="white" stroke="none" points="-4,4 -4,-291 293,-291 293,4 -4,4"/>
<!-- Node1 -->
<g id="node1" class="node"><title>Node1</title>
<g id="a_node1"><a xlink:title="The real implementation of Thread.">
<polygon fill="#bfbfbf" stroke="black" points="219,-132.5 219,-151.5 289,-151.5 289,-132.5 219,-132.5"/>
<text text-anchor="middle" x="254" y="-139.5" font-family="Helvetica,sans-Serif" font-size="10.00">Thread::Impl</text>
</a>
</g>
</g>
<!-- Node2 -->
<g id="node2" class="node"><title>Node2</title>
<g id="a_node2"><a xlink:title=" ">
<polygon fill="white" stroke="#bfbfbf" points="22.5,-267.5 22.5,-286.5 109.5,-286.5 109.5,-267.5 22.5,-267.5"/>
<text text-anchor="middle" x="66" y="-274.5" font-family="Helvetica,sans-Serif" font-size="10.00">recursive_mutex</text>
</a>
</g>
</g>
<!-- Node2&#45;&gt;Node1 -->
<g id="edge1" class="edge"><title>Node2&#45;&gt;Node1</title>
<path fill="none" stroke="#9a32cd" stroke-dasharray="5,2" d="M119.63,-273.823C146.387,-269.855 178.015,-261.282 201,-243 231.407,-218.815 245.809,-172.042 250.832,-151.767"/>
<polygon fill="#9a32cd" stroke="#9a32cd" points="119.104,-270.362 109.642,-275.13 120.011,-277.303 119.104,-270.362"/>
<text text-anchor="middle" x="175.5" y="-270" font-family="Helvetica,sans-Serif" font-size="10.00"> mutex_</text>
</g>
<!-- Node3 -->
<g id="node3" class="node"><title>Node3</title>
<g id="a_node3"><a xlink:title=" ">
<polygon fill="white" stroke="#bfbfbf" points="22,-229.5 22,-248.5 110,-248.5 110,-229.5 22,-229.5"/>
<text text-anchor="middle" x="66" y="-236.5" font-family="Helvetica,sans-Serif" font-size="10.00">function&lt; void()&gt;</text>
</a>
</g>
</g>
<!-- Node3&#45;&gt;Node1 -->
<g id="edge2" class="edge"><title>Node3&#45;&gt;Node1</title>
<path fill="none" stroke="#9a32cd" stroke-dasharray="5,2" d="M120.323,-234.966C146.273,-231.016 176.971,-223.247 201,-208 223.417,-193.776 240.242,-166.418 248.096,-151.79"/>
<polygon fill="#9a32cd" stroke="#9a32cd" points="119.699,-231.519 110.267,-236.345 120.65,-238.454 119.699,-231.519"/>
<text text-anchor="middle" x="175.5" y="-231" font-family="Helvetica,sans-Serif" font-size="10.00"> notify_</text>
</g>
<!-- Node4 -->
<g id="node4" class="node"><title>Node4</title>
<g id="a_node4"><a xlink:title=" ">
<polygon fill="white" stroke="#bfbfbf" points="31.5,-190.5 31.5,-209.5 100.5,-209.5 100.5,-190.5 31.5,-190.5"/>
<text text-anchor="middle" x="66" y="-197.5" font-family="Helvetica,sans-Serif" font-size="10.00">atomic_bool</text>
</a>
</g>
</g>
<!-- Node4&#45;&gt;Node1 -->
<g id="edge3" class="edge"><title>Node4&#45;&gt;Node1</title>
<path fill="none" stroke="#9a32cd" stroke-dasharray="5,2" d="M110.726,-191.623C137.245,-185.957 171.539,-177.581 201,-167 212.69,-162.802 225.255,-156.805 235.106,-151.737"/>
<polygon fill="#9a32cd" stroke="#9a32cd" points="109.68,-188.266 100.606,-193.735 111.11,-195.119 109.68,-188.266"/>
<text text-anchor="middle" x="175.5" y="-196" font-family="Helvetica,sans-Serif" font-size="10.00"> enqueued_</text>
<text text-anchor="middle" x="175.5" y="-185" font-family="Helvetica,sans-Serif" font-size="10.00">stopped_</text>
</g>
<!-- Node5 -->
<g id="node5" class="node"><title>Node5</title>
<g id="a_node5"><a xlink:title=" ">
<polygon fill="white" stroke="#bfbfbf" points="0,-152.5 0,-171.5 132,-171.5 132,-152.5 0,-152.5"/>
<text text-anchor="middle" x="66" y="-159.5" font-family="Helvetica,sans-Serif" font-size="10.00">queue&lt; function&lt; void()&gt; &gt;</text>
</a>
</g>
</g>
<!-- Node5&#45;&gt;Node1 -->
<g id="edge4" class="edge"><title>Node5&#45;&gt;Node1</title>
<path fill="none" stroke="#9a32cd" stroke-dasharray="5,2" d="M142.124,-153.922C168.707,-151.064 197.316,-147.988 218.814,-145.676"/>
<polygon fill="#9a32cd" stroke="#9a32cd" points="141.622,-150.456 132.054,-155.005 142.371,-157.416 141.622,-150.456"/>
<text text-anchor="middle" x="175.5" y="-155" font-family="Helvetica,sans-Serif" font-size="10.00"> queue_</text>
</g>
<!-- Node6 -->
<g id="node6" class="node"><title>Node6</title>
<g id="a_node6"><a xlink:title=" ">
<polygon fill="white" stroke="#bfbfbf" points="9,-114.5 9,-133.5 123,-133.5 123,-114.5 9,-114.5"/>
<text text-anchor="middle" x="66" y="-121.5" font-family="Helvetica,sans-Serif" font-size="10.00">condition_variable_any</text>
</a>
</g>
</g>
<!-- Node6&#45;&gt;Node1 -->
<g id="edge5" class="edge"><title>Node6&#45;&gt;Node1</title>
<path fill="none" stroke="#9a32cd" stroke-dasharray="5,2" d="M133.138,-122.102C154.861,-122.377 179.057,-123.647 201,-127 208.895,-128.206 217.28,-130.265 224.959,-132.477"/>
<polygon fill="#9a32cd" stroke="#9a32cd" points="133.043,-118.602 123.022,-122.042 133.001,-125.602 133.043,-118.602"/>
<text text-anchor="middle" x="175.5" y="-130" font-family="Helvetica,sans-Serif" font-size="10.00"> condition_</text>
</g>
<!-- Node7 -->
<g id="node7" class="node"><title>Node7</title>
<g id="a_node7"><a xlink:title=" ">
<polygon fill="white" stroke="#bfbfbf" points="51.5,-76.5 51.5,-95.5 80.5,-95.5 80.5,-76.5 51.5,-76.5"/>
<text text-anchor="middle" x="66" y="-83.5" font-family="Helvetica,sans-Serif" font-size="10.00">id</text>
</a>
</g>
</g>
<!-- Node7&#45;&gt;Node1 -->
<g id="edge6" class="edge"><title>Node7&#45;&gt;Node1</title>
<path fill="none" stroke="#9a32cd" stroke-dasharray="5,2" d="M91.0567,-86.6413C118.527,-88.0758 164.394,-92.6359 201,-107 216.398,-113.042 231.843,-124.248 241.851,-132.356"/>
<polygon fill="#9a32cd" stroke="#9a32cd" points="90.9613,-83.1342 80.8225,-86.2089 90.6658,-90.128 90.9613,-83.1342"/>
<text text-anchor="middle" x="175.5" y="-110" font-family="Helvetica,sans-Serif" font-size="10.00"> id_</text>
</g>
<!-- Node8 -->
<g id="node8" class="node"><title>Node8</title>
<g id="a_node8"><a xlink:title=" ">
<polygon fill="white" stroke="#bfbfbf" points="45.5,-38.5 45.5,-57.5 86.5,-57.5 86.5,-38.5 45.5,-38.5"/>
<text text-anchor="middle" x="66" y="-45.5" font-family="Helvetica,sans-Serif" font-size="10.00">string</text>
</a>
</g>
</g>
<!-- Node8&#45;&gt;Node1 -->
<g id="edge7" class="edge"><title>Node8&#45;&gt;Node1</title>
<path fill="none" stroke="#9a32cd" stroke-dasharray="5,2" d="M96.8862,-49.1132C125.527,-51.4057 169.008,-58.1926 201,-78 223.154,-91.7158 240.09,-118.277 248.03,-132.487"/>
<polygon fill="#9a32cd" stroke="#9a32cd" points="96.9004,-45.6065 86.6907,-48.4368 96.437,-52.5912 96.9004,-45.6065"/>
<text text-anchor="middle" x="175.5" y="-81" font-family="Helvetica,sans-Serif" font-size="10.00"> name_</text>
</g>
<!-- Node9 -->
<g id="node9" class="node"><title>Node9</title>
<g id="a_node9"><a xlink:title=" ">
<polygon fill="white" stroke="#bfbfbf" points="44,-0.5 44,-19.5 88,-19.5 88,-0.5 44,-0.5"/>
<text text-anchor="middle" x="66" y="-7.5" font-family="Helvetica,sans-Serif" font-size="10.00">thread</text>
</a>
</g>
</g>
<!-- Node9&#45;&gt;Node1 -->
<g id="edge8" class="edge"><title>Node9&#45;&gt;Node1</title>
<path fill="none" stroke="#9a32cd" stroke-dasharray="5,2" d="M98.4729,-10.5939C127.833,-12.6747 171.431,-19.8464 201,-43 231.113,-66.5792 245.673,-112.494 250.785,-132.406"/>
<polygon fill="#9a32cd" stroke="#9a32cd" points="98.5295,-7.09183 88.3524,-10.0375 98.1451,-14.0813 98.5295,-7.09183"/>
<text text-anchor="middle" x="175.5" y="-46" font-family="Helvetica,sans-Serif" font-size="10.00"> thread_</text>
</g>
</g>
</svg>
