<?xml version="1.0" encoding="UTF-8" standalone="no"?>
<!DOCTYPE svg PUBLIC "-//W3C//DTD SVG 1.1//EN"
 "http://www.w3.org/Graphics/SVG/1.1/DTD/svg11.dtd">
<!-- Generated by graphviz version 2.38.0 (20140413.2041)
 -->
<!-- Title: src/Controls/Control.cpp Pages: 1 -->
<svg width="529pt" height="420pt"
 viewBox="0.00 0.00 529.00 420.00" xmlns="http://www.w3.org/2000/svg" xmlns:xlink="http://www.w3.org/1999/xlink">
<g id="graph0" class="graph" transform="scale(1 1) rotate(0) translate(4 416)">
<title>src/Controls/Control.cpp</title>
<polygon fill="white" stroke="none" points="-4,4 -4,-416 525,-416 525,4 -4,4"/>
<!-- Node1 -->
<g id="node1" class="node"><title>Node1</title>
<g id="a_node1"><a xlink:title=" ">
<polygon fill="#bfbfbf" stroke="black" points="322,-392.5 322,-411.5 444,-411.5 444,-392.5 322,-392.5"/>
<text text-anchor="middle" x="383" y="-399.5" font-family="Helvetica,sans-Serif" font-size="10.00">src/Controls/Control.cpp</text>
</a>
</g>
</g>
<!-- Node2 -->
<g id="node2" class="node"><title>Node2</title>
<g id="a_node2"><a xlink:href="dbg__new_8h.html" target="_top" xlink:title=" ">
<polygon fill="white" stroke="black" points="169.5,-336.5 169.5,-355.5 232.5,-355.5 232.5,-336.5 169.5,-336.5"/>
<text text-anchor="middle" x="201" y="-343.5" font-family="Helvetica,sans-Serif" font-size="10.00">dbg_new.h</text>
</a>
</g>
</g>
<!-- Node1&#45;&gt;Node2 -->
<g id="edge1" class="edge"><title>Node1&#45;&gt;Node2</title>
<path fill="none" stroke="midnightblue" d="M354.162,-392.444C323.144,-383.241 273.671,-368.562 239.382,-358.388"/>
<polygon fill="midnightblue" stroke="midnightblue" points="240.286,-355.006 229.704,-355.516 238.295,-361.716 240.286,-355.006"/>
</g>
<!-- Node10 -->
<g id="node10" class="node"><title>Node10</title>
<g id="a_node10"><a xlink:href="_control_8h.html" target="_top" xlink:title=" ">
<polygon fill="white" stroke="black" points="268,-112.5 268,-131.5 324,-131.5 324,-112.5 268,-112.5"/>
<text text-anchor="middle" x="296" y="-119.5" font-family="Helvetica,sans-Serif" font-size="10.00">Control.h</text>
</a>
</g>
</g>
<!-- Node1&#45;&gt;Node10 -->
<g id="edge18" class="edge"><title>Node1&#45;&gt;Node10</title>
<path fill="none" stroke="midnightblue" d="M377.716,-392.231C367.275,-374.043 345,-330.601 345,-291 345,-291 345,-291 345,-233 345,-197.466 323.4,-160.627 308.882,-139.88"/>
<polygon fill="midnightblue" stroke="midnightblue" points="311.528,-137.568 302.813,-131.542 305.869,-141.687 311.528,-137.568"/>
</g>
<!-- Node17 -->
<g id="node17" class="node"><title>Node17</title>
<g id="a_node17"><a xlink:title=" ">
<polygon fill="white" stroke="#bfbfbf" points="411.5,-336.5 411.5,-355.5 446.5,-355.5 446.5,-336.5 411.5,-336.5"/>
<text text-anchor="middle" x="429" y="-343.5" font-family="Helvetica,sans-Serif" font-size="10.00">map</text>
</a>
</g>
</g>
<!-- Node1&#45;&gt;Node17 -->
<g id="edge19" class="edge"><title>Node1&#45;&gt;Node17</title>
<path fill="none" stroke="midnightblue" d="M390.596,-392.083C397.227,-384.298 407.021,-372.801 415.058,-363.367"/>
<polygon fill="midnightblue" stroke="midnightblue" points="417.725,-365.633 421.545,-355.751 412.396,-361.094 417.725,-365.633"/>
</g>
<!-- Node18 -->
<g id="node18" class="node"><title>Node18</title>
<g id="a_node18"><a xlink:title=" ">
<polygon fill="white" stroke="#bfbfbf" points="465,-336.5 465,-355.5 521,-355.5 521,-336.5 465,-336.5"/>
<text text-anchor="middle" x="493" y="-343.5" font-family="Helvetica,sans-Serif" font-size="10.00">algorithm</text>
</a>
</g>
</g>
<!-- Node1&#45;&gt;Node18 -->
<g id="edge20" class="edge"><title>Node1&#45;&gt;Node18</title>
<path fill="none" stroke="midnightblue" d="M400.673,-392.324C418.394,-383.625 445.903,-370.12 466.288,-360.113"/>
<polygon fill="midnightblue" stroke="midnightblue" points="467.936,-363.203 475.37,-355.655 464.851,-356.919 467.936,-363.203"/>
</g>
<!-- Node19 -->
<g id="node19" class="node"><title>Node19</title>
<g id="a_node19"><a xlink:href="_button_8h.html" target="_top" xlink:title=" ">
<polygon fill="white" stroke="black" points="373.5,-280.5 373.5,-299.5 426.5,-299.5 426.5,-280.5 373.5,-280.5"/>
<text text-anchor="middle" x="400" y="-287.5" font-family="Helvetica,sans-Serif" font-size="10.00">Button.h</text>
</a>
</g>
</g>
<!-- Node1&#45;&gt;Node19 -->
<g id="edge21" class="edge"><title>Node1&#45;&gt;Node19</title>
<path fill="none" stroke="midnightblue" d="M384.334,-392.368C387.077,-374.617 393.406,-333.666 397.126,-309.597"/>
<polygon fill="midnightblue" stroke="midnightblue" points="400.604,-310.009 398.672,-299.591 393.686,-308.94 400.604,-310.009"/>
</g>
<!-- Node3 -->
<g id="node3" class="node"><title>Node3</title>
<g id="a_node3"><a xlink:href="utils_8hpp.html" target="_top" xlink:title=" ">
<polygon fill="white" stroke="black" points="174.5,-280.5 174.5,-299.5 227.5,-299.5 227.5,-280.5 174.5,-280.5"/>
<text text-anchor="middle" x="201" y="-287.5" font-family="Helvetica,sans-Serif" font-size="10.00">utils.hpp</text>
</a>
</g>
</g>
<!-- Node2&#45;&gt;Node3 -->
<g id="edge2" class="edge"><title>Node2&#45;&gt;Node3</title>
<path fill="none" stroke="midnightblue" d="M201,-336.083C201,-329.006 201,-318.861 201,-309.986"/>
<polygon fill="midnightblue" stroke="midnightblue" points="204.5,-309.751 201,-299.751 197.5,-309.751 204.5,-309.751"/>
</g>
<!-- Node15 -->
<g id="node15" class="node"><title>Node15</title>
<g id="a_node15"><a xlink:title=" ">
<polygon fill="white" stroke="#bfbfbf" points="0,-56.5 0,-75.5 52,-75.5 52,-56.5 0,-56.5"/>
<text text-anchor="middle" x="26" y="-63.5" font-family="Helvetica,sans-Serif" font-size="10.00">assert.h</text>
</a>
</g>
</g>
<!-- Node2&#45;&gt;Node15 -->
<g id="edge17" class="edge"><title>Node2&#45;&gt;Node15</title>
<path fill="none" stroke="midnightblue" d="M169.295,-341.39C114.762,-333.229 9,-307.991 9,-235 9,-235 9,-235 9,-177 9,-144.583 16.3002,-107.415 21.3329,-85.6439"/>
<polygon fill="midnightblue" stroke="midnightblue" points="24.7724,-86.3102 23.7073,-75.769 17.9663,-84.6736 24.7724,-86.3102"/>
</g>
<!-- Node4 -->
<g id="node4" class="node"><title>Node4</title>
<g id="a_node4"><a xlink:href="output_8hpp.html" target="_top" xlink:title=" ">
<polygon fill="white" stroke="black" points="130,-224.5 130,-243.5 192,-243.5 192,-224.5 130,-224.5"/>
<text text-anchor="middle" x="161" y="-231.5" font-family="Helvetica,sans-Serif" font-size="10.00">output.hpp</text>
</a>
</g>
</g>
<!-- Node3&#45;&gt;Node4 -->
<g id="edge3" class="edge"><title>Node3&#45;&gt;Node4</title>
<path fill="none" stroke="midnightblue" d="M194.395,-280.083C188.745,-272.455 180.455,-261.264 173.549,-251.941"/>
<polygon fill="midnightblue" stroke="midnightblue" points="176.247,-249.703 167.482,-243.751 170.622,-253.87 176.247,-249.703"/>
</g>
<!-- Node16 -->
<g id="node16" class="node"><title>Node16</title>
<g id="a_node16"><a xlink:title=" ">
<polygon fill="white" stroke="#bfbfbf" points="210.5,-224.5 210.5,-243.5 269.5,-243.5 269.5,-224.5 210.5,-224.5"/>
<text text-anchor="middle" x="240" y="-231.5" font-family="Helvetica,sans-Serif" font-size="10.00">exception</text>
</a>
</g>
</g>
<!-- Node3&#45;&gt;Node16 -->
<g id="edge16" class="edge"><title>Node3&#45;&gt;Node16</title>
<path fill="none" stroke="midnightblue" d="M207.44,-280.083C212.949,-272.455 221.031,-261.264 227.765,-251.941"/>
<polygon fill="midnightblue" stroke="midnightblue" points="230.662,-253.907 233.68,-243.751 224.987,-249.809 230.662,-253.907"/>
</g>
<!-- Node5 -->
<g id="node5" class="node"><title>Node5</title>
<g id="a_node5"><a xlink:title=" ">
<polygon fill="white" stroke="#bfbfbf" points="135,-168.5 135,-187.5 187,-187.5 187,-168.5 135,-168.5"/>
<text text-anchor="middle" x="161" y="-175.5" font-family="Helvetica,sans-Serif" font-size="10.00">stdarg.h</text>
</a>
</g>
</g>
<!-- Node4&#45;&gt;Node5 -->
<g id="edge4" class="edge"><title>Node4&#45;&gt;Node5</title>
<path fill="none" stroke="midnightblue" d="M161,-224.083C161,-217.006 161,-206.861 161,-197.986"/>
<polygon fill="midnightblue" stroke="midnightblue" points="164.5,-197.751 161,-187.751 157.5,-197.751 164.5,-197.751"/>
</g>
<!-- Node6 -->
<g id="node6" class="node"><title>Node6</title>
<g id="a_node6"><a xlink:title=" ">
<polygon fill="white" stroke="#bfbfbf" points="101.5,-56.5 101.5,-75.5 142.5,-75.5 142.5,-56.5 101.5,-56.5"/>
<text text-anchor="middle" x="122" y="-63.5" font-family="Helvetica,sans-Serif" font-size="10.00">string</text>
</a>
</g>
</g>
<!-- Node4&#45;&gt;Node6 -->
<g id="edge5" class="edge"><title>Node4&#45;&gt;Node6</title>
<path fill="none" stroke="midnightblue" d="M151.555,-224.411C143.099,-216.053 131.251,-202.519 126,-188 113.534,-153.533 116.195,-109.877 119.159,-85.5444"/>
<polygon fill="midnightblue" stroke="midnightblue" points="122.638,-85.9339 120.531,-75.5508 115.703,-84.9817 122.638,-85.9339"/>
</g>
<!-- Node7 -->
<g id="node7" class="node"><title>Node7</title>
<g id="a_node7"><a xlink:title=" ">
<polygon fill="white" stroke="#bfbfbf" points="205,-168.5 205,-187.5 257,-187.5 257,-168.5 205,-168.5"/>
<text text-anchor="middle" x="231" y="-175.5" font-family="Helvetica,sans-Serif" font-size="10.00">sstream</text>
</a>
</g>
</g>
<!-- Node4&#45;&gt;Node7 -->
<g id="edge6" class="edge"><title>Node4&#45;&gt;Node7</title>
<path fill="none" stroke="midnightblue" d="M172.247,-224.324C182.797,-216.185 198.801,-203.839 211.442,-194.087"/>
<polygon fill="midnightblue" stroke="midnightblue" points="213.769,-196.713 219.549,-187.834 209.493,-191.171 213.769,-196.713"/>
</g>
<!-- Node8 -->
<g id="node8" class="node"><title>Node8</title>
<g id="a_node8"><a xlink:title=" ">
<polygon fill="white" stroke="#bfbfbf" points="37,-168.5 37,-187.5 79,-187.5 79,-168.5 37,-168.5"/>
<text text-anchor="middle" x="58" y="-175.5" font-family="Helvetica,sans-Serif" font-size="10.00">vector</text>
</a>
</g>
</g>
<!-- Node4&#45;&gt;Node8 -->
<g id="edge7" class="edge"><title>Node4&#45;&gt;Node8</title>
<path fill="none" stroke="midnightblue" d="M144.451,-224.324C128.008,-215.703 102.565,-202.364 83.5316,-192.386"/>
<polygon fill="midnightblue" stroke="midnightblue" points="84.9895,-189.198 74.5077,-187.655 81.7391,-195.398 84.9895,-189.198"/>
</g>
<!-- Node9 -->
<g id="node9" class="node"><title>Node9</title>
<g id="a_node9"><a xlink:href="_edit_8h.html" target="_top" xlink:title=" ">
<polygon fill="white" stroke="black" points="275,-168.5 275,-187.5 317,-187.5 317,-168.5 275,-168.5"/>
<text text-anchor="middle" x="296" y="-175.5" font-family="Helvetica,sans-Serif" font-size="10.00">Edit.h</text>
</a>
</g>
</g>
<!-- Node4&#45;&gt;Node9 -->
<g id="edge8" class="edge"><title>Node4&#45;&gt;Node9</title>
<path fill="none" stroke="midnightblue" d="M182.391,-224.444C204.707,-215.517 239.903,-201.439 265.208,-191.317"/>
<polygon fill="midnightblue" stroke="midnightblue" points="266.724,-194.48 274.709,-187.516 264.124,-187.981 266.724,-194.48"/>
</g>
<!-- Node9&#45;&gt;Node10 -->
<g id="edge9" class="edge"><title>Node9&#45;&gt;Node10</title>
<path fill="none" stroke="midnightblue" d="M296,-168.083C296,-161.006 296,-150.861 296,-141.986"/>
<polygon fill="midnightblue" stroke="midnightblue" points="299.5,-141.751 296,-131.751 292.5,-141.751 299.5,-141.751"/>
</g>
<!-- Node10&#45;&gt;Node6 -->
<g id="edge11" class="edge"><title>Node10&#45;&gt;Node6</title>
<path fill="none" stroke="midnightblue" d="M268.429,-112.444C236.868,-102.649 185.319,-86.6509 152.558,-76.4836"/>
<polygon fill="midnightblue" stroke="midnightblue" points="153.219,-73.0239 142.631,-73.4026 151.144,-79.7094 153.219,-73.0239"/>
</g>
<!-- Node11 -->
<g id="node11" class="node"><title>Node11</title>
<g id="a_node11"><a xlink:title=" ">
<polygon fill="white" stroke="#bfbfbf" points="265,-56.5 265,-75.5 327,-75.5 327,-56.5 265,-56.5"/>
<text text-anchor="middle" x="296" y="-63.5" font-family="Helvetica,sans-Serif" font-size="10.00">windows.h</text>
</a>
</g>
</g>
<!-- Node10&#45;&gt;Node11 -->
<g id="edge10" class="edge"><title>Node10&#45;&gt;Node11</title>
<path fill="none" stroke="midnightblue" d="M296,-112.083C296,-105.006 296,-94.8611 296,-85.9865"/>
<polygon fill="midnightblue" stroke="midnightblue" points="299.5,-85.751 296,-75.7511 292.5,-85.7511 299.5,-85.751"/>
</g>
<!-- Node12 -->
<g id="node12" class="node"><title>Node12</title>
<g id="a_node12"><a xlink:title=" ">
<polygon fill="white" stroke="#bfbfbf" points="345,-56.5 345,-75.5 397,-75.5 397,-56.5 345,-56.5"/>
<text text-anchor="middle" x="371" y="-63.5" font-family="Helvetica,sans-Serif" font-size="10.00">memory</text>
</a>
</g>
</g>
<!-- Node10&#45;&gt;Node12 -->
<g id="edge12" class="edge"><title>Node10&#45;&gt;Node12</title>
<path fill="none" stroke="midnightblue" d="M308.05,-112.324C319.463,-104.107 336.831,-91.6017 350.435,-81.8069"/>
<polygon fill="midnightblue" stroke="midnightblue" points="352.66,-84.5174 358.731,-75.8339 348.57,-78.8366 352.66,-84.5174"/>
</g>
<!-- Node13 -->
<g id="node13" class="node"><title>Node13</title>
<g id="a_node13"><a xlink:href="_property_8hpp.html" target="_top" xlink:title=" ">
<polygon fill="white" stroke="black" points="175,-56.5 175,-75.5 247,-75.5 247,-56.5 175,-56.5"/>
<text text-anchor="middle" x="211" y="-63.5" font-family="Helvetica,sans-Serif" font-size="10.00">Property.hpp</text>
</a>
</g>
</g>
<!-- Node10&#45;&gt;Node13 -->
<g id="edge13" class="edge"><title>Node10&#45;&gt;Node13</title>
<path fill="none" stroke="midnightblue" d="M282.343,-112.324C269.084,-103.9 248.732,-90.9709 233.154,-81.0741"/>
<polygon fill="midnightblue" stroke="midnightblue" points="234.94,-78.0626 224.623,-75.6545 231.187,-83.9711 234.94,-78.0626"/>
</g>
<!-- Node10&#45;&gt;Node15 -->
<g id="edge15" class="edge"><title>Node10&#45;&gt;Node15</title>
<path fill="none" stroke="midnightblue" d="M267.869,-115.374C218.51,-105.502 116.39,-85.078 61.9731,-74.1946"/>
<polygon fill="midnightblue" stroke="midnightblue" points="62.5654,-70.7438 52.0731,-72.2146 61.1925,-77.6079 62.5654,-70.7438"/>
</g>
<!-- Node14 -->
<g id="node14" class="node"><title>Node14</title>
<g id="a_node14"><a xlink:title=" ">
<polygon fill="white" stroke="#bfbfbf" points="182,-0.5 182,-19.5 240,-19.5 240,-0.5 182,-0.5"/>
<text text-anchor="middle" x="211" y="-7.5" font-family="Helvetica,sans-Serif" font-size="10.00">functional</text>
</a>
</g>
</g>
<!-- Node13&#45;&gt;Node14 -->
<g id="edge14" class="edge"><title>Node13&#45;&gt;Node14</title>
<path fill="none" stroke="midnightblue" d="M211,-56.083C211,-49.0059 211,-38.8611 211,-29.9865"/>
<polygon fill="midnightblue" stroke="midnightblue" points="214.5,-29.751 211,-19.7511 207.5,-29.7511 214.5,-29.751"/>
</g>
<!-- Node19&#45;&gt;Node10 -->
<g id="edge22" class="edge"><title>Node19&#45;&gt;Node10</title>
<path fill="none" stroke="midnightblue" d="M398.907,-280.237C395.894,-259.054 385.839,-204.152 359,-168 349.394,-155.06 334.966,-144.37 322.341,-136.661"/>
<polygon fill="midnightblue" stroke="midnightblue" points="323.97,-133.56 313.561,-131.585 320.466,-139.62 323.97,-133.56"/>
</g>
</g>
</svg>
