<?xml version="1.0" encoding="UTF-8" standalone="no"?>
<!DOCTYPE svg PUBLIC "-//W3C//DTD SVG 1.1//EN"
 "http://www.w3.org/Graphics/SVG/1.1/DTD/svg11.dtd">
<!-- Generated by graphviz version 2.38.0 (20140413.2041)
 -->
<!-- Title: src/Controls/Control.h Pages: 1 -->
<!--zoomable 364 -->
<svg id="main" version="1.1" xmlns="http://www.w3.org/2000/svg" xmlns:xlink="http://www.w3.org/1999/xlink" xml:space="preserve" onload="init(evt)">
<style type="text/css"><![CDATA[
.edge:hover path { stroke: red; }
.edge:hover polygon { stroke: red; fill: red; }
]]></style>
<script type="text/javascript"><![CDATA[
var edges = document.getElementsByTagName('g');
if (edges && edges.length) {
  for (var i=0;i<edges.length;i++) {
    if (edges[i].id.substr(0,4)=='edge') {
      edges[i].setAttribute('class','edge');
    }
  }
}
]]></script>
        <defs>
                <circle id="rim" cx="0" cy="0" r="7"/>
                <circle id="rim2" cx="0" cy="0" r="3.5"/>
                <g id="zoomPlus">
                        <use xlink:href="#rim" fill="#404040">
                                <set attributeName="fill" to="#808080" begin="zoomplus.mouseover" end="zoomplus.mouseout"/>
                        </use>
                        <path d="M-4,0h8M0,-4v8" fill="none" stroke="white" stroke-width="1.5" pointer-events="none"/>
                </g>
                <g id="zoomMin">
                        <use xlink:href="#rim" fill="#404040">
                                <set attributeName="fill" to="#808080" begin="zoomminus.mouseover" end="zoomminus.mouseout"/>
                        </use>
                        <path d="M-4,0h8" fill="none" stroke="white" stroke-width="1.5" pointer-events="none"/>
                </g>
                <g id="dirArrow">
                        <path fill="none" stroke="white" stroke-width="1.5" d="M0,-3.0v7 M-2.5,-0.5L0,-3.0L2.5,-0.5"/>
                </g>
               <g id="resetDef">
                       <use xlink:href="#rim2" fill="#404040">
                               <set attributeName="fill" to="#808080" begin="reset.mouseover" end="reset.mouseout"/>
                       </use>
               </g>
        </defs>

<script type="text/javascript">
var viewWidth = 1307;
var viewHeight = 364;
var sectionId = 'dynsection-1';
</script>
<script xlink:href="svgpan.js"/>
<svg id="graph" class="graph">
<g id="viewport">
<title>src/Controls/Control.h</title>
<polygon fill="white" stroke="none" points="-4,4 -4,-360 1303,-360 1303,4 -4,4"/>
<!-- Node1 -->
<g id="node1" class="node"><title>Node1</title>
<g id="a_node1"><a xlink:title=" ">
<polygon fill="#bfbfbf" stroke="black" points="282.5,-336.5 282.5,-355.5 393.5,-355.5 393.5,-336.5 282.5,-336.5"/>
<text text-anchor="middle" x="338" y="-343.5" font-family="Helvetica,sans-Serif" font-size="10.00">src/Controls/Control.h</text>
</a>
</g>
</g>
<!-- Node2 -->
<g id="node2" class="node"><title>Node2</title>
<g id="a_node2"><a xlink:href="_button_8h.html" target="_top" xlink:title=" ">
<polygon fill="white" stroke="black" points="169.5,-112.5 169.5,-131.5 278.5,-131.5 278.5,-112.5 169.5,-112.5"/>
<text text-anchor="middle" x="224" y="-119.5" font-family="Helvetica,sans-Serif" font-size="10.00">src/Controls/Button.h</text>
</a>
</g>
</g>
<!-- Node1&#45;&gt;Node2 -->
<g id="edge1" class="edge"><title>Node1&#45;&gt;Node2</title>
<path fill="none" stroke="midnightblue" d="M328.838,-327.157C305.71,-282.119 245.6,-165.063 228.562,-131.884"/>
<polygon fill="midnightblue" stroke="midnightblue" points="325.849,-329 333.531,-336.297 332.076,-325.803 325.849,-329"/>
</g>
<!-- Node4 -->
<g id="node4" class="node"><title>Node4</title>
<g id="a_node4"><a xlink:href="_control_8cpp.html" target="_top" xlink:title=" ">
<polygon fill="white" stroke="black" points="0,-56.5 0,-75.5 122,-75.5 122,-56.5 0,-56.5"/>
<text text-anchor="middle" x="61" y="-63.5" font-family="Helvetica,sans-Serif" font-size="10.00">src/Controls/Control.cpp</text>
</a>
</g>
</g>
<!-- Node1&#45;&gt;Node4 -->
<g id="edge5" class="edge"><title>Node1&#45;&gt;Node4</title>
<path fill="none" stroke="midnightblue" d="M272.38,-340.309C205.964,-331.566 113,-306.549 113,-235 113,-235 113,-235 113,-177 113,-135.809 82.8288,-93.5462 68.4503,-75.7441"/>
<polygon fill="midnightblue" stroke="midnightblue" points="272.031,-343.792 282.382,-341.53 272.88,-336.844 272.031,-343.792"/>
</g>
<!-- Node6 -->
<g id="node6" class="node"><title>Node6</title>
<g id="a_node6"><a xlink:href="_edit_8h.html" target="_top" xlink:title=" ">
<polygon fill="white" stroke="black" points="397,-280.5 397,-299.5 495,-299.5 495,-280.5 397,-280.5"/>
<text text-anchor="middle" x="446" y="-287.5" font-family="Helvetica,sans-Serif" font-size="10.00">src/Controls/Edit.h</text>
</a>
</g>
</g>
<!-- Node1&#45;&gt;Node6 -->
<g id="edge6" class="edge"><title>Node1&#45;&gt;Node6</title>
<path fill="none" stroke="midnightblue" d="M364.548,-331.726C384.546,-321.727 411.387,-308.307 428.691,-299.655"/>
<polygon fill="midnightblue" stroke="midnightblue" points="362.731,-328.721 355.352,-336.324 365.862,-334.982 362.731,-328.721"/>
</g>
<!-- Node21 -->
<g id="node21" class="node"><title>Node21</title>
<g id="a_node21"><a xlink:href="_progress_8h.html" target="_top" xlink:title=" ">
<polygon fill="white" stroke="black" points="534.5,-112.5 534.5,-131.5 653.5,-131.5 653.5,-112.5 534.5,-112.5"/>
<text text-anchor="middle" x="594" y="-119.5" font-family="Helvetica,sans-Serif" font-size="10.00">src/Controls/Progress.h</text>
</a>
</g>
</g>
<!-- Node1&#45;&gt;Node21 -->
<g id="edge30" class="edge"><title>Node1&#45;&gt;Node21</title>
<path fill="none" stroke="midnightblue" d="M349.239,-327.958C358.713,-314.235 373.08,-294.854 388,-280 453.009,-215.281 545.222,-154.011 580.001,-131.791"/>
<polygon fill="midnightblue" stroke="midnightblue" points="346.214,-326.184 343.515,-336.429 352.014,-330.103 346.214,-326.184"/>
</g>
<!-- Node3 -->
<g id="node3" class="node"><title>Node3</title>
<g id="a_node3"><a xlink:href="_button_8cpp.html" target="_top" xlink:title=" ">
<polygon fill="white" stroke="black" points="140.5,-56.5 140.5,-75.5 259.5,-75.5 259.5,-56.5 140.5,-56.5"/>
<text text-anchor="middle" x="200" y="-63.5" font-family="Helvetica,sans-Serif" font-size="10.00">src/Controls/Button.cpp</text>
</a>
</g>
</g>
<!-- Node2&#45;&gt;Node3 -->
<g id="edge2" class="edge"><title>Node2&#45;&gt;Node3</title>
<path fill="none" stroke="midnightblue" d="M215.862,-102.69C211.817,-93.589 207.117,-83.0141 203.889,-75.7511"/>
<polygon fill="midnightblue" stroke="midnightblue" points="212.777,-104.366 220.037,-112.083 219.174,-101.523 212.777,-104.366"/>
</g>
<!-- Node2&#45;&gt;Node4 -->
<g id="edge3" class="edge"><title>Node2&#45;&gt;Node4</title>
<path fill="none" stroke="midnightblue" d="M188.297,-109.172C157.604,-99.0039 114.081,-84.5852 86.707,-75.5164"/>
<polygon fill="midnightblue" stroke="midnightblue" points="187.579,-112.621 198.172,-112.444 189.78,-105.976 187.579,-112.621"/>
</g>
<!-- Node5 -->
<g id="node5" class="node"><title>Node5</title>
<g id="a_node5"><a xlink:href="main_8cpp.html" target="_top" xlink:title=" ">
<polygon fill="white" stroke="black" points="677.5,-56.5 677.5,-75.5 750.5,-75.5 750.5,-56.5 677.5,-56.5"/>
<text text-anchor="middle" x="714" y="-63.5" font-family="Helvetica,sans-Serif" font-size="10.00">src/main.cpp</text>
</a>
</g>
</g>
<!-- Node2&#45;&gt;Node5 -->
<g id="edge4" class="edge"><title>Node2&#45;&gt;Node5</title>
<path fill="none" stroke="midnightblue" d="M288.745,-116.32C375.408,-109.626 533.777,-95.889 668,-76 671.059,-75.5467 674.223,-75.0297 677.394,-74.4779"/>
<polygon fill="midnightblue" stroke="midnightblue" points="288.242,-112.848 278.539,-117.101 288.777,-119.827 288.242,-112.848"/>
</g>
<!-- Node6&#45;&gt;Node5 -->
<g id="edge9" class="edge"><title>Node6&#45;&gt;Node5</title>
<path fill="none" stroke="midnightblue" d="M469.146,-275.092C510.427,-249.68 598.387,-192.739 662,-132 681.023,-113.837 699.28,-88.6462 708.246,-75.6007"/>
<polygon fill="midnightblue" stroke="midnightblue" points="467.093,-272.245 460.383,-280.444 470.741,-278.219 467.093,-272.245"/>
</g>
<!-- Node7 -->
<g id="node7" class="node"><title>Node7</title>
<g id="a_node7"><a xlink:href="_thread_8cpp.html" target="_top" xlink:title=" ">
<polygon fill="white" stroke="black" points="277.5,-56.5 277.5,-75.5 384.5,-75.5 384.5,-56.5 277.5,-56.5"/>
<text text-anchor="middle" x="331" y="-63.5" font-family="Helvetica,sans-Serif" font-size="10.00">src/Base/Thread.cpp</text>
</a>
</g>
</g>
<!-- Node6&#45;&gt;Node7 -->
<g id="edge7" class="edge"><title>Node6&#45;&gt;Node7</title>
<path fill="none" stroke="midnightblue" d="M436.757,-271.157C413.427,-226.119 352.79,-109.063 335.602,-75.8837"/>
<polygon fill="midnightblue" stroke="midnightblue" points="433.784,-273.028 441.492,-280.297 440,-269.808 433.784,-273.028"/>
</g>
<!-- Node8 -->
<g id="node8" class="node"><title>Node8</title>
<g id="a_node8"><a xlink:href="_edit_8cpp.html" target="_top" xlink:title=" ">
<polygon fill="white" stroke="black" points="403,-56.5 403,-75.5 511,-75.5 511,-56.5 403,-56.5"/>
<text text-anchor="middle" x="457" y="-63.5" font-family="Helvetica,sans-Serif" font-size="10.00">src/Controls/Edit.cpp</text>
</a>
</g>
</g>
<!-- Node6&#45;&gt;Node8 -->
<g id="edge8" class="edge"><title>Node6&#45;&gt;Node8</title>
<path fill="none" stroke="midnightblue" d="M439.396,-270.758C428.608,-238.16 410.022,-168.074 427,-112 431.245,-97.9809 441.456,-84.3374 448.786,-75.8175"/>
<polygon fill="midnightblue" stroke="midnightblue" points="436.12,-271.992 442.693,-280.301 442.736,-269.706 436.12,-271.992"/>
</g>
<!-- Node9 -->
<g id="node9" class="node"><title>Node9</title>
<g id="a_node9"><a xlink:href="output_8hpp.html" target="_top" xlink:title=" ">
<polygon fill="white" stroke="black" points="710.5,-224.5 710.5,-243.5 789.5,-243.5 789.5,-224.5 710.5,-224.5"/>
<text text-anchor="middle" x="750" y="-231.5" font-family="Helvetica,sans-Serif" font-size="10.00">src/output.hpp</text>
</a>
</g>
</g>
<!-- Node6&#45;&gt;Node9 -->
<g id="edge10" class="edge"><title>Node6&#45;&gt;Node9</title>
<path fill="none" stroke="midnightblue" d="M504.33,-278.639C564.829,-267.892 657.776,-251.382 710.29,-242.054"/>
<polygon fill="midnightblue" stroke="midnightblue" points="503.403,-275.248 494.17,-280.444 504.628,-282.141 503.403,-275.248"/>
</g>
<!-- Node10 -->
<g id="node10" class="node"><title>Node10</title>
<g id="a_node10"><a xlink:href="_test_case_8h.html" target="_top" xlink:title=" ">
<polygon fill="white" stroke="black" points="774,-112.5 774,-131.5 878,-131.5 878,-112.5 774,-112.5"/>
<text text-anchor="middle" x="826" y="-119.5" font-family="Helvetica,sans-Serif" font-size="10.00">src/Test/TestCase.h</text>
</a>
</g>
</g>
<!-- Node9&#45;&gt;Node10 -->
<g id="edge11" class="edge"><title>Node9&#45;&gt;Node10</title>
<path fill="none" stroke="midnightblue" d="M766.264,-217.1C774.243,-208.836 783.684,-198.326 791,-188 804.337,-169.176 816.223,-144.688 822.104,-131.808"/>
<polygon fill="midnightblue" stroke="midnightblue" points="763.729,-214.687 759.181,-224.256 768.703,-219.611 763.729,-214.687"/>
</g>
<!-- Node18 -->
<g id="node18" class="node"><title>Node18</title>
<g id="a_node18"><a xlink:href="utils_8hpp.html" target="_top" xlink:title=" ">
<polygon fill="white" stroke="black" points="712,-168.5 712,-187.5 782,-187.5 782,-168.5 712,-168.5"/>
<text text-anchor="middle" x="747" y="-175.5" font-family="Helvetica,sans-Serif" font-size="10.00">src/utils.hpp</text>
</a>
</g>
</g>
<!-- Node9&#45;&gt;Node18 -->
<g id="edge20" class="edge"><title>Node9&#45;&gt;Node18</title>
<path fill="none" stroke="midnightblue" d="M748.934,-213.805C748.439,-204.91 747.877,-194.78 747.486,-187.751"/>
<polygon fill="midnightblue" stroke="midnightblue" points="745.455,-214.293 749.505,-224.083 752.444,-213.904 745.455,-214.293"/>
</g>
<!-- Node10&#45;&gt;Node5 -->
<g id="edge12" class="edge"><title>Node10&#45;&gt;Node5</title>
<path fill="none" stroke="midnightblue" d="M798.751,-107.862C777.984,-97.8492 749.977,-84.3458 731.95,-75.6545"/>
<polygon fill="midnightblue" stroke="midnightblue" points="797.477,-111.134 808.005,-112.324 800.518,-104.828 797.477,-111.134"/>
</g>
<!-- Node11 -->
<g id="node11" class="node"><title>Node11</title>
<g id="a_node11"><a xlink:href="_base_tests_8h.html" target="_top" xlink:title=" ">
<polygon fill="white" stroke="black" points="1032,-56.5 1032,-75.5 1142,-75.5 1142,-56.5 1032,-56.5"/>
<text text-anchor="middle" x="1087" y="-63.5" font-family="Helvetica,sans-Serif" font-size="10.00">src/Test/BaseTests.h</text>
</a>
</g>
</g>
<!-- Node10&#45;&gt;Node11 -->
<g id="edge13" class="edge"><title>Node10&#45;&gt;Node11</title>
<path fill="none" stroke="midnightblue" d="M877.187,-110.41C926.513,-100.204 1000.19,-84.9597 1045.84,-75.5164"/>
<polygon fill="midnightblue" stroke="midnightblue" points="876.44,-106.99 867.356,-112.444 877.858,-113.845 876.44,-106.99"/>
</g>
<!-- Node13 -->
<g id="node13" class="node"><title>Node13</title>
<g id="a_node13"><a xlink:href="_property_tests_8h.html" target="_top" xlink:title=" ">
<polygon fill="white" stroke="black" points="1165,-56.5 1165,-75.5 1289,-75.5 1289,-56.5 1165,-56.5"/>
<text text-anchor="middle" x="1227" y="-63.5" font-family="Helvetica,sans-Serif" font-size="10.00">src/Test/PropertyTests.h</text>
</a>
</g>
</g>
<!-- Node10&#45;&gt;Node13 -->
<g id="edge15" class="edge"><title>Node10&#45;&gt;Node13</title>
<path fill="none" stroke="midnightblue" d="M888.294,-112.611C963.62,-102.468 1089.63,-85.4984 1164.88,-75.3654"/>
<polygon fill="midnightblue" stroke="midnightblue" points="887.456,-109.192 878.013,-113.996 888.39,-116.13 887.456,-109.192"/>
</g>
<!-- Node15 -->
<g id="node15" class="node"><title>Node15</title>
<g id="a_node15"><a xlink:href="_test_case_8cpp.html" target="_top" xlink:title=" ">
<polygon fill="white" stroke="black" points="768.5,-56.5 768.5,-75.5 883.5,-75.5 883.5,-56.5 768.5,-56.5"/>
<text text-anchor="middle" x="826" y="-63.5" font-family="Helvetica,sans-Serif" font-size="10.00">src/Test/TestCase.cpp</text>
</a>
</g>
</g>
<!-- Node10&#45;&gt;Node15 -->
<g id="edge17" class="edge"><title>Node10&#45;&gt;Node15</title>
<path fill="none" stroke="midnightblue" d="M826,-101.805C826,-92.9102 826,-82.7798 826,-75.7511"/>
<polygon fill="midnightblue" stroke="midnightblue" points="822.5,-102.083 826,-112.083 829.5,-102.083 822.5,-102.083"/>
</g>
<!-- Node16 -->
<g id="node16" class="node"><title>Node16</title>
<g id="a_node16"><a xlink:href="_value_tests_8h.html" target="_top" xlink:title=" ">
<polygon fill="white" stroke="black" points="902,-56.5 902,-75.5 1014,-75.5 1014,-56.5 902,-56.5"/>
<text text-anchor="middle" x="958" y="-63.5" font-family="Helvetica,sans-Serif" font-size="10.00">src/Test/ValueTests.h</text>
</a>
</g>
</g>
<!-- Node10&#45;&gt;Node16 -->
<g id="edge18" class="edge"><title>Node10&#45;&gt;Node16</title>
<path fill="none" stroke="midnightblue" d="M856.219,-108.638C880.99,-98.504 915.4,-84.4274 937.182,-75.5164"/>
<polygon fill="midnightblue" stroke="midnightblue" points="854.846,-105.418 846.916,-112.444 857.497,-111.897 854.846,-105.418"/>
</g>
<!-- Node12 -->
<g id="node12" class="node"><title>Node12</title>
<g id="a_node12"><a xlink:href="_base_tests_8cpp.html" target="_top" xlink:title=" ">
<polygon fill="white" stroke="black" points="1027,-0.5 1027,-19.5 1147,-19.5 1147,-0.5 1027,-0.5"/>
<text text-anchor="middle" x="1087" y="-7.5" font-family="Helvetica,sans-Serif" font-size="10.00">src/Test/BaseTests.cpp</text>
</a>
</g>
</g>
<!-- Node11&#45;&gt;Node12 -->
<g id="edge14" class="edge"><title>Node11&#45;&gt;Node12</title>
<path fill="none" stroke="midnightblue" d="M1087,-45.8045C1087,-36.9102 1087,-26.7798 1087,-19.7511"/>
<polygon fill="midnightblue" stroke="midnightblue" points="1083.5,-46.083 1087,-56.083 1090.5,-46.083 1083.5,-46.083"/>
</g>
<!-- Node14 -->
<g id="node14" class="node"><title>Node14</title>
<g id="a_node14"><a xlink:href="_property_tests_8cpp.html" target="_top" xlink:title=" ">
<polygon fill="white" stroke="black" points="1165,-0.5 1165,-19.5 1299,-19.5 1299,-0.5 1165,-0.5"/>
<text text-anchor="middle" x="1232" y="-7.5" font-family="Helvetica,sans-Serif" font-size="10.00">src/Test/PropertyTests.cpp</text>
</a>
</g>
</g>
<!-- Node13&#45;&gt;Node14 -->
<g id="edge16" class="edge"><title>Node13&#45;&gt;Node14</title>
<path fill="none" stroke="midnightblue" d="M1228.75,-46.1005C1229.58,-37.1357 1230.53,-26.8579 1231.19,-19.7511"/>
<polygon fill="midnightblue" stroke="midnightblue" points="1225.26,-45.8029 1227.83,-56.083 1232.23,-46.4483 1225.26,-45.8029"/>
</g>
<!-- Node17 -->
<g id="node17" class="node"><title>Node17</title>
<g id="a_node17"><a xlink:href="_value_tests_8cpp.html" target="_top" xlink:title=" ">
<polygon fill="white" stroke="black" points="887,-0.5 887,-19.5 1009,-19.5 1009,-0.5 887,-0.5"/>
<text text-anchor="middle" x="948" y="-7.5" font-family="Helvetica,sans-Serif" font-size="10.00">src/Test/ValueTests.cpp</text>
</a>
</g>
</g>
<!-- Node16&#45;&gt;Node17 -->
<g id="edge19" class="edge"><title>Node16&#45;&gt;Node17</title>
<path fill="none" stroke="midnightblue" d="M954.5,-46.1005C952.84,-37.1357 950.937,-26.8579 949.621,-19.7511"/>
<polygon fill="midnightblue" stroke="midnightblue" points="951.086,-46.8875 956.349,-56.083 957.969,-45.6128 951.086,-46.8875"/>
</g>
<!-- Node18&#45;&gt;Node5 -->
<g id="edge28" class="edge"><title>Node18&#45;&gt;Node5</title>
<path fill="none" stroke="midnightblue" d="M741.502,-158.674C734.287,-134.625 721.916,-93.3881 716.577,-75.5914"/>
<polygon fill="midnightblue" stroke="midnightblue" points="738.185,-159.796 744.411,-168.368 744.889,-157.784 738.185,-159.796"/>
</g>
<!-- Node18&#45;&gt;Node10 -->
<g id="edge29" class="edge"><title>Node18&#45;&gt;Node10</title>
<path fill="none" stroke="midnightblue" d="M768.034,-162.622C782.466,-152.757 801.141,-139.992 813.339,-131.655"/>
<polygon fill="midnightblue" stroke="midnightblue" points="765.973,-159.791 759.693,-168.324 769.923,-165.57 765.973,-159.791"/>
</g>
<!-- Node19 -->
<g id="node19" class="node"><title>Node19</title>
<g id="a_node19"><a xlink:href="dbg__new_8h.html" target="_top" xlink:title=" ">
<polygon fill="white" stroke="black" points="436,-112.5 436,-131.5 516,-131.5 516,-112.5 436,-112.5"/>
<text text-anchor="middle" x="476" y="-119.5" font-family="Helvetica,sans-Serif" font-size="10.00">src/dbg_new.h</text>
</a>
</g>
</g>
<!-- Node18&#45;&gt;Node19 -->
<g id="edge21" class="edge"><title>Node18&#45;&gt;Node19</title>
<path fill="none" stroke="midnightblue" d="M701.953,-168.024C650.21,-157.714 566.079,-140.949 516.384,-131.047"/>
<polygon fill="midnightblue" stroke="midnightblue" points="701.358,-171.474 711.849,-169.996 702.726,-164.609 701.358,-171.474"/>
</g>
<!-- Node19&#45;&gt;Node3 -->
<g id="edge23" class="edge"><title>Node19&#45;&gt;Node3</title>
<path fill="none" stroke="midnightblue" d="M425.865,-111.191C373.865,-101.017 293.37,-85.2681 243.831,-75.5756"/>
<polygon fill="midnightblue" stroke="midnightblue" points="425.381,-114.663 435.867,-113.148 426.725,-107.793 425.381,-114.663"/>
</g>
<!-- Node19&#45;&gt;Node4 -->
<g id="edge24" class="edge"><title>Node19&#45;&gt;Node4</title>
<path fill="none" stroke="midnightblue" d="M425.523,-114.432C349.157,-104.495 204.466,-85.6679 122.207,-74.9643"/>
<polygon fill="midnightblue" stroke="midnightblue" points="425.463,-117.954 435.831,-115.773 426.366,-111.012 425.463,-117.954"/>
</g>
<!-- Node19&#45;&gt;Node5 -->
<g id="edge27" class="edge"><title>Node19&#45;&gt;Node5</title>
<path fill="none" stroke="midnightblue" d="M523.584,-110.204C568.84,-99.9354 635.967,-84.705 677.247,-75.339"/>
<polygon fill="midnightblue" stroke="midnightblue" points="522.689,-106.818 513.712,-112.444 524.238,-113.644 522.689,-106.818"/>
</g>
<!-- Node19&#45;&gt;Node7 -->
<g id="edge22" class="edge"><title>Node19&#45;&gt;Node7</title>
<path fill="none" stroke="midnightblue" d="M443.525,-108.906C416.264,-98.7536 378.008,-84.5063 353.868,-75.5164"/>
<polygon fill="midnightblue" stroke="midnightblue" points="442.432,-112.233 453.024,-112.444 444.875,-105.674 442.432,-112.233"/>
</g>
<!-- Node19&#45;&gt;Node8 -->
<g id="edge25" class="edge"><title>Node19&#45;&gt;Node8</title>
<path fill="none" stroke="midnightblue" d="M469.454,-102.396C466.276,-93.362 462.607,-82.936 460.079,-75.7511"/>
<polygon fill="midnightblue" stroke="midnightblue" points="466.242,-103.812 472.863,-112.083 472.845,-101.488 466.242,-103.812"/>
</g>
<!-- Node20 -->
<g id="node20" class="node"><title>Node20</title>
<g id="a_node20"><a xlink:href="_progress_8cpp.html" target="_top" xlink:title=" ">
<polygon fill="white" stroke="black" points="529,-56.5 529,-75.5 659,-75.5 659,-56.5 529,-56.5"/>
<text text-anchor="middle" x="594" y="-63.5" font-family="Helvetica,sans-Serif" font-size="10.00">src/Controls/Progress.cpp</text>
</a>
</g>
</g>
<!-- Node19&#45;&gt;Node20 -->
<g id="edge26" class="edge"><title>Node19&#45;&gt;Node20</title>
<path fill="none" stroke="midnightblue" d="M503.9,-108.232C525.973,-98.1312 556.176,-84.3091 575.39,-75.5164"/>
<polygon fill="midnightblue" stroke="midnightblue" points="502.334,-105.1 494.697,-112.444 505.247,-111.465 502.334,-105.1"/>
</g>
<!-- Node21&#45;&gt;Node5 -->
<g id="edge32" class="edge"><title>Node21&#45;&gt;Node5</title>
<path fill="none" stroke="midnightblue" d="M622.373,-108.232C644.82,-98.1312 675.535,-84.3091 695.075,-75.5164"/>
<polygon fill="midnightblue" stroke="midnightblue" points="620.697,-105.148 613.014,-112.444 623.57,-111.532 620.697,-105.148"/>
</g>
<!-- Node21&#45;&gt;Node20 -->
<g id="edge31" class="edge"><title>Node21&#45;&gt;Node20</title>
<path fill="none" stroke="midnightblue" d="M594,-101.805C594,-92.9102 594,-82.7798 594,-75.7511"/>
<polygon fill="midnightblue" stroke="midnightblue" points="590.5,-102.083 594,-112.083 597.5,-102.083 590.5,-102.083"/>
</g>
</g>
</svg>
        <g id="navigator" transform="translate(0 0)" fill="#404254">
                <rect fill="#f2f5e9" fill-opacity="0.5" stroke="#606060" stroke-width=".5" x="0" y="0" width="60" height="60"/>
                <use id="zoomplus" xlink:href="#zoomPlus" x="17" y="9" onmousedown="handleZoom(evt,'in')"/>
                <use id="zoomminus" xlink:href="#zoomMin" x="42" y="9" onmousedown="handleZoom(evt,'out')"/>
                <use id="reset" xlink:href="#resetDef" x="30" y="36" onmousedown="handleReset()"/>
                <g id="arrowUp" xlink:href="#dirArrow" transform="translate(30 24)" onmousedown="handlePan(0,-1)">
                  <use xlink:href="#rim" fill="#404040">
                        <set attributeName="fill" to="#808080" begin="arrowUp.mouseover" end="arrowUp.mouseout"/>
                  </use>
                  <path fill="none" stroke="white" stroke-width="1.5" d="M0,-3.0v7 M-2.5,-0.5L0,-3.0L2.5,-0.5"/>
                </g>
                <g id="arrowRight" xlink:href="#dirArrow" transform="rotate(90) translate(36 -43)" onmousedown="handlePan(1,0)">
                  <use xlink:href="#rim" fill="#404040">
                        <set attributeName="fill" to="#808080" begin="arrowRight.mouseover" end="arrowRight.mouseout"/>
                  </use>
                  <path fill="none" stroke="white" stroke-width="1.5" d="M0,-3.0v7 M-2.5,-0.5L0,-3.0L2.5,-0.5"/>
                </g>
                <g id="arrowDown" xlink:href="#dirArrow" transform="rotate(180) translate(-30 -48)" onmousedown="handlePan(0,1)">
                  <use xlink:href="#rim" fill="#404040">
                        <set attributeName="fill" to="#808080" begin="arrowDown.mouseover" end="arrowDown.mouseout"/>
                  </use>
                  <path fill="none" stroke="white" stroke-width="1.5" d="M0,-3.0v7 M-2.5,-0.5L0,-3.0L2.5,-0.5"/>
                </g>
                <g id="arrowLeft" xlink:href="#dirArrow" transform="rotate(270) translate(-36 17)" onmousedown="handlePan(-1,0)">
                  <use xlink:href="#rim" fill="#404040">
                        <set attributeName="fill" to="#808080" begin="arrowLeft.mouseover" end="arrowLeft.mouseout"/>
                  </use>
                  <path fill="none" stroke="white" stroke-width="1.5" d="M0,-3.0v7 M-2.5,-0.5L0,-3.0L2.5,-0.5"/>
                </g>
        </g>
        <svg viewBox="0 0 15 15" width="100%" height="30px" preserveAspectRatio="xMaxYMin meet">
         <g id="arrow_out" transform="scale(0.3 0.3)">
          <a xlink:href="_control_8h__dep__incl_org.svg" target="_base">
           <rect id="button" ry="5" rx="5" y="6" x="6" height="38" width="38"
                fill="#f2f5e9" fill-opacity="0.5" stroke="#606060" stroke-width="1.0"/>
           <path id="arrow"
             d="M 11.500037,31.436501 C 11.940474,20.09759 22.043105,11.32322 32.158766,21.979434 L 37.068811,17.246167 C 37.068811,17.246167 37.088388,32 37.088388,32 L 22.160133,31.978069 C 22.160133,31.978069 26.997745,27.140456 26.997745,27.140456 C 18.528582,18.264221 13.291696,25.230495 11.500037,31.436501 z"
             style="fill:#404040;"/>
          </a>
         </g>
        </svg>
</svg>
