<?xml version="1.0" encoding="UTF-8" standalone="no"?>
<!DOCTYPE svg PUBLIC "-//W3C//DTD SVG 1.1//EN"
 "http://www.w3.org/Graphics/SVG/1.1/DTD/svg11.dtd">
<!-- Generated by graphviz version 2.38.0 (20140413.2041)
 -->
<!-- Title: src/Controls/Control.cpp Pages: 1 -->
<svg width="482pt" height="420pt"
 viewBox="0.00 0.00 482.00 420.00" xmlns="http://www.w3.org/2000/svg" xmlns:xlink="http://www.w3.org/1999/xlink">
<g id="graph0" class="graph" transform="scale(1 1) rotate(0) translate(4 416)">
<title>src/Controls/Control.cpp</title>
<polygon fill="white" stroke="none" points="-4,4 -4,-416 478,-416 478,4 -4,4"/>
<!-- Node1 -->
<g id="node1" class="node"><title>Node1</title>
<g id="a_node1"><a xlink:title=" ">
<polygon fill="#bfbfbf" stroke="black" points="298,-392.5 298,-411.5 420,-411.5 420,-392.5 298,-392.5"/>
<text text-anchor="middle" x="359" y="-399.5" font-family="Helvetica,sans-Serif" font-size="10.00">src/Controls/Control.cpp</text>
</a>
</g>
</g>
<!-- Node2 -->
<g id="node2" class="node"><title>Node2</title>
<g id="a_node2"><a xlink:href="dbg__new_8h.html" target="_top" xlink:title=" ">
<polygon fill="white" stroke="black" points="170.5,-336.5 170.5,-355.5 233.5,-355.5 233.5,-336.5 170.5,-336.5"/>
<text text-anchor="middle" x="202" y="-343.5" font-family="Helvetica,sans-Serif" font-size="10.00">dbg_new.h</text>
</a>
</g>
</g>
<!-- Node1&#45;&gt;Node2 -->
<g id="edge1" class="edge"><title>Node1&#45;&gt;Node2</title>
<path fill="none" stroke="midnightblue" d="M334.123,-392.444C307.711,-383.359 265.785,-368.939 236.258,-358.783"/>
<polygon fill="midnightblue" stroke="midnightblue" points="237.355,-355.459 226.761,-355.516 235.079,-362.079 237.355,-355.459"/>
</g>
<!-- Node10 -->
<g id="node10" class="node"><title>Node10</title>
<g id="a_node10"><a xlink:href="_control_8h.html" target="_top" xlink:title=" ">
<polygon fill="white" stroke="black" points="254,-112.5 254,-131.5 310,-131.5 310,-112.5 254,-112.5"/>
<text text-anchor="middle" x="282" y="-119.5" font-family="Helvetica,sans-Serif" font-size="10.00">Control.h</text>
</a>
</g>
</g>
<!-- Node1&#45;&gt;Node10 -->
<g id="edge18" class="edge"><title>Node1&#45;&gt;Node10</title>
<path fill="none" stroke="midnightblue" d="M355.898,-392.289C349.62,-373.856 336,-329.435 336,-291 336,-291 336,-291 336,-233 336,-202.902 330.704,-194.797 317,-168 311.716,-157.667 303.929,-147.358 297.04,-139.219"/>
<polygon fill="midnightblue" stroke="midnightblue" points="299.571,-136.797 290.33,-131.614 294.321,-141.428 299.571,-136.797"/>
</g>
<!-- Node17 -->
<g id="node17" class="node"><title>Node17</title>
<g id="a_node17"><a xlink:title=" ">
<polygon fill="white" stroke="#bfbfbf" points="364.5,-336.5 364.5,-355.5 399.5,-355.5 399.5,-336.5 364.5,-336.5"/>
<text text-anchor="middle" x="382" y="-343.5" font-family="Helvetica,sans-Serif" font-size="10.00">map</text>
</a>
</g>
</g>
<!-- Node1&#45;&gt;Node17 -->
<g id="edge19" class="edge"><title>Node1&#45;&gt;Node17</title>
<path fill="none" stroke="midnightblue" d="M362.798,-392.083C365.913,-384.77 370.423,-374.181 374.289,-365.103"/>
<polygon fill="midnightblue" stroke="midnightblue" points="377.574,-366.323 378.273,-355.751 371.134,-363.58 377.574,-366.323"/>
</g>
<!-- Node18 -->
<g id="node18" class="node"><title>Node18</title>
<g id="a_node18"><a xlink:title=" ">
<polygon fill="white" stroke="#bfbfbf" points="418,-336.5 418,-355.5 474,-355.5 474,-336.5 418,-336.5"/>
<text text-anchor="middle" x="446" y="-343.5" font-family="Helvetica,sans-Serif" font-size="10.00">algorithm</text>
</a>
</g>
</g>
<!-- Node1&#45;&gt;Node18 -->
<g id="edge20" class="edge"><title>Node1&#45;&gt;Node18</title>
<path fill="none" stroke="midnightblue" d="M372.978,-392.324C386.55,-383.9 407.38,-370.971 423.325,-361.074"/>
<polygon fill="midnightblue" stroke="midnightblue" points="425.406,-363.902 432.057,-355.655 421.714,-357.954 425.406,-363.902"/>
</g>
<!-- Node3 -->
<g id="node3" class="node"><title>Node3</title>
<g id="a_node3"><a xlink:href="utils_8hpp.html" target="_top" xlink:title=" ">
<polygon fill="white" stroke="black" points="175.5,-280.5 175.5,-299.5 228.5,-299.5 228.5,-280.5 175.5,-280.5"/>
<text text-anchor="middle" x="202" y="-287.5" font-family="Helvetica,sans-Serif" font-size="10.00">utils.hpp</text>
</a>
</g>
</g>
<!-- Node2&#45;&gt;Node3 -->
<g id="edge2" class="edge"><title>Node2&#45;&gt;Node3</title>
<path fill="none" stroke="midnightblue" d="M202,-336.083C202,-329.006 202,-318.861 202,-309.986"/>
<polygon fill="midnightblue" stroke="midnightblue" points="205.5,-309.751 202,-299.751 198.5,-309.751 205.5,-309.751"/>
</g>
<!-- Node15 -->
<g id="node15" class="node"><title>Node15</title>
<g id="a_node15"><a xlink:title=" ">
<polygon fill="white" stroke="#bfbfbf" points="0,-56.5 0,-75.5 52,-75.5 52,-56.5 0,-56.5"/>
<text text-anchor="middle" x="26" y="-63.5" font-family="Helvetica,sans-Serif" font-size="10.00">assert.h</text>
</a>
</g>
</g>
<!-- Node2&#45;&gt;Node15 -->
<g id="edge17" class="edge"><title>Node2&#45;&gt;Node15</title>
<path fill="none" stroke="midnightblue" d="M170.438,-342.188C113.625,-335.21 0,-311.67 0,-235 0,-235 0,-235 0,-177 0,-143.929 11.2677,-106.729 18.9678,-85.1685"/>
<polygon fill="midnightblue" stroke="midnightblue" points="22.293,-86.2679 22.4935,-75.675 15.7309,-83.8308 22.293,-86.2679"/>
</g>
<!-- Node4 -->
<g id="node4" class="node"><title>Node4</title>
<g id="a_node4"><a xlink:href="output_8hpp.html" target="_top" xlink:title=" ">
<polygon fill="white" stroke="black" points="131,-224.5 131,-243.5 193,-243.5 193,-224.5 131,-224.5"/>
<text text-anchor="middle" x="162" y="-231.5" font-family="Helvetica,sans-Serif" font-size="10.00">output.hpp</text>
</a>
</g>
</g>
<!-- Node3&#45;&gt;Node4 -->
<g id="edge3" class="edge"><title>Node3&#45;&gt;Node4</title>
<path fill="none" stroke="midnightblue" d="M195.395,-280.083C189.745,-272.455 181.455,-261.264 174.549,-251.941"/>
<polygon fill="midnightblue" stroke="midnightblue" points="177.247,-249.703 168.482,-243.751 171.622,-253.87 177.247,-249.703"/>
</g>
<!-- Node16 -->
<g id="node16" class="node"><title>Node16</title>
<g id="a_node16"><a xlink:title=" ">
<polygon fill="white" stroke="#bfbfbf" points="211.5,-224.5 211.5,-243.5 270.5,-243.5 270.5,-224.5 211.5,-224.5"/>
<text text-anchor="middle" x="241" y="-231.5" font-family="Helvetica,sans-Serif" font-size="10.00">exception</text>
</a>
</g>
</g>
<!-- Node3&#45;&gt;Node16 -->
<g id="edge16" class="edge"><title>Node3&#45;&gt;Node16</title>
<path fill="none" stroke="midnightblue" d="M208.44,-280.083C213.949,-272.455 222.031,-261.264 228.765,-251.941"/>
<polygon fill="midnightblue" stroke="midnightblue" points="231.662,-253.907 234.68,-243.751 225.987,-249.809 231.662,-253.907"/>
</g>
<!-- Node5 -->
<g id="node5" class="node"><title>Node5</title>
<g id="a_node5"><a xlink:title=" ">
<polygon fill="white" stroke="#bfbfbf" points="28,-168.5 28,-187.5 80,-187.5 80,-168.5 28,-168.5"/>
<text text-anchor="middle" x="54" y="-175.5" font-family="Helvetica,sans-Serif" font-size="10.00">stdarg.h</text>
</a>
</g>
</g>
<!-- Node4&#45;&gt;Node5 -->
<g id="edge4" class="edge"><title>Node4&#45;&gt;Node5</title>
<path fill="none" stroke="midnightblue" d="M144.648,-224.324C127.328,-215.664 100.485,-202.242 80.4981,-192.249"/>
<polygon fill="midnightblue" stroke="midnightblue" points="81.8186,-188.996 71.309,-187.655 78.688,-195.257 81.8186,-188.996"/>
</g>
<!-- Node6 -->
<g id="node6" class="node"><title>Node6</title>
<g id="a_node6"><a xlink:title=" ">
<polygon fill="white" stroke="#bfbfbf" points="96.5,-56.5 96.5,-75.5 137.5,-75.5 137.5,-56.5 96.5,-56.5"/>
<text text-anchor="middle" x="117" y="-63.5" font-family="Helvetica,sans-Serif" font-size="10.00">string</text>
</a>
</g>
</g>
<!-- Node4&#45;&gt;Node6 -->
<g id="edge5" class="edge"><title>Node4&#45;&gt;Node6</title>
<path fill="none" stroke="midnightblue" d="M152.718,-224.35C144.378,-215.949 132.608,-202.385 127,-188 113.648,-153.753 113.846,-110.018 115.33,-85.6117"/>
<polygon fill="midnightblue" stroke="midnightblue" points="118.824,-85.8189 116.083,-75.5849 111.844,-85.2947 118.824,-85.8189"/>
</g>
<!-- Node7 -->
<g id="node7" class="node"><title>Node7</title>
<g id="a_node7"><a xlink:title=" ">
<polygon fill="white" stroke="#bfbfbf" points="136,-168.5 136,-187.5 188,-187.5 188,-168.5 136,-168.5"/>
<text text-anchor="middle" x="162" y="-175.5" font-family="Helvetica,sans-Serif" font-size="10.00">sstream</text>
</a>
</g>
</g>
<!-- Node4&#45;&gt;Node7 -->
<g id="edge6" class="edge"><title>Node4&#45;&gt;Node7</title>
<path fill="none" stroke="midnightblue" d="M162,-224.083C162,-217.006 162,-206.861 162,-197.986"/>
<polygon fill="midnightblue" stroke="midnightblue" points="165.5,-197.751 162,-187.751 158.5,-197.751 165.5,-197.751"/>
</g>
<!-- Node8 -->
<g id="node8" class="node"><title>Node8</title>
<g id="a_node8"><a xlink:title=" ">
<polygon fill="white" stroke="#bfbfbf" points="206,-168.5 206,-187.5 248,-187.5 248,-168.5 206,-168.5"/>
<text text-anchor="middle" x="227" y="-175.5" font-family="Helvetica,sans-Serif" font-size="10.00">vector</text>
</a>
</g>
</g>
<!-- Node4&#45;&gt;Node8 -->
<g id="edge7" class="edge"><title>Node4&#45;&gt;Node8</title>
<path fill="none" stroke="midnightblue" d="M172.443,-224.324C182.146,-216.263 196.815,-204.077 208.5,-194.369"/>
<polygon fill="midnightblue" stroke="midnightblue" points="210.911,-196.916 216.367,-187.834 206.438,-191.532 210.911,-196.916"/>
</g>
<!-- Node9 -->
<g id="node9" class="node"><title>Node9</title>
<g id="a_node9"><a xlink:href="_edit_8h.html" target="_top" xlink:title=" ">
<polygon fill="white" stroke="black" points="266,-168.5 266,-187.5 308,-187.5 308,-168.5 266,-168.5"/>
<text text-anchor="middle" x="287" y="-175.5" font-family="Helvetica,sans-Serif" font-size="10.00">Edit.h</text>
</a>
</g>
</g>
<!-- Node4&#45;&gt;Node9 -->
<g id="edge8" class="edge"><title>Node4&#45;&gt;Node9</title>
<path fill="none" stroke="midnightblue" d="M181.807,-224.444C202.287,-215.596 234.483,-201.687 257.865,-191.586"/>
<polygon fill="midnightblue" stroke="midnightblue" points="259.494,-194.695 267.286,-187.516 256.718,-188.269 259.494,-194.695"/>
</g>
<!-- Node9&#45;&gt;Node10 -->
<g id="edge9" class="edge"><title>Node9&#45;&gt;Node10</title>
<path fill="none" stroke="midnightblue" d="M286.174,-168.083C285.519,-161.006 284.58,-150.861 283.758,-141.986"/>
<polygon fill="midnightblue" stroke="midnightblue" points="287.217,-141.386 282.81,-131.751 280.247,-142.031 287.217,-141.386"/>
</g>
<!-- Node10&#45;&gt;Node6 -->
<g id="edge11" class="edge"><title>Node10&#45;&gt;Node6</title>
<path fill="none" stroke="midnightblue" d="M255.855,-112.444C226.464,-102.825 178.795,-87.2238 147.669,-77.0372"/>
<polygon fill="midnightblue" stroke="midnightblue" points="148.391,-73.5907 137.798,-73.8067 146.213,-80.2435 148.391,-73.5907"/>
</g>
<!-- Node11 -->
<g id="node11" class="node"><title>Node11</title>
<g id="a_node11"><a xlink:title=" ">
<polygon fill="white" stroke="#bfbfbf" points="251,-56.5 251,-75.5 313,-75.5 313,-56.5 251,-56.5"/>
<text text-anchor="middle" x="282" y="-63.5" font-family="Helvetica,sans-Serif" font-size="10.00">windows.h</text>
</a>
</g>
</g>
<!-- Node10&#45;&gt;Node11 -->
<g id="edge10" class="edge"><title>Node10&#45;&gt;Node11</title>
<path fill="none" stroke="midnightblue" d="M282,-112.083C282,-105.006 282,-94.8611 282,-85.9865"/>
<polygon fill="midnightblue" stroke="midnightblue" points="285.5,-85.751 282,-75.7511 278.5,-85.7511 285.5,-85.751"/>
</g>
<!-- Node12 -->
<g id="node12" class="node"><title>Node12</title>
<g id="a_node12"><a xlink:title=" ">
<polygon fill="white" stroke="#bfbfbf" points="331,-56.5 331,-75.5 383,-75.5 383,-56.5 331,-56.5"/>
<text text-anchor="middle" x="357" y="-63.5" font-family="Helvetica,sans-Serif" font-size="10.00">memory</text>
</a>
</g>
</g>
<!-- Node10&#45;&gt;Node12 -->
<g id="edge12" class="edge"><title>Node10&#45;&gt;Node12</title>
<path fill="none" stroke="midnightblue" d="M294.05,-112.324C305.463,-104.107 322.831,-91.6017 336.435,-81.8069"/>
<polygon fill="midnightblue" stroke="midnightblue" points="338.66,-84.5174 344.731,-75.8339 334.57,-78.8366 338.66,-84.5174"/>
</g>
<!-- Node13 -->
<g id="node13" class="node"><title>Node13</title>
<g id="a_node13"><a xlink:href="_property_8hpp.html" target="_top" xlink:title=" ">
<polygon fill="white" stroke="black" points="161,-56.5 161,-75.5 233,-75.5 233,-56.5 161,-56.5"/>
<text text-anchor="middle" x="197" y="-63.5" font-family="Helvetica,sans-Serif" font-size="10.00">Property.hpp</text>
</a>
</g>
</g>
<!-- Node10&#45;&gt;Node13 -->
<g id="edge13" class="edge"><title>Node10&#45;&gt;Node13</title>
<path fill="none" stroke="midnightblue" d="M268.343,-112.324C255.084,-103.9 234.732,-90.9709 219.154,-81.0741"/>
<polygon fill="midnightblue" stroke="midnightblue" points="220.94,-78.0626 210.623,-75.6545 217.187,-83.9711 220.94,-78.0626"/>
</g>
<!-- Node10&#45;&gt;Node15 -->
<g id="edge15" class="edge"><title>Node10&#45;&gt;Node15</title>
<path fill="none" stroke="midnightblue" d="M253.625,-115.015C206.858,-105.15 113.654,-85.4895 62.2038,-74.6367"/>
<polygon fill="midnightblue" stroke="midnightblue" points="62.7005,-71.1646 52.1934,-72.5252 61.2557,-78.0139 62.7005,-71.1646"/>
</g>
<!-- Node14 -->
<g id="node14" class="node"><title>Node14</title>
<g id="a_node14"><a xlink:title=" ">
<polygon fill="white" stroke="#bfbfbf" points="168,-0.5 168,-19.5 226,-19.5 226,-0.5 168,-0.5"/>
<text text-anchor="middle" x="197" y="-7.5" font-family="Helvetica,sans-Serif" font-size="10.00">functional</text>
</a>
</g>
</g>
<!-- Node13&#45;&gt;Node14 -->
<g id="edge14" class="edge"><title>Node13&#45;&gt;Node14</title>
<path fill="none" stroke="midnightblue" d="M197,-56.083C197,-49.0059 197,-38.8611 197,-29.9865"/>
<polygon fill="midnightblue" stroke="midnightblue" points="200.5,-29.751 197,-19.7511 193.5,-29.7511 200.5,-29.751"/>
</g>
</g>
</svg>
