<?xml version="1.0" encoding="UTF-8" standalone="no"?>
<!DOCTYPE svg PUBLIC "-//W3C//DTD SVG 1.1//EN"
 "http://www.w3.org/Graphics/SVG/1.1/DTD/svg11.dtd">
<!-- Generated by graphviz version 2.38.0 (20140413.2041)
 -->
<!-- Title: src/Controls/Control.h Pages: 1 -->
<!--zoomable 364 -->
<svg id="main" version="1.1" xmlns="http://www.w3.org/2000/svg" xmlns:xlink="http://www.w3.org/1999/xlink" xml:space="preserve" onload="init(evt)">
<style type="text/css"><![CDATA[
.edge:hover path { stroke: red; }
.edge:hover polygon { stroke: red; fill: red; }
]]></style>
<script type="text/javascript"><![CDATA[
var edges = document.getElementsByTagName('g');
if (edges && edges.length) {
  for (var i=0;i<edges.length;i++) {
    if (edges[i].id.substr(0,4)=='edge') {
      edges[i].setAttribute('class','edge');
    }
  }
}
]]></script>
        <defs>
                <circle id="rim" cx="0" cy="0" r="7"/>
                <circle id="rim2" cx="0" cy="0" r="3.5"/>
                <g id="zoomPlus">
                        <use xlink:href="#rim" fill="#404040">
                                <set attributeName="fill" to="#808080" begin="zoomplus.mouseover" end="zoomplus.mouseout"/>
                        </use>
                        <path d="M-4,0h8M0,-4v8" fill="none" stroke="white" stroke-width="1.5" pointer-events="none"/>
                </g>
                <g id="zoomMin">
                        <use xlink:href="#rim" fill="#404040">
                                <set attributeName="fill" to="#808080" begin="zoomminus.mouseover" end="zoomminus.mouseout"/>
                        </use>
                        <path d="M-4,0h8" fill="none" stroke="white" stroke-width="1.5" pointer-events="none"/>
                </g>
                <g id="dirArrow">
                        <path fill="none" stroke="white" stroke-width="1.5" d="M0,-3.0v7 M-2.5,-0.5L0,-3.0L2.5,-0.5"/>
                </g>
               <g id="resetDef">
                       <use xlink:href="#rim2" fill="#404040">
                               <set attributeName="fill" to="#808080" begin="reset.mouseover" end="reset.mouseout"/>
                       </use>
               </g>
        </defs>

<script type="text/javascript">
var viewWidth = 1304;
var viewHeight = 364;
var sectionId = 'dynsection-1';
</script>
<script xlink:href="svgpan.js"/>
<svg id="graph" class="graph">
<g id="viewport">
<title>src/Controls/Control.h</title>
<polygon fill="white" stroke="none" points="-4,4 -4,-360 1300,-360 1300,4 -4,4"/>
<!-- Node1 -->
<g id="node1" class="node"><title>Node1</title>
<g id="a_node1"><a xlink:title=" ">
<polygon fill="#bfbfbf" stroke="black" points="821.5,-336.5 821.5,-355.5 932.5,-355.5 932.5,-336.5 821.5,-336.5"/>
<text text-anchor="middle" x="877" y="-343.5" font-family="Helvetica,sans-Serif" font-size="10.00">src/Controls/Control.h</text>
</a>
</g>
</g>
<!-- Node2 -->
<g id="node2" class="node"><title>Node2</title>
<g id="a_node2"><a xlink:href="_button_8h.html" target="_top" xlink:title=" ">
<polygon fill="white" stroke="black" points="621.5,-112.5 621.5,-131.5 730.5,-131.5 730.5,-112.5 621.5,-112.5"/>
<text text-anchor="middle" x="676" y="-119.5" font-family="Helvetica,sans-Serif" font-size="10.00">src/Controls/Button.h</text>
</a>
</g>
</g>
<!-- Node1&#45;&gt;Node2 -->
<g id="edge1" class="edge"><title>Node1&#45;&gt;Node2</title>
<path fill="none" stroke="midnightblue" d="M811.355,-335.945C767.73,-328.535 715.836,-316.565 701,-300 656.692,-250.528 668.991,-160.081 674.22,-131.735"/>
<polygon fill="midnightblue" stroke="midnightblue" points="810.942,-339.424 821.378,-337.594 812.078,-332.517 810.942,-339.424"/>
</g>
<!-- Node5 -->
<g id="node5" class="node"><title>Node5</title>
<g id="a_node5"><a xlink:href="_control_8cpp.html" target="_top" xlink:title=" ">
<polygon fill="white" stroke="black" points="1174,-56.5 1174,-75.5 1296,-75.5 1296,-56.5 1174,-56.5"/>
<text text-anchor="middle" x="1235" y="-63.5" font-family="Helvetica,sans-Serif" font-size="10.00">src/Controls/Control.cpp</text>
</a>
</g>
</g>
<!-- Node1&#45;&gt;Node5 -->
<g id="edge4" class="edge"><title>Node1&#45;&gt;Node5</title>
<path fill="none" stroke="midnightblue" d="M933.215,-334.431C1013.92,-317.627 1153,-281.869 1153,-235 1153,-235 1153,-235 1153,-177 1153,-131.266 1199.13,-92.2582 1222.19,-75.6125"/>
<polygon fill="midnightblue" stroke="midnightblue" points="932.291,-331.047 923.196,-336.482 933.695,-337.905 932.291,-331.047"/>
</g>
<!-- Node6 -->
<g id="node6" class="node"><title>Node6</title>
<g id="a_node6"><a xlink:href="_edit_8h.html" target="_top" xlink:title=" ">
<polygon fill="white" stroke="black" points="710,-280.5 710,-299.5 808,-299.5 808,-280.5 710,-280.5"/>
<text text-anchor="middle" x="759" y="-287.5" font-family="Helvetica,sans-Serif" font-size="10.00">src/Controls/Edit.h</text>
</a>
</g>
</g>
<!-- Node1&#45;&gt;Node6 -->
<g id="edge5" class="edge"><title>Node1&#45;&gt;Node6</title>
<path fill="none" stroke="midnightblue" d="M849.1,-332.232C827.027,-322.131 796.824,-308.309 777.61,-299.516"/>
<polygon fill="midnightblue" stroke="midnightblue" points="847.753,-335.465 858.303,-336.444 850.666,-329.1 847.753,-335.465"/>
</g>
<!-- Node21 -->
<g id="node21" class="node"><title>Node21</title>
<g id="a_node21"><a xlink:href="_progress_8h.html" target="_top" xlink:title=" ">
<polygon fill="white" stroke="black" points="787.5,-112.5 787.5,-131.5 906.5,-131.5 906.5,-112.5 787.5,-112.5"/>
<text text-anchor="middle" x="847" y="-119.5" font-family="Helvetica,sans-Serif" font-size="10.00">src/Controls/Progress.h</text>
</a>
</g>
</g>
<!-- Node1&#45;&gt;Node21 -->
<g id="edge29" class="edge"><title>Node1&#45;&gt;Node21</title>
<path fill="none" stroke="midnightblue" d="M874.472,-326.295C868.303,-280.644 852.656,-164.854 848.201,-131.884"/>
<polygon fill="midnightblue" stroke="midnightblue" points="871.016,-326.856 875.824,-336.297 877.953,-325.919 871.016,-326.856"/>
</g>
<!-- Node3 -->
<g id="node3" class="node"><title>Node3</title>
<g id="a_node3"><a xlink:href="_button_8cpp.html" target="_top" xlink:title=" ">
<polygon fill="white" stroke="black" points="637.5,-56.5 637.5,-75.5 756.5,-75.5 756.5,-56.5 637.5,-56.5"/>
<text text-anchor="middle" x="697" y="-63.5" font-family="Helvetica,sans-Serif" font-size="10.00">src/Controls/Button.cpp</text>
</a>
</g>
</g>
<!-- Node2&#45;&gt;Node3 -->
<g id="edge2" class="edge"><title>Node2&#45;&gt;Node3</title>
<path fill="none" stroke="midnightblue" d="M683.121,-102.69C686.66,-93.589 690.772,-83.0141 693.597,-75.7511"/>
<polygon fill="midnightblue" stroke="midnightblue" points="679.83,-101.494 679.468,-112.083 686.354,-104.032 679.83,-101.494"/>
</g>
<!-- Node4 -->
<g id="node4" class="node"><title>Node4</title>
<g id="a_node4"><a xlink:href="main_8cpp.html" target="_top" xlink:title=" ">
<polygon fill="white" stroke="black" points="546.5,-56.5 546.5,-75.5 619.5,-75.5 619.5,-56.5 546.5,-56.5"/>
<text text-anchor="middle" x="583" y="-63.5" font-family="Helvetica,sans-Serif" font-size="10.00">src/main.cpp</text>
</a>
</g>
</g>
<!-- Node2&#45;&gt;Node4 -->
<g id="edge3" class="edge"><title>Node2&#45;&gt;Node4</title>
<path fill="none" stroke="midnightblue" d="M652.194,-107.177C635.081,-97.2407 612.535,-84.1492 597.905,-75.6545"/>
<polygon fill="midnightblue" stroke="midnightblue" points="650.653,-110.329 661.058,-112.324 654.168,-104.276 650.653,-110.329"/>
</g>
<!-- Node6&#45;&gt;Node4 -->
<g id="edge8" class="edge"><title>Node6&#45;&gt;Node4</title>
<path fill="none" stroke="midnightblue" d="M741.319,-273.772C711.504,-247.365 650.7,-190.291 612,-132 599.698,-113.47 590.358,-88.8625 585.897,-75.8853"/>
<polygon fill="midnightblue" stroke="midnightblue" points="739.035,-276.424 748.863,-280.383 743.649,-271.16 739.035,-276.424"/>
</g>
<!-- Node7 -->
<g id="node7" class="node"><title>Node7</title>
<g id="a_node7"><a xlink:href="_thread_8cpp.html" target="_top" xlink:title=" ">
<polygon fill="white" stroke="black" points="774.5,-56.5 774.5,-75.5 881.5,-75.5 881.5,-56.5 774.5,-56.5"/>
<text text-anchor="middle" x="828" y="-63.5" font-family="Helvetica,sans-Serif" font-size="10.00">src/Base/Thread.cpp</text>
</a>
</g>
</g>
<!-- Node6&#45;&gt;Node7 -->
<g id="edge6" class="edge"><title>Node6&#45;&gt;Node7</title>
<path fill="none" stroke="midnightblue" d="M756.792,-270.007C753.746,-236.187 751.328,-164.189 778,-112 785.972,-96.4013 801.768,-83.6328 813.482,-75.7332"/>
<polygon fill="midnightblue" stroke="midnightblue" points="753.344,-270.692 757.848,-280.282 760.307,-269.976 753.344,-270.692"/>
</g>
<!-- Node8 -->
<g id="node8" class="node"><title>Node8</title>
<g id="a_node8"><a xlink:href="_edit_8cpp.html" target="_top" xlink:title=" ">
<polygon fill="white" stroke="black" points="1048,-56.5 1048,-75.5 1156,-75.5 1156,-56.5 1048,-56.5"/>
<text text-anchor="middle" x="1102" y="-63.5" font-family="Helvetica,sans-Serif" font-size="10.00">src/Controls/Edit.cpp</text>
</a>
</g>
</g>
<!-- Node6&#45;&gt;Node8 -->
<g id="edge7" class="edge"><title>Node6&#45;&gt;Node8</title>
<path fill="none" stroke="midnightblue" d="M782.773,-275.271C828.366,-248.742 930.942,-188.098 1014,-132 1042.49,-112.758 1074.68,-88.2325 1091.1,-75.5134"/>
<polygon fill="midnightblue" stroke="midnightblue" points="780.828,-272.353 773.936,-280.4 784.342,-278.407 780.828,-272.353"/>
</g>
<!-- Node9 -->
<g id="node9" class="node"><title>Node9</title>
<g id="a_node9"><a xlink:href="output_8hpp.html" target="_top" xlink:title=" ">
<polygon fill="white" stroke="black" points="502.5,-224.5 502.5,-243.5 581.5,-243.5 581.5,-224.5 502.5,-224.5"/>
<text text-anchor="middle" x="542" y="-231.5" font-family="Helvetica,sans-Serif" font-size="10.00">src/output.hpp</text>
</a>
</g>
</g>
<!-- Node6&#45;&gt;Node9 -->
<g id="edge9" class="edge"><title>Node6&#45;&gt;Node9</title>
<path fill="none" stroke="midnightblue" d="M714.892,-278.024C673.9,-267.823 613.696,-252.841 576.223,-243.516"/>
<polygon fill="midnightblue" stroke="midnightblue" points="714.066,-281.425 724.616,-280.444 715.757,-274.632 714.066,-281.425"/>
</g>
<!-- Node10 -->
<g id="node10" class="node"><title>Node10</title>
<g id="a_node10"><a xlink:href="_test_case_8h.html" target="_top" xlink:title=" ">
<polygon fill="white" stroke="black" points="420,-112.5 420,-131.5 524,-131.5 524,-112.5 420,-112.5"/>
<text text-anchor="middle" x="472" y="-119.5" font-family="Helvetica,sans-Serif" font-size="10.00">src/Test/TestCase.h</text>
</a>
</g>
</g>
<!-- Node9&#45;&gt;Node10 -->
<g id="edge10" class="edge"><title>Node9&#45;&gt;Node10</title>
<path fill="none" stroke="midnightblue" d="M524.918,-217.428C516.64,-209.247 507,-198.711 500,-188 487.901,-169.486 478.973,-144.872 474.739,-131.89"/>
<polygon fill="midnightblue" stroke="midnightblue" points="522.657,-220.108 532.308,-224.479 527.49,-215.044 522.657,-220.108"/>
</g>
<!-- Node18 -->
<g id="node18" class="node"><title>Node18</title>
<g id="a_node18"><a xlink:href="utils_8hpp.html" target="_top" xlink:title=" ">
<polygon fill="white" stroke="black" points="509,-168.5 509,-187.5 579,-187.5 579,-168.5 509,-168.5"/>
<text text-anchor="middle" x="544" y="-175.5" font-family="Helvetica,sans-Serif" font-size="10.00">src/utils.hpp</text>
</a>
</g>
</g>
<!-- Node9&#45;&gt;Node18 -->
<g id="edge19" class="edge"><title>Node9&#45;&gt;Node18</title>
<path fill="none" stroke="midnightblue" d="M542.711,-213.805C543.04,-204.91 543.416,-194.78 543.676,-187.751"/>
<polygon fill="midnightblue" stroke="midnightblue" points="539.203,-213.96 542.33,-224.083 546.198,-214.219 539.203,-213.96"/>
</g>
<!-- Node10&#45;&gt;Node4 -->
<g id="edge11" class="edge"><title>Node10&#45;&gt;Node4</title>
<path fill="none" stroke="midnightblue" d="M499.005,-107.862C519.588,-97.8492 547.345,-84.3458 565.21,-75.6545"/>
<polygon fill="midnightblue" stroke="midnightblue" points="497.295,-104.802 489.834,-112.324 500.358,-111.097 497.295,-104.802"/>
</g>
<!-- Node11 -->
<g id="node11" class="node"><title>Node11</title>
<g id="a_node11"><a xlink:href="_base_tests_8h.html" target="_top" xlink:title=" ">
<polygon fill="white" stroke="black" points="7,-56.5 7,-75.5 117,-75.5 117,-56.5 7,-56.5"/>
<text text-anchor="middle" x="62" y="-63.5" font-family="Helvetica,sans-Serif" font-size="10.00">src/Test/BaseTests.h</text>
</a>
</g>
</g>
<!-- Node10&#45;&gt;Node11 -->
<g id="edge12" class="edge"><title>Node10&#45;&gt;Node11</title>
<path fill="none" stroke="midnightblue" d="M409.275,-112.739C329.579,-102.242 193.281,-84.2907 117.301,-74.2836"/>
<polygon fill="midnightblue" stroke="midnightblue" points="409.285,-116.27 419.657,-114.106 410.199,-109.33 409.285,-116.27"/>
</g>
<!-- Node13 -->
<g id="node13" class="node"><title>Node13</title>
<g id="a_node13"><a xlink:href="_property_tests_8h.html" target="_top" xlink:title=" ">
<polygon fill="white" stroke="black" points="140,-56.5 140,-75.5 264,-75.5 264,-56.5 140,-56.5"/>
<text text-anchor="middle" x="202" y="-63.5" font-family="Helvetica,sans-Serif" font-size="10.00">src/Test/PropertyTests.h</text>
</a>
</g>
</g>
<!-- Node10&#45;&gt;Node13 -->
<g id="edge14" class="edge"><title>Node10&#45;&gt;Node13</title>
<path fill="none" stroke="midnightblue" d="M419.367,-110.473C368.339,-100.268 291.897,-84.9794 244.582,-75.5164"/>
<polygon fill="midnightblue" stroke="midnightblue" points="418.725,-113.914 429.218,-112.444 420.098,-107.05 418.725,-113.914"/>
</g>
<!-- Node15 -->
<g id="node15" class="node"><title>Node15</title>
<g id="a_node15"><a xlink:href="_test_case_8cpp.html" target="_top" xlink:title=" ">
<polygon fill="white" stroke="black" points="282.5,-56.5 282.5,-75.5 397.5,-75.5 397.5,-56.5 282.5,-56.5"/>
<text text-anchor="middle" x="340" y="-63.5" font-family="Helvetica,sans-Serif" font-size="10.00">src/Test/TestCase.cpp</text>
</a>
</g>
</g>
<!-- Node10&#45;&gt;Node15 -->
<g id="edge16" class="edge"><title>Node10&#45;&gt;Node15</title>
<path fill="none" stroke="midnightblue" d="M441.781,-108.638C417.01,-98.504 382.6,-84.4274 360.818,-75.5164"/>
<polygon fill="midnightblue" stroke="midnightblue" points="440.503,-111.897 451.084,-112.444 443.154,-105.418 440.503,-111.897"/>
</g>
<!-- Node16 -->
<g id="node16" class="node"><title>Node16</title>
<g id="a_node16"><a xlink:href="_value_tests_8h.html" target="_top" xlink:title=" ">
<polygon fill="white" stroke="black" points="416,-56.5 416,-75.5 528,-75.5 528,-56.5 416,-56.5"/>
<text text-anchor="middle" x="472" y="-63.5" font-family="Helvetica,sans-Serif" font-size="10.00">src/Test/ValueTests.h</text>
</a>
</g>
</g>
<!-- Node10&#45;&gt;Node16 -->
<g id="edge17" class="edge"><title>Node10&#45;&gt;Node16</title>
<path fill="none" stroke="midnightblue" d="M472,-101.805C472,-92.9102 472,-82.7798 472,-75.7511"/>
<polygon fill="midnightblue" stroke="midnightblue" points="468.5,-102.083 472,-112.083 475.5,-102.083 468.5,-102.083"/>
</g>
<!-- Node12 -->
<g id="node12" class="node"><title>Node12</title>
<g id="a_node12"><a xlink:href="_base_tests_8cpp.html" target="_top" xlink:title=" ">
<polygon fill="white" stroke="black" points="0,-0.5 0,-19.5 120,-19.5 120,-0.5 0,-0.5"/>
<text text-anchor="middle" x="60" y="-7.5" font-family="Helvetica,sans-Serif" font-size="10.00">src/Test/BaseTests.cpp</text>
</a>
</g>
</g>
<!-- Node11&#45;&gt;Node12 -->
<g id="edge13" class="edge"><title>Node11&#45;&gt;Node12</title>
<path fill="none" stroke="midnightblue" d="M61.2891,-45.8045C60.9596,-36.9102 60.5844,-26.7798 60.3241,-19.7511"/>
<polygon fill="midnightblue" stroke="midnightblue" points="57.8019,-46.2194 61.6697,-56.083 64.7971,-45.9603 57.8019,-46.2194"/>
</g>
<!-- Node14 -->
<g id="node14" class="node"><title>Node14</title>
<g id="a_node14"><a xlink:href="_property_tests_8cpp.html" target="_top" xlink:title=" ">
<polygon fill="white" stroke="black" points="138,-0.5 138,-19.5 272,-19.5 272,-0.5 138,-0.5"/>
<text text-anchor="middle" x="205" y="-7.5" font-family="Helvetica,sans-Serif" font-size="10.00">src/Test/PropertyTests.cpp</text>
</a>
</g>
</g>
<!-- Node13&#45;&gt;Node14 -->
<g id="edge15" class="edge"><title>Node13&#45;&gt;Node14</title>
<path fill="none" stroke="midnightblue" d="M203.066,-45.8045C203.561,-36.9102 204.123,-26.7798 204.514,-19.7511"/>
<polygon fill="midnightblue" stroke="midnightblue" points="199.556,-45.9042 202.495,-56.083 206.545,-46.2926 199.556,-45.9042"/>
</g>
<!-- Node17 -->
<g id="node17" class="node"><title>Node17</title>
<g id="a_node17"><a xlink:href="_value_tests_8cpp.html" target="_top" xlink:title=" ">
<polygon fill="white" stroke="black" points="411,-0.5 411,-19.5 533,-19.5 533,-0.5 411,-0.5"/>
<text text-anchor="middle" x="472" y="-7.5" font-family="Helvetica,sans-Serif" font-size="10.00">src/Test/ValueTests.cpp</text>
</a>
</g>
</g>
<!-- Node16&#45;&gt;Node17 -->
<g id="edge18" class="edge"><title>Node16&#45;&gt;Node17</title>
<path fill="none" stroke="midnightblue" d="M472,-45.8045C472,-36.9102 472,-26.7798 472,-19.7511"/>
<polygon fill="midnightblue" stroke="midnightblue" points="468.5,-46.083 472,-56.083 475.5,-46.083 468.5,-46.083"/>
</g>
<!-- Node18&#45;&gt;Node4 -->
<g id="edge27" class="edge"><title>Node18&#45;&gt;Node4</title>
<path fill="none" stroke="midnightblue" d="M550.497,-158.674C559.024,-134.625 573.644,-93.3881 579.954,-75.5914"/>
<polygon fill="midnightblue" stroke="midnightblue" points="547.103,-157.774 547.06,-168.368 553.701,-160.113 547.103,-157.774"/>
</g>
<!-- Node18&#45;&gt;Node10 -->
<g id="edge28" class="edge"><title>Node18&#45;&gt;Node10</title>
<path fill="none" stroke="midnightblue" d="M524.134,-162.101C511.177,-152.382 494.703,-140.027 483.779,-131.834"/>
<polygon fill="midnightblue" stroke="midnightblue" points="522.332,-165.124 532.432,-168.324 526.532,-159.524 522.332,-165.124"/>
</g>
<!-- Node19 -->
<g id="node19" class="node"><title>Node19</title>
<g id="a_node19"><a xlink:href="dbg__new_8h.html" target="_top" xlink:title=" ">
<polygon fill="white" stroke="black" points="925,-112.5 925,-131.5 1005,-131.5 1005,-112.5 925,-112.5"/>
<text text-anchor="middle" x="965" y="-119.5" font-family="Helvetica,sans-Serif" font-size="10.00">src/dbg_new.h</text>
</a>
</g>
</g>
<!-- Node18&#45;&gt;Node19 -->
<g id="edge20" class="edge"><title>Node18&#45;&gt;Node19</title>
<path fill="none" stroke="midnightblue" d="M589.36,-172.347C659.389,-164.971 797.982,-149.614 915,-132 918.227,-131.514 921.566,-130.981 924.916,-130.424"/>
<polygon fill="midnightblue" stroke="midnightblue" points="588.71,-168.895 579.129,-173.419 589.439,-175.857 588.71,-168.895"/>
</g>
<!-- Node19&#45;&gt;Node3 -->
<g id="edge22" class="edge"><title>Node19&#45;&gt;Node3</title>
<path fill="none" stroke="midnightblue" d="M914.835,-110.892C864.325,-100.715 787.254,-85.1855 739.615,-75.5865"/>
<polygon fill="midnightblue" stroke="midnightblue" points="914.383,-114.371 924.878,-112.916 915.766,-107.509 914.383,-114.371"/>
</g>
<!-- Node19&#45;&gt;Node4 -->
<g id="edge26" class="edge"><title>Node19&#45;&gt;Node4</title>
<path fill="none" stroke="midnightblue" d="M915.303,-112.046C915.202,-112.031 915.101,-112.015 915,-112 787.916,-92.6061 754.891,-96.6195 628,-76 625.326,-75.5655 622.569,-75.0877 619.797,-74.5857"/>
<polygon fill="midnightblue" stroke="midnightblue" points="914.486,-115.46 924.914,-113.591 915.596,-108.548 914.486,-115.46"/>
</g>
<!-- Node19&#45;&gt;Node5 -->
<g id="edge23" class="edge"><title>Node19&#45;&gt;Node5</title>
<path fill="none" stroke="midnightblue" d="M1014.95,-111.01C1065.95,-100.811 1144.27,-85.1466 1192.42,-75.5162"/>
<polygon fill="midnightblue" stroke="midnightblue" points="1014.25,-107.581 1005.13,-112.974 1015.62,-114.445 1014.25,-107.581"/>
</g>
<!-- Node19&#45;&gt;Node7 -->
<g id="edge21" class="edge"><title>Node19&#45;&gt;Node7</title>
<path fill="none" stroke="midnightblue" d="M933.977,-108.772C908.243,-98.6287 872.314,-84.4669 849.606,-75.5164"/>
<polygon fill="midnightblue" stroke="midnightblue" points="932.705,-112.033 943.292,-112.444 935.272,-105.52 932.705,-112.033"/>
</g>
<!-- Node19&#45;&gt;Node8 -->
<g id="edge24" class="edge"><title>Node19&#45;&gt;Node8</title>
<path fill="none" stroke="midnightblue" d="M996.023,-108.772C1021.76,-98.6287 1057.69,-84.4669 1080.39,-75.5164"/>
<polygon fill="midnightblue" stroke="midnightblue" points="994.728,-105.52 986.708,-112.444 997.295,-112.033 994.728,-105.52"/>
</g>
<!-- Node20 -->
<g id="node20" class="node"><title>Node20</title>
<g id="a_node20"><a xlink:href="_progress_8cpp.html" target="_top" xlink:title=" ">
<polygon fill="white" stroke="black" points="900,-56.5 900,-75.5 1030,-75.5 1030,-56.5 900,-56.5"/>
<text text-anchor="middle" x="965" y="-63.5" font-family="Helvetica,sans-Serif" font-size="10.00">src/Controls/Progress.cpp</text>
</a>
</g>
</g>
<!-- Node19&#45;&gt;Node20 -->
<g id="edge25" class="edge"><title>Node19&#45;&gt;Node20</title>
<path fill="none" stroke="midnightblue" d="M965,-101.805C965,-92.9102 965,-82.7798 965,-75.7511"/>
<polygon fill="midnightblue" stroke="midnightblue" points="961.5,-102.083 965,-112.083 968.5,-102.083 961.5,-102.083"/>
</g>
<!-- Node21&#45;&gt;Node4 -->
<g id="edge31" class="edge"><title>Node21&#45;&gt;Node4</title>
<path fill="none" stroke="midnightblue" d="M795.184,-110.401C743.408,-99.8108 665.133,-83.7999 619.535,-74.473"/>
<polygon fill="midnightblue" stroke="midnightblue" points="794.67,-113.869 805.168,-112.444 796.073,-107.01 794.67,-113.869"/>
</g>
<!-- Node21&#45;&gt;Node20 -->
<g id="edge30" class="edge"><title>Node21&#45;&gt;Node20</title>
<path fill="none" stroke="midnightblue" d="M874.9,-108.232C896.973,-98.1312 927.176,-84.3091 946.39,-75.5164"/>
<polygon fill="midnightblue" stroke="midnightblue" points="873.334,-105.1 865.697,-112.444 876.247,-111.465 873.334,-105.1"/>
</g>
</g>
</svg>
        <g id="navigator" transform="translate(0 0)" fill="#404254">
                <rect fill="#f2f5e9" fill-opacity="0.5" stroke="#606060" stroke-width=".5" x="0" y="0" width="60" height="60"/>
                <use id="zoomplus" xlink:href="#zoomPlus" x="17" y="9" onmousedown="handleZoom(evt,'in')"/>
                <use id="zoomminus" xlink:href="#zoomMin" x="42" y="9" onmousedown="handleZoom(evt,'out')"/>
                <use id="reset" xlink:href="#resetDef" x="30" y="36" onmousedown="handleReset()"/>
                <g id="arrowUp" xlink:href="#dirArrow" transform="translate(30 24)" onmousedown="handlePan(0,-1)">
                  <use xlink:href="#rim" fill="#404040">
                        <set attributeName="fill" to="#808080" begin="arrowUp.mouseover" end="arrowUp.mouseout"/>
                  </use>
                  <path fill="none" stroke="white" stroke-width="1.5" d="M0,-3.0v7 M-2.5,-0.5L0,-3.0L2.5,-0.5"/>
                </g>
                <g id="arrowRight" xlink:href="#dirArrow" transform="rotate(90) translate(36 -43)" onmousedown="handlePan(1,0)">
                  <use xlink:href="#rim" fill="#404040">
                        <set attributeName="fill" to="#808080" begin="arrowRight.mouseover" end="arrowRight.mouseout"/>
                  </use>
                  <path fill="none" stroke="white" stroke-width="1.5" d="M0,-3.0v7 M-2.5,-0.5L0,-3.0L2.5,-0.5"/>
                </g>
                <g id="arrowDown" xlink:href="#dirArrow" transform="rotate(180) translate(-30 -48)" onmousedown="handlePan(0,1)">
                  <use xlink:href="#rim" fill="#404040">
                        <set attributeName="fill" to="#808080" begin="arrowDown.mouseover" end="arrowDown.mouseout"/>
                  </use>
                  <path fill="none" stroke="white" stroke-width="1.5" d="M0,-3.0v7 M-2.5,-0.5L0,-3.0L2.5,-0.5"/>
                </g>
                <g id="arrowLeft" xlink:href="#dirArrow" transform="rotate(270) translate(-36 17)" onmousedown="handlePan(-1,0)">
                  <use xlink:href="#rim" fill="#404040">
                        <set attributeName="fill" to="#808080" begin="arrowLeft.mouseover" end="arrowLeft.mouseout"/>
                  </use>
                  <path fill="none" stroke="white" stroke-width="1.5" d="M0,-3.0v7 M-2.5,-0.5L0,-3.0L2.5,-0.5"/>
                </g>
        </g>
        <svg viewBox="0 0 15 15" width="100%" height="30px" preserveAspectRatio="xMaxYMin meet">
         <g id="arrow_out" transform="scale(0.3 0.3)">
          <a xlink:href="_control_8h__dep__incl_org.svg" target="_base">
           <rect id="button" ry="5" rx="5" y="6" x="6" height="38" width="38"
                fill="#f2f5e9" fill-opacity="0.5" stroke="#606060" stroke-width="1.0"/>
           <path id="arrow"
             d="M 11.500037,31.436501 C 11.940474,20.09759 22.043105,11.32322 32.158766,21.979434 L 37.068811,17.246167 C 37.068811,17.246167 37.088388,32 37.088388,32 L 22.160133,31.978069 C 22.160133,31.978069 26.997745,27.140456 26.997745,27.140456 C 18.528582,18.264221 13.291696,25.230495 11.500037,31.436501 z"
             style="fill:#404040;"/>
          </a>
         </g>
        </svg>
</svg>
