<?xml version="1.0" encoding="UTF-8" standalone="no"?>
<!DOCTYPE svg PUBLIC "-//W3C//DTD SVG 1.1//EN"
 "http://www.w3.org/Graphics/SVG/1.1/DTD/svg11.dtd">
<!-- Generated by graphviz version 2.38.0 (20140413.2041)
 -->
<!-- Title: src/Controls/Edit.cpp Pages: 1 -->
<!--zoomable 420 -->
<svg id="main" version="1.1" xmlns="http://www.w3.org/2000/svg" xmlns:xlink="http://www.w3.org/1999/xlink" xml:space="preserve" onload="init(evt)">
<style type="text/css"><![CDATA[
.edge:hover path { stroke: red; }
.edge:hover polygon { stroke: red; fill: red; }
]]></style>
<script type="text/javascript"><![CDATA[
var edges = document.getElementsByTagName('g');
if (edges && edges.length) {
  for (var i=0;i<edges.length;i++) {
    if (edges[i].id.substr(0,4)=='edge') {
      edges[i].setAttribute('class','edge');
    }
  }
}
]]></script>
        <defs>
                <circle id="rim" cx="0" cy="0" r="7"/>
                <circle id="rim2" cx="0" cy="0" r="3.5"/>
                <g id="zoomPlus">
                        <use xlink:href="#rim" fill="#404040">
                                <set attributeName="fill" to="#808080" begin="zoomplus.mouseover" end="zoomplus.mouseout"/>
                        </use>
                        <path d="M-4,0h8M0,-4v8" fill="none" stroke="white" stroke-width="1.5" pointer-events="none"/>
                </g>
                <g id="zoomMin">
                        <use xlink:href="#rim" fill="#404040">
                                <set attributeName="fill" to="#808080" begin="zoomminus.mouseover" end="zoomminus.mouseout"/>
                        </use>
                        <path d="M-4,0h8" fill="none" stroke="white" stroke-width="1.5" pointer-events="none"/>
                </g>
                <g id="dirArrow">
                        <path fill="none" stroke="white" stroke-width="1.5" d="M0,-3.0v7 M-2.5,-0.5L0,-3.0L2.5,-0.5"/>
                </g>
               <g id="resetDef">
                       <use xlink:href="#rim2" fill="#404040">
                               <set attributeName="fill" to="#808080" begin="reset.mouseover" end="reset.mouseout"/>
                       </use>
               </g>
        </defs>

<script type="text/javascript">
var viewWidth = 561;
var viewHeight = 420;
var sectionId = 'dynsection-0';
</script>
<script xlink:href="svgpan.js"/>
<svg id="graph" class="graph">
<g id="viewport">
<title>src/Controls/Edit.cpp</title>
<polygon fill="white" stroke="none" points="-4,4 -4,-416 557,-416 557,4 -4,4"/>
<!-- Node1 -->
<g id="node1" class="node"><title>Node1</title>
<g id="a_node1"><a xlink:title=" ">
<polygon fill="#bfbfbf" stroke="black" points="321,-392.5 321,-411.5 429,-411.5 429,-392.5 321,-392.5"/>
<text text-anchor="middle" x="375" y="-399.5" font-family="Helvetica,sans-Serif" font-size="10.00">src/Controls/Edit.cpp</text>
</a>
</g>
</g>
<!-- Node2 -->
<g id="node2" class="node"><title>Node2</title>
<g id="a_node2"><a xlink:href="dbg__new_8h.html" target="_top" xlink:title=" ">
<polygon fill="white" stroke="black" points="124.5,-336.5 124.5,-355.5 187.5,-355.5 187.5,-336.5 124.5,-336.5"/>
<text text-anchor="middle" x="156" y="-343.5" font-family="Helvetica,sans-Serif" font-size="10.00">dbg_new.h</text>
</a>
</g>
</g>
<!-- Node1&#45;&gt;Node2 -->
<g id="edge1" class="edge"><title>Node1&#45;&gt;Node2</title>
<path fill="none" stroke="midnightblue" d="M340.299,-392.444C301.524,-382.883 238.779,-367.411 197.454,-357.222"/>
<polygon fill="midnightblue" stroke="midnightblue" points="198.242,-353.811 187.695,-354.815 196.566,-360.607 198.242,-353.811"/>
</g>
<!-- Node9 -->
<g id="node9" class="node"><title>Node9</title>
<g id="a_node9"><a xlink:href="_edit_8h.html" target="_top" xlink:title=" ">
<polygon fill="white" stroke="black" points="305,-168.5 305,-187.5 347,-187.5 347,-168.5 305,-168.5"/>
<text text-anchor="middle" x="326" y="-175.5" font-family="Helvetica,sans-Serif" font-size="10.00">Edit.h</text>
</a>
</g>
</g>
<!-- Node1&#45;&gt;Node9 -->
<g id="edge19" class="edge"><title>Node1&#45;&gt;Node9</title>
<path fill="none" stroke="midnightblue" d="M372.042,-392.451C369,-383.455 364.259,-368.848 361,-356 346.527,-298.942 334.442,-230.275 329.038,-197.789"/>
<polygon fill="midnightblue" stroke="midnightblue" points="332.431,-196.847 327.358,-187.546 325.523,-197.981 332.431,-196.847"/>
</g>
<!-- Node12 -->
<g id="node12" class="node"><title>Node12</title>
<g id="a_node12"><a xlink:title=" ">
<polygon fill="white" stroke="#bfbfbf" points="400,-56.5 400,-75.5 452,-75.5 452,-56.5 400,-56.5"/>
<text text-anchor="middle" x="426" y="-63.5" font-family="Helvetica,sans-Serif" font-size="10.00">memory</text>
</a>
</g>
</g>
<!-- Node1&#45;&gt;Node12 -->
<g id="edge26" class="edge"><title>Node1&#45;&gt;Node12</title>
<path fill="none" stroke="midnightblue" d="M380.284,-392.231C390.725,-374.043 413,-330.601 413,-291 413,-291 413,-291 413,-177 413,-144.576 418.639,-107.146 422.49,-85.3688"/>
<polygon fill="midnightblue" stroke="midnightblue" points="425.935,-85.9853 424.3,-75.5172 419.05,-84.7196 425.935,-85.9853"/>
</g>
<!-- Node15 -->
<g id="node15" class="node"><title>Node15</title>
<g id="a_node15"><a xlink:title=" ">
<polygon fill="white" stroke="#bfbfbf" points="0,-56.5 0,-75.5 52,-75.5 52,-56.5 0,-56.5"/>
<text text-anchor="middle" x="26" y="-63.5" font-family="Helvetica,sans-Serif" font-size="10.00">assert.h</text>
</a>
</g>
</g>
<!-- Node1&#45;&gt;Node15 -->
<g id="edge18" class="edge"><title>Node1&#45;&gt;Node15</title>
<path fill="none" stroke="midnightblue" d="M320.617,-396.401C216.889,-386.121 1,-356.82 1,-291 1,-291 1,-291 1,-177 1,-143.995 11.8343,-106.774 19.2382,-85.1916"/>
<polygon fill="midnightblue" stroke="midnightblue" points="22.5653,-86.282 22.6284,-75.6873 15.9721,-83.9302 22.5653,-86.282"/>
</g>
<!-- Node17 -->
<g id="node17" class="node"><title>Node17</title>
<g id="a_node17"><a xlink:href="_thread_8h.html" target="_top" xlink:title=" ">
<polygon fill="white" stroke="black" points="292,-112.5 292,-131.5 346,-131.5 346,-112.5 292,-112.5"/>
<text text-anchor="middle" x="319" y="-119.5" font-family="Helvetica,sans-Serif" font-size="10.00">Thread.h</text>
</a>
</g>
</g>
<!-- Node1&#45;&gt;Node17 -->
<g id="edge20" class="edge"><title>Node1&#45;&gt;Node17</title>
<path fill="none" stroke="midnightblue" d="M375,-392.442C375,-373.936 375,-328.813 375,-291 375,-291 375,-291 375,-233 375,-202.902 370.066,-194.609 356,-168 350.399,-157.404 342.055,-146.975 334.708,-138.83"/>
<polygon fill="midnightblue" stroke="midnightblue" points="337.234,-136.407 327.832,-131.523 332.137,-141.204 337.234,-136.407"/>
</g>
<!-- Node19 -->
<g id="node19" class="node"><title>Node19</title>
<g id="a_node19"><a xlink:title=" ">
<polygon fill="white" stroke="#bfbfbf" points="441,-336.5 441,-355.5 497,-355.5 497,-336.5 441,-336.5"/>
<text text-anchor="middle" x="469" y="-343.5" font-family="Helvetica,sans-Serif" font-size="10.00">algorithm</text>
</a>
</g>
</g>
<!-- Node1&#45;&gt;Node19 -->
<g id="edge27" class="edge"><title>Node1&#45;&gt;Node19</title>
<path fill="none" stroke="midnightblue" d="M390.103,-392.324C404.903,-383.822 427.694,-370.729 444.982,-360.797"/>
<polygon fill="midnightblue" stroke="midnightblue" points="447.007,-363.671 453.935,-355.655 443.52,-357.601 447.007,-363.671"/>
</g>
<!-- Node20 -->
<g id="node20" class="node"><title>Node20</title>
<g id="a_node20"><a xlink:title=" ">
<polygon fill="white" stroke="#bfbfbf" points="515,-336.5 515,-355.5 553,-355.5 553,-336.5 515,-336.5"/>
<text text-anchor="middle" x="534" y="-343.5" font-family="Helvetica,sans-Serif" font-size="10.00">array</text>
</a>
</g>
</g>
<!-- Node1&#45;&gt;Node20 -->
<g id="edge28" class="edge"><title>Node1&#45;&gt;Node20</title>
<path fill="none" stroke="midnightblue" d="M400.194,-392.444C428.831,-382.718 475.475,-366.876 505.44,-356.7"/>
<polygon fill="midnightblue" stroke="midnightblue" points="506.569,-360.013 514.912,-353.483 504.318,-353.384 506.569,-360.013"/>
</g>
<!-- Node3 -->
<g id="node3" class="node"><title>Node3</title>
<g id="a_node3"><a xlink:href="utils_8hpp.html" target="_top" xlink:title=" ">
<polygon fill="white" stroke="black" points="129.5,-280.5 129.5,-299.5 182.5,-299.5 182.5,-280.5 129.5,-280.5"/>
<text text-anchor="middle" x="156" y="-287.5" font-family="Helvetica,sans-Serif" font-size="10.00">utils.hpp</text>
</a>
</g>
</g>
<!-- Node2&#45;&gt;Node3 -->
<g id="edge2" class="edge"><title>Node2&#45;&gt;Node3</title>
<path fill="none" stroke="midnightblue" d="M156,-336.083C156,-329.006 156,-318.861 156,-309.986"/>
<polygon fill="midnightblue" stroke="midnightblue" points="159.5,-309.751 156,-299.751 152.5,-309.751 159.5,-309.751"/>
</g>
<!-- Node2&#45;&gt;Node15 -->
<g id="edge17" class="edge"><title>Node2&#45;&gt;Node15</title>
<path fill="none" stroke="midnightblue" d="M134.54,-336.456C100.763,-321.428 39,-286.857 39,-235 39,-235 39,-235 39,-177 39,-144.576 33.3607,-107.146 29.5105,-85.3688"/>
<polygon fill="midnightblue" stroke="midnightblue" points="32.9499,-84.7196 27.6995,-75.5172 26.0652,-85.9853 32.9499,-84.7196"/>
</g>
<!-- Node4 -->
<g id="node4" class="node"><title>Node4</title>
<g id="a_node4"><a xlink:href="output_8hpp.html" target="_top" xlink:title=" ">
<polygon fill="white" stroke="black" points="165,-224.5 165,-243.5 227,-243.5 227,-224.5 165,-224.5"/>
<text text-anchor="middle" x="196" y="-231.5" font-family="Helvetica,sans-Serif" font-size="10.00">output.hpp</text>
</a>
</g>
</g>
<!-- Node3&#45;&gt;Node4 -->
<g id="edge3" class="edge"><title>Node3&#45;&gt;Node4</title>
<path fill="none" stroke="midnightblue" d="M162.605,-280.083C168.255,-272.455 176.545,-261.264 183.451,-251.941"/>
<polygon fill="midnightblue" stroke="midnightblue" points="186.378,-253.87 189.518,-243.751 180.753,-249.703 186.378,-253.87"/>
</g>
<!-- Node16 -->
<g id="node16" class="node"><title>Node16</title>
<g id="a_node16"><a xlink:title=" ">
<polygon fill="white" stroke="#bfbfbf" points="87.5,-224.5 87.5,-243.5 146.5,-243.5 146.5,-224.5 87.5,-224.5"/>
<text text-anchor="middle" x="117" y="-231.5" font-family="Helvetica,sans-Serif" font-size="10.00">exception</text>
</a>
</g>
</g>
<!-- Node3&#45;&gt;Node16 -->
<g id="edge16" class="edge"><title>Node3&#45;&gt;Node16</title>
<path fill="none" stroke="midnightblue" d="M149.56,-280.083C144.051,-272.455 135.969,-261.264 129.235,-251.941"/>
<polygon fill="midnightblue" stroke="midnightblue" points="132.013,-249.809 123.32,-243.751 126.338,-253.907 132.013,-249.809"/>
</g>
<!-- Node5 -->
<g id="node5" class="node"><title>Node5</title>
<g id="a_node5"><a xlink:title=" ">
<polygon fill="white" stroke="#bfbfbf" points="235,-168.5 235,-187.5 287,-187.5 287,-168.5 235,-168.5"/>
<text text-anchor="middle" x="261" y="-175.5" font-family="Helvetica,sans-Serif" font-size="10.00">stdarg.h</text>
</a>
</g>
</g>
<!-- Node4&#45;&gt;Node5 -->
<g id="edge4" class="edge"><title>Node4&#45;&gt;Node5</title>
<path fill="none" stroke="midnightblue" d="M206.443,-224.324C216.146,-216.263 230.815,-204.077 242.5,-194.369"/>
<polygon fill="midnightblue" stroke="midnightblue" points="244.911,-196.916 250.367,-187.834 240.438,-191.532 244.911,-196.916"/>
</g>
<!-- Node6 -->
<g id="node6" class="node"><title>Node6</title>
<g id="a_node6"><a xlink:title=" ">
<polygon fill="white" stroke="#bfbfbf" points="150.5,-56.5 150.5,-75.5 191.5,-75.5 191.5,-56.5 150.5,-56.5"/>
<text text-anchor="middle" x="171" y="-63.5" font-family="Helvetica,sans-Serif" font-size="10.00">string</text>
</a>
</g>
</g>
<!-- Node4&#45;&gt;Node6 -->
<g id="edge5" class="edge"><title>Node4&#45;&gt;Node6</title>
<path fill="none" stroke="midnightblue" d="M187.786,-224.182C180.456,-215.663 170.245,-202.019 166,-188 155.428,-153.083 161.485,-109.91 166.485,-85.7141"/>
<polygon fill="midnightblue" stroke="midnightblue" points="169.945,-86.2773 168.711,-75.7547 163.114,-84.7504 169.945,-86.2773"/>
</g>
<!-- Node7 -->
<g id="node7" class="node"><title>Node7</title>
<g id="a_node7"><a xlink:title=" ">
<polygon fill="white" stroke="#bfbfbf" points="67,-168.5 67,-187.5 119,-187.5 119,-168.5 67,-168.5"/>
<text text-anchor="middle" x="93" y="-175.5" font-family="Helvetica,sans-Serif" font-size="10.00">sstream</text>
</a>
</g>
</g>
<!-- Node4&#45;&gt;Node7 -->
<g id="edge6" class="edge"><title>Node4&#45;&gt;Node7</title>
<path fill="none" stroke="midnightblue" d="M179.451,-224.324C163.008,-215.703 137.565,-202.364 118.532,-192.386"/>
<polygon fill="midnightblue" stroke="midnightblue" points="119.989,-189.198 109.508,-187.655 116.739,-195.398 119.989,-189.198"/>
</g>
<!-- Node8 -->
<g id="node8" class="node"><title>Node8</title>
<g id="a_node8"><a xlink:title=" ">
<polygon fill="white" stroke="#bfbfbf" points="175,-168.5 175,-187.5 217,-187.5 217,-168.5 175,-168.5"/>
<text text-anchor="middle" x="196" y="-175.5" font-family="Helvetica,sans-Serif" font-size="10.00">vector</text>
</a>
</g>
</g>
<!-- Node4&#45;&gt;Node8 -->
<g id="edge7" class="edge"><title>Node4&#45;&gt;Node8</title>
<path fill="none" stroke="midnightblue" d="M196,-224.083C196,-217.006 196,-206.861 196,-197.986"/>
<polygon fill="midnightblue" stroke="midnightblue" points="199.5,-197.751 196,-187.751 192.5,-197.751 199.5,-197.751"/>
</g>
<!-- Node4&#45;&gt;Node9 -->
<g id="edge8" class="edge"><title>Node4&#45;&gt;Node9</title>
<path fill="none" stroke="midnightblue" d="M216.599,-224.444C237.993,-215.557 271.681,-201.563 296.024,-191.451"/>
<polygon fill="midnightblue" stroke="midnightblue" points="297.605,-194.585 305.497,-187.516 294.92,-188.12 297.605,-194.585"/>
</g>
<!-- Node10 -->
<g id="node10" class="node"><title>Node10</title>
<g id="a_node10"><a xlink:href="_control_8h.html" target="_top" xlink:title=" ">
<polygon fill="white" stroke="black" points="208,-112.5 208,-131.5 264,-131.5 264,-112.5 208,-112.5"/>
<text text-anchor="middle" x="236" y="-119.5" font-family="Helvetica,sans-Serif" font-size="10.00">Control.h</text>
</a>
</g>
</g>
<!-- Node9&#45;&gt;Node10 -->
<g id="edge9" class="edge"><title>Node9&#45;&gt;Node10</title>
<path fill="none" stroke="midnightblue" d="M311.54,-168.324C297.5,-159.9 275.952,-146.971 259.457,-137.074"/>
<polygon fill="midnightblue" stroke="midnightblue" points="260.8,-133.798 250.424,-131.655 257.198,-139.801 260.8,-133.798"/>
</g>
<!-- Node10&#45;&gt;Node6 -->
<g id="edge11" class="edge"><title>Node10&#45;&gt;Node6</title>
<path fill="none" stroke="midnightblue" d="M225.557,-112.324C215.854,-104.263 201.185,-92.0765 189.5,-82.3695"/>
<polygon fill="midnightblue" stroke="midnightblue" points="191.562,-79.532 181.633,-75.8339 187.089,-84.9163 191.562,-79.532"/>
</g>
<!-- Node11 -->
<g id="node11" class="node"><title>Node11</title>
<g id="a_node11"><a xlink:title=" ">
<polygon fill="white" stroke="#bfbfbf" points="70,-56.5 70,-75.5 132,-75.5 132,-56.5 70,-56.5"/>
<text text-anchor="middle" x="101" y="-63.5" font-family="Helvetica,sans-Serif" font-size="10.00">windows.h</text>
</a>
</g>
</g>
<!-- Node10&#45;&gt;Node11 -->
<g id="edge10" class="edge"><title>Node10&#45;&gt;Node11</title>
<path fill="none" stroke="midnightblue" d="M214.609,-112.444C192.293,-103.517 157.097,-89.4387 131.792,-79.3168"/>
<polygon fill="midnightblue" stroke="midnightblue" points="132.876,-75.9807 122.291,-75.5164 130.276,-82.4801 132.876,-75.9807"/>
</g>
<!-- Node10&#45;&gt;Node12 -->
<g id="edge12" class="edge"><title>Node10&#45;&gt;Node12</title>
<path fill="none" stroke="midnightblue" d="M264.035,-113.032C297.531,-103.512 353.626,-87.5695 390.22,-77.1691"/>
<polygon fill="midnightblue" stroke="midnightblue" points="391.327,-80.4932 399.989,-74.3926 389.413,-73.7598 391.327,-80.4932"/>
</g>
<!-- Node13 -->
<g id="node13" class="node"><title>Node13</title>
<g id="a_node13"><a xlink:href="_property_8hpp.html" target="_top" xlink:title=" ">
<polygon fill="white" stroke="black" points="210,-56.5 210,-75.5 282,-75.5 282,-56.5 210,-56.5"/>
<text text-anchor="middle" x="246" y="-63.5" font-family="Helvetica,sans-Serif" font-size="10.00">Property.hpp</text>
</a>
</g>
</g>
<!-- Node10&#45;&gt;Node13 -->
<g id="edge13" class="edge"><title>Node10&#45;&gt;Node13</title>
<path fill="none" stroke="midnightblue" d="M237.651,-112.083C238.976,-104.927 240.882,-94.6353 242.539,-85.6911"/>
<polygon fill="midnightblue" stroke="midnightblue" points="246,-86.2212 244.379,-75.7511 239.117,-84.9466 246,-86.2212"/>
</g>
<!-- Node10&#45;&gt;Node15 -->
<g id="edge15" class="edge"><title>Node10&#45;&gt;Node15</title>
<path fill="none" stroke="midnightblue" d="M207.678,-113.717C170.007,-104.03 103.383,-86.8984 62.1312,-76.2909"/>
<polygon fill="midnightblue" stroke="midnightblue" points="62.7799,-72.8439 52.2233,-73.7431 61.0366,-79.6233 62.7799,-72.8439"/>
</g>
<!-- Node14 -->
<g id="node14" class="node"><title>Node14</title>
<g id="a_node14"><a xlink:title=" ">
<polygon fill="white" stroke="#bfbfbf" points="249,-0.5 249,-19.5 307,-19.5 307,-0.5 249,-0.5"/>
<text text-anchor="middle" x="278" y="-7.5" font-family="Helvetica,sans-Serif" font-size="10.00">functional</text>
</a>
</g>
</g>
<!-- Node13&#45;&gt;Node14 -->
<g id="edge14" class="edge"><title>Node13&#45;&gt;Node14</title>
<path fill="none" stroke="midnightblue" d="M251.284,-56.083C255.711,-48.6127 262.163,-37.7244 267.618,-28.5199"/>
<polygon fill="midnightblue" stroke="midnightblue" points="270.727,-30.1383 272.814,-19.7511 264.705,-26.5697 270.727,-30.1383"/>
</g>
<!-- Node17&#45;&gt;Node6 -->
<g id="edge21" class="edge"><title>Node17&#45;&gt;Node6</title>
<path fill="none" stroke="midnightblue" d="M295.549,-112.444C270.141,-103.173 229.505,-88.3464 201.601,-78.1652"/>
<polygon fill="midnightblue" stroke="midnightblue" points="202.542,-74.783 191.948,-74.6433 200.143,-81.359 202.542,-74.783"/>
</g>
<!-- Node17&#45;&gt;Node12 -->
<g id="edge22" class="edge"><title>Node17&#45;&gt;Node12</title>
<path fill="none" stroke="midnightblue" d="M336.191,-112.324C353.351,-103.664 379.946,-90.2424 399.747,-80.249"/>
<polygon fill="midnightblue" stroke="midnightblue" points="401.501,-83.2847 408.851,-75.6545 398.347,-77.0354 401.501,-83.2847"/>
</g>
<!-- Node17&#45;&gt;Node13 -->
<g id="edge25" class="edge"><title>Node17&#45;&gt;Node13</title>
<path fill="none" stroke="midnightblue" d="M307.271,-112.324C296.163,-104.107 279.258,-91.6017 266.017,-81.8069"/>
<polygon fill="midnightblue" stroke="midnightblue" points="268.063,-78.9671 257.942,-75.8339 263.9,-84.5948 268.063,-78.9671"/>
</g>
<!-- Node17&#45;&gt;Node14 -->
<g id="edge24" class="edge"><title>Node17&#45;&gt;Node14</title>
<path fill="none" stroke="midnightblue" d="M315.783,-112.368C309.136,-94.5366 293.765,-53.2953 284.81,-29.2717"/>
<polygon fill="midnightblue" stroke="midnightblue" points="287.974,-27.7393 281.202,-19.5914 281.415,-30.1841 287.974,-27.7393"/>
</g>
<!-- Node18 -->
<g id="node18" class="node"><title>Node18</title>
<g id="a_node18"><a xlink:title=" ">
<polygon fill="white" stroke="#bfbfbf" points="338,-56.5 338,-75.5 382,-75.5 382,-56.5 338,-56.5"/>
<text text-anchor="middle" x="360" y="-63.5" font-family="Helvetica,sans-Serif" font-size="10.00">thread</text>
</a>
</g>
</g>
<!-- Node17&#45;&gt;Node18 -->
<g id="edge23" class="edge"><title>Node17&#45;&gt;Node18</title>
<path fill="none" stroke="midnightblue" d="M325.77,-112.083C331.562,-104.455 340.058,-93.2645 347.138,-83.9408"/>
<polygon fill="midnightblue" stroke="midnightblue" points="350.096,-85.8321 353.356,-75.7511 344.521,-81.5991 350.096,-85.8321"/>
</g>
</g>
</svg>
        <g id="navigator" transform="translate(0 0)" fill="#404254">
                <rect fill="#f2f5e9" fill-opacity="0.5" stroke="#606060" stroke-width=".5" x="0" y="0" width="60" height="60"/>
                <use id="zoomplus" xlink:href="#zoomPlus" x="17" y="9" onmousedown="handleZoom(evt,'in')"/>
                <use id="zoomminus" xlink:href="#zoomMin" x="42" y="9" onmousedown="handleZoom(evt,'out')"/>
                <use id="reset" xlink:href="#resetDef" x="30" y="36" onmousedown="handleReset()"/>
                <g id="arrowUp" xlink:href="#dirArrow" transform="translate(30 24)" onmousedown="handlePan(0,-1)">
                  <use xlink:href="#rim" fill="#404040">
                        <set attributeName="fill" to="#808080" begin="arrowUp.mouseover" end="arrowUp.mouseout"/>
                  </use>
                  <path fill="none" stroke="white" stroke-width="1.5" d="M0,-3.0v7 M-2.5,-0.5L0,-3.0L2.5,-0.5"/>
                </g>
                <g id="arrowRight" xlink:href="#dirArrow" transform="rotate(90) translate(36 -43)" onmousedown="handlePan(1,0)">
                  <use xlink:href="#rim" fill="#404040">
                        <set attributeName="fill" to="#808080" begin="arrowRight.mouseover" end="arrowRight.mouseout"/>
                  </use>
                  <path fill="none" stroke="white" stroke-width="1.5" d="M0,-3.0v7 M-2.5,-0.5L0,-3.0L2.5,-0.5"/>
                </g>
                <g id="arrowDown" xlink:href="#dirArrow" transform="rotate(180) translate(-30 -48)" onmousedown="handlePan(0,1)">
                  <use xlink:href="#rim" fill="#404040">
                        <set attributeName="fill" to="#808080" begin="arrowDown.mouseover" end="arrowDown.mouseout"/>
                  </use>
                  <path fill="none" stroke="white" stroke-width="1.5" d="M0,-3.0v7 M-2.5,-0.5L0,-3.0L2.5,-0.5"/>
                </g>
                <g id="arrowLeft" xlink:href="#dirArrow" transform="rotate(270) translate(-36 17)" onmousedown="handlePan(-1,0)">
                  <use xlink:href="#rim" fill="#404040">
                        <set attributeName="fill" to="#808080" begin="arrowLeft.mouseover" end="arrowLeft.mouseout"/>
                  </use>
                  <path fill="none" stroke="white" stroke-width="1.5" d="M0,-3.0v7 M-2.5,-0.5L0,-3.0L2.5,-0.5"/>
                </g>
        </g>
        <svg viewBox="0 0 15 15" width="100%" height="30px" preserveAspectRatio="xMaxYMin meet">
         <g id="arrow_out" transform="scale(0.3 0.3)">
          <a xlink:href="_edit_8cpp__incl_org.svg" target="_base">
           <rect id="button" ry="5" rx="5" y="6" x="6" height="38" width="38"
                fill="#f2f5e9" fill-opacity="0.5" stroke="#606060" stroke-width="1.0"/>
           <path id="arrow"
             d="M 11.500037,31.436501 C 11.940474,20.09759 22.043105,11.32322 32.158766,21.979434 L 37.068811,17.246167 C 37.068811,17.246167 37.088388,32 37.088388,32 L 22.160133,31.978069 C 22.160133,31.978069 26.997745,27.140456 26.997745,27.140456 C 18.528582,18.264221 13.291696,25.230495 11.500037,31.436501 z"
             style="fill:#404040;"/>
          </a>
         </g>
        </svg>
</svg>
