<?xml version="1.0" encoding="UTF-8" standalone="no"?>
<!DOCTYPE svg PUBLIC "-//W3C//DTD SVG 1.1//EN"
 "http://www.w3.org/Graphics/SVG/1.1/DTD/svg11.dtd">
<!-- Generated by graphviz version 2.38.0 (20140413.2041)
 -->
<!-- Title: src/Base/Property.h Pages: 1 -->
<svg width="284pt" height="196pt"
 viewBox="0.00 0.00 283.50 196.00" xmlns="http://www.w3.org/2000/svg" xmlns:xlink="http://www.w3.org/1999/xlink">
<g id="graph0" class="graph" transform="scale(1 1) rotate(0) translate(4 192)">
<title>src/Base/Property.h</title>
<polygon fill="white" stroke="none" points="-4,4 -4,-192 279.5,-192 279.5,4 -4,4"/>
<!-- Node1 -->
<g id="node1" class="node"><title>Node1</title>
<g id="a_node1"><a xlink:title=" ">
<polygon fill="#bfbfbf" stroke="black" points="55,-168.5 55,-187.5 159,-187.5 159,-168.5 55,-168.5"/>
<text text-anchor="middle" x="107" y="-175.5" font-family="Helvetica,sans-Serif" font-size="10.00">src/Base/Property.h</text>
</a>
</g>
</g>
<!-- Node2 -->
<g id="node2" class="node"><title>Node2</title>
<g id="a_node2"><a xlink:href="_property_8hpp.html" target="_top" xlink:title=" ">
<polygon fill="white" stroke="black" points="0,-112.5 0,-131.5 72,-131.5 72,-112.5 0,-112.5"/>
<text text-anchor="middle" x="36" y="-119.5" font-family="Helvetica,sans-Serif" font-size="10.00">Property.hpp</text>
</a>
</g>
</g>
<!-- Node1&#45;&gt;Node2 -->
<g id="edge1" class="edge"><title>Node1&#45;&gt;Node2</title>
<path fill="none" stroke="midnightblue" d="M95.5926,-168.324C84.8912,-160.185 68.6593,-147.839 55.8372,-138.087"/>
<polygon fill="midnightblue" stroke="midnightblue" points="57.6932,-135.102 47.6149,-131.834 53.4556,-140.673 57.6932,-135.102"/>
</g>
<!-- Node4 -->
<g id="node4" class="node"><title>Node4</title>
<g id="a_node4"><a xlink:href="_serialize_8h.html" target="_top" xlink:title=" ">
<polygon fill="white" stroke="black" points="76,-56.5 76,-75.5 138,-75.5 138,-56.5 76,-56.5"/>
<text text-anchor="middle" x="107" y="-63.5" font-family="Helvetica,sans-Serif" font-size="10.00">Serialize.h</text>
</a>
</g>
</g>
<!-- Node1&#45;&gt;Node4 -->
<g id="edge3" class="edge"><title>Node1&#45;&gt;Node4</title>
<path fill="none" stroke="midnightblue" d="M107,-168.368C107,-150.617 107,-109.666 107,-85.5974"/>
<polygon fill="midnightblue" stroke="midnightblue" points="110.5,-85.5914 107,-75.5914 103.5,-85.5915 110.5,-85.5914"/>
</g>
<!-- Node7 -->
<g id="node7" class="node"><title>Node7</title>
<g id="a_node7"><a xlink:href="_value_8h.html" target="_top" xlink:title=" ">
<polygon fill="white" stroke="black" points="146,-112.5 146,-131.5 196,-131.5 196,-112.5 146,-112.5"/>
<text text-anchor="middle" x="171" y="-119.5" font-family="Helvetica,sans-Serif" font-size="10.00">Value.h</text>
</a>
</g>
</g>
<!-- Node1&#45;&gt;Node7 -->
<g id="edge6" class="edge"><title>Node1&#45;&gt;Node7</title>
<path fill="none" stroke="midnightblue" d="M117.283,-168.324C126.836,-160.263 141.28,-148.077 152.784,-138.369"/>
<polygon fill="midnightblue" stroke="midnightblue" points="155.144,-140.958 160.53,-131.834 150.63,-135.608 155.144,-140.958"/>
</g>
<!-- Node3 -->
<g id="node3" class="node"><title>Node3</title>
<g id="a_node3"><a xlink:title=" ">
<polygon fill="white" stroke="#bfbfbf" points="0,-56.5 0,-75.5 58,-75.5 58,-56.5 0,-56.5"/>
<text text-anchor="middle" x="29" y="-63.5" font-family="Helvetica,sans-Serif" font-size="10.00">functional</text>
</a>
</g>
</g>
<!-- Node2&#45;&gt;Node3 -->
<g id="edge2" class="edge"><title>Node2&#45;&gt;Node3</title>
<path fill="none" stroke="midnightblue" d="M34.8441,-112.083C33.9165,-104.927 32.5824,-94.6353 31.4229,-85.6911"/>
<polygon fill="midnightblue" stroke="midnightblue" points="34.891,-85.2181 30.1344,-75.7511 27.9491,-86.1181 34.891,-85.2181"/>
</g>
<!-- Node5 -->
<g id="node5" class="node"><title>Node5</title>
<g id="a_node5"><a xlink:title=" ">
<polygon fill="white" stroke="#bfbfbf" points="53.5,-0.5 53.5,-19.5 94.5,-19.5 94.5,-0.5 53.5,-0.5"/>
<text text-anchor="middle" x="74" y="-7.5" font-family="Helvetica,sans-Serif" font-size="10.00">string</text>
</a>
</g>
</g>
<!-- Node4&#45;&gt;Node5 -->
<g id="edge4" class="edge"><title>Node4&#45;&gt;Node5</title>
<path fill="none" stroke="midnightblue" d="M101.551,-56.083C96.9855,-48.6127 90.3316,-37.7244 84.7066,-28.5199"/>
<polygon fill="midnightblue" stroke="midnightblue" points="87.5489,-26.4588 79.3479,-19.7511 81.5759,-30.109 87.5489,-26.4588"/>
</g>
<!-- Node6 -->
<g id="node6" class="node"><title>Node6</title>
<g id="a_node6"><a xlink:title=" ">
<polygon fill="white" stroke="#bfbfbf" points="113,-0.5 113,-19.5 165,-19.5 165,-0.5 113,-0.5"/>
<text text-anchor="middle" x="139" y="-7.5" font-family="Helvetica,sans-Serif" font-size="10.00">memory</text>
</a>
</g>
</g>
<!-- Node4&#45;&gt;Node6 -->
<g id="edge5" class="edge"><title>Node4&#45;&gt;Node6</title>
<path fill="none" stroke="midnightblue" d="M112.284,-56.083C116.711,-48.6127 123.163,-37.7244 128.618,-28.5199"/>
<polygon fill="midnightblue" stroke="midnightblue" points="131.727,-30.1383 133.814,-19.7511 125.705,-26.5697 131.727,-30.1383"/>
</g>
<!-- Node7&#45;&gt;Node4 -->
<g id="edge7" class="edge"><title>Node7&#45;&gt;Node4</title>
<path fill="none" stroke="midnightblue" d="M160.717,-112.324C151.164,-104.263 136.72,-92.0765 125.216,-82.3695"/>
<polygon fill="midnightblue" stroke="midnightblue" points="127.37,-79.6076 117.47,-75.8339 122.856,-84.9577 127.37,-79.6076"/>
</g>
<!-- Node8 -->
<g id="node8" class="node"><title>Node8</title>
<g id="a_node8"><a xlink:title=" ">
<polygon fill="white" stroke="#bfbfbf" points="156,-56.5 156,-75.5 208,-75.5 208,-56.5 156,-56.5"/>
<text text-anchor="middle" x="182" y="-63.5" font-family="Helvetica,sans-Serif" font-size="10.00">sstream</text>
</a>
</g>
</g>
<!-- Node7&#45;&gt;Node8 -->
<g id="edge8" class="edge"><title>Node7&#45;&gt;Node8</title>
<path fill="none" stroke="midnightblue" d="M172.816,-112.083C174.274,-104.927 176.371,-94.6353 178.193,-85.6911"/>
<polygon fill="midnightblue" stroke="midnightblue" points="181.651,-86.2485 180.217,-75.7511 174.792,-84.8512 181.651,-86.2485"/>
</g>
<!-- Node9 -->
<g id="node9" class="node"><title>Node9</title>
<g id="a_node9"><a xlink:title=" ">
<polygon fill="white" stroke="#bfbfbf" points="226.5,-56.5 226.5,-75.5 275.5,-75.5 275.5,-56.5 226.5,-56.5"/>
<text text-anchor="middle" x="251" y="-63.5" font-family="Helvetica,sans-Serif" font-size="10.00">stdint.h</text>
</a>
</g>
</g>
<!-- Node7&#45;&gt;Node9 -->
<g id="edge9" class="edge"><title>Node7&#45;&gt;Node9</title>
<path fill="none" stroke="midnightblue" d="M183.853,-112.324C196.216,-103.979 215.13,-91.2122 229.737,-81.3524"/>
<polygon fill="midnightblue" stroke="midnightblue" points="231.848,-84.1503 238.179,-75.6545 227.932,-78.3483 231.848,-84.1503"/>
</g>
</g>
</svg>
