<?xml version="1.0" encoding="UTF-8" standalone="no"?>
<!DOCTYPE svg PUBLIC "-//W3C//DTD SVG 1.1//EN"
 "http://www.w3.org/Graphics/SVG/1.1/DTD/svg11.dtd">
<!-- Generated by graphviz version 2.38.0 (20140413.2041)
 -->
<!-- Title: src/Controls/Progress.cpp Pages: 1 -->
<svg width="381pt" height="420pt"
 viewBox="0.00 0.00 380.67 420.00" xmlns="http://www.w3.org/2000/svg" xmlns:xlink="http://www.w3.org/1999/xlink">
<g id="graph0" class="graph" transform="scale(1 1) rotate(0) translate(4 416)">
<title>src/Controls/Progress.cpp</title>
<polygon fill="white" stroke="none" points="-4,4 -4,-416 376.667,-416 376.667,4 -4,4"/>
<!-- Node1 -->
<g id="node1" class="node"><title>Node1</title>
<g id="a_node1"><a xlink:title=" ">
<polygon fill="#bfbfbf" stroke="black" points="74.6666,-392.5 74.6666,-411.5 204.667,-411.5 204.667,-392.5 74.6666,-392.5"/>
<text text-anchor="middle" x="139.667" y="-399.5" font-family="Helvetica,sans-Serif" font-size="10.00">src/Controls/Progress.cpp</text>
</a>
</g>
</g>
<!-- Node2 -->
<g id="node2" class="node"><title>Node2</title>
<g id="a_node2"><a xlink:href="dbg__new_8h.html" target="_top" xlink:title=" ">
<polygon fill="white" stroke="black" points="108.167,-336.5 108.167,-355.5 171.167,-355.5 171.167,-336.5 108.167,-336.5"/>
<text text-anchor="middle" x="139.667" y="-343.5" font-family="Helvetica,sans-Serif" font-size="10.00">dbg_new.h</text>
</a>
</g>
</g>
<!-- Node1&#45;&gt;Node2 -->
<g id="edge1" class="edge"><title>Node1&#45;&gt;Node2</title>
<path fill="none" stroke="midnightblue" d="M139.667,-392.083C139.667,-385.006 139.667,-374.861 139.667,-365.986"/>
<polygon fill="midnightblue" stroke="midnightblue" points="143.167,-365.751 139.667,-355.751 136.167,-365.751 143.167,-365.751"/>
</g>
<!-- Node17 -->
<g id="node17" class="node"><title>Node17</title>
<g id="a_node17"><a xlink:href="_progress_8h.html" target="_top" xlink:title=" ">
<polygon fill="white" stroke="black" points="14.6666,-280.5 14.6666,-299.5 78.6666,-299.5 78.6666,-280.5 14.6666,-280.5"/>
<text text-anchor="middle" x="46.6666" y="-287.5" font-family="Helvetica,sans-Serif" font-size="10.00">Progress.h</text>
</a>
</g>
</g>
<!-- Node1&#45;&gt;Node17 -->
<g id="edge18" class="edge"><title>Node1&#45;&gt;Node17</title>
<path fill="none" stroke="midnightblue" d="M131.327,-392.187C122.919,-383.222 109.649,-368.859 98.6666,-356 84.9408,-339.928 69.9265,-321.006 59.5756,-307.735"/>
<polygon fill="midnightblue" stroke="midnightblue" points="62.1237,-305.309 53.2278,-299.555 56.5935,-309.601 62.1237,-305.309"/>
</g>
<!-- Node18 -->
<g id="node18" class="node"><title>Node18</title>
<g id="a_node18"><a xlink:title=" ">
<polygon fill="white" stroke="#bfbfbf" points="189.667,-336.5 189.667,-355.5 257.667,-355.5 257.667,-336.5 189.667,-336.5"/>
<text text-anchor="middle" x="223.667" y="-343.5" font-family="Helvetica,sans-Serif" font-size="10.00">CommCtrl.h</text>
</a>
</g>
</g>
<!-- Node1&#45;&gt;Node18 -->
<g id="edge20" class="edge"><title>Node1&#45;&gt;Node18</title>
<path fill="none" stroke="midnightblue" d="M153.163,-392.324C166.266,-383.9 186.379,-370.971 201.774,-361.074"/>
<polygon fill="midnightblue" stroke="midnightblue" points="203.685,-364.006 210.204,-355.655 199.9,-358.118 203.685,-364.006"/>
</g>
<!-- Node3 -->
<g id="node3" class="node"><title>Node3</title>
<g id="a_node3"><a xlink:href="utils_8hpp.html" target="_top" xlink:title=" ">
<polygon fill="white" stroke="black" points="113.167,-280.5 113.167,-299.5 166.167,-299.5 166.167,-280.5 113.167,-280.5"/>
<text text-anchor="middle" x="139.667" y="-287.5" font-family="Helvetica,sans-Serif" font-size="10.00">utils.hpp</text>
</a>
</g>
</g>
<!-- Node2&#45;&gt;Node3 -->
<g id="edge2" class="edge"><title>Node2&#45;&gt;Node3</title>
<path fill="none" stroke="midnightblue" d="M139.667,-336.083C139.667,-329.006 139.667,-318.861 139.667,-309.986"/>
<polygon fill="midnightblue" stroke="midnightblue" points="143.167,-309.751 139.667,-299.751 136.167,-309.751 143.167,-309.751"/>
</g>
<!-- Node15 -->
<g id="node15" class="node"><title>Node15</title>
<g id="a_node15"><a xlink:title=" ">
<polygon fill="white" stroke="#bfbfbf" points="320.667,-56.5 320.667,-75.5 372.667,-75.5 372.667,-56.5 320.667,-56.5"/>
<text text-anchor="middle" x="346.667" y="-63.5" font-family="Helvetica,sans-Serif" font-size="10.00">assert.h</text>
</a>
</g>
</g>
<!-- Node2&#45;&gt;Node15 -->
<g id="edge17" class="edge"><title>Node2&#45;&gt;Node15</title>
<path fill="none" stroke="midnightblue" d="M166.64,-336.385C221.231,-318.131 339.667,-274.033 339.667,-235 339.667,-235 339.667,-235 339.667,-177 339.667,-144.883 342.675,-107.598 344.748,-85.7258"/>
<polygon fill="midnightblue" stroke="midnightblue" points="348.253,-85.8412 345.751,-75.546 341.287,-85.1543 348.253,-85.8412"/>
</g>
<!-- Node4 -->
<g id="node4" class="node"><title>Node4</title>
<g id="a_node4"><a xlink:href="output_8hpp.html" target="_top" xlink:title=" ">
<polygon fill="white" stroke="black" points="148.667,-224.5 148.667,-243.5 210.667,-243.5 210.667,-224.5 148.667,-224.5"/>
<text text-anchor="middle" x="179.667" y="-231.5" font-family="Helvetica,sans-Serif" font-size="10.00">output.hpp</text>
</a>
</g>
</g>
<!-- Node3&#45;&gt;Node4 -->
<g id="edge3" class="edge"><title>Node3&#45;&gt;Node4</title>
<path fill="none" stroke="midnightblue" d="M146.272,-280.083C151.922,-272.455 160.211,-261.264 167.118,-251.941"/>
<polygon fill="midnightblue" stroke="midnightblue" points="170.044,-253.87 173.184,-243.751 164.42,-249.703 170.044,-253.87"/>
</g>
<!-- Node16 -->
<g id="node16" class="node"><title>Node16</title>
<g id="a_node16"><a xlink:title=" ">
<polygon fill="white" stroke="#bfbfbf" points="71.1666,-224.5 71.1666,-243.5 130.167,-243.5 130.167,-224.5 71.1666,-224.5"/>
<text text-anchor="middle" x="100.667" y="-231.5" font-family="Helvetica,sans-Serif" font-size="10.00">exception</text>
</a>
</g>
</g>
<!-- Node3&#45;&gt;Node16 -->
<g id="edge16" class="edge"><title>Node3&#45;&gt;Node16</title>
<path fill="none" stroke="midnightblue" d="M133.227,-280.083C127.718,-272.455 119.635,-261.264 112.902,-251.941"/>
<polygon fill="midnightblue" stroke="midnightblue" points="115.679,-249.809 106.987,-243.751 110.004,-253.907 115.679,-249.809"/>
</g>
<!-- Node5 -->
<g id="node5" class="node"><title>Node5</title>
<g id="a_node5"><a xlink:title=" ">
<polygon fill="white" stroke="#bfbfbf" points="18.6666,-168.5 18.6666,-187.5 70.6666,-187.5 70.6666,-168.5 18.6666,-168.5"/>
<text text-anchor="middle" x="44.6666" y="-175.5" font-family="Helvetica,sans-Serif" font-size="10.00">stdarg.h</text>
</a>
</g>
</g>
<!-- Node4&#45;&gt;Node5 -->
<g id="edge4" class="edge"><title>Node4&#45;&gt;Node5</title>
<path fill="none" stroke="midnightblue" d="M158.275,-224.444C135.959,-215.517 100.763,-201.439 75.4587,-191.317"/>
<polygon fill="midnightblue" stroke="midnightblue" points="76.5424,-187.981 65.9577,-187.516 73.9426,-194.48 76.5424,-187.981"/>
</g>
<!-- Node6 -->
<g id="node6" class="node"><title>Node6</title>
<g id="a_node6"><a xlink:title=" ">
<polygon fill="white" stroke="#bfbfbf" points="261.167,-56.5 261.167,-75.5 302.167,-75.5 302.167,-56.5 261.167,-56.5"/>
<text text-anchor="middle" x="281.667" y="-63.5" font-family="Helvetica,sans-Serif" font-size="10.00">string</text>
</a>
</g>
</g>
<!-- Node4&#45;&gt;Node6 -->
<g id="edge5" class="edge"><title>Node4&#45;&gt;Node6</title>
<path fill="none" stroke="midnightblue" d="M210.69,-225.787C230.91,-219.381 255.995,-207.856 269.667,-188 290.845,-157.241 288.484,-111.212 285.003,-85.7052"/>
<polygon fill="midnightblue" stroke="midnightblue" points="288.418,-84.8926 283.405,-75.5587 281.503,-85.9814 288.418,-84.8926"/>
</g>
<!-- Node7 -->
<g id="node7" class="node"><title>Node7</title>
<g id="a_node7"><a xlink:title=" ">
<polygon fill="white" stroke="#bfbfbf" points="88.6666,-168.5 88.6666,-187.5 140.667,-187.5 140.667,-168.5 88.6666,-168.5"/>
<text text-anchor="middle" x="114.667" y="-175.5" font-family="Helvetica,sans-Serif" font-size="10.00">sstream</text>
</a>
</g>
</g>
<!-- Node4&#45;&gt;Node7 -->
<g id="edge6" class="edge"><title>Node4&#45;&gt;Node7</title>
<path fill="none" stroke="midnightblue" d="M169.223,-224.324C159.52,-216.263 144.851,-204.077 133.167,-194.369"/>
<polygon fill="midnightblue" stroke="midnightblue" points="135.229,-191.532 125.3,-187.834 130.755,-196.916 135.229,-191.532"/>
</g>
<!-- Node8 -->
<g id="node8" class="node"><title>Node8</title>
<g id="a_node8"><a xlink:title=" ">
<polygon fill="white" stroke="#bfbfbf" points="158.667,-168.5 158.667,-187.5 200.667,-187.5 200.667,-168.5 158.667,-168.5"/>
<text text-anchor="middle" x="179.667" y="-175.5" font-family="Helvetica,sans-Serif" font-size="10.00">vector</text>
</a>
</g>
</g>
<!-- Node4&#45;&gt;Node8 -->
<g id="edge7" class="edge"><title>Node4&#45;&gt;Node8</title>
<path fill="none" stroke="midnightblue" d="M179.667,-224.083C179.667,-217.006 179.667,-206.861 179.667,-197.986"/>
<polygon fill="midnightblue" stroke="midnightblue" points="183.167,-197.751 179.667,-187.751 176.167,-197.751 183.167,-197.751"/>
</g>
<!-- Node9 -->
<g id="node9" class="node"><title>Node9</title>
<g id="a_node9"><a xlink:href="_edit_8h.html" target="_top" xlink:title=" ">
<polygon fill="white" stroke="black" points="218.667,-168.5 218.667,-187.5 260.667,-187.5 260.667,-168.5 218.667,-168.5"/>
<text text-anchor="middle" x="239.667" y="-175.5" font-family="Helvetica,sans-Serif" font-size="10.00">Edit.h</text>
</a>
</g>
</g>
<!-- Node4&#45;&gt;Node9 -->
<g id="edge8" class="edge"><title>Node4&#45;&gt;Node9</title>
<path fill="none" stroke="midnightblue" d="M189.307,-224.324C198.176,-216.341 211.541,-204.313 222.275,-194.653"/>
<polygon fill="midnightblue" stroke="midnightblue" points="224.76,-197.125 229.851,-187.834 220.077,-191.922 224.76,-197.125"/>
</g>
<!-- Node10 -->
<g id="node10" class="node"><title>Node10</title>
<g id="a_node10"><a xlink:href="_control_8h.html" target="_top" xlink:title=" ">
<polygon fill="white" stroke="black" points="178.667,-112.5 178.667,-131.5 234.667,-131.5 234.667,-112.5 178.667,-112.5"/>
<text text-anchor="middle" x="206.667" y="-119.5" font-family="Helvetica,sans-Serif" font-size="10.00">Control.h</text>
</a>
</g>
</g>
<!-- Node9&#45;&gt;Node10 -->
<g id="edge9" class="edge"><title>Node9&#45;&gt;Node10</title>
<path fill="none" stroke="midnightblue" d="M234.217,-168.083C229.652,-160.613 222.998,-149.724 217.373,-140.52"/>
<polygon fill="midnightblue" stroke="midnightblue" points="220.216,-138.459 212.015,-131.751 214.243,-142.109 220.216,-138.459"/>
</g>
<!-- Node10&#45;&gt;Node6 -->
<g id="edge11" class="edge"><title>Node10&#45;&gt;Node6</title>
<path fill="none" stroke="midnightblue" d="M218.717,-112.324C230.13,-104.107 247.498,-91.6017 261.102,-81.8069"/>
<polygon fill="midnightblue" stroke="midnightblue" points="263.327,-84.5174 269.397,-75.8339 259.237,-78.8366 263.327,-84.5174"/>
</g>
<!-- Node11 -->
<g id="node11" class="node"><title>Node11</title>
<g id="a_node11"><a xlink:title=" ">
<polygon fill="white" stroke="#bfbfbf" points="20.6666,-56.5 20.6666,-75.5 82.6666,-75.5 82.6666,-56.5 20.6666,-56.5"/>
<text text-anchor="middle" x="51.6666" y="-63.5" font-family="Helvetica,sans-Serif" font-size="10.00">windows.h</text>
</a>
</g>
</g>
<!-- Node10&#45;&gt;Node11 -->
<g id="edge10" class="edge"><title>Node10&#45;&gt;Node11</title>
<path fill="none" stroke="midnightblue" d="M182.106,-112.444C156.144,-103.399 114.999,-89.064 85.8695,-78.9158"/>
<polygon fill="midnightblue" stroke="midnightblue" points="86.7068,-75.5013 76.1119,-75.5164 84.4038,-82.1116 86.7068,-75.5013"/>
</g>
<!-- Node12 -->
<g id="node12" class="node"><title>Node12</title>
<g id="a_node12"><a xlink:title=" ">
<polygon fill="white" stroke="#bfbfbf" points="100.667,-56.5 100.667,-75.5 152.667,-75.5 152.667,-56.5 100.667,-56.5"/>
<text text-anchor="middle" x="126.667" y="-63.5" font-family="Helvetica,sans-Serif" font-size="10.00">memory</text>
</a>
</g>
</g>
<!-- Node10&#45;&gt;Node12 -->
<g id="edge12" class="edge"><title>Node10&#45;&gt;Node12</title>
<path fill="none" stroke="midnightblue" d="M193.813,-112.324C181.45,-103.979 162.537,-91.2122 147.929,-81.3524"/>
<polygon fill="midnightblue" stroke="midnightblue" points="149.735,-78.3483 139.488,-75.6545 145.818,-84.1503 149.735,-78.3483"/>
</g>
<!-- Node13 -->
<g id="node13" class="node"><title>Node13</title>
<g id="a_node13"><a xlink:href="_property_8hpp.html" target="_top" xlink:title=" ">
<polygon fill="white" stroke="black" points="170.667,-56.5 170.667,-75.5 242.667,-75.5 242.667,-56.5 170.667,-56.5"/>
<text text-anchor="middle" x="206.667" y="-63.5" font-family="Helvetica,sans-Serif" font-size="10.00">Property.hpp</text>
</a>
</g>
</g>
<!-- Node10&#45;&gt;Node13 -->
<g id="edge13" class="edge"><title>Node10&#45;&gt;Node13</title>
<path fill="none" stroke="midnightblue" d="M206.667,-112.083C206.667,-105.006 206.667,-94.8611 206.667,-85.9865"/>
<polygon fill="midnightblue" stroke="midnightblue" points="210.167,-85.751 206.667,-75.7511 203.167,-85.7511 210.167,-85.751"/>
</g>
<!-- Node10&#45;&gt;Node15 -->
<g id="edge15" class="edge"><title>Node10&#45;&gt;Node15</title>
<path fill="none" stroke="midnightblue" d="M228.85,-112.444C252.095,-103.478 288.815,-89.314 315.082,-79.1827"/>
<polygon fill="midnightblue" stroke="midnightblue" points="316.517,-82.3807 324.587,-75.5164 313.997,-75.8497 316.517,-82.3807"/>
</g>
<!-- Node14 -->
<g id="node14" class="node"><title>Node14</title>
<g id="a_node14"><a xlink:title=" ">
<polygon fill="white" stroke="#bfbfbf" points="177.667,-0.5 177.667,-19.5 235.667,-19.5 235.667,-0.5 177.667,-0.5"/>
<text text-anchor="middle" x="206.667" y="-7.5" font-family="Helvetica,sans-Serif" font-size="10.00">functional</text>
</a>
</g>
</g>
<!-- Node13&#45;&gt;Node14 -->
<g id="edge14" class="edge"><title>Node13&#45;&gt;Node14</title>
<path fill="none" stroke="midnightblue" d="M206.667,-56.083C206.667,-49.0059 206.667,-38.8611 206.667,-29.9865"/>
<polygon fill="midnightblue" stroke="midnightblue" points="210.167,-29.751 206.667,-19.7511 203.167,-29.7511 210.167,-29.751"/>
</g>
<!-- Node17&#45;&gt;Node10 -->
<g id="edge19" class="edge"><title>Node17&#45;&gt;Node10</title>
<path fill="none" stroke="midnightblue" d="M39.2489,-280.388C21.8124,-259.071 -18.2707,-203.039 9.66662,-168 29.105,-143.621 116.528,-131.401 168.153,-126.209"/>
<polygon fill="midnightblue" stroke="midnightblue" points="168.661,-129.677 178.279,-125.235 167.99,-122.709 168.661,-129.677"/>
</g>
</g>
</svg>
