<?xml version="1.0" encoding="UTF-8" standalone="no"?>
<!DOCTYPE svg PUBLIC "-//W3C//DTD SVG 1.1//EN"
 "http://www.w3.org/Graphics/SVG/1.1/DTD/svg11.dtd">
<!-- Generated by graphviz version 2.38.0 (20140413.2041)
 -->
<!-- Title: src/Base/Property.hpp Pages: 1 -->
<!--zoomable 420 -->
<svg id="main" version="1.1" xmlns="http://www.w3.org/2000/svg" xmlns:xlink="http://www.w3.org/1999/xlink" xml:space="preserve" onload="init(evt)">
<style type="text/css"><![CDATA[
.edge:hover path { stroke: red; }
.edge:hover polygon { stroke: red; fill: red; }
]]></style>
<script type="text/javascript"><![CDATA[
var edges = document.getElementsByTagName('g');
if (edges && edges.length) {
  for (var i=0;i<edges.length;i++) {
    if (edges[i].id.substr(0,4)=='edge') {
      edges[i].setAttribute('class','edge');
    }
  }
}
]]></script>
        <defs>
                <circle id="rim" cx="0" cy="0" r="7"/>
                <circle id="rim2" cx="0" cy="0" r="3.5"/>
                <g id="zoomPlus">
                        <use xlink:href="#rim" fill="#404040">
                                <set attributeName="fill" to="#808080" begin="zoomplus.mouseover" end="zoomplus.mouseout"/>
                        </use>
                        <path d="M-4,0h8M0,-4v8" fill="none" stroke="white" stroke-width="1.5" pointer-events="none"/>
                </g>
                <g id="zoomMin">
                        <use xlink:href="#rim" fill="#404040">
                                <set attributeName="fill" to="#808080" begin="zoomminus.mouseover" end="zoomminus.mouseout"/>
                        </use>
                        <path d="M-4,0h8" fill="none" stroke="white" stroke-width="1.5" pointer-events="none"/>
                </g>
                <g id="dirArrow">
                        <path fill="none" stroke="white" stroke-width="1.5" d="M0,-3.0v7 M-2.5,-0.5L0,-3.0L2.5,-0.5"/>
                </g>
               <g id="resetDef">
                       <use xlink:href="#rim2" fill="#404040">
                               <set attributeName="fill" to="#808080" begin="reset.mouseover" end="reset.mouseout"/>
                       </use>
               </g>
        </defs>

<script type="text/javascript">
var viewWidth = 1348;
var viewHeight = 420;
var sectionId = 'dynsection-1';
</script>
<script xlink:href="svgpan.js"/>
<svg id="graph" class="graph">
<g id="viewport">
<title>src/Base/Property.hpp</title>
<polygon fill="white" stroke="none" points="-4,4 -4,-416 1344,-416 1344,4 -4,4"/>
<!-- Node1 -->
<g id="node1" class="node"><title>Node1</title>
<g id="a_node1"><a xlink:title=" ">
<polygon fill="#bfbfbf" stroke="black" points="743,-392.5 743,-411.5 857,-411.5 857,-392.5 743,-392.5"/>
<text text-anchor="middle" x="800" y="-399.5" font-family="Helvetica,sans-Serif" font-size="10.00">src/Base/Property.hpp</text>
</a>
</g>
</g>
<!-- Node2 -->
<g id="node2" class="node"><title>Node2</title>
<g id="a_node2"><a xlink:href="_property_8h.html" target="_top" xlink:title=" ">
<polygon fill="white" stroke="black" points="281,-336.5 281,-355.5 385,-355.5 385,-336.5 281,-336.5"/>
<text text-anchor="middle" x="333" y="-343.5" font-family="Helvetica,sans-Serif" font-size="10.00">src/Base/Property.h</text>
</a>
</g>
</g>
<!-- Node1&#45;&gt;Node2 -->
<g id="edge1" class="edge"><title>Node1&#45;&gt;Node2</title>
<path fill="none" stroke="midnightblue" d="M732.779,-393.227C638.896,-382.371 470.483,-362.897 385.338,-353.052"/>
<polygon fill="midnightblue" stroke="midnightblue" points="732.401,-396.707 742.737,-394.379 733.205,-389.753 732.401,-396.707"/>
</g>
<!-- Node7 -->
<g id="node7" class="node"><title>Node7</title>
<g id="a_node7"><a xlink:href="_thread_8h.html" target="_top" xlink:title=" ">
<polygon fill="white" stroke="black" points="1147,-112.5 1147,-131.5 1243,-131.5 1243,-112.5 1147,-112.5"/>
<text text-anchor="middle" x="1195" y="-119.5" font-family="Helvetica,sans-Serif" font-size="10.00">src/Base/Thread.h</text>
</a>
</g>
</g>
<!-- Node1&#45;&gt;Node7 -->
<g id="edge6" class="edge"><title>Node1&#45;&gt;Node7</title>
<path fill="none" stroke="midnightblue" d="M867.372,-397.791C989.058,-390.143 1233,-365.517 1233,-291 1233,-291 1233,-291 1233,-233 1233,-193.399 1210.73,-149.957 1200.28,-131.769"/>
<polygon fill="midnightblue" stroke="midnightblue" points="866.822,-394.318 857.052,-398.418 867.246,-401.305 866.822,-394.318"/>
</g>
<!-- Node11 -->
<g id="node11" class="node"><title>Node11</title>
<g id="a_node11"><a xlink:href="_control_8h.html" target="_top" xlink:title=" ">
<polygon fill="white" stroke="black" points="744.5,-336.5 744.5,-355.5 855.5,-355.5 855.5,-336.5 744.5,-336.5"/>
<text text-anchor="middle" x="800" y="-343.5" font-family="Helvetica,sans-Serif" font-size="10.00">src/Controls/Control.h</text>
</a>
</g>
</g>
<!-- Node1&#45;&gt;Node11 -->
<g id="edge10" class="edge"><title>Node1&#45;&gt;Node11</title>
<path fill="none" stroke="midnightblue" d="M800,-381.805C800,-372.91 800,-362.78 800,-355.751"/>
<polygon fill="midnightblue" stroke="midnightblue" points="796.5,-382.083 800,-392.083 803.5,-382.083 796.5,-382.083"/>
</g>
<!-- Node3 -->
<g id="node3" class="node"><title>Node3</title>
<g id="a_node3"><a xlink:href="_object_8h.html" target="_top" xlink:title=" ">
<polygon fill="white" stroke="black" points="223.5,-280.5 223.5,-299.5 318.5,-299.5 318.5,-280.5 223.5,-280.5"/>
<text text-anchor="middle" x="271" y="-287.5" font-family="Helvetica,sans-Serif" font-size="10.00">src/Base/Object.h</text>
</a>
</g>
</g>
<!-- Node2&#45;&gt;Node3 -->
<g id="edge2" class="edge"><title>Node2&#45;&gt;Node3</title>
<path fill="none" stroke="midnightblue" d="M315.246,-329.537C304.192,-319.909 290.369,-307.869 281.143,-299.834"/>
<polygon fill="midnightblue" stroke="midnightblue" points="313.199,-332.395 323.039,-336.324 317.797,-327.117 313.199,-332.395"/>
</g>
<!-- Node5 -->
<g id="node5" class="node"><title>Node5</title>
<g id="a_node5"><a xlink:href="_property_8cpp.html" target="_top" xlink:title=" ">
<polygon fill="white" stroke="black" points="337,-280.5 337,-299.5 451,-299.5 451,-280.5 337,-280.5"/>
<text text-anchor="middle" x="394" y="-287.5" font-family="Helvetica,sans-Serif" font-size="10.00">src/Base/Property.cpp</text>
</a>
</g>
</g>
<!-- Node2&#45;&gt;Node5 -->
<g id="edge4" class="edge"><title>Node2&#45;&gt;Node5</title>
<path fill="none" stroke="midnightblue" d="M350.467,-329.537C361.344,-319.909 374.944,-307.869 384.021,-299.834"/>
<polygon fill="midnightblue" stroke="midnightblue" points="347.968,-327.075 342.801,-336.324 352.608,-332.316 347.968,-327.075"/>
</g>
<!-- Node6 -->
<g id="node6" class="node"><title>Node6</title>
<g id="a_node6"><a xlink:href="_property_tests_8cpp.html" target="_top" xlink:title=" ">
<polygon fill="white" stroke="black" points="0,-0.5 0,-19.5 134,-19.5 134,-0.5 0,-0.5"/>
<text text-anchor="middle" x="67" y="-7.5" font-family="Helvetica,sans-Serif" font-size="10.00">src/Test/PropertyTests.cpp</text>
</a>
</g>
</g>
<!-- Node2&#45;&gt;Node6 -->
<g id="edge5" class="edge"><title>Node2&#45;&gt;Node6</title>
<path fill="none" stroke="midnightblue" d="M270.701,-335.553C181.23,-320.202 27,-286.301 27,-235 27,-235 27,-235 27,-121 27,-81.1715 50.4473,-37.8504 61.4382,-19.7315"/>
<polygon fill="midnightblue" stroke="midnightblue" points="270.302,-339.035 280.744,-337.245 271.465,-332.132 270.302,-339.035"/>
</g>
<!-- Node4 -->
<g id="node4" class="node"><title>Node4</title>
<g id="a_node4"><a xlink:href="_object_8cpp.html" target="_top" xlink:title=" ">
<polygon fill="white" stroke="black" points="218,-224.5 218,-243.5 324,-243.5 324,-224.5 218,-224.5"/>
<text text-anchor="middle" x="271" y="-231.5" font-family="Helvetica,sans-Serif" font-size="10.00">src/Base/Object.cpp</text>
</a>
</g>
</g>
<!-- Node3&#45;&gt;Node4 -->
<g id="edge3" class="edge"><title>Node3&#45;&gt;Node4</title>
<path fill="none" stroke="midnightblue" d="M271,-269.805C271,-260.91 271,-250.78 271,-243.751"/>
<polygon fill="midnightblue" stroke="midnightblue" points="267.5,-270.083 271,-280.083 274.5,-270.083 267.5,-270.083"/>
</g>
<!-- Node8 -->
<g id="node8" class="node"><title>Node8</title>
<g id="a_node8"><a xlink:href="_thread_8cpp.html" target="_top" xlink:title=" ">
<polygon fill="white" stroke="black" points="1106.5,-56.5 1106.5,-75.5 1213.5,-75.5 1213.5,-56.5 1106.5,-56.5"/>
<text text-anchor="middle" x="1160" y="-63.5" font-family="Helvetica,sans-Serif" font-size="10.00">src/Base/Thread.cpp</text>
</a>
</g>
</g>
<!-- Node7&#45;&gt;Node8 -->
<g id="edge7" class="edge"><title>Node7&#45;&gt;Node8</title>
<path fill="none" stroke="midnightblue" d="M1183.7,-103.566C1177.68,-94.2747 1170.53,-83.2484 1165.67,-75.7511"/>
<polygon fill="midnightblue" stroke="midnightblue" points="1180.84,-105.595 1189.22,-112.083 1186.72,-101.788 1180.84,-105.595"/>
</g>
<!-- Node9 -->
<g id="node9" class="node"><title>Node9</title>
<g id="a_node9"><a xlink:href="_edit_8cpp.html" target="_top" xlink:title=" ">
<polygon fill="white" stroke="black" points="1232,-56.5 1232,-75.5 1340,-75.5 1340,-56.5 1232,-56.5"/>
<text text-anchor="middle" x="1286" y="-63.5" font-family="Helvetica,sans-Serif" font-size="10.00">src/Controls/Edit.cpp</text>
</a>
</g>
</g>
<!-- Node7&#45;&gt;Node9 -->
<g id="edge8" class="edge"><title>Node7&#45;&gt;Node9</title>
<path fill="none" stroke="midnightblue" d="M1218.29,-107.177C1235.04,-97.2407 1257.1,-84.1492 1271.42,-75.6545"/>
<polygon fill="midnightblue" stroke="midnightblue" points="1216.43,-104.211 1209.62,-112.324 1220.01,-110.231 1216.43,-104.211"/>
</g>
<!-- Node10 -->
<g id="node10" class="node"><title>Node10</title>
<g id="a_node10"><a xlink:href="main_8cpp.html" target="_top" xlink:title=" ">
<polygon fill="white" stroke="black" points="866.5,-56.5 866.5,-75.5 939.5,-75.5 939.5,-56.5 866.5,-56.5"/>
<text text-anchor="middle" x="903" y="-63.5" font-family="Helvetica,sans-Serif" font-size="10.00">src/main.cpp</text>
</a>
</g>
</g>
<!-- Node7&#45;&gt;Node10 -->
<g id="edge9" class="edge"><title>Node7&#45;&gt;Node10</title>
<path fill="none" stroke="midnightblue" d="M1137.4,-110.669C1087.52,-101.674 1013.45,-88.2001 949,-76 945.962,-75.4249 942.812,-74.8222 939.65,-74.2128"/>
<polygon fill="midnightblue" stroke="midnightblue" points="1136.89,-114.134 1147.35,-112.462 1138.13,-107.244 1136.89,-114.134"/>
</g>
<!-- Node12 -->
<g id="node12" class="node"><title>Node12</title>
<g id="a_node12"><a xlink:href="_button_8h.html" target="_top" xlink:title=" ">
<polygon fill="white" stroke="black" points="669.5,-112.5 669.5,-131.5 778.5,-131.5 778.5,-112.5 669.5,-112.5"/>
<text text-anchor="middle" x="724" y="-119.5" font-family="Helvetica,sans-Serif" font-size="10.00">src/Controls/Button.h</text>
</a>
</g>
</g>
<!-- Node11&#45;&gt;Node12 -->
<g id="edge11" class="edge"><title>Node11&#45;&gt;Node12</title>
<path fill="none" stroke="midnightblue" d="M790.426,-327.283C780.032,-307.462 763.516,-274.171 753,-244 738.709,-202.999 728.982,-151.79 725.462,-131.678"/>
<polygon fill="midnightblue" stroke="midnightblue" points="787.452,-329.146 795.238,-336.331 793.633,-325.859 787.452,-329.146"/>
</g>
<!-- Node14 -->
<g id="node14" class="node"><title>Node14</title>
<g id="a_node14"><a xlink:href="_control_8cpp.html" target="_top" xlink:title=" ">
<polygon fill="white" stroke="black" points="589,-56.5 589,-75.5 711,-75.5 711,-56.5 589,-56.5"/>
<text text-anchor="middle" x="650" y="-63.5" font-family="Helvetica,sans-Serif" font-size="10.00">src/Controls/Control.cpp</text>
</a>
</g>
</g>
<!-- Node11&#45;&gt;Node14 -->
<g id="edge15" class="edge"><title>Node11&#45;&gt;Node14</title>
<path fill="none" stroke="midnightblue" d="M752.219,-333.635C705.391,-319.316 641,-289.684 641,-235 641,-235 641,-235 641,-177 641,-139.061 646.384,-94.0063 648.823,-75.5383"/>
<polygon fill="midnightblue" stroke="midnightblue" points="751.336,-337.023 761.916,-336.462 753.295,-330.303 751.336,-337.023"/>
</g>
<!-- Node15 -->
<g id="node15" class="node"><title>Node15</title>
<g id="a_node15"><a xlink:href="_edit_8h.html" target="_top" xlink:title=" ">
<polygon fill="white" stroke="black" points="898,-280.5 898,-299.5 996,-299.5 996,-280.5 898,-280.5"/>
<text text-anchor="middle" x="947" y="-287.5" font-family="Helvetica,sans-Serif" font-size="10.00">src/Controls/Edit.h</text>
</a>
</g>
</g>
<!-- Node11&#45;&gt;Node15 -->
<g id="edge16" class="edge"><title>Node11&#45;&gt;Node15</title>
<path fill="none" stroke="midnightblue" d="M832.923,-332.906C860.56,-322.754 899.344,-308.506 923.816,-299.516"/>
<polygon fill="midnightblue" stroke="midnightblue" points="831.472,-329.71 823.293,-336.444 833.886,-336.281 831.472,-329.71"/>
</g>
<!-- Node27 -->
<g id="node27" class="node"><title>Node27</title>
<g id="a_node27"><a xlink:href="_progress_8h.html" target="_top" xlink:title=" ">
<polygon fill="white" stroke="black" points="971.5,-112.5 971.5,-131.5 1090.5,-131.5 1090.5,-112.5 971.5,-112.5"/>
<text text-anchor="middle" x="1031" y="-119.5" font-family="Helvetica,sans-Serif" font-size="10.00">src/Controls/Progress.h</text>
</a>
</g>
</g>
<!-- Node11&#45;&gt;Node27 -->
<g id="edge40" class="edge"><title>Node11&#45;&gt;Node27</title>
<path fill="none" stroke="midnightblue" d="M816.544,-329.101C861.821,-285.588 986.723,-165.552 1021.76,-131.884"/>
<polygon fill="midnightblue" stroke="midnightblue" points="813.84,-326.845 809.055,-336.297 818.691,-331.892 813.84,-326.845"/>
</g>
<!-- Node12&#45;&gt;Node10 -->
<g id="edge14" class="edge"><title>Node12&#45;&gt;Node10</title>
<path fill="none" stroke="midnightblue" d="M762.331,-109.436C796.08,-99.2551 844.447,-84.664 874.77,-75.5164"/>
<polygon fill="midnightblue" stroke="midnightblue" points="760.926,-106.204 752.363,-112.444 762.948,-112.906 760.926,-106.204"/>
</g>
<!-- Node13 -->
<g id="node13" class="node"><title>Node13</title>
<g id="a_node13"><a xlink:href="_button_8cpp.html" target="_top" xlink:title=" ">
<polygon fill="white" stroke="black" points="729.5,-56.5 729.5,-75.5 848.5,-75.5 848.5,-56.5 729.5,-56.5"/>
<text text-anchor="middle" x="789" y="-63.5" font-family="Helvetica,sans-Serif" font-size="10.00">src/Controls/Button.cpp</text>
</a>
</g>
</g>
<!-- Node12&#45;&gt;Node13 -->
<g id="edge12" class="edge"><title>Node12&#45;&gt;Node13</title>
<path fill="none" stroke="midnightblue" d="M742.273,-105.82C753.918,-96.1452 768.599,-83.9481 778.367,-75.8339"/>
<polygon fill="midnightblue" stroke="midnightblue" points="739.899,-103.242 734.443,-112.324 744.372,-108.626 739.899,-103.242"/>
</g>
<!-- Node12&#45;&gt;Node14 -->
<g id="edge13" class="edge"><title>Node12&#45;&gt;Node14</title>
<path fill="none" stroke="midnightblue" d="M703.966,-106.38C690.591,-96.6204 673.441,-84.1057 662.106,-75.8339"/>
<polygon fill="midnightblue" stroke="midnightblue" points="701.97,-109.257 712.111,-112.324 706.096,-103.602 701.97,-109.257"/>
</g>
<!-- Node15&#45;&gt;Node8 -->
<g id="edge17" class="edge"><title>Node15&#45;&gt;Node8</title>
<path fill="none" stroke="midnightblue" d="M963.048,-272.823C991.073,-244.509 1050.66,-184.026 1100,-132 1118.81,-112.166 1140.47,-88.4888 1151.92,-75.9018"/>
<polygon fill="midnightblue" stroke="midnightblue" points="960.263,-270.661 955.712,-280.229 965.236,-275.588 960.263,-270.661"/>
</g>
<!-- Node15&#45;&gt;Node9 -->
<g id="edge18" class="edge"><title>Node15&#45;&gt;Node9</title>
<path fill="none" stroke="midnightblue" d="M986.232,-277.42C1049.23,-257.112 1173.8,-209.692 1252,-132 1268.62,-115.485 1278.92,-89.1311 1283.39,-75.6135"/>
<polygon fill="midnightblue" stroke="midnightblue" points="985.144,-274.093 976.666,-280.447 987.256,-280.767 985.144,-274.093"/>
</g>
<!-- Node15&#45;&gt;Node10 -->
<g id="edge19" class="edge"><title>Node15&#45;&gt;Node10</title>
<path fill="none" stroke="midnightblue" d="M946.434,-269.969C945.04,-237.118 940.256,-167.917 924,-112 920.149,-98.7543 912.909,-84.4876 908.02,-75.6502"/>
<polygon fill="midnightblue" stroke="midnightblue" points="942.95,-270.469 946.81,-280.335 949.946,-270.215 942.95,-270.469"/>
</g>
<!-- Node16 -->
<g id="node16" class="node"><title>Node16</title>
<g id="a_node16"><a xlink:href="output_8hpp.html" target="_top" xlink:title=" ">
<polygon fill="white" stroke="black" points="762.5,-224.5 762.5,-243.5 841.5,-243.5 841.5,-224.5 762.5,-224.5"/>
<text text-anchor="middle" x="802" y="-231.5" font-family="Helvetica,sans-Serif" font-size="10.00">src/output.hpp</text>
</a>
</g>
</g>
<!-- Node15&#45;&gt;Node16 -->
<g id="edge20" class="edge"><title>Node15&#45;&gt;Node16</title>
<path fill="none" stroke="midnightblue" d="M914.525,-276.906C887.264,-266.754 849.008,-252.506 824.868,-243.516"/>
<polygon fill="midnightblue" stroke="midnightblue" points="913.432,-280.233 924.024,-280.444 915.875,-273.674 913.432,-280.233"/>
</g>
<!-- Node17 -->
<g id="node17" class="node"><title>Node17</title>
<g id="a_node17"><a xlink:href="_test_case_8h.html" target="_top" xlink:title=" ">
<polygon fill="white" stroke="black" points="463,-112.5 463,-131.5 567,-131.5 567,-112.5 463,-112.5"/>
<text text-anchor="middle" x="515" y="-119.5" font-family="Helvetica,sans-Serif" font-size="10.00">src/Test/TestCase.h</text>
</a>
</g>
</g>
<!-- Node16&#45;&gt;Node17 -->
<g id="edge21" class="edge"><title>Node16&#45;&gt;Node17</title>
<path fill="none" stroke="midnightblue" d="M769.975,-220.726C711.321,-198.245 588.032,-150.991 537.416,-131.591"/>
<polygon fill="midnightblue" stroke="midnightblue" points="768.889,-224.058 779.48,-224.368 771.395,-217.521 768.889,-224.058"/>
</g>
<!-- Node24 -->
<g id="node24" class="node"><title>Node24</title>
<g id="a_node24"><a xlink:href="utils_8hpp.html" target="_top" xlink:title=" ">
<polygon fill="white" stroke="black" points="769,-168.5 769,-187.5 839,-187.5 839,-168.5 769,-168.5"/>
<text text-anchor="middle" x="804" y="-175.5" font-family="Helvetica,sans-Serif" font-size="10.00">src/utils.hpp</text>
</a>
</g>
</g>
<!-- Node16&#45;&gt;Node24 -->
<g id="edge30" class="edge"><title>Node16&#45;&gt;Node24</title>
<path fill="none" stroke="midnightblue" d="M802.711,-213.805C803.04,-204.91 803.416,-194.78 803.676,-187.751"/>
<polygon fill="midnightblue" stroke="midnightblue" points="799.203,-213.96 802.33,-224.083 806.198,-214.219 799.203,-213.96"/>
</g>
<!-- Node17&#45;&gt;Node10 -->
<g id="edge22" class="edge"><title>Node17&#45;&gt;Node10</title>
<path fill="none" stroke="midnightblue" d="M577.215,-113.996C645.885,-105.99 759.605,-91.9195 857,-76 860.052,-75.5012 863.211,-74.9521 866.379,-74.3788"/>
<polygon fill="midnightblue" stroke="midnightblue" points="576.534,-110.551 567.004,-115.18 577.341,-117.505 576.534,-110.551"/>
</g>
<!-- Node18 -->
<g id="node18" class="node"><title>Node18</title>
<g id="a_node18"><a xlink:href="_base_tests_8h.html" target="_top" xlink:title=" ">
<polygon fill="white" stroke="black" points="197,-56.5 197,-75.5 307,-75.5 307,-56.5 197,-56.5"/>
<text text-anchor="middle" x="252" y="-63.5" font-family="Helvetica,sans-Serif" font-size="10.00">src/Test/BaseTests.h</text>
</a>
</g>
</g>
<!-- Node17&#45;&gt;Node18 -->
<g id="edge23" class="edge"><title>Node17&#45;&gt;Node18</title>
<path fill="none" stroke="midnightblue" d="M463.421,-110.41C413.717,-100.204 339.471,-84.9597 293.478,-75.5164"/>
<polygon fill="midnightblue" stroke="midnightblue" points="462.827,-113.861 473.327,-112.444 464.235,-107.004 462.827,-113.861"/>
</g>
<!-- Node20 -->
<g id="node20" class="node"><title>Node20</title>
<g id="a_node20"><a xlink:href="_property_tests_8h.html" target="_top" xlink:title=" ">
<polygon fill="white" stroke="black" points="55,-56.5 55,-75.5 179,-75.5 179,-56.5 55,-56.5"/>
<text text-anchor="middle" x="117" y="-63.5" font-family="Helvetica,sans-Serif" font-size="10.00">src/Test/PropertyTests.h</text>
</a>
</g>
</g>
<!-- Node17&#45;&gt;Node20 -->
<g id="edge25" class="edge"><title>Node17&#45;&gt;Node20</title>
<path fill="none" stroke="midnightblue" d="M452.778,-112.558C378.151,-102.433 253.805,-85.5615 179.191,-75.438"/>
<polygon fill="midnightblue" stroke="midnightblue" points="452.589,-116.064 462.968,-113.94 453.53,-109.128 452.589,-116.064"/>
</g>
<!-- Node21 -->
<g id="node21" class="node"><title>Node21</title>
<g id="a_node21"><a xlink:href="_test_case_8cpp.html" target="_top" xlink:title=" ">
<polygon fill="white" stroke="black" points="325.5,-56.5 325.5,-75.5 440.5,-75.5 440.5,-56.5 325.5,-56.5"/>
<text text-anchor="middle" x="383" y="-63.5" font-family="Helvetica,sans-Serif" font-size="10.00">src/Test/TestCase.cpp</text>
</a>
</g>
</g>
<!-- Node17&#45;&gt;Node21 -->
<g id="edge27" class="edge"><title>Node17&#45;&gt;Node21</title>
<path fill="none" stroke="midnightblue" d="M484.781,-108.638C460.01,-98.504 425.6,-84.4274 403.818,-75.5164"/>
<polygon fill="midnightblue" stroke="midnightblue" points="483.503,-111.897 494.084,-112.444 486.154,-105.418 483.503,-111.897"/>
</g>
<!-- Node22 -->
<g id="node22" class="node"><title>Node22</title>
<g id="a_node22"><a xlink:href="_value_tests_8h.html" target="_top" xlink:title=" ">
<polygon fill="white" stroke="black" points="459,-56.5 459,-75.5 571,-75.5 571,-56.5 459,-56.5"/>
<text text-anchor="middle" x="515" y="-63.5" font-family="Helvetica,sans-Serif" font-size="10.00">src/Test/ValueTests.h</text>
</a>
</g>
</g>
<!-- Node17&#45;&gt;Node22 -->
<g id="edge28" class="edge"><title>Node17&#45;&gt;Node22</title>
<path fill="none" stroke="midnightblue" d="M515,-101.805C515,-92.9102 515,-82.7798 515,-75.7511"/>
<polygon fill="midnightblue" stroke="midnightblue" points="511.5,-102.083 515,-112.083 518.5,-102.083 511.5,-102.083"/>
</g>
<!-- Node19 -->
<g id="node19" class="node"><title>Node19</title>
<g id="a_node19"><a xlink:href="_base_tests_8cpp.html" target="_top" xlink:title=" ">
<polygon fill="white" stroke="black" points="192,-0.5 192,-19.5 312,-19.5 312,-0.5 192,-0.5"/>
<text text-anchor="middle" x="252" y="-7.5" font-family="Helvetica,sans-Serif" font-size="10.00">src/Test/BaseTests.cpp</text>
</a>
</g>
</g>
<!-- Node18&#45;&gt;Node19 -->
<g id="edge24" class="edge"><title>Node18&#45;&gt;Node19</title>
<path fill="none" stroke="midnightblue" d="M252,-45.8045C252,-36.9102 252,-26.7798 252,-19.7511"/>
<polygon fill="midnightblue" stroke="midnightblue" points="248.5,-46.083 252,-56.083 255.5,-46.083 248.5,-46.083"/>
</g>
<!-- Node20&#45;&gt;Node6 -->
<g id="edge26" class="edge"><title>Node20&#45;&gt;Node6</title>
<path fill="none" stroke="midnightblue" d="M101.924,-48.7175C93.1109,-39.1997 82.3341,-27.5608 75.1028,-19.7511"/>
<polygon fill="midnightblue" stroke="midnightblue" points="99.3812,-51.1233 108.744,-56.083 104.518,-46.3674 99.3812,-51.1233"/>
</g>
<!-- Node23 -->
<g id="node23" class="node"><title>Node23</title>
<g id="a_node23"><a xlink:href="_value_tests_8cpp.html" target="_top" xlink:title=" ">
<polygon fill="white" stroke="black" points="454,-0.5 454,-19.5 576,-19.5 576,-0.5 454,-0.5"/>
<text text-anchor="middle" x="515" y="-7.5" font-family="Helvetica,sans-Serif" font-size="10.00">src/Test/ValueTests.cpp</text>
</a>
</g>
</g>
<!-- Node22&#45;&gt;Node23 -->
<g id="edge29" class="edge"><title>Node22&#45;&gt;Node23</title>
<path fill="none" stroke="midnightblue" d="M515,-45.8045C515,-36.9102 515,-26.7798 515,-19.7511"/>
<polygon fill="midnightblue" stroke="midnightblue" points="511.5,-46.083 515,-56.083 518.5,-46.083 511.5,-46.083"/>
</g>
<!-- Node24&#45;&gt;Node10 -->
<g id="edge38" class="edge"><title>Node24&#45;&gt;Node10</title>
<path fill="none" stroke="midnightblue" d="M806.653,-158.541C809.46,-144.512 815.068,-125.405 826,-112 839.994,-94.8411 862.38,-82.8107 879.416,-75.5334"/>
<polygon fill="midnightblue" stroke="midnightblue" points="803.186,-158.052 804.954,-168.499 810.086,-159.23 803.186,-158.052"/>
</g>
<!-- Node24&#45;&gt;Node17 -->
<g id="edge39" class="edge"><title>Node24&#45;&gt;Node17</title>
<path fill="none" stroke="midnightblue" d="M758.87,-168.567C704.829,-158.47 614.83,-141.653 560.586,-131.518"/>
<polygon fill="midnightblue" stroke="midnightblue" points="758.379,-172.036 768.852,-170.433 759.665,-165.155 758.379,-172.036"/>
</g>
<!-- Node25 -->
<g id="node25" class="node"><title>Node25</title>
<g id="a_node25"><a xlink:href="dbg__new_8h.html" target="_top" xlink:title=" ">
<polygon fill="white" stroke="black" points="835,-112.5 835,-131.5 915,-131.5 915,-112.5 835,-112.5"/>
<text text-anchor="middle" x="875" y="-119.5" font-family="Helvetica,sans-Serif" font-size="10.00">src/dbg_new.h</text>
</a>
</g>
</g>
<!-- Node24&#45;&gt;Node25 -->
<g id="edge31" class="edge"><title>Node24&#45;&gt;Node25</title>
<path fill="none" stroke="midnightblue" d="M823.59,-162.101C836.368,-152.382 852.613,-140.027 863.385,-131.834"/>
<polygon fill="midnightblue" stroke="midnightblue" points="821.248,-159.484 815.407,-168.324 825.486,-165.056 821.248,-159.484"/>
</g>
<!-- Node25&#45;&gt;Node8 -->
<g id="edge32" class="edge"><title>Node25&#45;&gt;Node8</title>
<path fill="none" stroke="midnightblue" d="M925.204,-111.488C978.859,-101.321 1063.15,-85.3499 1114.8,-75.5637"/>
<polygon fill="midnightblue" stroke="midnightblue" points="924.403,-108.077 915.229,-113.378 925.706,-114.955 924.403,-108.077"/>
</g>
<!-- Node25&#45;&gt;Node9 -->
<g id="edge35" class="edge"><title>Node25&#45;&gt;Node9</title>
<path fill="none" stroke="midnightblue" d="M925.175,-114.725C992.836,-106.213 1117.07,-90.415 1223,-76 1225.85,-75.6127 1228.76,-75.2112 1231.71,-74.8024"/>
<polygon fill="midnightblue" stroke="midnightblue" points="924.698,-111.257 915.212,-115.977 925.571,-118.202 924.698,-111.257"/>
</g>
<!-- Node25&#45;&gt;Node10 -->
<g id="edge37" class="edge"><title>Node25&#45;&gt;Node10</title>
<path fill="none" stroke="midnightblue" d="M884.342,-102.983C889.095,-93.8168 894.656,-83.0922 898.462,-75.7511"/>
<polygon fill="midnightblue" stroke="midnightblue" points="881.12,-101.594 879.624,-112.083 887.334,-104.817 881.12,-101.594"/>
</g>
<!-- Node25&#45;&gt;Node13 -->
<g id="edge33" class="edge"><title>Node25&#45;&gt;Node13</title>
<path fill="none" stroke="midnightblue" d="M852.545,-106.901C836.776,-96.9986 816.186,-84.0705 802.783,-75.6545"/>
<polygon fill="midnightblue" stroke="midnightblue" points="850.852,-109.97 861.183,-112.324 854.575,-104.042 850.852,-109.97"/>
</g>
<!-- Node25&#45;&gt;Node14 -->
<g id="edge34" class="edge"><title>Node25&#45;&gt;Node14</title>
<path fill="none" stroke="midnightblue" d="M829.535,-110.088C787.027,-99.8865 724.421,-84.8612 685.485,-75.5164"/>
<polygon fill="midnightblue" stroke="midnightblue" points="828.807,-113.513 839.348,-112.444 830.441,-106.706 828.807,-113.513"/>
</g>
<!-- Node26 -->
<g id="node26" class="node"><title>Node26</title>
<g id="a_node26"><a xlink:href="_progress_8cpp.html" target="_top" xlink:title=" ">
<polygon fill="white" stroke="black" points="958,-56.5 958,-75.5 1088,-75.5 1088,-56.5 958,-56.5"/>
<text text-anchor="middle" x="1023" y="-63.5" font-family="Helvetica,sans-Serif" font-size="10.00">src/Controls/Progress.cpp</text>
</a>
</g>
</g>
<!-- Node25&#45;&gt;Node26 -->
<g id="edge36" class="edge"><title>Node25&#45;&gt;Node26</title>
<path fill="none" stroke="midnightblue" d="M908.147,-108.906C935.972,-98.7536 975.02,-84.5063 999.659,-75.5164"/>
<polygon fill="midnightblue" stroke="midnightblue" points="906.646,-105.728 898.451,-112.444 909.045,-112.304 906.646,-105.728"/>
</g>
<!-- Node27&#45;&gt;Node10 -->
<g id="edge42" class="edge"><title>Node27&#45;&gt;Node10</title>
<path fill="none" stroke="midnightblue" d="M1001.38,-108.503C977.381,-98.3795 944.216,-84.388 923.187,-75.5164"/>
<polygon fill="midnightblue" stroke="midnightblue" points="1000.14,-111.781 1010.72,-112.444 1002.86,-105.332 1000.14,-111.781"/>
</g>
<!-- Node27&#45;&gt;Node26 -->
<g id="edge41" class="edge"><title>Node27&#45;&gt;Node26</title>
<path fill="none" stroke="midnightblue" d="M1028.2,-102.101C1026.87,-93.1357 1025.35,-82.8579 1024.3,-75.7511"/>
<polygon fill="midnightblue" stroke="midnightblue" points="1024.75,-102.704 1029.68,-112.083 1031.68,-101.678 1024.75,-102.704"/>
</g>
</g>
</svg>
        <g id="navigator" transform="translate(0 0)" fill="#404254">
                <rect fill="#f2f5e9" fill-opacity="0.5" stroke="#606060" stroke-width=".5" x="0" y="0" width="60" height="60"/>
                <use id="zoomplus" xlink:href="#zoomPlus" x="17" y="9" onmousedown="handleZoom(evt,'in')"/>
                <use id="zoomminus" xlink:href="#zoomMin" x="42" y="9" onmousedown="handleZoom(evt,'out')"/>
                <use id="reset" xlink:href="#resetDef" x="30" y="36" onmousedown="handleReset()"/>
                <g id="arrowUp" xlink:href="#dirArrow" transform="translate(30 24)" onmousedown="handlePan(0,-1)">
                  <use xlink:href="#rim" fill="#404040">
                        <set attributeName="fill" to="#808080" begin="arrowUp.mouseover" end="arrowUp.mouseout"/>
                  </use>
                  <path fill="none" stroke="white" stroke-width="1.5" d="M0,-3.0v7 M-2.5,-0.5L0,-3.0L2.5,-0.5"/>
                </g>
                <g id="arrowRight" xlink:href="#dirArrow" transform="rotate(90) translate(36 -43)" onmousedown="handlePan(1,0)">
                  <use xlink:href="#rim" fill="#404040">
                        <set attributeName="fill" to="#808080" begin="arrowRight.mouseover" end="arrowRight.mouseout"/>
                  </use>
                  <path fill="none" stroke="white" stroke-width="1.5" d="M0,-3.0v7 M-2.5,-0.5L0,-3.0L2.5,-0.5"/>
                </g>
                <g id="arrowDown" xlink:href="#dirArrow" transform="rotate(180) translate(-30 -48)" onmousedown="handlePan(0,1)">
                  <use xlink:href="#rim" fill="#404040">
                        <set attributeName="fill" to="#808080" begin="arrowDown.mouseover" end="arrowDown.mouseout"/>
                  </use>
                  <path fill="none" stroke="white" stroke-width="1.5" d="M0,-3.0v7 M-2.5,-0.5L0,-3.0L2.5,-0.5"/>
                </g>
                <g id="arrowLeft" xlink:href="#dirArrow" transform="rotate(270) translate(-36 17)" onmousedown="handlePan(-1,0)">
                  <use xlink:href="#rim" fill="#404040">
                        <set attributeName="fill" to="#808080" begin="arrowLeft.mouseover" end="arrowLeft.mouseout"/>
                  </use>
                  <path fill="none" stroke="white" stroke-width="1.5" d="M0,-3.0v7 M-2.5,-0.5L0,-3.0L2.5,-0.5"/>
                </g>
        </g>
        <svg viewBox="0 0 15 15" width="100%" height="30px" preserveAspectRatio="xMaxYMin meet">
         <g id="arrow_out" transform="scale(0.3 0.3)">
          <a xlink:href="_property_8hpp__dep__incl_org.svg" target="_base">
           <rect id="button" ry="5" rx="5" y="6" x="6" height="38" width="38"
                fill="#f2f5e9" fill-opacity="0.5" stroke="#606060" stroke-width="1.0"/>
           <path id="arrow"
             d="M 11.500037,31.436501 C 11.940474,20.09759 22.043105,11.32322 32.158766,21.979434 L 37.068811,17.246167 C 37.068811,17.246167 37.088388,32 37.088388,32 L 22.160133,31.978069 C 22.160133,31.978069 26.997745,27.140456 26.997745,27.140456 C 18.528582,18.264221 13.291696,25.230495 11.500037,31.436501 z"
             style="fill:#404040;"/>
          </a>
         </g>
        </svg>
</svg>
