<?xml version="1.0" encoding="UTF-8" standalone="no"?>
<!DOCTYPE svg PUBLIC "-//W3C//DTD SVG 1.1//EN"
 "http://www.w3.org/Graphics/SVG/1.1/DTD/svg11.dtd">
<!-- Generated by graphviz version 2.38.0 (20140413.2041)
 -->
<!-- Title: src/Base/Serialize.cpp Pages: 1 -->
<svg width="125pt" height="140pt"
 viewBox="0.00 0.00 124.50 140.00" xmlns="http://www.w3.org/2000/svg" xmlns:xlink="http://www.w3.org/1999/xlink">
<g id="graph0" class="graph" transform="scale(1 1) rotate(0) translate(4 136)">
<title>src/Base/Serialize.cpp</title>
<polygon fill="white" stroke="none" points="-4,4 -4,-136 120.5,-136 120.5,4 -4,4"/>
<!-- Node1 -->
<g id="node1" class="node"><title>Node1</title>
<g id="a_node1"><a xlink:title=" ">
<polygon fill="#bfbfbf" stroke="black" points="0,-112.5 0,-131.5 115,-131.5 115,-112.5 0,-112.5"/>
<text text-anchor="middle" x="57.5" y="-119.5" font-family="Helvetica,sans-Serif" font-size="10.00">src/Base/Serialize.cpp</text>
</a>
</g>
</g>
<!-- Node2 -->
<g id="node2" class="node"><title>Node2</title>
<g id="a_node2"><a xlink:href="_serialize_8h.html" target="_top" xlink:title=" ">
<polygon fill="white" stroke="black" points="26.5,-56.5 26.5,-75.5 88.5,-75.5 88.5,-56.5 26.5,-56.5"/>
<text text-anchor="middle" x="57.5" y="-63.5" font-family="Helvetica,sans-Serif" font-size="10.00">Serialize.h</text>
</a>
</g>
</g>
<!-- Node1&#45;&gt;Node2 -->
<g id="edge1" class="edge"><title>Node1&#45;&gt;Node2</title>
<path fill="none" stroke="midnightblue" d="M57.5,-112.083C57.5,-105.006 57.5,-94.8611 57.5,-85.9865"/>
<polygon fill="midnightblue" stroke="midnightblue" points="61.0001,-85.751 57.5,-75.7511 54.0001,-85.7511 61.0001,-85.751"/>
</g>
<!-- Node3 -->
<g id="node3" class="node"><title>Node3</title>
<g id="a_node3"><a xlink:title=" ">
<polygon fill="white" stroke="#bfbfbf" points="5,-0.5 5,-19.5 46,-19.5 46,-0.5 5,-0.5"/>
<text text-anchor="middle" x="25.5" y="-7.5" font-family="Helvetica,sans-Serif" font-size="10.00">string</text>
</a>
</g>
</g>
<!-- Node2&#45;&gt;Node3 -->
<g id="edge2" class="edge"><title>Node2&#45;&gt;Node3</title>
<path fill="none" stroke="midnightblue" d="M52.2159,-56.083C47.789,-48.6127 41.3367,-37.7244 35.8821,-28.5199"/>
<polygon fill="midnightblue" stroke="midnightblue" points="38.7949,-26.5697 30.6858,-19.7511 32.7729,-30.1383 38.7949,-26.5697"/>
</g>
<!-- Node4 -->
<g id="node4" class="node"><title>Node4</title>
<g id="a_node4"><a xlink:title=" ">
<polygon fill="white" stroke="#bfbfbf" points="64.5,-0.5 64.5,-19.5 116.5,-19.5 116.5,-0.5 64.5,-0.5"/>
<text text-anchor="middle" x="90.5" y="-7.5" font-family="Helvetica,sans-Serif" font-size="10.00">memory</text>
</a>
</g>
</g>
<!-- Node2&#45;&gt;Node4 -->
<g id="edge3" class="edge"><title>Node2&#45;&gt;Node4</title>
<path fill="none" stroke="midnightblue" d="M62.9493,-56.083C67.5145,-48.6127 74.1684,-37.7244 79.7934,-28.5199"/>
<polygon fill="midnightblue" stroke="midnightblue" points="82.9241,-30.109 85.1521,-19.7511 76.9511,-26.4588 82.9241,-30.109"/>
</g>
</g>
</svg>
