<?xml version="1.0" encoding="UTF-8" standalone="no"?>
<!DOCTYPE svg PUBLIC "-//W3C//DTD SVG 1.1//EN"
 "http://www.w3.org/Graphics/SVG/1.1/DTD/svg11.dtd">
<!-- Generated by graphviz version 2.38.0 (20140413.2041)
 -->
<!-- Title: src/Base/Serialize.h Pages: 1 -->
<svg width="497pt" height="252pt"
 viewBox="0.00 0.00 497.00 252.00" xmlns="http://www.w3.org/2000/svg" xmlns:xlink="http://www.w3.org/1999/xlink">
<g id="graph0" class="graph" transform="scale(1 1) rotate(0) translate(4 248)">
<title>src/Base/Serialize.h</title>
<polygon fill="white" stroke="none" points="-4,4 -4,-248 493,-248 493,4 -4,4"/>
<!-- Node1 -->
<g id="node1" class="node"><title>Node1</title>
<g id="a_node1"><a xlink:title=" ">
<polygon fill="#bfbfbf" stroke="black" points="82,-224.5 82,-243.5 186,-243.5 186,-224.5 82,-224.5"/>
<text text-anchor="middle" x="134" y="-231.5" font-family="Helvetica,sans-Serif" font-size="10.00">src/Base/Serialize.h</text>
</a>
</g>
</g>
<!-- Node2 -->
<g id="node2" class="node"><title>Node2</title>
<g id="a_node2"><a xlink:href="_object_8h.html" target="_top" xlink:title=" ">
<polygon fill="white" stroke="black" points="5.5,-56.5 5.5,-75.5 100.5,-75.5 100.5,-56.5 5.5,-56.5"/>
<text text-anchor="middle" x="53" y="-63.5" font-family="Helvetica,sans-Serif" font-size="10.00">src/Base/Object.h</text>
</a>
</g>
</g>
<!-- Node1&#45;&gt;Node2 -->
<g id="edge1" class="edge"><title>Node1&#45;&gt;Node2</title>
<path fill="none" stroke="midnightblue" d="M121.269,-216.339C115.287,-208.079 108.32,-197.796 103,-188 81.1952,-147.852 62.8072,-96.1561 55.9126,-75.796"/>
<polygon fill="midnightblue" stroke="midnightblue" points="118.475,-218.448 127.248,-224.389 124.095,-214.274 118.475,-218.448"/>
</g>
<!-- Node4 -->
<g id="node4" class="node"><title>Node4</title>
<g id="a_node4"><a xlink:href="_property_8h.html" target="_top" xlink:title=" ">
<polygon fill="white" stroke="black" points="124,-112.5 124,-131.5 228,-131.5 228,-112.5 124,-112.5"/>
<text text-anchor="middle" x="176" y="-119.5" font-family="Helvetica,sans-Serif" font-size="10.00">src/Base/Property.h</text>
</a>
</g>
</g>
<!-- Node1&#45;&gt;Node4 -->
<g id="edge3" class="edge"><title>Node1&#45;&gt;Node4</title>
<path fill="none" stroke="midnightblue" d="M120.016,-215.98C110.784,-202.551 101.78,-183.554 110,-168 119.137,-150.712 138.231,-138.816 153.541,-131.618"/>
<polygon fill="midnightblue" stroke="midnightblue" points="117.437,-218.374 126.235,-224.277 123.038,-214.176 117.437,-218.374"/>
</g>
<!-- Node7 -->
<g id="node7" class="node"><title>Node7</title>
<g id="a_node7"><a xlink:href="_serialize_8cpp.html" target="_top" xlink:title=" ">
<polygon fill="white" stroke="black" points="119.5,-168.5 119.5,-187.5 234.5,-187.5 234.5,-168.5 119.5,-168.5"/>
<text text-anchor="middle" x="177" y="-175.5" font-family="Helvetica,sans-Serif" font-size="10.00">src/Base/Serialize.cpp</text>
</a>
</g>
</g>
<!-- Node1&#45;&gt;Node7 -->
<g id="edge7" class="edge"><title>Node1&#45;&gt;Node7</title>
<path fill="none" stroke="midnightblue" d="M147.422,-216.144C154.914,-206.736 163.937,-195.405 170.032,-187.751"/>
<polygon fill="midnightblue" stroke="midnightblue" points="144.592,-214.08 141.101,-224.083 150.068,-218.44 144.592,-214.08"/>
</g>
<!-- Node8 -->
<g id="node8" class="node"><title>Node8</title>
<g id="a_node8"><a xlink:href="_value_8h.html" target="_top" xlink:title=" ">
<polygon fill="white" stroke="black" points="253,-168.5 253,-187.5 345,-187.5 345,-168.5 253,-168.5"/>
<text text-anchor="middle" x="299" y="-175.5" font-family="Helvetica,sans-Serif" font-size="10.00">src/Base/Value.h</text>
</a>
</g>
</g>
<!-- Node1&#45;&gt;Node8 -->
<g id="edge8" class="edge"><title>Node1&#45;&gt;Node8</title>
<path fill="none" stroke="midnightblue" d="M169.736,-221.304C200.827,-211.129 245.147,-196.625 272.978,-187.516"/>
<polygon fill="midnightblue" stroke="midnightblue" points="168.56,-218.007 160.145,-224.444 170.737,-224.659 168.56,-218.007"/>
</g>
<!-- Node3 -->
<g id="node3" class="node"><title>Node3</title>
<g id="a_node3"><a xlink:href="_object_8cpp.html" target="_top" xlink:title=" ">
<polygon fill="white" stroke="black" points="0,-0.5 0,-19.5 106,-19.5 106,-0.5 0,-0.5"/>
<text text-anchor="middle" x="53" y="-7.5" font-family="Helvetica,sans-Serif" font-size="10.00">src/Base/Object.cpp</text>
</a>
</g>
</g>
<!-- Node2&#45;&gt;Node3 -->
<g id="edge2" class="edge"><title>Node2&#45;&gt;Node3</title>
<path fill="none" stroke="midnightblue" d="M53,-45.8045C53,-36.9102 53,-26.7798 53,-19.7511"/>
<polygon fill="midnightblue" stroke="midnightblue" points="49.5001,-46.083 53,-56.083 56.5001,-46.083 49.5001,-46.083"/>
</g>
<!-- Node4&#45;&gt;Node2 -->
<g id="edge4" class="edge"><title>Node4&#45;&gt;Node2</title>
<path fill="none" stroke="midnightblue" d="M147.227,-108.368C124.193,-98.2553 92.5162,-84.3486 72.3985,-75.5164"/>
<polygon fill="midnightblue" stroke="midnightblue" points="145.947,-111.628 156.51,-112.444 148.761,-105.219 145.947,-111.628"/>
</g>
<!-- Node5 -->
<g id="node5" class="node"><title>Node5</title>
<g id="a_node5"><a xlink:href="_property_8cpp.html" target="_top" xlink:title=" ">
<polygon fill="white" stroke="black" points="119,-56.5 119,-75.5 233,-75.5 233,-56.5 119,-56.5"/>
<text text-anchor="middle" x="176" y="-63.5" font-family="Helvetica,sans-Serif" font-size="10.00">src/Base/Property.cpp</text>
</a>
</g>
</g>
<!-- Node4&#45;&gt;Node5 -->
<g id="edge5" class="edge"><title>Node4&#45;&gt;Node5</title>
<path fill="none" stroke="midnightblue" d="M176,-101.805C176,-92.9102 176,-82.7798 176,-75.7511"/>
<polygon fill="midnightblue" stroke="midnightblue" points="172.5,-102.083 176,-112.083 179.5,-102.083 172.5,-102.083"/>
</g>
<!-- Node6 -->
<g id="node6" class="node"><title>Node6</title>
<g id="a_node6"><a xlink:href="_property_tests_8cpp.html" target="_top" xlink:title=" ">
<polygon fill="white" stroke="black" points="251,-56.5 251,-75.5 385,-75.5 385,-56.5 251,-56.5"/>
<text text-anchor="middle" x="318" y="-63.5" font-family="Helvetica,sans-Serif" font-size="10.00">src/Test/PropertyTests.cpp</text>
</a>
</g>
</g>
<!-- Node4&#45;&gt;Node6 -->
<g id="edge6" class="edge"><title>Node4&#45;&gt;Node6</title>
<path fill="none" stroke="midnightblue" d="M208.155,-108.772C234.828,-98.6287 272.069,-84.4669 295.605,-75.5164"/>
<polygon fill="midnightblue" stroke="midnightblue" points="206.603,-105.618 198.5,-112.444 209.091,-112.16 206.603,-105.618"/>
</g>
<!-- Node8&#45;&gt;Node4 -->
<g id="edge9" class="edge"><title>Node8&#45;&gt;Node4</title>
<path fill="none" stroke="midnightblue" d="M270.227,-164.368C247.193,-154.255 215.516,-140.349 195.399,-131.516"/>
<polygon fill="midnightblue" stroke="midnightblue" points="268.947,-167.628 279.51,-168.444 271.761,-161.219 268.947,-167.628"/>
</g>
<!-- Node9 -->
<g id="node9" class="node"><title>Node9</title>
<g id="a_node9"><a xlink:href="_value_8cpp.html" target="_top" xlink:title=" ">
<polygon fill="white" stroke="black" points="247,-112.5 247,-131.5 349,-131.5 349,-112.5 247,-112.5"/>
<text text-anchor="middle" x="298" y="-119.5" font-family="Helvetica,sans-Serif" font-size="10.00">src/Base/Value.cpp</text>
</a>
</g>
</g>
<!-- Node8&#45;&gt;Node9 -->
<g id="edge10" class="edge"><title>Node8&#45;&gt;Node9</title>
<path fill="none" stroke="midnightblue" d="M298.645,-157.805C298.48,-148.91 298.292,-138.78 298.162,-131.751"/>
<polygon fill="midnightblue" stroke="midnightblue" points="295.15,-158.15 298.835,-168.083 302.149,-158.02 295.15,-158.15"/>
</g>
<!-- Node10 -->
<g id="node10" class="node"><title>Node10</title>
<g id="a_node10"><a xlink:href="_value_tests_8cpp.html" target="_top" xlink:title=" ">
<polygon fill="white" stroke="black" points="367,-112.5 367,-131.5 489,-131.5 489,-112.5 367,-112.5"/>
<text text-anchor="middle" x="428" y="-119.5" font-family="Helvetica,sans-Serif" font-size="10.00">src/Test/ValueTests.cpp</text>
</a>
</g>
</g>
<!-- Node8&#45;&gt;Node10 -->
<g id="edge11" class="edge"><title>Node8&#45;&gt;Node10</title>
<path fill="none" stroke="midnightblue" d="M328.854,-164.503C353.038,-154.38 386.462,-140.388 407.655,-131.516"/>
<polygon fill="midnightblue" stroke="midnightblue" points="327.313,-161.354 319.44,-168.444 330.016,-167.811 327.313,-161.354"/>
</g>
</g>
</svg>
