<?xml version="1.0" encoding="UTF-8" standalone="no"?>
<!DOCTYPE svg PUBLIC "-//W3C//DTD SVG 1.1//EN"
 "http://www.w3.org/Graphics/SVG/1.1/DTD/svg11.dtd">
<!-- Generated by graphviz version 2.38.0 (20140413.2041)
 -->
<!-- Title: src/Base/Thread.h Pages: 1 -->
<svg width="333pt" height="84pt"
 viewBox="0.00 0.00 333.00 84.00" xmlns="http://www.w3.org/2000/svg" xmlns:xlink="http://www.w3.org/1999/xlink">
<g id="graph0" class="graph" transform="scale(1 1) rotate(0) translate(4 80)">
<title>src/Base/Thread.h</title>
<polygon fill="white" stroke="none" points="-4,4 -4,-80 329,-80 329,4 -4,4"/>
<!-- Node1 -->
<g id="node1" class="node"><title>Node1</title>
<g id="a_node1"><a xlink:title=" ">
<polygon fill="#bfbfbf" stroke="black" points="131.5,-56.5 131.5,-75.5 227.5,-75.5 227.5,-56.5 131.5,-56.5"/>
<text text-anchor="middle" x="179.5" y="-63.5" font-family="Helvetica,sans-Serif" font-size="10.00">src/Base/Thread.h</text>
</a>
</g>
</g>
<!-- Node2 -->
<g id="node2" class="node"><title>Node2</title>
<g id="a_node2"><a xlink:href="_thread_8cpp.html" target="_top" xlink:title=" ">
<polygon fill="white" stroke="black" points="0,-0.5 0,-19.5 107,-19.5 107,-0.5 0,-0.5"/>
<text text-anchor="middle" x="53.5" y="-7.5" font-family="Helvetica,sans-Serif" font-size="10.00">src/Base/Thread.cpp</text>
</a>
</g>
</g>
<!-- Node1&#45;&gt;Node2 -->
<g id="edge1" class="edge"><title>Node1&#45;&gt;Node2</title>
<path fill="none" stroke="midnightblue" d="M150.34,-52.503C126.719,-42.3795 94.072,-28.388 73.3717,-19.5164"/>
<polygon fill="midnightblue" stroke="midnightblue" points="148.965,-55.7213 159.535,-56.4435 151.722,-49.2873 148.965,-55.7213"/>
</g>
<!-- Node3 -->
<g id="node3" class="node"><title>Node3</title>
<g id="a_node3"><a xlink:href="_edit_8cpp.html" target="_top" xlink:title=" ">
<polygon fill="white" stroke="black" points="125.5,-0.5 125.5,-19.5 233.5,-19.5 233.5,-0.5 125.5,-0.5"/>
<text text-anchor="middle" x="179.5" y="-7.5" font-family="Helvetica,sans-Serif" font-size="10.00">src/Controls/Edit.cpp</text>
</a>
</g>
</g>
<!-- Node1&#45;&gt;Node3 -->
<g id="edge2" class="edge"><title>Node1&#45;&gt;Node3</title>
<path fill="none" stroke="midnightblue" d="M179.5,-45.8045C179.5,-36.9102 179.5,-26.7798 179.5,-19.7511"/>
<polygon fill="midnightblue" stroke="midnightblue" points="176,-46.083 179.5,-56.083 183,-46.083 176,-46.083"/>
</g>
<!-- Node4 -->
<g id="node4" class="node"><title>Node4</title>
<g id="a_node4"><a xlink:href="main_8cpp.html" target="_top" xlink:title=" ">
<polygon fill="white" stroke="black" points="252,-0.5 252,-19.5 325,-19.5 325,-0.5 252,-0.5"/>
<text text-anchor="middle" x="288.5" y="-7.5" font-family="Helvetica,sans-Serif" font-size="10.00">src/main.cpp</text>
</a>
</g>
</g>
<!-- Node1&#45;&gt;Node4 -->
<g id="edge3" class="edge"><title>Node1&#45;&gt;Node4</title>
<path fill="none" stroke="midnightblue" d="M206.019,-51.8622C226.23,-41.8492 253.487,-28.3458 271.031,-19.6545"/>
<polygon fill="midnightblue" stroke="midnightblue" points="204.42,-48.7485 197.013,-56.324 207.527,-55.0209 204.42,-48.7485"/>
</g>
</g>
</svg>
