<?xml version="1.0" encoding="UTF-8" standalone="no"?>
<!DOCTYPE svg PUBLIC "-//W3C//DTD SVG 1.1//EN"
 "http://www.w3.org/Graphics/SVG/1.1/DTD/svg11.dtd">
<!-- Generated by graphviz version 2.38.0 (20140413.2041)
 -->
<!-- Title: src/Base/Thread.cpp Pages: 1 -->
<svg width="1088pt" height="420pt"
 viewBox="0.00 0.00 1088.00 420.00" xmlns="http://www.w3.org/2000/svg" xmlns:xlink="http://www.w3.org/1999/xlink">
<g id="graph0" class="graph" transform="scale(1 1) rotate(0) translate(4 416)">
<title>src/Base/Thread.cpp</title>
<polygon fill="white" stroke="none" points="-4,4 -4,-416 1084,-416 1084,4 -4,4"/>
<!-- Node1 -->
<g id="node1" class="node"><title>Node1</title>
<g id="a_node1"><a xlink:title=" ">
<polygon fill="#bfbfbf" stroke="black" points="479.5,-392.5 479.5,-411.5 586.5,-411.5 586.5,-392.5 479.5,-392.5"/>
<text text-anchor="middle" x="533" y="-399.5" font-family="Helvetica,sans-Serif" font-size="10.00">src/Base/Thread.cpp</text>
</a>
</g>
</g>
<!-- Node2 -->
<g id="node2" class="node"><title>Node2</title>
<g id="a_node2"><a xlink:href="dbg__new_8h.html" target="_top" xlink:title=" ">
<polygon fill="white" stroke="black" points="134.5,-336.5 134.5,-355.5 197.5,-355.5 197.5,-336.5 134.5,-336.5"/>
<text text-anchor="middle" x="166" y="-343.5" font-family="Helvetica,sans-Serif" font-size="10.00">dbg_new.h</text>
</a>
</g>
</g>
<!-- Node1&#45;&gt;Node2 -->
<g id="edge1" class="edge"><title>Node1&#45;&gt;Node2</title>
<path fill="none" stroke="midnightblue" d="M479.242,-393.09C405.537,-382.245 274.657,-362.988 207.814,-353.152"/>
<polygon fill="midnightblue" stroke="midnightblue" points="208.057,-349.651 197.654,-351.658 207.038,-356.576 208.057,-349.651"/>
</g>
<!-- Node7 -->
<g id="node7" class="node"><title>Node7</title>
<g id="a_node7"><a xlink:title=" ">
<polygon fill="white" stroke="#bfbfbf" points="234,-168.5 234,-187.5 286,-187.5 286,-168.5 234,-168.5"/>
<text text-anchor="middle" x="260" y="-175.5" font-family="Helvetica,sans-Serif" font-size="10.00">sstream</text>
</a>
</g>
</g>
<!-- Node1&#45;&gt;Node7 -->
<g id="edge36" class="edge"><title>Node1&#45;&gt;Node7</title>
<path fill="none" stroke="midnightblue" d="M479.099,-394.625C427.35,-387.52 353.905,-374.539 332,-356 282.873,-314.423 266.856,-234.211 261.979,-197.799"/>
<polygon fill="midnightblue" stroke="midnightblue" points="265.424,-197.133 260.759,-187.62 258.474,-197.966 265.424,-197.133"/>
</g>
<!-- Node9 -->
<g id="node9" class="node"><title>Node9</title>
<g id="a_node9"><a xlink:href="_edit_8h.html" target="_top" xlink:title=" ">
<polygon fill="white" stroke="black" points="304,-168.5 304,-187.5 346,-187.5 346,-168.5 304,-168.5"/>
<text text-anchor="middle" x="325" y="-175.5" font-family="Helvetica,sans-Serif" font-size="10.00">Edit.h</text>
</a>
</g>
</g>
<!-- Node1&#45;&gt;Node9 -->
<g id="edge35" class="edge"><title>Node1&#45;&gt;Node9</title>
<path fill="none" stroke="midnightblue" d="M479.479,-394.624C431.563,-387.766 366.27,-375.188 349,-356 308.94,-311.492 315.659,-233.421 321.38,-197.744"/>
<polygon fill="midnightblue" stroke="midnightblue" points="324.853,-198.202 323.141,-187.746 317.959,-196.987 324.853,-198.202"/>
</g>
<!-- Node11 -->
<g id="node11" class="node"><title>Node11</title>
<g id="a_node11"><a xlink:title=" ">
<polygon fill="white" stroke="#bfbfbf" points="287,-56.5 287,-75.5 349,-75.5 349,-56.5 287,-56.5"/>
<text text-anchor="middle" x="318" y="-63.5" font-family="Helvetica,sans-Serif" font-size="10.00">windows.h</text>
</a>
</g>
</g>
<!-- Node1&#45;&gt;Node11 -->
<g id="edge30" class="edge"><title>Node1&#45;&gt;Node11</title>
<path fill="none" stroke="midnightblue" d="M479.181,-399.297C446.064,-395.229 405.58,-384.242 382,-356 312.072,-272.248 397.405,-212.529 355,-112 350.401,-101.097 342.277,-90.7602 334.811,-82.7499"/>
<polygon fill="midnightblue" stroke="midnightblue" points="337.24,-80.2285 327.719,-75.5801 332.263,-85.1511 337.24,-80.2285"/>
</g>
<!-- Node15 -->
<g id="node15" class="node"><title>Node15</title>
<g id="a_node15"><a xlink:title=" ">
<polygon fill="white" stroke="#bfbfbf" points="12,-56.5 12,-75.5 64,-75.5 64,-56.5 12,-56.5"/>
<text text-anchor="middle" x="38" y="-63.5" font-family="Helvetica,sans-Serif" font-size="10.00">assert.h</text>
</a>
</g>
</g>
<!-- Node1&#45;&gt;Node15 -->
<g id="edge32" class="edge"><title>Node1&#45;&gt;Node15</title>
<path fill="none" stroke="midnightblue" d="M479.454,-401.184C344.292,-400.214 0,-388.201 0,-291 0,-291 0,-291 0,-177 0,-142.813 16.6005,-105.764 27.8573,-84.5707"/>
<polygon fill="midnightblue" stroke="midnightblue" points="30.9473,-86.2151 32.7163,-75.769 24.8191,-82.832 30.9473,-86.2151"/>
</g>
<!-- Node17 -->
<g id="node17" class="node"><title>Node17</title>
<g id="a_node17"><a xlink:title=" ">
<polygon fill="white" stroke="#bfbfbf" points="391.5,-336.5 391.5,-355.5 440.5,-355.5 440.5,-336.5 391.5,-336.5"/>
<text text-anchor="middle" x="416" y="-343.5" font-family="Helvetica,sans-Serif" font-size="10.00">cassert</text>
</a>
</g>
</g>
<!-- Node1&#45;&gt;Node17 -->
<g id="edge18" class="edge"><title>Node1&#45;&gt;Node17</title>
<path fill="none" stroke="midnightblue" d="M514.461,-392.444C495.377,-383.636 465.425,-369.812 443.564,-359.722"/>
<polygon fill="midnightblue" stroke="midnightblue" points="444.999,-356.529 434.452,-355.516 442.065,-362.885 444.999,-356.529"/>
</g>
<!-- Node18 -->
<g id="node18" class="node"><title>Node18</title>
<g id="a_node18"><a xlink:title=" ">
<polygon fill="white" stroke="#bfbfbf" points="458.5,-336.5 458.5,-355.5 493.5,-355.5 493.5,-336.5 458.5,-336.5"/>
<text text-anchor="middle" x="476" y="-343.5" font-family="Helvetica,sans-Serif" font-size="10.00">map</text>
</a>
</g>
</g>
<!-- Node1&#45;&gt;Node18 -->
<g id="edge19" class="edge"><title>Node1&#45;&gt;Node18</title>
<path fill="none" stroke="midnightblue" d="M523.842,-392.324C515.499,-384.42 502.968,-372.548 492.823,-362.938"/>
<polygon fill="midnightblue" stroke="midnightblue" points="494.991,-360.171 485.325,-355.834 490.177,-365.252 494.991,-360.171"/>
</g>
<!-- Node19 -->
<g id="node19" class="node"><title>Node19</title>
<g id="a_node19"><a xlink:title=" ">
<polygon fill="white" stroke="#bfbfbf" points="511.5,-336.5 511.5,-355.5 554.5,-355.5 554.5,-336.5 511.5,-336.5"/>
<text text-anchor="middle" x="533" y="-343.5" font-family="Helvetica,sans-Serif" font-size="10.00">queue</text>
</a>
</g>
</g>
<!-- Node1&#45;&gt;Node19 -->
<g id="edge20" class="edge"><title>Node1&#45;&gt;Node19</title>
<path fill="none" stroke="midnightblue" d="M533,-392.083C533,-385.006 533,-374.861 533,-365.986"/>
<polygon fill="midnightblue" stroke="midnightblue" points="536.5,-365.751 533,-355.751 529.5,-365.751 536.5,-365.751"/>
</g>
<!-- Node20 -->
<g id="node20" class="node"><title>Node20</title>
<g id="a_node20"><a xlink:title=" ">
<polygon fill="white" stroke="#bfbfbf" points="572.5,-336.5 572.5,-355.5 665.5,-355.5 665.5,-336.5 572.5,-336.5"/>
<text text-anchor="middle" x="619" y="-343.5" font-family="Helvetica,sans-Serif" font-size="10.00">condition_variable</text>
</a>
</g>
</g>
<!-- Node1&#45;&gt;Node20 -->
<g id="edge21" class="edge"><title>Node1&#45;&gt;Node20</title>
<path fill="none" stroke="midnightblue" d="M546.817,-392.324C560.233,-383.9 580.824,-370.971 596.586,-361.074"/>
<polygon fill="midnightblue" stroke="midnightblue" points="598.609,-363.936 605.217,-355.655 594.887,-358.008 598.609,-363.936"/>
</g>
<!-- Node21 -->
<g id="node21" class="node"><title>Node21</title>
<g id="a_node21"><a xlink:title=" ">
<polygon fill="white" stroke="#bfbfbf" points="684,-336.5 684,-355.5 728,-355.5 728,-336.5 684,-336.5"/>
<text text-anchor="middle" x="706" y="-343.5" font-family="Helvetica,sans-Serif" font-size="10.00">mutex</text>
</a>
</g>
</g>
<!-- Node1&#45;&gt;Node21 -->
<g id="edge22" class="edge"><title>Node1&#45;&gt;Node21</title>
<path fill="none" stroke="midnightblue" d="M560.412,-392.444C591.276,-382.81 641.365,-367.175 673.996,-356.99"/>
<polygon fill="midnightblue" stroke="midnightblue" points="675.428,-360.209 683.931,-353.889 673.342,-353.527 675.428,-360.209"/>
</g>
<!-- Node22 -->
<g id="node22" class="node"><title>Node22</title>
<g id="a_node22"><a xlink:title=" ">
<polygon fill="white" stroke="#bfbfbf" points="746,-336.5 746,-355.5 792,-355.5 792,-336.5 746,-336.5"/>
<text text-anchor="middle" x="769" y="-343.5" font-family="Helvetica,sans-Serif" font-size="10.00">atomic</text>
</a>
</g>
</g>
<!-- Node1&#45;&gt;Node22 -->
<g id="edge23" class="edge"><title>Node1&#45;&gt;Node22</title>
<path fill="none" stroke="midnightblue" d="M574.969,-392.473C614.226,-384.334 674.709,-371.379 736.11,-356.116"/>
<polygon fill="midnightblue" stroke="midnightblue" points="737.12,-359.471 745.97,-353.647 735.419,-352.681 737.12,-359.471"/>
</g>
<!-- Node23 -->
<g id="node23" class="node"><title>Node23</title>
<g id="a_node23"><a xlink:href="_thread_8h.html" target="_top" xlink:title=" ">
<polygon fill="white" stroke="black" points="478,-112.5 478,-131.5 532,-131.5 532,-112.5 478,-112.5"/>
<text text-anchor="middle" x="505" y="-119.5" font-family="Helvetica,sans-Serif" font-size="10.00">Thread.h</text>
</a>
</g>
</g>
<!-- Node1&#45;&gt;Node23 -->
<g id="edge24" class="edge"><title>Node1&#45;&gt;Node23</title>
<path fill="none" stroke="midnightblue" d="M586.653,-398.606C655.582,-394.442 770.05,-383.496 801,-356 823.501,-336.01 820,-321.098 820,-291 820,-291 820,-291 820,-233 820,-174.742 625.528,-140.123 542.189,-127.962"/>
<polygon fill="midnightblue" stroke="midnightblue" points="542.524,-124.475 532.129,-126.525 541.534,-131.404 542.524,-124.475"/>
</g>
<!-- Node25 -->
<g id="node25" class="node"><title>Node25</title>
<g id="a_node25"><a xlink:title=" ">
<polygon fill="white" stroke="#bfbfbf" points="848,-336.5 848,-355.5 952,-355.5 952,-336.5 848,-336.5"/>
<text text-anchor="middle" x="900" y="-343.5" font-family="Helvetica,sans-Serif" font-size="10.00">processthreadsapi.h</text>
</a>
</g>
</g>
<!-- Node1&#45;&gt;Node25 -->
<g id="edge31" class="edge"><title>Node1&#45;&gt;Node25</title>
<path fill="none" stroke="midnightblue" d="M586.758,-393.09C653.555,-383.262 767.312,-366.524 837.805,-356.151"/>
<polygon fill="midnightblue" stroke="midnightblue" points="838.497,-359.587 847.881,-354.669 837.478,-352.662 838.497,-359.587"/>
</g>
<!-- Node26 -->
<g id="node26" class="node"><title>Node26</title>
<g id="a_node26"><a xlink:title=" ">
<polygon fill="white" stroke="#bfbfbf" points="970,-336.5 970,-355.5 1020,-355.5 1020,-336.5 970,-336.5"/>
<text text-anchor="middle" x="995" y="-343.5" font-family="Helvetica,sans-Serif" font-size="10.00">codecvt</text>
</a>
</g>
</g>
<!-- Node1&#45;&gt;Node26 -->
<g id="edge33" class="edge"><title>Node1&#45;&gt;Node26</title>
<path fill="none" stroke="midnightblue" d="M586.759,-398.013C666.325,-393.007 820.197,-381.089 959.82,-355.953"/>
<polygon fill="midnightblue" stroke="midnightblue" points="960.639,-359.361 969.847,-354.12 959.38,-352.475 960.639,-359.361"/>
</g>
<!-- Node27 -->
<g id="node27" class="node"><title>Node27</title>
<g id="a_node27"><a xlink:title=" ">
<polygon fill="white" stroke="#bfbfbf" points="1038,-336.5 1038,-355.5 1080,-355.5 1080,-336.5 1038,-336.5"/>
<text text-anchor="middle" x="1059" y="-343.5" font-family="Helvetica,sans-Serif" font-size="10.00">locale</text>
</a>
</g>
</g>
<!-- Node1&#45;&gt;Node27 -->
<g id="edge34" class="edge"><title>Node1&#45;&gt;Node27</title>
<path fill="none" stroke="midnightblue" d="M586.71,-399.656C676.466,-396.642 862.585,-387.113 1027.97,-355.823"/>
<polygon fill="midnightblue" stroke="midnightblue" points="1028.67,-359.252 1037.83,-353.927 1027.35,-352.378 1028.67,-359.252"/>
</g>
<!-- Node3 -->
<g id="node3" class="node"><title>Node3</title>
<g id="a_node3"><a xlink:href="utils_8hpp.html" target="_top" xlink:title=" ">
<polygon fill="white" stroke="black" points="139.5,-280.5 139.5,-299.5 192.5,-299.5 192.5,-280.5 139.5,-280.5"/>
<text text-anchor="middle" x="166" y="-287.5" font-family="Helvetica,sans-Serif" font-size="10.00">utils.hpp</text>
</a>
</g>
</g>
<!-- Node2&#45;&gt;Node3 -->
<g id="edge2" class="edge"><title>Node2&#45;&gt;Node3</title>
<path fill="none" stroke="midnightblue" d="M166,-336.083C166,-329.006 166,-318.861 166,-309.986"/>
<polygon fill="midnightblue" stroke="midnightblue" points="169.5,-309.751 166,-299.751 162.5,-309.751 169.5,-309.751"/>
</g>
<!-- Node2&#45;&gt;Node15 -->
<g id="edge17" class="edge"><title>Node2&#45;&gt;Node15</title>
<path fill="none" stroke="midnightblue" d="M141.016,-336.467C103.766,-321.972 38,-288.767 38,-235 38,-235 38,-235 38,-177 38,-144.948 38,-107.643 38,-85.7489"/>
<polygon fill="midnightblue" stroke="midnightblue" points="41.5001,-85.5577 38,-75.5578 34.5001,-85.5578 41.5001,-85.5577"/>
</g>
<!-- Node4 -->
<g id="node4" class="node"><title>Node4</title>
<g id="a_node4"><a xlink:href="output_8hpp.html" target="_top" xlink:title=" ">
<polygon fill="white" stroke="black" points="175,-224.5 175,-243.5 237,-243.5 237,-224.5 175,-224.5"/>
<text text-anchor="middle" x="206" y="-231.5" font-family="Helvetica,sans-Serif" font-size="10.00">output.hpp</text>
</a>
</g>
</g>
<!-- Node3&#45;&gt;Node4 -->
<g id="edge3" class="edge"><title>Node3&#45;&gt;Node4</title>
<path fill="none" stroke="midnightblue" d="M172.605,-280.083C178.255,-272.455 186.545,-261.264 193.451,-251.941"/>
<polygon fill="midnightblue" stroke="midnightblue" points="196.378,-253.87 199.518,-243.751 190.753,-249.703 196.378,-253.87"/>
</g>
<!-- Node16 -->
<g id="node16" class="node"><title>Node16</title>
<g id="a_node16"><a xlink:title=" ">
<polygon fill="white" stroke="#bfbfbf" points="97.5,-224.5 97.5,-243.5 156.5,-243.5 156.5,-224.5 97.5,-224.5"/>
<text text-anchor="middle" x="127" y="-231.5" font-family="Helvetica,sans-Serif" font-size="10.00">exception</text>
</a>
</g>
</g>
<!-- Node3&#45;&gt;Node16 -->
<g id="edge16" class="edge"><title>Node3&#45;&gt;Node16</title>
<path fill="none" stroke="midnightblue" d="M159.56,-280.083C154.051,-272.455 145.969,-261.264 139.235,-251.941"/>
<polygon fill="midnightblue" stroke="midnightblue" points="142.013,-249.809 133.32,-243.751 136.338,-253.907 142.013,-249.809"/>
</g>
<!-- Node5 -->
<g id="node5" class="node"><title>Node5</title>
<g id="a_node5"><a xlink:title=" ">
<polygon fill="white" stroke="#bfbfbf" points="66,-168.5 66,-187.5 118,-187.5 118,-168.5 66,-168.5"/>
<text text-anchor="middle" x="92" y="-175.5" font-family="Helvetica,sans-Serif" font-size="10.00">stdarg.h</text>
</a>
</g>
</g>
<!-- Node4&#45;&gt;Node5 -->
<g id="edge4" class="edge"><title>Node4&#45;&gt;Node5</title>
<path fill="none" stroke="midnightblue" d="M187.936,-224.444C169.425,-215.675 140.419,-201.935 119.145,-191.858"/>
<polygon fill="midnightblue" stroke="midnightblue" points="120.515,-188.634 109.979,-187.516 117.518,-194.96 120.515,-188.634"/>
</g>
<!-- Node6 -->
<g id="node6" class="node"><title>Node6</title>
<g id="a_node6"><a xlink:title=" ">
<polygon fill="white" stroke="#bfbfbf" points="227.5,-56.5 227.5,-75.5 268.5,-75.5 268.5,-56.5 227.5,-56.5"/>
<text text-anchor="middle" x="248" y="-63.5" font-family="Helvetica,sans-Serif" font-size="10.00">string</text>
</a>
</g>
</g>
<!-- Node4&#45;&gt;Node6 -->
<g id="edge5" class="edge"><title>Node4&#45;&gt;Node6</title>
<path fill="none" stroke="midnightblue" d="M208.258,-224.075C214.869,-197.945 234.284,-121.211 243.3,-85.577"/>
<polygon fill="midnightblue" stroke="midnightblue" points="246.772,-86.1211 245.832,-75.5681 239.986,-84.4041 246.772,-86.1211"/>
</g>
<!-- Node4&#45;&gt;Node7 -->
<g id="edge6" class="edge"><title>Node4&#45;&gt;Node7</title>
<path fill="none" stroke="midnightblue" d="M214.917,-224.083C222.78,-216.22 234.431,-204.569 243.919,-195.081"/>
<polygon fill="midnightblue" stroke="midnightblue" points="246.653,-197.297 251.249,-187.751 241.703,-192.347 246.653,-197.297"/>
</g>
<!-- Node8 -->
<g id="node8" class="node"><title>Node8</title>
<g id="a_node8"><a xlink:title=" ">
<polygon fill="white" stroke="#bfbfbf" points="136,-168.5 136,-187.5 178,-187.5 178,-168.5 136,-168.5"/>
<text text-anchor="middle" x="157" y="-175.5" font-family="Helvetica,sans-Serif" font-size="10.00">vector</text>
</a>
</g>
</g>
<!-- Node4&#45;&gt;Node8 -->
<g id="edge7" class="edge"><title>Node4&#45;&gt;Node8</title>
<path fill="none" stroke="midnightblue" d="M197.909,-224.083C190.845,-216.298 180.412,-204.801 171.851,-195.367"/>
<polygon fill="midnightblue" stroke="midnightblue" points="174.253,-192.805 164.941,-187.751 169.069,-197.509 174.253,-192.805"/>
</g>
<!-- Node4&#45;&gt;Node9 -->
<g id="edge8" class="edge"><title>Node4&#45;&gt;Node9</title>
<path fill="none" stroke="midnightblue" d="M224.856,-224.444C244.266,-215.636 274.73,-201.812 296.965,-191.722"/>
<polygon fill="midnightblue" stroke="midnightblue" points="298.572,-194.836 306.232,-187.516 295.68,-188.462 298.572,-194.836"/>
</g>
<!-- Node10 -->
<g id="node10" class="node"><title>Node10</title>
<g id="a_node10"><a xlink:href="_control_8h.html" target="_top" xlink:title=" ">
<polygon fill="white" stroke="black" points="290,-112.5 290,-131.5 346,-131.5 346,-112.5 290,-112.5"/>
<text text-anchor="middle" x="318" y="-119.5" font-family="Helvetica,sans-Serif" font-size="10.00">Control.h</text>
</a>
</g>
</g>
<!-- Node9&#45;&gt;Node10 -->
<g id="edge9" class="edge"><title>Node9&#45;&gt;Node10</title>
<path fill="none" stroke="midnightblue" d="M323.844,-168.083C322.916,-160.927 321.582,-150.635 320.423,-141.691"/>
<polygon fill="midnightblue" stroke="midnightblue" points="323.891,-141.218 319.134,-131.751 316.949,-142.118 323.891,-141.218"/>
</g>
<!-- Node10&#45;&gt;Node6 -->
<g id="edge11" class="edge"><title>Node10&#45;&gt;Node6</title>
<path fill="none" stroke="midnightblue" d="M306.753,-112.324C296.203,-104.185 280.199,-91.8395 267.558,-82.0874"/>
<polygon fill="midnightblue" stroke="midnightblue" points="269.507,-79.1707 259.451,-75.8339 265.231,-84.7132 269.507,-79.1707"/>
</g>
<!-- Node10&#45;&gt;Node11 -->
<g id="edge10" class="edge"><title>Node10&#45;&gt;Node11</title>
<path fill="none" stroke="midnightblue" d="M318,-112.083C318,-105.006 318,-94.8611 318,-85.9865"/>
<polygon fill="midnightblue" stroke="midnightblue" points="321.5,-85.751 318,-75.7511 314.5,-85.7511 321.5,-85.751"/>
</g>
<!-- Node12 -->
<g id="node12" class="node"><title>Node12</title>
<g id="a_node12"><a xlink:title=" ">
<polygon fill="white" stroke="#bfbfbf" points="367,-56.5 367,-75.5 419,-75.5 419,-56.5 367,-56.5"/>
<text text-anchor="middle" x="393" y="-63.5" font-family="Helvetica,sans-Serif" font-size="10.00">memory</text>
</a>
</g>
</g>
<!-- Node10&#45;&gt;Node12 -->
<g id="edge12" class="edge"><title>Node10&#45;&gt;Node12</title>
<path fill="none" stroke="midnightblue" d="M330.05,-112.324C341.463,-104.107 358.831,-91.6017 372.435,-81.8069"/>
<polygon fill="midnightblue" stroke="midnightblue" points="374.66,-84.5174 380.731,-75.8339 370.57,-78.8366 374.66,-84.5174"/>
</g>
<!-- Node13 -->
<g id="node13" class="node"><title>Node13</title>
<g id="a_node13"><a xlink:href="_property_8hpp.html" target="_top" xlink:title=" ">
<polygon fill="white" stroke="black" points="437,-56.5 437,-75.5 509,-75.5 509,-56.5 437,-56.5"/>
<text text-anchor="middle" x="473" y="-63.5" font-family="Helvetica,sans-Serif" font-size="10.00">Property.hpp</text>
</a>
</g>
</g>
<!-- Node10&#45;&gt;Node13 -->
<g id="edge13" class="edge"><title>Node10&#45;&gt;Node13</title>
<path fill="none" stroke="midnightblue" d="M342.56,-112.444C368.523,-103.399 409.668,-89.064 438.797,-78.9158"/>
<polygon fill="midnightblue" stroke="midnightblue" points="440.263,-82.1116 448.555,-75.5164 437.96,-75.5013 440.263,-82.1116"/>
</g>
<!-- Node10&#45;&gt;Node15 -->
<g id="edge15" class="edge"><title>Node10&#45;&gt;Node15</title>
<path fill="none" stroke="midnightblue" d="M289.871,-115.575C238.693,-105.705 130.442,-84.8282 73.9779,-73.9386"/>
<polygon fill="midnightblue" stroke="midnightblue" points="74.5447,-70.4835 64.0628,-72.0264 73.2191,-77.3568 74.5447,-70.4835"/>
</g>
<!-- Node14 -->
<g id="node14" class="node"><title>Node14</title>
<g id="a_node14"><a xlink:title=" ">
<polygon fill="white" stroke="#bfbfbf" points="476,-0.5 476,-19.5 534,-19.5 534,-0.5 476,-0.5"/>
<text text-anchor="middle" x="505" y="-7.5" font-family="Helvetica,sans-Serif" font-size="10.00">functional</text>
</a>
</g>
</g>
<!-- Node13&#45;&gt;Node14 -->
<g id="edge14" class="edge"><title>Node13&#45;&gt;Node14</title>
<path fill="none" stroke="midnightblue" d="M478.284,-56.083C482.711,-48.6127 489.163,-37.7244 494.618,-28.5199"/>
<polygon fill="midnightblue" stroke="midnightblue" points="497.727,-30.1383 499.814,-19.7511 491.705,-26.5697 497.727,-30.1383"/>
</g>
<!-- Node23&#45;&gt;Node6 -->
<g id="edge25" class="edge"><title>Node23&#45;&gt;Node6</title>
<path fill="none" stroke="midnightblue" d="M477.909,-116.495C436.911,-109.491 356.498,-95.0311 278.568,-75.9339"/>
<polygon fill="midnightblue" stroke="midnightblue" points="279.134,-72.4684 268.585,-73.4584 277.449,-79.2626 279.134,-72.4684"/>
</g>
<!-- Node23&#45;&gt;Node12 -->
<g id="edge26" class="edge"><title>Node23&#45;&gt;Node12</title>
<path fill="none" stroke="midnightblue" d="M487.005,-112.324C468.962,-103.625 440.953,-90.1202 420.197,-80.113"/>
<polygon fill="midnightblue" stroke="midnightblue" points="421.478,-76.8449 410.95,-75.6545 418.438,-83.1502 421.478,-76.8449"/>
</g>
<!-- Node23&#45;&gt;Node13 -->
<g id="edge29" class="edge"><title>Node23&#45;&gt;Node13</title>
<path fill="none" stroke="midnightblue" d="M499.716,-112.083C495.289,-104.613 488.837,-93.7244 483.382,-84.5199"/>
<polygon fill="midnightblue" stroke="midnightblue" points="486.295,-82.5697 478.186,-75.7511 480.273,-86.1383 486.295,-82.5697"/>
</g>
<!-- Node23&#45;&gt;Node14 -->
<g id="edge28" class="edge"><title>Node23&#45;&gt;Node14</title>
<path fill="none" stroke="midnightblue" d="M508.344,-112.197C511.554,-103.24 516.176,-88.8827 518,-76 520.243,-60.1544 516.213,-42.3436 512.063,-29.3784"/>
<polygon fill="midnightblue" stroke="midnightblue" points="515.306,-28.0481 508.685,-19.7769 508.703,-30.3717 515.306,-28.0481"/>
</g>
<!-- Node24 -->
<g id="node24" class="node"><title>Node24</title>
<g id="a_node24"><a xlink:title=" ">
<polygon fill="white" stroke="#bfbfbf" points="565,-56.5 565,-75.5 609,-75.5 609,-56.5 565,-56.5"/>
<text text-anchor="middle" x="587" y="-63.5" font-family="Helvetica,sans-Serif" font-size="10.00">thread</text>
</a>
</g>
</g>
<!-- Node23&#45;&gt;Node24 -->
<g id="edge27" class="edge"><title>Node23&#45;&gt;Node24</title>
<path fill="none" stroke="midnightblue" d="M518.175,-112.324C530.847,-103.979 550.233,-91.2122 565.206,-81.3524"/>
<polygon fill="midnightblue" stroke="midnightblue" points="567.431,-84.0776 573.858,-75.6545 563.581,-78.2313 567.431,-84.0776"/>
</g>
</g>
</svg>
