<?xml version="1.0" encoding="UTF-8" standalone="no"?>
<!DOCTYPE svg PUBLIC "-//W3C//DTD SVG 1.1//EN"
 "http://www.w3.org/Graphics/SVG/1.1/DTD/svg11.dtd">
<!-- Generated by graphviz version 2.38.0 (20140413.2041)
 -->
<!-- Title: src/Base/Value.cpp Pages: 1 -->
<svg width="229pt" height="196pt"
 viewBox="0.00 0.00 229.00 196.00" xmlns="http://www.w3.org/2000/svg" xmlns:xlink="http://www.w3.org/1999/xlink">
<g id="graph0" class="graph" transform="scale(1 1) rotate(0) translate(4 192)">
<title>src/Base/Value.cpp</title>
<polygon fill="white" stroke="none" points="-4,4 -4,-192 225,-192 225,4 -4,4"/>
<!-- Node1 -->
<g id="node1" class="node"><title>Node1</title>
<g id="a_node1"><a xlink:title=" ">
<polygon fill="#bfbfbf" stroke="black" points="76.5,-168.5 76.5,-187.5 178.5,-187.5 178.5,-168.5 76.5,-168.5"/>
<text text-anchor="middle" x="127.5" y="-175.5" font-family="Helvetica,sans-Serif" font-size="10.00">src/Base/Value.cpp</text>
</a>
</g>
</g>
<!-- Node2 -->
<g id="node2" class="node"><title>Node2</title>
<g id="a_node2"><a xlink:href="_value_8h.html" target="_top" xlink:title=" ">
<polygon fill="white" stroke="black" points="102.5,-112.5 102.5,-131.5 152.5,-131.5 152.5,-112.5 102.5,-112.5"/>
<text text-anchor="middle" x="127.5" y="-119.5" font-family="Helvetica,sans-Serif" font-size="10.00">Value.h</text>
</a>
</g>
</g>
<!-- Node1&#45;&gt;Node2 -->
<g id="edge1" class="edge"><title>Node1&#45;&gt;Node2</title>
<path fill="none" stroke="midnightblue" d="M127.5,-168.083C127.5,-161.006 127.5,-150.861 127.5,-141.986"/>
<polygon fill="midnightblue" stroke="midnightblue" points="131,-141.751 127.5,-131.751 124,-141.751 131,-141.751"/>
</g>
<!-- Node3 -->
<g id="node3" class="node"><title>Node3</title>
<g id="a_node3"><a xlink:href="_serialize_8h.html" target="_top" xlink:title=" ">
<polygon fill="white" stroke="black" points="21.5,-56.5 21.5,-75.5 83.5,-75.5 83.5,-56.5 21.5,-56.5"/>
<text text-anchor="middle" x="52.5" y="-63.5" font-family="Helvetica,sans-Serif" font-size="10.00">Serialize.h</text>
</a>
</g>
</g>
<!-- Node2&#45;&gt;Node3 -->
<g id="edge2" class="edge"><title>Node2&#45;&gt;Node3</title>
<path fill="none" stroke="midnightblue" d="M115.45,-112.324C104.037,-104.107 86.669,-91.6017 73.0651,-81.8069"/>
<polygon fill="midnightblue" stroke="midnightblue" points="74.9297,-78.8366 64.7693,-75.8339 70.8396,-84.5174 74.9297,-78.8366"/>
</g>
<!-- Node6 -->
<g id="node6" class="node"><title>Node6</title>
<g id="a_node6"><a xlink:title=" ">
<polygon fill="white" stroke="#bfbfbf" points="101.5,-56.5 101.5,-75.5 153.5,-75.5 153.5,-56.5 101.5,-56.5"/>
<text text-anchor="middle" x="127.5" y="-63.5" font-family="Helvetica,sans-Serif" font-size="10.00">sstream</text>
</a>
</g>
</g>
<!-- Node2&#45;&gt;Node6 -->
<g id="edge5" class="edge"><title>Node2&#45;&gt;Node6</title>
<path fill="none" stroke="midnightblue" d="M127.5,-112.083C127.5,-105.006 127.5,-94.8611 127.5,-85.9865"/>
<polygon fill="midnightblue" stroke="midnightblue" points="131,-85.751 127.5,-75.7511 124,-85.7511 131,-85.751"/>
</g>
<!-- Node7 -->
<g id="node7" class="node"><title>Node7</title>
<g id="a_node7"><a xlink:title=" ">
<polygon fill="white" stroke="#bfbfbf" points="172,-56.5 172,-75.5 221,-75.5 221,-56.5 172,-56.5"/>
<text text-anchor="middle" x="196.5" y="-63.5" font-family="Helvetica,sans-Serif" font-size="10.00">stdint.h</text>
</a>
</g>
</g>
<!-- Node2&#45;&gt;Node7 -->
<g id="edge6" class="edge"><title>Node2&#45;&gt;Node7</title>
<path fill="none" stroke="midnightblue" d="M138.586,-112.324C148.986,-104.185 164.761,-91.8395 177.222,-82.0874"/>
<polygon fill="midnightblue" stroke="midnightblue" points="179.494,-84.7533 185.212,-75.8339 175.18,-79.2407 179.494,-84.7533"/>
</g>
<!-- Node4 -->
<g id="node4" class="node"><title>Node4</title>
<g id="a_node4"><a xlink:title=" ">
<polygon fill="white" stroke="#bfbfbf" points="0,-0.5 0,-19.5 41,-19.5 41,-0.5 0,-0.5"/>
<text text-anchor="middle" x="20.5" y="-7.5" font-family="Helvetica,sans-Serif" font-size="10.00">string</text>
</a>
</g>
</g>
<!-- Node3&#45;&gt;Node4 -->
<g id="edge3" class="edge"><title>Node3&#45;&gt;Node4</title>
<path fill="none" stroke="midnightblue" d="M47.2159,-56.083C42.789,-48.6127 36.3367,-37.7244 30.8821,-28.5199"/>
<polygon fill="midnightblue" stroke="midnightblue" points="33.7949,-26.5697 25.6858,-19.7511 27.7729,-30.1383 33.7949,-26.5697"/>
</g>
<!-- Node5 -->
<g id="node5" class="node"><title>Node5</title>
<g id="a_node5"><a xlink:title=" ">
<polygon fill="white" stroke="#bfbfbf" points="59.5,-0.5 59.5,-19.5 111.5,-19.5 111.5,-0.5 59.5,-0.5"/>
<text text-anchor="middle" x="85.5" y="-7.5" font-family="Helvetica,sans-Serif" font-size="10.00">memory</text>
</a>
</g>
</g>
<!-- Node3&#45;&gt;Node5 -->
<g id="edge4" class="edge"><title>Node3&#45;&gt;Node5</title>
<path fill="none" stroke="midnightblue" d="M57.9493,-56.083C62.5145,-48.6127 69.1684,-37.7244 74.7934,-28.5199"/>
<polygon fill="midnightblue" stroke="midnightblue" points="77.9241,-30.109 80.1521,-19.7511 71.9511,-26.4588 77.9241,-30.109"/>
</g>
</g>
</svg>
