<?xml version="1.0" encoding="UTF-8" standalone="no"?>
<!DOCTYPE svg PUBLIC "-//W3C//DTD SVG 1.1//EN"
 "http://www.w3.org/Graphics/SVG/1.1/DTD/svg11.dtd">
<!-- Generated by graphviz version 2.38.0 (20140413.2041)
 -->
<!-- Title: Control Pages: 1 -->
<svg width="636pt" height="217pt"
 viewBox="0.00 0.00 636.00 217.00" xmlns="http://www.w3.org/2000/svg" xmlns:xlink="http://www.w3.org/1999/xlink">
<g id="graph0" class="graph" transform="scale(1 1) rotate(0) translate(4 213)">
<title>Control</title>
<polygon fill="white" stroke="none" points="-4,4 -4,-213 632,-213 632,4 -4,4"/>
<!-- Node1 -->
<g id="node1" class="node"><title>Node1</title>
<g id="a_node1"><a xlink:title=" ">
<polygon fill="#bfbfbf" stroke="black" points="581,-119 581,-138 628,-138 628,-119 581,-119"/>
<text text-anchor="middle" x="604.5" y="-126" font-family="Helvetica,sans-Serif" font-size="10.00">Control</text>
</a>
</g>
</g>
<!-- Node2 -->
<g id="node2" class="node"><title>Node2</title>
<g id="a_node2"><a xlink:title=" ">
<polygon fill="white" stroke="#bfbfbf" points="392.5,-178.5 392.5,-208.5 493.5,-208.5 493.5,-178.5 392.5,-178.5"/>
<text text-anchor="start" x="400.5" y="-196.5" font-family="Helvetica,sans-Serif" font-size="10.00">unique_ptr&lt; Control</text>
<text text-anchor="middle" x="443" y="-185.5" font-family="Helvetica,sans-Serif" font-size="10.00">::Impl &gt;</text>
</a>
</g>
</g>
<!-- Node2&#45;&gt;Node1 -->
<g id="edge1" class="edge"><title>Node2&#45;&gt;Node1</title>
<path fill="none" stroke="#9a32cd" stroke-dasharray="5,2" d="M503.371,-177.304C522.787,-171.154 544.187,-163.442 563,-154.5 572.659,-149.909 582.784,-143.409 590.495,-138.057"/>
<polygon fill="#9a32cd" stroke="#9a32cd" points="502.244,-173.989 493.723,-180.285 504.311,-180.677 502.244,-173.989"/>
<text text-anchor="middle" x="542.5" y="-172.5" font-family="Helvetica,sans-Serif" font-size="10.00"> pImpl_</text>
</g>
<!-- Node3 -->
<g id="node3" class="node"><title>Node3</title>
<g id="a_node3"><a xlink:href="struct_property_r_w.html" target="_top" xlink:title=" ">
<polygon fill="white" stroke="black" points="384,-140 384,-159 502,-159 502,-140 384,-140"/>
<text text-anchor="middle" x="443" y="-147" font-family="Helvetica,sans-Serif" font-size="10.00">PropertyRW&lt; HWND &gt;</text>
</a>
</g>
</g>
<!-- Node3&#45;&gt;Node1 -->
<g id="edge2" class="edge"><title>Node3&#45;&gt;Node1</title>
<path fill="none" stroke="#9a32cd" stroke-dasharray="5,2" d="M512.072,-140.538C536.625,-137.305 562.688,-133.873 580.678,-131.505"/>
<polygon fill="#9a32cd" stroke="#9a32cd" points="511.492,-137.084 502.034,-141.859 512.406,-144.024 511.492,-137.084"/>
<text text-anchor="middle" x="542.5" y="-142.5" font-family="Helvetica,sans-Serif" font-size="10.00"> hWnd</text>
</g>
<!-- Node4 -->
<g id="node4" class="node"><title>Node4</title>
<g id="a_node4"><a xlink:href="struct_property_r.html" target="_top" xlink:title=" ">
<polygon fill="white" stroke="black" points="196,-187 196,-206 304,-206 304,-187 196,-187"/>
<text text-anchor="middle" x="250" y="-194" font-family="Helvetica,sans-Serif" font-size="10.00">PropertyR&lt; HWND &gt;</text>
</a>
</g>
</g>
<!-- Node4&#45;&gt;Node3 -->
<g id="edge3" class="edge"><title>Node4&#45;&gt;Node3</title>
<path fill="none" stroke="midnightblue" d="M299.71,-184.514C331.782,-176.622 373.205,-166.429 403.078,-159.078"/>
<polygon fill="midnightblue" stroke="midnightblue" points="298.526,-181.201 289.652,-186.989 300.198,-187.998 298.526,-181.201"/>
</g>
<!-- Node5 -->
<g id="node5" class="node"><title>Node5</title>
<g id="a_node5"><a xlink:title=" ">
<polygon fill="white" stroke="#bfbfbf" points="0,-187 0,-206 118,-206 118,-187 0,-187"/>
<text text-anchor="middle" x="59" y="-194" font-family="Helvetica,sans-Serif" font-size="10.00">function&lt; HWND(void)&gt;</text>
</a>
</g>
</g>
<!-- Node5&#45;&gt;Node4 -->
<g id="edge4" class="edge"><title>Node5&#45;&gt;Node4</title>
<path fill="none" stroke="#9a32cd" stroke-dasharray="5,2" d="M128.288,-196.5C150.505,-196.5 174.819,-196.5 195.767,-196.5"/>
<polygon fill="#9a32cd" stroke="#9a32cd" points="128.248,-193 118.248,-196.5 128.248,-200 128.248,-193"/>
<text text-anchor="middle" x="153" y="-199.5" font-family="Helvetica,sans-Serif" font-size="10.00"> getter_</text>
</g>
<!-- Node6 -->
<g id="node6" class="node"><title>Node6</title>
<g id="a_node6"><a xlink:title=" ">
<polygon fill="white" stroke="#bfbfbf" points="195.5,-137.5 195.5,-167.5 304.5,-167.5 304.5,-137.5 195.5,-137.5"/>
<text text-anchor="start" x="203.5" y="-155.5" font-family="Helvetica,sans-Serif" font-size="10.00">function&lt; void(HWND</text>
<text text-anchor="middle" x="250" y="-144.5" font-family="Helvetica,sans-Serif" font-size="10.00"> newValue)&gt;</text>
</a>
</g>
</g>
<!-- Node6&#45;&gt;Node3 -->
<g id="edge5" class="edge"><title>Node6&#45;&gt;Node3</title>
<path fill="none" stroke="#9a32cd" stroke-dasharray="5,2" d="M314.74,-151.499C337.006,-151.149 361.872,-150.759 383.675,-150.416"/>
<polygon fill="#9a32cd" stroke="#9a32cd" points="314.656,-148 304.712,-151.656 314.766,-154.999 314.656,-148"/>
<text text-anchor="middle" x="347" y="-153.5" font-family="Helvetica,sans-Serif" font-size="10.00"> setter_</text>
</g>
<!-- Node7 -->
<g id="node7" class="node"><title>Node7</title>
<g id="a_node7"><a xlink:href="struct_property_r_w.html" target="_top" xlink:title=" ">
<polygon fill="white" stroke="black" points="387,-99 387,-118 499,-118 499,-99 387,-99"/>
<text text-anchor="middle" x="443" y="-106" font-family="Helvetica,sans-Serif" font-size="10.00">PropertyRW&lt; string &gt;</text>
</a>
</g>
</g>
<!-- Node7&#45;&gt;Node1 -->
<g id="edge6" class="edge"><title>Node7&#45;&gt;Node1</title>
<path fill="none" stroke="#9a32cd" stroke-dasharray="5,2" d="M509.384,-107.58C526.928,-108.328 545.799,-110.043 563,-113.5 569.175,-114.741 575.658,-116.783 581.582,-118.966"/>
<polygon fill="#9a32cd" stroke="#9a32cd" points="509.339,-104.077 499.23,-107.246 509.109,-111.073 509.339,-104.077"/>
<text text-anchor="middle" x="542.5" y="-116.5" font-family="Helvetica,sans-Serif" font-size="10.00"> Caption</text>
</g>
<!-- Node8 -->
<g id="node8" class="node"><title>Node8</title>
<g id="a_node8"><a xlink:href="struct_property_r.html" target="_top" xlink:title=" ">
<polygon fill="white" stroke="black" points="199,-99 199,-118 301,-118 301,-99 199,-99"/>
<text text-anchor="middle" x="250" y="-106" font-family="Helvetica,sans-Serif" font-size="10.00">PropertyR&lt; string &gt;</text>
</a>
</g>
</g>
<!-- Node8&#45;&gt;Node7 -->
<g id="edge7" class="edge"><title>Node8&#45;&gt;Node7</title>
<path fill="none" stroke="midnightblue" d="M311.306,-108.5C335.476,-108.5 363.142,-108.5 386.779,-108.5"/>
<polygon fill="midnightblue" stroke="midnightblue" points="311.183,-105 301.183,-108.5 311.183,-112 311.183,-105"/>
</g>
<!-- Node9 -->
<g id="node9" class="node"><title>Node9</title>
<g id="a_node9"><a xlink:title=" ">
<polygon fill="white" stroke="#bfbfbf" points="3,-99 3,-118 115,-118 115,-99 3,-99"/>
<text text-anchor="middle" x="59" y="-106" font-family="Helvetica,sans-Serif" font-size="10.00">function&lt; string(void)&gt;</text>
</a>
</g>
</g>
<!-- Node9&#45;&gt;Node8 -->
<g id="edge8" class="edge"><title>Node9&#45;&gt;Node8</title>
<path fill="none" stroke="#9a32cd" stroke-dasharray="5,2" d="M125.317,-108.5C149.434,-108.5 176.363,-108.5 198.92,-108.5"/>
<polygon fill="#9a32cd" stroke="#9a32cd" points="125.175,-105 115.175,-108.5 125.175,-112 125.175,-105"/>
<text text-anchor="middle" x="153" y="-111.5" font-family="Helvetica,sans-Serif" font-size="10.00"> getter_</text>
</g>
<!-- Node10 -->
<g id="node10" class="node"><title>Node10</title>
<g id="a_node10"><a xlink:title=" ">
<polygon fill="white" stroke="#bfbfbf" points="198.5,-49.5 198.5,-79.5 301.5,-79.5 301.5,-49.5 198.5,-49.5"/>
<text text-anchor="start" x="206.5" y="-67.5" font-family="Helvetica,sans-Serif" font-size="10.00">function&lt; void(string</text>
<text text-anchor="middle" x="250" y="-56.5" font-family="Helvetica,sans-Serif" font-size="10.00"> newValue)&gt;</text>
</a>
</g>
</g>
<!-- Node10&#45;&gt;Node7 -->
<g id="edge9" class="edge"><title>Node10&#45;&gt;Node7</title>
<path fill="none" stroke="#9a32cd" stroke-dasharray="5,2" d="M311.724,-78.4887C340.756,-85.1769 374.755,-93.0091 400.74,-98.995"/>
<polygon fill="#9a32cd" stroke="#9a32cd" points="312.214,-75.0099 301.683,-76.1757 310.642,-81.8313 312.214,-75.0099"/>
<text text-anchor="middle" x="347" y="-93.5" font-family="Helvetica,sans-Serif" font-size="10.00"> setter_</text>
</g>
<!-- Node11 -->
<g id="node11" class="node"><title>Node11</title>
<g id="a_node11"><a xlink:href="struct_control_1_1_control_manager.html" target="_top" xlink:title=" ">
<polygon fill="white" stroke="black" points="382,-34 382,-53 504,-53 504,-34 382,-34"/>
<text text-anchor="middle" x="443" y="-41" font-family="Helvetica,sans-Serif" font-size="10.00">Control::ControlManager</text>
</a>
</g>
</g>
<!-- Node11&#45;&gt;Node1 -->
<g id="edge10" class="edge"><title>Node11&#45;&gt;Node1</title>
<path fill="none" stroke="#9a32cd" stroke-dasharray="5,2" d="M483.109,-56.3861C507.087,-65.1329 537.894,-77.9266 563,-93.5 574.688,-100.75 586.398,-111.315 594.198,-118.939"/>
<polygon fill="#9a32cd" stroke="#9a32cd" points="484.214,-53.0644 473.619,-53.0045 481.864,-59.6582 484.214,-53.0644"/>
<text text-anchor="middle" x="542.5" y="-96.5" font-family="Helvetica,sans-Serif" font-size="10.00"> Manager</text>
</g>
<!-- Node12 -->
<g id="node12" class="node"><title>Node12</title>
<g id="a_node12"><a xlink:title=" ">
<polygon fill="white" stroke="#bfbfbf" points="188,-0.5 188,-30.5 312,-30.5 312,-0.5 188,-0.5"/>
<text text-anchor="start" x="196" y="-18.5" font-family="Helvetica,sans-Serif" font-size="10.00">unique_ptr&lt; Control</text>
<text text-anchor="middle" x="250" y="-7.5" font-family="Helvetica,sans-Serif" font-size="10.00">::ControlManager::Impl &gt;</text>
</a>
</g>
</g>
<!-- Node12&#45;&gt;Node11 -->
<g id="edge11" class="edge"><title>Node12&#45;&gt;Node11</title>
<path fill="none" stroke="#9a32cd" stroke-dasharray="5,2" d="M322.026,-25.4241C335.947,-27.4067 350.435,-29.4963 364,-31.5 369.828,-32.3609 375.899,-33.2712 381.967,-34.1899"/>
<polygon fill="#9a32cd" stroke="#9a32cd" points="322.403,-21.9426 312.01,-24.0021 321.419,-28.8731 322.403,-21.9426"/>
<text text-anchor="middle" x="347" y="-34.5" font-family="Helvetica,sans-Serif" font-size="10.00"> pImpl_</text>
</g>
</g>
</svg>
