<?xml version="1.0" encoding="UTF-8" standalone="no"?>
<!DOCTYPE svg PUBLIC "-//W3C//DTD SVG 1.1//EN"
 "http://www.w3.org/Graphics/SVG/1.1/DTD/svg11.dtd">
<!-- Generated by graphviz version 2.38.0 (20140413.2041)
 -->
<!-- Title: Object Pages: 1 -->
<svg width="664pt" height="197pt"
 viewBox="0.00 0.00 664.00 196.50" xmlns="http://www.w3.org/2000/svg" xmlns:xlink="http://www.w3.org/1999/xlink">
<g id="graph0" class="graph" transform="scale(1 1) rotate(0) translate(4 192.5)">
<title>Object</title>
<polygon fill="white" stroke="none" points="-4,4 -4,-192.5 660,-192.5 660,4 -4,4"/>
<!-- Node1 -->
<g id="node1" class="node"><title>Node1</title>
<g id="a_node1"><a xlink:title=" ">
<polygon fill="#bfbfbf" stroke="black" points="611,-93 611,-112 656,-112 656,-93 611,-93"/>
<text text-anchor="middle" x="633.5" y="-100" font-family="Helvetica,sans-Serif" font-size="10.00">Object</text>
</a>
</g>
</g>
<!-- Node2 -->
<g id="node2" class="node"><title>Node2</title>
<g id="a_node2"><a xlink:href="class_serialize.html" target="_top" xlink:title="Serialize is the interface for objects which can be persisted in a simple string, as JSON or XML stru...">
<polygon fill="white" stroke="black" points="426,-169 426,-188 480,-188 480,-169 426,-169"/>
<text text-anchor="middle" x="453" y="-176" font-family="Helvetica,sans-Serif" font-size="10.00">Serialize</text>
</a>
</g>
</g>
<!-- Node2&#45;&gt;Node1 -->
<g id="edge1" class="edge"><title>Node2&#45;&gt;Node1</title>
<path fill="none" stroke="midnightblue" d="M490.423,-174.917C519.745,-170.764 561.17,-161.951 593,-143.5 606.682,-135.569 618.691,-121.536 625.774,-112.127"/>
<polygon fill="midnightblue" stroke="midnightblue" points="489.674,-171.485 480.208,-176.246 490.576,-178.427 489.674,-171.485"/>
</g>
<!-- Node3 -->
<g id="node3" class="node"><title>Node3</title>
<g id="a_node3"><a xlink:title=" ">
<polygon fill="white" stroke="#bfbfbf" points="432.5,-131 432.5,-150 473.5,-150 473.5,-131 432.5,-131"/>
<text text-anchor="middle" x="453" y="-138" font-family="Helvetica,sans-Serif" font-size="10.00">string</text>
</a>
</g>
</g>
<!-- Node3&#45;&gt;Node1 -->
<g id="edge2" class="edge"><title>Node3&#45;&gt;Node1</title>
<path fill="none" stroke="#9a32cd" stroke-dasharray="5,2" d="M483.678,-137.325C512.072,-133.881 555.935,-127.497 593,-117.5 598.808,-115.934 604.947,-113.832 610.611,-111.698"/>
<polygon fill="#9a32cd" stroke="#9a32cd" points="483.126,-133.865 473.599,-138.502 483.938,-140.818 483.126,-133.865"/>
<text text-anchor="middle" x="567" y="-131.5" font-family="Helvetica,sans-Serif" font-size="10.00"> name_</text>
</g>
<!-- Node4 -->
<g id="node4" class="node"><title>Node4</title>
<g id="a_node4"><a xlink:href="struct_property_r_w.html" target="_top" xlink:title=" ">
<polygon fill="white" stroke="black" points="397,-93 397,-112 509,-112 509,-93 397,-93"/>
<text text-anchor="middle" x="453" y="-100" font-family="Helvetica,sans-Serif" font-size="10.00">PropertyRW&lt; string &gt;</text>
</a>
</g>
</g>
<!-- Node4&#45;&gt;Node1 -->
<g id="edge3" class="edge"><title>Node4&#45;&gt;Node1</title>
<path fill="none" stroke="#9a32cd" stroke-dasharray="5,2" d="M519.301,-102.5C551.552,-102.5 588.308,-102.5 610.958,-102.5"/>
<polygon fill="#9a32cd" stroke="#9a32cd" points="519.012,-99.0001 509.012,-102.5 519.012,-106 519.012,-99.0001"/>
<text text-anchor="middle" x="567" y="-105.5" font-family="Helvetica,sans-Serif" font-size="10.00"> Name</text>
</g>
<!-- Node5 -->
<g id="node5" class="node"><title>Node5</title>
<g id="a_node5"><a xlink:href="struct_property_r.html" target="_top" xlink:title=" ">
<polygon fill="white" stroke="black" points="196.5,-138 196.5,-157 298.5,-157 298.5,-138 196.5,-138"/>
<text text-anchor="middle" x="247.5" y="-145" font-family="Helvetica,sans-Serif" font-size="10.00">PropertyR&lt; string &gt;</text>
</a>
</g>
</g>
<!-- Node5&#45;&gt;Node4 -->
<g id="edge4" class="edge"><title>Node5&#45;&gt;Node4</title>
<path fill="none" stroke="midnightblue" d="M301.708,-135.734C335.108,-128.348 377.623,-118.947 408.905,-112.03"/>
<polygon fill="midnightblue" stroke="midnightblue" points="300.666,-132.38 291.657,-137.957 302.177,-139.215 300.666,-132.38"/>
</g>
<!-- Node6 -->
<g id="node6" class="node"><title>Node6</title>
<g id="a_node6"><a xlink:title=" ">
<polygon fill="white" stroke="#bfbfbf" points="0,-138 0,-157 112,-157 112,-138 0,-138"/>
<text text-anchor="middle" x="56" y="-145" font-family="Helvetica,sans-Serif" font-size="10.00">function&lt; string(void)&gt;</text>
</a>
</g>
</g>
<!-- Node6&#45;&gt;Node5 -->
<g id="edge5" class="edge"><title>Node6&#45;&gt;Node5</title>
<path fill="none" stroke="#9a32cd" stroke-dasharray="5,2" d="M122.283,-147.5C146.584,-147.5 173.757,-147.5 196.477,-147.5"/>
<polygon fill="#9a32cd" stroke="#9a32cd" points="122.066,-144 112.066,-147.5 122.066,-151 122.066,-144"/>
<text text-anchor="middle" x="147" y="-150.5" font-family="Helvetica,sans-Serif" font-size="10.00"> getter_</text>
</g>
<!-- Node7 -->
<g id="node7" class="node"><title>Node7</title>
<g id="a_node7"><a xlink:title=" ">
<polygon fill="white" stroke="#bfbfbf" points="196,-88.5 196,-118.5 299,-118.5 299,-88.5 196,-88.5"/>
<text text-anchor="start" x="204" y="-106.5" font-family="Helvetica,sans-Serif" font-size="10.00">function&lt; void(string</text>
<text text-anchor="middle" x="247.5" y="-95.5" font-family="Helvetica,sans-Serif" font-size="10.00"> newValue)&gt;</text>
</a>
</g>
</g>
<!-- Node7&#45;&gt;Node4 -->
<g id="edge6" class="edge"><title>Node7&#45;&gt;Node4</title>
<path fill="none" stroke="#9a32cd" stroke-dasharray="5,2" d="M309.426,-103.201C337.137,-103.064 369.69,-102.904 396.689,-102.772"/>
<polygon fill="#9a32cd" stroke="#9a32cd" points="309.047,-99.7023 299.065,-103.252 309.082,-106.702 309.047,-99.7023"/>
<text text-anchor="middle" x="348" y="-106.5" font-family="Helvetica,sans-Serif" font-size="10.00"> setter_</text>
</g>
<!-- Node8 -->
<g id="node8" class="node"><title>Node8</title>
<g id="a_node8"><a xlink:href="struct_property_r_w.html" target="_top" xlink:title=" ">
<polygon fill="white" stroke="black" points="383,-52 383,-71 523,-71 523,-52 383,-52"/>
<text text-anchor="middle" x="453" y="-59" font-family="Helvetica,sans-Serif" font-size="10.00">PropertyRW&lt; PropertyList &gt;</text>
</a>
</g>
</g>
<!-- Node8&#45;&gt;Node1 -->
<g id="edge7" class="edge"><title>Node8&#45;&gt;Node1</title>
<path fill="none" stroke="#9a32cd" stroke-dasharray="5,2" d="M528.106,-72.8375C549.248,-76.7512 572.188,-81.6522 593,-87.5 598.791,-89.1271 604.925,-91.2509 610.587,-93.3861"/>
<polygon fill="#9a32cd" stroke="#9a32cd" points="528.675,-69.3837 518.212,-71.0525 527.432,-76.2725 528.675,-69.3837"/>
<text text-anchor="middle" x="567" y="-90.5" font-family="Helvetica,sans-Serif" font-size="10.00"> Properties</text>
</g>
<!-- Node9 -->
<g id="node9" class="node"><title>Node9</title>
<g id="a_node9"><a xlink:href="struct_property_r.html" target="_top" xlink:title=" ">
<polygon fill="white" stroke="black" points="182,-50 182,-69 313,-69 313,-50 182,-50"/>
<text text-anchor="middle" x="247.5" y="-57" font-family="Helvetica,sans-Serif" font-size="10.00">PropertyR&lt; PropertyList &gt;</text>
</a>
</g>
</g>
<!-- Node9&#45;&gt;Node8 -->
<g id="edge8" class="edge"><title>Node9&#45;&gt;Node8</title>
<path fill="none" stroke="midnightblue" d="M323.231,-60.2345C342.756,-60.4263 363.711,-60.6323 382.927,-60.8212"/>
<polygon fill="midnightblue" stroke="midnightblue" points="323.202,-56.7341 313.168,-60.1356 323.133,-63.7338 323.202,-56.7341"/>
</g>
<!-- Node10 -->
<g id="node10" class="node"><title>Node10</title>
<g id="a_node10"><a xlink:title=" ">
<polygon fill="white" stroke="#bfbfbf" points="0,-44.5 0,-74.5 112,-74.5 112,-44.5 0,-44.5"/>
<text text-anchor="start" x="8" y="-62.5" font-family="Helvetica,sans-Serif" font-size="10.00">function&lt; PropertyList</text>
<text text-anchor="middle" x="56" y="-51.5" font-family="Helvetica,sans-Serif" font-size="10.00">(void)&gt;</text>
</a>
</g>
</g>
<!-- Node10&#45;&gt;Node9 -->
<g id="edge9" class="edge"><title>Node10&#45;&gt;Node9</title>
<path fill="none" stroke="#9a32cd" stroke-dasharray="5,2" d="M122.273,-59.5C141.568,-59.5 162.675,-59.5 181.927,-59.5"/>
<polygon fill="#9a32cd" stroke="#9a32cd" points="122.066,-56.0001 112.066,-59.5 122.066,-63.0001 122.066,-56.0001"/>
<text text-anchor="middle" x="147" y="-62.5" font-family="Helvetica,sans-Serif" font-size="10.00"> getter_</text>
</g>
<!-- Node11 -->
<g id="node11" class="node"><title>Node11</title>
<g id="a_node11"><a xlink:title=" ">
<polygon fill="white" stroke="#bfbfbf" points="182,-0.5 182,-30.5 313,-30.5 313,-0.5 182,-0.5"/>
<text text-anchor="start" x="190" y="-18.5" font-family="Helvetica,sans-Serif" font-size="10.00">function&lt; void(PropertyList</text>
<text text-anchor="middle" x="247.5" y="-7.5" font-family="Helvetica,sans-Serif" font-size="10.00"> newValue)&gt;</text>
</a>
</g>
</g>
<!-- Node11&#45;&gt;Node8 -->
<g id="edge10" class="edge"><title>Node11&#45;&gt;Node8</title>
<path fill="none" stroke="#9a32cd" stroke-dasharray="5,2" d="M322.97,-32.3334C352.286,-38.9601 384.864,-46.3242 409.95,-51.9949"/>
<polygon fill="#9a32cd" stroke="#9a32cd" points="323.694,-28.9089 313.168,-30.1179 322.15,-35.7367 323.694,-28.9089"/>
<text text-anchor="middle" x="348" y="-44.5" font-family="Helvetica,sans-Serif" font-size="10.00"> setter_</text>
</g>
<!-- Node12 -->
<g id="node12" class="node"><title>Node12</title>
<g id="a_node12"><a xlink:title=" ">
<polygon fill="white" stroke="#bfbfbf" points="398,-14 398,-33 508,-33 508,-14 398,-14"/>
<text text-anchor="middle" x="453" y="-21" font-family="Helvetica,sans-Serif" font-size="10.00">vector&lt; PropertyPtr &gt;</text>
</a>
</g>
</g>
<!-- Node12&#45;&gt;Node1 -->
<g id="edge11" class="edge"><title>Node12&#45;&gt;Node1</title>
<path fill="none" stroke="#9a32cd" stroke-dasharray="5,2" d="M518.122,-33.5005C542.72,-39.2178 570.307,-48.0374 593,-61.5 606.601,-69.5689 618.63,-83.5673 625.74,-92.9314"/>
<polygon fill="#9a32cd" stroke="#9a32cd" points="518.664,-30.0362 508.146,-31.31 517.163,-36.8733 518.664,-30.0362"/>
<text text-anchor="middle" x="567" y="-64.5" font-family="Helvetica,sans-Serif" font-size="10.00"> properties_</text>
</g>
</g>
</svg>
