<?xml version="1.0" encoding="UTF-8" standalone="no"?>
<!DOCTYPE svg PUBLIC "-//W3C//DTD SVG 1.1//EN"
 "http://www.w3.org/Graphics/SVG/1.1/DTD/svg11.dtd">
<!-- Generated by graphviz version 2.38.0 (20140413.2041)
 -->
<!-- Title: Button::create Pages: 1 -->
<svg width="315pt" height="28pt"
 viewBox="0.00 0.00 315.00 28.00" xmlns="http://www.w3.org/2000/svg" xmlns:xlink="http://www.w3.org/1999/xlink">
<g id="graph0" class="graph" transform="scale(1 1) rotate(0) translate(4 24)">
<title>Button::create</title>
<polygon fill="white" stroke="none" points="-4,4 -4,-24 311,-24 311,4 -4,4"/>
<!-- Node1 -->
<g id="node1" class="node"><title>Node1</title>
<g id="a_node1"><a xlink:title=" ">
<polygon fill="#bfbfbf" stroke="black" points="0,-0.5 0,-19.5 78,-19.5 78,-0.5 0,-0.5"/>
<text text-anchor="middle" x="39" y="-7.5" font-family="Helvetica,sans-Serif" font-size="10.00">Button::create</text>
</a>
</g>
</g>
<!-- Node2 -->
<g id="node2" class="node"><title>Node2</title>
<g id="a_node2"><a xlink:href="class_control.html#a5556f2e0a0d67ccba4981ddc8c39d2c3" target="_top" xlink:title=" ">
<polygon fill="white" stroke="black" points="114,-0.5 114,-19.5 194,-19.5 194,-0.5 114,-0.5"/>
<text text-anchor="middle" x="154" y="-7.5" font-family="Helvetica,sans-Serif" font-size="10.00">Control::create</text>
</a>
</g>
</g>
<!-- Node1&#45;&gt;Node2 -->
<g id="edge1" class="edge"><title>Node1&#45;&gt;Node2</title>
<path fill="none" stroke="midnightblue" d="M78.2566,-10C86.3591,-10 95.0224,-10 103.474,-10"/>
<polygon fill="midnightblue" stroke="midnightblue" points="103.627,-13.5001 113.627,-10 103.627,-6.5001 103.627,-13.5001"/>
</g>
<!-- Node3 -->
<g id="node3" class="node"><title>Node3</title>
<g id="a_node3"><a xlink:href="class_control.html#af9a3acf49973e5a31594f30e979246b0" target="_top" xlink:title=" ">
<polygon fill="white" stroke="black" points="230,-0.5 230,-19.5 307,-19.5 307,-0.5 230,-0.5"/>
<text text-anchor="middle" x="268.5" y="-7.5" font-family="Helvetica,sans-Serif" font-size="10.00">Control::insert</text>
</a>
</g>
</g>
<!-- Node2&#45;&gt;Node3 -->
<g id="edge2" class="edge"><title>Node2&#45;&gt;Node3</title>
<path fill="none" stroke="midnightblue" d="M194.031,-10C202.243,-10 210.996,-10 219.493,-10"/>
<polygon fill="midnightblue" stroke="midnightblue" points="219.676,-13.5001 229.676,-10 219.676,-6.5001 219.676,-13.5001"/>
</g>
</g>
</svg>
