<?xml version="1.0" encoding="UTF-8" standalone="no"?>
<!DOCTYPE svg PUBLIC "-//W3C//DTD SVG 1.1//EN"
 "http://www.w3.org/Graphics/SVG/1.1/DTD/svg11.dtd">
<!-- Generated by graphviz version 2.38.0 (20140413.2041)
 -->
<!-- Title: Thread::stop Pages: 1 -->
<svg width="418pt" height="78pt"
 viewBox="0.00 0.00 418.00 77.50" xmlns="http://www.w3.org/2000/svg" xmlns:xlink="http://www.w3.org/1999/xlink">
<g id="graph0" class="graph" transform="scale(1 1) rotate(0) translate(4 73.5)">
<title>Thread::stop</title>
<polygon fill="white" stroke="none" points="-4,4 -4,-73.5 414,-73.5 414,4 -4,4"/>
<!-- Node1 -->
<g id="node1" class="node"><title>Node1</title>
<g id="a_node1"><a xlink:title="Method to stop the Trhead.">
<polygon fill="#bfbfbf" stroke="black" points="339,-28 339,-47 410,-47 410,-28 339,-28"/>
<text text-anchor="middle" x="374.5" y="-35" font-family="Helvetica,sans-Serif" font-size="10.00">Thread::stop</text>
</a>
</g>
</g>
<!-- Node2 -->
<g id="node2" class="node"><title>Node2</title>
<g id="a_node2"><a xlink:href="main_8cpp.html#abdf0523e10fae27868b24d21a841e926" target="_top" xlink:title="All the magic is here :&#45;)">
<polygon fill="white" stroke="black" points="202,-50 202,-69 285,-69 285,-50 202,-50"/>
<text text-anchor="middle" x="243.5" y="-57" font-family="Helvetica,sans-Serif" font-size="10.00">OnStartClicked</text>
</a>
</g>
</g>
<!-- Node1&#45;&gt;Node2 -->
<g id="edge1" class="edge"><title>Node1&#45;&gt;Node2</title>
<path fill="none" stroke="midnightblue" d="M328.88,-45.1096C314.669,-47.5331 299.032,-50.2 285.12,-52.5726"/>
<polygon fill="midnightblue" stroke="midnightblue" points="329.661,-48.527 338.93,-43.3956 328.484,-41.6266 329.661,-48.527"/>
</g>
<!-- Node5 -->
<g id="node5" class="node"><title>Node5</title>
<g id="a_node5"><a xlink:href="struct_thread_1_1_thread_manager_1_1_impl.html#a6a46aa5678c8c2de88074f78d35826e9" target="_top" xlink:title="&gt;An helper construct to prevent the application from crashing on exit.">
<polygon fill="white" stroke="black" points="184,-0.5 184,-30.5 303,-30.5 303,-0.5 184,-0.5"/>
<text text-anchor="start" x="192" y="-18.5" font-family="Helvetica,sans-Serif" font-size="10.00">Thread::ThreadManager</text>
<text text-anchor="middle" x="243.5" y="-7.5" font-family="Helvetica,sans-Serif" font-size="10.00">::Impl::~Impl</text>
</a>
</g>
</g>
<!-- Node1&#45;&gt;Node5 -->
<g id="edge4" class="edge"><title>Node1&#45;&gt;Node5</title>
<path fill="none" stroke="midnightblue" d="M329.018,-29.9139C320.653,-28.4874 311.79,-26.9759 303.073,-25.4892"/>
<polygon fill="midnightblue" stroke="midnightblue" points="328.484,-33.3734 338.93,-31.6044 329.661,-26.473 328.484,-33.3734"/>
</g>
<!-- Node3 -->
<g id="node3" class="node"><title>Node3</title>
<g id="a_node3"><a xlink:href="main_8cpp.html#a30a1e3b0304f1b083637664cbda94e72" target="_top" xlink:title="The declaration of the main message processing function.">
<polygon fill="white" stroke="black" points="91,-50 91,-69 148,-69 148,-50 91,-50"/>
<text text-anchor="middle" x="119.5" y="-57" font-family="Helvetica,sans-Serif" font-size="10.00">WndProc</text>
</a>
</g>
</g>
<!-- Node2&#45;&gt;Node3 -->
<g id="edge2" class="edge"><title>Node2&#45;&gt;Node3</title>
<path fill="none" stroke="midnightblue" d="M191.748,-59.5C176.859,-59.5 161.132,-59.5 148.253,-59.5"/>
<polygon fill="midnightblue" stroke="midnightblue" points="191.876,-63.0001 201.876,-59.5 191.876,-56.0001 191.876,-63.0001"/>
</g>
<!-- Node4 -->
<g id="node4" class="node"><title>Node4</title>
<g id="a_node4"><a xlink:href="main_8cpp.html#a946cd7d17bf6760d82ded70909de9a6d" target="_top" xlink:title="The beginning of everything.">
<polygon fill="white" stroke="black" points="0,-50 0,-69 55,-69 55,-50 0,-50"/>
<text text-anchor="middle" x="27.5" y="-57" font-family="Helvetica,sans-Serif" font-size="10.00">WinMain</text>
</a>
</g>
</g>
<!-- Node3&#45;&gt;Node4 -->
<g id="edge3" class="edge"><title>Node3&#45;&gt;Node4</title>
<path fill="none" stroke="midnightblue" d="M80.4282,-59.5C71.9523,-59.5 63.1405,-59.5 55.2346,-59.5"/>
<polygon fill="midnightblue" stroke="midnightblue" points="80.5168,-63.0001 90.5168,-59.5 80.5167,-56.0001 80.5168,-63.0001"/>
</g>
</g>
</svg>
