<?xml version="1.0" encoding="UTF-8" standalone="no"?>
<!DOCTYPE svg PUBLIC "-//W3C//DTD SVG 1.1//EN"
 "http://www.w3.org/Graphics/SVG/1.1/DTD/svg11.dtd">
<!-- Generated by graphviz version 2.38.0 (20140413.2041)
 -->
<!-- Title: Thread::start Pages: 1 -->
<svg width="679pt" height="104pt"
 viewBox="0.00 0.00 679.00 104.00" xmlns="http://www.w3.org/2000/svg" xmlns:xlink="http://www.w3.org/1999/xlink">
<g id="graph0" class="graph" transform="scale(1 1) rotate(0) translate(4 100)">
<title>Thread::start</title>
<polygon fill="white" stroke="none" points="-4,4 -4,-100 675,-100 675,4 -4,4"/>
<!-- Node1 -->
<g id="node1" class="node"><title>Node1</title>
<g id="a_node1"><a xlink:title="Starts the Thread with Thread::Impl::standardLoop.">
<polygon fill="#bfbfbf" stroke="black" points="0,-19.5 0,-38.5 71,-38.5 71,-19.5 0,-19.5"/>
<text text-anchor="middle" x="35.5" y="-26.5" font-family="Helvetica,sans-Serif" font-size="10.00">Thread::start</text>
</a>
</g>
</g>
<!-- Node2 -->
<g id="node2" class="node"><title>Node2</title>
<g id="a_node2"><a xlink:href="struct_thread_1_1_impl.html#a0164f5b95922ac969d1d81914e5d5eb9" target="_top" xlink:title="The normally used processing loop of a background thread.">
<polygon fill="white" stroke="black" points="107,-38.5 107,-57.5 241,-57.5 241,-38.5 107,-38.5"/>
<text text-anchor="middle" x="174" y="-45.5" font-family="Helvetica,sans-Serif" font-size="10.00">Thread::Impl::standardLoop</text>
</a>
</g>
</g>
<!-- Node1&#45;&gt;Node2 -->
<g id="edge1" class="edge"><title>Node1&#45;&gt;Node2</title>
<path fill="none" stroke="midnightblue" d="M71.2979,-33.8437C79.2176,-34.946 87.9357,-36.1596 96.8359,-37.3984"/>
<polygon fill="midnightblue" stroke="midnightblue" points="96.5418,-40.8911 106.929,-38.8033 97.5069,-33.958 96.5418,-40.8911"/>
</g>
<!-- Node8 -->
<g id="node8" class="node"><title>Node8</title>
<g id="a_node8"><a xlink:href="class_thread.html#af1a12dd97c3644116d394f655ca63c86" target="_top" xlink:title=" ">
<polygon fill="white" stroke="black" points="135.5,-0.5 135.5,-19.5 212.5,-19.5 212.5,-0.5 135.5,-0.5"/>
<text text-anchor="middle" x="174" y="-7.5" font-family="Helvetica,sans-Serif" font-size="10.00">Thread::start_</text>
</a>
</g>
</g>
<!-- Node1&#45;&gt;Node8 -->
<g id="edge7" class="edge"><title>Node1&#45;&gt;Node8</title>
<path fill="none" stroke="midnightblue" d="M71.2979,-24.1563C87.673,-21.877 107.461,-19.1226 125.214,-16.6515"/>
<polygon fill="midnightblue" stroke="midnightblue" points="125.968,-20.0804 135.39,-15.235 125.003,-13.1472 125.968,-20.0804"/>
</g>
<!-- Node3 -->
<g id="node3" class="node"><title>Node3</title>
<g id="a_node3"><a xlink:href="class_edit.html#a3ced1bcf14de542e25d512991bcfed2f" target="_top" xlink:title=" ">
<polygon fill="white" stroke="black" points="318.5,-76.5 318.5,-95.5 374.5,-95.5 374.5,-76.5 318.5,-76.5"/>
<text text-anchor="middle" x="346.5" y="-83.5" font-family="Helvetica,sans-Serif" font-size="10.00">Edit::add</text>
</a>
</g>
</g>
<!-- Node2&#45;&gt;Node3 -->
<g id="edge2" class="edge"><title>Node2&#45;&gt;Node3</title>
<path fill="none" stroke="midnightblue" d="M218.024,-57.589C245.893,-63.8002 281.817,-71.8066 308.422,-77.7363"/>
<polygon fill="midnightblue" stroke="midnightblue" points="307.962,-81.2195 318.484,-79.9788 309.485,-74.3872 307.962,-81.2195"/>
</g>
<!-- Node6 -->
<g id="node6" class="node"><title>Node6</title>
<g id="a_node6"><a xlink:href="struct_thread_1_1_impl.html#ae467f41841d4236274bf360f470ec775" target="_top" xlink:title="process the queue of functors, usually called form notify&#45;functor">
<polygon fill="white" stroke="black" points="277,-38.5 277,-57.5 416,-57.5 416,-38.5 277,-38.5"/>
<text text-anchor="middle" x="346.5" y="-45.5" font-family="Helvetica,sans-Serif" font-size="10.00">Thread::Impl::processQueue</text>
</a>
</g>
</g>
<!-- Node2&#45;&gt;Node6 -->
<g id="edge5" class="edge"><title>Node2&#45;&gt;Node6</title>
<path fill="none" stroke="midnightblue" d="M241.408,-48C249.651,-48 258.141,-48 266.549,-48"/>
<polygon fill="midnightblue" stroke="midnightblue" points="266.742,-51.5001 276.742,-48 266.742,-44.5001 266.742,-51.5001"/>
</g>
<!-- Node7 -->
<g id="node7" class="node"><title>Node7</title>
<g id="a_node7"><a xlink:href="_thread_8cpp.html#a1b6cdfcdd75b61856b37cf13deae9334" target="_top" xlink:title=" ">
<polygon fill="white" stroke="black" points="303.5,-0.5 303.5,-19.5 389.5,-19.5 389.5,-0.5 303.5,-0.5"/>
<text text-anchor="middle" x="346.5" y="-7.5" font-family="Helvetica,sans-Serif" font-size="10.00">SetThreadName</text>
</a>
</g>
</g>
<!-- Node2&#45;&gt;Node7 -->
<g id="edge6" class="edge"><title>Node2&#45;&gt;Node7</title>
<path fill="none" stroke="midnightblue" d="M218.024,-38.411C240.899,-33.3128 269.2,-27.0053 293.321,-21.6294"/>
<polygon fill="midnightblue" stroke="midnightblue" points="294.375,-24.9803 303.374,-19.3887 292.853,-18.1479 294.375,-24.9803"/>
</g>
<!-- Node4 -->
<g id="node4" class="node"><title>Node4</title>
<g id="a_node4"><a xlink:href="class_thread.html#abf7db5b09bd25b345e80577f71321ee9" target="_top" xlink:title="The code that will be enqued in the threads task queue.">
<polygon fill="white" stroke="black" points="452,-76.5 452,-95.5 541,-95.5 541,-76.5 452,-76.5"/>
<text text-anchor="middle" x="496.5" y="-83.5" font-family="Helvetica,sans-Serif" font-size="10.00">Thread::enqueue</text>
</a>
</g>
</g>
<!-- Node3&#45;&gt;Node4 -->
<g id="edge3" class="edge"><title>Node3&#45;&gt;Node4</title>
<path fill="none" stroke="midnightblue" d="M374.645,-86C393.388,-86 418.944,-86 441.728,-86"/>
<polygon fill="midnightblue" stroke="midnightblue" points="441.967,-89.5001 451.967,-86 441.967,-82.5001 441.967,-89.5001"/>
</g>
<!-- Node5 -->
<g id="node5" class="node"><title>Node5</title>
<g id="a_node5"><a xlink:href="class_thread.html#a3ee4bd6db78554c9ea75cf242b8ae273" target="_top" xlink:title="push the functor in the queue">
<polygon fill="white" stroke="black" points="577,-76.5 577,-95.5 671,-95.5 671,-76.5 577,-76.5"/>
<text text-anchor="middle" x="624" y="-83.5" font-family="Helvetica,sans-Serif" font-size="10.00">Thread::enqueue_</text>
</a>
</g>
</g>
<!-- Node4&#45;&gt;Node5 -->
<g id="edge4" class="edge"><title>Node4&#45;&gt;Node5</title>
<path fill="none" stroke="midnightblue" d="M541.042,-86C549.387,-86 558.233,-86 566.908,-86"/>
<polygon fill="midnightblue" stroke="midnightblue" points="566.973,-89.5001 576.973,-86 566.973,-82.5001 566.973,-89.5001"/>
</g>
</g>
</svg>
