<?xml version="1.0" encoding="UTF-8" standalone="no"?>
<!DOCTYPE svg PUBLIC "-//W3C//DTD SVG 1.1//EN"
 "http://www.w3.org/Graphics/SVG/1.1/DTD/svg11.dtd">
<!-- Generated by graphviz version 2.38.0 (20140413.2041)
 -->
<!-- Title: Edit::add Pages: 1 -->
<svg width="319pt" height="28pt"
 viewBox="0.00 0.00 319.00 28.00" xmlns="http://www.w3.org/2000/svg" xmlns:xlink="http://www.w3.org/1999/xlink">
<g id="graph0" class="graph" transform="scale(1 1) rotate(0) translate(4 24)">
<title>Edit::add</title>
<polygon fill="white" stroke="none" points="-4,4 -4,-24 315,-24 315,4 -4,4"/>
<!-- Node1 -->
<g id="node1" class="node"><title>Node1</title>
<g id="a_node1"><a xlink:title=" ">
<polygon fill="#bfbfbf" stroke="black" points="0,-0.5 0,-19.5 56,-19.5 56,-0.5 0,-0.5"/>
<text text-anchor="middle" x="28" y="-7.5" font-family="Helvetica,sans-Serif" font-size="10.00">Edit::add</text>
</a>
</g>
</g>
<!-- Node2 -->
<g id="node2" class="node"><title>Node2</title>
<g id="a_node2"><a xlink:href="class_thread.html#abf7db5b09bd25b345e80577f71321ee9" target="_top" xlink:title="The code that will be enqued in the threads task queue.">
<polygon fill="white" stroke="black" points="92,-0.5 92,-19.5 181,-19.5 181,-0.5 92,-0.5"/>
<text text-anchor="middle" x="136.5" y="-7.5" font-family="Helvetica,sans-Serif" font-size="10.00">Thread::enqueue</text>
</a>
</g>
</g>
<!-- Node1&#45;&gt;Node2 -->
<g id="edge1" class="edge"><title>Node1&#45;&gt;Node2</title>
<path fill="none" stroke="midnightblue" d="M56.15,-10C64.0306,-10 72.9245,-10 81.8339,-10"/>
<polygon fill="midnightblue" stroke="midnightblue" points="81.8463,-13.5001 91.8463,-10 81.8462,-6.5001 81.8463,-13.5001"/>
</g>
<!-- Node3 -->
<g id="node3" class="node"><title>Node3</title>
<g id="a_node3"><a xlink:href="class_thread.html#a3ee4bd6db78554c9ea75cf242b8ae273" target="_top" xlink:title="push the functor in the queue">
<polygon fill="white" stroke="black" points="217,-0.5 217,-19.5 311,-19.5 311,-0.5 217,-0.5"/>
<text text-anchor="middle" x="264" y="-7.5" font-family="Helvetica,sans-Serif" font-size="10.00">Thread::enqueue_</text>
</a>
</g>
</g>
<!-- Node2&#45;&gt;Node3 -->
<g id="edge2" class="edge"><title>Node2&#45;&gt;Node3</title>
<path fill="none" stroke="midnightblue" d="M181.042,-10C189.387,-10 198.233,-10 206.908,-10"/>
<polygon fill="midnightblue" stroke="midnightblue" points="206.973,-13.5001 216.973,-10 206.973,-6.5001 206.973,-13.5001"/>
</g>
</g>
</svg>
