<?xml version="1.0" encoding="UTF-8" standalone="no"?>
<!DOCTYPE svg PUBLIC "-//W3C//DTD SVG 1.1//EN"
 "http://www.w3.org/Graphics/SVG/1.1/DTD/svg11.dtd">
<!-- Generated by graphviz version 2.38.0 (20140413.2041)
 -->
<!-- Title: Edit::add Pages: 1 -->
<svg width="845pt" height="180pt"
 viewBox="0.00 0.00 845.00 180.00" xmlns="http://www.w3.org/2000/svg" xmlns:xlink="http://www.w3.org/1999/xlink">
<g id="graph0" class="graph" transform="scale(1 1) rotate(0) translate(4 176)">
<title>Edit::add</title>
<polygon fill="white" stroke="none" points="-4,4 -4,-176 841,-176 841,4 -4,4"/>
<!-- Node1 -->
<g id="node1" class="node"><title>Node1</title>
<g id="a_node1"><a xlink:title=" ">
<polygon fill="#bfbfbf" stroke="black" points="781,-57.5 781,-76.5 837,-76.5 837,-57.5 781,-57.5"/>
<text text-anchor="middle" x="809" y="-64.5" font-family="Helvetica,sans-Serif" font-size="10.00">Edit::add</text>
</a>
</g>
</g>
<!-- Node2 -->
<g id="node2" class="node"><title>Node2</title>
<g id="a_node2"><a xlink:href="output_8hpp.html#ad715e61f7587d83c205d24cfc114282a" target="_top" xlink:title=" ">
<polygon fill="white" stroke="black" points="659.5,-114.5 659.5,-133.5 696.5,-133.5 696.5,-114.5 659.5,-114.5"/>
<text text-anchor="middle" x="678" y="-121.5" font-family="Helvetica,sans-Serif" font-size="10.00">flush</text>
</a>
</g>
</g>
<!-- Node1&#45;&gt;Node2 -->
<g id="edge1" class="edge"><title>Node1&#45;&gt;Node2</title>
<path fill="none" stroke="midnightblue" d="M782.31,-81.452C771.033,-87.5348 757.531,-94.4692 745,-100 728.938,-107.089 710.063,-113.797 696.622,-118.309"/>
<polygon fill="midnightblue" stroke="midnightblue" points="784.098,-84.4634 791.19,-76.5922 780.737,-78.3229 784.098,-84.4634"/>
</g>
<!-- Node6 -->
<g id="node6" class="node"><title>Node6</title>
<g id="a_node6"><a xlink:href="main_8cpp.html#a1870be22060f25a2595afa09934e9784" target="_top" xlink:title=" ">
<polygon fill="white" stroke="black" points="184,-76.5 184,-95.5 285,-95.5 285,-76.5 184,-76.5"/>
<text text-anchor="middle" x="234.5" y="-83.5" font-family="Helvetica,sans-Serif" font-size="10.00">OnStartTestClicked</text>
</a>
</g>
</g>
<!-- Node1&#45;&gt;Node6 -->
<g id="edge5" class="edge"><title>Node1&#45;&gt;Node6</title>
<path fill="none" stroke="midnightblue" d="M770.734,-70.2785C762.279,-70.9331 753.334,-71.5551 745,-72 576.449,-80.9982 376.204,-84.3598 285.076,-85.4888"/>
<polygon fill="midnightblue" stroke="midnightblue" points="771.045,-73.7649 780.732,-69.4737 770.483,-66.7875 771.045,-73.7649"/>
</g>
<!-- Node9 -->
<g id="node9" class="node"><title>Node9</title>
<g id="a_node9"><a xlink:href="main_8cpp.html#a6e6bef72e348d49296a2aa278ce80ca6" target="_top" xlink:title="Thread&#45;Test&#45;Button event handler.">
<polygon fill="white" stroke="black" points="465,-38.5 465,-57.5 575,-57.5 575,-38.5 465,-38.5"/>
<text text-anchor="middle" x="520" y="-45.5" font-family="Helvetica,sans-Serif" font-size="10.00">OnThreadTestClicked</text>
</a>
</g>
</g>
<!-- Node1&#45;&gt;Node9 -->
<g id="edge8" class="edge"><title>Node1&#45;&gt;Node9</title>
<path fill="none" stroke="midnightblue" d="M771.002,-64.5506C721.249,-61.2569 632.429,-55.3769 575.152,-51.585"/>
<polygon fill="midnightblue" stroke="midnightblue" points="770.79,-68.0442 781,-65.2125 771.253,-61.0595 770.79,-68.0442"/>
</g>
<!-- Node10 -->
<g id="node10" class="node"><title>Node10</title>
<g id="a_node10"><a xlink:href="struct_thread_1_1_impl.html#a0164f5b95922ac969d1d81914e5d5eb9" target="_top" xlink:title="The normally used processing loop of a background thread.">
<polygon fill="white" stroke="black" points="611,-0.5 611,-19.5 745,-19.5 745,-0.5 611,-0.5"/>
<text text-anchor="middle" x="678" y="-7.5" font-family="Helvetica,sans-Serif" font-size="10.00">Thread::Impl::standardLoop</text>
</a>
</g>
</g>
<!-- Node1&#45;&gt;Node10 -->
<g id="edge10" class="edge"><title>Node1&#45;&gt;Node10</title>
<path fill="none" stroke="midnightblue" d="M782.31,-52.548C771.033,-46.4652 757.531,-39.5308 745,-34 733.065,-28.7324 719.577,-23.6754 707.919,-19.5732"/>
<polygon fill="midnightblue" stroke="midnightblue" points="780.737,-55.6771 791.19,-57.4078 784.098,-49.5366 780.737,-55.6771"/>
</g>
<!-- Node3 -->
<g id="node3" class="node"><title>Node3</title>
<g id="a_node3"><a xlink:href="classoutputbuf.html#ae4bacbf184222fca04c7e3f09309e1c2" target="_top" xlink:title=" ">
<polygon fill="white" stroke="black" points="469.5,-114.5 469.5,-133.5 570.5,-133.5 570.5,-114.5 469.5,-114.5"/>
<text text-anchor="middle" x="520" y="-121.5" font-family="Helvetica,sans-Serif" font-size="10.00">outputbuf::flushMsg</text>
</a>
</g>
</g>
<!-- Node2&#45;&gt;Node3 -->
<g id="edge2" class="edge"><title>Node2&#45;&gt;Node3</title>
<path fill="none" stroke="midnightblue" d="M649.24,-124C627.518,-124 596.747,-124 570.792,-124"/>
<polygon fill="midnightblue" stroke="midnightblue" points="649.408,-127.5 659.408,-124 649.408,-120.5 649.408,-127.5"/>
</g>
<!-- Node4 -->
<g id="node4" class="node"><title>Node4</title>
<g id="a_node4"><a xlink:href="classoutputbuf.html#a7525670600d2f14b79000875633aa6d8" target="_top" xlink:title=" ">
<polygon fill="white" stroke="black" points="327,-152.5 327,-171.5 423,-171.5 423,-152.5 327,-152.5"/>
<text text-anchor="middle" x="375" y="-159.5" font-family="Helvetica,sans-Serif" font-size="10.00">outputbuf::overflow</text>
</a>
</g>
</g>
<!-- Node3&#45;&gt;Node4 -->
<g id="edge3" class="edge"><title>Node3&#45;&gt;Node4</title>
<path fill="none" stroke="midnightblue" d="M473.187,-136.174C453.413,-141.429 430.616,-147.487 412.073,-152.414"/>
<polygon fill="midnightblue" stroke="midnightblue" points="474.149,-139.54 482.915,-133.589 472.352,-132.775 474.149,-139.54"/>
</g>
<!-- Node5 -->
<g id="node5" class="node"><title>Node5</title>
<g id="a_node5"><a xlink:href="classoutputbuf.html#ab37c9e3806825271abd4f04d0f045e54" target="_top" xlink:title=" ">
<polygon fill="white" stroke="black" points="321,-114.5 321,-133.5 429,-133.5 429,-114.5 321,-114.5"/>
<text text-anchor="middle" x="375" y="-121.5" font-family="Helvetica,sans-Serif" font-size="10.00">outputbuf::~outputbuf</text>
</a>
</g>
</g>
<!-- Node3&#45;&gt;Node5 -->
<g id="edge4" class="edge"><title>Node3&#45;&gt;Node5</title>
<path fill="none" stroke="midnightblue" d="M459.227,-124C449.34,-124 439.144,-124 429.426,-124"/>
<polygon fill="midnightblue" stroke="midnightblue" points="459.387,-127.5 469.387,-124 459.387,-120.5 459.387,-127.5"/>
</g>
<!-- Node7 -->
<g id="node7" class="node"><title>Node7</title>
<g id="a_node7"><a xlink:href="main_8cpp.html#a30a1e3b0304f1b083637664cbda94e72" target="_top" xlink:title="The declaration of the main message processing function.">
<polygon fill="white" stroke="black" points="91,-38.5 91,-57.5 148,-57.5 148,-38.5 91,-38.5"/>
<text text-anchor="middle" x="119.5" y="-45.5" font-family="Helvetica,sans-Serif" font-size="10.00">WndProc</text>
</a>
</g>
</g>
<!-- Node6&#45;&gt;Node7 -->
<g id="edge6" class="edge"><title>Node6&#45;&gt;Node7</title>
<path fill="none" stroke="midnightblue" d="M195.208,-73.1229C179.8,-67.9417 162.371,-62.0804 148.224,-57.3232"/>
<polygon fill="midnightblue" stroke="midnightblue" points="194.391,-76.5409 204.985,-76.411 196.623,-69.9061 194.391,-76.5409"/>
</g>
<!-- Node8 -->
<g id="node8" class="node"><title>Node8</title>
<g id="a_node8"><a xlink:href="main_8cpp.html#a946cd7d17bf6760d82ded70909de9a6d" target="_top" xlink:title="The beginning of everything.">
<polygon fill="white" stroke="black" points="0,-38.5 0,-57.5 55,-57.5 55,-38.5 0,-38.5"/>
<text text-anchor="middle" x="27.5" y="-45.5" font-family="Helvetica,sans-Serif" font-size="10.00">WinMain</text>
</a>
</g>
</g>
<!-- Node7&#45;&gt;Node8 -->
<g id="edge7" class="edge"><title>Node7&#45;&gt;Node8</title>
<path fill="none" stroke="midnightblue" d="M80.4282,-48C71.9523,-48 63.1405,-48 55.2346,-48"/>
<polygon fill="midnightblue" stroke="midnightblue" points="80.5168,-51.5001 90.5168,-48 80.5167,-44.5001 80.5168,-51.5001"/>
</g>
<!-- Node9&#45;&gt;Node7 -->
<g id="edge9" class="edge"><title>Node9&#45;&gt;Node7</title>
<path fill="none" stroke="midnightblue" d="M454.66,-48C366.209,-48 210.874,-48 148.039,-48"/>
<polygon fill="midnightblue" stroke="midnightblue" points="454.842,-51.5001 464.842,-48 454.842,-44.5001 454.842,-51.5001"/>
</g>
<!-- Node11 -->
<g id="node11" class="node"><title>Node11</title>
<g id="a_node11"><a xlink:href="class_thread.html#a1f53ee62bd30a7924186ef26150ce262" target="_top" xlink:title="The most normal way to start a new thread.">
<polygon fill="white" stroke="black" points="484.5,-0.5 484.5,-19.5 555.5,-19.5 555.5,-0.5 484.5,-0.5"/>
<text text-anchor="middle" x="520" y="-7.5" font-family="Helvetica,sans-Serif" font-size="10.00">Thread::start</text>
</a>
</g>
</g>
<!-- Node10&#45;&gt;Node11 -->
<g id="edge11" class="edge"><title>Node10&#45;&gt;Node11</title>
<path fill="none" stroke="midnightblue" d="M600.57,-10C584.879,-10 569.104,-10 555.785,-10"/>
<polygon fill="midnightblue" stroke="midnightblue" points="600.842,-13.5001 610.842,-10 600.842,-6.5001 600.842,-13.5001"/>
</g>
<!-- Node12 -->
<g id="node12" class="node"><title>Node12</title>
<g id="a_node12"><a xlink:href="class_thread.html#ada9adb041744058adc9abb1744e86c5d" target="_top" xlink:title=" ">
<polygon fill="white" stroke="black" points="339.5,-0.5 339.5,-19.5 410.5,-19.5 410.5,-0.5 339.5,-0.5"/>
<text text-anchor="middle" x="375" y="-7.5" font-family="Helvetica,sans-Serif" font-size="10.00">Thread::start</text>
</a>
</g>
</g>
<!-- Node11&#45;&gt;Node12 -->
<g id="edge12" class="edge"><title>Node11&#45;&gt;Node12</title>
<path fill="none" stroke="midnightblue" d="M474.333,-10C453.843,-10 429.915,-10 410.793,-10"/>
<polygon fill="midnightblue" stroke="midnightblue" points="474.384,-13.5001 484.384,-10 474.384,-6.5001 474.384,-13.5001"/>
</g>
<!-- Node13 -->
<g id="node13" class="node"><title>Node13</title>
<g id="a_node13"><a xlink:href="main_8cpp.html#abdf0523e10fae27868b24d21a841e926" target="_top" xlink:title="All the magic is here :&#45;)">
<polygon fill="white" stroke="black" points="193,-0.5 193,-19.5 276,-19.5 276,-0.5 193,-0.5"/>
<text text-anchor="middle" x="234.5" y="-7.5" font-family="Helvetica,sans-Serif" font-size="10.00">OnStartClicked</text>
</a>
</g>
</g>
<!-- Node12&#45;&gt;Node13 -->
<g id="edge13" class="edge"><title>Node12&#45;&gt;Node13</title>
<path fill="none" stroke="midnightblue" d="M329.111,-10C312.033,-10 292.689,-10 276.037,-10"/>
<polygon fill="midnightblue" stroke="midnightblue" points="329.408,-13.5001 339.408,-10 329.408,-6.5001 329.408,-13.5001"/>
</g>
<!-- Node13&#45;&gt;Node7 -->
<g id="edge14" class="edge"><title>Node13&#45;&gt;Node7</title>
<path fill="none" stroke="midnightblue" d="M195.208,-22.8771C179.8,-28.0583 162.371,-33.9196 148.224,-38.6768"/>
<polygon fill="midnightblue" stroke="midnightblue" points="196.623,-26.0939 204.985,-19.589 194.391,-19.4591 196.623,-26.0939"/>
</g>
</g>
</svg>
