<?xml version="1.0" encoding="UTF-8" standalone="no"?>
<!DOCTYPE svg PUBLIC "-//W3C//DTD SVG 1.1//EN"
 "http://www.w3.org/Graphics/SVG/1.1/DTD/svg11.dtd">
<!-- Generated by graphviz version 2.38.0 (20140413.2041)
 -->
<!-- Title: ValueImpl::readString Pages: 1 -->
<svg width="441pt" height="39pt"
 viewBox="0.00 0.00 441.00 39.00" xmlns="http://www.w3.org/2000/svg" xmlns:xlink="http://www.w3.org/1999/xlink">
<g id="graph0" class="graph" transform="scale(1 1) rotate(0) translate(4 35)">
<title>ValueImpl::readString</title>
<polygon fill="white" stroke="none" points="-4,4 -4,-35 437,-35 437,4 -4,4"/>
<!-- Node1 -->
<g id="node1" class="node"><title>Node1</title>
<g id="a_node1"><a xlink:title=" ">
<polygon fill="#bfbfbf" stroke="black" points="323,-6 323,-25 433,-25 433,-6 323,-6"/>
<text text-anchor="middle" x="378" y="-13" font-family="Helvetica,sans-Serif" font-size="10.00">ValueImpl::readString</text>
</a>
</g>
</g>
<!-- Node2 -->
<g id="node2" class="node"><title>Node2</title>
<g id="a_node2"><a xlink:href="namespaceanonymous__namespace_02_value_tests_8cpp_03.html#a70d89173035d943ef6c7b20f0aa017a7" target="_top" xlink:title="Tests all functionality on stacked Values.">
<polygon fill="white" stroke="black" points="140,-0.5 140,-30.5 287,-30.5 287,-0.5 140,-0.5"/>
<text text-anchor="start" x="148" y="-18.5" font-family="Helvetica,sans-Serif" font-size="10.00">anonymous_namespace</text>
<text text-anchor="middle" x="213.5" y="-7.5" font-family="Helvetica,sans-Serif" font-size="10.00">{ValueTests::cpp}::stackTests</text>
</a>
</g>
</g>
<!-- Node1&#45;&gt;Node2 -->
<g id="edge1" class="edge"><title>Node1&#45;&gt;Node2</title>
<path fill="none" stroke="midnightblue" d="M312.784,-15.5C304.374,-15.5 295.71,-15.5 287.173,-15.5"/>
<polygon fill="midnightblue" stroke="midnightblue" points="312.89,-19.0001 322.89,-15.5 312.89,-12.0001 312.89,-19.0001"/>
</g>
<!-- Node3 -->
<g id="node3" class="node"><title>Node3</title>
<g id="a_node3"><a xlink:href="class_value_tests.html#a3f7ac17dd7b66fb9a9d1ad00b6389301" target="_top" xlink:title=" ">
<polygon fill="white" stroke="black" points="0,-6 0,-25 104,-25 104,-6 0,-6"/>
<text text-anchor="middle" x="52" y="-13" font-family="Helvetica,sans-Serif" font-size="10.00">ValueTests::runTest</text>
</a>
</g>
</g>
<!-- Node2&#45;&gt;Node3 -->
<g id="edge2" class="edge"><title>Node2&#45;&gt;Node3</title>
<path fill="none" stroke="midnightblue" d="M129.604,-15.5C120.958,-15.5 112.362,-15.5 104.223,-15.5"/>
<polygon fill="midnightblue" stroke="midnightblue" points="129.751,-19.0001 139.751,-15.5 129.751,-12.0001 129.751,-19.0001"/>
</g>
</g>
</svg>
