<?xml version="1.0" encoding="UTF-8" standalone="no"?>
<!DOCTYPE svg PUBLIC "-//W3C//DTD SVG 1.1//EN"
 "http://www.w3.org/Graphics/SVG/1.1/DTD/svg11.dtd">
<!-- Generated by graphviz version 2.38.0 (20140413.2041)
 -->
<!-- Title: Thread::enqueue_ Pages: 1 -->
<svg width="797pt" height="180pt"
 viewBox="0.00 0.00 797.00 180.00" xmlns="http://www.w3.org/2000/svg" xmlns:xlink="http://www.w3.org/1999/xlink">
<g id="graph0" class="graph" transform="scale(1 1) rotate(0) translate(4 176)">
<title>Thread::enqueue_</title>
<polygon fill="white" stroke="none" points="-4,4 -4,-176 793,-176 793,4 -4,4"/>
<!-- Node1 -->
<g id="node1" class="node"><title>Node1</title>
<g id="a_node1"><a xlink:title="push the functor in the queue">
<polygon fill="#bfbfbf" stroke="black" points="695,-38.5 695,-57.5 789,-57.5 789,-38.5 695,-38.5"/>
<text text-anchor="middle" x="742" y="-45.5" font-family="Helvetica,sans-Serif" font-size="10.00">Thread::enqueue_</text>
</a>
</g>
</g>
<!-- Node2 -->
<g id="node2" class="node"><title>Node2</title>
<g id="a_node2"><a xlink:href="class_thread.html#abf7db5b09bd25b345e80577f71321ee9" target="_top" xlink:title="The code that will be enqued in the threads task queue.">
<polygon fill="white" stroke="black" points="570,-38.5 570,-57.5 659,-57.5 659,-38.5 570,-38.5"/>
<text text-anchor="middle" x="614.5" y="-45.5" font-family="Helvetica,sans-Serif" font-size="10.00">Thread::enqueue</text>
</a>
</g>
</g>
<!-- Node1&#45;&gt;Node2 -->
<g id="edge1" class="edge"><title>Node1&#45;&gt;Node2</title>
<path fill="none" stroke="midnightblue" d="M684.905,-48C676.219,-48 667.362,-48 659.009,-48"/>
<polygon fill="midnightblue" stroke="midnightblue" points="684.981,-51.5001 694.981,-48 684.981,-44.5001 684.981,-51.5001"/>
</g>
<!-- Node3 -->
<g id="node3" class="node"><title>Node3</title>
<g id="a_node3"><a xlink:href="class_edit.html#a3ced1bcf14de542e25d512991bcfed2f" target="_top" xlink:title=" ">
<polygon fill="white" stroke="black" points="464.5,-76.5 464.5,-95.5 520.5,-95.5 520.5,-76.5 464.5,-76.5"/>
<text text-anchor="middle" x="492.5" y="-83.5" font-family="Helvetica,sans-Serif" font-size="10.00">Edit::add</text>
</a>
</g>
</g>
<!-- Node2&#45;&gt;Node3 -->
<g id="edge2" class="edge"><title>Node2&#45;&gt;Node3</title>
<path fill="none" stroke="midnightblue" d="M573.4,-60.6982C556.154,-66.1597 536.433,-72.4046 520.899,-77.3237"/>
<polygon fill="midnightblue" stroke="midnightblue" points="574.742,-63.9447 583.219,-57.589 572.629,-57.2713 574.742,-63.9447"/>
</g>
<!-- Node11 -->
<g id="node11" class="node"><title>Node11</title>
<g id="a_node11"><a xlink:href="main_8cpp.html#a6e6bef72e348d49296a2aa278ce80ca6" target="_top" xlink:title="Thread&#45;Test&#45;Button event handler.">
<polygon fill="white" stroke="black" points="293,-38.5 293,-57.5 403,-57.5 403,-38.5 293,-38.5"/>
<text text-anchor="middle" x="348" y="-45.5" font-family="Helvetica,sans-Serif" font-size="10.00">OnThreadTestClicked</text>
</a>
</g>
</g>
<!-- Node2&#45;&gt;Node11 -->
<g id="edge16" class="edge"><title>Node2&#45;&gt;Node11</title>
<path fill="none" stroke="midnightblue" d="M559.54,-48C513.949,-48 448.961,-48 403.279,-48"/>
<polygon fill="midnightblue" stroke="midnightblue" points="559.823,-51.5001 569.823,-48 559.823,-44.5001 559.823,-51.5001"/>
</g>
<!-- Node14 -->
<g id="node14" class="node"><title>Node14</title>
<g id="a_node14"><a xlink:href="main_8cpp.html#abdf0523e10fae27868b24d21a841e926" target="_top" xlink:title="All the magic is here :&#45;)">
<polygon fill="white" stroke="black" points="451,-0.5 451,-19.5 534,-19.5 534,-0.5 451,-0.5"/>
<text text-anchor="middle" x="492.5" y="-7.5" font-family="Helvetica,sans-Serif" font-size="10.00">OnStartClicked</text>
</a>
</g>
</g>
<!-- Node2&#45;&gt;Node14 -->
<g id="edge14" class="edge"><title>Node2&#45;&gt;Node14</title>
<path fill="none" stroke="midnightblue" d="M573.457,-35.3196C557.243,-30.1852 538.834,-24.3559 523.771,-19.5859"/>
<polygon fill="midnightblue" stroke="midnightblue" points="572.629,-38.7287 583.219,-38.411 574.742,-32.0553 572.629,-38.7287"/>
</g>
<!-- Node4 -->
<g id="node4" class="node"><title>Node4</title>
<g id="a_node4"><a xlink:href="output_8hpp.html#ad715e61f7587d83c205d24cfc114282a" target="_top" xlink:title=" ">
<polygon fill="white" stroke="black" points="329.5,-114.5 329.5,-133.5 366.5,-133.5 366.5,-114.5 329.5,-114.5"/>
<text text-anchor="middle" x="348" y="-121.5" font-family="Helvetica,sans-Serif" font-size="10.00">flush</text>
</a>
</g>
</g>
<!-- Node3&#45;&gt;Node4 -->
<g id="edge3" class="edge"><title>Node3&#45;&gt;Node4</title>
<path fill="none" stroke="midnightblue" d="M454.409,-95.891C426.11,-103.437 388.394,-113.495 366.596,-119.308"/>
<polygon fill="midnightblue" stroke="midnightblue" points="455.601,-99.1955 464.361,-93.237 453.797,-92.4318 455.601,-99.1955"/>
</g>
<!-- Node8 -->
<g id="node8" class="node"><title>Node8</title>
<g id="a_node8"><a xlink:href="main_8cpp.html#a1870be22060f25a2595afa09934e9784" target="_top" xlink:title=" ">
<polygon fill="white" stroke="black" points="297.5,-76.5 297.5,-95.5 398.5,-95.5 398.5,-76.5 297.5,-76.5"/>
<text text-anchor="middle" x="348" y="-83.5" font-family="Helvetica,sans-Serif" font-size="10.00">OnStartTestClicked</text>
</a>
</g>
</g>
<!-- Node3&#45;&gt;Node8 -->
<g id="edge7" class="edge"><title>Node3&#45;&gt;Node8</title>
<path fill="none" stroke="midnightblue" d="M454.25,-86C437.229,-86 416.826,-86 398.535,-86"/>
<polygon fill="midnightblue" stroke="midnightblue" points="454.361,-89.5001 464.361,-86 454.361,-82.5001 454.361,-89.5001"/>
</g>
<!-- Node3&#45;&gt;Node11 -->
<g id="edge10" class="edge"><title>Node3&#45;&gt;Node11</title>
<path fill="none" stroke="midnightblue" d="M454.584,-76.1558C433.04,-70.4107 405.992,-63.1978 384.666,-57.5109"/>
<polygon fill="midnightblue" stroke="midnightblue" points="453.797,-79.5682 464.361,-78.763 455.601,-72.8045 453.797,-79.5682"/>
</g>
<!-- Node12 -->
<g id="node12" class="node"><title>Node12</title>
<g id="a_node12"><a xlink:href="struct_thread_1_1_impl.html#a0164f5b95922ac969d1d81914e5d5eb9" target="_top" xlink:title="The normally used processing loop of a background thread.">
<polygon fill="white" stroke="black" points="281,-152.5 281,-171.5 415,-171.5 415,-152.5 281,-152.5"/>
<text text-anchor="middle" x="348" y="-159.5" font-family="Helvetica,sans-Serif" font-size="10.00">Thread::Impl::standardLoop</text>
</a>
</g>
</g>
<!-- Node3&#45;&gt;Node12 -->
<g id="edge12" class="edge"><title>Node3&#45;&gt;Node12</title>
<path fill="none" stroke="midnightblue" d="M473.099,-102.72C458.336,-115.356 436.583,-132.298 415,-143 407.415,-146.761 398.961,-149.897 390.703,-152.466"/>
<polygon fill="midnightblue" stroke="midnightblue" points="475.715,-105.081 480.929,-95.8575 471.101,-99.8167 475.715,-105.081"/>
</g>
<!-- Node5 -->
<g id="node5" class="node"><title>Node5</title>
<g id="a_node5"><a xlink:href="classoutputbuf.html#ae4bacbf184222fca04c7e3f09309e1c2" target="_top" xlink:title=" ">
<polygon fill="white" stroke="black" points="144,-114.5 144,-133.5 245,-133.5 245,-114.5 144,-114.5"/>
<text text-anchor="middle" x="194.5" y="-121.5" font-family="Helvetica,sans-Serif" font-size="10.00">outputbuf::flushMsg</text>
</a>
</g>
</g>
<!-- Node4&#45;&gt;Node5 -->
<g id="edge4" class="edge"><title>Node4&#45;&gt;Node5</title>
<path fill="none" stroke="midnightblue" d="M319.308,-124C298.608,-124 269.75,-124 245.103,-124"/>
<polygon fill="midnightblue" stroke="midnightblue" points="319.325,-127.5 329.325,-124 319.324,-120.5 319.325,-127.5"/>
</g>
<!-- Node6 -->
<g id="node6" class="node"><title>Node6</title>
<g id="a_node6"><a xlink:href="classoutputbuf.html#a7525670600d2f14b79000875633aa6d8" target="_top" xlink:title=" ">
<polygon fill="white" stroke="black" points="6,-95.5 6,-114.5 102,-114.5 102,-95.5 6,-95.5"/>
<text text-anchor="middle" x="54" y="-102.5" font-family="Helvetica,sans-Serif" font-size="10.00">outputbuf::overflow</text>
</a>
</g>
</g>
<!-- Node5&#45;&gt;Node6 -->
<g id="edge5" class="edge"><title>Node5&#45;&gt;Node6</title>
<path fill="none" stroke="midnightblue" d="M133.918,-115.826C123.387,-114.382 112.551,-112.895 102.411,-111.504"/>
<polygon fill="midnightblue" stroke="midnightblue" points="133.507,-119.303 143.89,-117.194 134.458,-112.368 133.507,-119.303"/>
</g>
<!-- Node7 -->
<g id="node7" class="node"><title>Node7</title>
<g id="a_node7"><a xlink:href="classoutputbuf.html#ab37c9e3806825271abd4f04d0f045e54" target="_top" xlink:title=" ">
<polygon fill="white" stroke="black" points="0,-133.5 0,-152.5 108,-152.5 108,-133.5 0,-133.5"/>
<text text-anchor="middle" x="54" y="-140.5" font-family="Helvetica,sans-Serif" font-size="10.00">outputbuf::~outputbuf</text>
</a>
</g>
</g>
<!-- Node5&#45;&gt;Node7 -->
<g id="edge6" class="edge"><title>Node5&#45;&gt;Node7</title>
<path fill="none" stroke="midnightblue" d="M133.907,-132.175C125.296,-133.357 116.482,-134.566 108.011,-135.728"/>
<polygon fill="midnightblue" stroke="midnightblue" points="134.458,-135.632 143.89,-130.806 133.507,-128.697 134.458,-135.632"/>
</g>
<!-- Node9 -->
<g id="node9" class="node"><title>Node9</title>
<g id="a_node9"><a xlink:href="main_8cpp.html#a30a1e3b0304f1b083637664cbda94e72" target="_top" xlink:title="The declaration of the main message processing function.">
<polygon fill="white" stroke="black" points="166,-38.5 166,-57.5 223,-57.5 223,-38.5 166,-38.5"/>
<text text-anchor="middle" x="194.5" y="-45.5" font-family="Helvetica,sans-Serif" font-size="10.00">WndProc</text>
</a>
</g>
</g>
<!-- Node8&#45;&gt;Node9 -->
<g id="edge8" class="edge"><title>Node8&#45;&gt;Node9</title>
<path fill="none" stroke="midnightblue" d="M298.759,-73.9C273.822,-67.6451 244.282,-60.2357 223.199,-54.9477"/>
<polygon fill="midnightblue" stroke="midnightblue" points="298.219,-77.3729 308.77,-76.411 299.922,-70.5832 298.219,-77.3729"/>
</g>
<!-- Node10 -->
<g id="node10" class="node"><title>Node10</title>
<g id="a_node10"><a xlink:href="main_8cpp.html#a946cd7d17bf6760d82ded70909de9a6d" target="_top" xlink:title="The beginning of everything.">
<polygon fill="white" stroke="black" points="26.5,-38.5 26.5,-57.5 81.5,-57.5 81.5,-38.5 26.5,-38.5"/>
<text text-anchor="middle" x="54" y="-45.5" font-family="Helvetica,sans-Serif" font-size="10.00">WinMain</text>
</a>
</g>
</g>
<!-- Node9&#45;&gt;Node10 -->
<g id="edge9" class="edge"><title>Node9&#45;&gt;Node10</title>
<path fill="none" stroke="midnightblue" d="M155.526,-48C132.114,-48 102.665,-48 81.7055,-48"/>
<polygon fill="midnightblue" stroke="midnightblue" points="155.805,-51.5001 165.805,-48 155.805,-44.5001 155.805,-51.5001"/>
</g>
<!-- Node11&#45;&gt;Node9 -->
<g id="edge11" class="edge"><title>Node11&#45;&gt;Node9</title>
<path fill="none" stroke="midnightblue" d="M282.624,-48C261.78,-48 239.761,-48 223.074,-48"/>
<polygon fill="midnightblue" stroke="midnightblue" points="282.733,-51.5001 292.733,-48 282.733,-44.5001 282.733,-51.5001"/>
</g>
<!-- Node13 -->
<g id="node13" class="node"><title>Node13</title>
<g id="a_node13"><a xlink:href="class_thread.html#a1f53ee62bd30a7924186ef26150ce262" target="_top" xlink:title="Starts the Thread with Thread::Impl::standardLoop.">
<polygon fill="white" stroke="black" points="159,-152.5 159,-171.5 230,-171.5 230,-152.5 159,-152.5"/>
<text text-anchor="middle" x="194.5" y="-159.5" font-family="Helvetica,sans-Serif" font-size="10.00">Thread::start</text>
</a>
</g>
</g>
<!-- Node12&#45;&gt;Node13 -->
<g id="edge13" class="edge"><title>Node12&#45;&gt;Node13</title>
<path fill="none" stroke="midnightblue" d="M270.659,-162C256.439,-162 242.245,-162 230.085,-162"/>
<polygon fill="midnightblue" stroke="midnightblue" points="270.991,-165.5 280.991,-162 270.991,-158.5 270.991,-165.5"/>
</g>
<!-- Node14&#45;&gt;Node9 -->
<g id="edge15" class="edge"><title>Node14&#45;&gt;Node9</title>
<path fill="none" stroke="midnightblue" d="M440.8,-12.7415C398.023,-15.4927 335.263,-20.5577 281,-29 261.467,-32.0389 239.724,-36.891 223.053,-40.9311"/>
<polygon fill="midnightblue" stroke="midnightblue" points="441.195,-16.2238 450.957,-12.1076 440.759,-9.23736 441.195,-16.2238"/>
</g>
</g>
</svg>
