<?xml version="1.0" encoding="UTF-8" standalone="no"?>
<!DOCTYPE svg PUBLIC "-//W3C//DTD SVG 1.1//EN"
 "http://www.w3.org/Graphics/SVG/1.1/DTD/svg11.dtd">
<!-- Generated by graphviz version 2.38.0 (20140413.2041)
 -->
<!-- Title: Button Pages: 1 -->
<!--zoomable 301 -->
<svg id="main" version="1.1" xmlns="http://www.w3.org/2000/svg" xmlns:xlink="http://www.w3.org/1999/xlink" xml:space="preserve" onload="init(evt)">
<style type="text/css"><![CDATA[
.edge:hover path { stroke: red; }
.edge:hover polygon { stroke: red; fill: red; }
]]></style>
<script type="text/javascript"><![CDATA[
var edges = document.getElementsByTagName('g');
if (edges && edges.length) {
  for (var i=0;i<edges.length;i++) {
    if (edges[i].id.substr(0,4)=='edge') {
      edges[i].setAttribute('class','edge');
    }
  }
}
]]></script>
        <defs>
                <circle id="rim" cx="0" cy="0" r="7"/>
                <circle id="rim2" cx="0" cy="0" r="3.5"/>
                <g id="zoomPlus">
                        <use xlink:href="#rim" fill="#404040">
                                <set attributeName="fill" to="#808080" begin="zoomplus.mouseover" end="zoomplus.mouseout"/>
                        </use>
                        <path d="M-4,0h8M0,-4v8" fill="none" stroke="white" stroke-width="1.5" pointer-events="none"/>
                </g>
                <g id="zoomMin">
                        <use xlink:href="#rim" fill="#404040">
                                <set attributeName="fill" to="#808080" begin="zoomminus.mouseover" end="zoomminus.mouseout"/>
                        </use>
                        <path d="M-4,0h8" fill="none" stroke="white" stroke-width="1.5" pointer-events="none"/>
                </g>
                <g id="dirArrow">
                        <path fill="none" stroke="white" stroke-width="1.5" d="M0,-3.0v7 M-2.5,-0.5L0,-3.0L2.5,-0.5"/>
                </g>
               <g id="resetDef">
                       <use xlink:href="#rim2" fill="#404040">
                               <set attributeName="fill" to="#808080" begin="reset.mouseover" end="reset.mouseout"/>
                       </use>
               </g>
        </defs>

<script type="text/javascript">
var viewWidth = 880;
var viewHeight = 301;
var sectionId = 'dynsection-1';
</script>
<script xlink:href="svgpan.js"/>
<svg id="graph" class="graph">
<g id="viewport">
<title>Button</title>
<polygon fill="white" stroke="none" points="-4,4 -4,-296.5 876,-296.5 876,4 -4,4"/>
<!-- Node1 -->
<g id="node1" class="node"><title>Node1</title>
<g id="a_node1"><a xlink:title=" ">
<polygon fill="#bfbfbf" stroke="black" points="827,-79 827,-98 872,-98 872,-79 827,-79"/>
<text text-anchor="middle" x="849.5" y="-86" font-family="Helvetica,sans-Serif" font-size="10.00">Button</text>
</a>
</g>
</g>
<!-- Node2 -->
<g id="node2" class="node"><title>Node2</title>
<g id="a_node2"><a xlink:href="class_control.html" target="_top" xlink:title=" ">
<polygon fill="white" stroke="black" points="648.5,-180 648.5,-199 695.5,-199 695.5,-180 648.5,-180"/>
<text text-anchor="middle" x="672" y="-187" font-family="Helvetica,sans-Serif" font-size="10.00">Control</text>
</a>
</g>
</g>
<!-- Node2&#45;&gt;Node1 -->
<g id="edge1" class="edge"><title>Node2&#45;&gt;Node1</title>
<path fill="none" stroke="midnightblue" d="M702.007,-175.25C729.946,-161.218 773.135,-138.718 809,-116.5 818.147,-110.834 828.022,-103.834 835.61,-98.2503"/>
<polygon fill="midnightblue" stroke="midnightblue" points="700.182,-172.249 692.797,-179.846 703.307,-178.512 700.182,-172.249"/>
</g>
<!-- Node3 -->
<g id="node3" class="node"><title>Node3</title>
<g id="a_node3"><a xlink:title=" ">
<polygon fill="white" stroke="#bfbfbf" points="403,-261.5 403,-291.5 504,-291.5 504,-261.5 403,-261.5"/>
<text text-anchor="start" x="411" y="-279.5" font-family="Helvetica,sans-Serif" font-size="10.00">unique_ptr&lt; Control</text>
<text text-anchor="middle" x="453.5" y="-268.5" font-family="Helvetica,sans-Serif" font-size="10.00">::Impl &gt;</text>
</a>
</g>
</g>
<!-- Node3&#45;&gt;Node2 -->
<g id="edge2" class="edge"><title>Node3&#45;&gt;Node2</title>
<path fill="none" stroke="#9a32cd" stroke-dasharray="5,2" d="M506.646,-258.016C512.832,-255.821 519.057,-253.611 525,-251.5 551.228,-242.182 558.269,-241.112 584,-230.5 607.926,-220.632 634.773,-207.683 652.232,-199.002"/>
<polygon fill="#9a32cd" stroke="#9a32cd" points="505.257,-254.795 497.003,-261.437 507.597,-261.392 505.257,-254.795"/>
<text text-anchor="middle" x="563.5" y="-248.5" font-family="Helvetica,sans-Serif" font-size="10.00"> pImpl_</text>
</g>
<!-- Node4 -->
<g id="node4" class="node"><title>Node4</title>
<g id="a_node4"><a xlink:href="struct_property_r_w.html" target="_top" xlink:title=" ">
<polygon fill="white" stroke="black" points="394.5,-223 394.5,-242 512.5,-242 512.5,-223 394.5,-223"/>
<text text-anchor="middle" x="453.5" y="-230" font-family="Helvetica,sans-Serif" font-size="10.00">PropertyRW&lt; HWND &gt;</text>
</a>
</g>
</g>
<!-- Node4&#45;&gt;Node2 -->
<g id="edge3" class="edge"><title>Node4&#45;&gt;Node2</title>
<path fill="none" stroke="#9a32cd" stroke-dasharray="5,2" d="M512.402,-221C557.02,-212.138 616.321,-200.36 648.278,-194.013"/>
<polygon fill="#9a32cd" stroke="#9a32cd" points="511.675,-217.576 502.548,-222.957 513.039,-224.442 511.675,-217.576"/>
<text text-anchor="middle" x="563.5" y="-218.5" font-family="Helvetica,sans-Serif" font-size="10.00"> hWnd</text>
</g>
<!-- Node5 -->
<g id="node5" class="node"><title>Node5</title>
<g id="a_node5"><a xlink:href="struct_property_r.html" target="_top" xlink:title=" ">
<polygon fill="white" stroke="black" points="196,-272 196,-291 304,-291 304,-272 196,-272"/>
<text text-anchor="middle" x="250" y="-279" font-family="Helvetica,sans-Serif" font-size="10.00">PropertyR&lt; HWND &gt;</text>
</a>
</g>
</g>
<!-- Node5&#45;&gt;Node4 -->
<g id="edge4" class="edge"><title>Node5&#45;&gt;Node4</title>
<path fill="none" stroke="midnightblue" d="M300.274,-269.518C335.038,-261.064 380.983,-249.891 413.27,-242.04"/>
<polygon fill="midnightblue" stroke="midnightblue" points="299.219,-266.172 290.33,-271.936 300.873,-272.974 299.219,-266.172"/>
</g>
<!-- Node6 -->
<g id="node6" class="node"><title>Node6</title>
<g id="a_node6"><a xlink:title=" ">
<polygon fill="white" stroke="#bfbfbf" points="0,-272 0,-291 118,-291 118,-272 0,-272"/>
<text text-anchor="middle" x="59" y="-279" font-family="Helvetica,sans-Serif" font-size="10.00">function&lt; HWND(void)&gt;</text>
</a>
</g>
</g>
<!-- Node6&#45;&gt;Node5 -->
<g id="edge5" class="edge"><title>Node6&#45;&gt;Node5</title>
<path fill="none" stroke="#9a32cd" stroke-dasharray="5,2" d="M128.288,-281.5C150.505,-281.5 174.819,-281.5 195.767,-281.5"/>
<polygon fill="#9a32cd" stroke="#9a32cd" points="128.248,-278 118.248,-281.5 128.248,-285 128.248,-278"/>
<text text-anchor="middle" x="153" y="-284.5" font-family="Helvetica,sans-Serif" font-size="10.00"> getter_</text>
</g>
<!-- Node7 -->
<g id="node7" class="node"><title>Node7</title>
<g id="a_node7"><a xlink:title=" ">
<polygon fill="white" stroke="#bfbfbf" points="195.5,-222.5 195.5,-252.5 304.5,-252.5 304.5,-222.5 195.5,-222.5"/>
<text text-anchor="start" x="203.5" y="-240.5" font-family="Helvetica,sans-Serif" font-size="10.00">function&lt; void(HWND</text>
<text text-anchor="middle" x="250" y="-229.5" font-family="Helvetica,sans-Serif" font-size="10.00"> newValue)&gt;</text>
</a>
</g>
</g>
<!-- Node7&#45;&gt;Node4 -->
<g id="edge6" class="edge"><title>Node7&#45;&gt;Node4</title>
<path fill="none" stroke="#9a32cd" stroke-dasharray="5,2" d="M315.018,-235.911C340.449,-235.28 369.497,-234.56 394.32,-233.944"/>
<polygon fill="#9a32cd" stroke="#9a32cd" points="314.644,-232.42 304.734,-236.167 314.817,-239.417 314.644,-232.42"/>
<text text-anchor="middle" x="347" y="-238.5" font-family="Helvetica,sans-Serif" font-size="10.00"> setter_</text>
</g>
<!-- Node8 -->
<g id="node8" class="node"><title>Node8</title>
<g id="a_node8"><a xlink:href="struct_property_r_w.html" target="_top" xlink:title=" ">
<polygon fill="white" stroke="black" points="397.5,-180 397.5,-199 509.5,-199 509.5,-180 397.5,-180"/>
<text text-anchor="middle" x="453.5" y="-187" font-family="Helvetica,sans-Serif" font-size="10.00">PropertyRW&lt; string &gt;</text>
</a>
</g>
</g>
<!-- Node8&#45;&gt;Node2 -->
<g id="edge7" class="edge"><title>Node8&#45;&gt;Node2</title>
<path fill="none" stroke="#9a32cd" stroke-dasharray="5,2" d="M519.956,-189.5C563.596,-189.5 618.295,-189.5 648.444,-189.5"/>
<polygon fill="#9a32cd" stroke="#9a32cd" points="519.692,-186 509.692,-189.5 519.692,-193 519.692,-186"/>
<text text-anchor="middle" x="563.5" y="-192.5" font-family="Helvetica,sans-Serif" font-size="10.00"> Caption</text>
</g>
<!-- Node9 -->
<g id="node9" class="node"><title>Node9</title>
<g id="a_node9"><a xlink:href="struct_property_r.html" target="_top" xlink:title=" ">
<polygon fill="white" stroke="black" points="199,-184 199,-203 301,-203 301,-184 199,-184"/>
<text text-anchor="middle" x="250" y="-191" font-family="Helvetica,sans-Serif" font-size="10.00">PropertyR&lt; string &gt;</text>
</a>
</g>
</g>
<!-- Node9&#45;&gt;Node8 -->
<g id="edge8" class="edge"><title>Node9&#45;&gt;Node8</title>
<path fill="none" stroke="midnightblue" d="M311.286,-192.303C338.61,-191.761 370.697,-191.124 397.373,-190.594"/>
<polygon fill="midnightblue" stroke="midnightblue" points="310.996,-188.808 301.068,-192.506 311.135,-195.807 310.996,-188.808"/>
</g>
<!-- Node10 -->
<g id="node10" class="node"><title>Node10</title>
<g id="a_node10"><a xlink:title=" ">
<polygon fill="white" stroke="#bfbfbf" points="3,-184 3,-203 115,-203 115,-184 3,-184"/>
<text text-anchor="middle" x="59" y="-191" font-family="Helvetica,sans-Serif" font-size="10.00">function&lt; string(void)&gt;</text>
</a>
</g>
</g>
<!-- Node10&#45;&gt;Node9 -->
<g id="edge9" class="edge"><title>Node10&#45;&gt;Node9</title>
<path fill="none" stroke="#9a32cd" stroke-dasharray="5,2" d="M125.317,-193.5C149.434,-193.5 176.363,-193.5 198.92,-193.5"/>
<polygon fill="#9a32cd" stroke="#9a32cd" points="125.175,-190 115.175,-193.5 125.175,-197 125.175,-190"/>
<text text-anchor="middle" x="153" y="-196.5" font-family="Helvetica,sans-Serif" font-size="10.00"> getter_</text>
</g>
<!-- Node11 -->
<g id="node11" class="node"><title>Node11</title>
<g id="a_node11"><a xlink:title=" ">
<polygon fill="white" stroke="#bfbfbf" points="198.5,-134.5 198.5,-164.5 301.5,-164.5 301.5,-134.5 198.5,-134.5"/>
<text text-anchor="start" x="206.5" y="-152.5" font-family="Helvetica,sans-Serif" font-size="10.00">function&lt; void(string</text>
<text text-anchor="middle" x="250" y="-141.5" font-family="Helvetica,sans-Serif" font-size="10.00"> newValue)&gt;</text>
</a>
</g>
</g>
<!-- Node11&#45;&gt;Node8 -->
<g id="edge10" class="edge"><title>Node11&#45;&gt;Node8</title>
<path fill="none" stroke="#9a32cd" stroke-dasharray="5,2" d="M311.43,-161.496C341.143,-167.394 376.459,-174.405 404.323,-179.936"/>
<polygon fill="#9a32cd" stroke="#9a32cd" points="312.077,-158.056 301.587,-159.542 310.714,-164.922 312.077,-158.056"/>
<text text-anchor="middle" x="347" y="-175.5" font-family="Helvetica,sans-Serif" font-size="10.00"> setter_</text>
</g>
<!-- Node12 -->
<g id="node12" class="node"><title>Node12</title>
<g id="a_node12"><a xlink:href="struct_control_1_1_control_manager.html" target="_top" xlink:title=" ">
<polygon fill="white" stroke="black" points="392.5,-104 392.5,-123 514.5,-123 514.5,-104 392.5,-104"/>
<text text-anchor="middle" x="453.5" y="-111" font-family="Helvetica,sans-Serif" font-size="10.00">Control::ControlManager</text>
</a>
</g>
</g>
<!-- Node12&#45;&gt;Node2 -->
<g id="edge11" class="edge"><title>Node12&#45;&gt;Node2</title>
<path fill="none" stroke="#9a32cd" stroke-dasharray="5,2" d="M491.604,-126.525C536.646,-142.336 611.182,-168.502 648.399,-181.566"/>
<polygon fill="#9a32cd" stroke="#9a32cd" points="492.515,-123.135 481.92,-123.125 490.196,-129.74 492.515,-123.135"/>
<text text-anchor="middle" x="563.5" y="-161.5" font-family="Helvetica,sans-Serif" font-size="10.00"> Manager</text>
</g>
<!-- Node19 -->
<g id="node19" class="node"><title>Node19</title>
<g id="a_node19"><a xlink:href="struct_control_1_1_control_manager_impl.html" target="_top" xlink:title=" ">
<polygon fill="white" stroke="black" points="602,-98.5 602,-128.5 742,-128.5 742,-98.5 602,-98.5"/>
<text text-anchor="start" x="610" y="-116.5" font-family="Helvetica,sans-Serif" font-size="10.00">Control::ControlManagerImpl</text>
<text text-anchor="middle" x="672" y="-105.5" font-family="Helvetica,sans-Serif" font-size="10.00">&lt; Button &gt;</text>
</a>
</g>
</g>
<!-- Node12&#45;&gt;Node19 -->
<g id="edge19" class="edge"><title>Node12&#45;&gt;Node19</title>
<path fill="none" stroke="midnightblue" d="M524.545,-113.5C549.259,-113.5 577.021,-113.5 601.675,-113.5"/>
<polygon fill="midnightblue" stroke="midnightblue" points="524.52,-110 514.52,-113.5 524.52,-117 524.52,-110"/>
</g>
<!-- Node13 -->
<g id="node13" class="node"><title>Node13</title>
<g id="a_node13"><a xlink:title=" ">
<polygon fill="white" stroke="#bfbfbf" points="188,-85.5 188,-115.5 312,-115.5 312,-85.5 188,-85.5"/>
<text text-anchor="start" x="196" y="-103.5" font-family="Helvetica,sans-Serif" font-size="10.00">unique_ptr&lt; Control</text>
<text text-anchor="middle" x="250" y="-92.5" font-family="Helvetica,sans-Serif" font-size="10.00">::ControlManager::Impl &gt;</text>
</a>
</g>
</g>
<!-- Node13&#45;&gt;Node12 -->
<g id="edge12" class="edge"><title>Node13&#45;&gt;Node12</title>
<path fill="none" stroke="#9a32cd" stroke-dasharray="5,2" d="M322.042,-105.083C345.03,-106.566 370.283,-108.196 392.397,-109.622"/>
<polygon fill="#9a32cd" stroke="#9a32cd" points="322.208,-101.587 312.003,-104.436 321.757,-108.572 322.208,-101.587"/>
<text text-anchor="middle" x="347" y="-111.5" font-family="Helvetica,sans-Serif" font-size="10.00"> pImpl_</text>
</g>
<!-- Node14 -->
<g id="node14" class="node"><title>Node14</title>
<g id="a_node14"><a xlink:href="struct_property_r_w.html" target="_top" xlink:title=" ">
<polygon fill="white" stroke="black" points="615.5,-49.5 615.5,-79.5 728.5,-79.5 728.5,-49.5 615.5,-49.5"/>
<text text-anchor="start" x="623.5" y="-67.5" font-family="Helvetica,sans-Serif" font-size="10.00">PropertyRW&lt; function</text>
<text text-anchor="middle" x="672" y="-56.5" font-family="Helvetica,sans-Serif" font-size="10.00">&lt; void(Button *)&gt; &gt;</text>
</a>
</g>
</g>
<!-- Node14&#45;&gt;Node1 -->
<g id="edge13" class="edge"><title>Node14&#45;&gt;Node1</title>
<path fill="none" stroke="#9a32cd" stroke-dasharray="5,2" d="M738.713,-67.5431C761.148,-69.3101 786.298,-72.0994 809,-76.5 814.91,-77.6457 821.195,-79.3315 826.972,-81.0797"/>
<polygon fill="#9a32cd" stroke="#9a32cd" points="738.844,-64.0433 728.614,-66.801 738.331,-71.0245 738.844,-64.0433"/>
<text text-anchor="middle" x="784.5" y="-79.5" font-family="Helvetica,sans-Serif" font-size="10.00"> OnClicked</text>
</g>
<!-- Node15 -->
<g id="node15" class="node"><title>Node15</title>
<g id="a_node15"><a xlink:href="struct_property_r.html" target="_top" xlink:title=" ">
<polygon fill="white" stroke="black" points="402,-49.5 402,-79.5 505,-79.5 505,-49.5 402,-49.5"/>
<text text-anchor="start" x="410" y="-67.5" font-family="Helvetica,sans-Serif" font-size="10.00">PropertyR&lt; function</text>
<text text-anchor="middle" x="453.5" y="-56.5" font-family="Helvetica,sans-Serif" font-size="10.00">&lt; void(Button *)&gt; &gt;</text>
</a>
</g>
</g>
<!-- Node15&#45;&gt;Node14 -->
<g id="edge14" class="edge"><title>Node15&#45;&gt;Node14</title>
<path fill="none" stroke="midnightblue" d="M515.604,-64.5C546.903,-64.5 584.737,-64.5 615.237,-64.5"/>
<polygon fill="midnightblue" stroke="midnightblue" points="515.26,-61.0001 505.26,-64.5 515.26,-68.0001 515.26,-61.0001"/>
</g>
<!-- Node16 -->
<g id="node16" class="node"><title>Node16</title>
<g id="a_node16"><a xlink:title=" ">
<polygon fill="white" stroke="#bfbfbf" points="191,-36.5 191,-66.5 309,-66.5 309,-36.5 191,-36.5"/>
<text text-anchor="start" x="199" y="-54.5" font-family="Helvetica,sans-Serif" font-size="10.00">function&lt; function</text>
<text text-anchor="middle" x="250" y="-43.5" font-family="Helvetica,sans-Serif" font-size="10.00">&lt; void(Button *)&gt;(void)&gt;</text>
</a>
</g>
</g>
<!-- Node16&#45;&gt;Node15 -->
<g id="edge15" class="edge"><title>Node16&#45;&gt;Node15</title>
<path fill="none" stroke="#9a32cd" stroke-dasharray="5,2" d="M319.178,-55.8986C346.199,-57.6419 376.724,-59.6112 401.74,-61.2252"/>
<polygon fill="#9a32cd" stroke="#9a32cd" points="319.216,-52.3939 309.012,-55.2427 318.766,-59.3794 319.216,-52.3939"/>
<text text-anchor="middle" x="347" y="-62.5" font-family="Helvetica,sans-Serif" font-size="10.00"> getter_</text>
</g>
<!-- Node17 -->
<g id="node17" class="node"><title>Node17</title>
<g id="a_node17"><a xlink:title=" ">
<polygon fill="white" stroke="#bfbfbf" points="382,-0.5 382,-30.5 525,-30.5 525,-0.5 382,-0.5"/>
<text text-anchor="start" x="390" y="-18.5" font-family="Helvetica,sans-Serif" font-size="10.00">function&lt; void(function</text>
<text text-anchor="middle" x="453.5" y="-7.5" font-family="Helvetica,sans-Serif" font-size="10.00">&lt; void(Button *)&gt; newValue)&gt;</text>
</a>
</g>
</g>
<!-- Node17&#45;&gt;Node14 -->
<g id="edge16" class="edge"><title>Node17&#45;&gt;Node14</title>
<path fill="none" stroke="#9a32cd" stroke-dasharray="5,2" d="M531.008,-32.816C558.785,-39.1026 589.621,-46.0816 615.266,-51.8859"/>
<polygon fill="#9a32cd" stroke="#9a32cd" points="531.454,-29.3285 520.928,-30.5346 529.909,-36.1558 531.454,-29.3285"/>
<text text-anchor="middle" x="563.5" y="-47.5" font-family="Helvetica,sans-Serif" font-size="10.00"> setter_</text>
</g>
<!-- Node18 -->
<g id="node18" class="node"><title>Node18</title>
<g id="a_node18"><a xlink:title=" ">
<polygon fill="white" stroke="#bfbfbf" points="622.5,-0.5 622.5,-30.5 721.5,-30.5 721.5,-0.5 622.5,-0.5"/>
<text text-anchor="start" x="630.5" y="-18.5" font-family="Helvetica,sans-Serif" font-size="10.00">unique_ptr&lt; Button</text>
<text text-anchor="middle" x="672" y="-7.5" font-family="Helvetica,sans-Serif" font-size="10.00">::Impl &gt;</text>
</a>
</g>
</g>
<!-- Node18&#45;&gt;Node1 -->
<g id="edge17" class="edge"><title>Node18&#45;&gt;Node1</title>
<path fill="none" stroke="#9a32cd" stroke-dasharray="5,2" d="M731.75,-27.1829C756.502,-33.5039 785.06,-42.6997 809,-55.5 820.505,-61.6517 831.735,-71.5201 839.261,-78.8649"/>
<polygon fill="#9a32cd" stroke="#9a32cd" points="732.304,-23.7151 721.758,-24.7321 730.636,-30.5136 732.304,-23.7151"/>
<text text-anchor="middle" x="784.5" y="-58.5" font-family="Helvetica,sans-Serif" font-size="10.00"> pImpl_</text>
</g>
<!-- Node19&#45;&gt;Node1 -->
<g id="edge18" class="edge"><title>Node19&#45;&gt;Node1</title>
<path fill="none" stroke="#9a32cd" stroke-dasharray="5,2" d="M752.148,-102.225C779.586,-98.3169 808.156,-94.247 826.99,-91.5641"/>
<polygon fill="#9a32cd" stroke="#9a32cd" points="751.517,-98.7799 742.11,-103.655 752.504,-105.71 751.517,-98.7799"/>
<text text-anchor="middle" x="784.5" y="-104.5" font-family="Helvetica,sans-Serif" font-size="10.00"> Manager</text>
</g>
</g>
</svg>
        <g id="navigator" transform="translate(0 0)" fill="#404254">
                <rect fill="#f2f5e9" fill-opacity="0.5" stroke="#606060" stroke-width=".5" x="0" y="0" width="60" height="60"/>
                <use id="zoomplus" xlink:href="#zoomPlus" x="17" y="9" onmousedown="handleZoom(evt,'in')"/>
                <use id="zoomminus" xlink:href="#zoomMin" x="42" y="9" onmousedown="handleZoom(evt,'out')"/>
                <use id="reset" xlink:href="#resetDef" x="30" y="36" onmousedown="handleReset()"/>
                <g id="arrowUp" xlink:href="#dirArrow" transform="translate(30 24)" onmousedown="handlePan(0,-1)">
                  <use xlink:href="#rim" fill="#404040">
                        <set attributeName="fill" to="#808080" begin="arrowUp.mouseover" end="arrowUp.mouseout"/>
                  </use>
                  <path fill="none" stroke="white" stroke-width="1.5" d="M0,-3.0v7 M-2.5,-0.5L0,-3.0L2.5,-0.5"/>
                </g>
                <g id="arrowRight" xlink:href="#dirArrow" transform="rotate(90) translate(36 -43)" onmousedown="handlePan(1,0)">
                  <use xlink:href="#rim" fill="#404040">
                        <set attributeName="fill" to="#808080" begin="arrowRight.mouseover" end="arrowRight.mouseout"/>
                  </use>
                  <path fill="none" stroke="white" stroke-width="1.5" d="M0,-3.0v7 M-2.5,-0.5L0,-3.0L2.5,-0.5"/>
                </g>
                <g id="arrowDown" xlink:href="#dirArrow" transform="rotate(180) translate(-30 -48)" onmousedown="handlePan(0,1)">
                  <use xlink:href="#rim" fill="#404040">
                        <set attributeName="fill" to="#808080" begin="arrowDown.mouseover" end="arrowDown.mouseout"/>
                  </use>
                  <path fill="none" stroke="white" stroke-width="1.5" d="M0,-3.0v7 M-2.5,-0.5L0,-3.0L2.5,-0.5"/>
                </g>
                <g id="arrowLeft" xlink:href="#dirArrow" transform="rotate(270) translate(-36 17)" onmousedown="handlePan(-1,0)">
                  <use xlink:href="#rim" fill="#404040">
                        <set attributeName="fill" to="#808080" begin="arrowLeft.mouseover" end="arrowLeft.mouseout"/>
                  </use>
                  <path fill="none" stroke="white" stroke-width="1.5" d="M0,-3.0v7 M-2.5,-0.5L0,-3.0L2.5,-0.5"/>
                </g>
        </g>
        <svg viewBox="0 0 15 15" width="100%" height="30px" preserveAspectRatio="xMaxYMin meet">
         <g id="arrow_out" transform="scale(0.3 0.3)">
          <a xlink:href="class_button__coll__graph_org.svg" target="_base">
           <rect id="button" ry="5" rx="5" y="6" x="6" height="38" width="38"
                fill="#f2f5e9" fill-opacity="0.5" stroke="#606060" stroke-width="1.0"/>
           <path id="arrow"
             d="M 11.500037,31.436501 C 11.940474,20.09759 22.043105,11.32322 32.158766,21.979434 L 37.068811,17.246167 C 37.068811,17.246167 37.088388,32 37.088388,32 L 22.160133,31.978069 C 22.160133,31.978069 26.997745,27.140456 26.997745,27.140456 C 18.528582,18.264221 13.291696,25.230495 11.500037,31.436501 z"
             style="fill:#404040;"/>
          </a>
         </g>
        </svg>
</svg>
