<?xml version="1.0" encoding="UTF-8" standalone="no"?>
<!DOCTYPE svg PUBLIC "-//W3C//DTD SVG 1.1//EN"
 "http://www.w3.org/Graphics/SVG/1.1/DTD/svg11.dtd">
<!-- Generated by graphviz version 2.38.0 (20140413.2041)
 -->
<!-- Title: outputbuf::~outputbuf Pages: 1 -->
<svg width="646pt" height="28pt"
 viewBox="0.00 0.00 646.00 28.00" xmlns="http://www.w3.org/2000/svg" xmlns:xlink="http://www.w3.org/1999/xlink">
<g id="graph0" class="graph" transform="scale(1 1) rotate(0) translate(4 24)">
<title>outputbuf::~outputbuf</title>
<polygon fill="white" stroke="none" points="-4,4 -4,-24 642,-24 642,4 -4,4"/>
<!-- Node1 -->
<g id="node1" class="node"><title>Node1</title>
<g id="a_node1"><a xlink:title=" ">
<polygon fill="#bfbfbf" stroke="black" points="0,-0.5 0,-19.5 108,-19.5 108,-0.5 0,-0.5"/>
<text text-anchor="middle" x="54" y="-7.5" font-family="Helvetica,sans-Serif" font-size="10.00">outputbuf::~outputbuf</text>
</a>
</g>
</g>
<!-- Node2 -->
<g id="node2" class="node"><title>Node2</title>
<g id="a_node2"><a xlink:href="classoutputbuf.html#ae4bacbf184222fca04c7e3f09309e1c2" target="_top" xlink:title=" ">
<polygon fill="white" stroke="black" points="144,-0.5 144,-19.5 245,-19.5 245,-0.5 144,-0.5"/>
<text text-anchor="middle" x="194.5" y="-7.5" font-family="Helvetica,sans-Serif" font-size="10.00">outputbuf::flushMsg</text>
</a>
</g>
</g>
<!-- Node1&#45;&gt;Node2 -->
<g id="edge1" class="edge"><title>Node1&#45;&gt;Node2</title>
<path fill="none" stroke="midnightblue" d="M108.152,-10C116.504,-10 125.186,-10 133.676,-10"/>
<polygon fill="midnightblue" stroke="midnightblue" points="133.902,-13.5001 143.902,-10 133.902,-6.5001 133.902,-13.5001"/>
</g>
<!-- Node3 -->
<g id="node3" class="node"><title>Node3</title>
<g id="a_node3"><a xlink:href="output_8hpp.html#ad715e61f7587d83c205d24cfc114282a" target="_top" xlink:title=" ">
<polygon fill="white" stroke="black" points="281,-0.5 281,-19.5 318,-19.5 318,-0.5 281,-0.5"/>
<text text-anchor="middle" x="299.5" y="-7.5" font-family="Helvetica,sans-Serif" font-size="10.00">flush</text>
</a>
</g>
</g>
<!-- Node2&#45;&gt;Node3 -->
<g id="edge2" class="edge"><title>Node2&#45;&gt;Node3</title>
<path fill="none" stroke="midnightblue" d="M245.19,-10C253.961,-10 262.802,-10 270.694,-10"/>
<polygon fill="midnightblue" stroke="midnightblue" points="270.772,-13.5001 280.772,-10 270.772,-6.5001 270.772,-13.5001"/>
</g>
<!-- Node4 -->
<g id="node4" class="node"><title>Node4</title>
<g id="a_node4"><a xlink:href="class_edit.html#a3ced1bcf14de542e25d512991bcfed2f" target="_top" xlink:title=" ">
<polygon fill="white" stroke="black" points="354,-0.5 354,-19.5 410,-19.5 410,-0.5 354,-0.5"/>
<text text-anchor="middle" x="382" y="-7.5" font-family="Helvetica,sans-Serif" font-size="10.00">Edit::add</text>
</a>
</g>
</g>
<!-- Node3&#45;&gt;Node4 -->
<g id="edge3" class="edge"><title>Node3&#45;&gt;Node4</title>
<path fill="none" stroke="midnightblue" d="M318.366,-10C325.823,-10 334.784,-10 343.565,-10"/>
<polygon fill="midnightblue" stroke="midnightblue" points="343.69,-13.5001 353.69,-10 343.69,-6.5001 343.69,-13.5001"/>
</g>
<!-- Node5 -->
<g id="node5" class="node"><title>Node5</title>
<g id="a_node5"><a xlink:href="class_thread.html#adb11ad65376e640d84d47f0394f94f10" target="_top" xlink:title="The code that will be enqued in the threads task queue.">
<polygon fill="white" stroke="black" points="446,-0.5 446,-19.5 513,-19.5 513,-0.5 446,-0.5"/>
<text text-anchor="middle" x="479.5" y="-7.5" font-family="Helvetica,sans-Serif" font-size="10.00">Thread::call</text>
</a>
</g>
</g>
<!-- Node4&#45;&gt;Node5 -->
<g id="edge4" class="edge"><title>Node4&#45;&gt;Node5</title>
<path fill="none" stroke="midnightblue" d="M410.111,-10C418.117,-10 427.082,-10 435.818,-10"/>
<polygon fill="midnightblue" stroke="midnightblue" points="435.897,-13.5001 445.897,-10 435.897,-6.5001 435.897,-13.5001"/>
</g>
<!-- Node6 -->
<g id="node6" class="node"><title>Node6</title>
<g id="a_node6"><a xlink:href="class_thread.html#a1333a7179253857c1431b82e162272fd" target="_top" xlink:title=" ">
<polygon fill="white" stroke="black" points="549,-0.5 549,-19.5 638,-19.5 638,-0.5 549,-0.5"/>
<text text-anchor="middle" x="593.5" y="-7.5" font-family="Helvetica,sans-Serif" font-size="10.00">Thread::enqueue</text>
</a>
</g>
</g>
<!-- Node5&#45;&gt;Node6 -->
<g id="edge5" class="edge"><title>Node5&#45;&gt;Node6</title>
<path fill="none" stroke="midnightblue" d="M513.196,-10C521.178,-10 529.929,-10 538.612,-10"/>
<polygon fill="midnightblue" stroke="midnightblue" points="538.724,-13.5001 548.724,-10 538.724,-6.5001 538.724,-13.5001"/>
</g>
</g>
</svg>
