<?xml version="1.0" encoding="UTF-8" standalone="no"?>
<!DOCTYPE svg PUBLIC "-//W3C//DTD SVG 1.1//EN"
 "http://www.w3.org/Graphics/SVG/1.1/DTD/svg11.dtd">
<!-- Generated by graphviz version 2.38.0 (20140413.2041)
 -->
<!-- Title: Control::WndProc Pages: 1 -->
<svg width="311pt" height="66pt"
 viewBox="0.00 0.00 311.00 66.00" xmlns="http://www.w3.org/2000/svg" xmlns:xlink="http://www.w3.org/1999/xlink">
<g id="graph0" class="graph" transform="scale(1 1) rotate(0) translate(4 62)">
<title>Control::WndProc</title>
<polygon fill="white" stroke="none" points="-4,4 -4,-62 307,-62 307,4 -4,4"/>
<!-- Node1 -->
<g id="node1" class="node"><title>Node1</title>
<g id="a_node1"><a xlink:title=" ">
<polygon fill="#bfbfbf" stroke="black" points="209,-19.5 209,-38.5 303,-38.5 303,-19.5 209,-19.5"/>
<text text-anchor="middle" x="256" y="-26.5" font-family="Helvetica,sans-Serif" font-size="10.00">Control::WndProc</text>
</a>
</g>
</g>
<!-- Node2 -->
<g id="node2" class="node"><title>Node2</title>
<g id="a_node2"><a xlink:href="main_8cpp.html#a30a1e3b0304f1b083637664cbda94e72" target="_top" xlink:title="The declaration of the main message processing function.">
<polygon fill="white" stroke="black" points="116,-19.5 116,-38.5 173,-38.5 173,-19.5 116,-19.5"/>
<text text-anchor="middle" x="144.5" y="-26.5" font-family="Helvetica,sans-Serif" font-size="10.00">WndProc</text>
</a>
</g>
</g>
<!-- Node1&#45;&gt;Node2 -->
<g id="edge1" class="edge"><title>Node1&#45;&gt;Node2</title>
<path fill="none" stroke="midnightblue" d="M198.827,-29C189.897,-29 181.018,-29 173.14,-29"/>
<polygon fill="midnightblue" stroke="midnightblue" points="198.88,-32.5001 208.88,-29 198.879,-25.5001 198.88,-32.5001"/>
</g>
<!-- Node3 -->
<g id="node3" class="node"><title>Node3</title>
<g id="a_node3"><a xlink:href="main_8cpp.html#a946cd7d17bf6760d82ded70909de9a6d" target="_top" xlink:title="The beginning of everything.">
<polygon fill="white" stroke="black" points="12.5,-38.5 12.5,-57.5 67.5,-57.5 67.5,-38.5 12.5,-38.5"/>
<text text-anchor="middle" x="40" y="-45.5" font-family="Helvetica,sans-Serif" font-size="10.00">WinMain</text>
</a>
</g>
</g>
<!-- Node2&#45;&gt;Node3 -->
<g id="edge2" class="edge"><title>Node2&#45;&gt;Node3</title>
<path fill="none" stroke="midnightblue" d="M105.918,-35.9663C93.2409,-38.3163 79.3595,-40.8894 67.6986,-43.051"/>
<polygon fill="midnightblue" stroke="midnightblue" points="106.567,-39.4057 115.762,-34.1417 105.292,-32.523 106.567,-39.4057"/>
</g>
<!-- Node4 -->
<g id="node4" class="node"><title>Node4</title>
<g id="a_node4"><a xlink:href="class_edit.html#a2ba440c68b518eed09b872f343b9d01a" target="_top" xlink:title=" ">
<polygon fill="white" stroke="black" points="0,-0.5 0,-19.5 80,-19.5 80,-0.5 0,-0.5"/>
<text text-anchor="middle" x="40" y="-7.5" font-family="Helvetica,sans-Serif" font-size="10.00">Edit::WndProc</text>
</a>
</g>
</g>
<!-- Node2&#45;&gt;Node4 -->
<g id="edge3" class="edge"><title>Node2&#45;&gt;Node4</title>
<path fill="none" stroke="midnightblue" d="M105.912,-22.0325C97.5721,-20.4865 88.711,-18.844 80.304,-17.2856"/>
<polygon fill="midnightblue" stroke="midnightblue" points="105.292,-25.477 115.762,-23.8583 106.567,-18.5943 105.292,-25.477"/>
</g>
</g>
</svg>
