<?xml version="1.0" encoding="UTF-8" standalone="no"?>
<!DOCTYPE svg PUBLIC "-//W3C//DTD SVG 1.1//EN"
 "http://www.w3.org/Graphics/SVG/1.1/DTD/svg11.dtd">
<!-- Generated by graphviz version 2.38.0 (20140413.2041)
 -->
<!-- Title: Edit::WndProc Pages: 1 -->
<svg width="768pt" height="370pt"
 viewBox="0.00 0.00 768.00 370.00" xmlns="http://www.w3.org/2000/svg" xmlns:xlink="http://www.w3.org/1999/xlink">
<g id="graph0" class="graph" transform="scale(1 1) rotate(0) translate(4 366)">
<title>Edit::WndProc</title>
<polygon fill="white" stroke="none" points="-4,4 -4,-366 764,-366 764,4 -4,4"/>
<!-- Node1 -->
<g id="node1" class="node"><title>Node1</title>
<g id="a_node1"><a xlink:title=" ">
<polygon fill="#bfbfbf" stroke="black" points="0,-190.5 0,-209.5 80,-209.5 80,-190.5 0,-190.5"/>
<text text-anchor="middle" x="40" y="-197.5" font-family="Helvetica,sans-Serif" font-size="10.00">Edit::WndProc</text>
</a>
</g>
</g>
<!-- Node2 -->
<g id="node2" class="node"><title>Node2</title>
<g id="a_node2"><a xlink:href="main_8cpp.html#a30a1e3b0304f1b083637664cbda94e72" target="_top" xlink:title="The declaration of the main message processing function.">
<polygon fill="white" stroke="black" points="116,-190.5 116,-209.5 173,-209.5 173,-190.5 116,-190.5"/>
<text text-anchor="middle" x="144.5" y="-197.5" font-family="Helvetica,sans-Serif" font-size="10.00">WndProc</text>
</a>
</g>
</g>
<!-- Node1&#45;&gt;Node2 -->
<g id="edge1" class="edge"><title>Node1&#45;&gt;Node2</title>
<path fill="none" stroke="midnightblue" d="M80.0433,-200C88.3969,-200 97.21,-200 105.523,-200"/>
<polygon fill="midnightblue" stroke="midnightblue" points="105.712,-203.5 115.712,-200 105.712,-196.5 105.712,-203.5"/>
</g>
<!-- Node3 -->
<g id="node3" class="node"><title>Node3</title>
<g id="a_node3"><a xlink:href="class_button.html#a4b47ae117b554b76c7681d0dc0f6b59a" target="_top" xlink:title=" ">
<polygon fill="white" stroke="black" points="227.5,-332.5 227.5,-351.5 305.5,-351.5 305.5,-332.5 227.5,-332.5"/>
<text text-anchor="middle" x="266.5" y="-339.5" font-family="Helvetica,sans-Serif" font-size="10.00">Button::create</text>
</a>
</g>
</g>
<!-- Node2&#45;&gt;Node3 -->
<g id="edge2" class="edge"><title>Node2&#45;&gt;Node3</title>
<path fill="none" stroke="midnightblue" d="M148.688,-209.812C156.096,-231.264 176.364,-282.897 209,-314 214.795,-319.523 221.89,-324.175 229.068,-328.004"/>
<polygon fill="midnightblue" stroke="midnightblue" points="227.592,-331.178 238.115,-332.416 230.661,-324.886 227.592,-331.178"/>
</g>
<!-- Node6 -->
<g id="node6" class="node"><title>Node6</title>
<g id="a_node6"><a xlink:href="class_edit.html#ab18ca6e3077d72996f0599d984283636" target="_top" xlink:title=" ">
<polygon fill="white" stroke="black" points="233,-285.5 233,-304.5 300,-304.5 300,-285.5 233,-285.5"/>
<text text-anchor="middle" x="266.5" y="-292.5" font-family="Helvetica,sans-Serif" font-size="10.00">Edit::create</text>
</a>
</g>
</g>
<!-- Node2&#45;&gt;Node6 -->
<g id="edge5" class="edge"><title>Node2&#45;&gt;Node6</title>
<path fill="none" stroke="midnightblue" d="M155.457,-209.736C167.649,-221.466 189.132,-241.523 209,-257 219.242,-264.978 231.095,-273.105 241.292,-279.785"/>
<polygon fill="midnightblue" stroke="midnightblue" points="239.445,-282.758 249.744,-285.242 243.242,-276.877 239.445,-282.758"/>
</g>
<!-- Node7 -->
<g id="node7" class="node"><title>Node7</title>
<g id="a_node7"><a xlink:href="main_8cpp.html#abdf0523e10fae27868b24d21a841e926" target="_top" xlink:title="All the magic is here :&#45;)">
<polygon fill="white" stroke="black" points="225,-114.5 225,-133.5 308,-133.5 308,-114.5 225,-114.5"/>
<text text-anchor="middle" x="266.5" y="-121.5" font-family="Helvetica,sans-Serif" font-size="10.00">OnStartClicked</text>
</a>
</g>
</g>
<!-- Node2&#45;&gt;Node7 -->
<g id="edge7" class="edge"><title>Node2&#45;&gt;Node7</title>
<path fill="none" stroke="midnightblue" d="M160.698,-190.375C181.166,-177.412 217.794,-154.214 241.872,-138.965"/>
<polygon fill="midnightblue" stroke="midnightblue" points="243.85,-141.855 250.425,-133.547 240.104,-135.941 243.85,-141.855"/>
</g>
<!-- Node13 -->
<g id="node13" class="node"><title>Node13</title>
<g id="a_node13"><a xlink:href="main_8cpp.html#a1870be22060f25a2595afa09934e9784" target="_top" xlink:title=" ">
<polygon fill="white" stroke="black" points="216,-190.5 216,-209.5 317,-209.5 317,-190.5 216,-190.5"/>
<text text-anchor="middle" x="266.5" y="-197.5" font-family="Helvetica,sans-Serif" font-size="10.00">OnStartTestClicked</text>
</a>
</g>
</g>
<!-- Node2&#45;&gt;Node13 -->
<g id="edge13" class="edge"><title>Node2&#45;&gt;Node13</title>
<path fill="none" stroke="midnightblue" d="M173.03,-200C182.878,-200 194.395,-200 205.893,-200"/>
<polygon fill="midnightblue" stroke="midnightblue" points="205.95,-203.5 215.95,-200 205.95,-196.5 205.95,-203.5"/>
</g>
<!-- Node18 -->
<g id="node18" class="node"><title>Node18</title>
<g id="a_node18"><a xlink:href="main_8cpp.html#a6e6bef72e348d49296a2aa278ce80ca6" target="_top" xlink:title="Thread&#45;Test&#45;Button event handler.">
<polygon fill="white" stroke="black" points="211.5,-228.5 211.5,-247.5 321.5,-247.5 321.5,-228.5 211.5,-228.5"/>
<text text-anchor="middle" x="266.5" y="-235.5" font-family="Helvetica,sans-Serif" font-size="10.00">OnThreadTestClicked</text>
</a>
</g>
</g>
<!-- Node2&#45;&gt;Node18 -->
<g id="edge19" class="edge"><title>Node2&#45;&gt;Node18</title>
<path fill="none" stroke="midnightblue" d="M173.03,-208.718C188.532,-213.627 208.172,-219.846 225.361,-225.289"/>
<polygon fill="midnightblue" stroke="midnightblue" points="224.559,-228.706 235.149,-228.389 226.672,-222.033 224.559,-228.706"/>
</g>
<!-- Node19 -->
<g id="node19" class="node"><title>Node19</title>
<g id="a_node19"><a xlink:href="class_thread.html#af0bd96245e2b765b410f8dd2d1aeeb69" target="_top" xlink:title="Processes maxElements in the running thread.">
<polygon fill="white" stroke="black" points="209,-76.5 209,-95.5 324,-95.5 324,-76.5 209,-76.5"/>
<text text-anchor="middle" x="266.5" y="-83.5" font-family="Helvetica,sans-Serif" font-size="10.00">Thread::processQueue</text>
</a>
</g>
</g>
<!-- Node2&#45;&gt;Node19 -->
<g id="edge22" class="edge"><title>Node2&#45;&gt;Node19</title>
<path fill="none" stroke="midnightblue" d="M149.364,-190.392C157.513,-171.321 178.274,-128.503 209,-105 211.429,-103.142 214.049,-101.46 216.785,-99.938"/>
<polygon fill="midnightblue" stroke="midnightblue" points="218.321,-103.083 225.823,-95.6016 215.293,-96.7722 218.321,-103.083"/>
</g>
<!-- Node20 -->
<g id="node20" class="node"><title>Node20</title>
<g id="a_node20"><a xlink:href="class_control.html#ad3f4aface35bcd0fd170ac854db36431" target="_top" xlink:title=" ">
<polygon fill="white" stroke="black" points="219.5,-19.5 219.5,-38.5 313.5,-38.5 313.5,-19.5 219.5,-19.5"/>
<text text-anchor="middle" x="266.5" y="-26.5" font-family="Helvetica,sans-Serif" font-size="10.00">Control::WndProc</text>
</a>
</g>
</g>
<!-- Node2&#45;&gt;Node20 -->
<g id="edge23" class="edge"><title>Node2&#45;&gt;Node20</title>
<path fill="none" stroke="midnightblue" d="M148.174,-190.315C155.018,-166.911 175.061,-106.32 209,-67 216.865,-57.8877 227.413,-50.0123 237.264,-43.8314"/>
<polygon fill="midnightblue" stroke="midnightblue" points="239.2,-46.7531 246.019,-38.6447 235.632,-40.7307 239.2,-46.7531"/>
</g>
<!-- Node4 -->
<g id="node4" class="node"><title>Node4</title>
<g id="a_node4"><a xlink:href="class_control.html#a5556f2e0a0d67ccba4981ddc8c39d2c3" target="_top" xlink:title=" ">
<polygon fill="white" stroke="black" points="370.5,-342.5 370.5,-361.5 450.5,-361.5 450.5,-342.5 370.5,-342.5"/>
<text text-anchor="middle" x="410.5" y="-349.5" font-family="Helvetica,sans-Serif" font-size="10.00">Control::create</text>
</a>
</g>
</g>
<!-- Node3&#45;&gt;Node4 -->
<g id="edge3" class="edge"><title>Node3&#45;&gt;Node4</title>
<path fill="none" stroke="midnightblue" d="M305.553,-344.68C322.388,-345.865 342.398,-347.275 360.345,-348.538"/>
<polygon fill="midnightblue" stroke="midnightblue" points="360.13,-352.032 370.351,-349.243 360.622,-345.049 360.13,-352.032"/>
</g>
<!-- Node5 -->
<g id="node5" class="node"><title>Node5</title>
<g id="a_node5"><a xlink:href="class_control.html#af9a3acf49973e5a31594f30e979246b0" target="_top" xlink:title=" ">
<polygon fill="white" stroke="black" points="525,-323.5 525,-342.5 602,-342.5 602,-323.5 525,-323.5"/>
<text text-anchor="middle" x="563.5" y="-330.5" font-family="Helvetica,sans-Serif" font-size="10.00">Control::insert</text>
</a>
</g>
</g>
<!-- Node4&#45;&gt;Node5 -->
<g id="edge4" class="edge"><title>Node4&#45;&gt;Node5</title>
<path fill="none" stroke="midnightblue" d="M450.779,-347.058C470.365,-344.593 494.212,-341.592 514.837,-338.997"/>
<polygon fill="midnightblue" stroke="midnightblue" points="515.494,-342.442 524.979,-337.721 514.62,-335.497 515.494,-342.442"/>
</g>
<!-- Node6&#45;&gt;Node5 -->
<g id="edge6" class="edge"><title>Node6&#45;&gt;Node5</title>
<path fill="none" stroke="midnightblue" d="M300.197,-299.212C352.241,-305.916 454.189,-319.048 514.515,-326.819"/>
<polygon fill="midnightblue" stroke="midnightblue" points="514.184,-330.305 524.55,-328.111 515.079,-323.362 514.184,-330.305"/>
</g>
<!-- Node8 -->
<g id="node8" class="node"><title>Node8</title>
<g id="a_node8"><a xlink:href="class_thread.html#abf7db5b09bd25b345e80577f71321ee9" target="_top" xlink:title="The code that will be enqued in the threads task queue.">
<polygon fill="white" stroke="black" points="519,-228.5 519,-247.5 608,-247.5 608,-228.5 519,-228.5"/>
<text text-anchor="middle" x="563.5" y="-235.5" font-family="Helvetica,sans-Serif" font-size="10.00">Thread::enqueue</text>
</a>
</g>
</g>
<!-- Node7&#45;&gt;Node8 -->
<g id="edge8" class="edge"><title>Node7&#45;&gt;Node8</title>
<path fill="none" stroke="midnightblue" d="M308.192,-119.398C349.197,-116.657 413.092,-117.703 461,-143 483.041,-154.638 479.148,-168.606 497,-186 510.649,-199.299 527.52,-212.63 540.721,-222.464"/>
<polygon fill="midnightblue" stroke="midnightblue" points="538.661,-225.294 548.795,-228.386 542.801,-219.65 538.661,-225.294"/>
</g>
<!-- Node10 -->
<g id="node10" class="node"><title>Node10</title>
<g id="a_node10"><a xlink:href="class_thread.html#ada9adb041744058adc9abb1744e86c5d" target="_top" xlink:title="The code that will be executed, after the new Thread is started.">
<polygon fill="white" stroke="black" points="375,-38.5 375,-57.5 446,-57.5 446,-38.5 375,-38.5"/>
<text text-anchor="middle" x="410.5" y="-45.5" font-family="Helvetica,sans-Serif" font-size="10.00">Thread::start</text>
</a>
</g>
</g>
<!-- Node7&#45;&gt;Node10 -->
<g id="edge10" class="edge"><title>Node7&#45;&gt;Node10</title>
<path fill="none" stroke="midnightblue" d="M304.563,-114.438C311.303,-111.904 318.069,-108.788 324,-105 343.606,-92.4769 340.662,-79.9329 360,-67 362.88,-65.0739 365.983,-63.3034 369.182,-61.6844"/>
<polygon fill="midnightblue" stroke="midnightblue" points="370.688,-64.8446 378.343,-57.5196 367.791,-58.4723 370.688,-64.8446"/>
</g>
<!-- Node12 -->
<g id="node12" class="node"><title>Node12</title>
<g id="a_node12"><a xlink:href="class_thread.html#abd50159ecd409936f454c2321f673616" target="_top" xlink:title="Method to stop the Trhead.">
<polygon fill="white" stroke="black" points="375,-76.5 375,-95.5 446,-95.5 446,-76.5 375,-76.5"/>
<text text-anchor="middle" x="410.5" y="-83.5" font-family="Helvetica,sans-Serif" font-size="10.00">Thread::stop</text>
</a>
</g>
</g>
<!-- Node7&#45;&gt;Node12 -->
<g id="edge12" class="edge"><title>Node7&#45;&gt;Node12</title>
<path fill="none" stroke="midnightblue" d="M303.333,-114.411C322.029,-109.408 345.077,-103.24 364.916,-97.9308"/>
<polygon fill="midnightblue" stroke="midnightblue" points="365.905,-101.289 374.661,-95.3232 364.096,-94.5273 365.905,-101.289"/>
</g>
<!-- Node9 -->
<g id="node9" class="node"><title>Node9</title>
<g id="a_node9"><a xlink:href="class_thread.html#a3ee4bd6db78554c9ea75cf242b8ae273" target="_top" xlink:title="push the functor in the queue">
<polygon fill="white" stroke="black" points="666,-228.5 666,-247.5 760,-247.5 760,-228.5 666,-228.5"/>
<text text-anchor="middle" x="713" y="-235.5" font-family="Helvetica,sans-Serif" font-size="10.00">Thread::enqueue_</text>
</a>
</g>
</g>
<!-- Node8&#45;&gt;Node9 -->
<g id="edge9" class="edge"><title>Node8&#45;&gt;Node9</title>
<path fill="none" stroke="midnightblue" d="M608.356,-238C623.193,-238 639.974,-238 655.644,-238"/>
<polygon fill="midnightblue" stroke="midnightblue" points="655.75,-241.5 665.75,-238 655.75,-234.5 655.75,-241.5"/>
</g>
<!-- Node11 -->
<g id="node11" class="node"><title>Node11</title>
<g id="a_node11"><a xlink:href="class_thread.html#af1a12dd97c3644116d394f655ca63c86" target="_top" xlink:title=" ">
<polygon fill="white" stroke="black" points="525,-38.5 525,-57.5 602,-57.5 602,-38.5 525,-38.5"/>
<text text-anchor="middle" x="563.5" y="-45.5" font-family="Helvetica,sans-Serif" font-size="10.00">Thread::start_</text>
</a>
</g>
</g>
<!-- Node10&#45;&gt;Node11 -->
<g id="edge11" class="edge"><title>Node10&#45;&gt;Node11</title>
<path fill="none" stroke="midnightblue" d="M446.142,-48C466.437,-48 492.369,-48 514.599,-48"/>
<polygon fill="midnightblue" stroke="midnightblue" points="514.845,-51.5001 524.845,-48 514.845,-44.5001 514.845,-51.5001"/>
</g>
<!-- Node14 -->
<g id="node14" class="node"><title>Node14</title>
<g id="a_node14"><a xlink:href="class_edit.html#a3ced1bcf14de542e25d512991bcfed2f" target="_top" xlink:title=" ">
<polygon fill="white" stroke="black" points="382.5,-228.5 382.5,-247.5 438.5,-247.5 438.5,-228.5 382.5,-228.5"/>
<text text-anchor="middle" x="410.5" y="-235.5" font-family="Helvetica,sans-Serif" font-size="10.00">Edit::add</text>
</a>
</g>
</g>
<!-- Node13&#45;&gt;Node14 -->
<g id="edge14" class="edge"><title>Node13&#45;&gt;Node14</title>
<path fill="none" stroke="midnightblue" d="M303.333,-209.589C324.469,-215.245 351.169,-222.39 372.505,-228.1"/>
<polygon fill="midnightblue" stroke="midnightblue" points="371.63,-231.489 382.195,-230.693 373.439,-224.727 371.63,-231.489"/>
</g>
<!-- Node15 -->
<g id="node15" class="node"><title>Node15</title>
<g id="a_node15"><a xlink:href="output_8hpp.html#a40ccb49bbe6f7e94ed2bc2dc6cd7e8d0" target="_top" xlink:title=" ">
<polygon fill="white" stroke="black" points="388.5,-190.5 388.5,-209.5 432.5,-209.5 432.5,-190.5 388.5,-190.5"/>
<text text-anchor="middle" x="410.5" y="-197.5" font-family="Helvetica,sans-Serif" font-size="10.00">format</text>
</a>
</g>
</g>
<!-- Node13&#45;&gt;Node15 -->
<g id="edge16" class="edge"><title>Node13&#45;&gt;Node15</title>
<path fill="none" stroke="midnightblue" d="M317.165,-200C337.394,-200 360.171,-200 378.041,-200"/>
<polygon fill="midnightblue" stroke="midnightblue" points="378.203,-203.5 388.203,-200 378.203,-196.5 378.203,-203.5"/>
</g>
<!-- Node16 -->
<g id="node16" class="node"><title>Node16</title>
<g id="a_node16"><a xlink:href="class_test_case.html#a67dbda1a6ccebdf1c834c54fce361a6a" target="_top" xlink:title=" ">
<polygon fill="white" stroke="black" points="360,-152.5 360,-171.5 461,-171.5 461,-152.5 360,-152.5"/>
<text text-anchor="middle" x="410.5" y="-159.5" font-family="Helvetica,sans-Serif" font-size="10.00">TestCase::runTests</text>
</a>
</g>
</g>
<!-- Node13&#45;&gt;Node16 -->
<g id="edge17" class="edge"><title>Node13&#45;&gt;Node16</title>
<path fill="none" stroke="midnightblue" d="M303.333,-190.411C321.663,-185.506 344.178,-179.48 363.75,-174.243"/>
<polygon fill="midnightblue" stroke="midnightblue" points="364.924,-177.552 373.679,-171.586 363.114,-170.79 364.924,-177.552"/>
</g>
<!-- Node14&#45;&gt;Node8 -->
<g id="edge15" class="edge"><title>Node14&#45;&gt;Node8</title>
<path fill="none" stroke="midnightblue" d="M438.845,-238C458.242,-238 484.916,-238 508.526,-238"/>
<polygon fill="midnightblue" stroke="midnightblue" points="508.772,-241.5 518.772,-238 508.772,-234.5 508.772,-241.5"/>
</g>
<!-- Node17 -->
<g id="node17" class="node"><title>Node17</title>
<g id="a_node17"><a xlink:href="namespaceanonymous__namespace_02_test_case_8cpp_03.html#a4073e77346d8adea8ac92f2e309de1aa" target="_top" xlink:title=" ">
<polygon fill="white" stroke="black" points="497,-147 497,-177 630,-177 630,-147 497,-147"/>
<text text-anchor="start" x="505" y="-165" font-family="Helvetica,sans-Serif" font-size="10.00">anonymous_namespace</text>
<text text-anchor="middle" x="563.5" y="-154" font-family="Helvetica,sans-Serif" font-size="10.00">{TestCase::cpp}::getCases</text>
</a>
</g>
</g>
<!-- Node16&#45;&gt;Node17 -->
<g id="edge18" class="edge"><title>Node16&#45;&gt;Node17</title>
<path fill="none" stroke="midnightblue" d="M461.362,-162C469.512,-162 478.114,-162 486.721,-162"/>
<polygon fill="midnightblue" stroke="midnightblue" points="486.801,-165.5 496.801,-162 486.801,-158.5 486.801,-165.5"/>
</g>
<!-- Node18&#45;&gt;Node8 -->
<g id="edge21" class="edge"><title>Node18&#45;&gt;Node8</title>
<path fill="none" stroke="midnightblue" d="M305.037,-247.51C321.744,-251.274 341.732,-255.143 360,-257 404.659,-261.539 416.303,-261.147 461,-257 477.401,-255.478 495.102,-252.602 511.059,-249.538"/>
<polygon fill="midnightblue" stroke="midnightblue" points="512.136,-252.893 521.262,-247.511 510.771,-246.027 512.136,-252.893"/>
</g>
<!-- Node18&#45;&gt;Node14 -->
<g id="edge20" class="edge"><title>Node18&#45;&gt;Node14</title>
<path fill="none" stroke="midnightblue" d="M321.589,-238C338.401,-238 356.556,-238 371.978,-238"/>
<polygon fill="midnightblue" stroke="midnightblue" points="372.168,-241.5 382.168,-238 372.168,-234.5 372.168,-241.5"/>
</g>
<!-- Node21 -->
<g id="node21" class="node"><title>Node21</title>
<g id="a_node21"><a xlink:href="class_control.html#ad2a1ce33f8bb652934af8d1c39ca7351" target="_top" xlink:title=" ">
<polygon fill="white" stroke="black" points="366.5,-0.5 366.5,-19.5 454.5,-19.5 454.5,-0.5 366.5,-0.5"/>
<text text-anchor="middle" x="410.5" y="-7.5" font-family="Helvetica,sans-Serif" font-size="10.00">Control::execute</text>
</a>
</g>
</g>
<!-- Node20&#45;&gt;Node21 -->
<g id="edge24" class="edge"><title>Node20&#45;&gt;Node21</title>
<path fill="none" stroke="midnightblue" d="M313.603,-22.8312C327.158,-21.0176 342.098,-19.0185 356.07,-17.149"/>
<polygon fill="midnightblue" stroke="midnightblue" points="356.592,-20.6106 366.039,-15.8152 355.663,-13.6724 356.592,-20.6106"/>
</g>
</g>
</svg>
