<?xml version="1.0" encoding="UTF-8" standalone="no"?>
<!DOCTYPE svg PUBLIC "-//W3C//DTD SVG 1.1//EN"
 "http://www.w3.org/Graphics/SVG/1.1/DTD/svg11.dtd">
<!-- Generated by graphviz version 2.38.0 (20140413.2041)
 -->
<!-- Title: Edit::add Pages: 1 -->
<svg width="515pt" height="170pt"
 viewBox="0.00 0.00 515.00 170.00" xmlns="http://www.w3.org/2000/svg" xmlns:xlink="http://www.w3.org/1999/xlink">
<g id="graph0" class="graph" transform="scale(1 1) rotate(0) translate(4 166)">
<title>Edit::add</title>
<polygon fill="white" stroke="none" points="-4,4 -4,-166 511,-166 511,4 -4,4"/>
<!-- Node1 -->
<g id="node1" class="node"><title>Node1</title>
<g id="a_node1"><a xlink:title=" ">
<polygon fill="#bfbfbf" stroke="black" points="451,-57.5 451,-76.5 507,-76.5 507,-57.5 451,-57.5"/>
<text text-anchor="middle" x="479" y="-64.5" font-family="Helvetica,sans-Serif" font-size="10.00">Edit::add</text>
</a>
</g>
</g>
<!-- Node2 -->
<g id="node2" class="node"><title>Node2</title>
<g id="a_node2"><a xlink:href="output_8hpp.html#ad715e61f7587d83c205d24cfc114282a" target="_top" xlink:title=" ">
<polygon fill="white" stroke="black" points="329.5,-114.5 329.5,-133.5 366.5,-133.5 366.5,-114.5 329.5,-114.5"/>
<text text-anchor="middle" x="348" y="-121.5" font-family="Helvetica,sans-Serif" font-size="10.00">flush</text>
</a>
</g>
</g>
<!-- Node1&#45;&gt;Node2 -->
<g id="edge1" class="edge"><title>Node1&#45;&gt;Node2</title>
<path fill="none" stroke="midnightblue" d="M455.886,-82.3023C444.141,-89.915 429.225,-98.7914 415,-105 399.154,-111.916 380.085,-117.093 366.527,-120.282"/>
<polygon fill="midnightblue" stroke="midnightblue" points="458.16,-84.9932 464.552,-76.5432 454.286,-79.1632 458.16,-84.9932"/>
</g>
<!-- Node6 -->
<g id="node6" class="node"><title>Node6</title>
<g id="a_node6"><a xlink:href="main_8cpp.html#a1870be22060f25a2595afa09934e9784" target="_top" xlink:title=" ">
<polygon fill="white" stroke="black" points="297.5,-76.5 297.5,-95.5 398.5,-95.5 398.5,-76.5 297.5,-76.5"/>
<text text-anchor="middle" x="348" y="-83.5" font-family="Helvetica,sans-Serif" font-size="10.00">OnStartTestClicked</text>
</a>
</g>
</g>
<!-- Node1&#45;&gt;Node6 -->
<g id="edge5" class="edge"><title>Node1&#45;&gt;Node6</title>
<path fill="none" stroke="midnightblue" d="M440.865,-72.4695C427.714,-74.4065 412.7,-76.6178 398.675,-78.6835"/>
<polygon fill="midnightblue" stroke="midnightblue" points="441.574,-75.9029 450.957,-70.983 440.554,-68.9776 441.574,-75.9029"/>
</g>
<!-- Node9 -->
<g id="node9" class="node"><title>Node9</title>
<g id="a_node9"><a xlink:href="main_8cpp.html#a6e6bef72e348d49296a2aa278ce80ca6" target="_top" xlink:title="Thread&#45;Test&#45;Button event handler.">
<polygon fill="white" stroke="black" points="293,-38.5 293,-57.5 403,-57.5 403,-38.5 293,-38.5"/>
<text text-anchor="middle" x="348" y="-45.5" font-family="Helvetica,sans-Serif" font-size="10.00">OnThreadTestClicked</text>
</a>
</g>
</g>
<!-- Node1&#45;&gt;Node9 -->
<g id="edge8" class="edge"><title>Node1&#45;&gt;Node9</title>
<path fill="none" stroke="midnightblue" d="M441.023,-61.5537C429.215,-59.8146 415.892,-57.8524 403.126,-55.9721"/>
<polygon fill="midnightblue" stroke="midnightblue" points="440.554,-65.0224 450.957,-63.017 441.574,-58.0971 440.554,-65.0224"/>
</g>
<!-- Node10 -->
<g id="node10" class="node"><title>Node10</title>
<g id="a_node10"><a xlink:href="struct_thread_1_1_impl.html#a0164f5b95922ac969d1d81914e5d5eb9" target="_top" xlink:title="The normally used processing loop of a background thread.">
<polygon fill="white" stroke="black" points="281,-0.5 281,-19.5 415,-19.5 415,-0.5 281,-0.5"/>
<text text-anchor="middle" x="348" y="-7.5" font-family="Helvetica,sans-Serif" font-size="10.00">Thread::Impl::standardLoop</text>
</a>
</g>
</g>
<!-- Node1&#45;&gt;Node10 -->
<g id="edge10" class="edge"><title>Node1&#45;&gt;Node10</title>
<path fill="none" stroke="midnightblue" d="M455.886,-51.6977C444.141,-44.085 429.225,-35.2086 415,-29 406.695,-25.3751 397.504,-22.228 388.685,-19.5943"/>
<polygon fill="midnightblue" stroke="midnightblue" points="454.286,-54.8368 464.552,-57.4568 458.16,-49.0068 454.286,-54.8368"/>
</g>
<!-- Node3 -->
<g id="node3" class="node"><title>Node3</title>
<g id="a_node3"><a xlink:href="classoutputbuf.html#ae4bacbf184222fca04c7e3f09309e1c2" target="_top" xlink:title=" ">
<polygon fill="white" stroke="black" points="144,-114.5 144,-133.5 245,-133.5 245,-114.5 144,-114.5"/>
<text text-anchor="middle" x="194.5" y="-121.5" font-family="Helvetica,sans-Serif" font-size="10.00">outputbuf::flushMsg</text>
</a>
</g>
</g>
<!-- Node2&#45;&gt;Node3 -->
<g id="edge2" class="edge"><title>Node2&#45;&gt;Node3</title>
<path fill="none" stroke="midnightblue" d="M319.308,-124C298.608,-124 269.75,-124 245.103,-124"/>
<polygon fill="midnightblue" stroke="midnightblue" points="319.325,-127.5 329.325,-124 319.324,-120.5 319.325,-127.5"/>
</g>
<!-- Node4 -->
<g id="node4" class="node"><title>Node4</title>
<g id="a_node4"><a xlink:href="classoutputbuf.html#a7525670600d2f14b79000875633aa6d8" target="_top" xlink:title=" ">
<polygon fill="white" stroke="black" points="6,-142.5 6,-161.5 102,-161.5 102,-142.5 6,-142.5"/>
<text text-anchor="middle" x="54" y="-149.5" font-family="Helvetica,sans-Serif" font-size="10.00">outputbuf::overflow</text>
</a>
</g>
</g>
<!-- Node3&#45;&gt;Node4 -->
<g id="edge3" class="edge"><title>Node3&#45;&gt;Node4</title>
<path fill="none" stroke="midnightblue" d="M136.348,-135.554C124.942,-137.86 113.084,-140.257 102.063,-142.485"/>
<polygon fill="midnightblue" stroke="midnightblue" points="137.115,-138.97 146.224,-133.558 135.728,-132.109 137.115,-138.97"/>
</g>
<!-- Node5 -->
<g id="node5" class="node"><title>Node5</title>
<g id="a_node5"><a xlink:href="classoutputbuf.html#ab37c9e3806825271abd4f04d0f045e54" target="_top" xlink:title=" ">
<polygon fill="white" stroke="black" points="0,-104.5 0,-123.5 108,-123.5 108,-104.5 0,-104.5"/>
<text text-anchor="middle" x="54" y="-111.5" font-family="Helvetica,sans-Serif" font-size="10.00">outputbuf::~outputbuf</text>
</a>
</g>
</g>
<!-- Node3&#45;&gt;Node5 -->
<g id="edge4" class="edge"><title>Node3&#45;&gt;Node5</title>
<path fill="none" stroke="midnightblue" d="M133.907,-119.697C125.296,-119.076 116.482,-118.439 108.011,-117.828"/>
<polygon fill="midnightblue" stroke="midnightblue" points="133.663,-123.189 143.89,-120.418 134.168,-116.207 133.663,-123.189"/>
</g>
<!-- Node7 -->
<g id="node7" class="node"><title>Node7</title>
<g id="a_node7"><a xlink:href="main_8cpp.html#a30a1e3b0304f1b083637664cbda94e72" target="_top" xlink:title="The declaration of the main message processing function.">
<polygon fill="white" stroke="black" points="166,-57.5 166,-76.5 223,-76.5 223,-57.5 166,-57.5"/>
<text text-anchor="middle" x="194.5" y="-64.5" font-family="Helvetica,sans-Serif" font-size="10.00">WndProc</text>
</a>
</g>
</g>
<!-- Node6&#45;&gt;Node7 -->
<g id="edge6" class="edge"><title>Node6&#45;&gt;Node7</title>
<path fill="none" stroke="midnightblue" d="M287.365,-78.5211C265.18,-75.7388 241.061,-72.714 223.106,-70.4621"/>
<polygon fill="midnightblue" stroke="midnightblue" points="287.035,-82.007 297.393,-79.7787 287.907,-75.0614 287.035,-82.007"/>
</g>
<!-- Node8 -->
<g id="node8" class="node"><title>Node8</title>
<g id="a_node8"><a xlink:href="main_8cpp.html#a946cd7d17bf6760d82ded70909de9a6d" target="_top" xlink:title="The beginning of everything.">
<polygon fill="white" stroke="black" points="26.5,-57.5 26.5,-76.5 81.5,-76.5 81.5,-57.5 26.5,-57.5"/>
<text text-anchor="middle" x="54" y="-64.5" font-family="Helvetica,sans-Serif" font-size="10.00">WinMain</text>
</a>
</g>
</g>
<!-- Node7&#45;&gt;Node8 -->
<g id="edge7" class="edge"><title>Node7&#45;&gt;Node8</title>
<path fill="none" stroke="midnightblue" d="M155.526,-67C132.114,-67 102.665,-67 81.7055,-67"/>
<polygon fill="midnightblue" stroke="midnightblue" points="155.805,-70.5001 165.805,-67 155.805,-63.5001 155.805,-70.5001"/>
</g>
<!-- Node9&#45;&gt;Node7 -->
<g id="edge9" class="edge"><title>Node9&#45;&gt;Node7</title>
<path fill="none" stroke="midnightblue" d="M282.624,-56.0736C261.78,-58.6876 239.761,-61.4491 223.074,-63.5419"/>
<polygon fill="midnightblue" stroke="midnightblue" points="283.246,-59.523 292.733,-54.8058 282.375,-52.5774 283.246,-59.523"/>
</g>
<!-- Node11 -->
<g id="node11" class="node"><title>Node11</title>
<g id="a_node11"><a xlink:href="class_thread.html#a1f53ee62bd30a7924186ef26150ce262" target="_top" xlink:title="Starts the Thread with Thread::Impl::standardLoop.">
<polygon fill="white" stroke="black" points="159,-0.5 159,-19.5 230,-19.5 230,-0.5 159,-0.5"/>
<text text-anchor="middle" x="194.5" y="-7.5" font-family="Helvetica,sans-Serif" font-size="10.00">Thread::start</text>
</a>
</g>
</g>
<!-- Node10&#45;&gt;Node11 -->
<g id="edge11" class="edge"><title>Node10&#45;&gt;Node11</title>
<path fill="none" stroke="midnightblue" d="M270.659,-10C256.439,-10 242.245,-10 230.085,-10"/>
<polygon fill="midnightblue" stroke="midnightblue" points="270.991,-13.5001 280.991,-10 270.991,-6.5001 270.991,-13.5001"/>
</g>
</g>
</svg>
