<?xml version="1.0" encoding="UTF-8" standalone="no"?>
<!DOCTYPE svg PUBLIC "-//W3C//DTD SVG 1.1//EN"
 "http://www.w3.org/Graphics/SVG/1.1/DTD/svg11.dtd">
<!-- Generated by graphviz version 2.38.0 (20140413.2041)
 -->
<!-- Title: src/dbg_new.h Pages: 1 -->
<svg width="758pt" height="84pt"
 viewBox="0.00 0.00 758.00 84.00" xmlns="http://www.w3.org/2000/svg" xmlns:xlink="http://www.w3.org/1999/xlink">
<g id="graph0" class="graph" transform="scale(1 1) rotate(0) translate(4 80)">
<title>src/dbg_new.h</title>
<polygon fill="white" stroke="none" points="-4,4 -4,-80 754,-80 754,4 -4,4"/>
<!-- Node1 -->
<g id="node1" class="node"><title>Node1</title>
<g id="a_node1"><a xlink:title=" ">
<polygon fill="#bfbfbf" stroke="black" points="349.5,-56.5 349.5,-75.5 429.5,-75.5 429.5,-56.5 349.5,-56.5"/>
<text text-anchor="middle" x="389.5" y="-63.5" font-family="Helvetica,sans-Serif" font-size="10.00">src/dbg_new.h</text>
</a>
</g>
</g>
<!-- Node2 -->
<g id="node2" class="node"><title>Node2</title>
<g id="a_node2"><a xlink:href="_thread_8cpp.html" target="_top" xlink:title=" ">
<polygon fill="white" stroke="black" points="0,-0.5 0,-19.5 107,-19.5 107,-0.5 0,-0.5"/>
<text text-anchor="middle" x="53.5" y="-7.5" font-family="Helvetica,sans-Serif" font-size="10.00">src/Base/Thread.cpp</text>
</a>
</g>
</g>
<!-- Node1&#45;&gt;Node2 -->
<g id="edge1" class="edge"><title>Node1&#45;&gt;Node2</title>
<path fill="none" stroke="midnightblue" d="M339.277,-56.9284C276.703,-46.8719 170.264,-29.7656 106.448,-19.5095"/>
<polygon fill="midnightblue" stroke="midnightblue" points="338.876,-60.4088 349.304,-58.54 339.986,-53.4975 338.876,-60.4088"/>
</g>
<!-- Node3 -->
<g id="node3" class="node"><title>Node3</title>
<g id="a_node3"><a xlink:href="_button_8cpp.html" target="_top" xlink:title=" ">
<polygon fill="white" stroke="black" points="125,-0.5 125,-19.5 244,-19.5 244,-0.5 125,-0.5"/>
<text text-anchor="middle" x="184.5" y="-7.5" font-family="Helvetica,sans-Serif" font-size="10.00">src/Controls/Button.cpp</text>
</a>
</g>
</g>
<!-- Node1&#45;&gt;Node3 -->
<g id="edge2" class="edge"><title>Node1&#45;&gt;Node3</title>
<path fill="none" stroke="midnightblue" d="M347.092,-53.8291C308.386,-43.6333 252.007,-28.7823 216.831,-19.5164"/>
<polygon fill="midnightblue" stroke="midnightblue" points="346.455,-57.2808 357.017,-56.4435 348.239,-50.5117 346.455,-57.2808"/>
</g>
<!-- Node4 -->
<g id="node4" class="node"><title>Node4</title>
<g id="a_node4"><a xlink:href="_control_8cpp.html" target="_top" xlink:title=" ">
<polygon fill="white" stroke="black" points="262.5,-0.5 262.5,-19.5 384.5,-19.5 384.5,-0.5 262.5,-0.5"/>
<text text-anchor="middle" x="323.5" y="-7.5" font-family="Helvetica,sans-Serif" font-size="10.00">src/Controls/Control.cpp</text>
</a>
</g>
</g>
<!-- Node1&#45;&gt;Node4 -->
<g id="edge3" class="edge"><title>Node1&#45;&gt;Node4</title>
<path fill="none" stroke="midnightblue" d="M370.946,-49.8197C359.122,-40.1452 344.214,-27.9481 334.297,-19.8339"/>
<polygon fill="midnightblue" stroke="midnightblue" points="368.94,-52.7004 378.896,-56.324 373.373,-47.2827 368.94,-52.7004"/>
</g>
<!-- Node5 -->
<g id="node5" class="node"><title>Node5</title>
<g id="a_node5"><a xlink:href="_edit_8cpp.html" target="_top" xlink:title=" ">
<polygon fill="white" stroke="black" points="402.5,-0.5 402.5,-19.5 510.5,-19.5 510.5,-0.5 402.5,-0.5"/>
<text text-anchor="middle" x="456.5" y="-7.5" font-family="Helvetica,sans-Serif" font-size="10.00">src/Controls/Edit.cpp</text>
</a>
</g>
</g>
<!-- Node1&#45;&gt;Node5 -->
<g id="edge4" class="edge"><title>Node1&#45;&gt;Node5</title>
<path fill="none" stroke="midnightblue" d="M408.335,-49.8197C420.338,-40.1452 435.472,-27.9481 445.539,-19.8339"/>
<polygon fill="midnightblue" stroke="midnightblue" points="405.854,-47.3236 400.265,-56.324 410.247,-52.7738 405.854,-47.3236"/>
</g>
<!-- Node6 -->
<g id="node6" class="node"><title>Node6</title>
<g id="a_node6"><a xlink:href="_progress_8cpp.html" target="_top" xlink:title=" ">
<polygon fill="white" stroke="black" points="528.5,-0.5 528.5,-19.5 658.5,-19.5 658.5,-0.5 528.5,-0.5"/>
<text text-anchor="middle" x="593.5" y="-7.5" font-family="Helvetica,sans-Serif" font-size="10.00">src/Controls/Progress.cpp</text>
</a>
</g>
</g>
<!-- Node1&#45;&gt;Node6 -->
<g id="edge5" class="edge"><title>Node1&#45;&gt;Node6</title>
<path fill="none" stroke="midnightblue" d="M431.701,-53.8291C470.218,-43.6333 526.322,-28.7823 561.327,-19.5164"/>
<polygon fill="midnightblue" stroke="midnightblue" points="430.596,-50.5011 421.824,-56.4435 432.387,-57.268 430.596,-50.5011"/>
</g>
<!-- Node7 -->
<g id="node7" class="node"><title>Node7</title>
<g id="a_node7"><a xlink:href="main_8cpp.html" target="_top" xlink:title=" ">
<polygon fill="white" stroke="black" points="677,-0.5 677,-19.5 750,-19.5 750,-0.5 677,-0.5"/>
<text text-anchor="middle" x="713.5" y="-7.5" font-family="Helvetica,sans-Serif" font-size="10.00">src/main.cpp</text>
</a>
</g>
</g>
<!-- Node1&#45;&gt;Node7 -->
<g id="edge6" class="edge"><title>Node1&#45;&gt;Node7</title>
<path fill="none" stroke="midnightblue" d="M439.586,-57.3978C495.312,-48.822 587.982,-34.2108 667.5,-20 670.544,-19.456 673.698,-18.8752 676.862,-18.2805"/>
<polygon fill="midnightblue" stroke="midnightblue" points="438.975,-53.9505 429.622,-58.9274 440.037,-60.8694 438.975,-53.9505"/>
</g>
</g>
</svg>
