<?xml version="1.0" encoding="UTF-8" standalone="no"?>
<!DOCTYPE svg PUBLIC "-//W3C//DTD SVG 1.1//EN"
 "http://www.w3.org/Graphics/SVG/1.1/DTD/svg11.dtd">
<!-- Generated by graphviz version 2.38.0 (20140413.2041)
 -->
<!-- Title: src/dbg_new.h Pages: 1 -->
<svg width="419pt" height="364pt"
 viewBox="0.00 0.00 419.00 364.00" xmlns="http://www.w3.org/2000/svg" xmlns:xlink="http://www.w3.org/1999/xlink">
<g id="graph0" class="graph" transform="scale(1 1) rotate(0) translate(4 360)">
<title>src/dbg_new.h</title>
<polygon fill="white" stroke="none" points="-4,4 -4,-360 415,-360 415,4 -4,4"/>
<!-- Node1 -->
<g id="node1" class="node"><title>Node1</title>
<g id="a_node1"><a xlink:title=" ">
<polygon fill="#bfbfbf" stroke="black" points="258,-336.5 258,-355.5 338,-355.5 338,-336.5 258,-336.5"/>
<text text-anchor="middle" x="298" y="-343.5" font-family="Helvetica,sans-Serif" font-size="10.00">src/dbg_new.h</text>
</a>
</g>
</g>
<!-- Node2 -->
<g id="node2" class="node"><title>Node2</title>
<g id="a_node2"><a xlink:href="utils_8hpp.html" target="_top" xlink:title=" ">
<polygon fill="white" stroke="black" points="224.5,-280.5 224.5,-299.5 277.5,-299.5 277.5,-280.5 224.5,-280.5"/>
<text text-anchor="middle" x="251" y="-287.5" font-family="Helvetica,sans-Serif" font-size="10.00">utils.hpp</text>
</a>
</g>
</g>
<!-- Node1&#45;&gt;Node2 -->
<g id="edge1" class="edge"><title>Node1&#45;&gt;Node2</title>
<path fill="none" stroke="midnightblue" d="M290.239,-336.083C283.463,-328.298 273.457,-316.801 265.245,-307.367"/>
<polygon fill="midnightblue" stroke="midnightblue" points="267.822,-304.996 258.617,-299.751 262.542,-309.592 267.822,-304.996"/>
</g>
<!-- Node14 -->
<g id="node14" class="node"><title>Node14</title>
<g id="a_node14"><a xlink:title=" ">
<polygon fill="white" stroke="#bfbfbf" points="359,-56.5 359,-75.5 411,-75.5 411,-56.5 359,-56.5"/>
<text text-anchor="middle" x="385" y="-63.5" font-family="Helvetica,sans-Serif" font-size="10.00">assert.h</text>
</a>
</g>
</g>
<!-- Node1&#45;&gt;Node14 -->
<g id="edge16" class="edge"><title>Node1&#45;&gt;Node14</title>
<path fill="none" stroke="midnightblue" d="M304.674,-336.435C317.863,-318.623 346,-275.839 346,-235 346,-235 346,-235 346,-177 346,-142.716 363.037,-105.698 374.59,-84.5372"/>
<polygon fill="midnightblue" stroke="midnightblue" points="377.685,-86.175 379.577,-75.7504 371.597,-82.7198 377.685,-86.175"/>
</g>
<!-- Node3 -->
<g id="node3" class="node"><title>Node3</title>
<g id="a_node3"><a xlink:href="output_8hpp.html" target="_top" xlink:title=" ">
<polygon fill="white" stroke="black" points="122,-224.5 122,-243.5 184,-243.5 184,-224.5 122,-224.5"/>
<text text-anchor="middle" x="153" y="-231.5" font-family="Helvetica,sans-Serif" font-size="10.00">output.hpp</text>
</a>
</g>
</g>
<!-- Node2&#45;&gt;Node3 -->
<g id="edge2" class="edge"><title>Node2&#45;&gt;Node3</title>
<path fill="none" stroke="midnightblue" d="M235.255,-280.324C219.681,-271.743 195.623,-258.486 177.541,-248.522"/>
<polygon fill="midnightblue" stroke="midnightblue" points="179.154,-245.415 168.706,-243.655 175.776,-251.546 179.154,-245.415"/>
</g>
<!-- Node15 -->
<g id="node15" class="node"><title>Node15</title>
<g id="a_node15"><a xlink:title=" ">
<polygon fill="white" stroke="#bfbfbf" points="221.5,-224.5 221.5,-243.5 280.5,-243.5 280.5,-224.5 221.5,-224.5"/>
<text text-anchor="middle" x="251" y="-231.5" font-family="Helvetica,sans-Serif" font-size="10.00">exception</text>
</a>
</g>
</g>
<!-- Node2&#45;&gt;Node15 -->
<g id="edge15" class="edge"><title>Node2&#45;&gt;Node15</title>
<path fill="none" stroke="midnightblue" d="M251,-280.083C251,-273.006 251,-262.861 251,-253.986"/>
<polygon fill="midnightblue" stroke="midnightblue" points="254.5,-253.751 251,-243.751 247.5,-253.751 254.5,-253.751"/>
</g>
<!-- Node4 -->
<g id="node4" class="node"><title>Node4</title>
<g id="a_node4"><a xlink:title=" ">
<polygon fill="white" stroke="#bfbfbf" points="0,-168.5 0,-187.5 52,-187.5 52,-168.5 0,-168.5"/>
<text text-anchor="middle" x="26" y="-175.5" font-family="Helvetica,sans-Serif" font-size="10.00">stdarg.h</text>
</a>
</g>
</g>
<!-- Node3&#45;&gt;Node4 -->
<g id="edge3" class="edge"><title>Node3&#45;&gt;Node4</title>
<path fill="none" stroke="midnightblue" d="M132.876,-224.444C111.976,-215.557 79.0653,-201.563 55.2839,-191.451"/>
<polygon fill="midnightblue" stroke="midnightblue" points="56.6016,-188.208 46.0294,-187.516 53.8625,-194.65 56.6016,-188.208"/>
</g>
<!-- Node5 -->
<g id="node5" class="node"><title>Node5</title>
<g id="a_node5"><a xlink:title=" ">
<polygon fill="white" stroke="#bfbfbf" points="59.5,-56.5 59.5,-75.5 100.5,-75.5 100.5,-56.5 59.5,-56.5"/>
<text text-anchor="middle" x="80" y="-63.5" font-family="Helvetica,sans-Serif" font-size="10.00">string</text>
</a>
</g>
</g>
<!-- Node3&#45;&gt;Node5 -->
<g id="edge4" class="edge"><title>Node3&#45;&gt;Node5</title>
<path fill="none" stroke="midnightblue" d="M137.537,-224.433C125.018,-216.636 108.03,-203.923 99,-188 80.6164,-155.585 78.4982,-110.847 78.9912,-85.8481"/>
<polygon fill="midnightblue" stroke="midnightblue" points="82.4987,-85.7048 79.3677,-75.5833 75.5034,-85.4482 82.4987,-85.7048"/>
</g>
<!-- Node6 -->
<g id="node6" class="node"><title>Node6</title>
<g id="a_node6"><a xlink:title=" ">
<polygon fill="white" stroke="#bfbfbf" points="108,-168.5 108,-187.5 160,-187.5 160,-168.5 108,-168.5"/>
<text text-anchor="middle" x="134" y="-175.5" font-family="Helvetica,sans-Serif" font-size="10.00">sstream</text>
</a>
</g>
</g>
<!-- Node3&#45;&gt;Node6 -->
<g id="edge5" class="edge"><title>Node3&#45;&gt;Node6</title>
<path fill="none" stroke="midnightblue" d="M149.863,-224.083C147.317,-216.849 143.644,-206.409 140.473,-197.397"/>
<polygon fill="midnightblue" stroke="midnightblue" points="143.7,-196.023 137.079,-187.751 137.097,-198.346 143.7,-196.023"/>
</g>
<!-- Node7 -->
<g id="node7" class="node"><title>Node7</title>
<g id="a_node7"><a xlink:title=" ">
<polygon fill="white" stroke="#bfbfbf" points="178,-168.5 178,-187.5 220,-187.5 220,-168.5 178,-168.5"/>
<text text-anchor="middle" x="199" y="-175.5" font-family="Helvetica,sans-Serif" font-size="10.00">vector</text>
</a>
</g>
</g>
<!-- Node3&#45;&gt;Node7 -->
<g id="edge6" class="edge"><title>Node3&#45;&gt;Node7</title>
<path fill="none" stroke="midnightblue" d="M160.596,-224.083C167.227,-216.298 177.021,-204.801 185.058,-195.367"/>
<polygon fill="midnightblue" stroke="midnightblue" points="187.725,-197.633 191.545,-187.751 182.396,-193.094 187.725,-197.633"/>
</g>
<!-- Node8 -->
<g id="node8" class="node"><title>Node8</title>
<g id="a_node8"><a xlink:href="_edit_8h.html" target="_top" xlink:title=" ">
<polygon fill="white" stroke="black" points="238,-168.5 238,-187.5 280,-187.5 280,-168.5 238,-168.5"/>
<text text-anchor="middle" x="259" y="-175.5" font-family="Helvetica,sans-Serif" font-size="10.00">Edit.h</text>
</a>
</g>
</g>
<!-- Node3&#45;&gt;Node8 -->
<g id="edge7" class="edge"><title>Node3&#45;&gt;Node8</title>
<path fill="none" stroke="midnightblue" d="M170.031,-224.324C187.03,-215.664 213.376,-202.242 232.993,-192.249"/>
<polygon fill="midnightblue" stroke="midnightblue" points="234.69,-195.312 242.012,-187.655 231.512,-189.075 234.69,-195.312"/>
</g>
<!-- Node9 -->
<g id="node9" class="node"><title>Node9</title>
<g id="a_node9"><a xlink:href="_control_8h.html" target="_top" xlink:title=" ">
<polygon fill="white" stroke="black" points="214,-112.5 214,-131.5 270,-131.5 270,-112.5 214,-112.5"/>
<text text-anchor="middle" x="242" y="-119.5" font-family="Helvetica,sans-Serif" font-size="10.00">Control.h</text>
</a>
</g>
</g>
<!-- Node8&#45;&gt;Node9 -->
<g id="edge8" class="edge"><title>Node8&#45;&gt;Node9</title>
<path fill="none" stroke="midnightblue" d="M256.193,-168.083C253.915,-160.849 250.629,-150.409 247.792,-141.397"/>
<polygon fill="midnightblue" stroke="midnightblue" points="251.096,-140.239 244.755,-131.751 244.419,-142.341 251.096,-140.239"/>
</g>
<!-- Node9&#45;&gt;Node5 -->
<g id="edge10" class="edge"><title>Node9&#45;&gt;Node5</title>
<path fill="none" stroke="midnightblue" d="M216.331,-112.444C187.634,-102.878 141.191,-87.3969 110.622,-77.2075"/>
<polygon fill="midnightblue" stroke="midnightblue" points="111.507,-73.8129 100.913,-73.971 109.293,-80.4537 111.507,-73.8129"/>
</g>
<!-- Node10 -->
<g id="node10" class="node"><title>Node10</title>
<g id="a_node10"><a xlink:title=" ">
<polygon fill="white" stroke="#bfbfbf" points="119,-56.5 119,-75.5 181,-75.5 181,-56.5 119,-56.5"/>
<text text-anchor="middle" x="150" y="-63.5" font-family="Helvetica,sans-Serif" font-size="10.00">windows.h</text>
</a>
</g>
</g>
<!-- Node9&#45;&gt;Node10 -->
<g id="edge9" class="edge"><title>Node9&#45;&gt;Node10</title>
<path fill="none" stroke="midnightblue" d="M227.219,-112.324C212.733,-103.822 190.427,-90.7288 173.507,-80.7975"/>
<polygon fill="midnightblue" stroke="midnightblue" points="175.141,-77.6981 164.745,-75.6545 171.597,-83.735 175.141,-77.6981"/>
</g>
<!-- Node11 -->
<g id="node11" class="node"><title>Node11</title>
<g id="a_node11"><a xlink:title=" ">
<polygon fill="white" stroke="#bfbfbf" points="199,-56.5 199,-75.5 251,-75.5 251,-56.5 199,-56.5"/>
<text text-anchor="middle" x="225" y="-63.5" font-family="Helvetica,sans-Serif" font-size="10.00">memory</text>
</a>
</g>
</g>
<!-- Node9&#45;&gt;Node11 -->
<g id="edge11" class="edge"><title>Node9&#45;&gt;Node11</title>
<path fill="none" stroke="midnightblue" d="M239.193,-112.083C236.915,-104.849 233.629,-94.4087 230.792,-85.3968"/>
<polygon fill="midnightblue" stroke="midnightblue" points="234.096,-84.2385 227.755,-75.7511 227.419,-86.3406 234.096,-84.2385"/>
</g>
<!-- Node12 -->
<g id="node12" class="node"><title>Node12</title>
<g id="a_node12"><a xlink:href="_property_8hpp.html" target="_top" xlink:title=" ">
<polygon fill="white" stroke="black" points="269,-56.5 269,-75.5 341,-75.5 341,-56.5 269,-56.5"/>
<text text-anchor="middle" x="305" y="-63.5" font-family="Helvetica,sans-Serif" font-size="10.00">Property.hpp</text>
</a>
</g>
</g>
<!-- Node9&#45;&gt;Node12 -->
<g id="edge12" class="edge"><title>Node9&#45;&gt;Node12</title>
<path fill="none" stroke="midnightblue" d="M252.122,-112.324C261.526,-104.263 275.744,-92.0765 287.069,-82.3695"/>
<polygon fill="midnightblue" stroke="midnightblue" points="289.379,-84.9993 294.694,-75.8339 284.823,-79.6844 289.379,-84.9993"/>
</g>
<!-- Node9&#45;&gt;Node14 -->
<g id="edge14" class="edge"><title>Node9&#45;&gt;Node14</title>
<path fill="none" stroke="midnightblue" d="M264.659,-112.444C288.402,-103.478 325.909,-89.314 352.738,-79.1827"/>
<polygon fill="midnightblue" stroke="midnightblue" points="354.329,-82.3235 362.447,-75.5164 351.856,-75.7749 354.329,-82.3235"/>
</g>
<!-- Node13 -->
<g id="node13" class="node"><title>Node13</title>
<g id="a_node13"><a xlink:title=" ">
<polygon fill="white" stroke="#bfbfbf" points="276,-0.5 276,-19.5 334,-19.5 334,-0.5 276,-0.5"/>
<text text-anchor="middle" x="305" y="-7.5" font-family="Helvetica,sans-Serif" font-size="10.00">functional</text>
</a>
</g>
</g>
<!-- Node12&#45;&gt;Node13 -->
<g id="edge13" class="edge"><title>Node12&#45;&gt;Node13</title>
<path fill="none" stroke="midnightblue" d="M305,-56.083C305,-49.0059 305,-38.8611 305,-29.9865"/>
<polygon fill="midnightblue" stroke="midnightblue" points="308.5,-29.751 305,-19.7511 301.5,-29.7511 308.5,-29.751"/>
</g>
</g>
</svg>
