<?xml version="1.0" encoding="UTF-8" standalone="no"?>
<!DOCTYPE svg PUBLIC "-//W3C//DTD SVG 1.1//EN"
 "http://www.w3.org/Graphics/SVG/1.1/DTD/svg11.dtd">
<!-- Generated by graphviz version 2.38.0 (20140413.2041)
 -->
<!-- Title: src Pages: 1 -->
<svg width="94pt" height="292pt"
 viewBox="0.00 0.00 94.00 292.00" xmlns="http://www.w3.org/2000/svg" xmlns:xlink="http://www.w3.org/1999/xlink">
<g id="graph0" class="graph" transform="scale(1 1) rotate(0) translate(4 288)">
<title>src</title>
<polygon fill="white" stroke="none" points="-4,4 -4,-288 90,-288 90,4 -4,4"/>
<g id="clust1" class="cluster"><title>clusterdir_68267d1309a1af8e8297ef4c3efbcdba</title>
<g id="a_clust1"><a xlink:href="dir_68267d1309a1af8e8297ef4c3efbcdba.html" target="_top">
<polygon fill="#eeeeff" stroke="black" points="8,-8 8,-276 78,-276 78,-8 8,-8"/>
</a>
</g>
</g>
<!-- dir_68267d1309a1af8e8297ef4c3efbcdba -->
<g id="node1" class="node"><title>dir_68267d1309a1af8e8297ef4c3efbcdba</title>
<text text-anchor="middle" x="43" y="-247.5" font-family="Helvetica,sans-Serif" font-size="10.00">src</text>
</g>
<!-- dir_d8df8133fd423ab0135c9b11e904375e -->
<g id="node4" class="node"><title>dir_d8df8133fd423ab0135c9b11e904375e</title>
<g id="a_node4"><a xlink:href="dir_d8df8133fd423ab0135c9b11e904375e.html" target="_top" xlink:title="Test">
<polygon fill="white" stroke="black" points="70,-196 16,-196 16,-160 70,-160 70,-196"/>
<text text-anchor="middle" x="43" y="-175.5" font-family="Helvetica,sans-Serif" font-size="10.00">Test</text>
</a>
</g>
</g>
<!-- dir_68267d1309a1af8e8297ef4c3efbcdba&#45;&gt;dir_d8df8133fd423ab0135c9b11e904375e -->
<g id="edge2" class="edge"><title>dir_68267d1309a1af8e8297ef4c3efbcdba&#45;&gt;dir_d8df8133fd423ab0135c9b11e904375e</title>
<path fill="none" stroke="black" d="M43,-231.697C43,-223.983 43,-214.712 43,-206.112"/>
<polygon fill="black" stroke="black" points="46.5001,-206.104 43,-196.104 39.5001,-206.104 46.5001,-206.104"/>
<g id="a_edge2&#45;headlabel"><a xlink:href="dir_000000_000003.html" target="_top" xlink:title="1">
<text text-anchor="middle" x="49.3393" y="-207.199" font-family="Helvetica,sans-Serif" font-size="10.00">1</text>
</a>
</g>
</g>
<!-- dir_4814b1a558d470c33d85e65dbde02eaa -->
<g id="node2" class="node"><title>dir_4814b1a558d470c33d85e65dbde02eaa</title>
<g id="a_node2"><a xlink:href="dir_4814b1a558d470c33d85e65dbde02eaa.html" target="_top" xlink:title="Base">
<polygon fill="white" stroke="black" points="70,-124 16,-124 16,-88 70,-88 70,-124"/>
<text text-anchor="middle" x="43" y="-103.5" font-family="Helvetica,sans-Serif" font-size="10.00">Base</text>
</a>
</g>
</g>
<!-- dir_00ea2a5550464bf32f448b3dc22902e9 -->
<g id="node3" class="node"><title>dir_00ea2a5550464bf32f448b3dc22902e9</title>
<g id="a_node3"><a xlink:href="dir_00ea2a5550464bf32f448b3dc22902e9.html" target="_top" xlink:title="Controls">
<polygon fill="white" stroke="black" points="70,-52 16,-52 16,-16 70,-16 70,-52"/>
<text text-anchor="middle" x="43" y="-31.5" font-family="Helvetica,sans-Serif" font-size="10.00">Controls</text>
</a>
</g>
</g>
<!-- dir_4814b1a558d470c33d85e65dbde02eaa&#45;&gt;dir_00ea2a5550464bf32f448b3dc22902e9 -->
<g id="edge4" class="edge"><title>dir_4814b1a558d470c33d85e65dbde02eaa&#45;&gt;dir_00ea2a5550464bf32f448b3dc22902e9</title>
<path fill="none" stroke="black" d="M37.0843,-87.6966C36.2886,-79.9827 36.0621,-70.7125 36.4047,-62.1124"/>
<polygon fill="black" stroke="black" points="39.8984,-62.3243 37.105,-52.1043 32.9154,-61.8356 39.8984,-62.3243"/>
<g id="a_edge4&#45;headlabel"><a xlink:href="dir_000001_000002.html" target="_top" xlink:title="1">
<text text-anchor="middle" x="42.4799" y="-63.6083" font-family="Helvetica,sans-Serif" font-size="10.00">1</text>
</a>
</g>
</g>
<!-- dir_00ea2a5550464bf32f448b3dc22902e9&#45;&gt;dir_4814b1a558d470c33d85e65dbde02eaa -->
<g id="edge3" class="edge"><title>dir_00ea2a5550464bf32f448b3dc22902e9&#45;&gt;dir_4814b1a558d470c33d85e65dbde02eaa</title>
<path fill="none" stroke="black" d="M48.895,-52.1043C49.7005,-59.7913 49.9369,-69.0537 49.604,-77.6651"/>
<polygon fill="black" stroke="black" points="46.1085,-77.4805 48.9157,-87.6966 53.0921,-77.9597 46.1085,-77.4805"/>
<g id="a_edge3&#45;headlabel"><a xlink:href="dir_000002_000001.html" target="_top" xlink:title="2">
<text text-anchor="middle" x="43.5219" y="-71.2" font-family="Helvetica,sans-Serif" font-size="10.00">2</text>
</a>
</g>
</g>
<!-- dir_d8df8133fd423ab0135c9b11e904375e&#45;&gt;dir_4814b1a558d470c33d85e65dbde02eaa -->
<g id="edge1" class="edge"><title>dir_d8df8133fd423ab0135c9b11e904375e&#45;&gt;dir_4814b1a558d470c33d85e65dbde02eaa</title>
<path fill="none" stroke="black" d="M43,-159.697C43,-151.983 43,-142.712 43,-134.112"/>
<polygon fill="black" stroke="black" points="46.5001,-134.104 43,-124.104 39.5001,-134.104 46.5001,-134.104"/>
<g id="a_edge1&#45;headlabel"><a xlink:href="dir_000003_000001.html" target="_top" xlink:title="2">
<text text-anchor="middle" x="49.3393" y="-135.199" font-family="Helvetica,sans-Serif" font-size="10.00">2</text>
</a>
</g>
</g>
</g>
</svg>
