<?xml version="1.0" encoding="UTF-8" standalone="no"?>
<!DOCTYPE svg PUBLIC "-//W3C//DTD SVG 1.1//EN"
 "http://www.w3.org/Graphics/SVG/1.1/DTD/svg11.dtd">
<!-- Generated by graphviz version 2.38.0 (20140413.2041)
 -->
<!-- Title: Graphical Class Hierarchy Pages: 1 -->
<svg width="306pt" height="186pt"
 viewBox="0.00 0.00 306.00 186.00" xmlns="http://www.w3.org/2000/svg" xmlns:xlink="http://www.w3.org/1999/xlink">
<g id="graph0" class="graph" transform="scale(1 1) rotate(0) translate(4 182)">
<title>Graphical Class Hierarchy</title>
<polygon fill="white" stroke="none" points="-4,4 -4,-182 302,-182 302,4 -4,4"/>
<!-- Node0 -->
<g id="node1" class="node"><title>Node0</title>
<g id="a_node1"><a xlink:href="struct_control_1_1_control_manager.html" target="_top" xlink:title=" ">
<polygon fill="white" stroke="black" points="0,-79 0,-98 122,-98 122,-79 0,-79"/>
<text text-anchor="middle" x="61" y="-86" font-family="Helvetica,sans-Serif" font-size="10.00">Control::ControlManager</text>
</a>
</g>
</g>
<!-- Node1 -->
<g id="node2" class="node"><title>Node1</title>
<g id="a_node2"><a xlink:href="struct_control_1_1_control_manager_impl.html" target="_top" xlink:title=" ">
<polygon fill="white" stroke="black" points="158,-147.5 158,-177.5 298,-177.5 298,-147.5 158,-147.5"/>
<text text-anchor="start" x="166" y="-165.5" font-family="Helvetica,sans-Serif" font-size="10.00">Control::ControlManagerImpl</text>
<text text-anchor="middle" x="228" y="-154.5" font-family="Helvetica,sans-Serif" font-size="10.00">&lt; CT &gt;</text>
</a>
</g>
</g>
<!-- Node0&#45;&gt;Node1 -->
<g id="edge1" class="edge"><title>Node0&#45;&gt;Node1</title>
<path fill="none" stroke="midnightblue" d="M87.5782,-103.122C106.64,-113.697 133.499,-127.925 158,-138.5 165.22,-141.616 172.99,-144.631 180.62,-147.41"/>
<polygon fill="midnightblue" stroke="midnightblue" points="89.0682,-99.9453 78.6334,-98.1107 85.6467,-106.052 89.0682,-99.9453"/>
</g>
<!-- Node2 -->
<g id="node3" class="node"><title>Node2</title>
<g id="a_node3"><a xlink:href="struct_control_1_1_control_manager_impl.html" target="_top" xlink:title=" ">
<polygon fill="white" stroke="black" points="158,-98.5 158,-128.5 298,-128.5 298,-98.5 158,-98.5"/>
<text text-anchor="start" x="166" y="-116.5" font-family="Helvetica,sans-Serif" font-size="10.00">Control::ControlManagerImpl</text>
<text text-anchor="middle" x="228" y="-105.5" font-family="Helvetica,sans-Serif" font-size="10.00">&lt; Button &gt;</text>
</a>
</g>
</g>
<!-- Node0&#45;&gt;Node2 -->
<g id="edge2" class="edge"><title>Node0&#45;&gt;Node2</title>
<path fill="none" stroke="midnightblue" d="M131.961,-99.1002C140.508,-100.395 149.238,-101.718 157.774,-103.011"/>
<polygon fill="midnightblue" stroke="midnightblue" points="132.447,-95.6339 122.036,-97.5963 131.398,-102.555 132.447,-95.6339"/>
</g>
<!-- Node3 -->
<g id="node4" class="node"><title>Node3</title>
<g id="a_node4"><a xlink:href="struct_control_1_1_control_manager_impl.html" target="_top" xlink:title=" ">
<polygon fill="white" stroke="black" points="158,-49.5 158,-79.5 298,-79.5 298,-49.5 158,-49.5"/>
<text text-anchor="start" x="166" y="-67.5" font-family="Helvetica,sans-Serif" font-size="10.00">Control::ControlManagerImpl</text>
<text text-anchor="middle" x="228" y="-56.5" font-family="Helvetica,sans-Serif" font-size="10.00">&lt; Edit &gt;</text>
</a>
</g>
</g>
<!-- Node0&#45;&gt;Node3 -->
<g id="edge3" class="edge"><title>Node0&#45;&gt;Node3</title>
<path fill="none" stroke="midnightblue" d="M131.961,-78.3238C140.508,-77.0807 149.238,-75.8108 157.774,-74.5692"/>
<polygon fill="midnightblue" stroke="midnightblue" points="131.428,-74.8645 122.036,-79.7676 132.435,-81.7916 131.428,-74.8645"/>
</g>
<!-- Node4 -->
<g id="node5" class="node"><title>Node4</title>
<g id="a_node5"><a xlink:href="struct_control_1_1_control_manager_impl.html" target="_top" xlink:title=" ">
<polygon fill="white" stroke="black" points="158,-0.5 158,-30.5 298,-30.5 298,-0.5 158,-0.5"/>
<text text-anchor="start" x="166" y="-18.5" font-family="Helvetica,sans-Serif" font-size="10.00">Control::ControlManagerImpl</text>
<text text-anchor="middle" x="228" y="-7.5" font-family="Helvetica,sans-Serif" font-size="10.00">&lt; Progress &gt;</text>
</a>
</g>
</g>
<!-- Node0&#45;&gt;Node4 -->
<g id="edge4" class="edge"><title>Node0&#45;&gt;Node4</title>
<path fill="none" stroke="midnightblue" d="M88.7332,-74.0857C107.777,-64.0776 134.125,-50.7529 158,-40.5 165.961,-37.0812 174.561,-33.7147 182.899,-30.614"/>
<polygon fill="midnightblue" stroke="midnightblue" points="86.9512,-71.0689 79.7536,-78.8436 90.2286,-77.2543 86.9512,-71.0689"/>
</g>
</g>
</svg>
