<?xml version="1.0" encoding="UTF-8" standalone="no"?>
<!DOCTYPE svg PUBLIC "-//W3C//DTD SVG 1.1//EN"
 "http://www.w3.org/Graphics/SVG/1.1/DTD/svg11.dtd">
<!-- Generated by graphviz version 2.38.0 (20140413.2041)
 -->
<!-- Title: WndProc Pages: 1 -->
<!--zoomable 332 -->
<svg id="main" version="1.1" xmlns="http://www.w3.org/2000/svg" xmlns:xlink="http://www.w3.org/1999/xlink" xml:space="preserve" onload="init(evt)">
<style type="text/css"><![CDATA[
.edge:hover path { stroke: red; }
.edge:hover polygon { stroke: red; fill: red; }
]]></style>
<script type="text/javascript"><![CDATA[
var edges = document.getElementsByTagName('g');
if (edges && edges.length) {
  for (var i=0;i<edges.length;i++) {
    if (edges[i].id.substr(0,4)=='edge') {
      edges[i].setAttribute('class','edge');
    }
  }
}
]]></script>
        <defs>
                <circle id="rim" cx="0" cy="0" r="7"/>
                <circle id="rim2" cx="0" cy="0" r="3.5"/>
                <g id="zoomPlus">
                        <use xlink:href="#rim" fill="#404040">
                                <set attributeName="fill" to="#808080" begin="zoomplus.mouseover" end="zoomplus.mouseout"/>
                        </use>
                        <path d="M-4,0h8M0,-4v8" fill="none" stroke="white" stroke-width="1.5" pointer-events="none"/>
                </g>
                <g id="zoomMin">
                        <use xlink:href="#rim" fill="#404040">
                                <set attributeName="fill" to="#808080" begin="zoomminus.mouseover" end="zoomminus.mouseout"/>
                        </use>
                        <path d="M-4,0h8" fill="none" stroke="white" stroke-width="1.5" pointer-events="none"/>
                </g>
                <g id="dirArrow">
                        <path fill="none" stroke="white" stroke-width="1.5" d="M0,-3.0v7 M-2.5,-0.5L0,-3.0L2.5,-0.5"/>
                </g>
               <g id="resetDef">
                       <use xlink:href="#rim2" fill="#404040">
                               <set attributeName="fill" to="#808080" begin="reset.mouseover" end="reset.mouseout"/>
                       </use>
               </g>
        </defs>

<script type="text/javascript">
var viewWidth = 652;
var viewHeight = 332;
var sectionId = 'dynsection-8';
</script>
<script xlink:href="svgpan.js"/>
<svg id="graph" class="graph">
<g id="viewport">
<title>WndProc</title>
<polygon fill="white" stroke="none" points="-4,4 -4,-328 648,-328 648,4 -4,4"/>
<!-- Node1 -->
<g id="node1" class="node"><title>Node1</title>
<g id="a_node1"><a xlink:title="The declaration of the main message processing function.">
<polygon fill="#bfbfbf" stroke="black" points="0,-190.5 0,-209.5 57,-209.5 57,-190.5 0,-190.5"/>
<text text-anchor="middle" x="28.5" y="-197.5" font-family="Helvetica,sans-Serif" font-size="10.00">WndProc</text>
</a>
</g>
</g>
<!-- Node2 -->
<g id="node2" class="node"><title>Node2</title>
<g id="a_node2"><a xlink:href="class_button.html#a4b47ae117b554b76c7681d0dc0f6b59a" target="_top" xlink:title=" ">
<polygon fill="white" stroke="black" points="111.5,-266.5 111.5,-285.5 189.5,-285.5 189.5,-266.5 111.5,-266.5"/>
<text text-anchor="middle" x="150.5" y="-273.5" font-family="Helvetica,sans-Serif" font-size="10.00">Button::create</text>
</a>
</g>
</g>
<!-- Node1&#45;&gt;Node2 -->
<g id="edge1" class="edge"><title>Node1&#45;&gt;Node2</title>
<path fill="none" stroke="midnightblue" d="M38.0178,-209.801C49.3998,-222.349 70.733,-244.014 93,-257 96.6206,-259.111 100.51,-261.03 104.492,-262.765"/>
<polygon fill="midnightblue" stroke="midnightblue" points="103.283,-266.051 113.869,-266.481 105.862,-259.543 103.283,-266.051"/>
</g>
<!-- Node5 -->
<g id="node5" class="node"><title>Node5</title>
<g id="a_node5"><a xlink:href="class_edit.html#ab18ca6e3077d72996f0599d984283636" target="_top" xlink:title=" ">
<polygon fill="white" stroke="black" points="261,-304.5 261,-323.5 328,-323.5 328,-304.5 261,-304.5"/>
<text text-anchor="middle" x="294.5" y="-311.5" font-family="Helvetica,sans-Serif" font-size="10.00">Edit::create</text>
</a>
</g>
</g>
<!-- Node1&#45;&gt;Node5 -->
<g id="edge4" class="edge"><title>Node1&#45;&gt;Node5</title>
<path fill="none" stroke="midnightblue" d="M32.7162,-209.621C39.9276,-229.512 59.4401,-274.973 93,-295 141.125,-323.719 207.586,-323.924 250.556,-320.062"/>
<polygon fill="midnightblue" stroke="midnightblue" points="251.086,-323.527 260.683,-319.038 250.381,-316.562 251.086,-323.527"/>
</g>
<!-- Node6 -->
<g id="node6" class="node"><title>Node6</title>
<g id="a_node6"><a xlink:href="class_button.html#a4ade92d5ac85d581c0bfe5c04bc7e1f1" target="_top" xlink:title=" ">
<polygon fill="white" stroke="black" points="107.5,-228.5 107.5,-247.5 193.5,-247.5 193.5,-228.5 107.5,-228.5"/>
<text text-anchor="middle" x="150.5" y="-235.5" font-family="Helvetica,sans-Serif" font-size="10.00">Button::execute</text>
</a>
</g>
</g>
<!-- Node1&#45;&gt;Node6 -->
<g id="edge6" class="edge"><title>Node1&#45;&gt;Node6</title>
<path fill="none" stroke="midnightblue" d="M57.0304,-208.718C72.5324,-213.627 92.1724,-219.846 109.361,-225.289"/>
<polygon fill="midnightblue" stroke="midnightblue" points="108.559,-228.706 119.149,-228.389 110.672,-222.033 108.559,-228.706"/>
</g>
<!-- Node7 -->
<g id="node7" class="node"><title>Node7</title>
<g id="a_node7"><a xlink:href="main_8cpp.html#abdf0523e10fae27868b24d21a841e926" target="_top" xlink:title="All the magic is here :&#45;)">
<polygon fill="white" stroke="black" points="109,-76.5 109,-95.5 192,-95.5 192,-76.5 109,-76.5"/>
<text text-anchor="middle" x="150.5" y="-83.5" font-family="Helvetica,sans-Serif" font-size="10.00">OnStartClicked</text>
</a>
</g>
</g>
<!-- Node1&#45;&gt;Node7 -->
<g id="edge7" class="edge"><title>Node1&#45;&gt;Node7</title>
<path fill="none" stroke="midnightblue" d="M39.7311,-190.28C60.1885,-170.846 106.354,-126.989 131.815,-102.801"/>
<polygon fill="midnightblue" stroke="midnightblue" points="134.455,-105.12 139.295,-95.695 129.634,-100.045 134.455,-105.12"/>
</g>
<!-- Node13 -->
<g id="node13" class="node"><title>Node13</title>
<g id="a_node13"><a xlink:href="main_8cpp.html#a1870be22060f25a2595afa09934e9784" target="_top" xlink:title=" ">
<polygon fill="white" stroke="black" points="100,-152.5 100,-171.5 201,-171.5 201,-152.5 100,-152.5"/>
<text text-anchor="middle" x="150.5" y="-159.5" font-family="Helvetica,sans-Serif" font-size="10.00">OnStartTestClicked</text>
</a>
</g>
</g>
<!-- Node1&#45;&gt;Node13 -->
<g id="edge13" class="edge"><title>Node1&#45;&gt;Node13</title>
<path fill="none" stroke="midnightblue" d="M57.0304,-191.282C72.5324,-186.373 92.1724,-180.154 109.361,-174.711"/>
<polygon fill="midnightblue" stroke="midnightblue" points="110.672,-177.967 119.149,-171.611 108.559,-171.294 110.672,-177.967"/>
</g>
<!-- Node18 -->
<g id="node18" class="node"><title>Node18</title>
<g id="a_node18"><a xlink:href="main_8cpp.html#a6e6bef72e348d49296a2aa278ce80ca6" target="_top" xlink:title="Thread&#45;Test&#45;Button event handler.">
<polygon fill="white" stroke="black" points="95.5,-190.5 95.5,-209.5 205.5,-209.5 205.5,-190.5 95.5,-190.5"/>
<text text-anchor="middle" x="150.5" y="-197.5" font-family="Helvetica,sans-Serif" font-size="10.00">OnThreadTestClicked</text>
</a>
</g>
</g>
<!-- Node1&#45;&gt;Node18 -->
<g id="edge19" class="edge"><title>Node1&#45;&gt;Node18</title>
<path fill="none" stroke="midnightblue" d="M57.0304,-200C65.4528,-200 75.0967,-200 84.9053,-200"/>
<polygon fill="midnightblue" stroke="midnightblue" points="85.1423,-203.5 95.1423,-200 85.1423,-196.5 85.1423,-203.5"/>
</g>
<!-- Node19 -->
<g id="node19" class="node"><title>Node19</title>
<g id="a_node19"><a xlink:href="class_thread.html#af0bd96245e2b765b410f8dd2d1aeeb69" target="_top" xlink:title="Processes maxElements in the running thread.">
<polygon fill="white" stroke="black" points="93,-38.5 93,-57.5 208,-57.5 208,-38.5 93,-38.5"/>
<text text-anchor="middle" x="150.5" y="-45.5" font-family="Helvetica,sans-Serif" font-size="10.00">Thread::processQueue</text>
</a>
</g>
</g>
<!-- Node1&#45;&gt;Node19 -->
<g id="edge22" class="edge"><title>Node1&#45;&gt;Node19</title>
<path fill="none" stroke="midnightblue" d="M31.3813,-190.409C36.6357,-166.144 53.7345,-101.779 93,-67 94.9319,-65.2889 97.0235,-63.7308 99.2255,-62.3122"/>
<polygon fill="midnightblue" stroke="midnightblue" points="101.014,-65.3247 108.161,-57.5035 97.6961,-59.1606 101.014,-65.3247"/>
</g>
<!-- Node3 -->
<g id="node3" class="node"><title>Node3</title>
<g id="a_node3"><a xlink:href="class_control.html#a5556f2e0a0d67ccba4981ddc8c39d2c3" target="_top" xlink:title=" ">
<polygon fill="white" stroke="black" points="254.5,-266.5 254.5,-285.5 334.5,-285.5 334.5,-266.5 254.5,-266.5"/>
<text text-anchor="middle" x="294.5" y="-273.5" font-family="Helvetica,sans-Serif" font-size="10.00">Control::create</text>
</a>
</g>
</g>
<!-- Node2&#45;&gt;Node3 -->
<g id="edge2" class="edge"><title>Node2&#45;&gt;Node3</title>
<path fill="none" stroke="midnightblue" d="M189.553,-276C206.388,-276 226.398,-276 244.345,-276"/>
<polygon fill="midnightblue" stroke="midnightblue" points="244.351,-279.5 254.351,-276 244.351,-272.5 244.351,-279.5"/>
</g>
<!-- Node4 -->
<g id="node4" class="node"><title>Node4</title>
<g id="a_node4"><a xlink:href="class_control.html#af9a3acf49973e5a31594f30e979246b0" target="_top" xlink:title=" ">
<polygon fill="white" stroke="black" points="409,-285.5 409,-304.5 486,-304.5 486,-285.5 409,-285.5"/>
<text text-anchor="middle" x="447.5" y="-292.5" font-family="Helvetica,sans-Serif" font-size="10.00">Control::insert</text>
</a>
</g>
</g>
<!-- Node3&#45;&gt;Node4 -->
<g id="edge3" class="edge"><title>Node3&#45;&gt;Node4</title>
<path fill="none" stroke="midnightblue" d="M334.779,-280.942C354.365,-283.407 378.212,-286.408 398.837,-289.003"/>
<polygon fill="midnightblue" stroke="midnightblue" points="398.62,-292.503 408.979,-290.279 399.494,-285.558 398.62,-292.503"/>
</g>
<!-- Node5&#45;&gt;Node4 -->
<g id="edge5" class="edge"><title>Node5&#45;&gt;Node4</title>
<path fill="none" stroke="midnightblue" d="M328.265,-309.877C348.8,-307.293 375.623,-303.918 398.53,-301.036"/>
<polygon fill="midnightblue" stroke="midnightblue" points="399.257,-304.472 408.742,-299.751 398.383,-297.527 399.257,-304.472"/>
</g>
<!-- Node8 -->
<g id="node8" class="node"><title>Node8</title>
<g id="a_node8"><a xlink:href="class_thread.html#abf7db5b09bd25b345e80577f71321ee9" target="_top" xlink:title="The code that will be enqued in the threads task queue.">
<polygon fill="white" stroke="black" points="403,-190.5 403,-209.5 492,-209.5 492,-190.5 403,-190.5"/>
<text text-anchor="middle" x="447.5" y="-197.5" font-family="Helvetica,sans-Serif" font-size="10.00">Thread::enqueue</text>
</a>
</g>
</g>
<!-- Node7&#45;&gt;Node8 -->
<g id="edge8" class="edge"><title>Node7&#45;&gt;Node8</title>
<path fill="none" stroke="midnightblue" d="M192.252,-81.2853C233.304,-78.4559 297.235,-79.4324 345,-105 367.276,-116.924 362.919,-131.351 381,-149 394.323,-162.005 410.88,-174.872 424.014,-184.429"/>
<polygon fill="midnightblue" stroke="midnightblue" points="422.306,-187.511 432.478,-190.477 426.376,-181.815 422.306,-187.511"/>
</g>
<!-- Node10 -->
<g id="node10" class="node"><title>Node10</title>
<g id="a_node10"><a xlink:href="class_thread.html#ada9adb041744058adc9abb1744e86c5d" target="_top" xlink:title="The code that will be executed, after the new Thread is started.">
<polygon fill="white" stroke="black" points="259,-0.5 259,-19.5 330,-19.5 330,-0.5 259,-0.5"/>
<text text-anchor="middle" x="294.5" y="-7.5" font-family="Helvetica,sans-Serif" font-size="10.00">Thread::start</text>
</a>
</g>
</g>
<!-- Node7&#45;&gt;Node10 -->
<g id="edge10" class="edge"><title>Node7&#45;&gt;Node10</title>
<path fill="none" stroke="midnightblue" d="M188.563,-76.4383C195.303,-73.9043 202.069,-70.7881 208,-67 227.606,-54.4769 224.662,-41.9329 244,-29 246.88,-27.0739 249.983,-25.3034 253.182,-23.6844"/>
<polygon fill="midnightblue" stroke="midnightblue" points="254.688,-26.8446 262.343,-19.5196 251.791,-20.4723 254.688,-26.8446"/>
</g>
<!-- Node12 -->
<g id="node12" class="node"><title>Node12</title>
<g id="a_node12"><a xlink:href="class_thread.html#abd50159ecd409936f454c2321f673616" target="_top" xlink:title="Method to stop the Trhead.">
<polygon fill="white" stroke="black" points="259,-38.5 259,-57.5 330,-57.5 330,-38.5 259,-38.5"/>
<text text-anchor="middle" x="294.5" y="-45.5" font-family="Helvetica,sans-Serif" font-size="10.00">Thread::stop</text>
</a>
</g>
</g>
<!-- Node7&#45;&gt;Node12 -->
<g id="edge12" class="edge"><title>Node7&#45;&gt;Node12</title>
<path fill="none" stroke="midnightblue" d="M187.333,-76.411C206.029,-71.4078 229.077,-65.2399 248.916,-59.9308"/>
<polygon fill="midnightblue" stroke="midnightblue" points="249.905,-63.2894 258.661,-57.3232 248.096,-56.5273 249.905,-63.2894"/>
</g>
<!-- Node9 -->
<g id="node9" class="node"><title>Node9</title>
<g id="a_node9"><a xlink:href="class_thread.html#a3ee4bd6db78554c9ea75cf242b8ae273" target="_top" xlink:title="push the functor in the queue">
<polygon fill="white" stroke="black" points="550,-190.5 550,-209.5 644,-209.5 644,-190.5 550,-190.5"/>
<text text-anchor="middle" x="597" y="-197.5" font-family="Helvetica,sans-Serif" font-size="10.00">Thread::enqueue_</text>
</a>
</g>
</g>
<!-- Node8&#45;&gt;Node9 -->
<g id="edge9" class="edge"><title>Node8&#45;&gt;Node9</title>
<path fill="none" stroke="midnightblue" d="M492.356,-200C507.193,-200 523.974,-200 539.644,-200"/>
<polygon fill="midnightblue" stroke="midnightblue" points="539.75,-203.5 549.75,-200 539.75,-196.5 539.75,-203.5"/>
</g>
<!-- Node11 -->
<g id="node11" class="node"><title>Node11</title>
<g id="a_node11"><a xlink:href="class_thread.html#af1a12dd97c3644116d394f655ca63c86" target="_top" xlink:title=" ">
<polygon fill="white" stroke="black" points="409,-0.5 409,-19.5 486,-19.5 486,-0.5 409,-0.5"/>
<text text-anchor="middle" x="447.5" y="-7.5" font-family="Helvetica,sans-Serif" font-size="10.00">Thread::start_</text>
</a>
</g>
</g>
<!-- Node10&#45;&gt;Node11 -->
<g id="edge11" class="edge"><title>Node10&#45;&gt;Node11</title>
<path fill="none" stroke="midnightblue" d="M330.142,-10C350.437,-10 376.369,-10 398.599,-10"/>
<polygon fill="midnightblue" stroke="midnightblue" points="398.845,-13.5001 408.845,-10 398.845,-6.5001 398.845,-13.5001"/>
</g>
<!-- Node14 -->
<g id="node14" class="node"><title>Node14</title>
<g id="a_node14"><a xlink:href="class_edit.html#a3ced1bcf14de542e25d512991bcfed2f" target="_top" xlink:title=" ">
<polygon fill="white" stroke="black" points="266.5,-190.5 266.5,-209.5 322.5,-209.5 322.5,-190.5 266.5,-190.5"/>
<text text-anchor="middle" x="294.5" y="-197.5" font-family="Helvetica,sans-Serif" font-size="10.00">Edit::add</text>
</a>
</g>
</g>
<!-- Node13&#45;&gt;Node14 -->
<g id="edge14" class="edge"><title>Node13&#45;&gt;Node14</title>
<path fill="none" stroke="midnightblue" d="M187.333,-171.589C208.469,-177.245 235.169,-184.39 256.505,-190.1"/>
<polygon fill="midnightblue" stroke="midnightblue" points="255.63,-193.489 266.195,-192.693 257.439,-186.727 255.63,-193.489"/>
</g>
<!-- Node15 -->
<g id="node15" class="node"><title>Node15</title>
<g id="a_node15"><a xlink:href="output_8hpp.html#a40ccb49bbe6f7e94ed2bc2dc6cd7e8d0" target="_top" xlink:title=" ">
<polygon fill="white" stroke="black" points="272.5,-152.5 272.5,-171.5 316.5,-171.5 316.5,-152.5 272.5,-152.5"/>
<text text-anchor="middle" x="294.5" y="-159.5" font-family="Helvetica,sans-Serif" font-size="10.00">format</text>
</a>
</g>
</g>
<!-- Node13&#45;&gt;Node15 -->
<g id="edge16" class="edge"><title>Node13&#45;&gt;Node15</title>
<path fill="none" stroke="midnightblue" d="M201.165,-162C221.394,-162 244.171,-162 262.041,-162"/>
<polygon fill="midnightblue" stroke="midnightblue" points="262.203,-165.5 272.203,-162 262.203,-158.5 262.203,-165.5"/>
</g>
<!-- Node16 -->
<g id="node16" class="node"><title>Node16</title>
<g id="a_node16"><a xlink:href="class_test_case.html#a67dbda1a6ccebdf1c834c54fce361a6a" target="_top" xlink:title=" ">
<polygon fill="white" stroke="black" points="244,-114.5 244,-133.5 345,-133.5 345,-114.5 244,-114.5"/>
<text text-anchor="middle" x="294.5" y="-121.5" font-family="Helvetica,sans-Serif" font-size="10.00">TestCase::runTests</text>
</a>
</g>
</g>
<!-- Node13&#45;&gt;Node16 -->
<g id="edge17" class="edge"><title>Node13&#45;&gt;Node16</title>
<path fill="none" stroke="midnightblue" d="M187.333,-152.411C205.663,-147.506 228.178,-141.48 247.75,-136.243"/>
<polygon fill="midnightblue" stroke="midnightblue" points="248.924,-139.552 257.679,-133.586 247.114,-132.79 248.924,-139.552"/>
</g>
<!-- Node14&#45;&gt;Node8 -->
<g id="edge15" class="edge"><title>Node14&#45;&gt;Node8</title>
<path fill="none" stroke="midnightblue" d="M322.845,-200C342.242,-200 368.916,-200 392.526,-200"/>
<polygon fill="midnightblue" stroke="midnightblue" points="392.772,-203.5 402.772,-200 392.772,-196.5 392.772,-203.5"/>
</g>
<!-- Node17 -->
<g id="node17" class="node"><title>Node17</title>
<g id="a_node17"><a xlink:href="namespaceanonymous__namespace_02_test_case_8cpp_03.html#a4073e77346d8adea8ac92f2e309de1aa" target="_top" xlink:title=" ">
<polygon fill="white" stroke="black" points="381,-109 381,-139 514,-139 514,-109 381,-109"/>
<text text-anchor="start" x="389" y="-127" font-family="Helvetica,sans-Serif" font-size="10.00">anonymous_namespace</text>
<text text-anchor="middle" x="447.5" y="-116" font-family="Helvetica,sans-Serif" font-size="10.00">{TestCase::cpp}::getCases</text>
</a>
</g>
</g>
<!-- Node16&#45;&gt;Node17 -->
<g id="edge18" class="edge"><title>Node16&#45;&gt;Node17</title>
<path fill="none" stroke="midnightblue" d="M345.362,-124C353.512,-124 362.114,-124 370.721,-124"/>
<polygon fill="midnightblue" stroke="midnightblue" points="370.801,-127.5 380.801,-124 370.801,-120.5 370.801,-127.5"/>
</g>
<!-- Node18&#45;&gt;Node8 -->
<g id="edge21" class="edge"><title>Node18&#45;&gt;Node8</title>
<path fill="none" stroke="midnightblue" d="M189.037,-209.51C205.744,-213.274 225.732,-217.143 244,-219 288.659,-223.539 300.303,-223.147 345,-219 361.401,-217.478 379.102,-214.602 395.059,-211.538"/>
<polygon fill="midnightblue" stroke="midnightblue" points="396.136,-214.893 405.262,-209.511 394.771,-208.027 396.136,-214.893"/>
</g>
<!-- Node18&#45;&gt;Node14 -->
<g id="edge20" class="edge"><title>Node18&#45;&gt;Node14</title>
<path fill="none" stroke="midnightblue" d="M205.589,-200C222.401,-200 240.556,-200 255.978,-200"/>
<polygon fill="midnightblue" stroke="midnightblue" points="256.168,-203.5 266.168,-200 256.168,-196.5 256.168,-203.5"/>
</g>
</g>
</svg>
        <g id="navigator" transform="translate(0 0)" fill="#404254">
                <rect fill="#f2f5e9" fill-opacity="0.5" stroke="#606060" stroke-width=".5" x="0" y="0" width="60" height="60"/>
                <use id="zoomplus" xlink:href="#zoomPlus" x="17" y="9" onmousedown="handleZoom(evt,'in')"/>
                <use id="zoomminus" xlink:href="#zoomMin" x="42" y="9" onmousedown="handleZoom(evt,'out')"/>
                <use id="reset" xlink:href="#resetDef" x="30" y="36" onmousedown="handleReset()"/>
                <g id="arrowUp" xlink:href="#dirArrow" transform="translate(30 24)" onmousedown="handlePan(0,-1)">
                  <use xlink:href="#rim" fill="#404040">
                        <set attributeName="fill" to="#808080" begin="arrowUp.mouseover" end="arrowUp.mouseout"/>
                  </use>
                  <path fill="none" stroke="white" stroke-width="1.5" d="M0,-3.0v7 M-2.5,-0.5L0,-3.0L2.5,-0.5"/>
                </g>
                <g id="arrowRight" xlink:href="#dirArrow" transform="rotate(90) translate(36 -43)" onmousedown="handlePan(1,0)">
                  <use xlink:href="#rim" fill="#404040">
                        <set attributeName="fill" to="#808080" begin="arrowRight.mouseover" end="arrowRight.mouseout"/>
                  </use>
                  <path fill="none" stroke="white" stroke-width="1.5" d="M0,-3.0v7 M-2.5,-0.5L0,-3.0L2.5,-0.5"/>
                </g>
                <g id="arrowDown" xlink:href="#dirArrow" transform="rotate(180) translate(-30 -48)" onmousedown="handlePan(0,1)">
                  <use xlink:href="#rim" fill="#404040">
                        <set attributeName="fill" to="#808080" begin="arrowDown.mouseover" end="arrowDown.mouseout"/>
                  </use>
                  <path fill="none" stroke="white" stroke-width="1.5" d="M0,-3.0v7 M-2.5,-0.5L0,-3.0L2.5,-0.5"/>
                </g>
                <g id="arrowLeft" xlink:href="#dirArrow" transform="rotate(270) translate(-36 17)" onmousedown="handlePan(-1,0)">
                  <use xlink:href="#rim" fill="#404040">
                        <set attributeName="fill" to="#808080" begin="arrowLeft.mouseover" end="arrowLeft.mouseout"/>
                  </use>
                  <path fill="none" stroke="white" stroke-width="1.5" d="M0,-3.0v7 M-2.5,-0.5L0,-3.0L2.5,-0.5"/>
                </g>
        </g>
        <svg viewBox="0 0 15 15" width="100%" height="30px" preserveAspectRatio="xMaxYMin meet">
         <g id="arrow_out" transform="scale(0.3 0.3)">
          <a xlink:href="main_8cpp_a30a1e3b0304f1b083637664cbda94e72_cgraph_org.svg" target="_base">
           <rect id="button" ry="5" rx="5" y="6" x="6" height="38" width="38"
                fill="#f2f5e9" fill-opacity="0.5" stroke="#606060" stroke-width="1.0"/>
           <path id="arrow"
             d="M 11.500037,31.436501 C 11.940474,20.09759 22.043105,11.32322 32.158766,21.979434 L 37.068811,17.246167 C 37.068811,17.246167 37.088388,32 37.088388,32 L 22.160133,31.978069 C 22.160133,31.978069 26.997745,27.140456 26.997745,27.140456 C 18.528582,18.264221 13.291696,25.230495 11.500037,31.436501 z"
             style="fill:#404040;"/>
          </a>
         </g>
        </svg>
</svg>
