<?xml version="1.0" encoding="UTF-8" standalone="no"?>
<!DOCTYPE svg PUBLIC "-//W3C//DTD SVG 1.1//EN"
 "http://www.w3.org/Graphics/SVG/1.1/DTD/svg11.dtd">
<!-- Generated by graphviz version 2.38.0 (20140413.2041)
 -->
<!-- Title: WndProc Pages: 1 -->
<svg width="1095pt" height="370pt"
 viewBox="0.00 0.00 1095.00 370.00" xmlns="http://www.w3.org/2000/svg" xmlns:xlink="http://www.w3.org/1999/xlink">
<g id="graph0" class="graph" transform="scale(1 1) rotate(0) translate(4 366)">
<title>WndProc</title>
<polygon fill="white" stroke="none" points="-4,4 -4,-366 1091,-366 1091,4 -4,4"/>
<!-- Node1 -->
<g id="node1" class="node"><title>Node1</title>
<g id="a_node1"><a xlink:title="The declaration of the main message processing function.">
<polygon fill="#bfbfbf" stroke="black" points="0,-195.5 0,-214.5 57,-214.5 57,-195.5 0,-195.5"/>
<text text-anchor="middle" x="28.5" y="-202.5" font-family="Helvetica,sans-Serif" font-size="10.00">WndProc</text>
</a>
</g>
</g>
<!-- Node2 -->
<g id="node2" class="node"><title>Node2</title>
<g id="a_node2"><a xlink:href="class_button.html#a4b47ae117b554b76c7681d0dc0f6b59a" target="_top" xlink:title=" ">
<polygon fill="white" stroke="black" points="111.5,-337.5 111.5,-356.5 189.5,-356.5 189.5,-337.5 111.5,-337.5"/>
<text text-anchor="middle" x="150.5" y="-344.5" font-family="Helvetica,sans-Serif" font-size="10.00">Button::create</text>
</a>
</g>
</g>
<!-- Node1&#45;&gt;Node2 -->
<g id="edge1" class="edge"><title>Node1&#45;&gt;Node2</title>
<path fill="none" stroke="midnightblue" d="M33.0824,-214.525C41.1278,-234.894 62.3547,-283.32 93,-314 100.269,-321.277 109.464,-327.535 118.314,-332.584"/>
<polygon fill="midnightblue" stroke="midnightblue" points="116.847,-335.769 127.315,-337.4 120.149,-329.596 116.847,-335.769"/>
</g>
<!-- Node5 -->
<g id="node5" class="node"><title>Node5</title>
<g id="a_node5"><a xlink:href="class_edit.html#ab18ca6e3077d72996f0599d984283636" target="_top" xlink:title=" ">
<polygon fill="white" stroke="black" points="261,-304.5 261,-323.5 328,-323.5 328,-304.5 261,-304.5"/>
<text text-anchor="middle" x="294.5" y="-311.5" font-family="Helvetica,sans-Serif" font-size="10.00">Edit::create</text>
</a>
</g>
</g>
<!-- Node1&#45;&gt;Node5 -->
<g id="edge4" class="edge"><title>Node1&#45;&gt;Node5</title>
<path fill="none" stroke="midnightblue" d="M37.4975,-214.608C48.6283,-227.352 70.0272,-249.669 93,-262 143.493,-289.103 208.817,-302.613 250.942,-308.951"/>
<polygon fill="midnightblue" stroke="midnightblue" points="250.471,-312.419 260.867,-310.376 251.466,-305.49 250.471,-312.419"/>
</g>
<!-- Node6 -->
<g id="node6" class="node"><title>Node6</title>
<g id="a_node6"><a xlink:href="class_button.html#a4ade92d5ac85d581c0bfe5c04bc7e1f1" target="_top" xlink:title=" ">
<polygon fill="white" stroke="black" points="107.5,-233.5 107.5,-252.5 193.5,-252.5 193.5,-233.5 107.5,-233.5"/>
<text text-anchor="middle" x="150.5" y="-240.5" font-family="Helvetica,sans-Serif" font-size="10.00">Button::execute</text>
</a>
</g>
</g>
<!-- Node1&#45;&gt;Node6 -->
<g id="edge6" class="edge"><title>Node1&#45;&gt;Node6</title>
<path fill="none" stroke="midnightblue" d="M57.0304,-213.718C72.5324,-218.627 92.1724,-224.846 109.361,-230.289"/>
<polygon fill="midnightblue" stroke="midnightblue" points="108.559,-233.706 119.149,-233.389 110.672,-227.033 108.559,-233.706"/>
</g>
<!-- Node7 -->
<g id="node7" class="node"><title>Node7</title>
<g id="a_node7"><a xlink:href="main_8cpp.html#abdf0523e10fae27868b24d21a841e926" target="_top" xlink:title="All the magic is here :&#45;)">
<polygon fill="white" stroke="black" points="109,-195.5 109,-214.5 192,-214.5 192,-195.5 109,-195.5"/>
<text text-anchor="middle" x="150.5" y="-202.5" font-family="Helvetica,sans-Serif" font-size="10.00">OnStartClicked</text>
</a>
</g>
</g>
<!-- Node1&#45;&gt;Node7 -->
<g id="edge7" class="edge"><title>Node1&#45;&gt;Node7</title>
<path fill="none" stroke="midnightblue" d="M57.0304,-205C69.3916,-205 84.3838,-205 98.6664,-205"/>
<polygon fill="midnightblue" stroke="midnightblue" points="98.8931,-208.5 108.893,-205 98.8931,-201.5 98.8931,-208.5"/>
</g>
<!-- Node17 -->
<g id="node17" class="node"><title>Node17</title>
<g id="a_node17"><a xlink:href="main_8cpp.html#a1870be22060f25a2595afa09934e9784" target="_top" xlink:title=" ">
<polygon fill="white" stroke="black" points="100,-138.5 100,-157.5 201,-157.5 201,-138.5 100,-138.5"/>
<text text-anchor="middle" x="150.5" y="-145.5" font-family="Helvetica,sans-Serif" font-size="10.00">OnStartTestClicked</text>
</a>
</g>
</g>
<!-- Node1&#45;&gt;Node17 -->
<g id="edge18" class="edge"><title>Node1&#45;&gt;Node17</title>
<path fill="none" stroke="midnightblue" d="M49.5853,-195.459C68.8812,-186.294 98.2568,-172.341 120.169,-161.932"/>
<polygon fill="midnightblue" stroke="midnightblue" points="121.818,-165.024 129.349,-157.572 118.815,-158.701 121.818,-165.024"/>
</g>
<!-- Node21 -->
<g id="node21" class="node"><title>Node21</title>
<g id="a_node21"><a xlink:href="main_8cpp.html#a6e6bef72e348d49296a2aa278ce80ca6" target="_top" xlink:title="Thread&#45;Test&#45;Button event handler.">
<polygon fill="white" stroke="black" points="562,-114.5 562,-133.5 672,-133.5 672,-114.5 562,-114.5"/>
<text text-anchor="middle" x="617" y="-121.5" font-family="Helvetica,sans-Serif" font-size="10.00">OnThreadTestClicked</text>
</a>
</g>
</g>
<!-- Node1&#45;&gt;Node21 -->
<g id="edge23" class="edge"><title>Node1&#45;&gt;Node21</title>
<path fill="none" stroke="midnightblue" d="M35.3598,-195.299C45.3695,-179.455 67.2001,-147.898 93,-129 151.527,-86.1307 172.824,-81.0434 244,-67 361.73,-43.7711 397.874,-36.7542 514,-67 544.643,-74.9811 575.839,-94.4211 595.522,-108.379"/>
<polygon fill="midnightblue" stroke="midnightblue" points="593.568,-111.286 603.711,-114.345 597.69,-105.628 593.568,-111.286"/>
</g>
<!-- Node22 -->
<g id="node22" class="node"><title>Node22</title>
<g id="a_node22"><a xlink:href="class_thread.html#af0bd96245e2b765b410f8dd2d1aeeb69" target="_top" xlink:title="Arbeitet im laufenden Thread maxElements ab.">
<polygon fill="white" stroke="black" points="93,-0.5 93,-19.5 208,-19.5 208,-0.5 93,-0.5"/>
<text text-anchor="middle" x="150.5" y="-7.5" font-family="Helvetica,sans-Serif" font-size="10.00">Thread::processQueue</text>
</a>
</g>
</g>
<!-- Node1&#45;&gt;Node22 -->
<g id="edge26" class="edge"><title>Node1&#45;&gt;Node22</title>
<path fill="none" stroke="midnightblue" d="M30.4188,-195.486C33.6386,-167.156 46.853,-82.3259 93,-34 96.6329,-30.1956 100.965,-26.966 105.592,-24.231"/>
<polygon fill="midnightblue" stroke="midnightblue" points="107.43,-27.2225 114.747,-19.56 104.249,-20.9872 107.43,-27.2225"/>
</g>
<!-- Node3 -->
<g id="node3" class="node"><title>Node3</title>
<g id="a_node3"><a xlink:href="class_control.html#a5556f2e0a0d67ccba4981ddc8c39d2c3" target="_top" xlink:title=" ">
<polygon fill="white" stroke="black" points="254.5,-342.5 254.5,-361.5 334.5,-361.5 334.5,-342.5 254.5,-342.5"/>
<text text-anchor="middle" x="294.5" y="-349.5" font-family="Helvetica,sans-Serif" font-size="10.00">Control::create</text>
</a>
</g>
</g>
<!-- Node2&#45;&gt;Node3 -->
<g id="edge2" class="edge"><title>Node2&#45;&gt;Node3</title>
<path fill="none" stroke="midnightblue" d="M189.553,-348.34C206.388,-348.933 226.398,-349.637 244.345,-350.269"/>
<polygon fill="midnightblue" stroke="midnightblue" points="244.234,-353.767 254.351,-350.622 244.481,-346.772 244.234,-353.767"/>
</g>
<!-- Node4 -->
<g id="node4" class="node"><title>Node4</title>
<g id="a_node4"><a xlink:href="class_control.html#af9a3acf49973e5a31594f30e979246b0" target="_top" xlink:title=" ">
<polygon fill="white" stroke="black" points="409,-323.5 409,-342.5 486,-342.5 486,-323.5 409,-323.5"/>
<text text-anchor="middle" x="447.5" y="-330.5" font-family="Helvetica,sans-Serif" font-size="10.00">Control::insert</text>
</a>
</g>
</g>
<!-- Node3&#45;&gt;Node4 -->
<g id="edge3" class="edge"><title>Node3&#45;&gt;Node4</title>
<path fill="none" stroke="midnightblue" d="M334.779,-347.058C354.365,-344.593 378.212,-341.592 398.837,-338.997"/>
<polygon fill="midnightblue" stroke="midnightblue" points="399.494,-342.442 408.979,-337.721 398.62,-335.497 399.494,-342.442"/>
</g>
<!-- Node5&#45;&gt;Node4 -->
<g id="edge5" class="edge"><title>Node5&#45;&gt;Node4</title>
<path fill="none" stroke="midnightblue" d="M328.265,-318.123C348.8,-320.707 375.623,-324.082 398.53,-326.964"/>
<polygon fill="midnightblue" stroke="midnightblue" points="398.383,-330.473 408.742,-328.249 399.257,-323.528 398.383,-330.473"/>
</g>
<!-- Node8 -->
<g id="node8" class="node"><title>Node8</title>
<g id="a_node8"><a xlink:href="class_thread.html#adb11ad65376e640d84d47f0394f94f10" target="_top" xlink:title="The code that will be enqued in the threads task queue.">
<polygon fill="white" stroke="black" points="895,-152.5 895,-171.5 962,-171.5 962,-152.5 895,-152.5"/>
<text text-anchor="middle" x="928.5" y="-159.5" font-family="Helvetica,sans-Serif" font-size="10.00">Thread::call</text>
</a>
</g>
</g>
<!-- Node7&#45;&gt;Node8 -->
<g id="edge8" class="edge"><title>Node7&#45;&gt;Node8</title>
<path fill="none" stroke="midnightblue" d="M187.459,-214.575C194.508,-217.141 201.672,-220.265 208,-224 226.692,-235.032 224.161,-248.194 244,-257 326.622,-293.674 356.105,-276 446.5,-276 446.5,-276 446.5,-276 618,-276 725.443,-276 765.354,-309.674 859,-257 889.276,-239.97 909.649,-203.363 919.853,-180.892"/>
<polygon fill="midnightblue" stroke="midnightblue" points="923.078,-182.251 923.825,-171.683 916.651,-179.479 923.078,-182.251"/>
</g>
<!-- Node10 -->
<g id="node10" class="node"><title>Node10</title>
<g id="a_node10"><a xlink:href="class_thread.html#ada9adb041744058adc9abb1744e86c5d" target="_top" xlink:title="The code that will be executed, after the new Thread is started.">
<polygon fill="white" stroke="black" points="259,-228.5 259,-247.5 330,-247.5 330,-228.5 259,-228.5"/>
<text text-anchor="middle" x="294.5" y="-235.5" font-family="Helvetica,sans-Serif" font-size="10.00">Thread::start</text>
</a>
</g>
</g>
<!-- Node7&#45;&gt;Node10 -->
<g id="edge10" class="edge"><title>Node7&#45;&gt;Node10</title>
<path fill="none" stroke="midnightblue" d="M192.192,-214.456C209.894,-218.57 230.69,-223.403 248.82,-227.617"/>
<polygon fill="midnightblue" stroke="midnightblue" points="248.048,-231.03 258.581,-229.885 249.633,-224.212 248.048,-231.03"/>
</g>
<!-- Node16 -->
<g id="node16" class="node"><title>Node16</title>
<g id="a_node16"><a xlink:href="class_thread.html#abd50159ecd409936f454c2321f673616" target="_top" xlink:title="Method to stop the Trhead.">
<polygon fill="white" stroke="black" points="259,-190.5 259,-209.5 330,-209.5 330,-190.5 259,-190.5"/>
<text text-anchor="middle" x="294.5" y="-197.5" font-family="Helvetica,sans-Serif" font-size="10.00">Thread::stop</text>
</a>
</g>
</g>
<!-- Node7&#45;&gt;Node16 -->
<g id="edge17" class="edge"><title>Node7&#45;&gt;Node16</title>
<path fill="none" stroke="midnightblue" d="M192.192,-203.567C209.812,-202.947 230.498,-202.218 248.568,-201.582"/>
<polygon fill="midnightblue" stroke="midnightblue" points="248.71,-205.079 258.581,-201.23 248.464,-198.084 248.71,-205.079"/>
</g>
<!-- Node9 -->
<g id="node9" class="node"><title>Node9</title>
<g id="a_node9"><a xlink:href="class_thread.html#a1333a7179253857c1431b82e162272fd" target="_top" xlink:title=" ">
<polygon fill="white" stroke="black" points="998,-152.5 998,-171.5 1087,-171.5 1087,-152.5 998,-152.5"/>
<text text-anchor="middle" x="1042.5" y="-159.5" font-family="Helvetica,sans-Serif" font-size="10.00">Thread::enqueue</text>
</a>
</g>
</g>
<!-- Node8&#45;&gt;Node9 -->
<g id="edge9" class="edge"><title>Node8&#45;&gt;Node9</title>
<path fill="none" stroke="midnightblue" d="M962.196,-162C970.178,-162 978.929,-162 987.612,-162"/>
<polygon fill="midnightblue" stroke="midnightblue" points="987.724,-165.5 997.724,-162 987.724,-158.5 987.724,-165.5"/>
</g>
<!-- Node11 -->
<g id="node11" class="node"><title>Node11</title>
<g id="a_node11"><a xlink:href="class_thread.html#a1f53ee62bd30a7924186ef26150ce262" target="_top" xlink:title="Starts the Thread with Thread::Impl::standardLoop.">
<polygon fill="white" stroke="black" points="412,-228.5 412,-247.5 483,-247.5 483,-228.5 412,-228.5"/>
<text text-anchor="middle" x="447.5" y="-235.5" font-family="Helvetica,sans-Serif" font-size="10.00">Thread::start</text>
</a>
</g>
</g>
<!-- Node10&#45;&gt;Node11 -->
<g id="edge11" class="edge"><title>Node10&#45;&gt;Node11</title>
<path fill="none" stroke="midnightblue" d="M330.142,-238C351.36,-238 378.738,-238 401.606,-238"/>
<polygon fill="midnightblue" stroke="midnightblue" points="401.758,-241.5 411.758,-238 401.758,-234.5 401.758,-241.5"/>
</g>
<!-- Node12 -->
<g id="node12" class="node"><title>Node12</title>
<g id="a_node12"><a xlink:href="struct_thread_1_1_impl.html#a0164f5b95922ac969d1d81914e5d5eb9" target="_top" xlink:title="The normally used processing loop of a background thread.">
<polygon fill="white" stroke="black" points="550,-209.5 550,-228.5 684,-228.5 684,-209.5 550,-209.5"/>
<text text-anchor="middle" x="617" y="-216.5" font-family="Helvetica,sans-Serif" font-size="10.00">Thread::Impl::standardLoop</text>
</a>
</g>
</g>
<!-- Node11&#45;&gt;Node12 -->
<g id="edge12" class="edge"><title>Node11&#45;&gt;Node12</title>
<path fill="none" stroke="midnightblue" d="M483.206,-234.063C499.683,-232.194 520.07,-229.882 539.883,-227.634"/>
<polygon fill="midnightblue" stroke="midnightblue" points="540.312,-231.108 549.854,-226.503 539.523,-224.153 540.312,-231.108"/>
</g>
<!-- Node13 -->
<g id="node13" class="node"><title>Node13</title>
<g id="a_node13"><a xlink:href="class_edit.html#a3ced1bcf14de542e25d512991bcfed2f" target="_top" xlink:title=" ">
<polygon fill="white" stroke="black" points="761.5,-152.5 761.5,-171.5 817.5,-171.5 817.5,-152.5 761.5,-152.5"/>
<text text-anchor="middle" x="789.5" y="-159.5" font-family="Helvetica,sans-Serif" font-size="10.00">Edit::add</text>
</a>
</g>
</g>
<!-- Node12&#45;&gt;Node13 -->
<g id="edge13" class="edge"><title>Node12&#45;&gt;Node13</title>
<path fill="none" stroke="midnightblue" d="M642.113,-209.348C662.652,-201.288 693.036,-189.744 720,-181 730.125,-177.716 741.203,-174.489 751.443,-171.652"/>
<polygon fill="midnightblue" stroke="midnightblue" points="752.608,-174.962 761.337,-168.958 750.768,-168.208 752.608,-174.962"/>
</g>
<!-- Node14 -->
<g id="node14" class="node"><title>Node14</title>
<g id="a_node14"><a xlink:href="struct_thread_1_1_impl.html#ae467f41841d4236274bf360f470ec775" target="_top" xlink:title="process the queue of functors, usually called form notify&#45;functor">
<polygon fill="white" stroke="black" points="720,-190.5 720,-209.5 859,-209.5 859,-190.5 720,-190.5"/>
<text text-anchor="middle" x="789.5" y="-197.5" font-family="Helvetica,sans-Serif" font-size="10.00">Thread::Impl::processQueue</text>
</a>
</g>
</g>
<!-- Node12&#45;&gt;Node14 -->
<g id="edge15" class="edge"><title>Node12&#45;&gt;Node14</title>
<path fill="none" stroke="midnightblue" d="M684.408,-211.6C692.651,-210.681 701.141,-209.735 709.549,-208.798"/>
<polygon fill="midnightblue" stroke="midnightblue" points="710.192,-212.248 719.742,-207.662 709.416,-205.291 710.192,-212.248"/>
</g>
<!-- Node15 -->
<g id="node15" class="node"><title>Node15</title>
<g id="a_node15"><a xlink:href="_thread_8cpp.html#a1b6cdfcdd75b61856b37cf13deae9334" target="_top" xlink:title=" ">
<polygon fill="white" stroke="black" points="746.5,-228.5 746.5,-247.5 832.5,-247.5 832.5,-228.5 746.5,-228.5"/>
<text text-anchor="middle" x="789.5" y="-235.5" font-family="Helvetica,sans-Serif" font-size="10.00">SetThreadName</text>
</a>
</g>
</g>
<!-- Node12&#45;&gt;Node15 -->
<g id="edge16" class="edge"><title>Node12&#45;&gt;Node15</title>
<path fill="none" stroke="midnightblue" d="M684.408,-226.4C701.675,-228.325 720.028,-230.37 736.437,-232.198"/>
<polygon fill="midnightblue" stroke="midnightblue" points="736.05,-235.677 746.376,-233.306 736.825,-228.72 736.05,-235.677"/>
</g>
<!-- Node13&#45;&gt;Node8 -->
<g id="edge14" class="edge"><title>Node13&#45;&gt;Node8</title>
<path fill="none" stroke="midnightblue" d="M817.567,-162C836.685,-162 862.702,-162 884.626,-162"/>
<polygon fill="midnightblue" stroke="midnightblue" points="884.691,-165.5 894.691,-162 884.69,-158.5 884.691,-165.5"/>
</g>
<!-- Node17&#45;&gt;Node13 -->
<g id="edge19" class="edge"><title>Node17&#45;&gt;Node13</title>
<path fill="none" stroke="midnightblue" d="M201.219,-149.093C324.485,-151.802 642.083,-158.782 751.107,-161.178"/>
<polygon fill="midnightblue" stroke="midnightblue" points="751.215,-164.681 761.289,-161.402 751.369,-157.683 751.215,-164.681"/>
</g>
<!-- Node18 -->
<g id="node18" class="node"><title>Node18</title>
<g id="a_node18"><a xlink:href="output_8hpp.html#a40ccb49bbe6f7e94ed2bc2dc6cd7e8d0" target="_top" xlink:title=" ">
<polygon fill="white" stroke="black" points="272.5,-114.5 272.5,-133.5 316.5,-133.5 316.5,-114.5 272.5,-114.5"/>
<text text-anchor="middle" x="294.5" y="-121.5" font-family="Helvetica,sans-Serif" font-size="10.00">format</text>
</a>
</g>
</g>
<!-- Node17&#45;&gt;Node18 -->
<g id="edge20" class="edge"><title>Node17&#45;&gt;Node18</title>
<path fill="none" stroke="midnightblue" d="M201.165,-139.606C221.489,-136.171 244.385,-132.301 262.293,-129.274"/>
<polygon fill="midnightblue" stroke="midnightblue" points="262.926,-132.717 272.203,-127.6 261.759,-125.815 262.926,-132.717"/>
</g>
<!-- Node19 -->
<g id="node19" class="node"><title>Node19</title>
<g id="a_node19"><a xlink:href="class_test_case.html#a67dbda1a6ccebdf1c834c54fce361a6a" target="_top" xlink:title=" ">
<polygon fill="white" stroke="black" points="244,-76.5 244,-95.5 345,-95.5 345,-76.5 244,-76.5"/>
<text text-anchor="middle" x="294.5" y="-83.5" font-family="Helvetica,sans-Serif" font-size="10.00">TestCase::runTests</text>
</a>
</g>
</g>
<!-- Node17&#45;&gt;Node19 -->
<g id="edge21" class="edge"><title>Node17&#45;&gt;Node19</title>
<path fill="none" stroke="midnightblue" d="M171.172,-138.377C189.779,-129.389 218.563,-115.779 244,-105 248.529,-103.081 253.324,-101.135 258.077,-99.2571"/>
<polygon fill="midnightblue" stroke="midnightblue" points="259.62,-102.412 267.674,-95.5288 257.086,-95.8875 259.62,-102.412"/>
</g>
<!-- Node20 -->
<g id="node20" class="node"><title>Node20</title>
<g id="a_node20"><a xlink:href="namespaceanonymous__namespace_02_test_case_8cpp_03.html#a4073e77346d8adea8ac92f2e309de1aa" target="_top" xlink:title=" ">
<polygon fill="white" stroke="black" points="381,-77 381,-107 514,-107 514,-77 381,-77"/>
<text text-anchor="start" x="389" y="-95" font-family="Helvetica,sans-Serif" font-size="10.00">anonymous_namespace</text>
<text text-anchor="middle" x="447.5" y="-84" font-family="Helvetica,sans-Serif" font-size="10.00">{TestCase::cpp}::getCases</text>
</a>
</g>
</g>
<!-- Node19&#45;&gt;Node20 -->
<g id="edge22" class="edge"><title>Node19&#45;&gt;Node20</title>
<path fill="none" stroke="midnightblue" d="M345.362,-87.9813C353.512,-88.3051 362.114,-88.6469 370.721,-88.9889"/>
<polygon fill="midnightblue" stroke="midnightblue" points="370.67,-92.4896 380.801,-89.3894 370.948,-85.4951 370.67,-92.4896"/>
</g>
<!-- Node21&#45;&gt;Node8 -->
<g id="edge25" class="edge"><title>Node21&#45;&gt;Node8</title>
<path fill="none" stroke="midnightblue" d="M672.455,-125.316C721.548,-127.206 795.556,-131.807 859,-143 868.461,-144.669 878.502,-147.08 887.895,-149.627"/>
<polygon fill="midnightblue" stroke="midnightblue" points="887.201,-153.068 897.776,-152.416 889.103,-146.331 887.201,-153.068"/>
</g>
<!-- Node21&#45;&gt;Node13 -->
<g id="edge24" class="edge"><title>Node21&#45;&gt;Node13</title>
<path fill="none" stroke="midnightblue" d="M661.024,-133.589C688.893,-139.8 724.817,-147.807 751.422,-153.736"/>
<polygon fill="midnightblue" stroke="midnightblue" points="750.962,-157.22 761.484,-155.979 752.485,-150.387 750.962,-157.22"/>
</g>
</g>
</svg>
