<?xml version="1.0" encoding="UTF-8" standalone="no"?>
<!DOCTYPE svg PUBLIC "-//W3C//DTD SVG 1.1//EN"
 "http://www.w3.org/Graphics/SVG/1.1/DTD/svg11.dtd">
<!-- Generated by graphviz version 2.38.0 (20140413.2041)
 -->
<!-- Title: WndProc Pages: 1 -->
<svg width="652pt" height="370pt"
 viewBox="0.00 0.00 652.00 370.00" xmlns="http://www.w3.org/2000/svg" xmlns:xlink="http://www.w3.org/1999/xlink">
<g id="graph0" class="graph" transform="scale(1 1) rotate(0) translate(4 366)">
<title>WndProc</title>
<polygon fill="white" stroke="none" points="-4,4 -4,-366 648,-366 648,4 -4,4"/>
<!-- Node1 -->
<g id="node1" class="node"><title>Node1</title>
<g id="a_node1"><a xlink:title="The declaration of the main message processing function.">
<polygon fill="#bfbfbf" stroke="black" points="0,-190.5 0,-209.5 57,-209.5 57,-190.5 0,-190.5"/>
<text text-anchor="middle" x="28.5" y="-197.5" font-family="Helvetica,sans-Serif" font-size="10.00">WndProc</text>
</a>
</g>
</g>
<!-- Node2 -->
<g id="node2" class="node"><title>Node2</title>
<g id="a_node2"><a xlink:href="class_button.html#a4b47ae117b554b76c7681d0dc0f6b59a" target="_top" xlink:title=" ">
<polygon fill="white" stroke="black" points="111.5,-332.5 111.5,-351.5 189.5,-351.5 189.5,-332.5 111.5,-332.5"/>
<text text-anchor="middle" x="150.5" y="-339.5" font-family="Helvetica,sans-Serif" font-size="10.00">Button::create</text>
</a>
</g>
</g>
<!-- Node1&#45;&gt;Node2 -->
<g id="edge1" class="edge"><title>Node1&#45;&gt;Node2</title>
<path fill="none" stroke="midnightblue" d="M32.6884,-209.812C40.0959,-231.264 60.3637,-282.897 93,-314 98.7952,-319.523 105.89,-324.175 113.068,-328.004"/>
<polygon fill="midnightblue" stroke="midnightblue" points="111.592,-331.178 122.115,-332.416 114.661,-324.886 111.592,-331.178"/>
</g>
<!-- Node5 -->
<g id="node5" class="node"><title>Node5</title>
<g id="a_node5"><a xlink:href="class_edit.html#ab18ca6e3077d72996f0599d984283636" target="_top" xlink:title=" ">
<polygon fill="white" stroke="black" points="117,-285.5 117,-304.5 184,-304.5 184,-285.5 117,-285.5"/>
<text text-anchor="middle" x="150.5" y="-292.5" font-family="Helvetica,sans-Serif" font-size="10.00">Edit::create</text>
</a>
</g>
</g>
<!-- Node1&#45;&gt;Node5 -->
<g id="edge4" class="edge"><title>Node1&#45;&gt;Node5</title>
<path fill="none" stroke="midnightblue" d="M39.4574,-209.736C51.6492,-221.466 73.1323,-241.523 93,-257 103.242,-264.978 115.095,-273.105 125.292,-279.785"/>
<polygon fill="midnightblue" stroke="midnightblue" points="123.445,-282.758 133.744,-285.242 127.242,-276.877 123.445,-282.758"/>
</g>
<!-- Node6 -->
<g id="node6" class="node"><title>Node6</title>
<g id="a_node6"><a xlink:href="main_8cpp.html#abdf0523e10fae27868b24d21a841e926" target="_top" xlink:title="All the magic is here :&#45;)">
<polygon fill="white" stroke="black" points="109,-114.5 109,-133.5 192,-133.5 192,-114.5 109,-114.5"/>
<text text-anchor="middle" x="150.5" y="-121.5" font-family="Helvetica,sans-Serif" font-size="10.00">OnStartClicked</text>
</a>
</g>
</g>
<!-- Node1&#45;&gt;Node6 -->
<g id="edge6" class="edge"><title>Node1&#45;&gt;Node6</title>
<path fill="none" stroke="midnightblue" d="M44.6981,-190.375C65.1658,-177.412 101.794,-154.214 125.872,-138.965"/>
<polygon fill="midnightblue" stroke="midnightblue" points="127.85,-141.855 134.425,-133.547 124.104,-135.941 127.85,-141.855"/>
</g>
<!-- Node12 -->
<g id="node12" class="node"><title>Node12</title>
<g id="a_node12"><a xlink:href="main_8cpp.html#a1870be22060f25a2595afa09934e9784" target="_top" xlink:title=" ">
<polygon fill="white" stroke="black" points="100,-190.5 100,-209.5 201,-209.5 201,-190.5 100,-190.5"/>
<text text-anchor="middle" x="150.5" y="-197.5" font-family="Helvetica,sans-Serif" font-size="10.00">OnStartTestClicked</text>
</a>
</g>
</g>
<!-- Node1&#45;&gt;Node12 -->
<g id="edge12" class="edge"><title>Node1&#45;&gt;Node12</title>
<path fill="none" stroke="midnightblue" d="M57.0304,-200C66.8778,-200 78.395,-200 89.893,-200"/>
<polygon fill="midnightblue" stroke="midnightblue" points="89.9499,-203.5 99.9498,-200 89.9498,-196.5 89.9499,-203.5"/>
</g>
<!-- Node17 -->
<g id="node17" class="node"><title>Node17</title>
<g id="a_node17"><a xlink:href="main_8cpp.html#a6e6bef72e348d49296a2aa278ce80ca6" target="_top" xlink:title="Thread&#45;Test&#45;Button event handler.">
<polygon fill="white" stroke="black" points="95.5,-228.5 95.5,-247.5 205.5,-247.5 205.5,-228.5 95.5,-228.5"/>
<text text-anchor="middle" x="150.5" y="-235.5" font-family="Helvetica,sans-Serif" font-size="10.00">OnThreadTestClicked</text>
</a>
</g>
</g>
<!-- Node1&#45;&gt;Node17 -->
<g id="edge18" class="edge"><title>Node1&#45;&gt;Node17</title>
<path fill="none" stroke="midnightblue" d="M57.0304,-208.718C72.5324,-213.627 92.1724,-219.846 109.361,-225.289"/>
<polygon fill="midnightblue" stroke="midnightblue" points="108.559,-228.706 119.149,-228.389 110.672,-222.033 108.559,-228.706"/>
</g>
<!-- Node18 -->
<g id="node18" class="node"><title>Node18</title>
<g id="a_node18"><a xlink:href="class_thread.html#af0bd96245e2b765b410f8dd2d1aeeb69" target="_top" xlink:title="Processes maxElements in the running thread.">
<polygon fill="white" stroke="black" points="93,-76.5 93,-95.5 208,-95.5 208,-76.5 93,-76.5"/>
<text text-anchor="middle" x="150.5" y="-83.5" font-family="Helvetica,sans-Serif" font-size="10.00">Thread::processQueue</text>
</a>
</g>
</g>
<!-- Node1&#45;&gt;Node18 -->
<g id="edge21" class="edge"><title>Node1&#45;&gt;Node18</title>
<path fill="none" stroke="midnightblue" d="M33.3643,-190.392C41.5135,-171.321 62.274,-128.503 93,-105 95.4287,-103.142 98.0494,-101.46 100.785,-99.938"/>
<polygon fill="midnightblue" stroke="midnightblue" points="102.321,-103.083 109.823,-95.6016 99.2928,-96.7722 102.321,-103.083"/>
</g>
<!-- Node19 -->
<g id="node19" class="node"><title>Node19</title>
<g id="a_node19"><a xlink:href="class_control.html#acb9c9e1fe3913ade543cf9bda76f05e3" target="_top" xlink:title=" ">
<polygon fill="white" stroke="black" points="105,-19.5 105,-38.5 196,-38.5 196,-19.5 105,-19.5"/>
<text text-anchor="middle" x="150.5" y="-26.5" font-family="Helvetica,sans-Serif" font-size="10.00">Control::wndProc</text>
</a>
</g>
</g>
<!-- Node1&#45;&gt;Node19 -->
<g id="edge22" class="edge"><title>Node1&#45;&gt;Node19</title>
<path fill="none" stroke="midnightblue" d="M32.1741,-190.315C39.0183,-166.911 59.0608,-106.32 93,-67 100.865,-57.8877 111.413,-50.0123 121.264,-43.8314"/>
<polygon fill="midnightblue" stroke="midnightblue" points="123.2,-46.7531 130.019,-38.6447 119.632,-40.7307 123.2,-46.7531"/>
</g>
<!-- Node3 -->
<g id="node3" class="node"><title>Node3</title>
<g id="a_node3"><a xlink:href="class_control.html#a5556f2e0a0d67ccba4981ddc8c39d2c3" target="_top" xlink:title=" ">
<polygon fill="white" stroke="black" points="254.5,-342.5 254.5,-361.5 334.5,-361.5 334.5,-342.5 254.5,-342.5"/>
<text text-anchor="middle" x="294.5" y="-349.5" font-family="Helvetica,sans-Serif" font-size="10.00">Control::create</text>
</a>
</g>
</g>
<!-- Node2&#45;&gt;Node3 -->
<g id="edge2" class="edge"><title>Node2&#45;&gt;Node3</title>
<path fill="none" stroke="midnightblue" d="M189.553,-344.68C206.388,-345.865 226.398,-347.275 244.345,-348.538"/>
<polygon fill="midnightblue" stroke="midnightblue" points="244.13,-352.032 254.351,-349.243 244.622,-345.049 244.13,-352.032"/>
</g>
<!-- Node4 -->
<g id="node4" class="node"><title>Node4</title>
<g id="a_node4"><a xlink:href="class_control.html#af9a3acf49973e5a31594f30e979246b0" target="_top" xlink:title=" ">
<polygon fill="white" stroke="black" points="409,-323.5 409,-342.5 486,-342.5 486,-323.5 409,-323.5"/>
<text text-anchor="middle" x="447.5" y="-330.5" font-family="Helvetica,sans-Serif" font-size="10.00">Control::insert</text>
</a>
</g>
</g>
<!-- Node3&#45;&gt;Node4 -->
<g id="edge3" class="edge"><title>Node3&#45;&gt;Node4</title>
<path fill="none" stroke="midnightblue" d="M334.779,-347.058C354.365,-344.593 378.212,-341.592 398.837,-338.997"/>
<polygon fill="midnightblue" stroke="midnightblue" points="399.494,-342.442 408.979,-337.721 398.62,-335.497 399.494,-342.442"/>
</g>
<!-- Node5&#45;&gt;Node4 -->
<g id="edge5" class="edge"><title>Node5&#45;&gt;Node4</title>
<path fill="none" stroke="midnightblue" d="M184.197,-299.212C236.241,-305.916 338.189,-319.048 398.515,-326.819"/>
<polygon fill="midnightblue" stroke="midnightblue" points="398.184,-330.305 408.55,-328.111 399.079,-323.362 398.184,-330.305"/>
</g>
<!-- Node7 -->
<g id="node7" class="node"><title>Node7</title>
<g id="a_node7"><a xlink:href="class_thread.html#abf7db5b09bd25b345e80577f71321ee9" target="_top" xlink:title="The code that will be enqued in the threads task queue.">
<polygon fill="white" stroke="black" points="403,-228.5 403,-247.5 492,-247.5 492,-228.5 403,-228.5"/>
<text text-anchor="middle" x="447.5" y="-235.5" font-family="Helvetica,sans-Serif" font-size="10.00">Thread::enqueue</text>
</a>
</g>
</g>
<!-- Node6&#45;&gt;Node7 -->
<g id="edge7" class="edge"><title>Node6&#45;&gt;Node7</title>
<path fill="none" stroke="midnightblue" d="M192.192,-119.398C233.197,-116.657 297.092,-117.703 345,-143 367.041,-154.638 363.148,-168.606 381,-186 394.649,-199.299 411.52,-212.63 424.721,-222.464"/>
<polygon fill="midnightblue" stroke="midnightblue" points="422.661,-225.294 432.795,-228.386 426.801,-219.65 422.661,-225.294"/>
</g>
<!-- Node9 -->
<g id="node9" class="node"><title>Node9</title>
<g id="a_node9"><a xlink:href="class_thread.html#ada9adb041744058adc9abb1744e86c5d" target="_top" xlink:title="The code that will be executed, after the new Thread is started.">
<polygon fill="white" stroke="black" points="259,-38.5 259,-57.5 330,-57.5 330,-38.5 259,-38.5"/>
<text text-anchor="middle" x="294.5" y="-45.5" font-family="Helvetica,sans-Serif" font-size="10.00">Thread::start</text>
</a>
</g>
</g>
<!-- Node6&#45;&gt;Node9 -->
<g id="edge9" class="edge"><title>Node6&#45;&gt;Node9</title>
<path fill="none" stroke="midnightblue" d="M188.563,-114.438C195.303,-111.904 202.069,-108.788 208,-105 227.606,-92.4769 224.662,-79.9329 244,-67 246.88,-65.0739 249.983,-63.3034 253.182,-61.6844"/>
<polygon fill="midnightblue" stroke="midnightblue" points="254.688,-64.8446 262.343,-57.5196 251.791,-58.4723 254.688,-64.8446"/>
</g>
<!-- Node11 -->
<g id="node11" class="node"><title>Node11</title>
<g id="a_node11"><a xlink:href="class_thread.html#abd50159ecd409936f454c2321f673616" target="_top" xlink:title="Method to stop the Trhead.">
<polygon fill="white" stroke="black" points="259,-76.5 259,-95.5 330,-95.5 330,-76.5 259,-76.5"/>
<text text-anchor="middle" x="294.5" y="-83.5" font-family="Helvetica,sans-Serif" font-size="10.00">Thread::stop</text>
</a>
</g>
</g>
<!-- Node6&#45;&gt;Node11 -->
<g id="edge11" class="edge"><title>Node6&#45;&gt;Node11</title>
<path fill="none" stroke="midnightblue" d="M187.333,-114.411C206.029,-109.408 229.077,-103.24 248.916,-97.9308"/>
<polygon fill="midnightblue" stroke="midnightblue" points="249.905,-101.289 258.661,-95.3232 248.096,-94.5273 249.905,-101.289"/>
</g>
<!-- Node8 -->
<g id="node8" class="node"><title>Node8</title>
<g id="a_node8"><a xlink:href="class_thread.html#a3ee4bd6db78554c9ea75cf242b8ae273" target="_top" xlink:title="push the functor in the queue">
<polygon fill="white" stroke="black" points="550,-228.5 550,-247.5 644,-247.5 644,-228.5 550,-228.5"/>
<text text-anchor="middle" x="597" y="-235.5" font-family="Helvetica,sans-Serif" font-size="10.00">Thread::enqueue_</text>
</a>
</g>
</g>
<!-- Node7&#45;&gt;Node8 -->
<g id="edge8" class="edge"><title>Node7&#45;&gt;Node8</title>
<path fill="none" stroke="midnightblue" d="M492.356,-238C507.193,-238 523.974,-238 539.644,-238"/>
<polygon fill="midnightblue" stroke="midnightblue" points="539.75,-241.5 549.75,-238 539.75,-234.5 539.75,-241.5"/>
</g>
<!-- Node10 -->
<g id="node10" class="node"><title>Node10</title>
<g id="a_node10"><a xlink:href="class_thread.html#af1a12dd97c3644116d394f655ca63c86" target="_top" xlink:title=" ">
<polygon fill="white" stroke="black" points="409,-38.5 409,-57.5 486,-57.5 486,-38.5 409,-38.5"/>
<text text-anchor="middle" x="447.5" y="-45.5" font-family="Helvetica,sans-Serif" font-size="10.00">Thread::start_</text>
</a>
</g>
</g>
<!-- Node9&#45;&gt;Node10 -->
<g id="edge10" class="edge"><title>Node9&#45;&gt;Node10</title>
<path fill="none" stroke="midnightblue" d="M330.142,-48C350.437,-48 376.369,-48 398.599,-48"/>
<polygon fill="midnightblue" stroke="midnightblue" points="398.845,-51.5001 408.845,-48 398.845,-44.5001 398.845,-51.5001"/>
</g>
<!-- Node13 -->
<g id="node13" class="node"><title>Node13</title>
<g id="a_node13"><a xlink:href="class_edit.html#a3ced1bcf14de542e25d512991bcfed2f" target="_top" xlink:title=" ">
<polygon fill="white" stroke="black" points="266.5,-228.5 266.5,-247.5 322.5,-247.5 322.5,-228.5 266.5,-228.5"/>
<text text-anchor="middle" x="294.5" y="-235.5" font-family="Helvetica,sans-Serif" font-size="10.00">Edit::add</text>
</a>
</g>
</g>
<!-- Node12&#45;&gt;Node13 -->
<g id="edge13" class="edge"><title>Node12&#45;&gt;Node13</title>
<path fill="none" stroke="midnightblue" d="M187.333,-209.589C208.469,-215.245 235.169,-222.39 256.505,-228.1"/>
<polygon fill="midnightblue" stroke="midnightblue" points="255.63,-231.489 266.195,-230.693 257.439,-224.727 255.63,-231.489"/>
</g>
<!-- Node14 -->
<g id="node14" class="node"><title>Node14</title>
<g id="a_node14"><a xlink:href="output_8hpp.html#a40ccb49bbe6f7e94ed2bc2dc6cd7e8d0" target="_top" xlink:title=" ">
<polygon fill="white" stroke="black" points="272.5,-190.5 272.5,-209.5 316.5,-209.5 316.5,-190.5 272.5,-190.5"/>
<text text-anchor="middle" x="294.5" y="-197.5" font-family="Helvetica,sans-Serif" font-size="10.00">format</text>
</a>
</g>
</g>
<!-- Node12&#45;&gt;Node14 -->
<g id="edge15" class="edge"><title>Node12&#45;&gt;Node14</title>
<path fill="none" stroke="midnightblue" d="M201.165,-200C221.394,-200 244.171,-200 262.041,-200"/>
<polygon fill="midnightblue" stroke="midnightblue" points="262.203,-203.5 272.203,-200 262.203,-196.5 262.203,-203.5"/>
</g>
<!-- Node15 -->
<g id="node15" class="node"><title>Node15</title>
<g id="a_node15"><a xlink:href="class_test_case.html#a67dbda1a6ccebdf1c834c54fce361a6a" target="_top" xlink:title=" ">
<polygon fill="white" stroke="black" points="244,-152.5 244,-171.5 345,-171.5 345,-152.5 244,-152.5"/>
<text text-anchor="middle" x="294.5" y="-159.5" font-family="Helvetica,sans-Serif" font-size="10.00">TestCase::runTests</text>
</a>
</g>
</g>
<!-- Node12&#45;&gt;Node15 -->
<g id="edge16" class="edge"><title>Node12&#45;&gt;Node15</title>
<path fill="none" stroke="midnightblue" d="M187.333,-190.411C205.663,-185.506 228.178,-179.48 247.75,-174.243"/>
<polygon fill="midnightblue" stroke="midnightblue" points="248.924,-177.552 257.679,-171.586 247.114,-170.79 248.924,-177.552"/>
</g>
<!-- Node13&#45;&gt;Node7 -->
<g id="edge14" class="edge"><title>Node13&#45;&gt;Node7</title>
<path fill="none" stroke="midnightblue" d="M322.845,-238C342.242,-238 368.916,-238 392.526,-238"/>
<polygon fill="midnightblue" stroke="midnightblue" points="392.772,-241.5 402.772,-238 392.772,-234.5 392.772,-241.5"/>
</g>
<!-- Node16 -->
<g id="node16" class="node"><title>Node16</title>
<g id="a_node16"><a xlink:href="namespaceanonymous__namespace_02_test_case_8cpp_03.html#a4073e77346d8adea8ac92f2e309de1aa" target="_top" xlink:title=" ">
<polygon fill="white" stroke="black" points="381,-147 381,-177 514,-177 514,-147 381,-147"/>
<text text-anchor="start" x="389" y="-165" font-family="Helvetica,sans-Serif" font-size="10.00">anonymous_namespace</text>
<text text-anchor="middle" x="447.5" y="-154" font-family="Helvetica,sans-Serif" font-size="10.00">{TestCase::cpp}::getCases</text>
</a>
</g>
</g>
<!-- Node15&#45;&gt;Node16 -->
<g id="edge17" class="edge"><title>Node15&#45;&gt;Node16</title>
<path fill="none" stroke="midnightblue" d="M345.362,-162C353.512,-162 362.114,-162 370.721,-162"/>
<polygon fill="midnightblue" stroke="midnightblue" points="370.801,-165.5 380.801,-162 370.801,-158.5 370.801,-165.5"/>
</g>
<!-- Node17&#45;&gt;Node7 -->
<g id="edge20" class="edge"><title>Node17&#45;&gt;Node7</title>
<path fill="none" stroke="midnightblue" d="M189.037,-247.51C205.744,-251.274 225.732,-255.143 244,-257 288.659,-261.539 300.303,-261.147 345,-257 361.401,-255.478 379.102,-252.602 395.059,-249.538"/>
<polygon fill="midnightblue" stroke="midnightblue" points="396.136,-252.893 405.262,-247.511 394.771,-246.027 396.136,-252.893"/>
</g>
<!-- Node17&#45;&gt;Node13 -->
<g id="edge19" class="edge"><title>Node17&#45;&gt;Node13</title>
<path fill="none" stroke="midnightblue" d="M205.589,-238C222.401,-238 240.556,-238 255.978,-238"/>
<polygon fill="midnightblue" stroke="midnightblue" points="256.168,-241.5 266.168,-238 256.168,-234.5 256.168,-241.5"/>
</g>
<!-- Node20 -->
<g id="node20" class="node"><title>Node20</title>
<g id="a_node20"><a xlink:href="class_control.html#a499710d0d6ee6ae6326f42b4823abde2" target="_top" xlink:title=" ">
<polygon fill="white" stroke="black" points="250.5,-0.5 250.5,-19.5 338.5,-19.5 338.5,-0.5 250.5,-0.5"/>
<text text-anchor="middle" x="294.5" y="-7.5" font-family="Helvetica,sans-Serif" font-size="10.00">Control::execute</text>
</a>
</g>
</g>
<!-- Node19&#45;&gt;Node20 -->
<g id="edge23" class="edge"><title>Node19&#45;&gt;Node20</title>
<path fill="none" stroke="midnightblue" d="M196.04,-23.0404C209.915,-21.1838 225.364,-19.1168 239.797,-17.1856"/>
<polygon fill="midnightblue" stroke="midnightblue" points="240.643,-20.6037 250.091,-15.8083 239.715,-13.6655 240.643,-20.6037"/>
</g>
</g>
</svg>
