<?xml version="1.0" encoding="UTF-8" standalone="no"?>
<!DOCTYPE svg PUBLIC "-//W3C//DTD SVG 1.1//EN"
 "http://www.w3.org/Graphics/SVG/1.1/DTD/svg11.dtd">
<!-- Generated by graphviz version 2.38.0 (20140413.2041)
 -->
<!-- Title: OnThreadTestClicked Pages: 1 -->
<svg width="465pt" height="47pt"
 viewBox="0.00 0.00 465.00 47.00" xmlns="http://www.w3.org/2000/svg" xmlns:xlink="http://www.w3.org/1999/xlink">
<g id="graph0" class="graph" transform="scale(1 1) rotate(0) translate(4 43)">
<title>OnThreadTestClicked</title>
<polygon fill="white" stroke="none" points="-4,4 -4,-43 461,-43 461,4 -4,4"/>
<!-- Node1 -->
<g id="node1" class="node"><title>Node1</title>
<g id="a_node1"><a xlink:title="Thread&#45;Test&#45;Button event handler.">
<polygon fill="#bfbfbf" stroke="black" points="0,-0.5 0,-19.5 110,-19.5 110,-0.5 0,-0.5"/>
<text text-anchor="middle" x="55" y="-7.5" font-family="Helvetica,sans-Serif" font-size="10.00">OnThreadTestClicked</text>
</a>
</g>
</g>
<!-- Node2 -->
<g id="node2" class="node"><title>Node2</title>
<g id="a_node2"><a xlink:href="class_edit.html#a3ced1bcf14de542e25d512991bcfed2f" target="_top" xlink:title=" ">
<polygon fill="white" stroke="black" points="146,-19.5 146,-38.5 202,-38.5 202,-19.5 146,-19.5"/>
<text text-anchor="middle" x="174" y="-26.5" font-family="Helvetica,sans-Serif" font-size="10.00">Edit::add</text>
</a>
</g>
</g>
<!-- Node1&#45;&gt;Node2 -->
<g id="edge1" class="edge"><title>Node1&#45;&gt;Node2</title>
<path fill="none" stroke="midnightblue" d="M110.048,-18.777C118.805,-20.199 127.695,-21.6428 135.929,-22.9798"/>
<polygon fill="midnightblue" stroke="midnightblue" points="135.515,-26.4584 145.947,-24.6067 136.637,-19.5489 135.515,-26.4584"/>
</g>
<!-- Node3 -->
<g id="node3" class="node"><title>Node3</title>
<g id="a_node3"><a xlink:href="class_thread.html#abf7db5b09bd25b345e80577f71321ee9" target="_top" xlink:title="The code that will be enqued in the threads task queue.">
<polygon fill="white" stroke="black" points="238,-0.5 238,-19.5 327,-19.5 327,-0.5 238,-0.5"/>
<text text-anchor="middle" x="282.5" y="-7.5" font-family="Helvetica,sans-Serif" font-size="10.00">Thread::enqueue</text>
</a>
</g>
</g>
<!-- Node1&#45;&gt;Node3 -->
<g id="edge4" class="edge"><title>Node1&#45;&gt;Node3</title>
<path fill="none" stroke="midnightblue" d="M110.013,-10C145.59,-10 191.993,-10 227.556,-10"/>
<polygon fill="midnightblue" stroke="midnightblue" points="227.75,-13.5001 237.75,-10 227.75,-6.5001 227.75,-13.5001"/>
</g>
<!-- Node2&#45;&gt;Node3 -->
<g id="edge2" class="edge"><title>Node2&#45;&gt;Node3</title>
<path fill="none" stroke="midnightblue" d="M202.15,-24.1563C210.031,-22.7504 218.924,-21.1637 227.834,-19.5742"/>
<polygon fill="midnightblue" stroke="midnightblue" points="228.616,-22.99 237.846,-17.788 227.387,-16.0988 228.616,-22.99"/>
</g>
<!-- Node4 -->
<g id="node4" class="node"><title>Node4</title>
<g id="a_node4"><a xlink:href="class_thread.html#a3ee4bd6db78554c9ea75cf242b8ae273" target="_top" xlink:title="push the functor in the queue">
<polygon fill="white" stroke="black" points="363,-0.5 363,-19.5 457,-19.5 457,-0.5 363,-0.5"/>
<text text-anchor="middle" x="410" y="-7.5" font-family="Helvetica,sans-Serif" font-size="10.00">Thread::enqueue_</text>
</a>
</g>
</g>
<!-- Node3&#45;&gt;Node4 -->
<g id="edge3" class="edge"><title>Node3&#45;&gt;Node4</title>
<path fill="none" stroke="midnightblue" d="M327.042,-10C335.387,-10 344.233,-10 352.908,-10"/>
<polygon fill="midnightblue" stroke="midnightblue" points="352.973,-13.5001 362.973,-10 352.973,-6.5001 352.973,-13.5001"/>
</g>
</g>
</svg>
