<?xml version="1.0" encoding="UTF-8" standalone="no"?>
<!DOCTYPE svg PUBLIC "-//W3C//DTD SVG 1.1//EN"
 "http://www.w3.org/Graphics/SVG/1.1/DTD/svg11.dtd">
<!-- Generated by graphviz version 2.38.0 (20140413.2041)
 -->
<!-- Title: WinMain Pages: 1 -->
<!--zoomable 370 -->
<svg id="main" version="1.1" xmlns="http://www.w3.org/2000/svg" xmlns:xlink="http://www.w3.org/1999/xlink" xml:space="preserve" onload="init(evt)">
<style type="text/css"><![CDATA[
.edge:hover path { stroke: red; }
.edge:hover polygon { stroke: red; fill: red; }
]]></style>
<script type="text/javascript"><![CDATA[
var edges = document.getElementsByTagName('g');
if (edges && edges.length) {
  for (var i=0;i<edges.length;i++) {
    if (edges[i].id.substr(0,4)=='edge') {
      edges[i].setAttribute('class','edge');
    }
  }
}
]]></script>
        <defs>
                <circle id="rim" cx="0" cy="0" r="7"/>
                <circle id="rim2" cx="0" cy="0" r="3.5"/>
                <g id="zoomPlus">
                        <use xlink:href="#rim" fill="#404040">
                                <set attributeName="fill" to="#808080" begin="zoomplus.mouseover" end="zoomplus.mouseout"/>
                        </use>
                        <path d="M-4,0h8M0,-4v8" fill="none" stroke="white" stroke-width="1.5" pointer-events="none"/>
                </g>
                <g id="zoomMin">
                        <use xlink:href="#rim" fill="#404040">
                                <set attributeName="fill" to="#808080" begin="zoomminus.mouseover" end="zoomminus.mouseout"/>
                        </use>
                        <path d="M-4,0h8" fill="none" stroke="white" stroke-width="1.5" pointer-events="none"/>
                </g>
                <g id="dirArrow">
                        <path fill="none" stroke="white" stroke-width="1.5" d="M0,-3.0v7 M-2.5,-0.5L0,-3.0L2.5,-0.5"/>
                </g>
               <g id="resetDef">
                       <use xlink:href="#rim2" fill="#404040">
                               <set attributeName="fill" to="#808080" begin="reset.mouseover" end="reset.mouseout"/>
                       </use>
               </g>
        </defs>

<script type="text/javascript">
var viewWidth = 1258;
var viewHeight = 370;
var sectionId = 'dynsection-7';
</script>
<script xlink:href="svgpan.js"/>
<svg id="graph" class="graph">
<g id="viewport">
<title>WinMain</title>
<polygon fill="white" stroke="none" points="-4,4 -4,-366 1254,-366 1254,4 -4,4"/>
<!-- Node1 -->
<g id="node1" class="node"><title>Node1</title>
<g id="a_node1"><a xlink:title="The beginning of everything.">
<polygon fill="#bfbfbf" stroke="black" points="0,-214.5 0,-233.5 55,-233.5 55,-214.5 0,-214.5"/>
<text text-anchor="middle" x="27.5" y="-221.5" font-family="Helvetica,sans-Serif" font-size="10.00">WinMain</text>
</a>
</g>
</g>
<!-- Node2 -->
<g id="node2" class="node"><title>Node2</title>
<g id="a_node2"><a xlink:href="class_thread.html#a5a2980b7db2cdd4afe3860d5df6aa94e" target="_top" xlink:title=" ">
<polygon fill="white" stroke="black" points="91,-233.5 91,-252.5 220,-252.5 220,-233.5 91,-233.5"/>
<text text-anchor="middle" x="155.5" y="-240.5" font-family="Helvetica,sans-Serif" font-size="10.00">Thread::initRunningThread</text>
</a>
</g>
</g>
<!-- Node1&#45;&gt;Node2 -->
<g id="edge1" class="edge"><title>Node1&#45;&gt;Node2</title>
<path fill="none" stroke="midnightblue" d="M55.2214,-228.029C63.0197,-229.205 71.9431,-230.551 81.1705,-231.942"/>
<polygon fill="midnightblue" stroke="midnightblue" points="80.8534,-235.434 91.2635,-233.464 81.8972,-228.512 80.8534,-235.434"/>
</g>
<!-- Node3 -->
<g id="node3" class="node"><title>Node3</title>
<g id="a_node3"><a xlink:href="main_8cpp.html#a30a1e3b0304f1b083637664cbda94e72" target="_top" xlink:title="The declaration of the main message processing function.">
<polygon fill="white" stroke="black" points="127,-195.5 127,-214.5 184,-214.5 184,-195.5 127,-195.5"/>
<text text-anchor="middle" x="155.5" y="-202.5" font-family="Helvetica,sans-Serif" font-size="10.00">WndProc</text>
</a>
</g>
</g>
<!-- Node1&#45;&gt;Node3 -->
<g id="edge2" class="edge"><title>Node1&#45;&gt;Node3</title>
<path fill="none" stroke="midnightblue" d="M55.2214,-219.971C73.1839,-217.262 97.1153,-213.653 116.981,-210.658"/>
<polygon fill="midnightblue" stroke="midnightblue" points="117.58,-214.107 126.946,-209.155 116.536,-207.185 117.58,-214.107"/>
</g>
<!-- Node4 -->
<g id="node4" class="node"><title>Node4</title>
<g id="a_node4"><a xlink:href="class_button.html#a4b47ae117b554b76c7681d0dc0f6b59a" target="_top" xlink:title=" ">
<polygon fill="white" stroke="black" points="274.5,-337.5 274.5,-356.5 352.5,-356.5 352.5,-337.5 274.5,-337.5"/>
<text text-anchor="middle" x="313.5" y="-344.5" font-family="Helvetica,sans-Serif" font-size="10.00">Button::create</text>
</a>
</g>
</g>
<!-- Node3&#45;&gt;Node4 -->
<g id="edge3" class="edge"><title>Node3&#45;&gt;Node4</title>
<path fill="none" stroke="midnightblue" d="M184.181,-207.817C196.426,-210.331 210.232,-215.072 220,-224 251.799,-253.066 227.874,-281.366 256,-314 262.427,-321.457 270.976,-327.646 279.475,-332.572"/>
<polygon fill="midnightblue" stroke="midnightblue" points="278.104,-335.807 288.575,-337.422 281.396,-329.63 278.104,-335.807"/>
</g>
<!-- Node7 -->
<g id="node7" class="node"><title>Node7</title>
<g id="a_node7"><a xlink:href="class_edit.html#ab18ca6e3077d72996f0599d984283636" target="_top" xlink:title=" ">
<polygon fill="white" stroke="black" points="424,-304.5 424,-323.5 491,-323.5 491,-304.5 424,-304.5"/>
<text text-anchor="middle" x="457.5" y="-311.5" font-family="Helvetica,sans-Serif" font-size="10.00">Edit::create</text>
</a>
</g>
</g>
<!-- Node3&#45;&gt;Node7 -->
<g id="edge6" class="edge"><title>Node3&#45;&gt;Node7</title>
<path fill="none" stroke="midnightblue" d="M184.068,-209.939C195.738,-212.846 209.121,-217.307 220,-224 239.814,-236.191 235.964,-250.177 256,-262 305.498,-291.208 371.339,-304.214 413.824,-309.864"/>
<polygon fill="midnightblue" stroke="midnightblue" points="413.477,-313.348 423.835,-311.116 414.347,-306.402 413.477,-313.348"/>
</g>
<!-- Node8 -->
<g id="node8" class="node"><title>Node8</title>
<g id="a_node8"><a xlink:href="class_button.html#a4ade92d5ac85d581c0bfe5c04bc7e1f1" target="_top" xlink:title=" ">
<polygon fill="white" stroke="black" points="270.5,-233.5 270.5,-252.5 356.5,-252.5 356.5,-233.5 270.5,-233.5"/>
<text text-anchor="middle" x="313.5" y="-240.5" font-family="Helvetica,sans-Serif" font-size="10.00">Button::execute</text>
</a>
</g>
</g>
<!-- Node3&#45;&gt;Node8 -->
<g id="edge8" class="edge"><title>Node3&#45;&gt;Node8</title>
<path fill="none" stroke="midnightblue" d="M184.031,-211.706C205.98,-217.053 237.275,-224.676 263.481,-231.059"/>
<polygon fill="midnightblue" stroke="midnightblue" points="262.701,-234.472 273.246,-233.438 264.358,-227.671 262.701,-234.472"/>
</g>
<!-- Node9 -->
<g id="node9" class="node"><title>Node9</title>
<g id="a_node9"><a xlink:href="main_8cpp.html#abdf0523e10fae27868b24d21a841e926" target="_top" xlink:title="All the magic is here :&#45;)">
<polygon fill="white" stroke="black" points="272,-195.5 272,-214.5 355,-214.5 355,-195.5 272,-195.5"/>
<text text-anchor="middle" x="313.5" y="-202.5" font-family="Helvetica,sans-Serif" font-size="10.00">OnStartClicked</text>
</a>
</g>
</g>
<!-- Node3&#45;&gt;Node9 -->
<g id="edge9" class="edge"><title>Node3&#45;&gt;Node9</title>
<path fill="none" stroke="midnightblue" d="M184.031,-205C205.498,-205 235.903,-205 261.744,-205"/>
<polygon fill="midnightblue" stroke="midnightblue" points="261.763,-208.5 271.763,-205 261.763,-201.5 261.763,-208.5"/>
</g>
<!-- Node19 -->
<g id="node19" class="node"><title>Node19</title>
<g id="a_node19"><a xlink:href="main_8cpp.html#a1870be22060f25a2595afa09934e9784" target="_top" xlink:title=" ">
<polygon fill="white" stroke="black" points="263,-138.5 263,-157.5 364,-157.5 364,-138.5 263,-138.5"/>
<text text-anchor="middle" x="313.5" y="-145.5" font-family="Helvetica,sans-Serif" font-size="10.00">OnStartTestClicked</text>
</a>
</g>
</g>
<!-- Node3&#45;&gt;Node19 -->
<g id="edge20" class="edge"><title>Node3&#45;&gt;Node19</title>
<path fill="none" stroke="midnightblue" d="M182.611,-195.459C208.37,-186.047 247.948,-171.586 276.647,-161.1"/>
<polygon fill="midnightblue" stroke="midnightblue" points="278.112,-164.291 286.304,-157.572 275.71,-157.716 278.112,-164.291"/>
</g>
<!-- Node23 -->
<g id="node23" class="node"><title>Node23</title>
<g id="a_node23"><a xlink:href="main_8cpp.html#a6e6bef72e348d49296a2aa278ce80ca6" target="_top" xlink:title="Thread&#45;Test&#45;Button event handler.">
<polygon fill="white" stroke="black" points="725,-114.5 725,-133.5 835,-133.5 835,-114.5 725,-114.5"/>
<text text-anchor="middle" x="780" y="-121.5" font-family="Helvetica,sans-Serif" font-size="10.00">OnThreadTestClicked</text>
</a>
</g>
</g>
<!-- Node3&#45;&gt;Node23 -->
<g id="edge25" class="edge"><title>Node3&#45;&gt;Node23</title>
<path fill="none" stroke="midnightblue" d="M167.167,-195.323C184.691,-179.791 221.121,-149.014 256,-129 318.924,-92.8927 335.824,-81.0434 407,-67 524.73,-43.7711 560.874,-36.7542 677,-67 707.643,-74.9811 738.839,-94.4211 758.522,-108.379"/>
<polygon fill="midnightblue" stroke="midnightblue" points="756.568,-111.286 766.711,-114.345 760.69,-105.628 756.568,-111.286"/>
</g>
<!-- Node24 -->
<g id="node24" class="node"><title>Node24</title>
<g id="a_node24"><a xlink:href="class_thread.html#af0bd96245e2b765b410f8dd2d1aeeb69" target="_top" xlink:title="Processes a maximum of the specified number of function objects in the queue.">
<polygon fill="white" stroke="black" points="256,-0.5 256,-19.5 371,-19.5 371,-0.5 256,-0.5"/>
<text text-anchor="middle" x="313.5" y="-7.5" font-family="Helvetica,sans-Serif" font-size="10.00">Thread::processQueue</text>
</a>
</g>
</g>
<!-- Node3&#45;&gt;Node24 -->
<g id="edge28" class="edge"><title>Node3&#45;&gt;Node24</title>
<path fill="none" stroke="midnightblue" d="M159.604,-195.45C169.297,-167.019 201.646,-81.9373 256,-34 260.455,-30.0711 265.648,-26.7154 271.047,-23.8695"/>
<polygon fill="midnightblue" stroke="midnightblue" points="272.672,-26.9728 280.232,-19.5502 269.694,-20.6381 272.672,-26.9728"/>
</g>
<!-- Node5 -->
<g id="node5" class="node"><title>Node5</title>
<g id="a_node5"><a xlink:href="class_control.html#a5556f2e0a0d67ccba4981ddc8c39d2c3" target="_top" xlink:title=" ">
<polygon fill="white" stroke="black" points="417.5,-342.5 417.5,-361.5 497.5,-361.5 497.5,-342.5 417.5,-342.5"/>
<text text-anchor="middle" x="457.5" y="-349.5" font-family="Helvetica,sans-Serif" font-size="10.00">Control::create</text>
</a>
</g>
</g>
<!-- Node4&#45;&gt;Node5 -->
<g id="edge4" class="edge"><title>Node4&#45;&gt;Node5</title>
<path fill="none" stroke="midnightblue" d="M352.553,-348.34C369.388,-348.933 389.398,-349.637 407.345,-350.269"/>
<polygon fill="midnightblue" stroke="midnightblue" points="407.234,-353.767 417.351,-350.622 407.481,-346.772 407.234,-353.767"/>
</g>
<!-- Node6 -->
<g id="node6" class="node"><title>Node6</title>
<g id="a_node6"><a xlink:href="class_control.html#af9a3acf49973e5a31594f30e979246b0" target="_top" xlink:title=" ">
<polygon fill="white" stroke="black" points="572,-323.5 572,-342.5 649,-342.5 649,-323.5 572,-323.5"/>
<text text-anchor="middle" x="610.5" y="-330.5" font-family="Helvetica,sans-Serif" font-size="10.00">Control::insert</text>
</a>
</g>
</g>
<!-- Node5&#45;&gt;Node6 -->
<g id="edge5" class="edge"><title>Node5&#45;&gt;Node6</title>
<path fill="none" stroke="midnightblue" d="M497.779,-347.058C517.365,-344.593 541.212,-341.592 561.837,-338.997"/>
<polygon fill="midnightblue" stroke="midnightblue" points="562.494,-342.442 571.979,-337.721 561.62,-335.497 562.494,-342.442"/>
</g>
<!-- Node7&#45;&gt;Node6 -->
<g id="edge7" class="edge"><title>Node7&#45;&gt;Node6</title>
<path fill="none" stroke="midnightblue" d="M491.265,-318.123C511.8,-320.707 538.623,-324.082 561.53,-326.964"/>
<polygon fill="midnightblue" stroke="midnightblue" points="561.383,-330.473 571.742,-328.249 562.257,-323.528 561.383,-330.473"/>
</g>
<!-- Node10 -->
<g id="node10" class="node"><title>Node10</title>
<g id="a_node10"><a xlink:href="class_thread.html#adb11ad65376e640d84d47f0394f94f10" target="_top" xlink:title=" ">
<polygon fill="white" stroke="black" points="1058,-152.5 1058,-171.5 1125,-171.5 1125,-152.5 1058,-152.5"/>
<text text-anchor="middle" x="1091.5" y="-159.5" font-family="Helvetica,sans-Serif" font-size="10.00">Thread::call</text>
</a>
</g>
</g>
<!-- Node9&#45;&gt;Node10 -->
<g id="edge10" class="edge"><title>Node9&#45;&gt;Node10</title>
<path fill="none" stroke="midnightblue" d="M350.459,-214.575C357.508,-217.141 364.672,-220.265 371,-224 389.692,-235.032 387.161,-248.194 407,-257 489.622,-293.674 519.105,-276 609.5,-276 609.5,-276 609.5,-276 781,-276 888.443,-276 928.354,-309.674 1022,-257 1052.28,-239.97 1072.65,-203.363 1082.85,-180.892"/>
<polygon fill="midnightblue" stroke="midnightblue" points="1086.08,-182.251 1086.83,-171.683 1079.65,-179.479 1086.08,-182.251"/>
</g>
<!-- Node12 -->
<g id="node12" class="node"><title>Node12</title>
<g id="a_node12"><a xlink:href="class_thread.html#ada9adb041744058adc9abb1744e86c5d" target="_top" xlink:title=" ">
<polygon fill="white" stroke="black" points="422,-228.5 422,-247.5 493,-247.5 493,-228.5 422,-228.5"/>
<text text-anchor="middle" x="457.5" y="-235.5" font-family="Helvetica,sans-Serif" font-size="10.00">Thread::start</text>
</a>
</g>
</g>
<!-- Node9&#45;&gt;Node12 -->
<g id="edge12" class="edge"><title>Node9&#45;&gt;Node12</title>
<path fill="none" stroke="midnightblue" d="M355.192,-214.456C372.894,-218.57 393.69,-223.403 411.82,-227.617"/>
<polygon fill="midnightblue" stroke="midnightblue" points="411.048,-231.03 421.581,-229.885 412.633,-224.212 411.048,-231.03"/>
</g>
<!-- Node18 -->
<g id="node18" class="node"><title>Node18</title>
<g id="a_node18"><a xlink:href="class_thread.html#abd50159ecd409936f454c2321f673616" target="_top" xlink:title="Stops a running thread as fast as intended. In longer lasting processing it must be provided,...">
<polygon fill="white" stroke="black" points="422,-190.5 422,-209.5 493,-209.5 493,-190.5 422,-190.5"/>
<text text-anchor="middle" x="457.5" y="-197.5" font-family="Helvetica,sans-Serif" font-size="10.00">Thread::stop</text>
</a>
</g>
</g>
<!-- Node9&#45;&gt;Node18 -->
<g id="edge19" class="edge"><title>Node9&#45;&gt;Node18</title>
<path fill="none" stroke="midnightblue" d="M355.192,-203.567C372.812,-202.947 393.498,-202.218 411.568,-201.582"/>
<polygon fill="midnightblue" stroke="midnightblue" points="411.71,-205.079 421.581,-201.23 411.464,-198.084 411.71,-205.079"/>
</g>
<!-- Node11 -->
<g id="node11" class="node"><title>Node11</title>
<g id="a_node11"><a xlink:href="class_thread.html#a1333a7179253857c1431b82e162272fd" target="_top" xlink:title=" ">
<polygon fill="white" stroke="black" points="1161,-152.5 1161,-171.5 1250,-171.5 1250,-152.5 1161,-152.5"/>
<text text-anchor="middle" x="1205.5" y="-159.5" font-family="Helvetica,sans-Serif" font-size="10.00">Thread::enqueue</text>
</a>
</g>
</g>
<!-- Node10&#45;&gt;Node11 -->
<g id="edge11" class="edge"><title>Node10&#45;&gt;Node11</title>
<path fill="none" stroke="midnightblue" d="M1125.2,-162C1133.18,-162 1141.93,-162 1150.61,-162"/>
<polygon fill="midnightblue" stroke="midnightblue" points="1150.72,-165.5 1160.72,-162 1150.72,-158.5 1150.72,-165.5"/>
</g>
<!-- Node13 -->
<g id="node13" class="node"><title>Node13</title>
<g id="a_node13"><a xlink:href="class_thread.html#a1f53ee62bd30a7924186ef26150ce262" target="_top" xlink:title="The most normal way to start a new thread.">
<polygon fill="white" stroke="black" points="575,-228.5 575,-247.5 646,-247.5 646,-228.5 575,-228.5"/>
<text text-anchor="middle" x="610.5" y="-235.5" font-family="Helvetica,sans-Serif" font-size="10.00">Thread::start</text>
</a>
</g>
</g>
<!-- Node12&#45;&gt;Node13 -->
<g id="edge13" class="edge"><title>Node12&#45;&gt;Node13</title>
<path fill="none" stroke="midnightblue" d="M493.142,-238C514.36,-238 541.738,-238 564.606,-238"/>
<polygon fill="midnightblue" stroke="midnightblue" points="564.758,-241.5 574.758,-238 564.758,-234.5 564.758,-241.5"/>
</g>
<!-- Node14 -->
<g id="node14" class="node"><title>Node14</title>
<g id="a_node14"><a xlink:href="struct_thread_1_1_impl.html#a0164f5b95922ac969d1d81914e5d5eb9" target="_top" xlink:title="The normally used processing loop of a background thread.">
<polygon fill="white" stroke="black" points="713,-209.5 713,-228.5 847,-228.5 847,-209.5 713,-209.5"/>
<text text-anchor="middle" x="780" y="-216.5" font-family="Helvetica,sans-Serif" font-size="10.00">Thread::Impl::standardLoop</text>
</a>
</g>
</g>
<!-- Node13&#45;&gt;Node14 -->
<g id="edge14" class="edge"><title>Node13&#45;&gt;Node14</title>
<path fill="none" stroke="midnightblue" d="M646.206,-234.063C662.683,-232.194 683.07,-229.882 702.883,-227.634"/>
<polygon fill="midnightblue" stroke="midnightblue" points="703.312,-231.108 712.854,-226.503 702.523,-224.153 703.312,-231.108"/>
</g>
<!-- Node15 -->
<g id="node15" class="node"><title>Node15</title>
<g id="a_node15"><a xlink:href="class_edit.html#a3ced1bcf14de542e25d512991bcfed2f" target="_top" xlink:title=" ">
<polygon fill="white" stroke="black" points="924.5,-152.5 924.5,-171.5 980.5,-171.5 980.5,-152.5 924.5,-152.5"/>
<text text-anchor="middle" x="952.5" y="-159.5" font-family="Helvetica,sans-Serif" font-size="10.00">Edit::add</text>
</a>
</g>
</g>
<!-- Node14&#45;&gt;Node15 -->
<g id="edge15" class="edge"><title>Node14&#45;&gt;Node15</title>
<path fill="none" stroke="midnightblue" d="M805.113,-209.348C825.652,-201.288 856.036,-189.744 883,-181 893.125,-177.716 904.203,-174.489 914.443,-171.652"/>
<polygon fill="midnightblue" stroke="midnightblue" points="915.608,-174.962 924.337,-168.958 913.768,-168.208 915.608,-174.962"/>
</g>
<!-- Node16 -->
<g id="node16" class="node"><title>Node16</title>
<g id="a_node16"><a xlink:href="struct_thread_1_1_impl.html#ae467f41841d4236274bf360f470ec775" target="_top" xlink:title="process the queue of functors, usually called form notify&#45;functor">
<polygon fill="white" stroke="black" points="883,-190.5 883,-209.5 1022,-209.5 1022,-190.5 883,-190.5"/>
<text text-anchor="middle" x="952.5" y="-197.5" font-family="Helvetica,sans-Serif" font-size="10.00">Thread::Impl::processQueue</text>
</a>
</g>
</g>
<!-- Node14&#45;&gt;Node16 -->
<g id="edge17" class="edge"><title>Node14&#45;&gt;Node16</title>
<path fill="none" stroke="midnightblue" d="M847.408,-211.6C855.651,-210.681 864.141,-209.735 872.549,-208.798"/>
<polygon fill="midnightblue" stroke="midnightblue" points="873.192,-212.248 882.742,-207.662 872.416,-205.291 873.192,-212.248"/>
</g>
<!-- Node17 -->
<g id="node17" class="node"><title>Node17</title>
<g id="a_node17"><a xlink:href="_thread_8cpp.html#a1b6cdfcdd75b61856b37cf13deae9334" target="_top" xlink:title=" ">
<polygon fill="white" stroke="black" points="909.5,-228.5 909.5,-247.5 995.5,-247.5 995.5,-228.5 909.5,-228.5"/>
<text text-anchor="middle" x="952.5" y="-235.5" font-family="Helvetica,sans-Serif" font-size="10.00">SetThreadName</text>
</a>
</g>
</g>
<!-- Node14&#45;&gt;Node17 -->
<g id="edge18" class="edge"><title>Node14&#45;&gt;Node17</title>
<path fill="none" stroke="midnightblue" d="M847.408,-226.4C864.675,-228.325 883.028,-230.37 899.437,-232.198"/>
<polygon fill="midnightblue" stroke="midnightblue" points="899.05,-235.677 909.376,-233.306 899.825,-228.72 899.05,-235.677"/>
</g>
<!-- Node15&#45;&gt;Node10 -->
<g id="edge16" class="edge"><title>Node15&#45;&gt;Node10</title>
<path fill="none" stroke="midnightblue" d="M980.567,-162C999.685,-162 1025.7,-162 1047.63,-162"/>
<polygon fill="midnightblue" stroke="midnightblue" points="1047.69,-165.5 1057.69,-162 1047.69,-158.5 1047.69,-165.5"/>
</g>
<!-- Node19&#45;&gt;Node15 -->
<g id="edge21" class="edge"><title>Node19&#45;&gt;Node15</title>
<path fill="none" stroke="midnightblue" d="M364.219,-149.093C487.485,-151.802 805.083,-158.782 914.107,-161.178"/>
<polygon fill="midnightblue" stroke="midnightblue" points="914.215,-164.681 924.289,-161.402 914.369,-157.683 914.215,-164.681"/>
</g>
<!-- Node20 -->
<g id="node20" class="node"><title>Node20</title>
<g id="a_node20"><a xlink:href="output_8hpp.html#a40ccb49bbe6f7e94ed2bc2dc6cd7e8d0" target="_top" xlink:title=" ">
<polygon fill="white" stroke="black" points="435.5,-114.5 435.5,-133.5 479.5,-133.5 479.5,-114.5 435.5,-114.5"/>
<text text-anchor="middle" x="457.5" y="-121.5" font-family="Helvetica,sans-Serif" font-size="10.00">format</text>
</a>
</g>
</g>
<!-- Node19&#45;&gt;Node20 -->
<g id="edge22" class="edge"><title>Node19&#45;&gt;Node20</title>
<path fill="none" stroke="midnightblue" d="M364.165,-139.606C384.489,-136.171 407.385,-132.301 425.293,-129.274"/>
<polygon fill="midnightblue" stroke="midnightblue" points="425.926,-132.717 435.203,-127.6 424.759,-125.815 425.926,-132.717"/>
</g>
<!-- Node21 -->
<g id="node21" class="node"><title>Node21</title>
<g id="a_node21"><a xlink:href="class_test_case.html#a67dbda1a6ccebdf1c834c54fce361a6a" target="_top" xlink:title=" ">
<polygon fill="white" stroke="black" points="407,-76.5 407,-95.5 508,-95.5 508,-76.5 407,-76.5"/>
<text text-anchor="middle" x="457.5" y="-83.5" font-family="Helvetica,sans-Serif" font-size="10.00">TestCase::runTests</text>
</a>
</g>
</g>
<!-- Node19&#45;&gt;Node21 -->
<g id="edge23" class="edge"><title>Node19&#45;&gt;Node21</title>
<path fill="none" stroke="midnightblue" d="M334.172,-138.377C352.779,-129.389 381.563,-115.779 407,-105 411.529,-103.081 416.324,-101.135 421.077,-99.2571"/>
<polygon fill="midnightblue" stroke="midnightblue" points="422.62,-102.412 430.674,-95.5288 420.086,-95.8875 422.62,-102.412"/>
</g>
<!-- Node22 -->
<g id="node22" class="node"><title>Node22</title>
<g id="a_node22"><a xlink:href="namespaceanonymous__namespace_02_test_case_8cpp_03.html#a4073e77346d8adea8ac92f2e309de1aa" target="_top" xlink:title=" ">
<polygon fill="white" stroke="black" points="544,-77 544,-107 677,-107 677,-77 544,-77"/>
<text text-anchor="start" x="552" y="-95" font-family="Helvetica,sans-Serif" font-size="10.00">anonymous_namespace</text>
<text text-anchor="middle" x="610.5" y="-84" font-family="Helvetica,sans-Serif" font-size="10.00">{TestCase::cpp}::getCases</text>
</a>
</g>
</g>
<!-- Node21&#45;&gt;Node22 -->
<g id="edge24" class="edge"><title>Node21&#45;&gt;Node22</title>
<path fill="none" stroke="midnightblue" d="M508.362,-87.9813C516.512,-88.3051 525.114,-88.6469 533.721,-88.9889"/>
<polygon fill="midnightblue" stroke="midnightblue" points="533.67,-92.4896 543.801,-89.3894 533.948,-85.4951 533.67,-92.4896"/>
</g>
<!-- Node23&#45;&gt;Node10 -->
<g id="edge27" class="edge"><title>Node23&#45;&gt;Node10</title>
<path fill="none" stroke="midnightblue" d="M835.455,-125.316C884.548,-127.206 958.556,-131.807 1022,-143 1031.46,-144.669 1041.5,-147.08 1050.9,-149.627"/>
<polygon fill="midnightblue" stroke="midnightblue" points="1050.2,-153.068 1060.78,-152.416 1052.1,-146.331 1050.2,-153.068"/>
</g>
<!-- Node23&#45;&gt;Node15 -->
<g id="edge26" class="edge"><title>Node23&#45;&gt;Node15</title>
<path fill="none" stroke="midnightblue" d="M824.024,-133.589C851.893,-139.8 887.817,-147.807 914.422,-153.736"/>
<polygon fill="midnightblue" stroke="midnightblue" points="913.962,-157.22 924.484,-155.979 915.485,-150.387 913.962,-157.22"/>
</g>
</g>
</svg>
        <g id="navigator" transform="translate(0 0)" fill="#404254">
                <rect fill="#f2f5e9" fill-opacity="0.5" stroke="#606060" stroke-width=".5" x="0" y="0" width="60" height="60"/>
                <use id="zoomplus" xlink:href="#zoomPlus" x="17" y="9" onmousedown="handleZoom(evt,'in')"/>
                <use id="zoomminus" xlink:href="#zoomMin" x="42" y="9" onmousedown="handleZoom(evt,'out')"/>
                <use id="reset" xlink:href="#resetDef" x="30" y="36" onmousedown="handleReset()"/>
                <g id="arrowUp" xlink:href="#dirArrow" transform="translate(30 24)" onmousedown="handlePan(0,-1)">
                  <use xlink:href="#rim" fill="#404040">
                        <set attributeName="fill" to="#808080" begin="arrowUp.mouseover" end="arrowUp.mouseout"/>
                  </use>
                  <path fill="none" stroke="white" stroke-width="1.5" d="M0,-3.0v7 M-2.5,-0.5L0,-3.0L2.5,-0.5"/>
                </g>
                <g id="arrowRight" xlink:href="#dirArrow" transform="rotate(90) translate(36 -43)" onmousedown="handlePan(1,0)">
                  <use xlink:href="#rim" fill="#404040">
                        <set attributeName="fill" to="#808080" begin="arrowRight.mouseover" end="arrowRight.mouseout"/>
                  </use>
                  <path fill="none" stroke="white" stroke-width="1.5" d="M0,-3.0v7 M-2.5,-0.5L0,-3.0L2.5,-0.5"/>
                </g>
                <g id="arrowDown" xlink:href="#dirArrow" transform="rotate(180) translate(-30 -48)" onmousedown="handlePan(0,1)">
                  <use xlink:href="#rim" fill="#404040">
                        <set attributeName="fill" to="#808080" begin="arrowDown.mouseover" end="arrowDown.mouseout"/>
                  </use>
                  <path fill="none" stroke="white" stroke-width="1.5" d="M0,-3.0v7 M-2.5,-0.5L0,-3.0L2.5,-0.5"/>
                </g>
                <g id="arrowLeft" xlink:href="#dirArrow" transform="rotate(270) translate(-36 17)" onmousedown="handlePan(-1,0)">
                  <use xlink:href="#rim" fill="#404040">
                        <set attributeName="fill" to="#808080" begin="arrowLeft.mouseover" end="arrowLeft.mouseout"/>
                  </use>
                  <path fill="none" stroke="white" stroke-width="1.5" d="M0,-3.0v7 M-2.5,-0.5L0,-3.0L2.5,-0.5"/>
                </g>
        </g>
        <svg viewBox="0 0 15 15" width="100%" height="30px" preserveAspectRatio="xMaxYMin meet">
         <g id="arrow_out" transform="scale(0.3 0.3)">
          <a xlink:href="main_8cpp_a946cd7d17bf6760d82ded70909de9a6d_cgraph_org.svg" target="_base">
           <rect id="button" ry="5" rx="5" y="6" x="6" height="38" width="38"
                fill="#f2f5e9" fill-opacity="0.5" stroke="#606060" stroke-width="1.0"/>
           <path id="arrow"
             d="M 11.500037,31.436501 C 11.940474,20.09759 22.043105,11.32322 32.158766,21.979434 L 37.068811,17.246167 C 37.068811,17.246167 37.088388,32 37.088388,32 L 22.160133,31.978069 C 22.160133,31.978069 26.997745,27.140456 26.997745,27.140456 C 18.528582,18.264221 13.291696,25.230495 11.500037,31.436501 z"
             style="fill:#404040;"/>
          </a>
         </g>
        </svg>
</svg>
