<?xml version="1.0" encoding="UTF-8" standalone="no"?>
<!DOCTYPE svg PUBLIC "-//W3C//DTD SVG 1.1//EN"
 "http://www.w3.org/Graphics/SVG/1.1/DTD/svg11.dtd">
<!-- Generated by graphviz version 2.38.0 (20140413.2041)
 -->
<!-- Title: src/main.cpp Pages: 1 -->
<!--zoomable 420 -->
<svg id="main" version="1.1" xmlns="http://www.w3.org/2000/svg" xmlns:xlink="http://www.w3.org/1999/xlink" xml:space="preserve" onload="init(evt)">
<style type="text/css"><![CDATA[
.edge:hover path { stroke: red; }
.edge:hover polygon { stroke: red; fill: red; }
]]></style>
<script type="text/javascript"><![CDATA[
var edges = document.getElementsByTagName('g');
if (edges && edges.length) {
  for (var i=0;i<edges.length;i++) {
    if (edges[i].id.substr(0,4)=='edge') {
      edges[i].setAttribute('class','edge');
    }
  }
}
]]></script>
        <defs>
                <circle id="rim" cx="0" cy="0" r="7"/>
                <circle id="rim2" cx="0" cy="0" r="3.5"/>
                <g id="zoomPlus">
                        <use xlink:href="#rim" fill="#404040">
                                <set attributeName="fill" to="#808080" begin="zoomplus.mouseover" end="zoomplus.mouseout"/>
                        </use>
                        <path d="M-4,0h8M0,-4v8" fill="none" stroke="white" stroke-width="1.5" pointer-events="none"/>
                </g>
                <g id="zoomMin">
                        <use xlink:href="#rim" fill="#404040">
                                <set attributeName="fill" to="#808080" begin="zoomminus.mouseover" end="zoomminus.mouseout"/>
                        </use>
                        <path d="M-4,0h8" fill="none" stroke="white" stroke-width="1.5" pointer-events="none"/>
                </g>
                <g id="dirArrow">
                        <path fill="none" stroke="white" stroke-width="1.5" d="M0,-3.0v7 M-2.5,-0.5L0,-3.0L2.5,-0.5"/>
                </g>
               <g id="resetDef">
                       <use xlink:href="#rim2" fill="#404040">
                               <set attributeName="fill" to="#808080" begin="reset.mouseover" end="reset.mouseout"/>
                       </use>
               </g>
        </defs>

<script type="text/javascript">
var viewWidth = 705;
var viewHeight = 420;
var sectionId = 'dynsection-0';
</script>
<script xlink:href="svgpan.js"/>
<svg id="graph" class="graph">
<g id="viewport">
<title>src/main.cpp</title>
<polygon fill="white" stroke="none" points="-4,4 -4,-416 700.956,-416 700.956,4 -4,4"/>
<!-- Node1 -->
<g id="node1" class="node"><title>Node1</title>
<g id="a_node1"><a xlink:title=" ">
<polygon fill="#bfbfbf" stroke="black" points="305.5,-392.5 305.5,-411.5 378.5,-411.5 378.5,-392.5 305.5,-392.5"/>
<text text-anchor="middle" x="342" y="-399.5" font-family="Helvetica,sans-Serif" font-size="10.00">src/main.cpp</text>
</a>
</g>
</g>
<!-- Node2 -->
<g id="node2" class="node"><title>Node2</title>
<g id="a_node2"><a xlink:title=" ">
<polygon fill="white" stroke="#bfbfbf" points="204,-168.5 204,-187.5 256,-187.5 256,-168.5 204,-168.5"/>
<text text-anchor="middle" x="230" y="-175.5" font-family="Helvetica,sans-Serif" font-size="10.00">sstream</text>
</a>
</g>
</g>
<!-- Node1&#45;&gt;Node2 -->
<g id="edge1" class="edge"><title>Node1&#45;&gt;Node2</title>
<path fill="none" stroke="midnightblue" d="M305.271,-395.441C281.603,-389.78 252.459,-378.465 237,-356 203.493,-307.307 216.353,-231.96 224.844,-197.428"/>
<polygon fill="midnightblue" stroke="midnightblue" points="228.235,-198.297 227.383,-187.736 221.463,-196.523 228.235,-198.297"/>
</g>
<!-- Node3 -->
<g id="node3" class="node"><title>Node3</title>
<g id="a_node3"><a xlink:title=" ">
<polygon fill="white" stroke="#bfbfbf" points="14,-56.5 14,-75.5 76,-75.5 76,-56.5 14,-56.5"/>
<text text-anchor="middle" x="45" y="-63.5" font-family="Helvetica,sans-Serif" font-size="10.00">windows.h</text>
</a>
</g>
</g>
<!-- Node1&#45;&gt;Node3 -->
<g id="edge2" class="edge"><title>Node1&#45;&gt;Node3</title>
<path fill="none" stroke="midnightblue" d="M305.468,-397.982C239.76,-392.085 104.605,-377.685 63,-356 27.3236,-337.405 0,-331.231 0,-291 0,-291 0,-291 0,-177 0,-141.93 19.8368,-104.939 33.1694,-84.037"/>
<polygon fill="midnightblue" stroke="midnightblue" points="36.1342,-85.8991 38.7429,-75.6305 30.3,-82.031 36.1342,-85.8991"/>
</g>
<!-- Node4 -->
<g id="node4" class="node"><title>Node4</title>
<g id="a_node4"><a xlink:href="dbg__new_8h.html" target="_top" xlink:title=" ">
<polygon fill="white" stroke="black" points="88.5,-336.5 88.5,-355.5 151.5,-355.5 151.5,-336.5 88.5,-336.5"/>
<text text-anchor="middle" x="120" y="-343.5" font-family="Helvetica,sans-Serif" font-size="10.00">dbg_new.h</text>
</a>
</g>
</g>
<!-- Node1&#45;&gt;Node4 -->
<g id="edge3" class="edge"><title>Node1&#45;&gt;Node4</title>
<path fill="none" stroke="midnightblue" d="M306.823,-392.444C267.404,-382.855 203.547,-367.322 161.661,-357.134"/>
<polygon fill="midnightblue" stroke="midnightblue" points="162.319,-353.692 151.775,-354.729 160.664,-360.493 162.319,-353.692"/>
</g>
<!-- Node5 -->
<g id="node5" class="node"><title>Node5</title>
<g id="a_node5"><a xlink:href="utils_8hpp.html" target="_top" xlink:title=" ">
<polygon fill="white" stroke="black" points="353.5,-280.5 353.5,-299.5 406.5,-299.5 406.5,-280.5 353.5,-280.5"/>
<text text-anchor="middle" x="380" y="-287.5" font-family="Helvetica,sans-Serif" font-size="10.00">utils.hpp</text>
</a>
</g>
</g>
<!-- Node1&#45;&gt;Node5 -->
<g id="edge20" class="edge"><title>Node1&#45;&gt;Node5</title>
<path fill="none" stroke="midnightblue" d="M344.982,-392.368C351.142,-374.537 365.389,-333.295 373.688,-309.272"/>
<polygon fill="midnightblue" stroke="midnightblue" points="377.075,-310.186 377.032,-299.591 370.459,-307.9 377.075,-310.186"/>
</g>
<!-- Node10 -->
<g id="node10" class="node"><title>Node10</title>
<g id="a_node10"><a xlink:href="_edit_8h.html" target="_top" xlink:title=" ">
<polygon fill="white" stroke="black" points="274,-168.5 274,-187.5 316,-187.5 316,-168.5 274,-168.5"/>
<text text-anchor="middle" x="295" y="-175.5" font-family="Helvetica,sans-Serif" font-size="10.00">Edit.h</text>
</a>
</g>
</g>
<!-- Node1&#45;&gt;Node10 -->
<g id="edge30" class="edge"><title>Node1&#45;&gt;Node10</title>
<path fill="none" stroke="midnightblue" d="M340.158,-392.297C333.242,-359.633 308.733,-243.866 299.013,-197.957"/>
<polygon fill="midnightblue" stroke="midnightblue" points="302.376,-196.942 296.881,-187.884 295.528,-198.392 302.376,-196.942"/>
</g>
<!-- Node17 -->
<g id="node17" class="node"><title>Node17</title>
<g id="a_node17"><a xlink:title=" ">
<polygon fill="white" stroke="#bfbfbf" points="246,-336.5 246,-355.5 314,-355.5 314,-336.5 246,-336.5"/>
<text text-anchor="middle" x="280" y="-343.5" font-family="Helvetica,sans-Serif" font-size="10.00">CommCtrl.h</text>
</a>
</g>
</g>
<!-- Node1&#45;&gt;Node17 -->
<g id="edge21" class="edge"><title>Node1&#45;&gt;Node17</title>
<path fill="none" stroke="midnightblue" d="M332.039,-392.324C322.873,-384.341 309.063,-372.313 297.972,-362.653"/>
<polygon fill="midnightblue" stroke="midnightblue" points="299.982,-359.762 290.143,-355.834 295.385,-365.041 299.982,-359.762"/>
</g>
<!-- Node18 -->
<g id="node18" class="node"><title>Node18</title>
<g id="a_node18"><a xlink:href="_thread_8h.html" target="_top" xlink:title=" ">
<polygon fill="white" stroke="black" points="584,-112.5 584,-131.5 638,-131.5 638,-112.5 584,-112.5"/>
<text text-anchor="middle" x="611" y="-119.5" font-family="Helvetica,sans-Serif" font-size="10.00">Thread.h</text>
</a>
</g>
</g>
<!-- Node1&#45;&gt;Node18 -->
<g id="edge22" class="edge"><title>Node1&#45;&gt;Node18</title>
<path fill="none" stroke="midnightblue" d="M378.717,-400.952C456.192,-400.093 632.886,-393.915 677,-356 699.826,-336.382 696,-321.098 696,-291 696,-291 696,-291 696,-233 696,-191.765 658.139,-156.574 632.953,-137.726"/>
<polygon fill="midnightblue" stroke="midnightblue" points="634.818,-134.756 624.657,-131.758 630.731,-140.439 634.818,-134.756"/>
</g>
<!-- Node20 -->
<g id="node20" class="node"><title>Node20</title>
<g id="a_node20"><a xlink:href="_button_8h.html" target="_top" xlink:title=" ">
<polygon fill="white" stroke="black" points="148.5,-280.5 148.5,-299.5 201.5,-299.5 201.5,-280.5 148.5,-280.5"/>
<text text-anchor="middle" x="175" y="-287.5" font-family="Helvetica,sans-Serif" font-size="10.00">Button.h</text>
</a>
</g>
</g>
<!-- Node1&#45;&gt;Node20 -->
<g id="edge28" class="edge"><title>Node1&#45;&gt;Node20</title>
<path fill="none" stroke="midnightblue" d="M305.364,-397.303C274.922,-392.473 232.181,-381.381 204,-356 190.537,-343.875 182.983,-324.316 178.985,-309.816"/>
<polygon fill="midnightblue" stroke="midnightblue" points="182.343,-308.813 176.582,-299.922 175.541,-310.465 182.343,-308.813"/>
</g>
<!-- Node21 -->
<g id="node21" class="node"><title>Node21</title>
<g id="a_node21"><a xlink:href="_progress_8h.html" target="_top" xlink:title=" ">
<polygon fill="white" stroke="black" points="28,-280.5 28,-299.5 92,-299.5 92,-280.5 28,-280.5"/>
<text text-anchor="middle" x="60" y="-287.5" font-family="Helvetica,sans-Serif" font-size="10.00">Progress.h</text>
</a>
</g>
</g>
<!-- Node1&#45;&gt;Node21 -->
<g id="edge31" class="edge"><title>Node1&#45;&gt;Node21</title>
<path fill="none" stroke="midnightblue" d="M305.375,-399.421C241.151,-395.913 111.897,-385.318 79,-356 65.9906,-344.406 61.6765,-324.448 60.3498,-309.698"/>
<polygon fill="midnightblue" stroke="midnightblue" points="63.8422,-309.461 59.823,-299.659 56.8519,-309.828 63.8422,-309.461"/>
</g>
<!-- Node22 -->
<g id="node22" class="node"><title>Node22</title>
<g id="a_node22"><a xlink:title=" ">
<polygon fill="white" stroke="#bfbfbf" points="492.5,-336.5 492.5,-355.5 541.5,-355.5 541.5,-336.5 492.5,-336.5"/>
<text text-anchor="middle" x="517" y="-343.5" font-family="Helvetica,sans-Serif" font-size="10.00">fstream</text>
</a>
</g>
</g>
<!-- Node1&#45;&gt;Node22 -->
<g id="edge33" class="edge"><title>Node1&#45;&gt;Node22</title>
<path fill="none" stroke="midnightblue" d="M369.729,-392.444C400.299,-383.011 449.513,-367.824 482.539,-357.634"/>
<polygon fill="midnightblue" stroke="midnightblue" points="483.707,-360.936 492.23,-354.643 481.643,-354.248 483.707,-360.936"/>
</g>
<!-- Node23 -->
<g id="node23" class="node"><title>Node23</title>
<g id="a_node23"><a xlink:title=" ">
<polygon fill="white" stroke="#bfbfbf" points="559.5,-336.5 559.5,-355.5 600.5,-355.5 600.5,-336.5 559.5,-336.5"/>
<text text-anchor="middle" x="580" y="-343.5" font-family="Helvetica,sans-Serif" font-size="10.00">ctime</text>
</a>
</g>
</g>
<!-- Node1&#45;&gt;Node23 -->
<g id="edge34" class="edge"><title>Node1&#45;&gt;Node23</title>
<path fill="none" stroke="midnightblue" d="M378.855,-394.094C418.746,-386.393 484.413,-373.061 549.461,-356.237"/>
<polygon fill="midnightblue" stroke="midnightblue" points="550.681,-359.536 559.47,-353.619 548.91,-352.763 550.681,-359.536"/>
</g>
<!-- Node24 -->
<g id="node24" class="node"><title>Node24</title>
<g id="a_node24"><a xlink:title=" ">
<polygon fill="white" stroke="#bfbfbf" points="618.5,-336.5 618.5,-355.5 667.5,-355.5 667.5,-336.5 618.5,-336.5"/>
<text text-anchor="middle" x="643" y="-343.5" font-family="Helvetica,sans-Serif" font-size="10.00">random</text>
</a>
</g>
</g>
<!-- Node1&#45;&gt;Node24 -->
<g id="edge35" class="edge"><title>Node1&#45;&gt;Node24</title>
<path fill="none" stroke="midnightblue" d="M378.635,-396.033C428.579,-389.002 520.99,-375.077 608.394,-356.194"/>
<polygon fill="midnightblue" stroke="midnightblue" points="609.178,-359.605 618.2,-354.049 607.683,-352.766 609.178,-359.605"/>
</g>
<!-- Node25 -->
<g id="node25" class="node"><title>Node25</title>
<g id="a_node25"><a xlink:href="_test_case_8h.html" target="_top" xlink:title=" ">
<polygon fill="white" stroke="black" points="408,-336.5 408,-355.5 474,-355.5 474,-336.5 408,-336.5"/>
<text text-anchor="middle" x="441" y="-343.5" font-family="Helvetica,sans-Serif" font-size="10.00">TestCase.h</text>
</a>
</g>
</g>
<!-- Node1&#45;&gt;Node25 -->
<g id="edge36" class="edge"><title>Node1&#45;&gt;Node25</title>
<path fill="none" stroke="midnightblue" d="M357.906,-392.324C373.638,-383.743 397.942,-370.486 416.209,-360.522"/>
<polygon fill="midnightblue" stroke="midnightblue" points="418.03,-363.516 425.133,-355.655 414.678,-357.37 418.03,-363.516"/>
</g>
<!-- Node4&#45;&gt;Node5 -->
<g id="edge4" class="edge"><title>Node4&#45;&gt;Node5</title>
<path fill="none" stroke="midnightblue" d="M151.621,-338.433C199.986,-328.387 292.102,-309.256 343.328,-298.616"/>
<polygon fill="midnightblue" stroke="midnightblue" points="344.226,-302.005 353.305,-296.544 342.803,-295.151 344.226,-302.005"/>
</g>
<!-- Node15 -->
<g id="node15" class="node"><title>Node15</title>
<g id="a_node15"><a xlink:title=" ">
<polygon fill="white" stroke="#bfbfbf" points="138,-56.5 138,-75.5 190,-75.5 190,-56.5 138,-56.5"/>
<text text-anchor="middle" x="164" y="-63.5" font-family="Helvetica,sans-Serif" font-size="10.00">assert.h</text>
</a>
</g>
</g>
<!-- Node4&#45;&gt;Node15 -->
<g id="edge19" class="edge"><title>Node4&#45;&gt;Node15</title>
<path fill="none" stroke="midnightblue" d="M120,-336.442C120,-317.936 120,-272.813 120,-235 120,-235 120,-235 120,-177 120,-142.04 139.396,-105.013 152.432,-84.0745"/>
<polygon fill="midnightblue" stroke="midnightblue" points="155.388,-85.9487 157.882,-75.6515 149.511,-82.1462 155.388,-85.9487"/>
</g>
<!-- Node6 -->
<g id="node6" class="node"><title>Node6</title>
<g id="a_node6"><a xlink:href="output_8hpp.html" target="_top" xlink:title=" ">
<polygon fill="white" stroke="black" points="410,-224.5 410,-243.5 472,-243.5 472,-224.5 410,-224.5"/>
<text text-anchor="middle" x="441" y="-231.5" font-family="Helvetica,sans-Serif" font-size="10.00">output.hpp</text>
</a>
</g>
</g>
<!-- Node5&#45;&gt;Node6 -->
<g id="edge5" class="edge"><title>Node5&#45;&gt;Node6</title>
<path fill="none" stroke="midnightblue" d="M389.801,-280.324C398.818,-272.341 412.406,-260.313 423.318,-250.653"/>
<polygon fill="midnightblue" stroke="midnightblue" points="425.853,-253.083 431.021,-243.834 421.213,-247.842 425.853,-253.083"/>
</g>
<!-- Node16 -->
<g id="node16" class="node"><title>Node16</title>
<g id="a_node16"><a xlink:title=" ">
<polygon fill="white" stroke="#bfbfbf" points="332.5,-224.5 332.5,-243.5 391.5,-243.5 391.5,-224.5 332.5,-224.5"/>
<text text-anchor="middle" x="362" y="-231.5" font-family="Helvetica,sans-Serif" font-size="10.00">exception</text>
</a>
</g>
</g>
<!-- Node5&#45;&gt;Node16 -->
<g id="edge18" class="edge"><title>Node5&#45;&gt;Node16</title>
<path fill="none" stroke="midnightblue" d="M377.028,-280.083C374.616,-272.849 371.136,-262.409 368.132,-253.397"/>
<polygon fill="midnightblue" stroke="midnightblue" points="371.4,-252.131 364.917,-243.751 364.759,-254.345 371.4,-252.131"/>
</g>
<!-- Node6&#45;&gt;Node2 -->
<g id="edge8" class="edge"><title>Node6&#45;&gt;Node2</title>
<path fill="none" stroke="midnightblue" d="M409.84,-225.047C376.585,-216.556 322.09,-202.633 266.101,-188.28"/>
<polygon fill="midnightblue" stroke="midnightblue" points="266.928,-184.879 256.372,-185.786 265.19,-191.66 266.928,-184.879"/>
</g>
<!-- Node7 -->
<g id="node7" class="node"><title>Node7</title>
<g id="a_node7"><a xlink:title=" ">
<polygon fill="white" stroke="#bfbfbf" points="334,-168.5 334,-187.5 386,-187.5 386,-168.5 334,-168.5"/>
<text text-anchor="middle" x="360" y="-175.5" font-family="Helvetica,sans-Serif" font-size="10.00">stdarg.h</text>
</a>
</g>
</g>
<!-- Node6&#45;&gt;Node7 -->
<g id="edge6" class="edge"><title>Node6&#45;&gt;Node7</title>
<path fill="none" stroke="midnightblue" d="M427.986,-224.324C415.468,-215.979 396.318,-203.212 381.529,-193.352"/>
<polygon fill="midnightblue" stroke="midnightblue" points="383.244,-190.289 372.982,-187.655 379.361,-196.114 383.244,-190.289"/>
</g>
<!-- Node8 -->
<g id="node8" class="node"><title>Node8</title>
<g id="a_node8"><a xlink:title=" ">
<polygon fill="white" stroke="#bfbfbf" points="374.5,-56.5 374.5,-75.5 415.5,-75.5 415.5,-56.5 374.5,-56.5"/>
<text text-anchor="middle" x="395" y="-63.5" font-family="Helvetica,sans-Serif" font-size="10.00">string</text>
</a>
</g>
</g>
<!-- Node6&#45;&gt;Node8 -->
<g id="edge7" class="edge"><title>Node6&#45;&gt;Node8</title>
<path fill="none" stroke="midnightblue" d="M445.623,-224.093C451.547,-211.499 460.441,-187.814 455,-168 446.048,-135.402 423.535,-102.676 408.775,-83.653"/>
<polygon fill="midnightblue" stroke="midnightblue" points="411.403,-81.3349 402.431,-75.701 405.932,-85.7007 411.403,-81.3349"/>
</g>
<!-- Node9 -->
<g id="node9" class="node"><title>Node9</title>
<g id="a_node9"><a xlink:title=" ">
<polygon fill="white" stroke="#bfbfbf" points="404,-168.5 404,-187.5 446,-187.5 446,-168.5 404,-168.5"/>
<text text-anchor="middle" x="425" y="-175.5" font-family="Helvetica,sans-Serif" font-size="10.00">vector</text>
</a>
</g>
</g>
<!-- Node6&#45;&gt;Node9 -->
<g id="edge9" class="edge"><title>Node6&#45;&gt;Node9</title>
<path fill="none" stroke="midnightblue" d="M438.358,-224.083C436.214,-216.849 433.121,-206.409 430.451,-197.397"/>
<polygon fill="midnightblue" stroke="midnightblue" points="433.79,-196.345 427.593,-187.751 427.078,-198.333 433.79,-196.345"/>
</g>
<!-- Node6&#45;&gt;Node10 -->
<g id="edge10" class="edge"><title>Node6&#45;&gt;Node10</title>
<path fill="none" stroke="midnightblue" d="M417.866,-224.444C392.945,-215.226 353.172,-200.516 325.661,-190.34"/>
<polygon fill="midnightblue" stroke="midnightblue" points="326.723,-187.001 316.13,-186.815 324.295,-193.567 326.723,-187.001"/>
</g>
<!-- Node11 -->
<g id="node11" class="node"><title>Node11</title>
<g id="a_node11"><a xlink:href="_control_8h.html" target="_top" xlink:title=" ">
<polygon fill="white" stroke="black" points="223,-112.5 223,-131.5 279,-131.5 279,-112.5 223,-112.5"/>
<text text-anchor="middle" x="251" y="-119.5" font-family="Helvetica,sans-Serif" font-size="10.00">Control.h</text>
</a>
</g>
</g>
<!-- Node10&#45;&gt;Node11 -->
<g id="edge11" class="edge"><title>Node10&#45;&gt;Node11</title>
<path fill="none" stroke="midnightblue" d="M287.734,-168.083C281.455,-160.377 272.212,-149.033 264.569,-139.653"/>
<polygon fill="midnightblue" stroke="midnightblue" points="267.161,-137.293 258.131,-131.751 261.734,-141.714 267.161,-137.293"/>
</g>
<!-- Node11&#45;&gt;Node3 -->
<g id="edge12" class="edge"><title>Node11&#45;&gt;Node3</title>
<path fill="none" stroke="midnightblue" d="M222.789,-113.605C187.438,-104.338 126.586,-88.3866 86.0693,-77.7657"/>
<polygon fill="midnightblue" stroke="midnightblue" points="86.7952,-74.3378 76.2345,-75.1877 85.0202,-81.1091 86.7952,-74.3378"/>
</g>
<!-- Node11&#45;&gt;Node8 -->
<g id="edge13" class="edge"><title>Node11&#45;&gt;Node8</title>
<path fill="none" stroke="midnightblue" d="M273.817,-112.444C298.397,-103.226 337.625,-88.5157 364.759,-78.3402"/>
<polygon fill="midnightblue" stroke="midnightblue" points="366.025,-81.6036 374.16,-74.8151 363.567,-75.0492 366.025,-81.6036"/>
</g>
<!-- Node12 -->
<g id="node12" class="node"><title>Node12</title>
<g id="a_node12"><a xlink:title=" ">
<polygon fill="white" stroke="#bfbfbf" points="524,-56.5 524,-75.5 576,-75.5 576,-56.5 524,-56.5"/>
<text text-anchor="middle" x="550" y="-63.5" font-family="Helvetica,sans-Serif" font-size="10.00">memory</text>
</a>
</g>
</g>
<!-- Node11&#45;&gt;Node12 -->
<g id="edge14" class="edge"><title>Node11&#45;&gt;Node12</title>
<path fill="none" stroke="midnightblue" d="M279.277,-116.967C326.049,-110.126 422.638,-95.2872 513.747,-76.128"/>
<polygon fill="midnightblue" stroke="midnightblue" points="514.628,-79.519 523.682,-74.0166 513.173,-72.672 514.628,-79.519"/>
</g>
<!-- Node13 -->
<g id="node13" class="node"><title>Node13</title>
<g id="a_node13"><a xlink:href="_property_8hpp.html" target="_top" xlink:title=" ">
<polygon fill="white" stroke="black" points="434,-56.5 434,-75.5 506,-75.5 506,-56.5 434,-56.5"/>
<text text-anchor="middle" x="470" y="-63.5" font-family="Helvetica,sans-Serif" font-size="10.00">Property.hpp</text>
</a>
</g>
</g>
<!-- Node11&#45;&gt;Node13 -->
<g id="edge15" class="edge"><title>Node11&#45;&gt;Node13</title>
<path fill="none" stroke="midnightblue" d="M279.182,-114.051C316.265,-104.907 381.853,-88.7349 425.628,-77.9411"/>
<polygon fill="midnightblue" stroke="midnightblue" points="426.565,-81.3148 435.437,-75.5225 424.889,-74.5184 426.565,-81.3148"/>
</g>
<!-- Node11&#45;&gt;Node15 -->
<g id="edge17" class="edge"><title>Node11&#45;&gt;Node15</title>
<path fill="none" stroke="midnightblue" d="M237.022,-112.324C223.45,-103.9 202.62,-90.9709 186.675,-81.0741"/>
<polygon fill="midnightblue" stroke="midnightblue" points="188.286,-77.9544 177.943,-75.6545 184.594,-83.9019 188.286,-77.9544"/>
</g>
<!-- Node14 -->
<g id="node14" class="node"><title>Node14</title>
<g id="a_node14"><a xlink:title=" ">
<polygon fill="white" stroke="#bfbfbf" points="539,-0.5 539,-19.5 597,-19.5 597,-0.5 539,-0.5"/>
<text text-anchor="middle" x="568" y="-7.5" font-family="Helvetica,sans-Serif" font-size="10.00">functional</text>
</a>
</g>
</g>
<!-- Node13&#45;&gt;Node14 -->
<g id="edge16" class="edge"><title>Node13&#45;&gt;Node14</title>
<path fill="none" stroke="midnightblue" d="M485.745,-56.324C501.319,-47.7428 525.377,-34.486 543.459,-24.5224"/>
<polygon fill="midnightblue" stroke="midnightblue" points="545.224,-27.546 552.294,-19.6545 541.846,-21.4152 545.224,-27.546"/>
</g>
<!-- Node18&#45;&gt;Node8 -->
<g id="edge23" class="edge"><title>Node18&#45;&gt;Node8</title>
<path fill="none" stroke="midnightblue" d="M583.776,-114.899C549.277,-107.063 487.778,-92.7453 425.596,-76.0444"/>
<polygon fill="midnightblue" stroke="midnightblue" points="426.182,-72.5771 415.615,-73.3442 424.354,-79.3342 426.182,-72.5771"/>
</g>
<!-- Node18&#45;&gt;Node12 -->
<g id="edge24" class="edge"><title>Node18&#45;&gt;Node12</title>
<path fill="none" stroke="midnightblue" d="M601.199,-112.324C592.182,-104.341 578.594,-92.3128 567.682,-82.6529"/>
<polygon fill="midnightblue" stroke="midnightblue" points="569.787,-79.8416 559.979,-75.8339 565.147,-85.083 569.787,-79.8416"/>
</g>
<!-- Node18&#45;&gt;Node13 -->
<g id="edge27" class="edge"><title>Node18&#45;&gt;Node13</title>
<path fill="none" stroke="midnightblue" d="M588.658,-112.444C565.247,-103.478 528.264,-89.314 501.81,-79.1827"/>
<polygon fill="midnightblue" stroke="midnightblue" points="502.828,-75.8245 492.237,-75.5164 500.324,-82.3615 502.828,-75.8245"/>
</g>
<!-- Node18&#45;&gt;Node14 -->
<g id="edge26" class="edge"><title>Node18&#45;&gt;Node14</title>
<path fill="none" stroke="midnightblue" d="M622.203,-112.103C636.627,-99.5222 658.539,-75.852 647,-56 638.132,-40.7435 621.944,-30.2302 606.519,-23.2269"/>
<polygon fill="midnightblue" stroke="midnightblue" points="607.664,-19.9125 597.086,-19.3089 604.979,-26.3771 607.664,-19.9125"/>
</g>
<!-- Node19 -->
<g id="node19" class="node"><title>Node19</title>
<g id="a_node19"><a xlink:title=" ">
<polygon fill="white" stroke="#bfbfbf" points="594,-56.5 594,-75.5 638,-75.5 638,-56.5 594,-56.5"/>
<text text-anchor="middle" x="616" y="-63.5" font-family="Helvetica,sans-Serif" font-size="10.00">thread</text>
</a>
</g>
</g>
<!-- Node18&#45;&gt;Node19 -->
<g id="edge25" class="edge"><title>Node18&#45;&gt;Node19</title>
<path fill="none" stroke="midnightblue" d="M611.826,-112.083C612.481,-105.006 613.42,-94.8611 614.242,-85.9865"/>
<polygon fill="midnightblue" stroke="midnightblue" points="617.753,-86.0312 615.19,-75.7511 610.783,-85.3858 617.753,-86.0312"/>
</g>
<!-- Node20&#45;&gt;Node11 -->
<g id="edge29" class="edge"><title>Node20&#45;&gt;Node11</title>
<path fill="none" stroke="midnightblue" d="M174.413,-280.387C173.394,-259.537 173.193,-205.318 195,-168 202.398,-155.34 214.813,-144.817 226.075,-137.138"/>
<polygon fill="midnightblue" stroke="midnightblue" points="228.198,-139.935 234.743,-131.604 224.431,-134.035 228.198,-139.935"/>
</g>
<!-- Node21&#45;&gt;Node11 -->
<g id="edge32" class="edge"><title>Node21&#45;&gt;Node11</title>
<path fill="none" stroke="midnightblue" d="M67.8338,-280.204C86.5831,-259.406 135.984,-206.09 183,-168 197.121,-156.56 214.179,-145.277 227.678,-136.871"/>
<polygon fill="midnightblue" stroke="midnightblue" points="229.675,-139.752 236.375,-131.545 226.019,-133.783 229.675,-139.752"/>
</g>
<!-- Node25&#45;&gt;Node5 -->
<g id="edge37" class="edge"><title>Node25&#45;&gt;Node5</title>
<path fill="none" stroke="midnightblue" d="M431.199,-336.324C422.182,-328.341 408.594,-316.313 397.682,-306.653"/>
<polygon fill="midnightblue" stroke="midnightblue" points="399.787,-303.842 389.979,-299.834 395.147,-309.083 399.787,-303.842"/>
</g>
<!-- Node25&#45;&gt;Node6 -->
<g id="edge40" class="edge"><title>Node25&#45;&gt;Node6</title>
<path fill="none" stroke="midnightblue" d="M441,-336.368C441,-318.617 441,-277.666 441,-253.597"/>
<polygon fill="midnightblue" stroke="midnightblue" points="444.5,-253.591 441,-243.591 437.5,-253.591 444.5,-253.591"/>
</g>
<!-- Node25&#45;&gt;Node8 -->
<g id="edge38" class="edge"><title>Node25&#45;&gt;Node8</title>
<path fill="none" stroke="midnightblue" d="M451.783,-336.264C471.645,-319.113 512,-278.869 512,-235 512,-235 512,-235 512,-177 512,-129.217 459.56,-96.1113 424.895,-79.4469"/>
<polygon fill="midnightblue" stroke="midnightblue" points="426.195,-76.1919 415.648,-75.1842 423.264,-82.549 426.195,-76.1919"/>
</g>
<!-- Node25&#45;&gt;Node12 -->
<g id="edge39" class="edge"><title>Node25&#45;&gt;Node12</title>
<path fill="none" stroke="midnightblue" d="M460.236,-336.415C491.528,-320.986 550,-285.41 550,-235 550,-235 550,-235 550,-177 550,-144.948 550,-107.643 550,-85.7489"/>
<polygon fill="midnightblue" stroke="midnightblue" points="553.5,-85.5577 550,-75.5578 546.5,-85.5578 553.5,-85.5577"/>
</g>
</g>
</svg>
        <g id="navigator" transform="translate(0 0)" fill="#404254">
                <rect fill="#f2f5e9" fill-opacity="0.5" stroke="#606060" stroke-width=".5" x="0" y="0" width="60" height="60"/>
                <use id="zoomplus" xlink:href="#zoomPlus" x="17" y="9" onmousedown="handleZoom(evt,'in')"/>
                <use id="zoomminus" xlink:href="#zoomMin" x="42" y="9" onmousedown="handleZoom(evt,'out')"/>
                <use id="reset" xlink:href="#resetDef" x="30" y="36" onmousedown="handleReset()"/>
                <g id="arrowUp" xlink:href="#dirArrow" transform="translate(30 24)" onmousedown="handlePan(0,-1)">
                  <use xlink:href="#rim" fill="#404040">
                        <set attributeName="fill" to="#808080" begin="arrowUp.mouseover" end="arrowUp.mouseout"/>
                  </use>
                  <path fill="none" stroke="white" stroke-width="1.5" d="M0,-3.0v7 M-2.5,-0.5L0,-3.0L2.5,-0.5"/>
                </g>
                <g id="arrowRight" xlink:href="#dirArrow" transform="rotate(90) translate(36 -43)" onmousedown="handlePan(1,0)">
                  <use xlink:href="#rim" fill="#404040">
                        <set attributeName="fill" to="#808080" begin="arrowRight.mouseover" end="arrowRight.mouseout"/>
                  </use>
                  <path fill="none" stroke="white" stroke-width="1.5" d="M0,-3.0v7 M-2.5,-0.5L0,-3.0L2.5,-0.5"/>
                </g>
                <g id="arrowDown" xlink:href="#dirArrow" transform="rotate(180) translate(-30 -48)" onmousedown="handlePan(0,1)">
                  <use xlink:href="#rim" fill="#404040">
                        <set attributeName="fill" to="#808080" begin="arrowDown.mouseover" end="arrowDown.mouseout"/>
                  </use>
                  <path fill="none" stroke="white" stroke-width="1.5" d="M0,-3.0v7 M-2.5,-0.5L0,-3.0L2.5,-0.5"/>
                </g>
                <g id="arrowLeft" xlink:href="#dirArrow" transform="rotate(270) translate(-36 17)" onmousedown="handlePan(-1,0)">
                  <use xlink:href="#rim" fill="#404040">
                        <set attributeName="fill" to="#808080" begin="arrowLeft.mouseover" end="arrowLeft.mouseout"/>
                  </use>
                  <path fill="none" stroke="white" stroke-width="1.5" d="M0,-3.0v7 M-2.5,-0.5L0,-3.0L2.5,-0.5"/>
                </g>
        </g>
        <svg viewBox="0 0 15 15" width="100%" height="30px" preserveAspectRatio="xMaxYMin meet">
         <g id="arrow_out" transform="scale(0.3 0.3)">
          <a xlink:href="main_8cpp__incl_org.svg" target="_base">
           <rect id="button" ry="5" rx="5" y="6" x="6" height="38" width="38"
                fill="#f2f5e9" fill-opacity="0.5" stroke="#606060" stroke-width="1.0"/>
           <path id="arrow"
             d="M 11.500037,31.436501 C 11.940474,20.09759 22.043105,11.32322 32.158766,21.979434 L 37.068811,17.246167 C 37.068811,17.246167 37.088388,32 37.088388,32 L 22.160133,31.978069 C 22.160133,31.978069 26.997745,27.140456 26.997745,27.140456 C 18.528582,18.264221 13.291696,25.230495 11.500037,31.436501 z"
             style="fill:#404040;"/>
          </a>
         </g>
        </svg>
</svg>
