<?xml version="1.0" encoding="UTF-8" standalone="no"?>
<!DOCTYPE svg PUBLIC "-//W3C//DTD SVG 1.1//EN"
 "http://www.w3.org/Graphics/SVG/1.1/DTD/svg11.dtd">
<!-- Generated by graphviz version 2.38.0 (20140413.2041)
 -->
<!-- Title: WinMain Pages: 1 -->
<!--zoomable 370 -->
<svg id="main" version="1.1" xmlns="http://www.w3.org/2000/svg" xmlns:xlink="http://www.w3.org/1999/xlink" xml:space="preserve" onload="init(evt)">
<style type="text/css"><![CDATA[
.edge:hover path { stroke: red; }
.edge:hover polygon { stroke: red; fill: red; }
]]></style>
<script type="text/javascript"><![CDATA[
var edges = document.getElementsByTagName('g');
if (edges && edges.length) {
  for (var i=0;i<edges.length;i++) {
    if (edges[i].id.substr(0,4)=='edge') {
      edges[i].setAttribute('class','edge');
    }
  }
}
]]></script>
        <defs>
                <circle id="rim" cx="0" cy="0" r="7"/>
                <circle id="rim2" cx="0" cy="0" r="3.5"/>
                <g id="zoomPlus">
                        <use xlink:href="#rim" fill="#404040">
                                <set attributeName="fill" to="#808080" begin="zoomplus.mouseover" end="zoomplus.mouseout"/>
                        </use>
                        <path d="M-4,0h8M0,-4v8" fill="none" stroke="white" stroke-width="1.5" pointer-events="none"/>
                </g>
                <g id="zoomMin">
                        <use xlink:href="#rim" fill="#404040">
                                <set attributeName="fill" to="#808080" begin="zoomminus.mouseover" end="zoomminus.mouseout"/>
                        </use>
                        <path d="M-4,0h8" fill="none" stroke="white" stroke-width="1.5" pointer-events="none"/>
                </g>
                <g id="dirArrow">
                        <path fill="none" stroke="white" stroke-width="1.5" d="M0,-3.0v7 M-2.5,-0.5L0,-3.0L2.5,-0.5"/>
                </g>
               <g id="resetDef">
                       <use xlink:href="#rim2" fill="#404040">
                               <set attributeName="fill" to="#808080" begin="reset.mouseover" end="reset.mouseout"/>
                       </use>
               </g>
        </defs>

<script type="text/javascript">
var viewWidth = 815;
var viewHeight = 370;
var sectionId = 'dynsection-7';
</script>
<script xlink:href="svgpan.js"/>
<svg id="graph" class="graph">
<g id="viewport">
<title>WinMain</title>
<polygon fill="white" stroke="none" points="-4,4 -4,-366 811,-366 811,4 -4,4"/>
<!-- Node1 -->
<g id="node1" class="node"><title>Node1</title>
<g id="a_node1"><a xlink:title="The beginning of everything.">
<polygon fill="#bfbfbf" stroke="black" points="0,-209.5 0,-228.5 55,-228.5 55,-209.5 0,-209.5"/>
<text text-anchor="middle" x="27.5" y="-216.5" font-family="Helvetica,sans-Serif" font-size="10.00">WinMain</text>
</a>
</g>
</g>
<!-- Node2 -->
<g id="node2" class="node"><title>Node2</title>
<g id="a_node2"><a xlink:href="class_thread.html#a5a2980b7db2cdd4afe3860d5df6aa94e" target="_top" xlink:title="Initializes a thread object with an already running thread.">
<polygon fill="white" stroke="black" points="91,-228.5 91,-247.5 220,-247.5 220,-228.5 91,-228.5"/>
<text text-anchor="middle" x="155.5" y="-235.5" font-family="Helvetica,sans-Serif" font-size="10.00">Thread::initRunningThread</text>
</a>
</g>
</g>
<!-- Node1&#45;&gt;Node2 -->
<g id="edge1" class="edge"><title>Node1&#45;&gt;Node2</title>
<path fill="none" stroke="midnightblue" d="M55.2214,-223.029C63.0197,-224.205 71.9431,-225.551 81.1705,-226.942"/>
<polygon fill="midnightblue" stroke="midnightblue" points="80.8534,-230.434 91.2635,-228.464 81.8972,-223.512 80.8534,-230.434"/>
</g>
<!-- Node3 -->
<g id="node3" class="node"><title>Node3</title>
<g id="a_node3"><a xlink:href="main_8cpp.html#a30a1e3b0304f1b083637664cbda94e72" target="_top" xlink:title="The declaration of the main message processing function.">
<polygon fill="white" stroke="black" points="127,-190.5 127,-209.5 184,-209.5 184,-190.5 127,-190.5"/>
<text text-anchor="middle" x="155.5" y="-197.5" font-family="Helvetica,sans-Serif" font-size="10.00">WndProc</text>
</a>
</g>
</g>
<!-- Node1&#45;&gt;Node3 -->
<g id="edge2" class="edge"><title>Node1&#45;&gt;Node3</title>
<path fill="none" stroke="midnightblue" d="M55.2214,-214.971C73.1839,-212.262 97.1153,-208.653 116.981,-205.658"/>
<polygon fill="midnightblue" stroke="midnightblue" points="117.58,-209.107 126.946,-204.155 116.536,-202.185 117.58,-209.107"/>
</g>
<!-- Node4 -->
<g id="node4" class="node"><title>Node4</title>
<g id="a_node4"><a xlink:href="class_button.html#a4b47ae117b554b76c7681d0dc0f6b59a" target="_top" xlink:title=" ">
<polygon fill="white" stroke="black" points="274.5,-332.5 274.5,-351.5 352.5,-351.5 352.5,-332.5 274.5,-332.5"/>
<text text-anchor="middle" x="313.5" y="-339.5" font-family="Helvetica,sans-Serif" font-size="10.00">Button::create</text>
</a>
</g>
</g>
<!-- Node3&#45;&gt;Node4 -->
<g id="edge3" class="edge"><title>Node3&#45;&gt;Node4</title>
<path fill="none" stroke="midnightblue" d="M184.255,-202.736C196.516,-205.233 210.314,-209.983 220,-219 253.048,-249.766 225.673,-280.549 256,-314 261.005,-319.52 267.342,-324.084 273.95,-327.81"/>
<polygon fill="midnightblue" stroke="midnightblue" points="272.522,-331.01 283.028,-332.383 275.671,-324.759 272.522,-331.01"/>
</g>
<!-- Node7 -->
<g id="node7" class="node"><title>Node7</title>
<g id="a_node7"><a xlink:href="class_edit.html#ab18ca6e3077d72996f0599d984283636" target="_top" xlink:title=" ">
<polygon fill="white" stroke="black" points="280,-285.5 280,-304.5 347,-304.5 347,-285.5 280,-285.5"/>
<text text-anchor="middle" x="313.5" y="-292.5" font-family="Helvetica,sans-Serif" font-size="10.00">Edit::create</text>
</a>
</g>
</g>
<!-- Node3&#45;&gt;Node7 -->
<g id="edge6" class="edge"><title>Node3&#45;&gt;Node7</title>
<path fill="none" stroke="midnightblue" d="M184.068,-204.939C195.738,-207.846 209.121,-212.307 220,-219 239.814,-231.191 238.24,-241.973 256,-257 265.772,-265.268 277.385,-273.34 287.534,-279.903"/>
<polygon fill="midnightblue" stroke="midnightblue" points="285.67,-282.865 295.993,-285.249 289.409,-276.948 285.67,-282.865"/>
</g>
<!-- Node8 -->
<g id="node8" class="node"><title>Node8</title>
<g id="a_node8"><a xlink:href="main_8cpp.html#abdf0523e10fae27868b24d21a841e926" target="_top" xlink:title="All the magic is here :&#45;)">
<polygon fill="white" stroke="black" points="272,-114.5 272,-133.5 355,-133.5 355,-114.5 272,-114.5"/>
<text text-anchor="middle" x="313.5" y="-121.5" font-family="Helvetica,sans-Serif" font-size="10.00">OnStartClicked</text>
</a>
</g>
</g>
<!-- Node3&#45;&gt;Node8 -->
<g id="edge8" class="edge"><title>Node3&#45;&gt;Node8</title>
<path fill="none" stroke="midnightblue" d="M176.258,-190.375C203.452,-177.126 252.59,-153.187 283.827,-137.969"/>
<polygon fill="midnightblue" stroke="midnightblue" points="285.446,-141.074 292.903,-133.547 282.38,-134.781 285.446,-141.074"/>
</g>
<!-- Node14 -->
<g id="node14" class="node"><title>Node14</title>
<g id="a_node14"><a xlink:href="main_8cpp.html#a1870be22060f25a2595afa09934e9784" target="_top" xlink:title=" ">
<polygon fill="white" stroke="black" points="263,-190.5 263,-209.5 364,-209.5 364,-190.5 263,-190.5"/>
<text text-anchor="middle" x="313.5" y="-197.5" font-family="Helvetica,sans-Serif" font-size="10.00">OnStartTestClicked</text>
</a>
</g>
</g>
<!-- Node3&#45;&gt;Node14 -->
<g id="edge14" class="edge"><title>Node3&#45;&gt;Node14</title>
<path fill="none" stroke="midnightblue" d="M184.031,-200C203.003,-200 228.957,-200 252.572,-200"/>
<polygon fill="midnightblue" stroke="midnightblue" points="252.872,-203.5 262.872,-200 252.872,-196.5 252.872,-203.5"/>
</g>
<!-- Node19 -->
<g id="node19" class="node"><title>Node19</title>
<g id="a_node19"><a xlink:href="main_8cpp.html#a6e6bef72e348d49296a2aa278ce80ca6" target="_top" xlink:title="Thread&#45;Test&#45;Button event handler.">
<polygon fill="white" stroke="black" points="258.5,-228.5 258.5,-247.5 368.5,-247.5 368.5,-228.5 258.5,-228.5"/>
<text text-anchor="middle" x="313.5" y="-235.5" font-family="Helvetica,sans-Serif" font-size="10.00">OnThreadTestClicked</text>
</a>
</g>
</g>
<!-- Node3&#45;&gt;Node19 -->
<g id="edge20" class="edge"><title>Node3&#45;&gt;Node19</title>
<path fill="none" stroke="midnightblue" d="M184.031,-206.706C205.98,-212.053 237.275,-219.676 263.481,-226.059"/>
<polygon fill="midnightblue" stroke="midnightblue" points="262.701,-229.472 273.246,-228.438 264.358,-222.671 262.701,-229.472"/>
</g>
<!-- Node20 -->
<g id="node20" class="node"><title>Node20</title>
<g id="a_node20"><a xlink:href="class_thread.html#af0bd96245e2b765b410f8dd2d1aeeb69" target="_top" xlink:title="Processes maxElements in the running thread.">
<polygon fill="white" stroke="black" points="256,-76.5 256,-95.5 371,-95.5 371,-76.5 256,-76.5"/>
<text text-anchor="middle" x="313.5" y="-83.5" font-family="Helvetica,sans-Serif" font-size="10.00">Thread::processQueue</text>
</a>
</g>
</g>
<!-- Node3&#45;&gt;Node20 -->
<g id="edge23" class="edge"><title>Node3&#45;&gt;Node20</title>
<path fill="none" stroke="midnightblue" d="M163.965,-190.49C179.27,-171.595 216.134,-129.078 256,-105 259.391,-102.952 263.031,-101.091 266.771,-99.4083"/>
<polygon fill="midnightblue" stroke="midnightblue" points="268.236,-102.591 276.183,-95.5839 265.601,-96.1056 268.236,-102.591"/>
</g>
<!-- Node21 -->
<g id="node21" class="node"><title>Node21</title>
<g id="a_node21"><a xlink:href="class_control.html#acb9c9e1fe3913ade543cf9bda76f05e3" target="_top" xlink:title=" ">
<polygon fill="white" stroke="black" points="268,-19.5 268,-38.5 359,-38.5 359,-19.5 268,-19.5"/>
<text text-anchor="middle" x="313.5" y="-26.5" font-family="Helvetica,sans-Serif" font-size="10.00">Control::wndProc</text>
</a>
</g>
</g>
<!-- Node3&#45;&gt;Node21 -->
<g id="edge24" class="edge"><title>Node3&#45;&gt;Node21</title>
<path fill="none" stroke="midnightblue" d="M162.074,-190.446C175.87,-167.334 213.581,-107.341 256,-67 265.051,-58.3929 276.255,-50.4176 286.293,-44.0187"/>
<polygon fill="midnightblue" stroke="midnightblue" points="288.402,-46.8307 295.089,-38.6125 284.736,-40.8671 288.402,-46.8307"/>
</g>
<!-- Node5 -->
<g id="node5" class="node"><title>Node5</title>
<g id="a_node5"><a xlink:href="class_control.html#a5556f2e0a0d67ccba4981ddc8c39d2c3" target="_top" xlink:title=" ">
<polygon fill="white" stroke="black" points="417.5,-342.5 417.5,-361.5 497.5,-361.5 497.5,-342.5 417.5,-342.5"/>
<text text-anchor="middle" x="457.5" y="-349.5" font-family="Helvetica,sans-Serif" font-size="10.00">Control::create</text>
</a>
</g>
</g>
<!-- Node4&#45;&gt;Node5 -->
<g id="edge4" class="edge"><title>Node4&#45;&gt;Node5</title>
<path fill="none" stroke="midnightblue" d="M352.553,-344.68C369.388,-345.865 389.398,-347.275 407.345,-348.538"/>
<polygon fill="midnightblue" stroke="midnightblue" points="407.13,-352.032 417.351,-349.243 407.622,-345.049 407.13,-352.032"/>
</g>
<!-- Node6 -->
<g id="node6" class="node"><title>Node6</title>
<g id="a_node6"><a xlink:href="class_control.html#af9a3acf49973e5a31594f30e979246b0" target="_top" xlink:title=" ">
<polygon fill="white" stroke="black" points="572,-323.5 572,-342.5 649,-342.5 649,-323.5 572,-323.5"/>
<text text-anchor="middle" x="610.5" y="-330.5" font-family="Helvetica,sans-Serif" font-size="10.00">Control::insert</text>
</a>
</g>
</g>
<!-- Node5&#45;&gt;Node6 -->
<g id="edge5" class="edge"><title>Node5&#45;&gt;Node6</title>
<path fill="none" stroke="midnightblue" d="M497.779,-347.058C517.365,-344.593 541.212,-341.592 561.837,-338.997"/>
<polygon fill="midnightblue" stroke="midnightblue" points="562.494,-342.442 571.979,-337.721 561.62,-335.497 562.494,-342.442"/>
</g>
<!-- Node7&#45;&gt;Node6 -->
<g id="edge7" class="edge"><title>Node7&#45;&gt;Node6</title>
<path fill="none" stroke="midnightblue" d="M347.197,-299.212C399.241,-305.916 501.189,-319.048 561.515,-326.819"/>
<polygon fill="midnightblue" stroke="midnightblue" points="561.184,-330.305 571.55,-328.111 562.079,-323.362 561.184,-330.305"/>
</g>
<!-- Node9 -->
<g id="node9" class="node"><title>Node9</title>
<g id="a_node9"><a xlink:href="class_thread.html#abf7db5b09bd25b345e80577f71321ee9" target="_top" xlink:title="The code that will be enqued in the threads task queue.">
<polygon fill="white" stroke="black" points="566,-228.5 566,-247.5 655,-247.5 655,-228.5 566,-228.5"/>
<text text-anchor="middle" x="610.5" y="-235.5" font-family="Helvetica,sans-Serif" font-size="10.00">Thread::enqueue</text>
</a>
</g>
</g>
<!-- Node8&#45;&gt;Node9 -->
<g id="edge9" class="edge"><title>Node8&#45;&gt;Node9</title>
<path fill="none" stroke="midnightblue" d="M355.192,-119.398C396.197,-116.657 460.092,-117.703 508,-143 530.041,-154.638 526.148,-168.606 544,-186 557.649,-199.299 574.52,-212.63 587.721,-222.464"/>
<polygon fill="midnightblue" stroke="midnightblue" points="585.661,-225.294 595.795,-228.386 589.801,-219.65 585.661,-225.294"/>
</g>
<!-- Node11 -->
<g id="node11" class="node"><title>Node11</title>
<g id="a_node11"><a xlink:href="class_thread.html#ada9adb041744058adc9abb1744e86c5d" target="_top" xlink:title="The code that will be executed, after the new Thread is started.">
<polygon fill="white" stroke="black" points="422,-38.5 422,-57.5 493,-57.5 493,-38.5 422,-38.5"/>
<text text-anchor="middle" x="457.5" y="-45.5" font-family="Helvetica,sans-Serif" font-size="10.00">Thread::start</text>
</a>
</g>
</g>
<!-- Node8&#45;&gt;Node11 -->
<g id="edge11" class="edge"><title>Node8&#45;&gt;Node11</title>
<path fill="none" stroke="midnightblue" d="M351.563,-114.438C358.303,-111.904 365.069,-108.788 371,-105 390.606,-92.4769 387.662,-79.9329 407,-67 409.88,-65.0739 412.983,-63.3034 416.182,-61.6844"/>
<polygon fill="midnightblue" stroke="midnightblue" points="417.688,-64.8446 425.343,-57.5196 414.791,-58.4723 417.688,-64.8446"/>
</g>
<!-- Node13 -->
<g id="node13" class="node"><title>Node13</title>
<g id="a_node13"><a xlink:href="class_thread.html#abd50159ecd409936f454c2321f673616" target="_top" xlink:title="Method to stop the Trhead.">
<polygon fill="white" stroke="black" points="422,-76.5 422,-95.5 493,-95.5 493,-76.5 422,-76.5"/>
<text text-anchor="middle" x="457.5" y="-83.5" font-family="Helvetica,sans-Serif" font-size="10.00">Thread::stop</text>
</a>
</g>
</g>
<!-- Node8&#45;&gt;Node13 -->
<g id="edge13" class="edge"><title>Node8&#45;&gt;Node13</title>
<path fill="none" stroke="midnightblue" d="M350.333,-114.411C369.029,-109.408 392.077,-103.24 411.916,-97.9308"/>
<polygon fill="midnightblue" stroke="midnightblue" points="412.905,-101.289 421.661,-95.3232 411.096,-94.5273 412.905,-101.289"/>
</g>
<!-- Node10 -->
<g id="node10" class="node"><title>Node10</title>
<g id="a_node10"><a xlink:href="class_thread.html#a3ee4bd6db78554c9ea75cf242b8ae273" target="_top" xlink:title="push the functor in the queue">
<polygon fill="white" stroke="black" points="713,-228.5 713,-247.5 807,-247.5 807,-228.5 713,-228.5"/>
<text text-anchor="middle" x="760" y="-235.5" font-family="Helvetica,sans-Serif" font-size="10.00">Thread::enqueue_</text>
</a>
</g>
</g>
<!-- Node9&#45;&gt;Node10 -->
<g id="edge10" class="edge"><title>Node9&#45;&gt;Node10</title>
<path fill="none" stroke="midnightblue" d="M655.356,-238C670.193,-238 686.974,-238 702.644,-238"/>
<polygon fill="midnightblue" stroke="midnightblue" points="702.75,-241.5 712.75,-238 702.75,-234.5 702.75,-241.5"/>
</g>
<!-- Node12 -->
<g id="node12" class="node"><title>Node12</title>
<g id="a_node12"><a xlink:href="class_thread.html#af1a12dd97c3644116d394f655ca63c86" target="_top" xlink:title=" ">
<polygon fill="white" stroke="black" points="572,-38.5 572,-57.5 649,-57.5 649,-38.5 572,-38.5"/>
<text text-anchor="middle" x="610.5" y="-45.5" font-family="Helvetica,sans-Serif" font-size="10.00">Thread::start_</text>
</a>
</g>
</g>
<!-- Node11&#45;&gt;Node12 -->
<g id="edge12" class="edge"><title>Node11&#45;&gt;Node12</title>
<path fill="none" stroke="midnightblue" d="M493.142,-48C513.437,-48 539.369,-48 561.599,-48"/>
<polygon fill="midnightblue" stroke="midnightblue" points="561.845,-51.5001 571.845,-48 561.845,-44.5001 561.845,-51.5001"/>
</g>
<!-- Node15 -->
<g id="node15" class="node"><title>Node15</title>
<g id="a_node15"><a xlink:href="class_edit.html#a3ced1bcf14de542e25d512991bcfed2f" target="_top" xlink:title=" ">
<polygon fill="white" stroke="black" points="429.5,-228.5 429.5,-247.5 485.5,-247.5 485.5,-228.5 429.5,-228.5"/>
<text text-anchor="middle" x="457.5" y="-235.5" font-family="Helvetica,sans-Serif" font-size="10.00">Edit::add</text>
</a>
</g>
</g>
<!-- Node14&#45;&gt;Node15 -->
<g id="edge15" class="edge"><title>Node14&#45;&gt;Node15</title>
<path fill="none" stroke="midnightblue" d="M350.333,-209.589C371.469,-215.245 398.169,-222.39 419.505,-228.1"/>
<polygon fill="midnightblue" stroke="midnightblue" points="418.63,-231.489 429.195,-230.693 420.439,-224.727 418.63,-231.489"/>
</g>
<!-- Node16 -->
<g id="node16" class="node"><title>Node16</title>
<g id="a_node16"><a xlink:href="output_8hpp.html#a40ccb49bbe6f7e94ed2bc2dc6cd7e8d0" target="_top" xlink:title=" ">
<polygon fill="white" stroke="black" points="435.5,-190.5 435.5,-209.5 479.5,-209.5 479.5,-190.5 435.5,-190.5"/>
<text text-anchor="middle" x="457.5" y="-197.5" font-family="Helvetica,sans-Serif" font-size="10.00">format</text>
</a>
</g>
</g>
<!-- Node14&#45;&gt;Node16 -->
<g id="edge17" class="edge"><title>Node14&#45;&gt;Node16</title>
<path fill="none" stroke="midnightblue" d="M364.165,-200C384.394,-200 407.171,-200 425.041,-200"/>
<polygon fill="midnightblue" stroke="midnightblue" points="425.203,-203.5 435.203,-200 425.203,-196.5 425.203,-203.5"/>
</g>
<!-- Node17 -->
<g id="node17" class="node"><title>Node17</title>
<g id="a_node17"><a xlink:href="class_test_case.html#a67dbda1a6ccebdf1c834c54fce361a6a" target="_top" xlink:title=" ">
<polygon fill="white" stroke="black" points="407,-152.5 407,-171.5 508,-171.5 508,-152.5 407,-152.5"/>
<text text-anchor="middle" x="457.5" y="-159.5" font-family="Helvetica,sans-Serif" font-size="10.00">TestCase::runTests</text>
</a>
</g>
</g>
<!-- Node14&#45;&gt;Node17 -->
<g id="edge18" class="edge"><title>Node14&#45;&gt;Node17</title>
<path fill="none" stroke="midnightblue" d="M350.333,-190.411C368.663,-185.506 391.178,-179.48 410.75,-174.243"/>
<polygon fill="midnightblue" stroke="midnightblue" points="411.924,-177.552 420.679,-171.586 410.114,-170.79 411.924,-177.552"/>
</g>
<!-- Node15&#45;&gt;Node9 -->
<g id="edge16" class="edge"><title>Node15&#45;&gt;Node9</title>
<path fill="none" stroke="midnightblue" d="M485.845,-238C505.242,-238 531.916,-238 555.526,-238"/>
<polygon fill="midnightblue" stroke="midnightblue" points="555.772,-241.5 565.772,-238 555.772,-234.5 555.772,-241.5"/>
</g>
<!-- Node18 -->
<g id="node18" class="node"><title>Node18</title>
<g id="a_node18"><a xlink:href="namespaceanonymous__namespace_02_test_case_8cpp_03.html#a4073e77346d8adea8ac92f2e309de1aa" target="_top" xlink:title=" ">
<polygon fill="white" stroke="black" points="544,-147 544,-177 677,-177 677,-147 544,-147"/>
<text text-anchor="start" x="552" y="-165" font-family="Helvetica,sans-Serif" font-size="10.00">anonymous_namespace</text>
<text text-anchor="middle" x="610.5" y="-154" font-family="Helvetica,sans-Serif" font-size="10.00">{TestCase::cpp}::getCases</text>
</a>
</g>
</g>
<!-- Node17&#45;&gt;Node18 -->
<g id="edge19" class="edge"><title>Node17&#45;&gt;Node18</title>
<path fill="none" stroke="midnightblue" d="M508.362,-162C516.512,-162 525.114,-162 533.721,-162"/>
<polygon fill="midnightblue" stroke="midnightblue" points="533.801,-165.5 543.801,-162 533.801,-158.5 533.801,-165.5"/>
</g>
<!-- Node19&#45;&gt;Node9 -->
<g id="edge22" class="edge"><title>Node19&#45;&gt;Node9</title>
<path fill="none" stroke="midnightblue" d="M352.037,-247.51C368.744,-251.274 388.732,-255.143 407,-257 451.659,-261.539 463.303,-261.147 508,-257 524.401,-255.478 542.102,-252.602 558.059,-249.538"/>
<polygon fill="midnightblue" stroke="midnightblue" points="559.136,-252.893 568.262,-247.511 557.771,-246.027 559.136,-252.893"/>
</g>
<!-- Node19&#45;&gt;Node15 -->
<g id="edge21" class="edge"><title>Node19&#45;&gt;Node15</title>
<path fill="none" stroke="midnightblue" d="M368.589,-238C385.401,-238 403.556,-238 418.978,-238"/>
<polygon fill="midnightblue" stroke="midnightblue" points="419.168,-241.5 429.168,-238 419.168,-234.5 419.168,-241.5"/>
</g>
<!-- Node22 -->
<g id="node22" class="node"><title>Node22</title>
<g id="a_node22"><a xlink:href="class_control.html#a499710d0d6ee6ae6326f42b4823abde2" target="_top" xlink:title=" ">
<polygon fill="white" stroke="black" points="413.5,-0.5 413.5,-19.5 501.5,-19.5 501.5,-0.5 413.5,-0.5"/>
<text text-anchor="middle" x="457.5" y="-7.5" font-family="Helvetica,sans-Serif" font-size="10.00">Control::execute</text>
</a>
</g>
</g>
<!-- Node21&#45;&gt;Node22 -->
<g id="edge25" class="edge"><title>Node21&#45;&gt;Node22</title>
<path fill="none" stroke="midnightblue" d="M359.04,-23.0404C372.915,-21.1838 388.364,-19.1168 402.797,-17.1856"/>
<polygon fill="midnightblue" stroke="midnightblue" points="403.643,-20.6037 413.091,-15.8083 402.715,-13.6655 403.643,-20.6037"/>
</g>
</g>
</svg>
        <g id="navigator" transform="translate(0 0)" fill="#404254">
                <rect fill="#f2f5e9" fill-opacity="0.5" stroke="#606060" stroke-width=".5" x="0" y="0" width="60" height="60"/>
                <use id="zoomplus" xlink:href="#zoomPlus" x="17" y="9" onmousedown="handleZoom(evt,'in')"/>
                <use id="zoomminus" xlink:href="#zoomMin" x="42" y="9" onmousedown="handleZoom(evt,'out')"/>
                <use id="reset" xlink:href="#resetDef" x="30" y="36" onmousedown="handleReset()"/>
                <g id="arrowUp" xlink:href="#dirArrow" transform="translate(30 24)" onmousedown="handlePan(0,-1)">
                  <use xlink:href="#rim" fill="#404040">
                        <set attributeName="fill" to="#808080" begin="arrowUp.mouseover" end="arrowUp.mouseout"/>
                  </use>
                  <path fill="none" stroke="white" stroke-width="1.5" d="M0,-3.0v7 M-2.5,-0.5L0,-3.0L2.5,-0.5"/>
                </g>
                <g id="arrowRight" xlink:href="#dirArrow" transform="rotate(90) translate(36 -43)" onmousedown="handlePan(1,0)">
                  <use xlink:href="#rim" fill="#404040">
                        <set attributeName="fill" to="#808080" begin="arrowRight.mouseover" end="arrowRight.mouseout"/>
                  </use>
                  <path fill="none" stroke="white" stroke-width="1.5" d="M0,-3.0v7 M-2.5,-0.5L0,-3.0L2.5,-0.5"/>
                </g>
                <g id="arrowDown" xlink:href="#dirArrow" transform="rotate(180) translate(-30 -48)" onmousedown="handlePan(0,1)">
                  <use xlink:href="#rim" fill="#404040">
                        <set attributeName="fill" to="#808080" begin="arrowDown.mouseover" end="arrowDown.mouseout"/>
                  </use>
                  <path fill="none" stroke="white" stroke-width="1.5" d="M0,-3.0v7 M-2.5,-0.5L0,-3.0L2.5,-0.5"/>
                </g>
                <g id="arrowLeft" xlink:href="#dirArrow" transform="rotate(270) translate(-36 17)" onmousedown="handlePan(-1,0)">
                  <use xlink:href="#rim" fill="#404040">
                        <set attributeName="fill" to="#808080" begin="arrowLeft.mouseover" end="arrowLeft.mouseout"/>
                  </use>
                  <path fill="none" stroke="white" stroke-width="1.5" d="M0,-3.0v7 M-2.5,-0.5L0,-3.0L2.5,-0.5"/>
                </g>
        </g>
        <svg viewBox="0 0 15 15" width="100%" height="30px" preserveAspectRatio="xMaxYMin meet">
         <g id="arrow_out" transform="scale(0.3 0.3)">
          <a xlink:href="main_8cpp_a946cd7d17bf6760d82ded70909de9a6d_cgraph_org.svg" target="_base">
           <rect id="button" ry="5" rx="5" y="6" x="6" height="38" width="38"
                fill="#f2f5e9" fill-opacity="0.5" stroke="#606060" stroke-width="1.0"/>
           <path id="arrow"
             d="M 11.500037,31.436501 C 11.940474,20.09759 22.043105,11.32322 32.158766,21.979434 L 37.068811,17.246167 C 37.068811,17.246167 37.088388,32 37.088388,32 L 22.160133,31.978069 C 22.160133,31.978069 26.997745,27.140456 26.997745,27.140456 C 18.528582,18.264221 13.291696,25.230495 11.500037,31.436501 z"
             style="fill:#404040;"/>
          </a>
         </g>
        </svg>
</svg>
