<?xml version="1.0" encoding="UTF-8" standalone="no"?>
<!DOCTYPE svg PUBLIC "-//W3C//DTD SVG 1.1//EN"
 "http://www.w3.org/Graphics/SVG/1.1/DTD/svg11.dtd">
<!-- Generated by graphviz version 2.38.0 (20140413.2041)
 -->
<!-- Title: OnStartTestClicked Pages: 1 -->
<svg width="540pt" height="110pt"
 viewBox="0.00 0.00 540.00 109.50" xmlns="http://www.w3.org/2000/svg" xmlns:xlink="http://www.w3.org/1999/xlink">
<g id="graph0" class="graph" transform="scale(1 1) rotate(0) translate(4 105.5)">
<title>OnStartTestClicked</title>
<polygon fill="white" stroke="none" points="-4,4 -4,-105.5 536,-105.5 536,4 -4,4"/>
<!-- Node1 -->
<g id="node1" class="node"><title>Node1</title>
<g id="a_node1"><a xlink:title=" ">
<polygon fill="#bfbfbf" stroke="black" points="0,-44 0,-63 101,-63 101,-44 0,-44"/>
<text text-anchor="middle" x="50.5" y="-51" font-family="Helvetica,sans-Serif" font-size="10.00">OnStartTestClicked</text>
</a>
</g>
</g>
<!-- Node2 -->
<g id="node2" class="node"><title>Node2</title>
<g id="a_node2"><a xlink:href="class_edit.html#a3ced1bcf14de542e25d512991bcfed2f" target="_top" xlink:title=" ">
<polygon fill="white" stroke="black" points="159.5,-82 159.5,-101 215.5,-101 215.5,-82 159.5,-82"/>
<text text-anchor="middle" x="187.5" y="-89" font-family="Helvetica,sans-Serif" font-size="10.00">Edit::add</text>
</a>
</g>
</g>
<!-- Node1&#45;&gt;Node2 -->
<g id="edge1" class="edge"><title>Node1&#45;&gt;Node2</title>
<path fill="none" stroke="midnightblue" d="M85.5662,-63.089C105.078,-68.5812 129.576,-75.477 149.551,-81.0995"/>
<polygon fill="midnightblue" stroke="midnightblue" points="148.667,-84.4868 159.242,-83.8273 150.564,-77.7486 148.667,-84.4868"/>
</g>
<!-- Node5 -->
<g id="node5" class="node"><title>Node5</title>
<g id="a_node5"><a xlink:href="output_8hpp.html#a40ccb49bbe6f7e94ed2bc2dc6cd7e8d0" target="_top" xlink:title=" ">
<polygon fill="white" stroke="black" points="165.5,-44 165.5,-63 209.5,-63 209.5,-44 165.5,-44"/>
<text text-anchor="middle" x="187.5" y="-51" font-family="Helvetica,sans-Serif" font-size="10.00">format</text>
</a>
</g>
</g>
<!-- Node1&#45;&gt;Node5 -->
<g id="edge4" class="edge"><title>Node1&#45;&gt;Node5</title>
<path fill="none" stroke="midnightblue" d="M101.002,-53.5C118.978,-53.5 138.791,-53.5 154.814,-53.5"/>
<polygon fill="midnightblue" stroke="midnightblue" points="155.232,-57.0001 165.232,-53.5 155.232,-50.0001 155.232,-57.0001"/>
</g>
<!-- Node6 -->
<g id="node6" class="node"><title>Node6</title>
<g id="a_node6"><a xlink:href="class_test_case.html#a67dbda1a6ccebdf1c834c54fce361a6a" target="_top" xlink:title=" ">
<polygon fill="white" stroke="black" points="137,-6 137,-25 238,-25 238,-6 137,-6"/>
<text text-anchor="middle" x="187.5" y="-13" font-family="Helvetica,sans-Serif" font-size="10.00">TestCase::runTests</text>
</a>
</g>
</g>
<!-- Node1&#45;&gt;Node6 -->
<g id="edge5" class="edge"><title>Node1&#45;&gt;Node6</title>
<path fill="none" stroke="midnightblue" d="M85.5662,-43.911C102.913,-39.0281 124.202,-33.0357 142.749,-27.815"/>
<polygon fill="midnightblue" stroke="midnightblue" points="143.767,-31.1646 152.445,-25.0859 141.87,-24.4265 143.767,-31.1646"/>
</g>
<!-- Node3 -->
<g id="node3" class="node"><title>Node3</title>
<g id="a_node3"><a xlink:href="class_thread.html#adb11ad65376e640d84d47f0394f94f10" target="_top" xlink:title=" ">
<polygon fill="white" stroke="black" points="307,-82 307,-101 374,-101 374,-82 307,-82"/>
<text text-anchor="middle" x="340.5" y="-89" font-family="Helvetica,sans-Serif" font-size="10.00">Thread::call</text>
</a>
</g>
</g>
<!-- Node2&#45;&gt;Node3 -->
<g id="edge2" class="edge"><title>Node2&#45;&gt;Node3</title>
<path fill="none" stroke="midnightblue" d="M215.845,-91.5C238.329,-91.5 270.591,-91.5 296.524,-91.5"/>
<polygon fill="midnightblue" stroke="midnightblue" points="296.841,-95.0001 306.841,-91.5 296.841,-88.0001 296.841,-95.0001"/>
</g>
<!-- Node4 -->
<g id="node4" class="node"><title>Node4</title>
<g id="a_node4"><a xlink:href="class_thread.html#a1333a7179253857c1431b82e162272fd" target="_top" xlink:title=" ">
<polygon fill="white" stroke="black" points="443,-82 443,-101 532,-101 532,-82 443,-82"/>
<text text-anchor="middle" x="487.5" y="-89" font-family="Helvetica,sans-Serif" font-size="10.00">Thread::enqueue</text>
</a>
</g>
</g>
<!-- Node3&#45;&gt;Node4 -->
<g id="edge3" class="edge"><title>Node3&#45;&gt;Node4</title>
<path fill="none" stroke="midnightblue" d="M374.041,-91.5C391.319,-91.5 413.001,-91.5 432.704,-91.5"/>
<polygon fill="midnightblue" stroke="midnightblue" points="432.793,-95.0001 442.793,-91.5 432.793,-88.0001 432.793,-95.0001"/>
</g>
<!-- Node7 -->
<g id="node7" class="node"><title>Node7</title>
<g id="a_node7"><a xlink:href="namespaceanonymous__namespace_02_test_case_8cpp_03.html#a4073e77346d8adea8ac92f2e309de1aa" target="_top" xlink:title=" ">
<polygon fill="white" stroke="black" points="274,-0.5 274,-30.5 407,-30.5 407,-0.5 274,-0.5"/>
<text text-anchor="start" x="282" y="-18.5" font-family="Helvetica,sans-Serif" font-size="10.00">anonymous_namespace</text>
<text text-anchor="middle" x="340.5" y="-7.5" font-family="Helvetica,sans-Serif" font-size="10.00">{TestCase::cpp}::getCases</text>
</a>
</g>
</g>
<!-- Node6&#45;&gt;Node7 -->
<g id="edge6" class="edge"><title>Node6&#45;&gt;Node7</title>
<path fill="none" stroke="midnightblue" d="M238.362,-15.5C246.512,-15.5 255.114,-15.5 263.721,-15.5"/>
<polygon fill="midnightblue" stroke="midnightblue" points="263.801,-19.0001 273.801,-15.5 263.801,-12.0001 263.801,-19.0001"/>
</g>
</g>
</svg>
