<!DOCTYPE svg PUBLIC "-//W3C//DTD SVG 1.1//EN"
 "http://www.w3.org/Graphics/SVG/1.1/DTD/svg11.dtd">
<svg version="1.1"
 width="160px" height="291px"
 viewBox="0 0 160 291"
 xmlns="http://www.w3.org/2000/svg" shape-rendering="crispEdges"
 stroke-width="1" text-rendering="geometricPrecision">
<polygon fill="white" points="6,7 72,7 72,16 6,16"/>
<text x="40" y="16" textLength="64" font-family="Helvetica" font-size="12" fill="black" text-anchor="middle">

mainThread
</text>
<polygon fill="white" points="98,7 140,7 140,16 98,16"/>
<text x="120" y="16" textLength="41" font-family="Helvetica" font-size="12" fill="black" text-anchor="middle">

thread1
</text>
<line x1="40" y1="22" x2="40" y2="41" stroke="#FF00FF"/>
<line x1="120" y1="22" x2="120" y2="41" stroke="#FFB000"/>
<line x1="40" y1="41" x2="40" y2="71" stroke="#FF00FF"/>
<line x1="120" y1="41" x2="120" y2="71" stroke="#FFB000"/>
<polygon fill="#FF00FF" points="8,41 72,41 72,63 8,63"/>
<line x1="8" y1="41" x2="72" y2="41" stroke="black"/>
<line x1="8" y1="63" x2="72" y2="63" stroke="black"/>
<line x1="8" y1="41" x2="8" y2="63" stroke="black"/>
<line x1="72" y1="41" x2="72" y2="63" stroke="black"/>
<polygon fill="#FF00FF" points="25,48 53,48 53,57 25,57"/>
<text x="26" y="57" textLength="26" font-family="Helvetica" font-size="12" fill="black">
main
</text>
<line x1="40" y1="71" x2="40" y2="101" stroke="#FF00FF"/>
<line x1="120" y1="71" x2="120" y2="101" stroke="#FFB000"/>
<polygon fill="#FFB000" points="88,71 152,71 152,93 88,93"/>
<line x1="88" y1="71" x2="152" y2="71" stroke="black"/>
<line x1="88" y1="93" x2="152" y2="93" stroke="black"/>
<line x1="88" y1="71" x2="88" y2="93" stroke="black"/>
<line x1="152" y1="71" x2="152" y2="93" stroke="black"/>
<polygon fill="#FFB000" points="98,78 141,78 141,87 98,87"/>
<text x="99" y="87" textLength="41" font-family="Helvetica" font-size="12" fill="black">
thread1
</text>
<line x1="40" y1="101" x2="40" y2="131" stroke="#FF00FF"/>
<line x1="120" y1="101" x2="120" y2="131" stroke="#FFB000"/>
<path d="M 40 118 A38,6 0 0,1 40,106" stroke="#FF00FF" fill="none"/><line x1="40" y1="118" x2="30" y2="124" stroke="#FF00FF"/>
<line x1="30" y1="112" x2="40" y2="118" stroke="#FF00FF"/>
<polygon fill="white" points="40,103 148,103 148,112 40,112"/>
<text x="41" y="112" textLength="106" font-family="Helvetica" font-size="12" fill="blue">
initRunningThread()
</text>
<line x1="40" y1="131" x2="40" y2="150" stroke="#FF00FF"/>
<line x1="120" y1="131" x2="120" y2="150" stroke="#FFB000"/>
<line x1="20" y1="136" x2="140" y2="136" stroke="black" stroke-dasharray="2,2"/>
<line x1="40" y1="150" x2="40" y2="180" stroke="#FF00FF"/>
<line x1="120" y1="150" x2="120" y2="180" stroke="#FFB000"/>
<line x1="120" y1="161" x2="40" y2="163" stroke="#D02090"/>
<line x1="40" y1="163" x2="50" y2="169" stroke="#D02090"/>
<line x1="40" y1="163" x2="50" y2="157" stroke="#D02090"/>
<polygon fill="white" points="51,152 108,152 108,161 51,161"/>
<text x="52" y="161" textLength="55" font-family="Helvetica" font-size="12" fill="#FFB000">
enqueue()
</text>
<line x1="40" y1="180" x2="40" y2="210" stroke="#FF00FF"/>
<line x1="120" y1="180" x2="120" y2="210" stroke="#FFB000"/>
<path d="M 120 185 A40,6 0 0,1 120,197" stroke="#D02090" fill="none"/><line x1="120" y1="197" x2="130" y2="203" stroke="#D02090"/>
<line x1="120" y1="197" x2="130" y2="191" stroke="#D02090"/>
<polygon fill="white" points="79,182 118,182 118,191 79,191"/>
<text x="80" y="191" textLength="37" font-family="Helvetica" font-size="12" fill="#FFB000">
notify()
</text>
<line x1="40" y1="210" x2="40" y2="240" stroke="#FF00FF"/>
<line x1="120" y1="210" x2="120" y2="240" stroke="#FFB000"/>
<line x1="120" y1="221" x2="40" y2="223" stroke="#FF00FF"/>
<line x1="40" y1="223" x2="50" y2="229" stroke="#FF00FF"/>
<line x1="40" y1="223" x2="50" y2="217" stroke="#FF00FF"/>
<polygon fill="white" points="33,212 126,212 126,221 33,221"/>
<text x="34" y="221" textLength="91" font-family="Helvetica" font-size="12" fill="#FFB000">
PostMessage(...)
</text>
<line x1="40" y1="240" x2="40" y2="259" stroke="#FF00FF"/>
<line x1="120" y1="240" x2="120" y2="259" stroke="#FFB000"/>
<line x1="20" y1="245" x2="140" y2="245" stroke="black" stroke-dasharray="2,2"/>
<line x1="40" y1="259" x2="40" y2="289" stroke="#FF00FF"/>
<line x1="120" y1="259" x2="120" y2="289" stroke="#FFB000"/>
<path d="M 40 276 A38,6 0 0,1 40,264" stroke="#FF00FF" fill="none"/><line x1="40" y1="276" x2="30" y2="282" stroke="#FF00FF"/>
<line x1="30" y1="270" x2="40" y2="276" stroke="#FF00FF"/>
<polygon fill="white" points="40,261 128,261 128,270 40,270"/>
<text x="41" y="270" textLength="86" font-family="Helvetica" font-size="12" fill="blue">
processQueue()
</text>
<line x1="40" y1="281" x2="40" y2="291" stroke="#FF00FF"/>
<line x1="120" y1="281" x2="120" y2="291" stroke="#FFB000"/>
</svg>
