<!DOCTYPE svg PUBLIC "-//W3C//DTD SVG 1.1//EN"
 "http://www.w3.org/Graphics/SVG/1.1/DTD/svg11.dtd">
<svg version="1.1"
 width="160px" height="332px"
 viewBox="0 0 160 332"
 xmlns="http://www.w3.org/2000/svg" shape-rendering="crispEdges"
 stroke-width="1" text-rendering="geometricPrecision">
<polygon fill="white" points="6,7 72,7 72,16 6,16"/>
<text x="40" y="16" textLength="64" font-family="Helvetica" font-size="12" fill="black" text-anchor="middle">

mainThread
</text>
<polygon fill="white" points="98,7 140,7 140,16 98,16"/>
<text x="120" y="16" textLength="41" font-family="Helvetica" font-size="12" fill="black" text-anchor="middle">

thread1
</text>
<line x1="40" y1="22" x2="40" y2="41" stroke="#FF00FF"/>
<line x1="120" y1="22" x2="120" y2="41" stroke="#FFB000"/>
<line x1="40" y1="41" x2="40" y2="71" stroke="#FF00FF"/>
<line x1="120" y1="41" x2="120" y2="71" stroke="#FFB000"/>
<polygon fill="#FF00FF" points="8,41 72,41 72,63 8,63"/>
<line x1="8" y1="41" x2="72" y2="41" stroke="black"/>
<line x1="8" y1="63" x2="72" y2="63" stroke="black"/>
<line x1="8" y1="41" x2="8" y2="63" stroke="black"/>
<line x1="72" y1="41" x2="72" y2="63" stroke="black"/>
<polygon fill="#FF00FF" points="25,48 53,48 53,57 25,57"/>
<text x="26" y="57" textLength="26" font-family="Helvetica" font-size="12" fill="black">
main
</text>
<line x1="40" y1="71" x2="40" y2="101" stroke="#FF00FF"/>
<line x1="120" y1="71" x2="120" y2="101" stroke="#FFB000"/>
<polygon fill="#FFB000" points="88,71 152,71 152,93 88,93"/>
<line x1="88" y1="71" x2="152" y2="71" stroke="black"/>
<line x1="88" y1="93" x2="152" y2="93" stroke="black"/>
<line x1="88" y1="71" x2="88" y2="93" stroke="black"/>
<line x1="152" y1="71" x2="152" y2="93" stroke="black"/>
<polygon fill="#FFB000" points="98,78 141,78 141,87 98,87"/>
<text x="99" y="87" textLength="41" font-family="Helvetica" font-size="12" fill="black">
thread1
</text>
<line x1="40" y1="101" x2="40" y2="120" stroke="#FF00FF"/>
<line x1="120" y1="101" x2="120" y2="120" stroke="#FFB000"/>
<line x1="20" y1="106" x2="140" y2="106" stroke="black" stroke-dasharray="2,2"/>
<line x1="40" y1="120" x2="40" y2="150" stroke="#FF00FF"/>
<line x1="120" y1="120" x2="120" y2="150" stroke="#FFB000"/>
<line x1="40" y1="131" x2="120" y2="133" stroke="#FF00FF"/>
<line x1="120" y1="133" x2="110" y2="139" stroke="#FF00FF"/>
<line x1="110" y1="127" x2="120" y2="133" stroke="#FF00FF"/>
<polygon fill="white" points="63,122 96,122 96,131 63,131"/>
<text x="64" y="131" textLength="31" font-family="Helvetica" font-size="12" fill="blue">
start()
</text>
<line x1="40" y1="150" x2="40" y2="180" stroke="#FF00FF"/>
<line x1="120" y1="150" x2="120" y2="180" stroke="#FFB000"/>
<line x1="40" y1="161" x2="120" y2="163" stroke="#FF00FF"/>
<line x1="120" y1="163" x2="110" y2="169" stroke="#FF00FF"/>
<polygon fill="white" points="51,152 108,152 108,161 51,161"/>
<text x="52" y="161" textLength="55" font-family="Helvetica" font-size="12" fill="blue">
enqueue()
</text>
<line x1="40" y1="180" x2="40" y2="210" stroke="#FF00FF"/>
<line x1="120" y1="180" x2="120" y2="210" stroke="#FFB000"/>
<path d="M 120 185 A40,6 0 0,1 120,197" stroke="#D02090" fill="none"/><polygon fill="#D02090" points="120,197 130,203 130,191"/>
<polygon fill="white" points="53,182 118,182 118,191 53,191"/>
<text x="54" y="191" textLength="63" font-family="Helvetica" font-size="12" fill="#FFB000">
DoTheJob()
</text>
<line x1="40" y1="210" x2="40" y2="240" stroke="#FF00FF"/>
<line x1="120" y1="210" x2="120" y2="240" stroke="#FFB000"/>
<line x1="40" y1="221" x2="120" y2="223" stroke="#FF00FF"/>
<line x1="120" y1="223" x2="110" y2="229" stroke="#FF00FF"/>
<polygon fill="white" points="51,212 108,212 108,221 51,221"/>
<text x="52" y="221" textLength="55" font-family="Helvetica" font-size="12" fill="blue">
enqueue()
</text>
<line x1="40" y1="240" x2="40" y2="270" stroke="#FF00FF"/>
<line x1="120" y1="240" x2="120" y2="270" stroke="#FFB000"/>
<line x1="40" y1="251" x2="120" y2="253" stroke="#FF00FF"/>
<line x1="120" y1="253" x2="110" y2="259" stroke="#FF00FF"/>
<polygon fill="white" points="51,242 108,242 108,251 51,251"/>
<text x="52" y="251" textLength="55" font-family="Helvetica" font-size="12" fill="blue">
enqueue()
</text>
<line x1="40" y1="270" x2="40" y2="300" stroke="#FF00FF"/>
<line x1="120" y1="270" x2="120" y2="300" stroke="#FFB000"/>
<path d="M 120 275 A40,6 0 0,1 120,287" stroke="#D02090" fill="none"/><polygon fill="#D02090" points="120,287 130,293 130,281"/>
<polygon fill="white" points="53,272 118,272 118,281 53,281"/>
<text x="54" y="281" textLength="63" font-family="Helvetica" font-size="12" fill="#FFB000">
DoTheJob()
</text>
<line x1="40" y1="300" x2="40" y2="330" stroke="#FF00FF"/>
<line x1="120" y1="300" x2="120" y2="330" stroke="#FFB000"/>
<path d="M 120 305 A40,6 0 0,1 120,317" stroke="#D02090" fill="none"/><polygon fill="#D02090" points="120,317 130,323 130,311"/>
<polygon fill="white" points="53,302 118,302 118,311 53,311"/>
<text x="54" y="311" textLength="63" font-family="Helvetica" font-size="12" fill="#FFB000">
DoTheJob()
</text>
<line x1="40" y1="322" x2="40" y2="332" stroke="#FF00FF"/>
<line x1="120" y1="322" x2="120" y2="332" stroke="#FFB000"/>
</svg>
