<?xml version="1.0" encoding="UTF-8" standalone="no"?>
<!DOCTYPE svg PUBLIC "-//W3C//DTD SVG 1.1//EN"
 "http://www.w3.org/Graphics/SVG/1.1/DTD/svg11.dtd">
<!-- Generated by graphviz version 2.38.0 (20140413.2041)
 -->
<!-- Title: src/output.hpp Pages: 1 -->
<svg width="1298pt" height="252pt"
 viewBox="0.00 0.00 1298.00 252.00" xmlns="http://www.w3.org/2000/svg" xmlns:xlink="http://www.w3.org/1999/xlink">
<g id="graph0" class="graph" transform="scale(1 1) rotate(0) translate(4 248)">
<title>src/output.hpp</title>
<polygon fill="white" stroke="none" points="-4,4 -4,-248 1294,-248 1294,4 -4,4"/>
<!-- Node1 -->
<g id="node1" class="node"><title>Node1</title>
<g id="a_node1"><a xlink:title=" ">
<polygon fill="#bfbfbf" stroke="black" points="477.5,-224.5 477.5,-243.5 556.5,-243.5 556.5,-224.5 477.5,-224.5"/>
<text text-anchor="middle" x="517" y="-231.5" font-family="Helvetica,sans-Serif" font-size="10.00">src/output.hpp</text>
</a>
</g>
</g>
<!-- Node2 -->
<g id="node2" class="node"><title>Node2</title>
<g id="a_node2"><a xlink:href="_test_case_8h.html" target="_top" xlink:title=" ">
<polygon fill="white" stroke="black" points="414,-112.5 414,-131.5 518,-131.5 518,-112.5 414,-112.5"/>
<text text-anchor="middle" x="466" y="-119.5" font-family="Helvetica,sans-Serif" font-size="10.00">src/Test/TestCase.h</text>
</a>
</g>
</g>
<!-- Node1&#45;&gt;Node2 -->
<g id="edge1" class="edge"><title>Node1&#45;&gt;Node2</title>
<path fill="none" stroke="midnightblue" d="M508.654,-214.998C497.526,-190.997 478.272,-149.468 469.983,-131.591"/>
<polygon fill="midnightblue" stroke="midnightblue" points="505.616,-216.768 512.998,-224.368 511.967,-213.824 505.616,-216.768"/>
</g>
<!-- Node11 -->
<g id="node11" class="node"><title>Node11</title>
<g id="a_node11"><a xlink:href="utils_8hpp.html" target="_top" xlink:title=" ">
<polygon fill="white" stroke="black" points="518,-168.5 518,-187.5 588,-187.5 588,-168.5 518,-168.5"/>
<text text-anchor="middle" x="553" y="-175.5" font-family="Helvetica,sans-Serif" font-size="10.00">src/utils.hpp</text>
</a>
</g>
</g>
<!-- Node1&#45;&gt;Node11 -->
<g id="edge10" class="edge"><title>Node1&#45;&gt;Node11</title>
<path fill="none" stroke="midnightblue" d="M528.623,-215.566C534.817,-206.275 542.168,-195.248 547.166,-187.751"/>
<polygon fill="midnightblue" stroke="midnightblue" points="525.58,-213.821 522.945,-224.083 531.404,-217.704 525.58,-213.821"/>
</g>
<!-- Node3 -->
<g id="node3" class="node"><title>Node3</title>
<g id="a_node3"><a xlink:href="main_8cpp.html" target="_top" xlink:title=" ">
<polygon fill="white" stroke="black" points="539.5,-56.5 539.5,-75.5 612.5,-75.5 612.5,-56.5 539.5,-56.5"/>
<text text-anchor="middle" x="576" y="-63.5" font-family="Helvetica,sans-Serif" font-size="10.00">src/main.cpp</text>
</a>
</g>
</g>
<!-- Node2&#45;&gt;Node3 -->
<g id="edge2" class="edge"><title>Node2&#45;&gt;Node3</title>
<path fill="none" stroke="midnightblue" d="M492.762,-107.862C513.159,-97.8492 540.666,-84.3458 558.37,-75.6545"/>
<polygon fill="midnightblue" stroke="midnightblue" points="491.108,-104.775 483.673,-112.324 494.192,-111.059 491.108,-104.775"/>
</g>
<!-- Node4 -->
<g id="node4" class="node"><title>Node4</title>
<g id="a_node4"><a xlink:href="_base_tests_8h.html" target="_top" xlink:title=" ">
<polygon fill="white" stroke="black" points="411,-56.5 411,-75.5 521,-75.5 521,-56.5 411,-56.5"/>
<text text-anchor="middle" x="466" y="-63.5" font-family="Helvetica,sans-Serif" font-size="10.00">src/Test/BaseTests.h</text>
</a>
</g>
</g>
<!-- Node2&#45;&gt;Node4 -->
<g id="edge3" class="edge"><title>Node2&#45;&gt;Node4</title>
<path fill="none" stroke="midnightblue" d="M466,-101.805C466,-92.9102 466,-82.7798 466,-75.7511"/>
<polygon fill="midnightblue" stroke="midnightblue" points="462.5,-102.083 466,-112.083 469.5,-102.083 462.5,-102.083"/>
</g>
<!-- Node6 -->
<g id="node6" class="node"><title>Node6</title>
<g id="a_node6"><a xlink:href="_property_tests_8h.html" target="_top" xlink:title=" ">
<polygon fill="white" stroke="black" points="5,-56.5 5,-75.5 129,-75.5 129,-56.5 5,-56.5"/>
<text text-anchor="middle" x="67" y="-63.5" font-family="Helvetica,sans-Serif" font-size="10.00">src/Test/PropertyTests.h</text>
</a>
</g>
</g>
<!-- Node2&#45;&gt;Node6 -->
<g id="edge5" class="edge"><title>Node2&#45;&gt;Node6</title>
<path fill="none" stroke="midnightblue" d="M403.607,-112.556C328.677,-102.415 203.767,-85.5098 129.008,-75.3921"/>
<polygon fill="midnightblue" stroke="midnightblue" points="403.459,-116.068 413.838,-113.94 404.397,-109.131 403.459,-116.068"/>
</g>
<!-- Node8 -->
<g id="node8" class="node"><title>Node8</title>
<g id="a_node8"><a xlink:href="_test_case_8cpp.html" target="_top" xlink:title=" ">
<polygon fill="white" stroke="black" points="147.5,-56.5 147.5,-75.5 262.5,-75.5 262.5,-56.5 147.5,-56.5"/>
<text text-anchor="middle" x="205" y="-63.5" font-family="Helvetica,sans-Serif" font-size="10.00">src/Test/TestCase.cpp</text>
</a>
</g>
</g>
<!-- Node2&#45;&gt;Node8 -->
<g id="edge7" class="edge"><title>Node2&#45;&gt;Node8</title>
<path fill="none" stroke="midnightblue" d="M414.813,-110.41C365.487,-100.204 291.805,-84.9597 246.163,-75.5164"/>
<polygon fill="midnightblue" stroke="midnightblue" points="414.142,-113.845 424.644,-112.444 415.56,-106.99 414.142,-113.845"/>
</g>
<!-- Node9 -->
<g id="node9" class="node"><title>Node9</title>
<g id="a_node9"><a xlink:href="_value_tests_8h.html" target="_top" xlink:title=" ">
<polygon fill="white" stroke="black" points="281,-56.5 281,-75.5 393,-75.5 393,-56.5 281,-56.5"/>
<text text-anchor="middle" x="337" y="-63.5" font-family="Helvetica,sans-Serif" font-size="10.00">src/Test/ValueTests.h</text>
</a>
</g>
</g>
<!-- Node2&#45;&gt;Node9 -->
<g id="edge8" class="edge"><title>Node2&#45;&gt;Node9</title>
<path fill="none" stroke="midnightblue" d="M436.146,-108.503C411.962,-98.3795 378.538,-84.388 357.345,-75.5164"/>
<polygon fill="midnightblue" stroke="midnightblue" points="434.984,-111.811 445.56,-112.444 437.687,-105.354 434.984,-111.811"/>
</g>
<!-- Node5 -->
<g id="node5" class="node"><title>Node5</title>
<g id="a_node5"><a xlink:href="_base_tests_8cpp.html" target="_top" xlink:title=" ">
<polygon fill="white" stroke="black" points="411,-0.5 411,-19.5 531,-19.5 531,-0.5 411,-0.5"/>
<text text-anchor="middle" x="471" y="-7.5" font-family="Helvetica,sans-Serif" font-size="10.00">src/Test/BaseTests.cpp</text>
</a>
</g>
</g>
<!-- Node4&#45;&gt;Node5 -->
<g id="edge4" class="edge"><title>Node4&#45;&gt;Node5</title>
<path fill="none" stroke="midnightblue" d="M467.75,-46.1005C468.58,-37.1357 469.532,-26.8579 470.19,-19.7511"/>
<polygon fill="midnightblue" stroke="midnightblue" points="464.263,-45.8029 466.826,-56.083 471.233,-46.4483 464.263,-45.8029"/>
</g>
<!-- Node7 -->
<g id="node7" class="node"><title>Node7</title>
<g id="a_node7"><a xlink:href="_property_tests_8cpp.html" target="_top" xlink:title=" ">
<polygon fill="white" stroke="black" points="0,-0.5 0,-19.5 134,-19.5 134,-0.5 0,-0.5"/>
<text text-anchor="middle" x="67" y="-7.5" font-family="Helvetica,sans-Serif" font-size="10.00">src/Test/PropertyTests.cpp</text>
</a>
</g>
</g>
<!-- Node6&#45;&gt;Node7 -->
<g id="edge6" class="edge"><title>Node6&#45;&gt;Node7</title>
<path fill="none" stroke="midnightblue" d="M67,-45.8045C67,-36.9102 67,-26.7798 67,-19.7511"/>
<polygon fill="midnightblue" stroke="midnightblue" points="63.5001,-46.083 67,-56.083 70.5001,-46.083 63.5001,-46.083"/>
</g>
<!-- Node10 -->
<g id="node10" class="node"><title>Node10</title>
<g id="a_node10"><a xlink:href="_value_tests_8cpp.html" target="_top" xlink:title=" ">
<polygon fill="white" stroke="black" points="271,-0.5 271,-19.5 393,-19.5 393,-0.5 271,-0.5"/>
<text text-anchor="middle" x="332" y="-7.5" font-family="Helvetica,sans-Serif" font-size="10.00">src/Test/ValueTests.cpp</text>
</a>
</g>
</g>
<!-- Node9&#45;&gt;Node10 -->
<g id="edge9" class="edge"><title>Node9&#45;&gt;Node10</title>
<path fill="none" stroke="midnightblue" d="M335.25,-46.1005C334.42,-37.1357 333.468,-26.8579 332.81,-19.7511"/>
<polygon fill="midnightblue" stroke="midnightblue" points="331.767,-46.4483 336.174,-56.083 338.737,-45.8029 331.767,-46.4483"/>
</g>
<!-- Node11&#45;&gt;Node2 -->
<g id="edge19" class="edge"><title>Node11&#45;&gt;Node2</title>
<path fill="none" stroke="midnightblue" d="M530.284,-162.901C514.331,-152.999 493.503,-140.071 479.943,-131.655"/>
<polygon fill="midnightblue" stroke="midnightblue" points="528.68,-166.024 539.022,-168.324 532.371,-160.077 528.68,-166.024"/>
</g>
<!-- Node11&#45;&gt;Node3 -->
<g id="edge18" class="edge"><title>Node11&#45;&gt;Node3</title>
<path fill="none" stroke="midnightblue" d="M556.9,-158.348C561.938,-134.254 570.499,-93.3079 574.204,-75.5914"/>
<polygon fill="midnightblue" stroke="midnightblue" points="553.426,-157.864 554.805,-168.368 560.277,-159.297 553.426,-157.864"/>
</g>
<!-- Node12 -->
<g id="node12" class="node"><title>Node12</title>
<g id="a_node12"><a xlink:href="dbg__new_8h.html" target="_top" xlink:title=" ">
<polygon fill="white" stroke="black" points="782,-112.5 782,-131.5 862,-131.5 862,-112.5 782,-112.5"/>
<text text-anchor="middle" x="822" y="-119.5" font-family="Helvetica,sans-Serif" font-size="10.00">src/dbg_new.h</text>
</a>
</g>
</g>
<!-- Node11&#45;&gt;Node12 -->
<g id="edge11" class="edge"><title>Node11&#45;&gt;Node12</title>
<path fill="none" stroke="midnightblue" d="M597.975,-167.971C649.233,-157.682 732.266,-141.014 781.555,-131.119"/>
<polygon fill="midnightblue" stroke="midnightblue" points="597.283,-164.541 588.167,-169.94 598.66,-171.404 597.283,-164.541"/>
</g>
<!-- Node12&#45;&gt;Node3 -->
<g id="edge17" class="edge"><title>Node12&#45;&gt;Node3</title>
<path fill="none" stroke="midnightblue" d="M773.021,-110.248C725.8,-99.883 655.406,-84.4306 612.788,-75.0755"/>
<polygon fill="midnightblue" stroke="midnightblue" points="772.503,-113.718 783.021,-112.444 774.004,-106.881 772.503,-113.718"/>
</g>
<!-- Node13 -->
<g id="node13" class="node"><title>Node13</title>
<g id="a_node13"><a xlink:href="_thread_8cpp.html" target="_top" xlink:title=" ">
<polygon fill="white" stroke="black" points="905.5,-56.5 905.5,-75.5 1012.5,-75.5 1012.5,-56.5 905.5,-56.5"/>
<text text-anchor="middle" x="959" y="-63.5" font-family="Helvetica,sans-Serif" font-size="10.00">src/Base/Thread.cpp</text>
</a>
</g>
</g>
<!-- Node12&#45;&gt;Node13 -->
<g id="edge12" class="edge"><title>Node12&#45;&gt;Node13</title>
<path fill="none" stroke="midnightblue" d="M853.023,-108.772C878.757,-98.6287 914.686,-84.4669 937.394,-75.5164"/>
<polygon fill="midnightblue" stroke="midnightblue" points="851.728,-105.52 843.708,-112.444 854.295,-112.033 851.728,-105.52"/>
</g>
<!-- Node14 -->
<g id="node14" class="node"><title>Node14</title>
<g id="a_node14"><a xlink:href="_button_8cpp.html" target="_top" xlink:title=" ">
<polygon fill="white" stroke="black" points="1030.5,-56.5 1030.5,-75.5 1149.5,-75.5 1149.5,-56.5 1030.5,-56.5"/>
<text text-anchor="middle" x="1090" y="-63.5" font-family="Helvetica,sans-Serif" font-size="10.00">src/Controls/Button.cpp</text>
</a>
</g>
</g>
<!-- Node12&#45;&gt;Node14 -->
<g id="edge13" class="edge"><title>Node12&#45;&gt;Node14</title>
<path fill="none" stroke="midnightblue" d="M872.165,-110.892C922.675,-100.715 999.746,-85.1855 1047.39,-75.5865"/>
<polygon fill="midnightblue" stroke="midnightblue" points="871.234,-107.509 862.122,-112.916 872.617,-114.371 871.234,-107.509"/>
</g>
<!-- Node15 -->
<g id="node15" class="node"><title>Node15</title>
<g id="a_node15"><a xlink:href="_control_8cpp.html" target="_top" xlink:title=" ">
<polygon fill="white" stroke="black" points="1168,-56.5 1168,-75.5 1290,-75.5 1290,-56.5 1168,-56.5"/>
<text text-anchor="middle" x="1229" y="-63.5" font-family="Helvetica,sans-Serif" font-size="10.00">src/Controls/Control.cpp</text>
</a>
</g>
</g>
<!-- Node12&#45;&gt;Node15 -->
<g id="edge14" class="edge"><title>Node12&#45;&gt;Node15</title>
<path fill="none" stroke="midnightblue" d="M872.235,-114.335C946.96,-104.421 1087.22,-85.8113 1167.82,-75.1172"/>
<polygon fill="midnightblue" stroke="midnightblue" points="871.591,-110.89 862.139,-115.674 872.512,-117.829 871.591,-110.89"/>
</g>
<!-- Node16 -->
<g id="node16" class="node"><title>Node16</title>
<g id="a_node16"><a xlink:href="_edit_8cpp.html" target="_top" xlink:title=" ">
<polygon fill="white" stroke="black" points="631,-56.5 631,-75.5 739,-75.5 739,-56.5 631,-56.5"/>
<text text-anchor="middle" x="685" y="-63.5" font-family="Helvetica,sans-Serif" font-size="10.00">src/Controls/Edit.cpp</text>
</a>
</g>
</g>
<!-- Node12&#45;&gt;Node16 -->
<g id="edge15" class="edge"><title>Node12&#45;&gt;Node16</title>
<path fill="none" stroke="midnightblue" d="M790.977,-108.772C765.243,-98.6287 729.314,-84.4669 706.606,-75.5164"/>
<polygon fill="midnightblue" stroke="midnightblue" points="789.705,-112.033 800.292,-112.444 792.272,-105.52 789.705,-112.033"/>
</g>
<!-- Node17 -->
<g id="node17" class="node"><title>Node17</title>
<g id="a_node17"><a xlink:href="_progress_8cpp.html" target="_top" xlink:title=" ">
<polygon fill="white" stroke="black" points="757,-56.5 757,-75.5 887,-75.5 887,-56.5 757,-56.5"/>
<text text-anchor="middle" x="822" y="-63.5" font-family="Helvetica,sans-Serif" font-size="10.00">src/Controls/Progress.cpp</text>
</a>
</g>
</g>
<!-- Node12&#45;&gt;Node17 -->
<g id="edge16" class="edge"><title>Node12&#45;&gt;Node17</title>
<path fill="none" stroke="midnightblue" d="M822,-101.805C822,-92.9102 822,-82.7798 822,-75.7511"/>
<polygon fill="midnightblue" stroke="midnightblue" points="818.5,-102.083 822,-112.083 825.5,-102.083 818.5,-102.083"/>
</g>
</g>
</svg>
