<?xml version="1.0" encoding="UTF-8" standalone="no"?>
<!DOCTYPE svg PUBLIC "-//W3C//DTD SVG 1.1//EN"
 "http://www.w3.org/Graphics/SVG/1.1/DTD/svg11.dtd">
<!-- Generated by graphviz version 2.38.0 (20140413.2041)
 -->
<!-- Title: Edit::Impl Pages: 1 -->
<svg width="139pt" height="128pt"
 viewBox="0.00 0.00 138.50 128.00" xmlns="http://www.w3.org/2000/svg" xmlns:xlink="http://www.w3.org/1999/xlink">
<g id="graph0" class="graph" transform="scale(1 1) rotate(0) translate(4 124)">
<title>Edit::Impl</title>
<polygon fill="white" stroke="none" points="-4,4 -4,-124 134.5,-124 134.5,4 -4,4"/>
<!-- Node1 -->
<g id="node1" class="node"><title>Node1</title>
<g id="a_node1"><a xlink:title=" ">
<polygon fill="#bfbfbf" stroke="black" points="26.5,-0.5 26.5,-19.5 84.5,-19.5 84.5,-0.5 26.5,-0.5"/>
<text text-anchor="middle" x="55.5" y="-7.5" font-family="Helvetica,sans-Serif" font-size="10.00">Edit::Impl</text>
</a>
</g>
</g>
<!-- Node2 -->
<g id="node2" class="node"><title>Node2</title>
<g id="a_node2"><a xlink:title=" ">
<polygon fill="white" stroke="#bfbfbf" points="0,-100.5 0,-119.5 51,-119.5 51,-100.5 0,-100.5"/>
<text text-anchor="middle" x="25.5" y="-107.5" font-family="Helvetica,sans-Serif" font-size="10.00">uint32_t</text>
</a>
</g>
</g>
<!-- Node2&#45;&gt;Node1 -->
<g id="edge1" class="edge"><title>Node2&#45;&gt;Node1</title>
<path fill="none" stroke="#9a32cd" stroke-dasharray="5,2" d="M28.9244,-89.8775C31.7922,-75.4007 36.3978,-55.1488 42.5,-38 44.7325,-31.7261 47.9825,-24.9761 50.6744,-19.7946"/>
<polygon fill="#9a32cd" stroke="#9a32cd" points="25.4142,-89.6047 27.0016,-100.08 32.2931,-90.9012 25.4142,-89.6047"/>
<text text-anchor="middle" x="53.5" y="-74" font-family="Helvetica,sans-Serif" font-size="10.00"> bm_</text>
<text text-anchor="middle" x="53.5" y="-63" font-family="Helvetica,sans-Serif" font-size="10.00">lm_</text>
<text text-anchor="middle" x="53.5" y="-52" font-family="Helvetica,sans-Serif" font-size="10.00">rm_</text>
<text text-anchor="middle" x="53.5" y="-41" font-family="Helvetica,sans-Serif" font-size="10.00">tm_</text>
</g>
<!-- Node3 -->
<g id="node3" class="node"><title>Node3</title>
<g id="a_node3"><a xlink:title=" ">
<polygon fill="white" stroke="#bfbfbf" points="69,-100.5 69,-119.5 104,-119.5 104,-100.5 69,-100.5"/>
<text text-anchor="middle" x="86.5" y="-107.5" font-family="Helvetica,sans-Serif" font-size="10.00">bool</text>
</a>
</g>
</g>
<!-- Node3&#45;&gt;Node1 -->
<g id="edge2" class="edge"><title>Node3&#45;&gt;Node1</title>
<path fill="none" stroke="#9a32cd" stroke-dasharray="5,2" d="M80.912,-90.5869C76.5279,-76.2342 70.2292,-55.8172 64.5,-38 62.5639,-31.9791 60.3139,-25.2291 58.5479,-19.9843"/>
<polygon fill="#9a32cd" stroke="#9a32cd" points="77.5891,-91.6899 83.8502,-100.237 84.2856,-89.6509 77.5891,-91.6899"/>
<text text-anchor="middle" x="104" y="-74" font-family="Helvetica,sans-Serif" font-size="10.00"> clientedge_</text>
<text text-anchor="middle" x="104" y="-63" font-family="Helvetica,sans-Serif" font-size="10.00">hscroll_</text>
<text text-anchor="middle" x="104" y="-52" font-family="Helvetica,sans-Serif" font-size="10.00">readOnly_</text>
<text text-anchor="middle" x="104" y="-41" font-family="Helvetica,sans-Serif" font-size="10.00">vscroll_</text>
</g>
</g>
</svg>
