<?xml version="1.0" encoding="UTF-8" standalone="no"?>
<!DOCTYPE svg PUBLIC "-//W3C//DTD SVG 1.1//EN"
 "http://www.w3.org/Graphics/SVG/1.1/DTD/svg11.dtd">
<!-- Generated by graphviz version 2.38.0 (20140413.2041)
 -->
<!-- Title: Control::ControlManager::Impl Pages: 1 -->
<svg width="339pt" height="106pt"
 viewBox="0.00 0.00 339.00 106.00" xmlns="http://www.w3.org/2000/svg" xmlns:xlink="http://www.w3.org/1999/xlink">
<g id="graph0" class="graph" transform="scale(1 1) rotate(0) translate(4 102)">
<title>Control::ControlManager::Impl</title>
<polygon fill="white" stroke="none" points="-4,4 -4,-102 335,-102 335,4 -4,4"/>
<!-- Node1 -->
<g id="node1" class="node"><title>Node1</title>
<g id="a_node1"><a xlink:title=" ">
<polygon fill="#bfbfbf" stroke="black" points="153.5,-0.5 153.5,-30.5 275.5,-30.5 275.5,-0.5 153.5,-0.5"/>
<text text-anchor="start" x="161.5" y="-18.5" font-family="Helvetica,sans-Serif" font-size="10.00">Control::ControlManager</text>
<text text-anchor="middle" x="214.5" y="-7.5" font-family="Helvetica,sans-Serif" font-size="10.00">::Impl</text>
</a>
</g>
</g>
<!-- Node2 -->
<g id="node2" class="node"><title>Node2</title>
<g id="a_node2"><a xlink:title=" ">
<polygon fill="white" stroke="#bfbfbf" points="0,-78.5 0,-97.5 133,-97.5 133,-78.5 0,-78.5"/>
<text text-anchor="middle" x="66.5" y="-85.5" font-family="Helvetica,sans-Serif" font-size="10.00">map&lt; HWND, ControlPtr &gt;</text>
</a>
</g>
</g>
<!-- Node2&#45;&gt;Node1 -->
<g id="edge1" class="edge"><title>Node2&#45;&gt;Node1</title>
<path fill="none" stroke="#9a32cd" stroke-dasharray="5,2" d="M93.5886,-74.0963C119.493,-61.7567 158.449,-43.2001 185.098,-30.5059"/>
<polygon fill="#9a32cd" stroke="#9a32cd" points="91.8751,-71.0357 84.3523,-78.4961 94.8855,-77.3553 91.8751,-71.0357"/>
<text text-anchor="middle" x="162" y="-52" font-family="Helvetica,sans-Serif" font-size="10.00"> hMap_</text>
</g>
<!-- Node3 -->
<g id="node3" class="node"><title>Node3</title>
<g id="a_node3"><a xlink:title=" ">
<polygon fill="white" stroke="#bfbfbf" points="151,-78.5 151,-97.5 278,-97.5 278,-78.5 151,-78.5"/>
<text text-anchor="middle" x="214.5" y="-85.5" font-family="Helvetica,sans-Serif" font-size="10.00">map&lt; string, ControlPtr &gt;</text>
</a>
</g>
</g>
<!-- Node3&#45;&gt;Node1 -->
<g id="edge2" class="edge"><title>Node3&#45;&gt;Node1</title>
<path fill="none" stroke="#9a32cd" stroke-dasharray="5,2" d="M214.5,-68.2362C214.5,-56.4079 214.5,-41.3829 214.5,-30.5762"/>
<polygon fill="#9a32cd" stroke="#9a32cd" points="211,-68.3553 214.5,-78.3553 218,-68.3554 211,-68.3553"/>
<text text-anchor="middle" x="240.5" y="-52" font-family="Helvetica,sans-Serif" font-size="10.00"> nameMap_</text>
</g>
<!-- Node4 -->
<g id="node4" class="node"><title>Node4</title>
<g id="a_node4"><a xlink:title=" ">
<polygon fill="white" stroke="#bfbfbf" points="296,-78.5 296,-97.5 331,-97.5 331,-78.5 296,-78.5"/>
<text text-anchor="middle" x="313.5" y="-85.5" font-family="Helvetica,sans-Serif" font-size="10.00">bool</text>
</a>
</g>
</g>
<!-- Node4&#45;&gt;Node1 -->
<g id="edge3" class="edge"><title>Node4&#45;&gt;Node1</title>
<path fill="none" stroke="#9a32cd" stroke-dasharray="5,2" d="M297.104,-71.1326C289.34,-63.987 279.757,-55.6761 270.5,-49 261.292,-42.3591 250.632,-35.8994 241.101,-30.5118"/>
<polygon fill="#9a32cd" stroke="#9a32cd" points="295.033,-73.9895 304.713,-78.2964 299.831,-68.8931 295.033,-73.9895"/>
<text text-anchor="middle" x="303.5" y="-52" font-family="Helvetica,sans-Serif" font-size="10.00"> deleted_</text>
</g>
</g>
</svg>
