<?xml version="1.0" encoding="UTF-8" standalone="no"?>
<!DOCTYPE svg PUBLIC "-//W3C//DTD SVG 1.1//EN"
 "http://www.w3.org/Graphics/SVG/1.1/DTD/svg11.dtd">
<!-- Generated by graphviz version 2.38.0 (20140413.2041)
 -->
<!-- Title: Thread::ThreadManager::Impl Pages: 1 -->
<svg width="328pt" height="166pt"
 viewBox="0.00 0.00 328.00 165.50" xmlns="http://www.w3.org/2000/svg" xmlns:xlink="http://www.w3.org/1999/xlink">
<g id="graph0" class="graph" transform="scale(1 1) rotate(0) translate(4 161.5)">
<title>Thread::ThreadManager::Impl</title>
<polygon fill="white" stroke="none" points="-4,4 -4,-161.5 324,-161.5 324,4 -4,4"/>
<!-- Node1 -->
<g id="node1" class="node"><title>Node1</title>
<g id="a_node1"><a xlink:title="The implementation of the thread manager.">
<polygon fill="#bfbfbf" stroke="black" points="201,-66.5 201,-96.5 320,-96.5 320,-66.5 201,-66.5"/>
<text text-anchor="start" x="209" y="-84.5" font-family="Helvetica,sans-Serif" font-size="10.00">Thread::ThreadManager</text>
<text text-anchor="middle" x="260.5" y="-73.5" font-family="Helvetica,sans-Serif" font-size="10.00">::Impl</text>
</a>
</g>
</g>
<!-- Node2 -->
<g id="node2" class="node"><title>Node2</title>
<g id="a_node2"><a xlink:title=" ">
<polygon fill="white" stroke="#bfbfbf" points="13,-138 13,-157 100,-157 100,-138 13,-138"/>
<text text-anchor="middle" x="56.5" y="-145" font-family="Helvetica,sans-Serif" font-size="10.00">recursive_mutex</text>
</a>
</g>
</g>
<!-- Node2&#45;&gt;Node1 -->
<g id="edge1" class="edge"><title>Node2&#45;&gt;Node1</title>
<path fill="none" stroke="#9a32cd" stroke-dasharray="5,2" d="M102.262,-135.193C126.329,-128.352 156.438,-119.436 183,-110.5 195.654,-106.243 209.33,-101.202 221.571,-96.5271"/>
<polygon fill="#9a32cd" stroke="#9a32cd" points="101.019,-131.907 92.3455,-137.991 102.92,-138.644 101.019,-131.907"/>
<text text-anchor="middle" x="157" y="-129.5" font-family="Helvetica,sans-Serif" font-size="10.00"> mutex_</text>
</g>
<!-- Node3 -->
<g id="node3" class="node"><title>Node3</title>
<g id="a_node3"><a xlink:title=" ">
<polygon fill="white" stroke="#bfbfbf" points="0,-88.5 0,-118.5 113,-118.5 113,-88.5 0,-88.5"/>
<text text-anchor="start" x="8" y="-106.5" font-family="Helvetica,sans-Serif" font-size="10.00">map&lt; string, weak_ptr</text>
<text text-anchor="middle" x="56.5" y="-95.5" font-family="Helvetica,sans-Serif" font-size="10.00">&lt; Thread &gt; &gt;</text>
</a>
</g>
</g>
<!-- Node3&#45;&gt;Node1 -->
<g id="edge2" class="edge"><title>Node3&#45;&gt;Node1</title>
<path fill="none" stroke="#9a32cd" stroke-dasharray="5,2" d="M123.341,-96.3292C148.295,-93.6115 176.52,-90.5375 200.775,-87.8958"/>
<polygon fill="#9a32cd" stroke="#9a32cd" points="122.794,-92.8679 113.232,-97.4302 123.552,-99.8268 122.794,-92.8679"/>
<text text-anchor="middle" x="157" y="-98.5" font-family="Helvetica,sans-Serif" font-size="10.00"> nameMap_</text>
</g>
<!-- Node4 -->
<g id="node4" class="node"><title>Node4</title>
<g id="a_node4"><a xlink:title=" ">
<polygon fill="white" stroke="#bfbfbf" points="39,-50 39,-69 74,-69 74,-50 39,-50"/>
<text text-anchor="middle" x="56.5" y="-57" font-family="Helvetica,sans-Serif" font-size="10.00">bool</text>
</a>
</g>
</g>
<!-- Node4&#45;&gt;Node1 -->
<g id="edge3" class="edge"><title>Node4&#45;&gt;Node1</title>
<path fill="none" stroke="#9a32cd" stroke-dasharray="5,2" d="M84.0048,-62.3867C113.583,-65.6081 162.358,-70.9202 200.991,-75.1277"/>
<polygon fill="#9a32cd" stroke="#9a32cd" points="84.3507,-58.9037 74.0305,-61.3004 83.5927,-65.8626 84.3507,-58.9037"/>
<text text-anchor="middle" x="157" y="-76.5" font-family="Helvetica,sans-Serif" font-size="10.00"> isDeleted</text>
</g>
<!-- Node5 -->
<g id="node5" class="node"><title>Node5</title>
<g id="a_node5"><a xlink:title=" ">
<polygon fill="white" stroke="#bfbfbf" points="1.5,-0.5 1.5,-30.5 111.5,-30.5 111.5,-0.5 1.5,-0.5"/>
<text text-anchor="start" x="9.5" y="-18.5" font-family="Helvetica,sans-Serif" font-size="10.00">map&lt; ThreadId, weak</text>
<text text-anchor="middle" x="56.5" y="-7.5" font-family="Helvetica,sans-Serif" font-size="10.00">_ptr&lt; Thread &gt; &gt;</text>
</a>
</g>
</g>
<!-- Node5&#45;&gt;Node1 -->
<g id="edge4" class="edge"><title>Node5&#45;&gt;Node1</title>
<path fill="none" stroke="#9a32cd" stroke-dasharray="5,2" d="M119.39,-33.478C139.731,-39.5894 162.403,-46.6187 183,-53.5 194.939,-57.4887 207.822,-62.0882 219.551,-66.3917"/>
<polygon fill="#9a32cd" stroke="#9a32cd" points="120.194,-30.0655 109.61,-30.5562 118.19,-36.7725 120.194,-30.0655"/>
<text text-anchor="middle" x="157" y="-56.5" font-family="Helvetica,sans-Serif" font-size="10.00"> idMap_</text>
</g>
</g>
</svg>
