<?xml version="1.0" encoding="UTF-8" standalone="no"?>
<!DOCTYPE svg PUBLIC "-//W3C//DTD SVG 1.1//EN"
 "http://www.w3.org/Graphics/SVG/1.1/DTD/svg11.dtd">
<!-- Generated by graphviz version 2.38.0 (20140413.2041)
 -->
<!-- Title: Edit::Impl Pages: 1 -->
<svg width="141pt" height="139pt"
 viewBox="0.00 0.00 140.50 139.00" xmlns="http://www.w3.org/2000/svg" xmlns:xlink="http://www.w3.org/1999/xlink">
<g id="graph0" class="graph" transform="scale(1 1) rotate(0) translate(4 135)">
<title>Edit::Impl</title>
<polygon fill="white" stroke="none" points="-4,4 -4,-135 136.5,-135 136.5,4 -4,4"/>
<!-- Node1 -->
<g id="node1" class="node"><title>Node1</title>
<g id="a_node1"><a xlink:title=" ">
<polygon fill="#bfbfbf" stroke="black" points="26.5,-0.5 26.5,-19.5 84.5,-19.5 84.5,-0.5 26.5,-0.5"/>
<text text-anchor="middle" x="55.5" y="-7.5" font-family="Helvetica,sans-Serif" font-size="10.00">Edit::Impl</text>
</a>
</g>
</g>
<!-- Node2 -->
<g id="node2" class="node"><title>Node2</title>
<g id="a_node2"><a xlink:title=" ">
<polygon fill="white" stroke="#bfbfbf" points="0,-111.5 0,-130.5 51,-130.5 51,-111.5 0,-111.5"/>
<text text-anchor="middle" x="25.5" y="-118.5" font-family="Helvetica,sans-Serif" font-size="10.00">uint32_t</text>
</a>
</g>
</g>
<!-- Node2&#45;&gt;Node1 -->
<g id="edge1" class="edge"><title>Node2&#45;&gt;Node1</title>
<path fill="none" stroke="#9a32cd" stroke-dasharray="5,2" d="M28.0887,-101.008C30.7008,-84.1613 35.3757,-59.0343 42.5,-38 44.6363,-31.6927 47.8863,-24.9427 50.6022,-19.7695"/>
<polygon fill="#9a32cd" stroke="#9a32cd" points="24.5827,-100.796 26.6052,-111.196 31.5097,-101.805 24.5827,-100.796"/>
<text text-anchor="middle" x="53.5" y="-79.5" font-family="Helvetica,sans-Serif" font-size="10.00"> bm_</text>
<text text-anchor="middle" x="53.5" y="-68.5" font-family="Helvetica,sans-Serif" font-size="10.00">lm_</text>
<text text-anchor="middle" x="53.5" y="-57.5" font-family="Helvetica,sans-Serif" font-size="10.00">rm_</text>
<text text-anchor="middle" x="53.5" y="-46.5" font-family="Helvetica,sans-Serif" font-size="10.00">tm_</text>
</g>
<!-- Node3 -->
<g id="node3" class="node"><title>Node3</title>
<g id="a_node3"><a xlink:title=" ">
<polygon fill="white" stroke="#bfbfbf" points="69,-111.5 69,-130.5 104,-130.5 104,-111.5 69,-111.5"/>
<text text-anchor="middle" x="86.5" y="-118.5" font-family="Helvetica,sans-Serif" font-size="10.00">bool</text>
</a>
</g>
</g>
<!-- Node3&#45;&gt;Node1 -->
<g id="edge2" class="edge"><title>Node3&#45;&gt;Node1</title>
<path fill="none" stroke="#9a32cd" stroke-dasharray="5,2" d="M81.8129,-101.266C77.5595,-84.587 70.9799,-59.5621 64.5,-38 62.6798,-31.943 60.4298,-25.193 58.6348,-19.9573"/>
<polygon fill="#9a32cd" stroke="#9a32cd" points="78.5135,-102.496 84.356,-111.334 85.3004,-100.781 78.5135,-102.496"/>
<text text-anchor="middle" x="106" y="-85" font-family="Helvetica,sans-Serif" font-size="10.00"> clientedge_</text>
<text text-anchor="middle" x="106" y="-74" font-family="Helvetica,sans-Serif" font-size="10.00">hscroll_</text>
<text text-anchor="middle" x="106" y="-63" font-family="Helvetica,sans-Serif" font-size="10.00">multiline_</text>
<text text-anchor="middle" x="106" y="-52" font-family="Helvetica,sans-Serif" font-size="10.00">readOnly_</text>
<text text-anchor="middle" x="106" y="-41" font-family="Helvetica,sans-Serif" font-size="10.00">vscroll_</text>
</g>
</g>
</svg>
