<?xml version="1.0" encoding="UTF-8" standalone="no"?>
<!DOCTYPE svg PUBLIC "-//W3C//DTD SVG 1.1//EN"
 "http://www.w3.org/Graphics/SVG/1.1/DTD/svg11.dtd">
<!-- Generated by graphviz version 2.38.0 (20140413.2041)
 -->
<!-- Title: ThreadPtr Pages: 1 -->
<!--zoomable 246 -->
<svg id="main" version="1.1" xmlns="http://www.w3.org/2000/svg" xmlns:xlink="http://www.w3.org/1999/xlink" xml:space="preserve" onload="init(evt)">
<style type="text/css"><![CDATA[
.edge:hover path { stroke: red; }
.edge:hover polygon { stroke: red; fill: red; }
]]></style>
<script type="text/javascript"><![CDATA[
var edges = document.getElementsByTagName('g');
if (edges && edges.length) {
  for (var i=0;i<edges.length;i++) {
    if (edges[i].id.substr(0,4)=='edge') {
      edges[i].setAttribute('class','edge');
    }
  }
}
]]></script>
        <defs>
                <circle id="rim" cx="0" cy="0" r="7"/>
                <circle id="rim2" cx="0" cy="0" r="3.5"/>
                <g id="zoomPlus">
                        <use xlink:href="#rim" fill="#404040">
                                <set attributeName="fill" to="#808080" begin="zoomplus.mouseover" end="zoomplus.mouseout"/>
                        </use>
                        <path d="M-4,0h8M0,-4v8" fill="none" stroke="white" stroke-width="1.5" pointer-events="none"/>
                </g>
                <g id="zoomMin">
                        <use xlink:href="#rim" fill="#404040">
                                <set attributeName="fill" to="#808080" begin="zoomminus.mouseover" end="zoomminus.mouseout"/>
                        </use>
                        <path d="M-4,0h8" fill="none" stroke="white" stroke-width="1.5" pointer-events="none"/>
                </g>
                <g id="dirArrow">
                        <path fill="none" stroke="white" stroke-width="1.5" d="M0,-3.0v7 M-2.5,-0.5L0,-3.0L2.5,-0.5"/>
                </g>
               <g id="resetDef">
                       <use xlink:href="#rim2" fill="#404040">
                               <set attributeName="fill" to="#808080" begin="reset.mouseover" end="reset.mouseout"/>
                       </use>
               </g>
        </defs>

<script type="text/javascript">
var viewWidth = 562;
var viewHeight = 246;
var sectionId = 'dynsection-0';
</script>
<script xlink:href="svgpan.js"/>
<svg id="graph" class="graph">
<g id="viewport">
<title>ThreadPtr</title>
<polygon fill="white" stroke="none" points="-4,4 -4,-241.5 558,-241.5 558,4 -4,4"/>
<!-- Node1 -->
<g id="node1" class="node"><title>Node1</title>
<g id="a_node1"><a xlink:title=" ">
<polygon fill="#bfbfbf" stroke="black" points="495,-105.5 495,-124.5 554,-124.5 554,-105.5 495,-105.5"/>
<text text-anchor="middle" x="524.5" y="-112.5" font-family="Helvetica,sans-Serif" font-size="10.00">ThreadPtr</text>
</a>
</g>
</g>
<!-- Node2 -->
<g id="node2" class="node"><title>Node2</title>
<g id="a_node2"><a xlink:href="class_thread.html" target="_top" xlink:title="This class represents a thread in the system.">
<polygon fill="white" stroke="black" points="393,-105.5 393,-124.5 439,-124.5 439,-105.5 393,-105.5"/>
<text text-anchor="middle" x="416" y="-112.5" font-family="Helvetica,sans-Serif" font-size="10.00">Thread</text>
</a>
</g>
</g>
<!-- Node2&#45;&gt;Node1 -->
<g id="edge1" class="edge"><title>Node2&#45;&gt;Node1</title>
<path fill="none" stroke="#9a32cd" stroke-dasharray="5,2" d="M449.165,-115C463.753,-115 480.858,-115 494.98,-115"/>
<polygon fill="#9a32cd" stroke="#9a32cd" points="449.067,-111.5 439.067,-115 449.067,-118.5 449.067,-111.5"/>
<text text-anchor="middle" x="467" y="-118" font-family="Helvetica,sans-Serif" font-size="10.00"> ptr_</text>
</g>
<!-- Node3 -->
<g id="node3" class="node"><title>Node3</title>
<g id="a_node3"><a xlink:title=" ">
<polygon fill="white" stroke="#bfbfbf" points="197,-207 197,-237 306,-237 306,-207 197,-207"/>
<text text-anchor="start" x="205" y="-225" font-family="Helvetica,sans-Serif" font-size="10.00">std::enable_shared</text>
<text text-anchor="middle" x="251.5" y="-214" font-family="Helvetica,sans-Serif" font-size="10.00">_from_this&lt; Thread &gt;</text>
</a>
</g>
</g>
<!-- Node3&#45;&gt;Node2 -->
<g id="edge2" class="edge"><title>Node3&#45;&gt;Node2</title>
<path fill="none" stroke="midnightblue" d="M315.579,-206.766C335.986,-199.73 357.773,-189.784 375,-176 392.601,-161.917 405.064,-137.927 411.025,-124.616"/>
<polygon fill="midnightblue" stroke="midnightblue" points="314.428,-203.46 306.01,-209.894 316.603,-210.113 314.428,-203.46"/>
</g>
<!-- Node4 -->
<g id="node4" class="node"><title>Node4</title>
<g id="a_node4"><a xlink:href="struct_property_r.html" target="_top" xlink:title=" ">
<polygon fill="white" stroke="black" points="200.5,-168.5 200.5,-187.5 302.5,-187.5 302.5,-168.5 200.5,-168.5"/>
<text text-anchor="middle" x="251.5" y="-175.5" font-family="Helvetica,sans-Serif" font-size="10.00">PropertyR&lt; string &gt;</text>
</a>
</g>
</g>
<!-- Node4&#45;&gt;Node2 -->
<g id="edge3" class="edge"><title>Node4&#45;&gt;Node2</title>
<path fill="none" stroke="#9a32cd" stroke-dasharray="5,2" d="M309.326,-165.962C330.509,-160.4 354.4,-152.812 375,-143 385.255,-138.115 395.734,-130.673 403.392,-124.688"/>
<polygon fill="#9a32cd" stroke="#9a32cd" points="308.324,-162.606 299.489,-168.454 310.042,-169.391 308.324,-162.606"/>
<text text-anchor="middle" x="352" y="-164" font-family="Helvetica,sans-Serif" font-size="10.00"> Name</text>
</g>
<!-- Node5 -->
<g id="node5" class="node"><title>Node5</title>
<g id="a_node5"><a xlink:title=" ">
<polygon fill="white" stroke="#bfbfbf" points="5,-171.5 5,-190.5 117,-190.5 117,-171.5 5,-171.5"/>
<text text-anchor="middle" x="61" y="-178.5" font-family="Helvetica,sans-Serif" font-size="10.00">function&lt; string(void)&gt;</text>
</a>
</g>
</g>
<!-- Node5&#45;&gt;Node4 -->
<g id="edge4" class="edge"><title>Node5&#45;&gt;Node4</title>
<path fill="none" stroke="#9a32cd" stroke-dasharray="5,2" d="M127.102,-179.964C151.053,-179.583 177.789,-179.157 200.235,-178.8"/>
<polygon fill="#9a32cd" stroke="#9a32cd" points="126.972,-176.465 117.029,-180.124 127.083,-183.465 126.972,-176.465"/>
<text text-anchor="middle" x="157" y="-183" font-family="Helvetica,sans-Serif" font-size="10.00"> getter_</text>
</g>
<!-- Node6 -->
<g id="node6" class="node"><title>Node6</title>
<g id="a_node6"><a xlink:href="struct_thread_1_1_thread_manager.html" target="_top" xlink:title=" ">
<polygon fill="white" stroke="black" points="192,-130.5 192,-149.5 311,-149.5 311,-130.5 192,-130.5"/>
<text text-anchor="middle" x="251.5" y="-137.5" font-family="Helvetica,sans-Serif" font-size="10.00">Thread::ThreadManager</text>
</a>
</g>
</g>
<!-- Node6&#45;&gt;Node2 -->
<g id="edge5" class="edge"><title>Node6&#45;&gt;Node2</title>
<path fill="none" stroke="#9a32cd" stroke-dasharray="5,2" d="M321.278,-129.419C346.956,-125.468 374.338,-121.256 392.831,-118.411"/>
<polygon fill="#9a32cd" stroke="#9a32cd" points="320.518,-125.994 311.166,-130.974 321.582,-132.913 320.518,-125.994"/>
<text text-anchor="middle" x="352" y="-131" font-family="Helvetica,sans-Serif" font-size="10.00"> Manager</text>
</g>
<!-- Node7 -->
<g id="node7" class="node"><title>Node7</title>
<g id="a_node7"><a xlink:title=" ">
<polygon fill="white" stroke="#bfbfbf" points="0,-122 0,-152 122,-152 122,-122 0,-122"/>
<text text-anchor="start" x="8" y="-140" font-family="Helvetica,sans-Serif" font-size="10.00">unique_ptr&lt; Thread</text>
<text text-anchor="middle" x="61" y="-129" font-family="Helvetica,sans-Serif" font-size="10.00">::ThreadManager::Impl &gt;</text>
</a>
</g>
</g>
<!-- Node7&#45;&gt;Node6 -->
<g id="edge6" class="edge"><title>Node7&#45;&gt;Node6</title>
<path fill="none" stroke="#9a32cd" stroke-dasharray="5,2" d="M132.268,-138.118C151.891,-138.431 173.001,-138.767 191.876,-139.067"/>
<polygon fill="#9a32cd" stroke="#9a32cd" points="132.215,-134.617 122.161,-137.957 132.104,-141.616 132.215,-134.617"/>
<text text-anchor="middle" x="157" y="-142" font-family="Helvetica,sans-Serif" font-size="10.00"> pImpl_</text>
</g>
<!-- Node8 -->
<g id="node8" class="node"><title>Node8</title>
<g id="a_node8"><a xlink:title=" ">
<polygon fill="white" stroke="#bfbfbf" points="201.5,-81 201.5,-111 301.5,-111 301.5,-81 201.5,-81"/>
<text text-anchor="start" x="209.5" y="-99" font-family="Helvetica,sans-Serif" font-size="10.00">unique_ptr&lt; Thread</text>
<text text-anchor="middle" x="251.5" y="-88" font-family="Helvetica,sans-Serif" font-size="10.00">::Impl &gt;</text>
</a>
</g>
</g>
<!-- Node8&#45;&gt;Node2 -->
<g id="edge7" class="edge"><title>Node8&#45;&gt;Node2</title>
<path fill="none" stroke="#9a32cd" stroke-dasharray="5,2" d="M311.731,-95.7399C331.935,-96.4863 354.576,-98.25 375,-102 380.889,-103.081 387.11,-104.804 392.845,-106.646"/>
<polygon fill="#9a32cd" stroke="#9a32cd" points="311.821,-92.2411 301.722,-95.444 311.614,-99.2381 311.821,-92.2411"/>
<text text-anchor="middle" x="352" y="-105" font-family="Helvetica,sans-Serif" font-size="10.00"> pImpl_</text>
</g>
<!-- Node9 -->
<g id="node9" class="node"><title>Node9</title>
<g id="a_node9"><a xlink:href="struct_property_r.html" target="_top" xlink:title=" ">
<polygon fill="white" stroke="black" points="194,-42.5 194,-61.5 309,-61.5 309,-42.5 194,-42.5"/>
<text text-anchor="middle" x="251.5" y="-49.5" font-family="Helvetica,sans-Serif" font-size="10.00">PropertyR&lt; ThreadId &gt;</text>
</a>
</g>
</g>
<!-- Node9&#45;&gt;Node2 -->
<g id="edge8" class="edge"><title>Node9&#45;&gt;Node2</title>
<path fill="none" stroke="#9a32cd" stroke-dasharray="5,2" d="M319.176,-62.6156C337.85,-67.0928 357.747,-73.3445 375,-82 386.748,-87.8939 398.107,-97.7985 405.698,-105.222"/>
<polygon fill="#9a32cd" stroke="#9a32cd" points="319.774,-59.1626 309.248,-60.3699 318.229,-65.9901 319.774,-59.1626"/>
<text text-anchor="middle" x="352" y="-85" font-family="Helvetica,sans-Serif" font-size="10.00"> Id</text>
</g>
<!-- Node10 -->
<g id="node10" class="node"><title>Node10</title>
<g id="a_node10"><a xlink:title=" ">
<polygon fill="white" stroke="#bfbfbf" points="13,-39 13,-69 109,-69 109,-39 13,-39"/>
<text text-anchor="start" x="21" y="-57" font-family="Helvetica,sans-Serif" font-size="10.00">function&lt; ThreadId</text>
<text text-anchor="middle" x="61" y="-46" font-family="Helvetica,sans-Serif" font-size="10.00">(void)&gt;</text>
</a>
</g>
</g>
<!-- Node10&#45;&gt;Node9 -->
<g id="edge9" class="edge"><title>Node10&#45;&gt;Node9</title>
<path fill="none" stroke="#9a32cd" stroke-dasharray="5,2" d="M119.324,-53.3918C142.998,-53.1406 170.364,-52.8503 193.956,-52.5999"/>
<polygon fill="#9a32cd" stroke="#9a32cd" points="119.043,-49.8945 109.08,-53.5005 119.117,-56.8941 119.043,-49.8945"/>
<text text-anchor="middle" x="157" y="-57" font-family="Helvetica,sans-Serif" font-size="10.00"> getter_</text>
</g>
<!-- Node11 -->
<g id="node11" class="node"><title>Node11</title>
<g id="a_node11"><a xlink:href="struct_property_r.html" target="_top" xlink:title=" ">
<polygon fill="white" stroke="black" points="203.5,-3.5 203.5,-22.5 299.5,-22.5 299.5,-3.5 203.5,-3.5"/>
<text text-anchor="middle" x="251.5" y="-10.5" font-family="Helvetica,sans-Serif" font-size="10.00">PropertyR&lt; bool &gt;</text>
</a>
</g>
</g>
<!-- Node11&#45;&gt;Node2 -->
<g id="edge10" class="edge"><title>Node11&#45;&gt;Node2</title>
<path fill="none" stroke="#9a32cd" stroke-dasharray="5,2" d="M309.759,-15.4723C331.943,-18.8785 356.417,-25.9055 375,-40 397.104,-56.7652 408.315,-89.3545 412.711,-105.485"/>
<polygon fill="#9a32cd" stroke="#9a32cd" points="310.129,-11.9909 299.757,-14.1497 309.212,-18.9305 310.129,-11.9909"/>
<text text-anchor="middle" x="352" y="-54" font-family="Helvetica,sans-Serif" font-size="10.00"> IsRunning</text>
<text text-anchor="middle" x="352" y="-43" font-family="Helvetica,sans-Serif" font-size="10.00">IsStopped</text>
</g>
<!-- Node12 -->
<g id="node12" class="node"><title>Node12</title>
<g id="a_node12"><a xlink:title=" ">
<polygon fill="white" stroke="#bfbfbf" points="8,-0.5 8,-19.5 114,-19.5 114,-0.5 8,-0.5"/>
<text text-anchor="middle" x="61" y="-7.5" font-family="Helvetica,sans-Serif" font-size="10.00">function&lt; bool(void)&gt;</text>
</a>
</g>
</g>
<!-- Node12&#45;&gt;Node11 -->
<g id="edge11" class="edge"><title>Node12&#45;&gt;Node11</title>
<path fill="none" stroke="#9a32cd" stroke-dasharray="5,2" d="M124.09,-10.9882C149.951,-11.3998 179.482,-11.8697 203.495,-12.2519"/>
<polygon fill="#9a32cd" stroke="#9a32cd" points="124.062,-7.48738 114.007,-10.8277 123.95,-14.4865 124.062,-7.48738"/>
<text text-anchor="middle" x="157" y="-15" font-family="Helvetica,sans-Serif" font-size="10.00"> getter_</text>
</g>
</g>
</svg>
        <g id="navigator" transform="translate(0 0)" fill="#404254">
                <rect fill="#f2f5e9" fill-opacity="0.5" stroke="#606060" stroke-width=".5" x="0" y="0" width="60" height="60"/>
                <use id="zoomplus" xlink:href="#zoomPlus" x="17" y="9" onmousedown="handleZoom(evt,'in')"/>
                <use id="zoomminus" xlink:href="#zoomMin" x="42" y="9" onmousedown="handleZoom(evt,'out')"/>
                <use id="reset" xlink:href="#resetDef" x="30" y="36" onmousedown="handleReset()"/>
                <g id="arrowUp" xlink:href="#dirArrow" transform="translate(30 24)" onmousedown="handlePan(0,-1)">
                  <use xlink:href="#rim" fill="#404040">
                        <set attributeName="fill" to="#808080" begin="arrowUp.mouseover" end="arrowUp.mouseout"/>
                  </use>
                  <path fill="none" stroke="white" stroke-width="1.5" d="M0,-3.0v7 M-2.5,-0.5L0,-3.0L2.5,-0.5"/>
                </g>
                <g id="arrowRight" xlink:href="#dirArrow" transform="rotate(90) translate(36 -43)" onmousedown="handlePan(1,0)">
                  <use xlink:href="#rim" fill="#404040">
                        <set attributeName="fill" to="#808080" begin="arrowRight.mouseover" end="arrowRight.mouseout"/>
                  </use>
                  <path fill="none" stroke="white" stroke-width="1.5" d="M0,-3.0v7 M-2.5,-0.5L0,-3.0L2.5,-0.5"/>
                </g>
                <g id="arrowDown" xlink:href="#dirArrow" transform="rotate(180) translate(-30 -48)" onmousedown="handlePan(0,1)">
                  <use xlink:href="#rim" fill="#404040">
                        <set attributeName="fill" to="#808080" begin="arrowDown.mouseover" end="arrowDown.mouseout"/>
                  </use>
                  <path fill="none" stroke="white" stroke-width="1.5" d="M0,-3.0v7 M-2.5,-0.5L0,-3.0L2.5,-0.5"/>
                </g>
                <g id="arrowLeft" xlink:href="#dirArrow" transform="rotate(270) translate(-36 17)" onmousedown="handlePan(-1,0)">
                  <use xlink:href="#rim" fill="#404040">
                        <set attributeName="fill" to="#808080" begin="arrowLeft.mouseover" end="arrowLeft.mouseout"/>
                  </use>
                  <path fill="none" stroke="white" stroke-width="1.5" d="M0,-3.0v7 M-2.5,-0.5L0,-3.0L2.5,-0.5"/>
                </g>
        </g>
        <svg viewBox="0 0 15 15" width="100%" height="30px" preserveAspectRatio="xMaxYMin meet">
         <g id="arrow_out" transform="scale(0.3 0.3)">
          <a xlink:href="struct_thread_ptr__coll__graph_org.svg" target="_base">
           <rect id="button" ry="5" rx="5" y="6" x="6" height="38" width="38"
                fill="#f2f5e9" fill-opacity="0.5" stroke="#606060" stroke-width="1.0"/>
           <path id="arrow"
             d="M 11.500037,31.436501 C 11.940474,20.09759 22.043105,11.32322 32.158766,21.979434 L 37.068811,17.246167 C 37.068811,17.246167 37.088388,32 37.088388,32 L 22.160133,31.978069 C 22.160133,31.978069 26.997745,27.140456 26.997745,27.140456 C 18.528582,18.264221 13.291696,25.230495 11.500037,31.436501 z"
             style="fill:#404040;"/>
          </a>
         </g>
        </svg>
</svg>
