<?xml version="1.0" encoding="UTF-8" standalone="no"?>
<!DOCTYPE svg PUBLIC "-//W3C//DTD SVG 1.1//EN"
 "http://www.w3.org/Graphics/SVG/1.1/DTD/svg11.dtd">
<!-- Generated by graphviz version 2.38.0 (20140413.2041)
 -->
<!-- Title: Progress::Impl Pages: 1 -->
<svg width="1042pt" height="304pt"
 viewBox="0.00 0.00 1042.00 304.00" xmlns="http://www.w3.org/2000/svg" xmlns:xlink="http://www.w3.org/1999/xlink">
<g id="graph0" class="graph" transform="scale(1 1) rotate(0) translate(4 300)">
<title>Progress::Impl</title>
<polygon fill="white" stroke="none" points="-4,4 -4,-300 1038,-300 1038,4 -4,4"/>
<!-- Node1 -->
<g id="node1" class="node"><title>Node1</title>
<g id="a_node1"><a xlink:title=" ">
<polygon fill="#bfbfbf" stroke="black" points="954,-49 954,-68 1034,-68 1034,-49 954,-49"/>
<text text-anchor="middle" x="994" y="-56" font-family="Helvetica,sans-Serif" font-size="10.00">Progress::Impl</text>
</a>
</g>
</g>
<!-- Node2 -->
<g id="node2" class="node"><title>Node2</title>
<g id="a_node2"><a xlink:href="class_progress.html" target="_top" xlink:title=" ">
<polygon fill="white" stroke="black" points="807,-83 807,-102 863,-102 863,-83 807,-83"/>
<text text-anchor="middle" x="835" y="-90" font-family="Helvetica,sans-Serif" font-size="10.00">Progress</text>
</a>
</g>
</g>
<!-- Node2&#45;&gt;Node1 -->
<g id="edge1" class="edge"><title>Node2&#45;&gt;Node1</title>
<path fill="none" stroke="#9a32cd" stroke-dasharray="5,2" d="M873.271,-84.4285C897.577,-79.1649 929.245,-72.3067 953.907,-66.9659"/>
<polygon fill="#9a32cd" stroke="#9a32cd" points="872.38,-81.0403 863.347,-86.5777 873.862,-87.8817 872.38,-81.0403"/>
<text text-anchor="middle" x="908.5" y="-85.5" font-family="Helvetica,sans-Serif" font-size="10.00"> control_</text>
</g>
<!-- Node3 -->
<g id="node3" class="node"><title>Node3</title>
<g id="a_node3"><a xlink:href="class_control.html" target="_top" xlink:title=" ">
<polygon fill="white" stroke="black" points="627.5,-186 627.5,-205 674.5,-205 674.5,-186 627.5,-186"/>
<text text-anchor="middle" x="651" y="-193" font-family="Helvetica,sans-Serif" font-size="10.00">Control</text>
</a>
</g>
</g>
<!-- Node3&#45;&gt;Node2 -->
<g id="edge2" class="edge"><title>Node3&#45;&gt;Node2</title>
<path fill="none" stroke="midnightblue" d="M684.176,-182.598C712.693,-170.566 754.969,-151.243 789,-129.5 801.785,-121.332 815.037,-110.033 823.819,-102.076"/>
<polygon fill="midnightblue" stroke="midnightblue" points="682.586,-179.469 674.699,-186.542 685.276,-185.932 682.586,-179.469"/>
</g>
<!-- Node4 -->
<g id="node4" class="node"><title>Node4</title>
<g id="a_node4"><a xlink:title=" ">
<polygon fill="white" stroke="#bfbfbf" points="392.5,-265.5 392.5,-295.5 493.5,-295.5 493.5,-265.5 392.5,-265.5"/>
<text text-anchor="start" x="400.5" y="-283.5" font-family="Helvetica,sans-Serif" font-size="10.00">unique_ptr&lt; Control</text>
<text text-anchor="middle" x="443" y="-272.5" font-family="Helvetica,sans-Serif" font-size="10.00">::Impl &gt;</text>
</a>
</g>
</g>
<!-- Node4&#45;&gt;Node3 -->
<g id="edge3" class="edge"><title>Node4&#45;&gt;Node3</title>
<path fill="none" stroke="#9a32cd" stroke-dasharray="5,2" d="M497.171,-261.95C517.872,-254.439 541.696,-245.439 563,-236.5 586.711,-226.551 613.378,-213.735 630.864,-205.102"/>
<polygon fill="#9a32cd" stroke="#9a32cd" points="495.814,-258.718 487.592,-265.4 498.187,-265.304 495.814,-258.718"/>
<text text-anchor="middle" x="542.5" y="-255.5" font-family="Helvetica,sans-Serif" font-size="10.00"> pImpl_</text>
</g>
<!-- Node5 -->
<g id="node5" class="node"><title>Node5</title>
<g id="a_node5"><a xlink:href="struct_property_r_w.html" target="_top" xlink:title=" ">
<polygon fill="white" stroke="black" points="384,-227 384,-246 502,-246 502,-227 384,-227"/>
<text text-anchor="middle" x="443" y="-234" font-family="Helvetica,sans-Serif" font-size="10.00">PropertyRW&lt; HWND &gt;</text>
</a>
</g>
</g>
<!-- Node5&#45;&gt;Node3 -->
<g id="edge4" class="edge"><title>Node5&#45;&gt;Node3</title>
<path fill="none" stroke="#9a32cd" stroke-dasharray="5,2" d="M501.821,-224.992C543.519,-216.693 597.538,-205.941 627.488,-199.98"/>
<polygon fill="#9a32cd" stroke="#9a32cd" points="500.903,-221.606 491.778,-226.991 502.269,-228.471 500.903,-221.606"/>
<text text-anchor="middle" x="542.5" y="-224.5" font-family="Helvetica,sans-Serif" font-size="10.00"> hWnd</text>
</g>
<!-- Node6 -->
<g id="node6" class="node"><title>Node6</title>
<g id="a_node6"><a xlink:href="struct_property_r.html" target="_top" xlink:title=" ">
<polygon fill="white" stroke="black" points="196,-275 196,-294 304,-294 304,-275 196,-275"/>
<text text-anchor="middle" x="250" y="-282" font-family="Helvetica,sans-Serif" font-size="10.00">PropertyR&lt; HWND &gt;</text>
</a>
</g>
</g>
<!-- Node6&#45;&gt;Node5 -->
<g id="edge5" class="edge"><title>Node6&#45;&gt;Node5</title>
<path fill="none" stroke="midnightblue" d="M298.927,-272.456C331.389,-264.297 373.702,-253.664 403.874,-246.082"/>
<polygon fill="midnightblue" stroke="midnightblue" points="298.038,-269.07 289.193,-274.902 299.744,-275.859 298.038,-269.07"/>
</g>
<!-- Node7 -->
<g id="node7" class="node"><title>Node7</title>
<g id="a_node7"><a xlink:title=" ">
<polygon fill="white" stroke="#bfbfbf" points="0,-275 0,-294 118,-294 118,-275 0,-275"/>
<text text-anchor="middle" x="59" y="-282" font-family="Helvetica,sans-Serif" font-size="10.00">function&lt; HWND(void)&gt;</text>
</a>
</g>
</g>
<!-- Node7&#45;&gt;Node6 -->
<g id="edge6" class="edge"><title>Node7&#45;&gt;Node6</title>
<path fill="none" stroke="#9a32cd" stroke-dasharray="5,2" d="M128.288,-284.5C150.505,-284.5 174.819,-284.5 195.767,-284.5"/>
<polygon fill="#9a32cd" stroke="#9a32cd" points="128.248,-281 118.248,-284.5 128.248,-288 128.248,-281"/>
<text text-anchor="middle" x="153" y="-287.5" font-family="Helvetica,sans-Serif" font-size="10.00"> getter_</text>
</g>
<!-- Node8 -->
<g id="node8" class="node"><title>Node8</title>
<g id="a_node8"><a xlink:title=" ">
<polygon fill="white" stroke="#bfbfbf" points="195.5,-225.5 195.5,-255.5 304.5,-255.5 304.5,-225.5 195.5,-225.5"/>
<text text-anchor="start" x="203.5" y="-243.5" font-family="Helvetica,sans-Serif" font-size="10.00">function&lt; void(HWND</text>
<text text-anchor="middle" x="250" y="-232.5" font-family="Helvetica,sans-Serif" font-size="10.00"> newValue)&gt;</text>
</a>
</g>
</g>
<!-- Node8&#45;&gt;Node5 -->
<g id="edge7" class="edge"><title>Node8&#45;&gt;Node5</title>
<path fill="none" stroke="#9a32cd" stroke-dasharray="5,2" d="M314.74,-239.165C337.006,-238.699 361.872,-238.178 383.675,-237.721"/>
<polygon fill="#9a32cd" stroke="#9a32cd" points="314.637,-235.666 304.712,-239.375 314.784,-242.665 314.637,-235.666"/>
<text text-anchor="middle" x="347" y="-242.5" font-family="Helvetica,sans-Serif" font-size="10.00"> setter_</text>
</g>
<!-- Node9 -->
<g id="node9" class="node"><title>Node9</title>
<g id="a_node9"><a xlink:href="struct_property_r_w.html" target="_top" xlink:title=" ">
<polygon fill="white" stroke="black" points="387,-186 387,-205 499,-205 499,-186 387,-186"/>
<text text-anchor="middle" x="443" y="-193" font-family="Helvetica,sans-Serif" font-size="10.00">PropertyRW&lt; string &gt;</text>
</a>
</g>
</g>
<!-- Node9&#45;&gt;Node3 -->
<g id="edge8" class="edge"><title>Node9&#45;&gt;Node3</title>
<path fill="none" stroke="#9a32cd" stroke-dasharray="5,2" d="M509.267,-195.5C549.682,-195.5 599.09,-195.5 627.316,-195.5"/>
<polygon fill="#9a32cd" stroke="#9a32cd" points="509.204,-192 499.204,-195.5 509.204,-199 509.204,-192"/>
<text text-anchor="middle" x="542.5" y="-198.5" font-family="Helvetica,sans-Serif" font-size="10.00"> Caption</text>
</g>
<!-- Node10 -->
<g id="node10" class="node"><title>Node10</title>
<g id="a_node10"><a xlink:href="struct_property_r.html" target="_top" xlink:title=" ">
<polygon fill="white" stroke="black" points="199,-187 199,-206 301,-206 301,-187 199,-187"/>
<text text-anchor="middle" x="250" y="-194" font-family="Helvetica,sans-Serif" font-size="10.00">PropertyR&lt; string &gt;</text>
</a>
</g>
</g>
<!-- Node10&#45;&gt;Node9 -->
<g id="edge9" class="edge"><title>Node10&#45;&gt;Node9</title>
<path fill="none" stroke="midnightblue" d="M311.306,-196.184C335.476,-196.058 363.142,-195.913 386.779,-195.789"/>
<polygon fill="midnightblue" stroke="midnightblue" points="311.165,-192.685 301.183,-196.237 311.201,-199.685 311.165,-192.685"/>
</g>
<!-- Node11 -->
<g id="node11" class="node"><title>Node11</title>
<g id="a_node11"><a xlink:title=" ">
<polygon fill="white" stroke="#bfbfbf" points="3,-187 3,-206 115,-206 115,-187 3,-187"/>
<text text-anchor="middle" x="59" y="-194" font-family="Helvetica,sans-Serif" font-size="10.00">function&lt; string(void)&gt;</text>
</a>
</g>
</g>
<!-- Node11&#45;&gt;Node10 -->
<g id="edge10" class="edge"><title>Node11&#45;&gt;Node10</title>
<path fill="none" stroke="#9a32cd" stroke-dasharray="5,2" d="M125.317,-196.5C149.434,-196.5 176.363,-196.5 198.92,-196.5"/>
<polygon fill="#9a32cd" stroke="#9a32cd" points="125.175,-193 115.175,-196.5 125.175,-200 125.175,-193"/>
<text text-anchor="middle" x="153" y="-199.5" font-family="Helvetica,sans-Serif" font-size="10.00"> getter_</text>
</g>
<!-- Node12 -->
<g id="node12" class="node"><title>Node12</title>
<g id="a_node12"><a xlink:title=" ">
<polygon fill="white" stroke="#bfbfbf" points="198.5,-137.5 198.5,-167.5 301.5,-167.5 301.5,-137.5 198.5,-137.5"/>
<text text-anchor="start" x="206.5" y="-155.5" font-family="Helvetica,sans-Serif" font-size="10.00">function&lt; void(string</text>
<text text-anchor="middle" x="250" y="-144.5" font-family="Helvetica,sans-Serif" font-size="10.00"> newValue)&gt;</text>
</a>
</g>
</g>
<!-- Node12&#45;&gt;Node9 -->
<g id="edge11" class="edge"><title>Node12&#45;&gt;Node9</title>
<path fill="none" stroke="#9a32cd" stroke-dasharray="5,2" d="M311.577,-166.138C340.178,-172.577 373.626,-180.107 399.489,-185.929"/>
<polygon fill="#9a32cd" stroke="#9a32cd" points="312.208,-162.692 301.683,-163.91 310.67,-169.521 312.208,-162.692"/>
<text text-anchor="middle" x="347" y="-181.5" font-family="Helvetica,sans-Serif" font-size="10.00"> setter_</text>
</g>
<!-- Node13 -->
<g id="node13" class="node"><title>Node13</title>
<g id="a_node13"><a xlink:href="struct_control_1_1_control_manager.html" target="_top" xlink:title=" ">
<polygon fill="white" stroke="black" points="382,-117 382,-136 504,-136 504,-117 382,-117"/>
<text text-anchor="middle" x="443" y="-124" font-family="Helvetica,sans-Serif" font-size="10.00">Control::ControlManager</text>
</a>
</g>
</g>
<!-- Node13&#45;&gt;Node3 -->
<g id="edge12" class="edge"><title>Node13&#45;&gt;Node3</title>
<path fill="none" stroke="#9a32cd" stroke-dasharray="5,2" d="M482.386,-139.357C525,-153.631 592.367,-176.196 627.303,-187.898"/>
<polygon fill="#9a32cd" stroke="#9a32cd" points="483.237,-135.952 472.643,-136.094 481.014,-142.589 483.237,-135.952"/>
<text text-anchor="middle" x="542.5" y="-168.5" font-family="Helvetica,sans-Serif" font-size="10.00"> Manager</text>
</g>
<!-- Node15 -->
<g id="node15" class="node"><title>Node15</title>
<g id="a_node15"><a xlink:href="struct_control_1_1_control_manager_impl.html" target="_top" xlink:title=" ">
<polygon fill="white" stroke="black" points="581,-111.5 581,-141.5 721,-141.5 721,-111.5 581,-111.5"/>
<text text-anchor="start" x="589" y="-129.5" font-family="Helvetica,sans-Serif" font-size="10.00">Control::ControlManagerImpl</text>
<text text-anchor="middle" x="651" y="-118.5" font-family="Helvetica,sans-Serif" font-size="10.00">&lt; Progress &gt;</text>
</a>
</g>
</g>
<!-- Node13&#45;&gt;Node15 -->
<g id="edge15" class="edge"><title>Node13&#45;&gt;Node15</title>
<path fill="none" stroke="midnightblue" d="M514.171,-126.5C535.663,-126.5 559.285,-126.5 580.718,-126.5"/>
<polygon fill="midnightblue" stroke="midnightblue" points="514.138,-123 504.138,-126.5 514.137,-130 514.138,-123"/>
</g>
<!-- Node14 -->
<g id="node14" class="node"><title>Node14</title>
<g id="a_node14"><a xlink:title=" ">
<polygon fill="white" stroke="#bfbfbf" points="188,-88.5 188,-118.5 312,-118.5 312,-88.5 188,-88.5"/>
<text text-anchor="start" x="196" y="-106.5" font-family="Helvetica,sans-Serif" font-size="10.00">unique_ptr&lt; Control</text>
<text text-anchor="middle" x="250" y="-95.5" font-family="Helvetica,sans-Serif" font-size="10.00">::ControlManager::Impl &gt;</text>
</a>
</g>
</g>
<!-- Node14&#45;&gt;Node13 -->
<g id="edge13" class="edge"><title>Node14&#45;&gt;Node13</title>
<path fill="none" stroke="#9a32cd" stroke-dasharray="5,2" d="M322.304,-112.086C341.875,-114.443 362.896,-116.974 381.777,-119.248"/>
<polygon fill="#9a32cd" stroke="#9a32cd" points="322.568,-108.593 312.222,-110.872 321.732,-115.543 322.568,-108.593"/>
<text text-anchor="middle" x="347" y="-120.5" font-family="Helvetica,sans-Serif" font-size="10.00"> pImpl_</text>
</g>
<!-- Node15&#45;&gt;Node2 -->
<g id="edge14" class="edge"><title>Node15&#45;&gt;Node2</title>
<path fill="none" stroke="#9a32cd" stroke-dasharray="5,2" d="M731.34,-115.159C750.301,-112.063 770.427,-108.457 789,-104.5 794.852,-103.253 801.081,-101.725 806.98,-100.181"/>
<polygon fill="#9a32cd" stroke="#9a32cd" points="730.566,-111.739 721.246,-116.778 731.674,-118.651 730.566,-111.739"/>
<text text-anchor="middle" x="764" y="-117.5" font-family="Helvetica,sans-Serif" font-size="10.00"> Manager</text>
</g>
<!-- Node16 -->
<g id="node16" class="node"><title>Node16</title>
<g id="a_node16"><a xlink:href="struct_property_r_w.html" target="_top" xlink:title=" ">
<polygon fill="white" stroke="black" points="592.5,-50 592.5,-69 709.5,-69 709.5,-50 592.5,-50"/>
<text text-anchor="middle" x="651" y="-57" font-family="Helvetica,sans-Serif" font-size="10.00">PropertyRW&lt; int16_t &gt;</text>
</a>
</g>
</g>
<!-- Node16&#45;&gt;Node2 -->
<g id="edge16" class="edge"><title>Node16&#45;&gt;Node2</title>
<path fill="none" stroke="#9a32cd" stroke-dasharray="5,2" d="M719.708,-51.9598C742.22,-51.5513 767.117,-53.4246 789,-60.5 802.682,-64.9239 815.78,-75.1499 824.281,-82.8598"/>
<polygon fill="#9a32cd" stroke="#9a32cd" points="719.43,-48.467 709.552,-52.2975 719.663,-55.4631 719.43,-48.467"/>
<text text-anchor="middle" x="764" y="-96.5" font-family="Helvetica,sans-Serif" font-size="10.00"> MaxRange</text>
<text text-anchor="middle" x="764" y="-85.5" font-family="Helvetica,sans-Serif" font-size="10.00">MinRange</text>
<text text-anchor="middle" x="764" y="-74.5" font-family="Helvetica,sans-Serif" font-size="10.00">Pos</text>
<text text-anchor="middle" x="764" y="-63.5" font-family="Helvetica,sans-Serif" font-size="10.00">Step</text>
</g>
<!-- Node17 -->
<g id="node17" class="node"><title>Node17</title>
<g id="a_node17"><a xlink:href="struct_property_r.html" target="_top" xlink:title=" ">
<polygon fill="white" stroke="black" points="389.5,-50 389.5,-69 496.5,-69 496.5,-50 389.5,-50"/>
<text text-anchor="middle" x="443" y="-57" font-family="Helvetica,sans-Serif" font-size="10.00">PropertyR&lt; int16_t &gt;</text>
</a>
</g>
</g>
<!-- Node17&#45;&gt;Node16 -->
<g id="edge17" class="edge"><title>Node17&#45;&gt;Node16</title>
<path fill="none" stroke="midnightblue" d="M506.698,-59.5C533.885,-59.5 565.521,-59.5 592.141,-59.5"/>
<polygon fill="midnightblue" stroke="midnightblue" points="506.516,-56.0001 496.516,-59.5 506.515,-63.0001 506.516,-56.0001"/>
</g>
<!-- Node18 -->
<g id="node18" class="node"><title>Node18</title>
<g id="a_node18"><a xlink:title=" ">
<polygon fill="white" stroke="#bfbfbf" points="191.5,-50 191.5,-69 308.5,-69 308.5,-50 191.5,-50"/>
<text text-anchor="middle" x="250" y="-57" font-family="Helvetica,sans-Serif" font-size="10.00">function&lt; int16_t(void)&gt;</text>
</a>
</g>
</g>
<!-- Node18&#45;&gt;Node17 -->
<g id="edge18" class="edge"><title>Node18&#45;&gt;Node17</title>
<path fill="none" stroke="#9a32cd" stroke-dasharray="5,2" d="M318.703,-59.5C341.94,-59.5 367.582,-59.5 389.436,-59.5"/>
<polygon fill="#9a32cd" stroke="#9a32cd" points="318.565,-56.0001 308.565,-59.5 318.565,-63.0001 318.565,-56.0001"/>
<text text-anchor="middle" x="347" y="-62.5" font-family="Helvetica,sans-Serif" font-size="10.00"> getter_</text>
</g>
<!-- Node19 -->
<g id="node19" class="node"><title>Node19</title>
<g id="a_node19"><a xlink:title=" ">
<polygon fill="white" stroke="#bfbfbf" points="393,-0.5 393,-30.5 493,-30.5 493,-0.5 393,-0.5"/>
<text text-anchor="start" x="401" y="-18.5" font-family="Helvetica,sans-Serif" font-size="10.00">function&lt; void(int16</text>
<text text-anchor="middle" x="443" y="-7.5" font-family="Helvetica,sans-Serif" font-size="10.00">_t newValue)&gt;</text>
</a>
</g>
</g>
<!-- Node19&#45;&gt;Node16 -->
<g id="edge19" class="edge"><title>Node19&#45;&gt;Node16</title>
<path fill="none" stroke="#9a32cd" stroke-dasharray="5,2" d="M502.958,-28.0929C535.598,-35.0647 575.509,-43.5892 605.51,-49.9972"/>
<polygon fill="#9a32cd" stroke="#9a32cd" points="503.591,-24.6493 493.08,-25.9832 502.129,-31.4949 503.591,-24.6493"/>
<text text-anchor="middle" x="542.5" y="-43.5" font-family="Helvetica,sans-Serif" font-size="10.00"> setter_</text>
</g>
<!-- Node20 -->
<g id="node20" class="node"><title>Node20</title>
<g id="a_node20"><a xlink:title=" ">
<polygon fill="white" stroke="#bfbfbf" points="596,-0.5 596,-30.5 706,-30.5 706,-0.5 596,-0.5"/>
<text text-anchor="start" x="604" y="-18.5" font-family="Helvetica,sans-Serif" font-size="10.00">unique_ptr&lt; Progress</text>
<text text-anchor="middle" x="651" y="-7.5" font-family="Helvetica,sans-Serif" font-size="10.00">::Impl &gt;</text>
</a>
</g>
</g>
<!-- Node20&#45;&gt;Node2 -->
<g id="edge20" class="edge"><title>Node20&#45;&gt;Node2</title>
<path fill="none" stroke="#9a32cd" stroke-dasharray="5,2" d="M716.184,-16.2993C740.315,-18.9669 767.168,-24.9374 789,-37.5 807.82,-48.3296 822.032,-70.2646 829.077,-82.9164"/>
<polygon fill="#9a32cd" stroke="#9a32cd" points="716.315,-12.7963 706.032,-15.3486 715.662,-19.7658 716.315,-12.7963"/>
<text text-anchor="middle" x="764" y="-40.5" font-family="Helvetica,sans-Serif" font-size="10.00"> pImpl_</text>
</g>
<!-- Node21 -->
<g id="node21" class="node"><title>Node21</title>
<g id="a_node21"><a xlink:title=" ">
<polygon fill="white" stroke="#bfbfbf" points="812,-16 812,-35 858,-35 858,-16 812,-16"/>
<text text-anchor="middle" x="835" y="-23" font-family="Helvetica,sans-Serif" font-size="10.00">int16_t</text>
</a>
</g>
</g>
<!-- Node21&#45;&gt;Node1 -->
<g id="edge21" class="edge"><title>Node21&#45;&gt;Node1</title>
<path fill="none" stroke="#9a32cd" stroke-dasharray="5,2" d="M868.349,-21.7994C888.203,-20.5107 913.96,-20.6185 936,-26.5 952.447,-30.8891 969.19,-41.121 980.235,-48.8419"/>
<polygon fill="#9a32cd" stroke="#9a32cd" points="867.962,-18.319 858.273,-22.6041 868.52,-25.2968 867.962,-18.319"/>
<text text-anchor="middle" x="908.5" y="-62.5" font-family="Helvetica,sans-Serif" font-size="10.00"> maxRange_</text>
<text text-anchor="middle" x="908.5" y="-51.5" font-family="Helvetica,sans-Serif" font-size="10.00">minRange_</text>
<text text-anchor="middle" x="908.5" y="-40.5" font-family="Helvetica,sans-Serif" font-size="10.00">pos_</text>
<text text-anchor="middle" x="908.5" y="-29.5" font-family="Helvetica,sans-Serif" font-size="10.00">step_</text>
</g>
</g>
</svg>
