<?xml version="1.0" encoding="UTF-8" standalone="no"?>
<!DOCTYPE svg PUBLIC "-//W3C//DTD SVG 1.1//EN"
 "http://www.w3.org/Graphics/SVG/1.1/DTD/svg11.dtd">
<!-- Generated by graphviz version 2.38.0 (20140413.2041)
 -->
<!-- Title: tagTHREADNAME_INFO Pages: 1 -->
<svg width="148pt" height="117pt"
 viewBox="0.00 0.00 148.00 117.00" xmlns="http://www.w3.org/2000/svg" xmlns:xlink="http://www.w3.org/1999/xlink">
<g id="graph0" class="graph" transform="scale(1 1) rotate(0) translate(4 113)">
<title>tagTHREADNAME_INFO</title>
<polygon fill="white" stroke="none" points="-4,4 -4,-113 144,-113 144,4 -4,4"/>
<!-- Node1 -->
<g id="node1" class="node"><title>Node1</title>
<g id="a_node1"><a xlink:title=" ">
<polygon fill="#bfbfbf" stroke="black" points="0.5,-0.5 0.5,-19.5 125.5,-19.5 125.5,-0.5 0.5,-0.5"/>
<text text-anchor="middle" x="63" y="-7.5" font-family="Helvetica,sans-Serif" font-size="10.00">tagTHREADNAME_INFO</text>
</a>
</g>
</g>
<!-- Node2 -->
<g id="node2" class="node"><title>Node2</title>
<g id="a_node2"><a xlink:title=" ">
<polygon fill="white" stroke="#bfbfbf" points="0,-89.5 0,-108.5 54,-108.5 54,-89.5 0,-89.5"/>
<text text-anchor="middle" x="27" y="-96.5" font-family="Helvetica,sans-Serif" font-size="10.00">LPCSTR</text>
</a>
</g>
</g>
<!-- Node2&#45;&gt;Node1 -->
<g id="edge1" class="edge"><title>Node2&#45;&gt;Node1</title>
<path fill="none" stroke="#9a32cd" stroke-dasharray="5,2" d="M27.2742,-79.3435C28.1199,-67.0301 30.5356,-50.8583 37,-38 40.5661,-30.9068 46.6381,-24.4423 52.0178,-19.6182"/>
<polygon fill="#9a32cd" stroke="#9a32cd" points="23.7761,-79.2277 26.8678,-89.3614 30.7704,-79.5115 23.7761,-79.2277"/>
<text text-anchor="middle" x="57" y="-52" font-family="Helvetica,sans-Serif" font-size="10.00"> szName</text>
</g>
<!-- Node3 -->
<g id="node3" class="node"><title>Node3</title>
<g id="a_node3"><a xlink:title=" ">
<polygon fill="white" stroke="#bfbfbf" points="72,-89.5 72,-108.5 126,-108.5 126,-89.5 72,-89.5"/>
<text text-anchor="middle" x="99" y="-96.5" font-family="Helvetica,sans-Serif" font-size="10.00">DWORD</text>
</a>
</g>
</g>
<!-- Node3&#45;&gt;Node1 -->
<g id="edge2" class="edge"><title>Node3&#45;&gt;Node1</title>
<path fill="none" stroke="#9a32cd" stroke-dasharray="5,2" d="M92.925,-79.5785C88.804,-67.5841 83.0264,-51.6819 77,-38 74.2756,-31.8148 70.7756,-25.0648 67.9567,-19.8611"/>
<polygon fill="#9a32cd" stroke="#9a32cd" points="89.6964,-80.9583 96.2035,-89.3194 96.3307,-78.7253 89.6964,-80.9583"/>
<text text-anchor="middle" x="114.5" y="-63" font-family="Helvetica,sans-Serif" font-size="10.00"> dwFlags</text>
<text text-anchor="middle" x="114.5" y="-52" font-family="Helvetica,sans-Serif" font-size="10.00">dwThreadID</text>
<text text-anchor="middle" x="114.5" y="-41" font-family="Helvetica,sans-Serif" font-size="10.00">dwType</text>
</g>
</g>
</svg>
