<?xml version="1.0" encoding="UTF-8" standalone="no"?>
<!DOCTYPE svg PUBLIC "-//W3C//DTD SVG 1.1//EN"
 "http://www.w3.org/Graphics/SVG/1.1/DTD/svg11.dtd">
<!-- Generated by graphviz version 2.38.0 (20140413.2041)
 -->
<!-- Title: Thread::Impl::standardLoop Pages: 1 -->
<svg width="545pt" height="104pt"
 viewBox="0.00 0.00 545.00 104.00" xmlns="http://www.w3.org/2000/svg" xmlns:xlink="http://www.w3.org/1999/xlink">
<g id="graph0" class="graph" transform="scale(1 1) rotate(0) translate(4 100)">
<title>Thread::Impl::standardLoop</title>
<polygon fill="white" stroke="none" points="-4,4 -4,-100 541,-100 541,4 -4,4"/>
<!-- Node1 -->
<g id="node1" class="node"><title>Node1</title>
<g id="a_node1"><a xlink:title="The normally used processing loop of a background thread.">
<polygon fill="#bfbfbf" stroke="black" points="0,-38.5 0,-57.5 134,-57.5 134,-38.5 0,-38.5"/>
<text text-anchor="middle" x="67" y="-45.5" font-family="Helvetica,sans-Serif" font-size="10.00">Thread::Impl::standardLoop</text>
</a>
</g>
</g>
<!-- Node2 -->
<g id="node2" class="node"><title>Node2</title>
<g id="a_node2"><a xlink:href="class_edit.html#a3ced1bcf14de542e25d512991bcfed2f" target="_top" xlink:title=" ">
<polygon fill="white" stroke="black" points="211.5,-76.5 211.5,-95.5 267.5,-95.5 267.5,-76.5 211.5,-76.5"/>
<text text-anchor="middle" x="239.5" y="-83.5" font-family="Helvetica,sans-Serif" font-size="10.00">Edit::add</text>
</a>
</g>
</g>
<!-- Node1&#45;&gt;Node2 -->
<g id="edge1" class="edge"><title>Node1&#45;&gt;Node2</title>
<path fill="none" stroke="midnightblue" d="M111.024,-57.589C138.893,-63.8002 174.817,-71.8066 201.422,-77.7363"/>
<polygon fill="midnightblue" stroke="midnightblue" points="200.962,-81.2195 211.484,-79.9788 202.485,-74.3872 200.962,-81.2195"/>
</g>
<!-- Node5 -->
<g id="node5" class="node"><title>Node5</title>
<g id="a_node5"><a xlink:href="struct_thread_1_1_impl.html#ae467f41841d4236274bf360f470ec775" target="_top" xlink:title="process the queue of functors, usually called form notify&#45;functor">
<polygon fill="white" stroke="black" points="170,-38.5 170,-57.5 309,-57.5 309,-38.5 170,-38.5"/>
<text text-anchor="middle" x="239.5" y="-45.5" font-family="Helvetica,sans-Serif" font-size="10.00">Thread::Impl::processQueue</text>
</a>
</g>
</g>
<!-- Node1&#45;&gt;Node5 -->
<g id="edge4" class="edge"><title>Node1&#45;&gt;Node5</title>
<path fill="none" stroke="midnightblue" d="M134.408,-48C142.651,-48 151.141,-48 159.549,-48"/>
<polygon fill="midnightblue" stroke="midnightblue" points="159.742,-51.5001 169.742,-48 159.742,-44.5001 159.742,-51.5001"/>
</g>
<!-- Node6 -->
<g id="node6" class="node"><title>Node6</title>
<g id="a_node6"><a xlink:href="_thread_8cpp.html#a1b6cdfcdd75b61856b37cf13deae9334" target="_top" xlink:title=" ">
<polygon fill="white" stroke="black" points="196.5,-0.5 196.5,-19.5 282.5,-19.5 282.5,-0.5 196.5,-0.5"/>
<text text-anchor="middle" x="239.5" y="-7.5" font-family="Helvetica,sans-Serif" font-size="10.00">SetThreadName</text>
</a>
</g>
</g>
<!-- Node1&#45;&gt;Node6 -->
<g id="edge5" class="edge"><title>Node1&#45;&gt;Node6</title>
<path fill="none" stroke="midnightblue" d="M111.024,-38.411C133.899,-33.3128 162.2,-27.0053 186.321,-21.6294"/>
<polygon fill="midnightblue" stroke="midnightblue" points="187.375,-24.9803 196.374,-19.3887 185.853,-18.1479 187.375,-24.9803"/>
</g>
<!-- Node3 -->
<g id="node3" class="node"><title>Node3</title>
<g id="a_node3"><a xlink:href="class_thread.html#adb11ad65376e640d84d47f0394f94f10" target="_top" xlink:title="The code that will be enqued in the threads task queue.">
<polygon fill="white" stroke="black" points="345,-76.5 345,-95.5 412,-95.5 412,-76.5 345,-76.5"/>
<text text-anchor="middle" x="378.5" y="-83.5" font-family="Helvetica,sans-Serif" font-size="10.00">Thread::call</text>
</a>
</g>
</g>
<!-- Node2&#45;&gt;Node3 -->
<g id="edge2" class="edge"><title>Node2&#45;&gt;Node3</title>
<path fill="none" stroke="midnightblue" d="M267.567,-86C286.685,-86 312.702,-86 334.626,-86"/>
<polygon fill="midnightblue" stroke="midnightblue" points="334.691,-89.5001 344.691,-86 334.69,-82.5001 334.691,-89.5001"/>
</g>
<!-- Node4 -->
<g id="node4" class="node"><title>Node4</title>
<g id="a_node4"><a xlink:href="class_thread.html#a1333a7179253857c1431b82e162272fd" target="_top" xlink:title=" ">
<polygon fill="white" stroke="black" points="448,-76.5 448,-95.5 537,-95.5 537,-76.5 448,-76.5"/>
<text text-anchor="middle" x="492.5" y="-83.5" font-family="Helvetica,sans-Serif" font-size="10.00">Thread::enqueue</text>
</a>
</g>
</g>
<!-- Node3&#45;&gt;Node4 -->
<g id="edge3" class="edge"><title>Node3&#45;&gt;Node4</title>
<path fill="none" stroke="midnightblue" d="M412.196,-86C420.178,-86 428.929,-86 437.612,-86"/>
<polygon fill="midnightblue" stroke="midnightblue" points="437.724,-89.5001 447.724,-86 437.724,-82.5001 437.724,-89.5001"/>
</g>
</g>
</svg>
