<?xml version="1.0" encoding="UTF-8" standalone="no"?>
<!DOCTYPE svg PUBLIC "-//W3C//DTD SVG 1.1//EN"
 "http://www.w3.org/Graphics/SVG/1.1/DTD/svg11.dtd">
<!-- Generated by graphviz version 2.38.0 (20140413.2041)
 -->
<!-- Title: Thread::ThreadManager::Impl::~Impl Pages: 1 -->
<svg width="248pt" height="104pt"
 viewBox="0.00 0.00 248.00 104.00" xmlns="http://www.w3.org/2000/svg" xmlns:xlink="http://www.w3.org/1999/xlink">
<g id="graph0" class="graph" transform="scale(1 1) rotate(0) translate(4 100)">
<title>Thread::ThreadManager::Impl::~Impl</title>
<polygon fill="white" stroke="none" points="-4,4 -4,-100 244,-100 244,4 -4,4"/>
<!-- Node1 -->
<g id="node1" class="node"><title>Node1</title>
<g id="a_node1"><a xlink:title="&gt;An helper construct to prevent the application from crashing on exit.">
<polygon fill="#bfbfbf" stroke="black" points="0,-33 0,-63 119,-63 119,-33 0,-33"/>
<text text-anchor="start" x="8" y="-51" font-family="Helvetica,sans-Serif" font-size="10.00">Thread::ThreadManager</text>
<text text-anchor="middle" x="59.5" y="-40" font-family="Helvetica,sans-Serif" font-size="10.00">::Impl::~Impl</text>
</a>
</g>
</g>
<!-- Node2 -->
<g id="node2" class="node"><title>Node2</title>
<g id="a_node2"><a xlink:href="class_thread.html#a4d9d788e98388a3217831a9046709deb" target="_top" xlink:title="Führt den Thread mit dem aktuellen zusammen.">
<polygon fill="white" stroke="black" points="164,-76.5 164,-95.5 231,-95.5 231,-76.5 164,-76.5"/>
<text text-anchor="middle" x="197.5" y="-83.5" font-family="Helvetica,sans-Serif" font-size="10.00">Thread::join</text>
</a>
</g>
</g>
<!-- Node1&#45;&gt;Node2 -->
<g id="edge1" class="edge"><title>Node1&#45;&gt;Node2</title>
<path fill="none" stroke="midnightblue" d="M114.251,-63.0186C127.491,-66.7181 141.486,-70.6284 154.104,-74.154"/>
<polygon fill="midnightblue" stroke="midnightblue" points="153.314,-77.5673 163.887,-76.8875 155.198,-70.8255 153.314,-77.5673"/>
</g>
<!-- Node3 -->
<g id="node3" class="node"><title>Node3</title>
<g id="a_node3"><a xlink:href="class_thread.html#acff52284ec491e188b12a04d087dad43" target="_top" xlink:title="Reports whether the thread can be merged or not.">
<polygon fill="white" stroke="black" points="155,-38.5 155,-57.5 240,-57.5 240,-38.5 155,-38.5"/>
<text text-anchor="middle" x="197.5" y="-45.5" font-family="Helvetica,sans-Serif" font-size="10.00">Thread::joinable</text>
</a>
</g>
</g>
<!-- Node1&#45;&gt;Node3 -->
<g id="edge2" class="edge"><title>Node1&#45;&gt;Node3</title>
<path fill="none" stroke="midnightblue" d="M119.361,-48C127.74,-48 136.307,-48 144.542,-48"/>
<polygon fill="midnightblue" stroke="midnightblue" points="144.755,-51.5001 154.755,-48 144.755,-44.5001 144.755,-51.5001"/>
</g>
<!-- Node4 -->
<g id="node4" class="node"><title>Node4</title>
<g id="a_node4"><a xlink:href="class_thread.html#abd50159ecd409936f454c2321f673616" target="_top" xlink:title="Method to stop the Trhead.">
<polygon fill="white" stroke="black" points="162,-0.5 162,-19.5 233,-19.5 233,-0.5 162,-0.5"/>
<text text-anchor="middle" x="197.5" y="-7.5" font-family="Helvetica,sans-Serif" font-size="10.00">Thread::stop</text>
</a>
</g>
</g>
<!-- Node1&#45;&gt;Node4 -->
<g id="edge3" class="edge"><title>Node1&#45;&gt;Node4</title>
<path fill="none" stroke="midnightblue" d="M114.251,-32.9814C126.896,-29.4482 140.229,-25.7227 152.394,-22.3237"/>
<polygon fill="midnightblue" stroke="midnightblue" points="153.607,-25.6188 162.297,-19.5568 151.724,-18.877 153.607,-25.6188"/>
</g>
</g>
</svg>
