<?xml version="1.0" encoding="UTF-8" standalone="no"?>
<!DOCTYPE svg PUBLIC "-//W3C//DTD SVG 1.1//EN"
 "http://www.w3.org/Graphics/SVG/1.1/DTD/svg11.dtd">
<!-- Generated by graphviz version 2.38.0 (20140413.2041)
 -->
<!-- Title: src/utils.hpp Pages: 1 -->
<svg width="444pt" height="308pt"
 viewBox="0.00 0.00 444.00 308.00" xmlns="http://www.w3.org/2000/svg" xmlns:xlink="http://www.w3.org/1999/xlink">
<g id="graph0" class="graph" transform="scale(1 1) rotate(0) translate(4 304)">
<title>src/utils.hpp</title>
<polygon fill="white" stroke="none" points="-4,4 -4,-304 440,-304 440,4 -4,4"/>
<!-- Node1 -->
<g id="node1" class="node"><title>Node1</title>
<g id="a_node1"><a xlink:title=" ">
<polygon fill="#bfbfbf" stroke="black" points="138,-280.5 138,-299.5 208,-299.5 208,-280.5 138,-280.5"/>
<text text-anchor="middle" x="173" y="-287.5" font-family="Helvetica,sans-Serif" font-size="10.00">src/utils.hpp</text>
</a>
</g>
</g>
<!-- Node2 -->
<g id="node2" class="node"><title>Node2</title>
<g id="a_node2"><a xlink:href="$output_8hpp.html" xlink:title=" ">
<polygon fill="white" stroke="black" points="103,-224.5 103,-243.5 165,-243.5 165,-224.5 103,-224.5"/>
<text text-anchor="middle" x="134" y="-231.5" font-family="Helvetica,sans-Serif" font-size="10.00">output.hpp</text>
</a>
</g>
</g>
<!-- Node1&#45;&gt;Node2 -->
<g id="edge1" class="edge"><title>Node1&#45;&gt;Node2</title>
<path fill="none" stroke="midnightblue" d="M166.56,-280.083C161.051,-272.455 152.969,-261.264 146.235,-251.941"/>
<polygon fill="midnightblue" stroke="midnightblue" points="149.013,-249.809 140.32,-243.751 143.338,-253.907 149.013,-249.809"/>
</g>
<!-- Node14 -->
<g id="node14" class="node"><title>Node14</title>
<g id="a_node14"><a xlink:title=" ">
<polygon fill="white" stroke="#bfbfbf" points="183.5,-224.5 183.5,-243.5 242.5,-243.5 242.5,-224.5 183.5,-224.5"/>
<text text-anchor="middle" x="213" y="-231.5" font-family="Helvetica,sans-Serif" font-size="10.00">exception</text>
</a>
</g>
</g>
<!-- Node1&#45;&gt;Node14 -->
<g id="edge14" class="edge"><title>Node1&#45;&gt;Node14</title>
<path fill="none" stroke="midnightblue" d="M179.605,-280.083C185.255,-272.455 193.545,-261.264 200.451,-251.941"/>
<polygon fill="midnightblue" stroke="midnightblue" points="203.378,-253.87 206.518,-243.751 197.753,-249.703 203.378,-253.87"/>
</g>
<!-- Node3 -->
<g id="node3" class="node"><title>Node3</title>
<g id="a_node3"><a xlink:title=" ">
<polygon fill="white" stroke="#bfbfbf" points="0,-168.5 0,-187.5 52,-187.5 52,-168.5 0,-168.5"/>
<text text-anchor="middle" x="26" y="-175.5" font-family="Helvetica,sans-Serif" font-size="10.00">stdarg.h</text>
</a>
</g>
</g>
<!-- Node2&#45;&gt;Node3 -->
<g id="edge2" class="edge"><title>Node2&#45;&gt;Node3</title>
<path fill="none" stroke="midnightblue" d="M116.648,-224.324C99.3281,-215.664 72.4847,-202.242 52.4981,-192.249"/>
<polygon fill="midnightblue" stroke="midnightblue" points="53.8186,-188.996 43.309,-187.655 50.688,-195.257 53.8186,-188.996"/>
</g>
<!-- Node4 -->
<g id="node4" class="node"><title>Node4</title>
<g id="a_node4"><a xlink:title=" ">
<polygon fill="white" stroke="#bfbfbf" points="76.5,-56.5 76.5,-75.5 117.5,-75.5 117.5,-56.5 76.5,-56.5"/>
<text text-anchor="middle" x="97" y="-63.5" font-family="Helvetica,sans-Serif" font-size="10.00">string</text>
</a>
</g>
</g>
<!-- Node2&#45;&gt;Node4 -->
<g id="edge3" class="edge"><title>Node2&#45;&gt;Node4</title>
<path fill="none" stroke="midnightblue" d="M124.5,-224.431C116.006,-216.087 104.131,-202.562 99,-188 86.8238,-153.445 90.308,-109.821 93.7673,-85.5177"/>
<polygon fill="midnightblue" stroke="midnightblue" points="97.2406,-85.9614 95.3467,-75.5372 90.3266,-84.8672 97.2406,-85.9614"/>
</g>
<!-- Node5 -->
<g id="node5" class="node"><title>Node5</title>
<g id="a_node5"><a xlink:title=" ">
<polygon fill="white" stroke="#bfbfbf" points="108,-168.5 108,-187.5 160,-187.5 160,-168.5 108,-168.5"/>
<text text-anchor="middle" x="134" y="-175.5" font-family="Helvetica,sans-Serif" font-size="10.00">sstream</text>
</a>
</g>
</g>
<!-- Node2&#45;&gt;Node5 -->
<g id="edge4" class="edge"><title>Node2&#45;&gt;Node5</title>
<path fill="none" stroke="midnightblue" d="M134,-224.083C134,-217.006 134,-206.861 134,-197.986"/>
<polygon fill="midnightblue" stroke="midnightblue" points="137.5,-197.751 134,-187.751 130.5,-197.751 137.5,-197.751"/>
</g>
<!-- Node6 -->
<g id="node6" class="node"><title>Node6</title>
<g id="a_node6"><a xlink:title=" ">
<polygon fill="white" stroke="#bfbfbf" points="178,-168.5 178,-187.5 220,-187.5 220,-168.5 178,-168.5"/>
<text text-anchor="middle" x="199" y="-175.5" font-family="Helvetica,sans-Serif" font-size="10.00">vector</text>
</a>
</g>
</g>
<!-- Node2&#45;&gt;Node6 -->
<g id="edge5" class="edge"><title>Node2&#45;&gt;Node6</title>
<path fill="none" stroke="midnightblue" d="M144.443,-224.324C154.146,-216.263 168.815,-204.077 180.5,-194.369"/>
<polygon fill="midnightblue" stroke="midnightblue" points="182.911,-196.916 188.367,-187.834 178.438,-191.532 182.911,-196.916"/>
</g>
<!-- Node7 -->
<g id="node7" class="node"><title>Node7</title>
<g id="a_node7"><a xlink:href="$_edit_8h.html" xlink:title=" ">
<polygon fill="white" stroke="black" points="238,-168.5 238,-187.5 280,-187.5 280,-168.5 238,-168.5"/>
<text text-anchor="middle" x="259" y="-175.5" font-family="Helvetica,sans-Serif" font-size="10.00">Edit.h</text>
</a>
</g>
</g>
<!-- Node2&#45;&gt;Node7 -->
<g id="edge6" class="edge"><title>Node2&#45;&gt;Node7</title>
<path fill="none" stroke="midnightblue" d="M153.807,-224.444C174.287,-215.596 206.483,-201.687 229.865,-191.586"/>
<polygon fill="midnightblue" stroke="midnightblue" points="231.494,-194.695 239.286,-187.516 228.718,-188.269 231.494,-194.695"/>
</g>
<!-- Node8 -->
<g id="node8" class="node"><title>Node8</title>
<g id="a_node8"><a xlink:href="$_control_8h.html" xlink:title=" ">
<polygon fill="white" stroke="black" points="226,-112.5 226,-131.5 282,-131.5 282,-112.5 226,-112.5"/>
<text text-anchor="middle" x="254" y="-119.5" font-family="Helvetica,sans-Serif" font-size="10.00">Control.h</text>
</a>
</g>
</g>
<!-- Node7&#45;&gt;Node8 -->
<g id="edge7" class="edge"><title>Node7&#45;&gt;Node8</title>
<path fill="none" stroke="midnightblue" d="M258.174,-168.083C257.519,-161.006 256.58,-150.861 255.758,-141.986"/>
<polygon fill="midnightblue" stroke="midnightblue" points="259.217,-141.386 254.81,-131.751 252.247,-142.031 259.217,-141.386"/>
</g>
<!-- Node8&#45;&gt;Node4 -->
<g id="edge9" class="edge"><title>Node8&#45;&gt;Node4</title>
<path fill="none" stroke="midnightblue" d="M229.123,-112.444C201.588,-102.973 157.193,-87.7032 127.563,-77.512"/>
<polygon fill="midnightblue" stroke="midnightblue" points="128.344,-74.0797 117.75,-74.1368 126.068,-80.6991 128.344,-74.0797"/>
</g>
<!-- Node9 -->
<g id="node9" class="node"><title>Node9</title>
<g id="a_node9"><a xlink:title=" ">
<polygon fill="white" stroke="#bfbfbf" points="144,-56.5 144,-75.5 206,-75.5 206,-56.5 144,-56.5"/>
<text text-anchor="middle" x="175" y="-63.5" font-family="Helvetica,sans-Serif" font-size="10.00">windows.h</text>
</a>
</g>
</g>
<!-- Node8&#45;&gt;Node9 -->
<g id="edge8" class="edge"><title>Node8&#45;&gt;Node9</title>
<path fill="none" stroke="midnightblue" d="M241.307,-112.324C229.099,-103.979 210.422,-91.2122 195.997,-81.3524"/>
<polygon fill="midnightblue" stroke="midnightblue" points="197.892,-78.4082 187.661,-75.6545 193.942,-84.1871 197.892,-78.4082"/>
</g>
<!-- Node10 -->
<g id="node10" class="node"><title>Node10</title>
<g id="a_node10"><a xlink:title=" ">
<polygon fill="white" stroke="#bfbfbf" points="224,-56.5 224,-75.5 276,-75.5 276,-56.5 224,-56.5"/>
<text text-anchor="middle" x="250" y="-63.5" font-family="Helvetica,sans-Serif" font-size="10.00">memory</text>
</a>
</g>
</g>
<!-- Node8&#45;&gt;Node10 -->
<g id="edge10" class="edge"><title>Node8&#45;&gt;Node10</title>
<path fill="none" stroke="midnightblue" d="M253.339,-112.083C252.815,-105.006 252.064,-94.8611 251.406,-85.9865"/>
<polygon fill="midnightblue" stroke="midnightblue" points="254.877,-85.4652 250.648,-75.7511 247.897,-85.9823 254.877,-85.4652"/>
</g>
<!-- Node11 -->
<g id="node11" class="node"><title>Node11</title>
<g id="a_node11"><a xlink:href="$_property_8hpp.html" xlink:title=" ">
<polygon fill="white" stroke="black" points="294,-56.5 294,-75.5 366,-75.5 366,-56.5 294,-56.5"/>
<text text-anchor="middle" x="330" y="-63.5" font-family="Helvetica,sans-Serif" font-size="10.00">Property.hpp</text>
</a>
</g>
</g>
<!-- Node8&#45;&gt;Node11 -->
<g id="edge11" class="edge"><title>Node8&#45;&gt;Node11</title>
<path fill="none" stroke="midnightblue" d="M266.211,-112.324C277.776,-104.107 295.375,-91.6017 309.161,-81.8069"/>
<polygon fill="midnightblue" stroke="midnightblue" points="311.443,-84.4791 317.567,-75.8339 307.388,-78.7729 311.443,-84.4791"/>
</g>
<!-- Node13 -->
<g id="node13" class="node"><title>Node13</title>
<g id="a_node13"><a xlink:title=" ">
<polygon fill="white" stroke="#bfbfbf" points="384,-56.5 384,-75.5 436,-75.5 436,-56.5 384,-56.5"/>
<text text-anchor="middle" x="410" y="-63.5" font-family="Helvetica,sans-Serif" font-size="10.00">assert.h</text>
</a>
</g>
</g>
<!-- Node8&#45;&gt;Node13 -->
<g id="edge13" class="edge"><title>Node8&#45;&gt;Node13</title>
<path fill="none" stroke="midnightblue" d="M278.719,-112.444C304.848,-103.399 346.259,-89.064 375.576,-78.9158"/>
<polygon fill="midnightblue" stroke="midnightblue" points="377.092,-82.0951 385.397,-75.5164 374.802,-75.4801 377.092,-82.0951"/>
</g>
<!-- Node12 -->
<g id="node12" class="node"><title>Node12</title>
<g id="a_node12"><a xlink:title=" ">
<polygon fill="white" stroke="#bfbfbf" points="301,-0.5 301,-19.5 359,-19.5 359,-0.5 301,-0.5"/>
<text text-anchor="middle" x="330" y="-7.5" font-family="Helvetica,sans-Serif" font-size="10.00">functional</text>
</a>
</g>
</g>
<!-- Node11&#45;&gt;Node12 -->
<g id="edge12" class="edge"><title>Node11&#45;&gt;Node12</title>
<path fill="none" stroke="midnightblue" d="M330,-56.083C330,-49.0059 330,-38.8611 330,-29.9865"/>
<polygon fill="midnightblue" stroke="midnightblue" points="333.5,-29.751 330,-19.7511 326.5,-29.7511 333.5,-29.751"/>
</g>
</g>
</svg>
