<?xml version="1.0" encoding="UTF-8" standalone="no"?>
<!DOCTYPE svg PUBLIC "-//W3C//DTD SVG 1.1//EN"
 "http://www.w3.org/Graphics/SVG/1.1/DTD/svg11.dtd">
<!-- Generated by graphviz version 2.38.0 (20140413.2041)
 -->
<!-- Title: src/utils.hpp Pages: 1 -->
<svg width="1298pt" height="196pt"
 viewBox="0.00 0.00 1297.50 196.00" xmlns="http://www.w3.org/2000/svg" xmlns:xlink="http://www.w3.org/1999/xlink">
<g id="graph0" class="graph" transform="scale(1 1) rotate(0) translate(4 192)">
<title>src/utils.hpp</title>
<polygon fill="white" stroke="none" points="-4,4 -4,-192 1293.5,-192 1293.5,4 -4,4"/>
<!-- Node1 -->
<g id="node1" class="node"><title>Node1</title>
<g id="a_node1"><a xlink:title=" ">
<polygon fill="#bfbfbf" stroke="black" points="678.5,-168.5 678.5,-187.5 748.5,-187.5 748.5,-168.5 678.5,-168.5"/>
<text text-anchor="middle" x="713.5" y="-175.5" font-family="Helvetica,sans-Serif" font-size="10.00">src/utils.hpp</text>
</a>
</g>
</g>
<!-- Node2 -->
<g id="node2" class="node"><title>Node2</title>
<g id="a_node2"><a xlink:href="dbg__new_8h.html" target="_top" xlink:title=" ">
<polygon fill="white" stroke="black" points="416.5,-112.5 416.5,-131.5 496.5,-131.5 496.5,-112.5 416.5,-112.5"/>
<text text-anchor="middle" x="456.5" y="-119.5" font-family="Helvetica,sans-Serif" font-size="10.00">src/dbg_new.h</text>
</a>
</g>
</g>
<!-- Node1&#45;&gt;Node2 -->
<g id="edge1" class="edge"><title>Node1&#45;&gt;Node2</title>
<path fill="none" stroke="midnightblue" d="M668.39,-167.522C619.842,-157.321 543.343,-141.247 496.761,-131.46"/>
<polygon fill="midnightblue" stroke="midnightblue" points="667.798,-170.974 678.304,-169.605 669.238,-164.123 667.798,-170.974"/>
</g>
<!-- Node8 -->
<g id="node8" class="node"><title>Node8</title>
<g id="a_node8"><a xlink:href="main_8cpp.html" target="_top" xlink:title=" ">
<polygon fill="white" stroke="black" points="677,-56.5 677,-75.5 750,-75.5 750,-56.5 677,-56.5"/>
<text text-anchor="middle" x="713.5" y="-63.5" font-family="Helvetica,sans-Serif" font-size="10.00">src/main.cpp</text>
</a>
</g>
</g>
<!-- Node1&#45;&gt;Node8 -->
<g id="edge8" class="edge"><title>Node1&#45;&gt;Node8</title>
<path fill="none" stroke="midnightblue" d="M713.5,-158.348C713.5,-134.254 713.5,-93.3079 713.5,-75.5914"/>
<polygon fill="midnightblue" stroke="midnightblue" points="710,-158.368 713.5,-168.368 717,-158.369 710,-158.368"/>
</g>
<!-- Node9 -->
<g id="node9" class="node"><title>Node9</title>
<g id="a_node9"><a xlink:href="_test_case_8h.html" target="_top" xlink:title=" ">
<polygon fill="white" stroke="black" points="838.5,-112.5 838.5,-131.5 942.5,-131.5 942.5,-112.5 838.5,-112.5"/>
<text text-anchor="middle" x="890.5" y="-119.5" font-family="Helvetica,sans-Serif" font-size="10.00">src/Test/TestCase.h</text>
</a>
</g>
</g>
<!-- Node1&#45;&gt;Node9 -->
<g id="edge9" class="edge"><title>Node1&#45;&gt;Node9</title>
<path fill="none" stroke="midnightblue" d="M751.403,-165.436C784.775,-155.255 832.601,-140.664 862.585,-131.516"/>
<polygon fill="midnightblue" stroke="midnightblue" points="750.09,-162.178 741.546,-168.444 752.132,-168.873 750.09,-162.178"/>
</g>
<!-- Node3 -->
<g id="node3" class="node"><title>Node3</title>
<g id="a_node3"><a xlink:href="_thread_8cpp.html" target="_top" xlink:title=" ">
<polygon fill="white" stroke="black" points="0,-56.5 0,-75.5 107,-75.5 107,-56.5 0,-56.5"/>
<text text-anchor="middle" x="53.5" y="-63.5" font-family="Helvetica,sans-Serif" font-size="10.00">src/Base/Thread.cpp</text>
</a>
</g>
</g>
<!-- Node2&#45;&gt;Node3 -->
<g id="edge2" class="edge"><title>Node2&#45;&gt;Node3</title>
<path fill="none" stroke="midnightblue" d="M406.113,-114.558C339.547,-106 218.668,-90.2947 115.5,-76 112.807,-75.6268 110.048,-75.2407 107.262,-74.8477"/>
<polygon fill="midnightblue" stroke="midnightblue" points="405.954,-118.066 416.319,-115.869 406.846,-111.123 405.954,-118.066"/>
</g>
<!-- Node4 -->
<g id="node4" class="node"><title>Node4</title>
<g id="a_node4"><a xlink:href="_button_8cpp.html" target="_top" xlink:title=" ">
<polygon fill="white" stroke="black" points="125,-56.5 125,-75.5 244,-75.5 244,-56.5 125,-56.5"/>
<text text-anchor="middle" x="184.5" y="-63.5" font-family="Helvetica,sans-Serif" font-size="10.00">src/Controls/Button.cpp</text>
</a>
</g>
</g>
<!-- Node2&#45;&gt;Node4 -->
<g id="edge3" class="edge"><title>Node2&#45;&gt;Node4</title>
<path fill="none" stroke="midnightblue" d="M406.485,-111.071C355.152,-100.879 276.109,-85.1871 227.496,-75.536"/>
<polygon fill="midnightblue" stroke="midnightblue" points="405.875,-114.518 416.365,-113.032 407.238,-107.652 405.875,-114.518"/>
</g>
<!-- Node5 -->
<g id="node5" class="node"><title>Node5</title>
<g id="a_node5"><a xlink:href="_control_8cpp.html" target="_top" xlink:title=" ">
<polygon fill="white" stroke="black" points="262.5,-56.5 262.5,-75.5 384.5,-75.5 384.5,-56.5 262.5,-56.5"/>
<text text-anchor="middle" x="323.5" y="-63.5" font-family="Helvetica,sans-Serif" font-size="10.00">src/Controls/Control.cpp</text>
</a>
</g>
</g>
<!-- Node2&#45;&gt;Node5 -->
<g id="edge4" class="edge"><title>Node2&#45;&gt;Node5</title>
<path fill="none" stroke="midnightblue" d="M426.052,-108.638C401.093,-98.504 366.423,-84.4274 344.476,-75.5164"/>
<polygon fill="midnightblue" stroke="midnightblue" points="424.844,-111.924 435.426,-112.444 427.477,-105.439 424.844,-111.924"/>
</g>
<!-- Node6 -->
<g id="node6" class="node"><title>Node6</title>
<g id="a_node6"><a xlink:href="_edit_8cpp.html" target="_top" xlink:title=" ">
<polygon fill="white" stroke="black" points="402.5,-56.5 402.5,-75.5 510.5,-75.5 510.5,-56.5 402.5,-56.5"/>
<text text-anchor="middle" x="456.5" y="-63.5" font-family="Helvetica,sans-Serif" font-size="10.00">src/Controls/Edit.cpp</text>
</a>
</g>
</g>
<!-- Node2&#45;&gt;Node6 -->
<g id="edge5" class="edge"><title>Node2&#45;&gt;Node6</title>
<path fill="none" stroke="midnightblue" d="M456.5,-101.805C456.5,-92.9102 456.5,-82.7798 456.5,-75.7511"/>
<polygon fill="midnightblue" stroke="midnightblue" points="453,-102.083 456.5,-112.083 460,-102.083 453,-102.083"/>
</g>
<!-- Node7 -->
<g id="node7" class="node"><title>Node7</title>
<g id="a_node7"><a xlink:href="_progress_8cpp.html" target="_top" xlink:title=" ">
<polygon fill="white" stroke="black" points="528.5,-56.5 528.5,-75.5 658.5,-75.5 658.5,-56.5 528.5,-56.5"/>
<text text-anchor="middle" x="593.5" y="-63.5" font-family="Helvetica,sans-Serif" font-size="10.00">src/Controls/Progress.cpp</text>
</a>
</g>
</g>
<!-- Node2&#45;&gt;Node7 -->
<g id="edge6" class="edge"><title>Node2&#45;&gt;Node7</title>
<path fill="none" stroke="midnightblue" d="M487.523,-108.772C513.257,-98.6287 549.186,-84.4669 571.894,-75.5164"/>
<polygon fill="midnightblue" stroke="midnightblue" points="486.228,-105.52 478.208,-112.444 488.795,-112.033 486.228,-105.52"/>
</g>
<!-- Node2&#45;&gt;Node8 -->
<g id="edge7" class="edge"><title>Node2&#45;&gt;Node8</title>
<path fill="none" stroke="midnightblue" d="M506.613,-110.47C556.643,-99.9582 632.329,-84.0553 676.951,-74.6795"/>
<polygon fill="midnightblue" stroke="midnightblue" points="505.723,-107.081 496.656,-112.563 507.162,-113.931 505.723,-107.081"/>
</g>
<!-- Node9&#45;&gt;Node8 -->
<g id="edge10" class="edge"><title>Node9&#45;&gt;Node8</title>
<path fill="none" stroke="midnightblue" d="M852.597,-109.436C819.225,-99.2551 771.399,-84.664 741.415,-75.5164"/>
<polygon fill="midnightblue" stroke="midnightblue" points="851.868,-112.873 862.454,-112.444 853.91,-106.178 851.868,-112.873"/>
</g>
<!-- Node10 -->
<g id="node10" class="node"><title>Node10</title>
<g id="a_node10"><a xlink:href="_base_tests_8h.html" target="_top" xlink:title=" ">
<polygon fill="white" stroke="black" points="768.5,-56.5 768.5,-75.5 878.5,-75.5 878.5,-56.5 768.5,-56.5"/>
<text text-anchor="middle" x="823.5" y="-63.5" font-family="Helvetica,sans-Serif" font-size="10.00">src/Test/BaseTests.h</text>
</a>
</g>
</g>
<!-- Node9&#45;&gt;Node10 -->
<g id="edge11" class="edge"><title>Node9&#45;&gt;Node10</title>
<path fill="none" stroke="midnightblue" d="M871.665,-105.82C859.662,-96.1452 844.528,-83.9481 834.461,-75.8339"/>
<polygon fill="midnightblue" stroke="midnightblue" points="869.753,-108.774 879.735,-112.324 874.146,-103.324 869.753,-108.774"/>
</g>
<!-- Node12 -->
<g id="node12" class="node"><title>Node12</title>
<g id="a_node12"><a xlink:href="_property_tests_8h.html" target="_top" xlink:title=" ">
<polygon fill="white" stroke="black" points="896.5,-56.5 896.5,-75.5 1020.5,-75.5 1020.5,-56.5 896.5,-56.5"/>
<text text-anchor="middle" x="958.5" y="-63.5" font-family="Helvetica,sans-Serif" font-size="10.00">src/Test/PropertyTests.h</text>
</a>
</g>
</g>
<!-- Node9&#45;&gt;Node12 -->
<g id="edge13" class="edge"><title>Node9&#45;&gt;Node12</title>
<path fill="none" stroke="midnightblue" d="M909.262,-106.101C921.5,-96.3824 937.059,-84.0269 947.376,-75.8339"/>
<polygon fill="midnightblue" stroke="midnightblue" points="907.08,-103.364 901.425,-112.324 911.433,-108.846 907.08,-103.364"/>
</g>
<!-- Node14 -->
<g id="node14" class="node"><title>Node14</title>
<g id="a_node14"><a xlink:href="_test_case_8cpp.html" target="_top" xlink:title=" ">
<polygon fill="white" stroke="black" points="1039,-56.5 1039,-75.5 1154,-75.5 1154,-56.5 1039,-56.5"/>
<text text-anchor="middle" x="1096.5" y="-63.5" font-family="Helvetica,sans-Serif" font-size="10.00">src/Test/TestCase.cpp</text>
</a>
</g>
</g>
<!-- Node9&#45;&gt;Node14 -->
<g id="edge15" class="edge"><title>Node9&#45;&gt;Node14</title>
<path fill="none" stroke="midnightblue" d="M933.115,-109.829C972.01,-99.6333 1028.66,-84.7823 1064.01,-75.5164"/>
<polygon fill="midnightblue" stroke="midnightblue" points="931.927,-106.522 923.141,-112.444 933.702,-113.293 931.927,-106.522"/>
</g>
<!-- Node15 -->
<g id="node15" class="node"><title>Node15</title>
<g id="a_node15"><a xlink:href="_value_tests_8h.html" target="_top" xlink:title=" ">
<polygon fill="white" stroke="black" points="1172.5,-56.5 1172.5,-75.5 1284.5,-75.5 1284.5,-56.5 1172.5,-56.5"/>
<text text-anchor="middle" x="1228.5" y="-63.5" font-family="Helvetica,sans-Serif" font-size="10.00">src/Test/ValueTests.h</text>
</a>
</g>
</g>
<!-- Node9&#45;&gt;Node15 -->
<g id="edge16" class="edge"><title>Node9&#45;&gt;Node15</title>
<path fill="none" stroke="midnightblue" d="M952.511,-111.093C1016.36,-100.892 1114.82,-85.1626 1175.25,-75.5069"/>
<polygon fill="midnightblue" stroke="midnightblue" points="951.894,-107.647 942.572,-112.681 952.999,-114.559 951.894,-107.647"/>
</g>
<!-- Node11 -->
<g id="node11" class="node"><title>Node11</title>
<g id="a_node11"><a xlink:href="_base_tests_8cpp.html" target="_top" xlink:title=" ">
<polygon fill="white" stroke="black" points="758.5,-0.5 758.5,-19.5 878.5,-19.5 878.5,-0.5 758.5,-0.5"/>
<text text-anchor="middle" x="818.5" y="-7.5" font-family="Helvetica,sans-Serif" font-size="10.00">src/Test/BaseTests.cpp</text>
</a>
</g>
</g>
<!-- Node10&#45;&gt;Node11 -->
<g id="edge12" class="edge"><title>Node10&#45;&gt;Node11</title>
<path fill="none" stroke="midnightblue" d="M821.75,-46.1005C820.92,-37.1357 819.968,-26.8579 819.31,-19.7511"/>
<polygon fill="midnightblue" stroke="midnightblue" points="818.267,-46.4483 822.674,-56.083 825.237,-45.8029 818.267,-46.4483"/>
</g>
<!-- Node13 -->
<g id="node13" class="node"><title>Node13</title>
<g id="a_node13"><a xlink:href="_property_tests_8cpp.html" target="_top" xlink:title=" ">
<polygon fill="white" stroke="black" points="896.5,-0.5 896.5,-19.5 1030.5,-19.5 1030.5,-0.5 896.5,-0.5"/>
<text text-anchor="middle" x="963.5" y="-7.5" font-family="Helvetica,sans-Serif" font-size="10.00">src/Test/PropertyTests.cpp</text>
</a>
</g>
</g>
<!-- Node12&#45;&gt;Node13 -->
<g id="edge14" class="edge"><title>Node12&#45;&gt;Node13</title>
<path fill="none" stroke="midnightblue" d="M960.25,-46.1005C961.08,-37.1357 962.032,-26.8579 962.69,-19.7511"/>
<polygon fill="midnightblue" stroke="midnightblue" points="956.763,-45.8029 959.326,-56.083 963.733,-46.4483 956.763,-45.8029"/>
</g>
<!-- Node16 -->
<g id="node16" class="node"><title>Node16</title>
<g id="a_node16"><a xlink:href="_value_tests_8cpp.html" target="_top" xlink:title=" ">
<polygon fill="white" stroke="black" points="1167.5,-0.5 1167.5,-19.5 1289.5,-19.5 1289.5,-0.5 1167.5,-0.5"/>
<text text-anchor="middle" x="1228.5" y="-7.5" font-family="Helvetica,sans-Serif" font-size="10.00">src/Test/ValueTests.cpp</text>
</a>
</g>
</g>
<!-- Node15&#45;&gt;Node16 -->
<g id="edge17" class="edge"><title>Node15&#45;&gt;Node16</title>
<path fill="none" stroke="midnightblue" d="M1228.5,-45.8045C1228.5,-36.9102 1228.5,-26.7798 1228.5,-19.7511"/>
<polygon fill="midnightblue" stroke="midnightblue" points="1225,-46.083 1228.5,-56.083 1232,-46.083 1225,-46.083"/>
</g>
</g>
</svg>
